<?xml version="1.0" standalone="no"?>
<!DOCTYPE svg PUBLIC "-//W3C//DTD SVG 20010904//EN"
 "http://www.w3.org/TR/2001/REC-SVG-20010904/DTD/svg10.dtd">
<svg version="1.0" xmlns="http://www.w3.org/2000/svg"
 width="448.000000pt" height="868.000000pt" viewBox="0 0 448.000000 868.000000"
 preserveAspectRatio="xMidYMid meet">
<metadata>
Created by potrace 1.16, written by Peter Selinger 2001-2019
</metadata>
<g transform="translate(0.000000,868.000000) scale(0.100000,-0.100000)"
fill="#94d2bd" stroke="none">
<path d="M840 8430 c-11 -11 -20 -31 -20 -44 0 -26 33 -56 61 -56 9 0 27 -8
39 -18 21 -17 21 -19 5 -35 -20 -21 -49 -22 -65 -2 -16 19 -40 19 -40 1 0 -22
40 -46 77 -46 36 0 73 32 73 62 0 26 -46 66 -78 70 -19 2 -28 10 -30 25 -4 29
33 41 57 19 22 -20 41 -21 41 -2 0 21 -40 46 -72 46 -16 0 -37 -9 -48 -20z"/>
<path d="M1074 8425 c-15 -22 -53 -154 -54 -182 0 -22 20 -14 32 12 9 19 19
25 45 25 26 0 36 -6 45 -25 12 -27 38 -34 38 -10 0 8 -7 36 -16 62 -46 142
-61 162 -90 118z m39 -75 c3 -13 0 -23 -9 -27 -21 -8 -26 1 -18 31 7 29 19 27
27 -4z"/>
<path d="M1246 8443 c-3 -3 -6 -53 -6 -110 l0 -103 70 0 c56 0 70 3 70 15 0
11 -11 15 -39 15 -69 0 -71 3 -71 95 0 77 -7 104 -24 88z"/>
<path d="M1440 8435 c0 -8 9 -15 19 -15 32 0 37 -16 40 -122 1 -44 5 -58 16
-58 12 0 15 14 15 69 0 85 6 101 36 101 17 0 24 6 24 20 0 18 -7 20 -75 20
-60 0 -75 -3 -75 -15z"/>
<path d="M1680 8443 c-30 -11 -40 -37 -40 -103 0 -86 16 -110 74 -110 63 0 76
19 76 113 0 67 -3 78 -22 91 -22 16 -59 19 -88 9z m68 -35 c7 -7 12 -39 12
-75 0 -59 -1 -63 -27 -69 -41 -11 -58 6 -61 64 -2 28 2 61 8 72 12 22 49 27
68 8z"/>
<path d="M2057 8444 c-13 -14 -7 -22 23 -27 l29 -6 3 -88 c4 -115 22 -115 26
0 2 59 7 87 15 88 7 1 19 2 27 3 8 0 15 8 15 16 0 12 -15 16 -65 18 -36 2 -69
0 -73 -4z"/>
<path d="M2261 8436 c-8 -9 -11 -46 -9 -107 l3 -94 68 -3 c54 -2 67 0 67 12 0
11 -13 16 -47 18 -44 3 -48 5 -51 30 -3 25 0 27 40 30 31 2 44 8 46 21 3 14
-4 17 -43 17 -45 0 -46 1 -43 28 3 25 7 27 48 28 32 0 45 5 45 15 0 20 -107
25 -124 5z"/>
<path d="M2451 8437 c-12 -12 -16 -163 -5 -191 12 -30 34 3 34 50 0 48 14 59
24 19 8 -31 33 -33 38 -3 2 12 8 23 15 25 8 3 13 -13 15 -48 2 -31 8 -54 16
-57 17 -5 17 203 0 214 -14 9 -48 -31 -48 -57 0 -32 -28 -21 -40 15 -12 38
-31 51 -49 33z"/>
<path d="M2654 8437 c-9 -24 1 -202 11 -202 6 0 12 14 13 30 5 42 19 55 58 55
67 0 85 86 24 117 -33 17 -99 17 -106 0z m97 -38 c27 -27 9 -51 -35 -47 -34 3
-46 29 -26 53 17 21 36 19 61 -6z"/>
<path d="M2869 8431 c-21 -17 -24 -27 -23 -90 1 -84 18 -111 71 -111 47 0 69
26 76 93 8 67 -4 104 -38 117 -38 15 -60 12 -86 -9z m80 -25 c7 -9 11 -40 9
-78 l-3 -63 -35 0 -35 0 -3 63 c-3 67 7 92 38 92 10 0 23 -6 29 -14z"/>
<path d="M3063 8443 c-9 -3 -13 -34 -13 -104 0 -81 3 -99 15 -99 10 0 15 10
15 28 0 15 4 33 9 41 12 18 31 4 62 -45 11 -19 27 -34 35 -34 20 0 17 17 -7
51 l-20 29 20 26 c28 36 26 68 -5 93 -25 20 -81 27 -111 14z m87 -38 c22 -26
8 -50 -30 -50 -25 0 -36 5 -38 18 -5 23 15 47 38 47 10 0 23 -7 30 -15z"/>
<path d="M3311 8436 c-16 -19 -71 -188 -65 -198 10 -15 25 -8 34 17 8 20 16
25 46 25 27 0 37 -5 41 -19 6 -22 29 -35 38 -21 9 14 -54 197 -70 203 -7 3
-18 0 -24 -7z m34 -117 c-7 -11 -16 -11 -33 -1 -10 7 -10 15 0 43 l12 34 13
-33 c7 -18 11 -37 8 -43z"/>
<path d="M3465 8431 c-7 -12 -5 -169 2 -188 8 -20 143 -18 143 1 0 11 -15 16
-52 18 l-53 3 -5 84 c-5 79 -18 109 -35 82z"/>
<path d="M4214 8335 c-4 -8 -3 -23 1 -32 7 -17 8 -16 15 2 5 11 9 26 9 33 1
17 -18 15 -25 -3z"/>
<path d="M3515 7911 c-3 -6 1 -11 9 -11 27 0 26 -16 -4 -52 -23 -27 -26 -37
-16 -41 23 -9 57 4 55 22 -1 9 2 24 6 35 14 32 -32 76 -50 47z"/>
<path d="M3612 7908 c-19 -19 -14 -38 13 -48 30 -11 33 -30 5 -37 -23 -6 -27
-23 -6 -23 24 0 47 40 35 62 -5 10 -16 18 -24 18 -8 0 -15 5 -15 10 0 6 10 10
23 10 18 0 19 2 7 10 -19 13 -24 12 -38 -2z"/>
<path d="M3816 7913 c-3 -3 1 -15 9 -27 21 -30 18 -55 -7 -65 -22 -8 -22 -9
-4 -17 23 -9 44 15 40 48 -1 13 -3 30 -3 39 -1 17 -25 32 -35 22z"/>
<path d="M360 7895 c0 -8 6 -12 14 -9 9 3 20 -3 28 -15 7 -12 18 -21 25 -21 7
0 13 -7 13 -15 0 -8 5 -15 11 -15 6 0 8 9 4 20 -4 12 -2 20 6 20 8 0 8 4 -2
16 -10 13 -10 17 2 25 11 7 11 9 -3 9 -10 0 -18 -4 -18 -10 0 -5 -9 -10 -20
-10 -11 0 -20 5 -20 10 0 6 -9 10 -20 10 -11 0 -20 -7 -20 -15z"/>
<path d="M525 7896 c-18 -13 -18 -14 4 -25 13 -8 20 -18 17 -27 -3 -8 -1 -14
4 -14 18 0 20 20 5 44 -13 19 -13 25 -3 29 7 3 8 6 2 6 -5 1 -19 -5 -29 -13z"/>
<path d="M611 7873 c1 -22 3 -29 6 -18 3 11 9 24 14 30 14 14 11 25 -6 25 -11
0 -15 -10 -14 -37z"/>
<path d="M684 7899 c-3 -6 -2 -15 4 -21 7 -7 14 -3 21 11 10 17 9 21 -3 21 -8
0 -18 -5 -22 -11z"/>
<path d="M830 7901 c0 -12 -39 -21 -46 -10 -3 5 -13 9 -23 9 -15 0 -18 -7 -16
-32 4 -45 4 -45 15 -28 7 12 12 12 22 2 21 -21 41 -15 34 11 -8 35 25 52 53
26 23 -22 28 -14 7 14 -14 18 -46 24 -46 8z"/>
<path d="M3422 7894 c2 -11 11 -20 22 -22 13 -3 17 1 14 14 -2 11 -11 20 -22
22 -13 3 -17 -1 -14 -14z"/>
<path d="M3716 7885 c-20 -30 -21 -55 -2 -55 8 0 21 -3 30 -6 12 -4 16 0 16
15 0 13 -7 21 -17 22 -11 0 -13 3 -5 6 14 5 17 43 3 43 -5 0 -16 -11 -25 -25z"/>
<path d="M3991 7904 c12 -4 16 -16 15 -45 -1 -34 -4 -39 -19 -35 -11 3 -17 0
-14 -7 5 -17 42 -20 54 -5 7 8 8 30 4 53 -5 33 -10 40 -31 42 -14 1 -18 0 -9
-3z"/>
<path d="M2952 7876 c0 -11 -2 -28 -6 -37 -5 -12 -1 -16 21 -16 26 0 28 3 28
37 0 32 -3 38 -22 38 -17 0 -22 -6 -21 -22z"/>
<path d="M3323 7864 c-7 -18 14 -35 34 -27 7 3 13 14 13 24 0 24 -38 26 -47 3z"/>
<path d="M360 7846 c0 -19 19 -31 31 -19 5 5 0 14 -11 21 -17 10 -20 10 -20
-2z"/>
<path d="M684 7847 c-8 -21 2 -35 16 -21 5 5 6 15 0 24 -8 12 -10 12 -16 -3z"/>
<path d="M3426 7834 c-8 -31 -3 -39 19 -31 19 8 20 57 1 57 -8 0 -17 -12 -20
-26z"/>
<path d="M853 7843 c-17 -6 -16 -23 1 -23 8 0 16 7 20 15 6 15 1 17 -21 8z"/>
<path d="M3466 7678 c-22 -31 -20 -64 5 -81 26 -19 51 -12 66 19 12 25 12 25
-36 28 -23 2 -25 27 -2 33 26 7 28 23 2 23 -11 0 -27 -10 -35 -22z m38 -69
c-3 -5 -10 -7 -15 -3 -5 3 -7 10 -3 15 3 5 10 7 15 3 5 -3 7 -10 3 -15z"/>
<path d="M3578 7678 c-20 -24 -21 -31 -12 -66 5 -19 12 -23 38 -20 41 4 48 38
11 58 -28 15 -33 30 -11 30 8 0 18 5 21 10 12 20 -31 9 -47 -12z m32 -60 c0
-5 -7 -8 -15 -8 -17 0 -18 2 -9 25 5 13 8 14 15 3 5 -7 9 -16 9 -20z"/>
<path d="M3672 7688 c-20 -20 -14 -35 18 -41 37 -8 41 -37 5 -37 -14 0 -25 -4
-25 -10 0 -5 13 -10 30 -10 23 0 31 5 36 24 7 31 -1 46 -27 46 -24 0 -25 16
-1 29 15 10 15 10 -3 11 -12 0 -26 -5 -33 -12z"/>
<path d="M3803 7688 c-12 -20 -33 -60 -33 -64 0 -9 54 -24 68 -19 13 5 13 8
-1 23 -10 11 -13 27 -10 45 6 28 -9 37 -24 15z"/>
<path d="M3969 7683 c-13 -15 -12 -16 8 -11 37 10 38 -11 2 -48 l-33 -34 27 0
c18 0 27 5 27 15 0 9 7 18 16 22 8 3 13 12 10 19 -3 7 -1 16 5 20 14 8 -9 34
-31 34 -10 0 -24 -8 -31 -17z"/>
<path d="M2945 7673 c4 -10 12 -33 17 -51 11 -40 12 -40 32 18 17 50 14 59
-10 39 -13 -11 -18 -11 -21 -1 -3 6 -9 12 -15 12 -6 0 -7 -8 -3 -17z"/>
<path d="M371 7657 c-6 -6 -11 -46 -11 -89 l0 -78 43 0 c57 0 87 30 87 86 0
21 -7 47 -15 58 -17 22 -89 38 -104 23z m71 -34 c23 -21 23 -64 0 -94 -32 -39
-52 -20 -52 51 0 65 14 77 52 43z"/>
<path d="M521 7656 c-8 -9 -11 -41 -9 -88 l3 -73 58 -3 c35 -2 57 1 57 8 0 5
-18 10 -39 10 -22 0 -43 4 -46 10 -8 13 14 52 26 45 12 -8 49 4 49 16 0 5 -16
9 -35 9 -31 0 -35 3 -35 25 0 22 4 25 36 25 50 0 39 24 -13 28 -26 2 -44 -2
-52 -12z"/>
<path d="M1251 7660 l-33 -5 21 -19 c30 -27 31 -115 1 -123 -37 -10 -20 -23
30 -23 50 0 67 13 30 23 -29 8 -29 98 0 125 20 18 20 20 3 24 -10 2 -33 1 -52
-2z"/>
<path d="M659 7653 c-6 -57 -8 -123 -4 -140 9 -37 25 -26 25 16 0 22 4 42 8
45 4 2 20 -15 36 -40 43 -68 56 -59 56 36 0 64 -3 80 -15 80 -11 0 -15 -11
-15 -40 0 -22 -3 -40 -8 -40 -4 0 -19 20 -34 45 -25 41 -47 57 -49 38z"/>
<path d="M817 7653 c-5 -8 -11 -123 -8 -150 1 -16 111 -18 111 -3 0 6 -18 10
-40 10 -38 0 -40 2 -40 30 0 28 3 30 36 30 21 0 33 4 29 10 -3 6 -19 10 -36
10 -24 0 -29 4 -29 25 0 22 4 25 35 25 19 0 35 5 35 10 0 12 -86 14 -93 3z"/>
<path d="M950 7575 l0 -85 46 0 c56 0 79 19 70 58 -4 15 -7 41 -6 59 1 38 -21
53 -74 53 l-36 0 0 -85z m68 53 c20 -20 14 -38 -12 -38 -30 0 -42 16 -26 35
15 18 22 19 38 3z m6 -71 c23 -17 11 -47 -19 -47 -27 0 -40 26 -24 46 14 17
21 17 43 1z"/>
<path d="M1363 7630 c10 -79 31 -135 51 -135 14 0 25 16 43 65 26 73 29 104
11 98 -7 -3 -20 -28 -28 -56 -20 -69 -29 -69 -44 -2 -3 14 -12 34 -21 45 -15
19 -16 18 -12 -15z"/>
<path d="M3890 7600 c0 -5 7 -10 16 -10 8 0 12 5 9 10 -3 6 -10 10 -16 10 -5
0 -9 -4 -9 -10z"/>
<path d="M2950 7480 c0 -5 7 -10 15 -10 21 0 19 -10 -10 -51 -13 -20 -21 -39
-18 -43 10 -10 63 -7 63 4 0 6 -7 10 -15 10 -20 0 -19 6 6 41 11 16 18 36 15
44 -6 17 -56 21 -56 5z"/>
<path d="M3460 7465 c-11 -20 -11 -27 0 -40 7 -8 19 -15 26 -15 8 0 14 -4 14
-10 0 -5 -10 -10 -22 -10 -17 0 -19 -3 -10 -12 8 -8 18 -9 35 -1 28 13 44 78
25 100 -17 21 -53 15 -68 -12z m45 -25 c-5 -8 -11 -8 -17 -2 -6 6 -7 16 -3 22
5 8 11 8 17 2 6 -6 7 -16 3 -22z"/>
<path d="M3579 7475 c-10 -10 -13 -28 -11 -55 4 -39 6 -41 36 -38 29 3 31 6
31 43 1 61 -23 82 -56 50z m26 -25 c3 -5 -1 -10 -10 -10 -9 0 -13 5 -10 10 3
6 8 10 10 10 2 0 7 -4 10 -10z m15 -50 c0 -5 -9 -10 -20 -10 -11 0 -20 5 -20
10 0 6 9 10 20 10 11 0 20 -4 20 -10z"/>
<path d="M3680 7481 c0 -5 7 -11 15 -15 8 -3 15 -12 15 -20 0 -8 -7 -21 -15
-30 -18 -17 -20 -39 -3 -34 22 8 48 70 37 90 -10 18 -49 26 -49 9z"/>
<path d="M3793 7483 c-15 -5 -17 -33 -3 -33 13 0 13 -47 0 -55 -15 -9 -2 -25
21 -25 20 0 26 24 8 35 -5 4 -8 19 -5 33 7 31 -3 51 -21 45z"/>
<path d="M3971 7464 c-25 -32 -27 -57 -5 -78 28 -29 79 -14 72 20 -2 11 -13
20 -26 22 -25 4 -32 42 -6 42 8 0 12 5 9 10 -10 16 -22 12 -44 -16z m36 -70
c-9 -9 -28 6 -21 18 4 6 10 6 17 -1 6 -6 8 -13 4 -17z"/>
<path d="M3373 7436 c-10 -11 -9 -17 2 -26 19 -16 47 -5 43 17 -4 22 -29 27
-45 9z"/>
<path d="M3888 7378 c9 -9 15 -9 24 0 9 9 7 12 -12 12 -19 0 -21 -3 -12 -12z"/>
<path d="M603 7053 c-18 -6 -16 -33 1 -33 19 0 31 19 20 30 -5 4 -15 5 -21 3z"/>
<path d="M897 7053 c-9 -15 -1 -87 9 -90 13 -4 16 84 4 92 -5 3 -11 2 -13 -2z"/>
<path d="M360 7037 c0 -8 8 -14 18 -13 11 1 17 -6 17 -19 0 -14 -6 -19 -17
-17 -21 3 -24 -14 -4 -21 21 -8 38 17 34 50 -2 20 -9 29 -25 31 -15 2 -23 -2
-23 -11z"/>
<path d="M447 7044 c-8 -8 1 -24 14 -24 5 0 9 7 9 15 0 15 -12 20 -23 9z"/>
<path d="M507 7044 c-8 -8 3 -34 14 -34 5 0 9 9 9 20 0 19 -11 26 -23 14z"/>
<path d="M820 7034 c0 -10 -4 -12 -12 -7 -7 4 -28 9 -46 10 -32 2 -33 1 -27
-29 9 -38 -13 -35 -33 5 -15 31 -27 34 -36 11 -16 -41 -8 -51 41 -52 26 -1 50
4 54 10 6 9 11 9 21 1 13 -11 42 -17 68 -13 8 1 4 5 -10 9 -31 9 -32 32 -3 47
23 11 21 24 -4 24 -7 0 -13 -7 -13 -16z"/>
<path d="M966 7029 c-26 -37 -21 -58 14 -57 34 1 35 4 16 48 l-13 32 -17 -23z"/>
<path d="M440 6980 c0 -5 7 -10 15 -10 8 0 15 5 15 10 0 6 -7 10 -15 10 -8 0
-15 -4 -15 -10z"/>
<path d="M525 6980 c-3 -5 3 -10 14 -10 12 0 21 5 21 10 0 6 -6 10 -14 10 -8
0 -18 -4 -21 -10z"/>
<path d="M690 6840 c-17 -17 -21 -29 -16 -56 4 -18 2 -43 -4 -53 -23 -44 34
-94 88 -77 30 10 48 51 33 79 -9 16 -9 30 -2 49 21 55 -57 100 -99 58z m70
-45 c0 -15 -27 -28 -41 -19 -13 8 -11 42 4 47 15 5 37 -11 37 -28z m6 -70 c8
-20 -13 -45 -38 -45 -21 0 -33 22 -24 45 7 20 55 19 62 0z"/>
<path d="M390 6790 c-23 -34 -39 -68 -36 -76 3 -8 19 -14 42 -14 27 0 37 -5
41 -20 8 -29 26 -25 42 10 9 21 10 34 3 43 -6 7 -12 35 -14 62 -4 73 -26 71
-78 -5z m32 -52 c-20 -20 -33 2 -15 27 17 22 18 22 21 3 2 -11 -1 -25 -6 -30z"/>
<path d="M845 6830 c-21 -24 -12 -40 13 -22 31 22 42 24 57 12 25 -21 17 -41
-35 -88 -71 -64 -67 -80 19 -78 55 1 71 26 17 26 -20 0 -36 3 -36 6 0 4 18 26
40 50 44 48 47 59 24 92 -20 29 -74 30 -99 2z"/>
<path d="M1342 6774 c-19 -13 -22 -21 -16 -52 9 -49 15 -58 26 -38 12 22 28
20 28 -4 0 -20 24 -28 34 -11 10 16 -18 71 -36 71 -12 0 -18 8 -18 21 0 16 4
19 20 14 11 -4 20 -2 20 4 0 16 -32 13 -58 -5z"/>
<path d="M1446 6764 c-31 -30 -12 -114 25 -114 6 0 19 5 30 10 39 21 17 120
-26 120 -7 0 -21 -7 -29 -16z m46 -26 c7 -21 -4 -58 -17 -58 -15 0 -26 35 -18
56 6 17 30 18 35 2z"/>
<path d="M1987 6773 c-13 -12 -7 -25 8 -20 25 10 25 -8 -2 -46 -14 -19 -22
-40 -18 -46 8 -14 52 -14 60 -1 3 6 -1 10 -9 10 -22 0 -20 16 5 57 18 29 19
37 8 44 -17 10 -43 12 -52 2z"/>
<path d="M1247 6763 c-14 -13 -6 -33 13 -33 13 0 20 7 20 20 0 19 -20 27 -33
13z"/>
<path d="M1543 6753 c-4 -10 3 -24 20 -39 34 -29 34 -34 0 -34 -25 0 -26 -1
-11 -16 20 -20 63 -12 72 13 5 12 -2 25 -24 43 -30 25 -33 44 -4 33 8 -3 14 0
14 6 0 18 -60 13 -67 -6z"/>
<path d="M1770 6765 c-7 -33 -7 -96 2 -101 14 -9 15 -3 8 56 -4 30 -8 51 -10
45z"/>
<path d="M1868 6754 c-13 -13 -9 -58 8 -82 31 -44 75 -15 70 46 -2 20 -8 35
-12 32 -5 -3 -8 -11 -7 -19 1 -8 -3 -25 -8 -39 -8 -19 -12 -22 -24 -12 -7 6
-15 27 -17 47 -2 19 -6 31 -10 27z"/>
<path d="M1226 6704 c-11 -28 -6 -34 19 -28 15 4 32 1 40 -6 13 -11 15 -8 15
19 0 29 -3 31 -34 31 -22 0 -36 -6 -40 -16z"/>
<path d="M560 6679 c0 -14 5 -19 17 -17 26 5 29 38 4 38 -15 0 -21 -6 -21 -21z"/>
<path d="M374 6369 c-11 -18 11 -32 25 -16 9 12 8 16 -3 20 -9 4 -18 1 -22 -4z"/>
<path d="M670 6370 c-8 -5 -18 -6 -22 -3 -5 2 -15 0 -23 -7 -9 -7 -15 -8 -20
0 -3 5 -13 10 -21 10 -11 0 -13 -7 -8 -27 10 -40 14 -45 29 -33 9 7 16 6 25
-5 18 -21 33 -19 60 10 l23 24 20 -25 c24 -31 61 -29 65 4 6 43 -45 71 -76 40
-8 -8 -12 -8 -12 -1 0 15 -24 23 -40 13z m10 -29 c0 -5 -7 -11 -15 -15 -9 -3
-15 0 -15 9 0 8 7 15 15 15 8 0 15 -4 15 -9z m100 -11 c0 -13 -7 -20 -20 -20
-13 0 -20 7 -20 20 0 13 7 20 20 20 13 0 20 -7 20 -20z"/>
<path d="M440 6360 c0 -5 7 -10 15 -10 8 0 15 5 15 10 0 6 -7 10 -15 10 -8 0
-15 -4 -15 -10z"/>
<path d="M508 6365 c-8 -9 4 -65 13 -59 11 7 12 64 1 64 -5 0 -11 -2 -14 -5z"/>
<path d="M899 6368 c0 -2 -2 -18 -3 -36 -5 -44 11 -51 16 -6 2 19 0 37 -4 40
-4 3 -8 4 -9 2z"/>
<path d="M977 6364 c-4 -4 -4 -10 -1 -15 6 -10 34 0 34 12 0 10 -24 12 -33 3z"/>
<path d="M1060 6355 c7 -8 16 -15 20 -15 4 0 10 7 14 15 4 11 -2 15 -21 15
-21 0 -24 -2 -13 -15z"/>
<path d="M1130 6360 c0 -5 9 -10 20 -10 11 0 20 5 20 10 0 6 -9 10 -20 10 -11
0 -20 -4 -20 -10z"/>
<path d="M1226 6361 c-4 -6 -13 -8 -21 -4 -11 4 -15 -2 -15 -20 0 -25 25 -44
35 -27 10 16 25 12 25 -6 0 -11 5 -14 16 -10 9 3 24 6 35 6 19 0 25 23 13 54
-11 28 -34 18 -34 -14 0 -37 -18 -40 -22 -3 -3 28 -22 41 -32 24z"/>
<path d="M1340 6360 c0 -5 14 -10 30 -10 24 0 30 -4 30 -21 0 -16 -5 -20 -27
-17 -31 3 -48 -15 -20 -20 34 -7 68 8 77 33 6 15 17 25 30 25 26 0 26 -30 0
-37 -20 -5 -25 -15 -14 -26 13 -13 44 19 44 46 0 32 -24 46 -51 29 -11 -7 -20
-8 -24 -2 -8 13 -75 13 -75 0z"/>
<path d="M996 6315 c25 -19 40 -19 24 0 -7 8 -20 15 -28 15 -13 0 -12 -3 4
-15z"/>
<path d="M1130 6306 c0 -9 5 -16 10 -16 6 0 10 4 10 9 0 6 -4 13 -10 16 -5 3
-10 -1 -10 -9z"/>
<path d="M389 6141 c-21 -17 -22 -20 -7 -26 11 -4 19 -23 24 -51 6 -39 3 -48
-17 -67 l-24 -22 49 -3 c57 -4 65 1 43 26 -12 13 -17 36 -17 74 0 59 -7 88
-20 88 -4 0 -18 -9 -31 -19z"/>
<path d="M536 6139 c-25 -19 -27 -26 -24 -82 3 -57 5 -62 36 -80 33 -20 34
-20 60 0 23 17 27 28 30 81 2 51 -1 65 -18 82 -26 26 -50 25 -84 -1z m58 -15
c22 -21 20 -44 -3 -44 -10 0 -21 -6 -24 -14 -9 -23 4 -26 31 -8 l25 16 -7 -29
c-9 -40 -35 -60 -53 -42 -18 18 -21 101 -4 121 16 20 16 20 35 0z"/>
<path d="M1049 6147 c-25 -19 -72 -106 -65 -122 3 -9 18 -15 34 -15 16 0 35
-7 42 -15 7 -8 15 -15 19 -15 12 0 31 54 22 60 -6 3 -11 30 -13 59 -3 57 -12
68 -39 48z m1 -82 c0 -16 -6 -25 -15 -25 -18 0 -18 5 -5 31 14 26 20 24 20 -6z"/>
<path d="M1156 6141 c-20 -22 -4 -40 19 -21 17 14 57 10 63 -8 2 -6 -20 -34
-48 -61 -67 -63 -63 -83 12 -79 60 4 81 28 24 28 -20 0 -36 2 -36 5 0 3 16 22
35 42 36 38 45 79 23 101 -19 19 -73 14 -92 -7z"/>
<path d="M1663 6143 c-26 -17 -30 -33 -9 -33 17 0 26 -22 26 -67 0 -26 -5 -36
-20 -40 -11 -3 -20 -12 -20 -19 0 -10 14 -14 50 -14 38 0 50 4 50 15 0 8 -7
15 -15 15 -11 0 -15 18 -17 77 -2 42 -7 78 -13 79 -5 2 -20 -4 -32 -13z"/>
<path d="M1787 6154 c-13 -13 5 -24 39 -24 42 0 44 -17 9 -86 -29 -57 -30 -64
-10 -64 18 0 89 145 81 166 -6 14 -106 21 -119 8z"/>
<path d="M676 6063 c0 -50 5 -78 12 -81 8 -2 12 10 12 35 0 47 12 66 36 61 15
-2 20 -14 22 -51 3 -39 6 -48 20 -45 23 4 26 38 8 82 -13 31 -20 36 -46 36
-23 0 -33 5 -37 20 -3 11 -10 20 -17 20 -7 0 -11 -26 -10 -77z"/>
<path d="M1298 6088 c-7 -21 3 -108 13 -108 5 0 9 20 9 44 0 25 5 48 10 51 11
7 13 -1 14 -55 1 -42 30 -51 32 -10 1 48 4 60 14 60 6 0 10 -21 10 -46 0 -56
23 -57 28 -1 5 60 -10 77 -72 77 -34 0 -55 -5 -58 -12z"/>
<path d="M1961 6086 c-17 -20 -3 -44 35 -58 44 -16 44 -32 -1 -25 -25 4 -35 2
-35 -8 0 -25 66 -35 88 -13 26 26 -2 78 -41 78 -9 0 -17 5 -17 10 0 14 33 13
48 -2 9 -9 12 -7 12 10 0 19 -5 22 -39 22 -21 0 -44 -6 -50 -14z"/>
<path d="M1315 5672 c-6 -4 -10 -26 -10 -49 -1 -32 3 -43 15 -43 11 0 15 12
17 45 1 45 -5 59 -22 47z"/>
<path d="M360 5625 c0 -31 4 -45 13 -45 9 0 14 14 14 45 0 31 -5 45 -14 45 -9
0 -13 -14 -13 -45z"/>
<path d="M437 5657 c-3 -7 1 -21 9 -32 10 -13 11 -22 3 -32 -14 -16 7 -18 31
-3 12 8 13 13 3 30 -7 11 -13 27 -13 35 0 18 -26 20 -33 2z"/>
<path d="M520 5663 c0 -5 4 -14 9 -22 7 -11 11 -9 20 8 10 18 9 21 -9 21 -11
0 -20 -3 -20 -7z"/>
<path d="M596 5640 c-19 -33 -13 -58 10 -40 10 9 21 8 45 -4 40 -20 45 -20 29
-1 -7 8 -18 15 -25 15 -7 0 -19 13 -27 30 l-14 29 -18 -29z"/>
<path d="M670 5660 c0 -5 4 -10 9 -10 6 0 13 5 16 10 3 6 -1 10 -9 10 -9 0
-16 -4 -16 -10z"/>
<path d="M750 5655 c-7 -9 -8 -15 -2 -15 5 0 12 7 16 15 3 8 4 15 2 15 -2 0
-9 -7 -16 -15z"/>
<path d="M907 5663 c-4 -3 -7 -13 -7 -22 0 -11 3 -10 15 5 13 16 16 17 25 4 8
-13 10 -13 10 3 0 17 -30 24 -43 10z"/>
<path d="M974 5646 c-8 -32 3 -66 22 -66 10 0 14 13 14 45 0 33 -4 45 -15 45
-8 0 -17 -11 -21 -24z"/>
<path d="M1214 5658 c-4 -6 2 -19 14 -29 26 -21 28 -39 5 -39 -9 0 -14 -2 -11
-5 3 -4 17 -3 32 1 28 7 35 28 11 38 -21 8 -19 34 3 39 9 3 3 5 -15 6 -17 0
-35 -4 -39 -11z"/>
<path d="M1367 5656 c-3 -8 -3 -17 0 -20 13 -12 31 -5 36 14 4 15 0 20 -13 20
-10 0 -20 -6 -23 -14z"/>
<path d="M1462 5658 c6 -18 25 -20 31 -3 5 10 0 15 -14 15 -12 0 -19 -5 -17
-12z"/>
<path d="M1534 5646 c-7 -30 -2 -58 11 -63 6 -1 10 17 10 42 1 49 -11 60 -21
21z"/>
<path d="M1655 5660 c-4 -6 -18 -10 -31 -7 -21 4 -24 1 -24 -29 0 -31 2 -33
19 -23 14 9 25 9 49 -4 19 -9 34 -12 38 -6 3 5 14 7 25 4 21 -7 23 2 9 39 -12
32 -28 34 -32 4 -2 -13 -11 -24 -22 -26 -15 -3 -18 0 -14 16 7 25 -6 50 -17
32z"/>
<path d="M1056 5648 c-4 -9 -6 -27 -4 -40 2 -18 10 -24 33 -25 24 -2 26 -1 10
6 -12 5 -22 21 -26 42 -4 26 -7 30 -13 17z"/>
<path d="M710 5623 c0 -21 3 -24 9 -14 5 8 7 20 4 28 -8 21 -13 15 -13 -14z"/>
<path d="M787 5613 c-4 -3 -7 -11 -7 -17 0 -6 5 -5 12 2 6 6 9 14 7 17 -3 3
-9 2 -12 -2z"/>
<path d="M940 5604 c0 -8 5 -12 10 -9 6 4 8 11 5 16 -9 14 -15 11 -15 -7z"/>
<path d="M1386 5599 c-18 -17 -18 -19 -2 -19 25 0 58 19 51 31 -9 14 -28 10
-49 -12z"/>
<path d="M900 5590 c0 -6 7 -10 15 -10 8 0 15 2 15 4 0 2 -7 6 -15 10 -8 3
-15 1 -15 -4z"/>
<path d="M354 5414 c-8 -33 3 -61 18 -46 17 17 43 15 58 -3 16 -19 52 -16 58
5 5 13 3 13 -12 1 -14 -12 -18 -12 -31 5 -8 10 -15 25 -15 32 0 6 -1 12 -3 12
-1 0 -17 4 -35 9 -29 9 -33 7 -38 -15z"/>
<path d="M530 5430 c0 -5 7 -10 15 -10 8 0 15 5 15 10 0 6 -7 10 -15 10 -8 0
-15 -4 -15 -10z"/>
<path d="M600 5414 c-18 -33 -2 -60 31 -56 92 10 128 9 134 -6 9 -24 17 -7 20
42 2 34 -1 46 -11 46 -9 0 -14 -11 -14 -30 0 -16 -4 -30 -10 -30 -5 0 -10 7
-10 16 0 20 -24 44 -44 44 -9 0 -16 -7 -16 -15 0 -9 -6 -12 -15 -9 -10 4 -15
0 -15 -12 0 -11 -4 -25 -9 -32 -6 -11 -11 -10 -25 4 -16 16 -16 18 5 40 17 18
19 24 7 24 -8 0 -21 -12 -28 -26z m120 -24 c0 -5 -2 -10 -4 -10 -3 0 -8 5 -11
10 -3 6 -1 10 4 10 6 0 11 -4 11 -10z"/>
<path d="M832 5428 c-8 -8 -9 -15 -1 -25 17 -20 29 -15 29 12 0 27 -9 32 -28
13z"/>
<path d="M1582 5428 c-17 -17 -15 -73 3 -88 12 -10 21 -10 41 -1 15 6 32 8 41
3 8 -5 26 -7 39 -4 22 4 25 9 22 46 -3 38 -5 41 -36 44 -27 3 -35 -1 -39 -18
-6 -21 -6 -21 -17 2 -13 27 -36 34 -54 16z"/>
<path d="M1756 5427 c-40 -29 0 -117 41 -91 12 7 26 8 44 1 14 -6 34 -7 45 -2
10 4 39 9 64 9 45 1 45 1 48 38 3 33 0 40 -23 50 -21 9 -31 9 -46 0 -15 -10
-23 -10 -38 0 -15 9 -25 9 -47 -1 -19 -8 -30 -9 -38 -1 -13 13 -28 13 -50 -3z"/>
<path d="M2014 5427 c-3 -8 -4 -30 -2 -49 3 -29 7 -33 36 -36 32 -3 32 -3 32
42 0 33 -4 46 -14 46 -8 0 -21 3 -30 6 -9 4 -18 0 -22 -9z"/>
<path d="M2113 5430 c-18 -7 -23 -17 -23 -44 0 -44 29 -64 67 -47 17 8 28 8
42 -1 33 -20 51 -3 51 47 0 52 -17 66 -56 45 -19 -11 -27 -11 -36 -2 -14 14
-15 14 -45 2z"/>
<path d="M3671 5426 c-9 -10 -9 -16 -1 -21 6 -4 10 -19 8 -33 -2 -19 2 -27 12
-27 9 0 13 6 11 15 -3 8 -4 27 -3 42 1 32 -11 43 -27 24z"/>
<path d="M3752 5428 c-7 -7 -12 -27 -12 -45 0 -28 3 -33 25 -33 13 0 28 7 33
16 8 14 11 14 30 -6 29 -31 62 -19 62 21 0 17 -7 37 -15 45 -13 13 -17 13 -40
-2 -24 -15 -27 -15 -44 0 -21 19 -24 19 -39 4z m118 -38 c0 -21 -15 -27 -25
-10 -7 12 2 30 16 30 5 0 9 -9 9 -20z m-90 -4 c0 -8 -4 -18 -10 -21 -5 -3 -10
3 -10 14 0 12 5 21 10 21 6 0 10 -6 10 -14z"/>
<path d="M2268 5398 c-7 -43 -1 -57 28 -64 42 -11 55 1 52 48 -3 41 -4 43 -39
46 -34 3 -37 1 -41 -30z"/>
<path d="M2364 5415 c-3 -7 -4 -28 -2 -46 3 -39 26 -49 64 -28 18 9 26 9 38 0
8 -7 24 -10 36 -6 16 5 20 15 20 50 l0 43 -76 0 c-52 0 -77 -4 -80 -13z"/>
<path d="M2536 5422 c-9 -16 1 -74 15 -83 19 -12 43 -11 57 3 8 8 15 8 26 -1
8 -7 25 -11 38 -9 20 3 23 9 23 48 l0 45 -77 2 c-43 1 -80 -2 -82 -5z"/>
<path d="M2717 5423 c-4 -3 -7 -23 -7 -44 0 -33 4 -40 27 -45 15 -4 34 -2 46
5 15 10 21 10 27 1 4 -6 18 -10 31 -8 21 3 24 9 27 51 3 46 2 47 -25 47 -16 0
-34 -5 -40 -11 -8 -8 -13 -8 -17 0 -8 12 -59 15 -69 4z"/>
<path d="M2892 5418 c-6 -6 -12 -24 -12 -40 0 -35 28 -52 65 -38 23 9 26 15
23 47 -3 34 -6 38 -33 41 -17 2 -36 -3 -43 -10z"/>
<path d="M2985 5422 c-3 -3 -5 -22 -5 -43 0 -32 3 -37 27 -42 15 -3 36 -1 46
5 13 7 23 6 30 -1 15 -15 50 -14 65 1 9 9 15 9 24 0 13 -13 60 -16 72 -4 4 4
24 7 44 7 35 0 37 2 40 36 3 32 0 37 -23 41 -14 3 -28 1 -31 -3 -3 -5 -13 -5
-22 0 -18 9 -258 12 -267 3z"/>
<path d="M3917 5424 c-3 -3 -2 -14 3 -23 5 -9 11 -24 14 -33 3 -10 15 -18 26
-18 24 0 24 1 8 37 -17 37 -36 51 -51 37z"/>
<path d="M856 5369 c-19 -19 -19 -19 7 -19 20 0 27 5 27 20 0 25 -9 25 -34 -1z"/>
<path d="M3360 5365 c0 -8 9 -15 20 -15 11 0 20 7 20 15 0 8 -9 15 -20 15 -11
0 -20 -7 -20 -15z"/>
<path d="M357 5213 c-11 -10 -8 -61 3 -68 6 -4 18 -1 26 6 13 10 17 10 24 0
10 -18 53 -4 46 15 -3 7 3 18 12 23 14 8 15 12 4 23 -10 10 -16 10 -33 -1 -15
-9 -24 -10 -32 -2 -12 12 -40 15 -50 4z m50 -39 c-3 -3 -12 -4 -19 -1 -8 3 -5
6 6 6 11 1 17 -2 13 -5z"/>
<path d="M517 5179 l-15 -39 34 0 c35 0 39 6 28 47 -10 37 -31 34 -47 -8z"/>
<path d="M602 5208 c-19 -25 -23 -55 -7 -68 19 -15 34 -5 17 12 -18 18 -14 35
8 41 11 3 20 10 20 16 0 15 -25 14 -38 -1z"/>
<path d="M690 5205 c0 -8 7 -15 15 -15 8 0 15 7 15 15 0 8 -7 15 -15 15 -8 0
-15 -7 -15 -15z"/>
<path d="M840 5205 c0 -8 5 -15 10 -15 6 0 10 7 10 15 0 8 -4 15 -10 15 -5 0
-10 -7 -10 -15z"/>
<path d="M1574 5206 c-3 -8 -4 -29 -2 -48 l3 -33 78 -2 77 -2 0 43 c0 38 -3
45 -25 50 -14 4 -34 2 -45 -4 -12 -7 -21 -7 -25 0 -9 15 -55 12 -61 -4z"/>
<path d="M1770 5210 c-21 -5 -25 -12 -25 -45 0 -37 2 -40 29 -43 16 -2 32 2
37 9 6 11 12 11 33 0 38 -21 56 -8 56 38 0 30 -5 41 -19 46 -25 8 -59 -13 -64
-40 -3 -15 -5 -13 -6 7 -1 32 -8 37 -41 28z"/>
<path d="M1942 5212 c-20 -3 -23 -8 -20 -45 3 -35 7 -43 26 -45 31 -5 52 15
52 49 0 32 -22 47 -58 41z"/>
<path d="M2032 5213 c-20 -4 -23 -9 -20 -46 3 -39 5 -42 33 -42 29 0 30 2 30
44 0 46 -5 51 -43 44z"/>
<path d="M2102 5211 c-8 -5 -12 -23 -10 -47 l3 -39 75 -2 c47 0 78 3 83 10 5
9 9 8 16 -1 5 -8 22 -12 42 -10 32 3 34 5 37 44 2 31 -1 43 -13 48 -29 11 -63
-4 -71 -32 l-7 -27 -6 30 c-7 32 -41 46 -64 26 -8 -6 -18 -6 -27 -1 -19 12
-41 12 -58 1z"/>
<path d="M2372 5211 c-8 -5 -12 -23 -10 -47 3 -35 6 -39 32 -42 16 -2 32 2 37
9 6 10 10 10 23 0 8 -7 25 -11 38 -9 19 2 23 10 26 46 4 49 -11 60 -58 44 -18
-7 -32 -7 -35 -1 -8 11 -35 12 -53 0z"/>
<path d="M2544 5206 c-3 -8 -4 -29 -2 -48 l3 -33 75 0 75 0 0 45 c0 50 -18 62
-62 39 -18 -10 -26 -10 -35 -1 -16 16 -47 15 -54 -2z"/>
<path d="M2714 5205 c-3 -7 -4 -28 -2 -47 l3 -33 78 -2 c45 -1 77 2 77 8 0 6
8 5 20 -1 12 -6 33 -10 48 -8 24 3 27 7 27 43 0 40 0 40 -40 40 -33 0 -40 -4
-46 -25 -7 -24 -7 -23 -8 6 l-1 32 -76 0 c-52 0 -77 -4 -80 -13z"/>
<path d="M3091 5211 c-8 -5 -37 -7 -64 -4 l-48 6 3 -44 c3 -40 6 -44 31 -47
16 -2 34 2 42 8 10 8 15 8 20 -1 5 -7 22 -9 46 -6 21 3 54 1 73 -3 19 -4 38
-5 41 -1 4 3 26 6 48 6 l42 0 3 44 3 44 -46 -5 c-25 -3 -48 -2 -51 3 -7 13
-48 11 -61 -2 -8 -8 -17 -8 -31 0 -25 13 -33 13 -51 2z"/>
<path d="M760 5200 c0 -5 5 -10 10 -10 6 0 10 5 10 10 0 6 -4 10 -10 10 -5 0
-10 -4 -10 -10z"/>
<path d="M800 5201 c0 -5 5 -13 10 -16 6 -3 10 -2 10 4 0 5 -4 13 -10 16 -5 3
-10 2 -10 -4z"/>
<path d="M870 5195 c0 -9 -7 -18 -15 -21 -12 -5 -13 -10 -4 -20 20 -24 36 -16
37 21 1 19 -3 35 -8 35 -6 0 -10 -7 -10 -15z"/>
<path d="M3670 5200 c0 -5 7 -10 16 -10 8 0 12 5 9 10 -3 6 -10 10 -16 10 -5
0 -9 -4 -9 -10z"/>
<path d="M3747 5203 c-10 -10 -8 -63 2 -63 5 0 12 6 14 13 4 9 8 8 16 -3 10
-13 12 -13 21 0 9 13 13 12 30 -8 29 -34 60 -22 60 24 0 37 -22 56 -43 35 -8
-8 -5 -11 11 -11 23 0 27 -7 14 -28 -10 -15 -42 -6 -42 12 0 20 -68 45 -83 29z"/>
<path d="M3918 5204 c-9 -8 22 -65 39 -71 23 -9 25 2 6 41 -17 33 -32 44 -45
30z"/>
<path d="M3370 5190 c0 -5 4 -10 9 -10 6 0 13 5 16 10 3 6 -1 10 -9 10 -9 0
-16 -4 -16 -10z"/>
<path d="M3370 5150 c-12 -8 -10 -10 8 -10 13 0 20 4 17 10 -7 12 -6 12 -25 0z"/>
<path d="M3676 5153 c-12 -12 -6 -33 9 -33 8 0 15 6 15 14 0 17 -14 28 -24 19z"/>
<path d="M765 5140 c3 -5 8 -10 11 -10 2 0 4 5 4 10 0 6 -5 10 -11 10 -5 0 -7
-4 -4 -10z"/>
<path d="M450 5130 c0 -6 7 -10 15 -10 8 0 15 2 15 4 0 2 -7 6 -15 10 -8 3
-15 1 -15 -4z"/>
<path d="M680 4995 c-10 -13 -9 -15 8 -15 15 0 20 5 16 15 -4 8 -7 15 -9 15
-1 0 -8 -7 -15 -15z"/>
<path d="M1927 5004 c-4 -4 -7 -17 -8 -28 0 -21 -1 -21 -11 1 -10 20 -17 22
-87 20 l-76 -2 -3 -37 c-3 -32 1 -40 23 -50 18 -8 29 -8 36 -1 7 7 19 7 40 0
22 -9 34 -9 49 1 16 10 24 10 40 0 15 -10 27 -10 49 -1 19 7 33 7 39 1 5 -5
20 -8 33 -6 21 3 24 9 27 51 l3 48 -48 -1 c-26 -1 -59 1 -73 5 -14 4 -29 3
-33 -1z"/>
<path d="M2732 5002 c-21 -3 -23 -8 -20 -50 3 -43 5 -47 31 -50 16 -2 35 3 44
10 13 10 17 10 20 1 3 -7 18 -13 34 -13 28 0 29 2 29 49 0 53 -16 69 -50 51
-11 -6 -29 -7 -42 -2 -13 4 -33 6 -46 4z"/>
<path d="M362 4958 c2 -26 8 -43 18 -45 13 -4 13 -3 1 6 -12 8 -13 14 -3 36
16 35 15 45 -4 45 -12 0 -14 -9 -12 -42z"/>
<path d="M445 4989 c-10 -15 3 -25 16 -12 7 7 7 13 1 17 -6 3 -14 1 -17 -5z"/>
<path d="M764 4989 c-3 -5 -14 -9 -25 -9 -15 0 -19 -7 -19 -31 0 -27 2 -30 15
-19 13 11 18 10 29 -5 8 -11 20 -16 30 -12 21 8 21 25 -1 23 -12 -1 -18 6 -18
19 0 14 6 20 23 19 12 0 22 3 22 7 0 10 -50 18 -56 8z"/>
<path d="M833 4983 c-4 -10 2 -23 15 -34 26 -21 28 -29 5 -29 -12 0 -14 -3 -6
-11 8 -8 17 -8 32 0 27 15 27 39 -1 50 -20 8 -21 10 -5 16 25 10 21 25 -8 25
-15 0 -28 -7 -32 -17z"/>
<path d="M1577 4994 c-4 -4 -7 -22 -7 -41 0 -40 34 -61 61 -37 14 13 18 12 29
-1 8 -9 25 -15 39 -13 23 3 26 8 29 51 l3 48 -38 -3 c-33 -3 -39 -7 -44 -33
l-6 -30 -4 30 c-3 23 -10 31 -29 33 -14 2 -29 0 -33 -4z"/>
<path d="M2090 4955 c0 -40 3 -45 27 -51 15 -4 34 -2 46 5 14 9 22 10 30 2 15
-15 42 -14 57 4 11 13 14 13 27 0 35 -35 76 -8 71 47 -3 30 -6 33 -40 36 -36
3 -38 2 -38 -28 0 -18 -4 -29 -10 -25 -5 3 -10 17 -10 30 0 22 -3 23 -80 23
l-80 1 0 -44z"/>
<path d="M2367 4993 c-9 -8 -9 -56 -1 -77 7 -19 37 -21 64 -4 15 10 22 10 32
0 17 -17 45 -15 56 4 8 14 10 14 21 0 15 -18 48 -21 71 -6 9 5 19 5 27 -1 6
-6 22 -9 35 -7 20 3 23 10 26 50 l3 46 -79 0 c-76 0 -79 -1 -89 -27 -10 -25
-11 -25 -12 -3 -1 29 -26 38 -62 25 -16 -7 -29 -7 -29 -2 0 10 -53 12 -63 2z"/>
<path d="M2884 4965 c-8 -42 14 -67 56 -62 23 2 25 6 25 47 0 45 0 45 -37 48
-35 3 -37 2 -44 -33z"/>
<path d="M2986 4992 c-3 -3 -6 -22 -6 -43 0 -32 4 -40 24 -45 13 -3 34 0 46 6
16 9 25 9 33 1 15 -15 54 -14 60 2 3 10 9 10 26 0 23 -15 54 -17 65 -5 4 4 26
7 49 7 l42 0 0 40 0 40 -167 2 c-91 1 -169 -1 -172 -5z"/>
<path d="M3660 4987 c0 -7 6 -19 12 -25 10 -10 10 -17 0 -32 -17 -27 -15 -32
11 -28 12 2 22 9 21 16 -1 6 -2 28 -2 47 -2 28 -6 35 -22 35 -11 0 -20 -6 -20
-13z"/>
<path d="M3738 4983 c-9 -37 6 -78 30 -81 14 -2 22 2 22 12 0 25 18 28 39 5
29 -31 58 -18 64 29 2 20 2 40 0 45 -6 10 -51 9 -74 -3 -13 -7 -19 -7 -19 0 0
18 -57 12 -62 -7z"/>
<path d="M3923 4992 c-15 -9 12 -78 34 -87 19 -7 28 24 14 47 -6 10 -9 23 -6
27 3 5 -2 12 -11 15 -19 7 -16 7 -31 -2z"/>
<path d="M528 4983 c7 -3 16 -2 19 1 4 3 -2 6 -13 5 -11 0 -14 -3 -6 -6z"/>
<path d="M468 4935 c-6 -30 2 -32 24 -6 14 17 15 20 1 25 -21 8 -20 9 -25 -19z"/>
<path d="M666 4943 c-4 -9 -2 -21 4 -27 7 -7 10 -2 10 17 0 31 -5 34 -14 10z"/>
<path d="M615 4920 c-3 -5 -2 -10 4 -10 5 0 13 5 16 10 3 6 2 10 -4 10 -5 0
-13 -4 -16 -10z"/>
<path d="M371 4781 c-19 -12 -10 -85 12 -89 9 -2 17 1 17 7 0 6 -7 11 -15 11
-24 0 -19 49 7 59 16 6 18 9 6 13 -8 4 -20 3 -27 -1z"/>
<path d="M606 4781 c-4 -5 3 -15 15 -21 18 -10 20 -9 17 6 -4 20 -23 30 -32
15z"/>
<path d="M681 4781 c-14 -9 -7 -66 9 -76 9 -6 60 32 60 45 0 15 -55 39 -69 31z"/>
<path d="M1588 4783 c-14 -3 -18 -15 -18 -49 l0 -44 80 0 80 0 0 45 0 46 -47
-2 c-27 -1 -55 1 -63 4 -8 2 -23 3 -32 0z"/>
<path d="M3105 4782 c-11 -2 -24 -8 -29 -13 -6 -5 -15 -4 -22 2 -7 6 -25 9
-41 7 -25 -3 -28 -7 -31 -45 l-3 -43 68 -1 c156 -3 277 1 283 10 5 9 5 31 1
74 -1 5 -20 7 -44 6 -24 -2 -48 0 -53 4 -12 7 -47 2 -64 -8 -5 -3 -18 -2 -27
3 -10 5 -27 7 -38 4z"/>
<path d="M439 4773 c-7 -47 -6 -63 8 -74 12 -11 20 -10 45 4 21 12 34 14 48 7
30 -16 40 -12 40 18 0 29 -40 66 -48 43 -5 -14 -42 -15 -42 -1 0 11 -49 14
-51 3z m49 -35 c-2 -13 -10 -23 -18 -23 -8 0 -16 10 -18 23 -3 17 2 22 18 22
16 0 21 -5 18 -22z"/>
<path d="M760 4767 c0 -8 12 -14 30 -14 24 0 27 3 19 14 -6 7 -20 13 -30 13
-11 0 -19 -6 -19 -13z"/>
<path d="M1744 4756 c-10 -43 -1 -61 34 -64 21 -2 32 1 32 9 0 10 3 10 12 1 7
-7 27 -12 45 -12 32 0 33 1 33 45 0 43 -1 45 -29 45 -30 0 -46 -13 -54 -45 -3
-13 -5 -9 -6 13 -1 29 -4 32 -31 32 -23 0 -31 -5 -36 -24z"/>
<path d="M1920 4735 l0 -46 38 3 c36 3 37 4 37 43 0 39 -1 40 -37 43 l-38 3 0
-46z"/>
<path d="M2010 4736 c0 -46 0 -46 36 -46 l35 0 -3 43 c-3 39 -5 42 -35 45 -33
3 -33 3 -33 -42z"/>
<path d="M2097 4773 c-4 -3 -7 -24 -7 -45 0 -29 4 -38 18 -39 9 0 44 -2 77 -2
l60 -2 3 48 c3 46 3 47 -27 47 -22 0 -31 -5 -31 -17 0 -15 -1 -15 -18 0 -19
17 -63 23 -75 10z"/>
<path d="M2268 4747 c-6 -51 -1 -57 43 -57 l40 0 -3 43 c-3 40 -4 42 -39 45
-35 3 -37 2 -41 -31z"/>
<path d="M2367 4773 c-4 -3 -7 -23 -7 -44 l0 -37 80 0 80 0 0 44 c0 45 0 45
-32 42 -23 -2 -36 -11 -45 -28 l-13 -25 0 28 c0 23 -4 27 -28 27 -16 0 -32 -3
-35 -7z"/>
<path d="M2540 4736 l0 -45 63 1 c34 0 69 -2 77 -4 11 -2 16 8 18 45 l3 47
-33 0 c-19 0 -39 -5 -45 -11 -8 -8 -13 -8 -17 0 -4 6 -20 11 -37 11 -28 0 -29
-2 -29 -44z"/>
<path d="M2710 4736 c0 -50 5 -52 100 -52 l55 1 3 46 3 47 -80 0 -81 1 0 -43z"/>
<path d="M2884 4756 c-11 -47 -2 -61 44 -64 l43 -3 -3 43 c-3 42 -4 43 -40 46
-33 3 -38 0 -44 -22z"/>
<path d="M3666 4765 c4 -8 10 -15 15 -15 5 0 9 7 9 15 0 8 -7 15 -15 15 -9 0
-12 -6 -9 -15z"/>
<path d="M3753 4773 c-14 -5 -18 -83 -5 -83 4 0 8 16 9 36 1 46 7 50 32 25 24
-24 51 -28 51 -6 0 9 -9 15 -25 15 -14 0 -25 5 -25 10 0 10 -16 12 -37 3z"/>
<path d="M3860 4772 c0 -6 5 -14 10 -17 15 -9 12 -23 -11 -46 l-21 -21 24 4
c18 2 24 10 26 34 2 19 -3 36 -12 44 -10 8 -16 8 -16 2z"/>
<path d="M835 4761 c-3 -5 -1 -12 5 -16 5 -3 10 1 10 9 0 18 -6 21 -15 7z"/>
<path d="M3367 4763 c-4 -3 -7 -21 -7 -40 0 -26 4 -33 20 -33 17 0 20 7 20 40
0 38 -14 52 -33 33z"/>
<path d="M3920 4765 c0 -17 36 -75 47 -75 19 0 16 17 -9 50 -19 27 -38 39 -38
25z"/>
<path d="M631 4714 c0 -11 3 -14 6 -6 3 7 2 16 -1 19 -3 4 -6 -2 -5 -13z"/>
<path d="M842 4713 c2 -10 11 -19 21 -21 23 -5 21 10 -4 26 -18 12 -20 11 -17
-5z"/>
<path d="M3677 4713 c-12 -11 -8 -23 8 -23 8 0 15 7 15 15 0 16 -12 20 -23 8z"/>
<path d="M760 4700 c0 -5 7 -10 16 -10 8 0 12 5 9 10 -3 6 -10 10 -16 10 -5 0
-9 -4 -9 -10z"/>
<path d="M356 4555 c-8 -23 4 -45 25 -45 22 0 24 11 7 28 -9 9 -9 12 0 12 7 0
12 5 12 10 0 16 -37 12 -44 -5z"/>
<path d="M439 4568 c0 -2 -2 -11 -4 -21 -5 -29 -26 -47 -52 -47 -15 0 -23 -5
-21 -12 7 -19 25 -20 44 -1 12 13 19 14 22 5 2 -6 13 -12 24 -12 16 0 18 3 9
14 -9 11 -8 15 5 20 16 6 15 8 -2 21 -11 8 -14 15 -6 15 17 0 15 20 -3 20 -8
0 -15 -1 -16 -2z"/>
<path d="M610 4562 c0 -17 -59 -25 -76 -11 -9 8 -18 9 -24 3 -7 -7 1 -21 21
-40 21 -19 33 -25 36 -16 9 24 36 43 55 39 14 -4 18 -1 16 10 -3 18 -28 31
-28 15z"/>
<path d="M700 4564 c0 -3 6 -12 14 -20 19 -19 9 -54 -16 -54 -17 0 -20 5 -16
30 3 17 1 30 -4 30 -4 0 -8 -7 -8 -15 0 -8 -16 -22 -36 -31 -32 -15 -34 -19
-18 -25 12 -4 23 -1 32 9 9 12 15 13 24 4 15 -15 51 -15 66 0 8 8 15 8 27 -2
12 -10 15 -10 15 5 0 11 5 15 15 12 8 -4 17 -2 20 3 7 12 -5 41 -16 34 -5 -3
-6 2 -3 10 4 10 1 16 -9 16 -9 0 -19 -9 -22 -20 -3 -11 -10 -20 -13 -20 -4 0
-14 9 -22 20 -14 19 -30 27 -30 14z"/>
<path d="M847 4563 c-11 -10 -8 -81 3 -88 17 -10 32 5 20 20 -8 10 -8 15 1 20
8 6 7 10 -2 16 -11 7 -10 11 6 23 20 15 20 15 -1 16 -11 0 -24 -3 -27 -7z"/>
<path d="M927 4563 c-15 -14 -6 -44 16 -52 l22 -9 -24 -9 c-23 -9 -24 -10 -4
-15 11 -3 26 -2 33 2 18 11 3 47 -23 55 l-22 8 23 4 c12 2 22 9 22 14 0 10
-33 12 -43 2z"/>
<path d="M1586 4557 c-12 -9 -17 -23 -14 -47 l3 -35 78 -2 77 -2 0 45 0 45
-37 -3 c-30 -2 -39 -8 -44 -28 -6 -21 -7 -22 -8 -4 -1 19 -18 44 -31 44 -3 0
-14 -6 -24 -13z"/>
<path d="M1758 4559 c-20 -11 -25 -73 -8 -84 6 -4 36 -6 68 -6 31 1 84 1 116
1 37 0 63 5 68 13 6 9 8 9 8 0 0 -8 14 -13 36 -13 l35 0 -3 48 c-3 45 -4 47
-33 47 -24 0 -31 -5 -33 -24 l-4 -24 -12 24 c-8 17 -20 24 -41 24 -27 0 -30
-4 -34 -35 l-4 -35 -6 29 c-8 40 -33 54 -66 36 -19 -10 -28 -11 -37 -2 -14 14
-27 15 -50 1z"/>
<path d="M2101 4556 c-7 -8 -11 -30 -9 -48 l3 -33 128 -2 128 -2 -3 42 c-3 41
-4 42 -40 45 -36 3 -38 2 -38 -27 0 -16 -4 -33 -10 -36 -6 -4 -10 8 -10 30 0
42 -19 54 -56 35 -19 -11 -27 -11 -36 -2 -16 16 -43 15 -57 -2z"/>
<path d="M2563 4562 c-18 -3 -23 -10 -23 -32 0 -16 -4 -32 -10 -35 -6 -4 -10
8 -10 29 l0 34 -77 -1 -78 -2 -3 -41 -3 -41 170 -1 171 0 0 44 c0 52 -15 63
-60 44 -19 -8 -35 -9 -43 -3 -6 5 -22 7 -34 5z"/>
<path d="M2721 4556 c-7 -8 -11 -30 -9 -48 l3 -33 78 -2 77 -2 0 45 c0 50 -19
66 -52 45 -13 -8 -24 -8 -38 -1 -26 14 -45 13 -59 -4z"/>
<path d="M3093 4560 c-16 -6 -23 -18 -24 -37 l-1 -28 -7 30 c-5 26 -10 30 -41
30 -34 0 -35 -1 -38 -42 l-3 -42 158 1 c87 0 165 2 174 4 10 3 15 16 16 39 1
40 -23 54 -57 33 -18 -11 -23 -11 -31 5 -12 21 -38 22 -66 2 -18 -13 -22 -13
-33 0 -14 17 -16 17 -47 5z"/>
<path d="M3753 4555 c-17 -18 -16 -47 0 -69 12 -17 15 -17 29 -2 21 20 38 20
53 0 19 -26 52 -9 58 29 2 18 0 38 -5 45 -14 17 -45 15 -52 -3 -3 -8 -15 -15
-26 -15 -11 0 -20 7 -20 15 0 19 -21 19 -37 0z m120 -57 c-2 -4 -10 -5 -18 -2
-8 4 -12 11 -8 18 4 6 8 14 9 19 4 20 7 20 13 -3 5 -14 6 -28 4 -32z m-93 22
c0 -11 -4 -20 -10 -20 -5 0 -10 9 -10 20 0 11 5 20 10 20 6 0 10 -9 10 -20z"/>
<path d="M2884 4546 c-3 -8 -4 -27 -2 -43 3 -25 7 -28 46 -31 l43 -3 -3 43
c-3 42 -4 43 -41 46 -26 2 -39 -1 -43 -12z"/>
<path d="M3672 4544 c1 -9 9 -19 16 -22 9 -3 13 2 10 14 -1 9 -9 19 -16 22 -9
3 -13 -2 -10 -14z"/>
<path d="M3916 4552 c-6 -11 20 -68 35 -78 6 -3 17 -3 25 0 12 5 13 9 2 28 -7
13 -13 30 -13 38 0 17 -40 26 -49 12z"/>
<path d="M3675 4491 c-7 -12 12 -24 25 -16 11 7 4 25 -10 25 -5 0 -11 -4 -15
-9z"/>
<path d="M2032 4131 c-24 -23 -32 -38 -32 -64 0 -52 48 -85 78 -55 16 16 15
79 -3 101 -7 11 -11 25 -8 33 8 20 1 18 -35 -15z m33 -91 c-22 -24 -45 -11
-45 25 0 31 20 37 44 14 19 -18 19 -19 1 -39z"/>
<path d="M1095 4114 c-10 -10 -14 -25 -11 -38 3 -12 6 -32 6 -46 1 -24 1 -24
15 -6 8 10 24 24 37 30 29 15 35 46 12 63 -24 17 -39 16 -59 -3z m43 -32 c2
-7 -3 -12 -12 -12 -9 0 -16 7 -16 16 0 17 22 14 28 -4z"/>
<path d="M1190 4109 c-7 -12 -9 -37 -5 -60 7 -39 8 -40 26 -23 18 17 20 16 34
-2 14 -18 14 -18 15 6 0 14 3 34 6 46 12 44 -55 73 -76 33z m50 -24 c0 -8 -7
-15 -15 -15 -26 0 -18 20 13 29 1 1 2 -6 2 -14z"/>
<path d="M1311 4121 c-18 -11 -24 -91 -9 -108 12 -15 58 -18 58 -4 0 5 -9 11
-20 14 -23 6 -27 27 -5 27 20 0 19 16 -1 24 -17 7 -14 31 4 31 18 0 19 19 2
22 -8 2 -21 -1 -29 -6z"/>
<path d="M1412 4121 c-9 -5 -12 -25 -9 -62 3 -41 5 -49 11 -32 5 12 17 23 28
25 34 5 45 33 24 57 -21 23 -33 25 -54 12z m38 -36 c0 -8 -7 -15 -15 -15 -8 0
-15 7 -15 15 0 8 7 15 15 15 8 0 15 -7 15 -15z"/>
<path d="M1817 4112 c-21 -23 -22 -85 -2 -102 16 -13 65 -6 65 10 0 5 -12 10
-27 12 -24 3 -28 8 -28 33 0 27 3 30 28 28 22 -1 28 2 25 15 -5 24 -41 26 -61
4z"/>
<path d="M1916 4122 c-3 -5 1 -15 9 -22 21 -17 19 -67 -2 -79 -17 -9 -17 -10
-1 -16 31 -12 42 0 43 46 0 24 3 51 5 59 6 17 -44 28 -54 12z"/>
<path d="M2348 4123 c-15 -4 -18 -16 -18 -64 0 -40 4 -59 13 -60 26 -3 52 4
59 14 12 19 6 87 -9 102 -15 15 -16 16 -45 8z m37 -43 c9 -29 -3 -60 -21 -53
-19 7 -19 73 0 73 8 0 18 -9 21 -20z"/>
<path d="M2793 4119 c-31 -11 -30 -46 2 -61 31 -14 27 -34 -5 -30 -15 3 -21
-1 -18 -10 7 -19 53 -22 67 -4 16 20 7 46 -18 53 -31 8 -35 33 -6 33 14 0 25
4 25 9 0 14 -23 19 -47 10z"/>
<path d="M3120 4120 c-17 -4 -21 -8 -12 -14 6 -4 12 -27 12 -52 0 -24 5 -44
10 -44 6 0 10 17 10 37 0 20 7 44 15 53 19 21 4 30 -35 20z"/>
<path d="M3212 4114 c-22 -15 -27 -40 -16 -82 8 -26 48 -39 69 -22 20 16 19
84 -1 104 -19 20 -24 20 -52 0z m43 -50 c0 -22 -5 -29 -20 -29 -23 0 -32 30
-14 51 18 22 34 11 34 -22z"/>
<path d="M1524 4103 c-3 -10 -10 -28 -15 -41 -16 -40 -12 -54 10 -40 15 9 23
9 35 -1 14 -12 16 -9 16 24 0 32 -2 36 -15 25 -13 -11 -14 -8 -9 19 7 33 -12
45 -22 14z"/>
<path d="M1606 4103 c-5 -17 -9 -70 -7 -86 1 -4 12 0 25 8 21 14 24 14 29 0 7
-17 37 -21 37 -5 0 6 -5 10 -11 10 -7 0 -9 11 -6 30 4 16 4 37 1 45 -9 21 -61
20 -68 -2z m44 -18 c0 -8 -4 -15 -10 -15 -5 0 -10 7 -10 15 0 8 5 15 10 15 6
0 10 -7 10 -15z"/>
<path d="M1722 4103 c-13 -25 -22 -80 -15 -87 3 -3 12 -1 20 5 10 9 18 8 33
-6 18 -17 20 -17 26 -1 4 10 2 22 -5 29 -6 6 -11 20 -11 32 0 21 -17 45 -32
45 -4 0 -11 -8 -16 -17z"/>
<path d="M2117 4114 c-11 -11 -8 -104 2 -104 5 0 13 10 17 22 6 21 7 21 21 -5
25 -49 40 -33 35 38 -4 46 -22 64 -22 23 -1 -22 -1 -22 -23 5 -13 15 -26 24
-30 21z"/>
<path d="M2429 4089 c-17 -42 4 -83 44 -87 31 -4 37 13 7 21 -11 3 -20 10 -20
16 0 6 9 11 20 11 11 0 20 5 20 10 0 6 -7 10 -15 10 -21 0 -19 27 3 39 14 9
12 10 -14 11 -26 0 -34 -6 -45 -31z"/>
<path d="M2902 4108 c-7 -7 -12 -20 -12 -29 0 -10 -4 -21 -10 -24 -12 -7 -14
-45 -2 -45 4 0 14 6 20 12 10 10 17 10 33 0 29 -18 33 -10 19 35 -7 21 -14 44
-16 51 -4 15 -17 15 -32 0z"/>
<path d="M2988 4074 c-6 -66 -2 -74 39 -74 20 0 32 4 28 10 -4 6 -10 8 -14 5
-16 -9 -44 34 -39 59 3 14 2 30 -2 37 -4 6 -10 -10 -12 -37z"/>
<path d="M2540 4061 c0 -51 9 -61 51 -61 26 0 24 13 -3 25 -17 7 -24 20 -26
48 -5 54 -22 45 -22 -12z"/>
<path d="M2288 3848 c-27 -6 -48 -14 -48 -19 0 -13 27 -11 50 3 25 16 54 1 58
-32 5 -33 -9 -42 -54 -32 -41 9 -64 6 -64 -9 0 -26 116 -25 144 1 7 7 -28 103
-37 99 -1 -1 -23 -6 -49 -11z"/>
<path d="M2160 3831 l-25 -7 23 -6 c28 -8 54 0 46 13 -6 10 -8 10 -44 0z"/>
<path d="M2035 3811 c-24 -5 -30 -12 -30 -31 0 -32 27 -37 40 -8 7 16 20 24
43 26 17 2 32 7 32 13 0 10 -38 10 -85 0z"/>
<path d="M2075 3770 c-3 -6 -4 -19 0 -29 3 -10 -4 -56 -15 -102 -12 -46 -25
-100 -30 -119 -4 -19 -13 -66 -20 -105 -7 -38 -16 -78 -21 -87 -5 -10 -9 -33
-9 -51 0 -20 -13 -53 -35 -87 -19 -30 -35 -62 -35 -71 0 -23 -21 -39 -51 -39
-15 0 -46 -10 -69 -22 -36 -20 -40 -23 -21 -26 12 -2 27 1 34 6 24 19 67 23
73 7 7 -18 24 -20 24 -4 0 17 32 38 58 39 17 0 22 6 22 25 0 27 -9 32 -28 13
-9 -9 -12 -8 -12 8 0 29 35 63 58 57 11 -2 23 0 26 6 5 7 -1 11 -15 11 -20 0
-21 3 -15 53 11 92 29 148 53 167 27 21 29 30 8 30 -8 0 -15 7 -15 15 0 9 7
32 15 52 8 19 15 47 15 60 0 16 7 27 20 30 11 3 20 10 20 15 0 6 -7 7 -16 4
-13 -5 -15 -2 -9 16 5 13 8 40 8 60 -1 30 3 37 23 42 30 8 31 22 2 30 -31 8
-36 8 -43 -4z"/>
<path d="M2165 3769 c-4 -6 -2 -15 5 -19 17 -10 42 -1 37 14 -5 16 -34 19 -42
5z"/>
<path d="M2288 3708 c-3 -7 -1 -24 3 -38 6 -22 7 -20 8 13 1 38 -3 47 -11 25z"/>
<path d="M2170 3690 c0 -5 5 -10 10 -10 6 0 10 5 10 10 0 6 -4 10 -10 10 -5 0
-10 -4 -10 -10z"/>
<path d="M1049 3650 c-74 -49 -182 -168 -256 -283 -164 -256 -217 -509 -169
-817 7 -46 57 -199 67 -205 5 -4 9 -15 9 -25 0 -53 124 -241 225 -340 55 -54
68 -63 83 -54 25 16 27 43 4 62 -11 10 -28 32 -38 49 -11 18 -40 62 -65 100
-92 136 -138 237 -178 393 -17 66 -30 304 -19 353 31 145 43 189 66 247 60
149 131 255 267 397 l104 108 -21 23 c-12 12 -24 22 -28 22 -4 0 -27 -13 -51
-30z"/>
<path d="M2312 3600 c0 -19 2 -27 5 -17 2 9 2 25 0 35 -3 9 -5 1 -5 -18z"/>
<path d="M2331 3490 c0 -37 3 -70 8 -75 5 -6 11 -30 14 -55 21 -173 21 -160
-2 -160 -24 0 -27 -12 -7 -29 11 -10 16 -8 24 5 6 11 17 15 31 11 12 -3 21 -2
19 1 -24 47 -54 173 -77 317 l-8 50 -2 -65z"/>
<path d="M2110 3426 c-5 -5 -10 -19 -10 -30 0 -19 0 -19 14 -1 10 14 25 19 55
18 29 -1 41 2 41 12 0 16 -83 18 -100 1z"/>
<path d="M2673 3343 c-7 -2 -13 -18 -13 -33 0 -16 -4 -32 -10 -35 -16 -10 -12
-128 5 -162 18 -36 75 -53 102 -31 14 11 10 14 -33 24 l-49 10 0 95 c0 90 1
94 23 97 20 3 21 1 12 -24 -12 -31 -2 -47 38 -59 16 -4 22 -2 22 8 0 8 -9 17
-20 20 -22 6 -28 51 -9 62 5 4 54 -7 107 -23 53 -17 106 -32 117 -34 14 -2 22
-14 26 -38 6 -31 7 -32 8 -7 1 33 23 44 57 28 23 -10 25 -15 22 -74 -3 -60 -4
-62 -31 -65 -23 -3 -30 2 -41 30 -13 31 -14 31 -18 8 -3 -24 -8 -26 -93 -35
-103 -12 -95 -23 15 -22 l75 1 6 -35 6 -34 12 33 c10 23 19 32 36 32 51 0 55
7 55 90 0 44 -4 81 -8 84 -16 10 -365 96 -386 95 -12 0 -27 -3 -33 -6z"/>
<path d="M2255 3330 c-3 -5 -1 -10 4 -10 6 0 11 5 11 10 0 6 -2 10 -4 10 -3 0
-8 -4 -11 -10z"/>
<path d="M2311 3314 c0 -11 3 -14 6 -6 3 7 2 16 -1 19 -3 4 -6 -2 -5 -13z"/>
<path d="M2101 3304 c0 -11 3 -14 6 -6 3 7 2 16 -1 19 -3 4 -6 -2 -5 -13z"/>
<path d="M2270 3284 c0 -8 5 -12 10 -9 6 4 8 11 5 16 -9 14 -15 11 -15 -7z"/>
<path d="M2101 3254 c0 -11 3 -14 6 -6 3 7 2 16 -1 19 -3 4 -6 -2 -5 -13z"/>
<path d="M2180 3210 c0 -5 5 -10 11 -10 5 0 7 5 4 10 -3 6 -8 10 -11 10 -2 0
-4 -4 -4 -10z"/>
<path d="M2175 3159 c-4 -6 -3 -15 3 -21 6 -6 11 -4 15 6 7 18 -9 31 -18 15z"/>
<path d="M2583 3076 l28 -24 -81 -7 c-45 -4 -79 -9 -77 -11 2 -2 57 -4 123 -5
72 0 121 -4 125 -11 4 -6 12 -7 18 -4 21 13 11 26 -21 26 -18 0 -44 9 -58 20
-14 11 -31 20 -37 20 -7 0 -13 5 -13 10 0 6 -8 10 -17 10 -14 0 -12 -5 10 -24z"/>
<path d="M2000 3069 c0 -5 5 -7 10 -4 6 3 10 8 10 11 0 2 -4 4 -10 4 -5 0 -10
-5 -10 -11z"/>
<path d="M2175 3068 c-9 -23 -2 -61 13 -66 14 -4 15 31 2 63 -7 18 -9 18 -15
3z"/>
<path d="M2348 3068 c-6 -16 1 -38 12 -38 15 0 19 28 6 40 -10 8 -15 7 -18 -2z"/>
<path d="M1537 3033 c-4 -4 -29 -10 -55 -14 -86 -14 -137 -26 -162 -37 -14 -6
-61 -21 -105 -32 -78 -21 -167 -51 -212 -73 -40 -19 -29 -52 25 -75 68 -29
223 -74 230 -67 11 10 -13 22 -103 50 -49 16 -94 32 -99 37 -6 4 -23 8 -38 8
-15 0 -28 4 -28 8 0 15 24 32 46 32 13 0 25 4 28 9 3 5 20 11 38 14 18 2 71
17 118 32 47 15 96 27 110 27 14 0 34 8 45 18 20 18 35 21 188 41 48 7 87 16
87 20 0 11 -103 12 -113 2z"/>
<path d="M1677 3029 c8 -8 19 -8 40 -1 28 10 28 10 -11 11 -29 1 -37 -2 -29
-10z"/>
<path d="M2001 3004 c0 -11 3 -14 6 -6 3 7 2 16 -1 19 -3 4 -6 -2 -5 -13z"/>
<path d="M2122 2993 c-30 -42 -28 -54 4 -20 14 15 24 33 22 39 -2 6 -14 -2
-26 -19z"/>
<path d="M1642 2995 c-8 -9 -31 -15 -59 -15 -25 0 -66 -7 -92 -15 -25 -8 -65
-19 -89 -25 -53 -14 -66 -40 -55 -117 l8 -55 75 -24 c77 -24 140 -31 140 -15
0 10 -55 71 -64 71 -3 0 -6 -7 -6 -16 0 -14 -7 -15 -42 -10 -71 11 -93 27 -96
66 -4 45 25 77 75 85 21 3 57 10 80 16 74 16 83 13 83 -26 0 -22 -8 -43 -20
-55 -17 -17 -18 -21 -5 -26 11 -5 15 -21 15 -60 0 -30 4 -54 9 -54 5 0 16 -7
25 -15 13 -13 18 -13 48 4 18 10 55 27 81 37 53 19 64 33 49 60 -9 16 -10 15
-16 -4 -4 -13 -19 -25 -34 -28 -15 -4 -36 -13 -47 -20 -53 -37 -95 3 -95 91 0
66 18 105 50 105 25 0 113 -38 122 -53 4 -7 8 -23 9 -37 1 -23 2 -22 11 7 15
45 -6 74 -66 92 -26 7 -53 22 -59 32 -14 22 -18 23 -35 4z"/>
<path d="M2636 2982 c-3 -6 -1 -14 5 -17 15 -10 25 3 12 16 -7 7 -13 7 -17 1z"/>
<path d="M1920 2973 c-29 -12 -78 -79 -65 -91 4 -4 10 -1 13 7 8 22 67 78 88
84 18 4 17 5 -1 5 -11 0 -27 -2 -35 -5z"/>
<path d="M2820 2965 c7 -9 15 -13 17 -11 7 7 -7 26 -19 26 -6 0 -6 -6 2 -15z"/>
<path d="M2973 2943 c-13 -2 -23 -9 -23 -14 0 -6 5 -7 10 -4 6 4 20 -4 30 -18
11 -14 31 -28 45 -31 33 -8 31 -45 -2 -62 -13 -6 -31 -18 -41 -27 -10 -10 -27
-17 -38 -18 -10 0 -4 -5 15 -11 32 -9 36 -7 77 33 24 24 44 47 44 52 0 5 -15
24 -34 43 -19 19 -36 41 -40 49 -3 8 -9 14 -13 14 -4 -1 -18 -4 -30 -6z"/>
<path d="M2191 2919 c-13 -5 -35 -21 -48 -35 -22 -24 -23 -28 -9 -43 9 -10 16
-25 16 -33 0 -9 14 -28 31 -42 34 -29 64 -28 86 3 7 9 17 21 23 28 5 7 10 20
10 30 0 12 -6 8 -20 -14 -11 -18 -26 -33 -33 -33 -18 0 -55 28 -67 50 -16 29
24 80 62 80 17 0 27 4 23 10 -8 12 -42 12 -74 -1z"/>
<path d="M2272 2889 c2 -7 10 -15 17 -17 8 -3 12 1 9 9 -2 7 -10 15 -17 17 -8
3 -12 -1 -9 -9z"/>
<path d="M2700 2859 c-23 -9 -23 -11 -7 -20 25 -15 61 -7 65 14 4 19 -18 22
-58 6z"/>
<path d="M1860 2796 c0 -9 5 -16 10 -16 6 0 10 4 10 9 0 6 -4 13 -10 16 -5 3
-10 -1 -10 -9z"/>
<path d="M2906 2755 c-3 -8 -1 -15 4 -15 6 0 10 7 10 15 0 8 -2 15 -4 15 -2 0
-6 -7 -10 -15z"/>
<path d="M1295 2730 c-6 -10 68 -40 97 -40 22 0 22 0 -2 23 -24 21 -85 32 -95
17z"/>
<path d="M1930 2720 c19 -13 30 -13 30 0 0 6 -10 10 -22 10 -19 0 -20 -2 -8
-10z"/>
<path d="M2120 2717 c0 -8 7 -17 15 -21 8 -3 15 -3 15 0 0 3 -7 12 -15 20 -13
13 -15 13 -15 1z"/>
<path d="M2623 2712 c-13 -2 -23 -10 -23 -18 0 -11 6 -13 23 -9 27 9 42 21 30
27 -4 2 -18 2 -30 0z"/>
<path d="M2708 2703 c7 -3 16 -2 19 1 4 3 -2 6 -13 5 -11 0 -14 -3 -6 -6z"/>
<path d="M2175 2690 c-3 -6 -3 -20 1 -32 6 -21 7 -21 20 -3 8 10 14 25 14 32
0 15 -26 18 -35 3z"/>
<path d="M1510 2671 c0 -15 91 -31 112 -20 35 19 17 29 -47 29 -36 0 -65 -4
-65 -9z"/>
<path d="M1694 2669 c-16 -6 -15 -8 11 -14 17 -4 36 -8 43 -11 21 -6 13 11
-11 22 -13 6 -32 7 -43 3z"/>
<path d="M1807 2651 c-17 -6 -16 -8 6 -20 13 -7 35 -11 48 -9 20 2 29 -6 56
-57 46 -83 53 -103 64 -160 6 -27 14 -70 19 -95 5 -25 14 -67 19 -95 5 -27 15
-70 21 -95 6 -25 14 -57 17 -72 3 -16 10 -28 17 -28 6 0 3 -7 -8 -15 -24 -18
-12 -35 25 -35 30 0 38 13 16 27 -20 13 -37 60 -37 103 0 21 -9 60 -21 87 -16
38 -18 52 -9 67 9 14 9 20 -1 27 -15 9 -39 83 -39 123 0 47 -21 102 -51 137
l-29 34 26 3 c31 4 29 35 -3 40 -12 2 -25 12 -28 23 -7 20 -35 27 -35 8 0 -7
-7 -8 -17 -4 -33 13 -38 14 -56 6z"/>
<path d="M2352 2635 c0 -16 2 -22 5 -12 2 9 2 23 0 30 -3 6 -5 -1 -5 -18z"/>
<path d="M2548 2653 c-28 -7 -21 -21 7 -15 14 2 25 8 25 13 0 9 -4 10 -32 2z"/>
<path d="M2990 2643 c0 -34 -27 -53 -73 -53 -35 -1 -39 -2 -23 -11 10 -6 33
-9 52 -6 40 7 47 -8 42 -93 -3 -53 -4 -55 -38 -64 -19 -5 -37 -12 -40 -16 -3
-3 -16 -11 -30 -18 -23 -11 -22 -12 15 -7 117 15 135 18 135 27 0 5 4 7 9 4 5
-4 21 -2 35 4 25 9 26 13 26 88 0 86 -8 102 -52 102 -23 0 -32 7 -43 33 -12
26 -14 28 -15 10z m71 -63 c16 -9 19 -22 19 -74 0 -56 -2 -64 -25 -76 -20 -11
-27 -11 -40 0 -21 17 -21 123 1 144 18 19 20 19 45 6z"/>
<path d="M2608 2637 c-7 -7 -42 -33 -78 -57 -35 -24 -58 -46 -52 -48 7 -2 39
13 70 34 31 21 77 48 102 61 l45 23 -37 0 c-20 0 -43 -6 -50 -13z"/>
<path d="M2704 2602 c-55 -8 -90 -115 -59 -176 8 -15 15 -41 15 -56 0 -29 15
-40 55 -40 31 0 37 11 19 35 -14 19 -14 19 -29 -1 -13 -16 -16 -17 -25 -4 -6
8 -8 27 -6 43 3 15 1 38 -5 51 -26 55 15 130 59 108 18 -10 42 -5 42 8 0 14
-44 36 -66 32z"/>
<path d="M2000 2516 c0 -9 5 -16 10 -16 6 0 10 4 10 9 0 6 -4 13 -10 16 -5 3
-10 -1 -10 -9z"/>
<path d="M2347 2523 c-16 -16 -7 -34 14 -28 20 7 21 4 14 -36 -3 -24 -10 -57
-15 -74 -5 -16 -11 -43 -13 -58 -2 -16 -8 -32 -15 -36 -8 -5 -9 -24 -5 -61 l7
-55 8 40 c21 99 27 122 36 151 5 17 8 43 5 57 -4 20 2 34 23 55 16 16 36 32
44 35 16 7 -15 2 -50 -9 -14 -5 -20 -2 -20 10 0 16 -21 22 -33 9z"/>
<path d="M2710 2430 c0 -5 5 -10 10 -10 6 0 10 5 10 10 0 6 -4 10 -10 10 -5 0
-10 -4 -10 -10z"/>
<path d="M2813 2433 c9 -2 23 -2 30 0 6 3 -1 5 -18 5 -16 0 -22 -2 -12 -5z"/>
<path d="M2291 2404 c0 -11 3 -14 6 -6 3 7 2 16 -1 19 -3 4 -6 -2 -5 -13z"/>
<path d="M2170 2382 c0 -14 11 -21 26 -15 8 3 11 9 8 14 -7 11 -34 12 -34 1z"/>
<path d="M2810 2373 c-44 -8 -49 -25 -6 -21 22 2 41 9 44 16 2 6 0 11 -5 11
-4 -1 -19 -4 -33 -6z"/>
<path d="M2167 2274 c-9 -10 2 -24 19 -24 8 0 14 7 14 15 0 15 -21 21 -33 9z"/>
<path d="M2290 2270 c0 -5 5 -10 10 -10 6 0 10 5 10 10 0 6 -4 10 -10 10 -5 0
-10 -4 -10 -10z"/>
<path d="M2310 2128 c-3 -26 -1 -43 3 -39 5 5 7 26 5 47 l-3 39 -5 -47z"/>
<path d="M2167 2134 c-8 -8 1 -24 14 -24 5 0 9 7 9 15 0 15 -12 20 -23 9z"/>
<path d="M2174 2059 c-3 -6 -1 -16 5 -22 8 -8 11 -5 11 11 0 24 -5 28 -16 11z"/>
<path d="M2291 2038 c-1 -19 -9 -29 -31 -37 -16 -5 -30 -14 -30 -20 0 -15 37
-23 57 -13 28 15 63 -3 63 -32 0 -31 -42 -46 -72 -27 -23 14 -40 5 -18 -10 8
-5 33 -8 55 -7 35 3 40 6 43 31 2 15 8 27 13 27 5 0 9 7 9 15 0 10 -10 15 -29
15 -34 0 -48 14 -54 55 -4 28 -4 29 -6 3z"/>
<path d="M2170 1991 c0 -5 -9 -7 -20 -4 -11 3 -20 0 -20 -6 0 -6 14 -11 30
-11 20 0 30 5 30 15 0 8 -4 15 -10 15 -5 0 -10 -4 -10 -9z"/>
<path d="M1991 1981 c-38 -24 28 -58 95 -48 23 3 20 4 -12 6 -41 1 -62 20 -48
42 7 11 -17 11 -35 0z"/>
<path d="M2168 1913 c7 -3 16 -2 19 1 4 3 -2 6 -13 5 -11 0 -14 -3 -6 -6z"/>
<path d="M1920 1787 c-28 -14 -41 -57 -17 -57 8 0 22 9 32 20 20 23 45 26 63
8 23 -23 12 -47 -43 -93 -58 -50 -76 -82 -54 -96 19 -12 121 -11 139 1 23 15
-5 30 -57 30 -52 0 -54 11 -8 40 75 46 95 103 49 139 -30 24 -67 27 -104 8z"/>
<path d="M2139 1793 c-23 -3 -27 -10 -32 -48 -8 -58 0 -79 27 -70 71 22 96 13
96 -34 0 -51 -38 -65 -91 -34 -39 23 -51 7 -16 -23 54 -47 137 -16 137 51 0
48 -28 78 -76 79 -34 2 -39 5 -39 26 0 23 4 25 53 28 36 2 52 7 49 15 -4 12
-62 18 -108 10z"/>
<path d="M2322 1788 c-16 -16 -15 -59 2 -80 7 -10 25 -18 40 -18 33 0 33 -6
-4 -63 -16 -26 -30 -52 -30 -57 0 -19 26 2 44 35 18 33 41 40 29 9 -8 -20 25
-54 53 -54 23 0 44 25 44 54 0 26 -38 58 -61 51 -26 -9 -25 13 6 66 14 24 25
47 25 52 0 16 -29 6 -35 -12 -3 -10 -14 -29 -25 -41 l-19 -22 1 37 c2 49 -39
74 -70 43z m40 -30 c7 -18 -2 -39 -13 -32 -12 7 -12 44 0 44 5 0 11 -6 13 -12z
m98 -143 c0 -18 -4 -23 -15 -19 -16 6 -20 26 -8 37 13 14 23 6 23 -18z"/>
<path d="M1310 1460 c-20 -12 -9 -21 18 -13 12 3 19 9 16 14 -7 11 -15 11 -34
-1z"/>
<path d="M1555 1459 c-10 -15 3 -25 16 -12 7 7 7 13 1 17 -6 3 -14 1 -17 -5z"/>
<path d="M1932 1458 c-5 -7 -12 -24 -14 -38 -3 -25 -3 -25 -22 7 -18 29 -36
35 -36 12 0 -16 40 -49 60 -49 15 0 20 7 20 25 0 18 5 25 19 25 28 0 33 -27 9
-50 l-22 -20 22 0 c11 0 26 8 31 18 9 14 12 14 20 4 6 -10 10 -3 15 23 8 41 0
59 -15 33 -9 -16 -11 -16 -29 2 -23 23 -43 25 -58 8z"/>
<path d="M2055 1460 c-3 -5 1 -13 9 -16 20 -8 21 -38 1 -54 -19 -15 -14 -23 9
-14 10 4 16 18 16 39 0 34 -23 64 -35 45z"/>
<path d="M2942 1461 c-21 -13 -11 -55 14 -59 22 -3 33 18 26 51 -4 18 -19 22
-40 8z m20 -33 c-15 -15 -24 -6 -16 16 5 12 10 14 17 7 8 -8 8 -14 -1 -23z"/>
<path d="M3010 1454 c-11 -12 -11 -18 2 -30 12 -13 20 -14 37 -5 18 10 19 14
8 31 -14 24 -30 25 -47 4z m30 -19 c0 -8 -4 -15 -10 -15 -5 0 -10 7 -10 15 0
8 5 15 10 15 6 0 10 -7 10 -15z"/>
<path d="M1388 1425 c-18 -36 -15 -44 17 -41 26 2 27 5 19 44 -8 41 -15 40
-36 -3z"/>
<path d="M1460 1422 c0 -23 4 -42 9 -42 6 0 7 17 4 38 -8 51 -13 53 -13 4z"/>
<path d="M1616 1452 c-6 -11 -2 -70 7 -78 2 -3 7 11 9 31 4 37 -5 65 -16 47z"/>
<path d="M1730 1442 c0 -10 -10 -24 -22 -30 -13 -6 -17 -11 -10 -11 37 -2 68
38 42 54 -5 3 -10 -2 -10 -13z"/>
<path d="M1808 1455 c-3 -6 -8 -22 -11 -36 -6 -23 -4 -26 18 -26 14 0 22 4 19
9 -3 5 -9 21 -13 36 -4 14 -10 22 -13 17z"/>
<path d="M2187 1453 c-4 -3 -7 -19 -7 -34 0 -23 3 -26 21 -22 12 4 25 0 30 -8
6 -11 11 -11 20 -2 10 10 15 9 24 -4 7 -10 19 -14 29 -10 21 8 21 25 -1 23
-10 0 -22 9 -28 21 -6 15 -16 21 -26 18 -9 -3 -22 1 -29 10 -14 16 -23 19 -33
8z"/>
<path d="M2343 1437 c-8 -17 -7 -28 3 -42 13 -18 14 -17 14 7 0 15 5 30 10 33
14 9 12 25 -3 25 -8 0 -18 -10 -24 -23z"/>
<path d="M2520 1430 c0 -16 5 -30 10 -30 6 0 10 -7 10 -15 0 -8 3 -15 8 -15 4
0 6 20 4 45 -5 52 -32 65 -32 15z"/>
<path d="M2870 1444 c0 -10 -7 -26 -17 -36 -15 -17 -15 -18 10 -18 23 0 27 4
27 29 0 17 -4 33 -10 36 -5 3 -10 -2 -10 -11z"/>
<path d="M1650 1435 c0 -8 5 -15 10 -15 6 0 10 7 10 15 0 8 -4 15 -10 15 -5 0
-10 -7 -10 -15z"/>
<path d="M2431 1422 c0 -13 6 -30 14 -38 16 -16 22 -5 6 12 -5 5 -11 18 -14
29 -4 18 -5 17 -6 -3z"/>
<path d="M2810 1432 c0 -7 -6 -12 -14 -12 -22 0 -28 -16 -11 -30 12 -10 16 -7
25 15 6 15 8 30 5 33 -3 3 -5 0 -5 -6z"/>
<path d="M1554 1399 c-3 -6 -1 -16 5 -22 8 -8 11 -5 11 11 0 24 -5 28 -16 11z"/>
<path d="M2601 1394 c0 -11 3 -14 6 -6 3 7 2 16 -1 19 -3 4 -6 -2 -5 -13z"/>
<path d="M1305 1390 c3 -5 8 -10 11 -10 2 0 4 5 4 10 0 6 -5 10 -11 10 -5 0
-7 -4 -4 -10z"/>
<path d="M752 824 c1 -9 9 -19 16 -22 9 -3 13 2 10 14 -1 9 -9 19 -16 22 -9 3
-13 -2 -10 -14z"/>
<path d="M907 833 c-4 -3 -7 -13 -7 -21 0 -11 3 -12 13 -3 17 14 27 4 27 -26
0 -28 -14 -29 -40 -3 -11 11 -20 25 -20 30 0 6 -4 10 -10 10 -18 0 -10 -35 14
-57 25 -24 66 -22 66 3 0 20 13 17 32 -5 12 -14 23 -18 40 -13 22 7 22 7 -4
10 -24 3 -28 8 -28 34 0 24 -3 28 -13 19 -11 -8 -18 -6 -32 9 -19 21 -28 24
-38 13z"/>
<path d="M1413 833 c-8 -3 -13 -21 -12 -46 l1 -42 10 30 c6 17 15 35 20 42 10
13 -1 22 -19 16z"/>
<path d="M820 814 c0 -8 5 -12 10 -9 6 3 10 10 10 16 0 5 -4 9 -10 9 -5 0 -10
-7 -10 -16z"/>
<path d="M1077 823 c-10 -9 -9 -23 2 -23 5 0 11 7 15 15 5 15 -5 20 -17 8z"/>
<path d="M1573 823 c-20 -7 -16 -19 13 -38 25 -16 26 -16 22 2 -2 10 -10 17
-16 16 -16 -4 -15 14 1 20 6 3 8 5 2 5 -5 0 -16 -2 -22 -5z"/>
<path d="M1660 815 c0 -8 5 -15 10 -15 6 0 10 7 10 15 0 8 -4 15 -10 15 -5 0
-10 -7 -10 -15z"/>
<path d="M1810 820 c0 -5 7 -10 15 -10 8 0 15 5 15 10 0 6 -7 10 -15 10 -8 0
-15 -4 -15 -10z"/>
<path d="M2073 823 c-7 -3 -13 -19 -13 -36 0 -28 3 -32 29 -33 24 -1 28 2 21
15 -4 9 -12 26 -16 37 -5 12 -15 19 -21 17z"/>
<path d="M2134 819 c-7 -12 25 -60 44 -67 7 -2 12 3 12 12 0 9 -7 16 -15 16
-8 0 -15 9 -15 21 0 13 4 18 12 13 7 -4 8 -3 4 4 -9 15 -33 15 -42 1z"/>
<path d="M2298 824 c-5 -4 -8 -23 -7 -43 0 -34 1 -34 10 -11 11 27 8 66 -3 54z"/>
<path d="M2370 791 c0 -41 1 -43 14 -25 14 18 15 18 21 2 4 -10 13 -18 21 -18
22 0 16 28 -8 41 -13 7 -28 19 -35 28 -10 13 -12 9 -13 -28z"/>
<path d="M2713 823 c-7 -2 -13 -21 -13 -41 0 -27 3 -33 11 -25 6 6 18 9 25 6
10 -4 14 4 14 31 0 35 -8 41 -37 29z m14 -25 c-3 -8 -6 -5 -6 6 -1 11 2 17 5
13 3 -3 4 -12 1 -19z"/>
<path d="M2790 820 c-8 -5 -12 -11 -9 -14 3 -3 14 1 25 9 21 16 8 20 -16 5z"/>
<path d="M1030 807 c0 -19 16 -31 24 -18 3 5 -1 14 -9 21 -12 10 -15 10 -15
-3z"/>
<path d="M1230 785 c0 -19 4 -35 8 -35 4 0 6 16 4 35 -2 19 -6 35 -8 35 -2 0
-4 -16 -4 -35z"/>
<path d="M1360 810 c0 -5 5 -10 10 -10 6 0 10 5 10 10 0 6 -4 10 -10 10 -5 0
-10 -4 -10 -10z"/>
<path d="M1731 804 c0 -11 3 -14 6 -6 3 7 2 16 -1 19 -3 4 -6 -2 -5 -13z"/>
<path d="M1889 790 c-7 -35 -4 -48 7 -38 3 4 4 21 2 40 l-3 33 -6 -35z"/>
<path d="M1960 808 c0 -32 33 -51 43 -25 4 7 8 3 12 -10 11 -35 21 -27 17 11
-4 32 -6 34 -38 33 -19 -1 -34 -5 -34 -9z"/>
<path d="M2410 810 c0 -5 5 -10 10 -10 6 0 10 5 10 10 0 6 -4 10 -10 10 -5 0
-10 -4 -10 -10z"/>
<path d="M2640 809 c0 -5 5 -7 10 -4 6 3 10 8 10 11 0 2 -4 4 -10 4 -5 0 -10
-5 -10 -11z"/>
<path d="M2870 785 c0 -39 15 -48 22 -12 5 27 0 47 -13 47 -5 0 -9 -16 -9 -35z"/>
<path d="M475 800 c-3 -5 3 -10 14 -10 12 0 21 -5 21 -12 0 -6 3 -8 6 -5 8 7
-14 37 -27 37 -4 0 -11 -4 -14 -10z"/>
<path d="M1312 785 c0 -16 2 -22 5 -12 2 9 2 23 0 30 -3 6 -5 -1 -5 -18z"/>
<path d="M1442 780 c0 -19 2 -27 5 -17 2 9 2 25 0 35 -3 9 -5 1 -5 -18z"/>
<path d="M2573 780 c-19 -29 -17 -48 3 -28 9 8 14 23 12 32 -3 14 -5 14 -15
-4z"/>
<path d="M820 774 c0 -12 7 -27 15 -34 19 -16 19 -3 0 30 -13 24 -14 24 -15 4z"/>
<path d="M1660 766 c0 -9 5 -16 10 -16 6 0 10 4 10 9 0 6 -4 13 -10 16 -5 3
-10 -1 -10 -9z"/>
<path d="M1771 764 c0 -11 3 -14 6 -6 3 7 2 16 -1 19 -3 4 -6 -2 -5 -13z"/>
<path d="M2620 766 c0 -14 28 -42 35 -34 2 2 2 14 -2 26 -6 24 -33 31 -33 8z"/>
<path d="M1090 761 c-15 -4 -20 -10 -13 -14 13 -8 43 1 43 14 0 5 -1 9 -2 8
-2 -1 -14 -4 -28 -8z"/>
<path d="M2140 745 c0 -8 4 -15 10 -15 5 0 7 7 4 15 -4 8 -8 15 -10 15 -2 0
-4 -7 -4 -15z"/>
<path d="M2818 753 c7 -3 16 -2 19 1 4 3 -2 6 -13 5 -11 0 -14 -3 -6 -6z"/>
<path d="M474 725 c-7 -17 4 -37 17 -30 12 8 12 45 -1 45 -6 0 -13 -7 -16 -15z"/>
<path d="M550 713 c0 -6 10 -30 22 -53 28 -52 18 -60 -70 -59 -35 1 -66 -2
-69 -5 -4 -3 35 -6 86 -6 111 0 117 7 67 82 -20 29 -36 48 -36 41z"/>
<path d="M480 640 c0 -5 5 -10 10 -10 6 0 10 5 10 10 0 6 -4 10 -10 10 -5 0
-10 -4 -10 -10z"/>
<path d="M2707 644 c-8 -8 1 -24 14 -24 5 0 9 7 9 15 0 15 -12 20 -23 9z"/>
<path d="M1191 624 c0 -11 3 -14 6 -6 3 7 2 16 -1 19 -3 4 -6 -2 -5 -13z"/>
<path d="M1252 610 c0 -19 2 -27 5 -17 2 9 2 25 0 35 -3 9 -5 1 -5 -18z"/>
<path d="M2061 624 c0 -11 3 -14 6 -6 3 7 2 16 -1 19 -3 4 -6 -2 -5 -13z"/>
<path d="M2627 633 c-4 -3 -7 -21 -7 -40 0 -49 25 -42 27 7 1 38 -5 48 -20 33z"/>
<path d="M2843 619 c4 -13 7 -27 7 -31 0 -5 6 -8 14 -8 18 0 6 52 -14 58 -9 3
-11 -2 -7 -19z"/>
<path d="M2982 628 c-10 -13 -10 -17 3 -22 8 -3 15 -15 15 -26 0 -11 5 -20 10
-20 12 0 13 23 1 36 -5 5 -11 18 -13 28 -3 17 -4 17 -16 4z"/>
<path d="M3060 625 c0 -8 5 -15 10 -15 6 0 10 7 10 15 0 8 -4 15 -10 15 -5 0
-10 -7 -10 -15z"/>
<path d="M3260 620 c0 -11 -4 -20 -10 -20 -5 0 -10 -4 -10 -10 0 -5 6 -7 14
-4 8 3 17 0 21 -5 12 -20 22 -3 17 29 -5 33 -32 42 -32 10z"/>
<path d="M3475 630 c4 -6 11 -8 16 -5 14 9 11 15 -7 15 -8 0 -12 -5 -9 -10z"/>
<path d="M3550 625 c0 -9 5 -15 10 -13 12 4 11 16 -1 24 -5 3 -9 -2 -9 -11z"/>
<path d="M360 613 c0 -18 6 -23 28 -23 25 1 26 1 7 12 -11 6 -23 16 -27 22 -5
6 -8 1 -8 -11z"/>
<path d="M740 605 c0 -29 3 -30 35 -9 29 19 24 34 -11 34 -19 0 -24 -5 -24
-25z"/>
<path d="M1389 628 c-8 -24 -7 -58 1 -58 5 0 10 8 10 17 0 13 3 14 12 5 15
-15 28 -15 28 -1 0 17 -46 50 -51 37z"/>
<path d="M1555 620 c-3 -5 -16 -8 -28 -5 -18 5 -22 1 -23 -19 -1 -14 3 -23 10
-21 6 2 23 6 39 9 15 4 27 13 27 21 0 18 -17 28 -25 15z"/>
<path d="M1623 616 c4 -10 7 -24 7 -32 0 -8 5 -14 11 -14 15 0 6 53 -10 58
-10 3 -12 0 -8 -12z"/>
<path d="M1827 623 c-8 -13 5 -29 31 -35 15 -4 22 -2 22 9 0 9 -6 13 -15 9 -8
-3 -18 2 -23 11 -5 8 -12 11 -15 6z"/>
<path d="M1914 613 c4 -9 1 -20 -6 -24 -9 -6 -8 -10 5 -15 10 -3 20 -4 23 -1
8 8 -7 57 -18 57 -6 0 -7 -8 -4 -17z"/>
<path d="M1970 620 c0 -5 5 -10 10 -10 6 0 10 5 10 10 0 6 -4 10 -10 10 -5 0
-10 -4 -10 -10z"/>
<path d="M2392 612 c-12 -11 -22 -25 -22 -32 0 -8 -8 -10 -21 -7 -16 4 -19 3
-11 -5 8 -8 20 -7 43 5 18 8 37 13 43 11 6 -2 17 5 25 17 11 19 11 21 -2 16
-8 -3 -19 -1 -24 4 -6 6 -18 2 -31 -9z"/>
<path d="M2768 605 c-6 -27 8 -43 23 -28 9 9 1 53 -11 53 -4 0 -10 -11 -12
-25z"/>
<path d="M3118 624 c-7 -6 2 -44 11 -45 49 -9 71 -8 64 4 -4 6 -6 21 -4 32 3
19 2 19 -16 3 -24 -22 -33 -23 -33 -3 0 15 -12 20 -22 9z"/>
<path d="M3399 623 c-10 -2 -19 -13 -22 -24 -6 -24 2 -25 19 -1 13 16 14 16
20 -5 8 -30 24 -29 24 1 0 25 -14 35 -41 29z"/>
<path d="M3612 605 c-10 -21 -9 -27 2 -31 8 -3 23 -1 33 5 10 6 12 11 6 11 -7
0 -13 9 -13 20 0 28 -15 25 -28 -5z"/>
<path d="M3860 617 c0 -11 49 -47 64 -47 3 0 6 9 6 20 0 13 -10 24 -26 30 -34
13 -44 13 -44 -3z"/>
<path d="M827 601 c-3 -12 1 -22 9 -25 10 -4 14 2 14 19 0 30 -16 33 -23 6z"/>
<path d="M880 611 c0 -6 5 -11 11 -11 7 0 18 -8 25 -17 12 -17 13 -16 14 5 0
12 -4 22 -9 22 -5 0 -16 3 -25 6 -9 3 -16 1 -16 -5z"/>
<path d="M1152 600 c0 -14 2 -19 5 -12 2 6 2 18 0 25 -3 6 -5 1 -5 -13z"/>
<path d="M2130 606 c0 -8 -8 -17 -17 -19 -11 -3 -7 -5 10 -6 21 -1 27 4 27 19
0 11 -4 20 -10 20 -5 0 -10 -6 -10 -14z"/>
<path d="M1461 574 c0 -11 3 -14 6 -6 3 7 2 16 -1 19 -3 4 -6 -2 -5 -13z"/>
<path d="M3060 581 c0 -6 5 -13 10 -16 6 -3 10 1 10 9 0 9 -4 16 -10 16 -5 0
-10 -4 -10 -9z"/>
</g>
</svg>
