<?xml version="1.0" encoding="UTF-8"?><svg id="Layer_2" xmlns="http://www.w3.org/2000/svg" xmlns:xlink="http://www.w3.org/1999/xlink" viewBox="0 0 115.65 120.33"><defs><radialGradient id="radial-gradient" cx="38.26" cy="79.52" fx="38.26" fy="79.52" r="35.53" gradientTransform="translate(-11.05 -23.91) rotate(-8.52)" gradientUnits="userSpaceOnUse"><stop offset="0" stop-color="#046e23"/><stop offset="1" stop-color="#00333a" stop-opacity=".5"/></radialGradient></defs><g id="Layer_2-2"><g id="laugh"><g id="laugh-2"><g id="screen"><path d="M111.12,7.99s3.69,26.77,3.52,55.43l-23.76,9.49.27,8.19-17.99,7.63s-54.85,1.97-61.02,1.25C5.98,89.25,1.12,22.84,1,15.61,1,15.61,56.11.43,65.44,1.02c9.33.57,36,4.15,45.68,6.98h0Z" style="fill:none; stroke:#cdedf9; stroke-linecap:round; stroke-linejoin:round; stroke-width:2px;"/><path d="M70.12,4.59s4.71,61.18,1.89,80.69" style="fill:none; stroke:#cdedf9; stroke-linecap:round; stroke-linejoin:round; stroke-width:2px;"/><path id="face" d="M64.13,7.14s3.03,52.21,1.87,77.4c0,0-34.64,3.88-51.09.42,0,0-10.28-17.55-7.7-66.32,0,0,25.7-11.42,56.94-11.49h-.02Z" style="fill:url(#radial-gradient); stroke:#cdedf9; stroke-linecap:round; stroke-linejoin:round; stroke-width:2px;"/></g><g id="leg-2"><path d="M46.95,90.9s-2.8,13.55-10.09,28.43c0,0-7.97-1.5-7.85-3.42s4.89-9.01,12.5-24.34" style="fill:none; stroke:#cdedf9; stroke-linecap:round; stroke-linejoin:round; stroke-width:2px;"/><path d="M51.74,90.49s-4.34,21.87-7.83,26.91l-7.04,1.92" style="fill:none; stroke:#cdedf9; stroke-linecap:round; stroke-linejoin:round; stroke-width:2px;"/></g><g id="arm-1"><path d="M88.07,28.18s-.17,11.35,8.94,32.33c0,0-5.67.71-9.53-.38,0,0-5.48-8.34-3.33-27.06" style="fill:none; stroke:#cdedf9; stroke-linecap:round; stroke-linejoin:round; stroke-width:2px;"/><path d="M95.56,29.61s6.7,16.84,11.16,25.9c0,0,3.16,4.55-9.7,4.99" style="fill:none; stroke:#cdedf9; stroke-linecap:round; stroke-linejoin:round; stroke-width:2px;"/></g><g id="leg-1"><path d="M63.63,90.07s-1.89,11.39-9.2,26.26c0,0-8-1.51-7.88-3.42s4.55-7.86,12.19-23.18" style="fill:none; stroke:#cdedf9; stroke-linecap:round; stroke-linejoin:round; stroke-width:2px;"/><path d="M68.35,88.58s-3.36,20.78-6.86,25.84l-7.06,1.92" style="fill:none; stroke:#cdedf9; stroke-linecap:round; stroke-linejoin:round; stroke-width:2px;"/></g></g></g><path d="M15.44,35.91c.01-2.04,1.22-3.94,2.83-5.2s3.57-1.98,5.53-2.54" style="fill:none; stroke:#cdedf9; stroke-linecap:round; stroke-linejoin:round; stroke-width:2px;"/><path d="M16.53,43.98c.66.65,1.41,1.23,2.21,1.7,1.65.97,3.58,1.53,5.48,1.31s3.74-1.26,4.7-2.91" style="fill:none; stroke:#cdedf9; stroke-linecap:round; stroke-linejoin:round; stroke-width:2px;"/><path d="M35.8,36.23c2.01,1.35,4.61,1.38,7.02,1.16,3.54-.33,7.04-1.14,10.37-2.38" style="fill:none; stroke:#cdedf9; stroke-linecap:round; stroke-linejoin:round; stroke-width:2px;"/><path d="M42.25,42.62c2.31,2.45,6.12,3.37,9.29,2.23.69-.25,1.34-.58,1.97-.95.5-.3,1.03-.68,1.16-1.25" style="fill:none; stroke:#cdedf9; stroke-linecap:round; stroke-linejoin:round; stroke-width:2px;"/><path d="M26.91,57.79c1.18.62,2.31,1.35,3.37,2.17.79-.6,1.84-.68,2.82-.78,5.43-.5,10.77-1.88,15.77-4.06.31-.14.63-.28.88-.5.39-.34.6-.83.8-1.31.26-.63.43-1.55-.2-1.82" style="fill:none; stroke:#cdedf9; stroke-linecap:round; stroke-linejoin:round; stroke-width:2px;"/></g></svg>