<?xml version="1.0" encoding="UTF-8"?>
<svg id="art-dir-projects" xmlns="http://www.w3.org/2000/svg" version="1.1" viewBox="0 0 20.1 276.8">
  <!-- Generator: Adobe Illustrator 30.3.0, SVG Export Plug-In . SVG Version: 2.1.3 Build 182)  -->
  <defs>
    <style>
      .st0 {
        fill: #001219;
      }

      .st1 {
        isolation: isolate;
      }

      .st2 {
        fill: #fff;
      }

      .st3 {
        fill: none;
        stroke: #001219;
        stroke-dasharray: 11.9 11.9;
        stroke-linecap: round;
        stroke-linejoin: round;
        stroke-width: 2px;
      }
    </style>
  </defs>
  <g>
    <polygon class="st0" points="0 0 18.6 0 18.6 143.6 0 132.6 0 0"/>
    <g class="st1">
      <path class="st2" d="M13.1,122.1h-7.4v-2.2h.9v1.2h5.7v-1.2h.9v2.2Z"/>
      <path class="st2" d="M10.2,114c0,.2,0,.4-.2.5-.1.1-.3.2-.5.2s-.4,0-.5-.2-.2-.3-.2-.5,0-.4.2-.5c.1-.1.3-.2.5-.2s.4,0,.5.2c.1.1.2.3.2.5Z"/>
      <path class="st2" d="M13.6,107.6h-5.2v.6h-1.1v-1.1h.7v-.3c-.3-.2-.5-.4-.6-.6-.1-.3-.2-.6-.2-1s0-.9.3-1.2c.2-.3.5-.6.8-.7.3-.2.8-.2,1.2-.2s.9,0,1.2.2c.4.2.6.4.8.7.2.3.3.7.3,1.1s0,.6-.2.9c-.1.2-.3.4-.5.6h0s2.5,0,2.5,0v1.1ZM10.9,105.3c0-.4-.1-.7-.4-.9-.2-.2-.6-.3-1-.3s-.8.1-1,.3c-.2.2-.4.5-.4.9s.1.6.3.9c.2.2.5.3.8.3h.5c.4,0,.6-.1.8-.3.2-.2.3-.5.3-.9Z"/>
      <path class="st2" d="M11.8,97.2h-3.4v.6h-1.1v-1.1h.9v-.3c-.3-.1-.5-.3-.7-.6-.2-.3-.2-.6-.2-.9v-.4h1v.4c0,.4.1.7.4.9.2.2.5.3.9.3h2.3v1.1Z"/>
      <path class="st2" d="M11.9,87.1c0,.5,0,.9-.3,1.3-.2.4-.5.6-.8.8-.3.2-.8.3-1.2.3s-.9,0-1.2-.3c-.3-.2-.6-.5-.8-.8-.2-.4-.3-.8-.3-1.3s0-.9.3-1.3c.2-.4.5-.6.8-.8.4-.2.8-.3,1.2-.3s.9,0,1.2.3c.4.2.6.5.8.8.2.4.3.8.3,1.3ZM10.9,87.1c0-.4-.1-.7-.4-.9-.2-.2-.6-.3-1-.3s-.8.1-1,.3c-.2.2-.4.5-.4.9s.1.7.4.9c.2.2.6.3,1,.3s.8-.1,1-.3c.2-.2.4-.5.4-.9Z"/>
      <path class="st2" d="M6.8,78.7c0,.2,0,.3-.2.4s-.3.2-.4.2-.3,0-.4-.2c-.1-.1-.2-.3-.2-.4s0-.3.2-.4c.1-.1.3-.2.4-.2s.3,0,.4.2c.1.1.2.3.2.4ZM13.6,80.1h-.9v-.8h-5.4v-1.1h5.4c.3,0,.5,0,.7.3s.2.4.2.7v1Z"/>
      <path class="st2" d="M11.9,70.5c0,.5,0,.9-.3,1.3-.2.4-.5.6-.8.8-.4.2-.8.3-1.2.3s-.9,0-1.2-.3-.6-.5-.8-.8-.3-.8-.3-1.2,0-.9.3-1.2c.2-.3.4-.6.8-.8.3-.2.7-.3,1.2-.3h.4v3.5c.4,0,.7-.2.9-.4.2-.2.3-.5.3-.9s0-.5-.2-.7c-.1-.2-.3-.3-.5-.4v-1.1c.5.1.8.3,1.1.7s.4.9.4,1.4ZM9,71.7v-2.4c-.3,0-.5.2-.7.4-.2.2-.2.5-.2.8s0,.6.2.8.4.3.7.4Z"/>
      <path class="st2" d="M11.9,60.9c0,.5,0,.9-.3,1.2-.2.4-.5.6-.8.8-.3.2-.8.3-1.2.3s-.9,0-1.2-.3c-.4-.2-.6-.5-.8-.8-.2-.4-.3-.8-.3-1.2s.1-1.1.4-1.4c.3-.4.7-.6,1.2-.7v1.1c-.2,0-.4.2-.5.4-.1.2-.2.4-.2.7s.1.7.4.9c.2.2.6.3,1,.3s.8-.1,1-.3c.2-.2.4-.5.4-.9,0-.6-.2-.9-.8-1.1v-1.1c.5,0,1,.3,1.3.7.3.4.5.9.5,1.5Z"/>
      <path class="st2" d="M11.8,52.2c0,.3,0,.5-.2.7-.2.2-.4.2-.7.2h-2.7v.8h-.9v-.8h-1.3v-1.1h1.3v-1.1h.9v1.1h2.8v-1.2h.9v1.4Z"/>
      <path class="st2" d="M11.9,43.6c0,.7-.1,1.2-.4,1.5s-.7.6-1.1.6v-1.1c.2,0,.4-.1.5-.3.1-.2.2-.4.2-.8,0-.6-.2-.9-.5-.9s-.2,0-.3.1-.1.2-.2.4l-.2,1c-.2.9-.6,1.3-1.2,1.3s-.8-.2-1-.5c-.3-.3-.4-.8-.4-1.4s.1-1.1.4-1.4c.3-.3.6-.5,1.1-.6v1.1c-.2,0-.4.2-.5.3-.1.2-.2.4-.2.7s0,.5.1.6c0,.1.2.2.4.2s.2,0,.3-.1c0,0,.1-.2.2-.4l.2-1c0-.5.2-.8.5-1,.2-.2.5-.3.8-.3s.8.2,1.1.5c.3.3.4.8.4,1.4Z"/>
      <path class="st2" d="M10.2,35.8c0,.2,0,.4-.2.5-.1.1-.3.2-.5.2s-.4,0-.5-.2c-.1-.1-.2-.3-.2-.5s0-.4.2-.5c.1-.1.3-.2.5-.2s.4,0,.5.2c.1.1.2.3.2.5Z"/>
      <path class="st2" d="M13.1,30h-.9v-1.2h-5.7v1.2h-.9v-2.2h7.4v2.2Z"/>
    </g>
    <line class="st3" x1="18.6" y1="1.4" x2="18.6" y2="293.8"/>
  </g>
  <polygon class="st2" points="9.3 0 11.5 6.8 18.6 6.8 12.9 10.9 15 17.7 9.3 13.5 3.6 17.7 5.7 10.9 0 6.8 7.1 6.8 9.3 0"/>
</svg>