<?xml version="1.0" encoding="UTF-8"?>
<svg id="Layer_2" xmlns="http://www.w3.org/2000/svg" version="1.1" viewBox="0 0 37.5 997.6">
  <!-- Generator: Adobe Illustrator 30.0.0, SVG Export Plug-In . SVG Version: 2.1.1 Build 123)  -->
  <defs>
    <style>
      .st0, .st1, .st2 {
        fill: none;
      }

      .st1 {
        stroke-dasharray: 11.9 11.9;
      }

      .st1, .st2 {
        stroke: #cdedf9;
        stroke-linecap: round;
        stroke-linejoin: round;
        stroke-width: 2px;
      }

      .st3 {
        display: none;
      }

      .st3, .st4 {
        fill: #cdedf9;
      }

      .st5 {
        fill: #fff;
      }
    </style>
  </defs>
  <g id="bar">
    <line class="st0" x1="36.5" y1="17" x2="36.5" y2="996.6"/>
    <line class="st2" x1="36.5" y1="17" x2="36.5" y2="23"/>
    <line class="st1" x1="36.5" y1="35" x2="36.5" y2="984.6"/>
    <line class="st2" x1="36.5" y1="990.6" x2="36.5" y2="996.6"/>
    <polygon class="st4" points="1 281.3 1 1 36.5 1 36.5 309.9 1 281.3"/>
    <rect class="st3" x="8.6" y="9.1" width="21.7" height="21.7"/>
    <path class="st5" d="M30.7,241.4H6.8v-7.1h2.8v3.8h18.4v-3.8h2.8v7.1h0Z"/>
    <path class="st5" d="M21.4,223.2c0,.6-.2,1.2-.7,1.6s-1,.7-1.6.7-1.2-.2-1.6-.7c-.4-.4-.7-1-.7-1.6s.2-1.2.7-1.6c.4-.4,1-.7,1.6-.7s1.2.2,1.6.7c.4.4.7,1,.7,1.6Z"/>
    <path class="st5" d="M26.4,212.7l-19.5-8.3v-3.8l19.5-8.3v3.8l-5.1,2.1v8.7l5.1,2.2v3.6h0ZM18.2,205.7v-6.5l-7.6,3.2h0c0,.1,7.6,3.3,7.6,3.3Z"/>
    <path class="st5" d="M26.7,174.6c0,1.2-.2,2.2-.7,3.1-.5.9-1.1,1.5-1.9,2v1h2.3v3.7h-3.6v-1.8H6.1v-3.6h7.9c-.8-.5-1.4-1.2-1.8-1.9s-.6-1.7-.6-2.8.3-2.6.9-3.6,1.5-1.7,2.6-2.3c1.1-.5,2.5-.8,4-.8s2.8.3,4,.8,2,1.3,2.6,2.3.9,2.3.9,3.8h0ZM23.6,175.2c0-1.3-.4-2.3-1.2-3s-1.9-1-3.2-1-2.5.3-3.2,1c-.8.7-1.2,1.6-1.2,3s.3,2.1,1,2.8,1.5,1,2.7,1h1.5c1.1,0,2-.4,2.7-1,.6-.7,1-1.6,1-2.8Z"/>
    <path class="st5" d="M26.7,151.2c0,1.6-.3,2.9-.9,4.1-.6,1.1-1.5,2-2.6,2.7s-2.5.9-4,.9-2.9-.3-4-.9c-1.1-.6-2-1.5-2.6-2.7s-.9-2.5-.9-4.1.3-2.9.9-4.1,1.5-2,2.6-2.6c1.1-.6,2.5-.9,4-.9s2.9.3,4,.9c1.1.6,2,1.5,2.6,2.7.6,1.1.9,2.5.9,4.1h0ZM23.5,151.2c0-1.3-.4-2.3-1.2-3-.8-.7-1.9-1.1-3.2-1.1s-2.5.4-3.2,1.1c-.8.7-1.2,1.7-1.2,3s.4,2.3,1.2,3c.8.7,1.8,1.1,3.2,1.1s2.5-.4,3.2-1.1c.8-.7,1.2-1.7,1.2-3h0Z"/>
    <path class="st5" d="M26.7,127.9c0,2-.5,3.5-1.6,4.6s-2.5,1.6-4.3,1.6h-8.9v-3.6h8.2c1.1,0,2-.3,2.5-.9s.9-1.4.9-2.6-.3-2.1-.9-2.8c-.6-.6-1.5-1-2.6-1h-8.1v-3.6h10.9v-1.8h3.6v3.7h-2.3v1c.8.6,1.5,1.3,1.9,2.1.4.8.7,1.9.7,3.2h0Z"/>
    <path class="st5" d="M26.4,104.2c0,.9-.2,1.7-.7,2.2s-1.2.8-2.2.8h-8.8v2.6h-2.8v-2.6h-4.3v-3.5h4.3v-3.5h2.8v3.4h8.9v-3.8h2.8v4.4Z"/>
    <path class="st5" d="M21.4,88.8c0,.6-.2,1.2-.7,1.6-.4.4-1,.7-1.6.7s-1.2-.2-1.6-.7c-.4-.4-.7-1-.7-1.6s.2-1.2.7-1.6c.4-.4,1-.7,1.6-.7s1.2.2,1.6.7c.4.4.7,1,.7,1.6Z"/>
    <path class="st5" d="M30.7,77.7h-2.8v-3.8H9.6v3.8h-2.8v-7.1h23.9v7.1Z"/>
  </g>
  <polygon class="st5" points="18.7 3.6 23.1 17 37.2 17 25.8 25.3 30.1 38.7 18.7 30.4 7.3 38.7 11.7 25.3 .3 17 14.4 17 18.7 3.6"/>
</svg>