<?xml version="1.0" encoding="UTF-8"?><svg id="Layer_2" xmlns="http://www.w3.org/2000/svg" xmlns:xlink="http://www.w3.org/1999/xlink" viewBox="0 0 37.46 997.59"><defs><radialGradient id="radial-gradient" cx="984.47" cy="-288.42" fx="984.47" fy="-288.42" r="346.34" gradientTransform="translate(7007.08 -477.68) rotate(90) scale(1 -24.17)" gradientUnits="userSpaceOnUse"><stop offset="0" stop-color="#00ffed"/><stop offset="1" stop-color="#0033ad" stop-opacity=".5"/></radialGradient><radialGradient id="radial-gradient-2" cx="633.11" cy="-301.07" fx="633.11" fy="-301.07" r="109.56" gradientTransform="translate(3723.76 -477.68) rotate(90) scale(1 -12.31)" xlink:href="#radial-gradient"/></defs><g id="bar"><line x1="36.46" y1="17" x2="36.46" y2="996.59" style="fill:url(#radial-gradient);"/><line x1="36.46" y1="17" x2="36.46" y2="23" style="fill:none; stroke:#cdedf9; stroke-linecap:round; stroke-linejoin:round; stroke-width:2px;"/><line x1="36.46" y1="34.95" x2="36.46" y2="984.62" style="fill:none; stroke:#cdedf9; stroke-dasharray:11.95 11.95; stroke-linecap:round; stroke-linejoin:round; stroke-width:2px;"/><line x1="36.46" y1="990.59" x2="36.46" y2="996.59" style="fill:none; stroke:#cdedf9; stroke-linecap:round; stroke-linejoin:round; stroke-width:2px;"/><polygon points="1 281.27 1 1 36.46 1 36.46 309.86 1 281.27" style="fill:url(#radial-gradient-2); stroke:#cdedf9; stroke-linecap:round; stroke-linejoin:round; stroke-width:2px;"/><rect x="8.57" y="9.12" width="21.71" height="21.71" style="fill:#cdedf9;"/><path d="M30.74,241.42H6.84v-7.1h2.78v3.84h18.35v-3.84h2.78v7.1Z" style="fill:#cdedf9;"/><path d="M21.42,223.22c0,.63-.22,1.16-.66,1.6-.44.44-.98.66-1.61.66s-1.16-.22-1.61-.66c-.44-.44-.66-.98-.66-1.6s.22-1.16.66-1.61c.44-.44.98-.66,1.61-.66s1.16.22,1.61.66c.44.44.66.98.66,1.61Z" style="fill:#cdedf9;"/><path d="M26.39,212.7l-19.55-8.3v-3.84l19.55-8.26v3.77l-5.12,2.15v8.67l5.12,2.17v3.65ZM18.19,205.72v-6.47l-7.58,3.16v.12l7.58,3.19Z" style="fill:#cdedf9;"/><path d="M26.68,174.56c0,1.21-.23,2.24-.68,3.09-.45.85-1.09,1.53-1.93,2.03v1.01h2.32v3.69h-3.6v-1.79H6.12v-3.6h7.89v-.1c-.77-.43-1.36-1.05-1.77-1.83s-.62-1.73-.62-2.82c0-1.38.31-2.57.93-3.55.62-.98,1.49-1.73,2.62-2.26,1.13-.52,2.46-.78,3.98-.78s2.84.27,3.97.8c1.13.53,2.01,1.31,2.63,2.33.62,1.02.93,2.28.93,3.78ZM23.57,175.21c0-1.3-.39-2.29-1.17-2.96s-1.86-1-3.25-1-2.47.33-3.25,1c-.78.67-1.17,1.65-1.17,2.96,0,1.14.33,2.06.98,2.75.65.69,1.54,1.04,2.67,1.04h1.54c1.13,0,2.02-.35,2.67-1.04.65-.69.98-1.61.98-2.75Z" style="fill:#cdedf9;"/><path d="M26.68,151.21c0,1.56-.31,2.92-.93,4.07-.62,1.15-1.49,2.04-2.62,2.68s-2.45.95-3.98.95-2.88-.32-4.01-.95c-1.13-.64-2-1.53-2.61-2.69s-.92-2.51-.92-4.06.31-2.93.92-4.07,1.48-2.02,2.61-2.64c1.13-.63,2.46-.94,4.01-.94s2.86.31,4,.94c1.13.63,2.01,1.51,2.62,2.66.61,1.14.92,2.49.92,4.06ZM23.55,151.21c0-1.29-.39-2.29-1.17-2.99-.78-.71-1.85-1.06-3.22-1.06s-2.46.35-3.23,1.06c-.77.71-1.16,1.71-1.16,2.99s.39,2.31,1.16,3.03c.77.72,1.84,1.07,3.21,1.07s2.47-.36,3.25-1.07c.78-.72,1.17-1.73,1.17-3.03Z" style="fill:#cdedf9;"/><path d="M26.66,127.94c0,1.98-.53,3.5-1.58,4.57-1.05,1.07-2.48,1.61-4.29,1.61h-8.88v-3.6h8.16c1.13,0,1.98-.29,2.55-.87.57-.58.86-1.44.86-2.58,0-1.21-.31-2.13-.92-2.78-.61-.64-1.47-.97-2.58-.97h-8.06v-3.6h10.89v-1.81h3.6v3.69h-2.32v1.01c.84.56,1.48,1.27,1.92,2.11.44.84.66,1.91.66,3.2Z" style="fill:#cdedf9;"/><path d="M26.39,104.17c0,.95-.24,1.69-.72,2.21-.48.52-1.21.78-2.2.78h-8.76v2.56h-2.8v-2.58h-4.34v-3.52h4.34v-3.5h2.8v3.45h8.86v-3.79h2.82v4.39Z" style="fill:#cdedf9;"/><path d="M21.42,88.81c0,.63-.22,1.16-.66,1.6-.44.44-.98.66-1.61.66s-1.16-.22-1.61-.66c-.44-.44-.66-.98-.66-1.6s.22-1.16.66-1.61c.44-.44.98-.66,1.61-.66s1.16.22,1.61.66c.44.44.66.98.66,1.61Z" style="fill:#cdedf9;"/><path d="M30.72,77.71h-2.78v-3.84H9.62v3.84h-2.78v-7.1h23.88v7.1Z" style="fill:#cdedf9;"/></g></svg>