<?xml version="1.0" encoding="UTF-8"?><svg id="Layer_2" xmlns="http://www.w3.org/2000/svg" viewBox="0 0 18.6 177.63"><g id="Layer_2-2"><line x1="17.56" y1="2.63" x2="17.55" y2="176.63" style="fill:none; stroke:#001219; stroke-linecap:round; stroke-linejoin:round; stroke-width:2px;"/><rect width="18.6" height="128.01" style="fill:#001219;"/><path d="M14.39,124.89H4.49v-2.94h1.15v1.59h7.6v-1.59h1.15v2.94Z" style="fill:#fff;"/><path d="M10.53,117.35c0,.26-.09.48-.27.67-.18.18-.41.27-.67.27s-.48-.09-.67-.27c-.18-.18-.27-.41-.27-.67s.09-.48.27-.67c.18-.18.41-.28.67-.28s.48.09.67.28c.18.18.27.41.27.67Z" style="fill:#fff;"/><path d="M12.73,108.48c0,.82-.17,1.54-.52,2.16-.34.62-.83,1.09-1.46,1.43-.63.34-1.36.5-2.21.5s-1.58-.17-2.21-.5c-.63-.34-1.11-.81-1.46-1.43-.34-.62-.52-1.33-.52-2.16,0-.66.11-1.24.33-1.75.22-.5.54-.92.96-1.24.42-.33.92-.54,1.5-.63v1.57c-.45.09-.81.32-1.06.67-.25.36-.38.82-.38,1.38,0,.8.25,1.43.75,1.89s1.2.69,2.08.69,1.58-.23,2.08-.69.75-1.09.75-1.89c0-.56-.12-1.02-.38-1.38-.25-.36-.6-.58-1.06-.67v-1.57c.58.09,1.08.3,1.5.63.42.33.73.74.96,1.24.22.5.33,1.08.33,1.75Z" style="fill:#fff;"/><path d="M12.71,98.28c0,.65-.13,1.21-.39,1.68-.26.47-.62.84-1.09,1.09s-1.02.38-1.67.38-1.19-.13-1.65-.38c-.46-.25-.82-.61-1.07-1.08s-.38-1.01-.38-1.64.12-1.14.35-1.58c.24-.44.58-.78,1.02-1.02.44-.24.97-.36,1.58-.36h.52v4.62c.51-.05.9-.23,1.17-.53s.4-.69.4-1.18c0-.37-.07-.67-.21-.9-.14-.23-.34-.39-.61-.49v-1.5c.63.14,1.13.46,1.48.97.36.5.54,1.14.54,1.9ZM8.93,99.97v-3.16c-.41.06-.73.22-.94.48-.22.26-.33.61-.33,1.05s.11.79.33,1.07c.22.28.53.47.94.56Z" style="fill:#fff;"/><path d="M12.59,90.95h-4.51v.74h-1.49v-1.52h1.16v-.42c-.4-.17-.7-.42-.91-.77-.21-.35-.31-.74-.31-1.19v-.5h1.28v.57c0,.54.16.94.47,1.21.31.27.73.4,1.25.4h3.06v1.47Z" style="fill:#fff;"/><path d="M12.59,81.69c0,.39-.1.7-.3.92-.2.22-.5.33-.91.33h-3.63v1.06h-1.16v-1.07h-1.8v-1.46h1.8v-1.45h1.16v1.43h3.67v-1.57h1.17v1.82Z" style="fill:#fff;"/><path d="M5.93,75.26c0,.23-.08.43-.24.6-.16.16-.36.24-.6.24s-.43-.08-.6-.24c-.16-.16-.24-.36-.24-.6s.08-.43.24-.59c.16-.16.36-.25.6-.25s.43.08.6.25c.16.16.24.36.24.59ZM12.59,76h-6v-1.49h6v1.49Z" style="fill:#fff;"/><path d="M12.59,69.59h-4.84v1.12h-1.16v-1.13h-1.17c-.42,0-.73-.11-.93-.33-.2-.22-.3-.54-.3-.94v-1.7h1.16v1.51h1.24v-1.39h1.16v1.37h4.84v1.49Z" style="fill:#fff;"/><path d="M5.93,62.18c0,.23-.08.43-.24.6-.16.16-.36.24-.6.24s-.43-.08-.6-.24c-.16-.16-.24-.36-.24-.6s.08-.43.24-.59c.16-.16.36-.25.6-.25s.43.08.6.25c.16.16.24.36.24.59ZM12.59,62.92h-6v-1.49h6v1.49Z" style="fill:#fff;"/><path d="M12.71,54.33c0,.62-.13,1.16-.39,1.63-.26.47-.62.83-1.08,1.09-.47.26-1.02.39-1.65.39s-1.18-.13-1.65-.38-.83-.62-1.08-1.08c-.26-.47-.39-1.01-.39-1.64,0-.77.2-1.41.58-1.92.39-.51.93-.83,1.62-.96v1.49c-.3.1-.53.27-.68.5s-.23.53-.23.89c0,.49.16.89.47,1.18.32.29.77.44,1.35.44s1.03-.15,1.35-.44c.32-.29.47-.69.47-1.18,0-.77-.33-1.25-1-1.42v-1.5c.73.13,1.29.44,1.7.95s.6,1.16.6,1.97Z" style="fill:#fff;"/><path d="M12.7,45.83c0,.7-.17,1.25-.51,1.64-.34.4-.79.59-1.35.59s-1.04-.2-1.36-.6c-.32-.4-.48-.99-.48-1.75v-1.83h-.24c-.73,0-1.1.43-1.1,1.28,0,.72.26,1.16.78,1.31v1.49c-.64-.12-1.13-.42-1.47-.91-.34-.48-.5-1.12-.5-1.89,0-.88.2-1.55.6-2.01.4-.46.98-.69,1.73-.69h2.3v-.71h1.49v1.53h-.96v.42c.34.21.6.48.79.83.19.35.28.78.28,1.29ZM11.55,45.61c0-.33-.06-.62-.19-.88-.12-.26-.29-.46-.5-.62-.21-.15-.44-.22-.71-.22h-.14v1.75c0,.67.25,1.01.75,1.01.25,0,.44-.09.57-.27.14-.18.21-.44.21-.77Z" style="fill:#fff;"/><path d="M12.59,36.06c0,.39-.1.7-.3.92-.2.22-.5.33-.91.33h-3.63v1.06h-1.16v-1.07h-1.8v-1.46h1.8v-1.45h1.16v1.43h3.67v-1.57h1.17v1.82Z" style="fill:#fff;"/><path d="M12.71,27.59c0,.65-.13,1.21-.39,1.68-.26.47-.62.84-1.09,1.09s-1.02.38-1.67.38-1.19-.13-1.65-.38c-.46-.25-.82-.61-1.07-1.08s-.38-1.01-.38-1.64.12-1.14.35-1.58c.24-.44.58-.78,1.02-1.02.44-.24.97-.36,1.58-.36h.52v4.62c.51-.05.9-.23,1.17-.53s.4-.69.4-1.18c0-.37-.07-.67-.21-.9-.14-.23-.34-.39-.61-.49v-1.5c.63.14,1.13.46,1.48.97.36.5.54,1.14.54,1.9ZM8.93,29.28v-3.16c-.41.06-.73.22-.94.48-.22.26-.33.61-.33,1.05s.11.79.33,1.07c.22.28.53.47.94.56Z" style="fill:#fff;"/><path d="M12.71,18.2c0,.87-.18,1.55-.54,2.05s-.87.77-1.53.81v-1.45c.31-.05.55-.19.7-.43s.23-.59.23-1.04c0-.77-.22-1.15-.67-1.15-.18,0-.32.06-.42.17-.1.12-.18.31-.23.58l-.25,1.32c-.23,1.17-.78,1.76-1.66,1.76-.57,0-1.02-.22-1.36-.67-.34-.45-.5-1.06-.5-1.85s.17-1.41.52-1.88c.34-.46.83-.72,1.46-.78v1.44c-.3.07-.52.21-.66.42-.14.2-.2.5-.2.88,0,.34.05.6.16.78.11.18.26.27.47.27.15,0,.28-.06.37-.17.09-.11.16-.29.21-.54l.26-1.35c.12-.61.32-1.06.6-1.35.28-.29.66-.43,1.13-.43.61,0,1.08.22,1.42.67.34.45.51,1.09.51,1.93Z" style="fill:#fff;"/><path d="M10.53,11c0,.26-.09.48-.27.67-.18.18-.41.27-.67.27s-.48-.09-.67-.27c-.18-.18-.27-.41-.27-.67s.09-.48.27-.67c.18-.18.41-.28.67-.28s.48.09.67.28c.18.18.27.41.27.67Z" style="fill:#fff;"/><path d="M14.38,6.4h-1.15v-1.59h-7.59v1.59h-1.15v-2.94h9.89v2.94Z" style="fill:#fff;"/></g></svg>