<?xml version="1.0" encoding="UTF-8"?>
<svg id="photo-section-bar" xmlns="http://www.w3.org/2000/svg" version="1.1" viewBox="0 0 37.5 997.6">
  <!-- Generator: Adobe Illustrator 30.3.0, SVG Export Plug-In . SVG Version: 2.1.3 Build 182)  -->
  <defs>
    <style>
      .st0, .st1, .st2 {
        fill: none;
      }

      .st1, .st2 {
        stroke: #001219;
        stroke-linecap: round;
        stroke-linejoin: round;
        stroke-width: 2px;
      }

      .st3 {
        fill: #001219;
      }

      .st4, .st5 {
        isolation: isolate;
      }

      .st6, .st5 {
        fill: #fff;
      }

      .st5 {
        font-family: Courier-Bold, Courier;
        font-size: 20px;
        font-weight: 700;
      }

      .st2 {
        stroke-dasharray: 11.9 11.9;
      }
    </style>
  </defs>
  <line class="st0" x1="36.5" y1="17" x2="36.5" y2="996.6"/>
  <line class="st2" x1="36.5" y1="1" x2="36.5" y2="983.6"/>
  <line class="st1" x1="36.5" y1="990.6" x2="36.5" y2="996.6"/>
  <polygon class="st3" points="0 0 35.8 0 35.8 310.9 0 278.3 0 0"/>
  <polygon class="st6" points="17.9 0 22.1 13 35.8 13 24.7 21 28.9 34 17.9 26 6.8 34 11.1 21 0 13 13.7 13 17.9 0"/>
  <g class="st4">
    <path class="st6" d="M29.1,248.3H9.1v-6h2.3v3.2h15.4v-3.2h2.3v6Z"/>
    <path class="st6" d="M21.3,233.1c0,.5-.2,1-.6,1.3-.4.4-.8.6-1.3.6s-1-.2-1.3-.6c-.4-.4-.6-.8-.6-1.3s.2-1,.6-1.3c.4-.4.8-.6,1.3-.6s1,.2,1.3.6c.4.4.6.8.6,1.3Z"/>
    <path class="st6" d="M25.8,215.1c0,1.7-.3,3.1-1,4.4-.7,1.2-1.7,2.2-2.9,2.9-1.3.7-2.8,1-4.5,1s-3.2-.3-4.5-1c-1.3-.7-2.3-1.6-2.9-2.9s-1-2.7-1-4.4.2-2.5.7-3.5c.4-1,1.1-1.9,1.9-2.5.8-.7,1.9-1.1,3-1.3v3.2c-.9.2-1.6.6-2.1,1.4-.5.7-.8,1.7-.8,2.8,0,1.6.5,2.9,1.5,3.8,1,.9,2.4,1.4,4.2,1.4s3.2-.5,4.2-1.4c1-.9,1.5-2.2,1.5-3.8s-.3-2.1-.8-2.8-1.2-1.2-2.2-1.4v-3.2c1.2.2,2.2.6,3,1.3.8.7,1.5,1.5,1.9,2.5.4,1,.7,2.2.7,3.5Z"/>
    <path class="st6" d="M25.7,194.4c0,1.3-.3,2.4-.8,3.4-.5,1-1.3,1.7-2.2,2.2-.9.5-2.1.8-3.3.8s-2.4-.3-3.4-.8c-.9-.5-1.7-1.3-2.2-2.3-.5-1-.8-2.1-.8-3.4s.3-2.5.8-3.4c.5-1,1.2-1.7,2.2-2.2.9-.5,2.1-.8,3.4-.8s2.4.3,3.4.8c1,.5,1.7,1.3,2.2,2.2s.8,2.1.8,3.4ZM23.1,194.4c0-1.1-.3-1.9-1-2.5-.7-.6-1.6-.9-2.7-.9s-2.1.3-2.7.9c-.6.6-1,1.4-1,2.5s.3,1.9,1,2.5c.6.6,1.5.9,2.7.9s2.1-.3,2.7-.9c.7-.6,1-1.4,1-2.5Z"/>
    <path class="st6" d="M25.5,179.2h-9.1v1.5h-3v-3.1h1.9v-.9c-.7-.5-1.2-1-1.6-1.8-.4-.7-.6-1.6-.6-2.6,0-1.7.5-2.9,1.4-3.9.9-.9,2.1-1.4,3.7-1.4h7.3v3h-6.8c-1,0-1.7.3-2.2.8-.5.5-.8,1.3-.8,2.3s.2,1.7.8,2.2c.5.5,1.2.8,2.2.8h6.8v3Z"/>
    <path class="st6" d="M25.5,154.9c0,.8-.2,1.4-.6,1.9s-1,.7-1.8.7h-7.4v2.1h-2.3v-2.2h-3.6v-3h3.6v-2.9h2.3v2.9h7.4v-3.2h2.4v3.7Z"/>
    <path class="st6" d="M25.7,139.6c0,1.4-.3,2.5-1,3.3-.7.8-1.6,1.2-2.7,1.2s-2.1-.4-2.8-1.2c-.6-.8-1-2-1-3.5v-3.7h-.5c-1.5,0-2.2.9-2.2,2.6s.5,2.3,1.6,2.7v3c-1.3-.2-2.3-.9-3-1.8-.7-1-1-2.3-1-3.8s.4-3.1,1.2-4.1c.8-.9,2-1.4,3.5-1.4h4.7v-1.4h3v3.1h-1.9v.9c.7.4,1.2,1,1.6,1.7.4.7.6,1.6.6,2.6ZM23.4,139.2c0-.7-.1-1.3-.4-1.8-.2-.5-.6-.9-1-1.2s-.9-.5-1.4-.5h-.3v3.5c0,1.4.5,2,1.5,2s.9-.2,1.2-.6c.3-.4.4-.9.4-1.5Z"/>
    <path class="st6" d="M25.7,117.8c0,1.3-.3,2.4-.8,3.3-.5.9-1.3,1.7-2.2,2.2-.9.5-2.1.8-3.3.8s-2.4-.3-3.3-.8c-.9-.5-1.7-1.3-2.2-2.2-.5-.9-.8-2.1-.8-3.3s.4-2.9,1.2-3.9c.8-1,1.9-1.7,3.3-1.9v3c-.6.2-1.1.5-1.4,1s-.5,1.1-.5,1.8.3,1.8,1,2.4c.6.6,1.5.9,2.7.9s2.1-.3,2.7-.9c.6-.6,1-1.4,1-2.4,0-1.6-.7-2.5-2-2.9v-3c1.5.3,2.6.9,3.4,1.9.8,1,1.2,2.4,1.2,4Z"/>
    <path class="st6" d="M25.5,100.9c0,.8-.2,1.4-.6,1.9s-1,.7-1.8.7h-7.4v2.1h-2.3v-2.2h-3.6v-3h3.6v-2.9h2.3v2.9h7.4v-3.2h2.4v3.7Z"/>
    <path class="st6" d="M21.3,82.2c0,.5-.2,1-.6,1.3-.4.4-.8.6-1.3.6s-1-.2-1.3-.6c-.4-.4-.6-.8-.6-1.3s.2-1,.6-1.3c.4-.4.8-.6,1.3-.6s1,.2,1.3.6c.4.4.6.8.6,1.3Z"/>
    <path class="st6" d="M29.1,72.8h-2.3v-3.2h-15.4v3.2h-2.3v-6h20v6Z"/>
  </g>
</svg>