<?xml version="1.0" encoding="UTF-8"?><svg id="Layer_2" xmlns="http://www.w3.org/2000/svg" xmlns:xlink="http://www.w3.org/1999/xlink" viewBox="0 0 197.81 206.19"><defs><radialGradient id="radial-gradient" cx="94.9" cy="77.57" fx="94.9" fy="77.57" r="63.9" gradientUnits="userSpaceOnUse"><stop offset="0" stop-color="#046e23"/><stop offset="1" stop-color="#00333a" stop-opacity=".5"/></radialGradient></defs><g id="laugh"><path d="M35.68,16.22s-10.7,49.83,0,121.07c0,0,65.7,9.23,119.59,0,0,0,8.12-50.94,0-121.07,0,0-83.42-5.54-119.59,0Z" style="fill:url(#radial-gradient); stroke:#cdedf9; stroke-linecap:round; stroke-linejoin:round; stroke-width:2px;"/><path d="M22.86,13.76s61.14-28.71,144.31,0c0,0,2.96,107.54-8.3,142.3,0,0-47.25,17.38-124.84,0,0,0-19.24-80.54-11.17-142.3Z" style="fill:none; stroke:#cdedf9; stroke-linecap:round; stroke-linejoin:round; stroke-width:2px;"/><g id="leg-1"><path d="M77.65,162.8s1.55,20.21,9.6,42.4c0,0,10.05-1.54,10.03-4.32s-5.17-14.23-13.58-37.1" style="fill:none; stroke:#cdedf9; stroke-linecap:round; stroke-linejoin:round; stroke-width:2px;"/><path d="M71.89,163.78s2.72,30.44,6.72,38.06l8.64,3.36" style="fill:none; stroke:#cdedf9; stroke-linecap:round; stroke-linejoin:round; stroke-width:2px;"/></g><g id="leg-2"><path d="M112.64,164.46s-1.89,13.69-7.89,28.95c0,0-7.49-1.05-7.47-2.97s4.01-11.02,10.28-26.75" style="fill:none; stroke:#cdedf9; stroke-linecap:round; stroke-linejoin:round; stroke-width:2px;"/><path d="M117.06,163.78s-2.89,22.08-5.87,27.31l-6.44,2.31" style="fill:none; stroke:#cdedf9; stroke-linecap:round; stroke-linejoin:round; stroke-width:2px;"/></g><path d="M167.52,101.09s26.85,8.12,26.19,17.6-30.71,17.67-30.71,17.67" style="fill:none; stroke:#cdedf9; stroke-linecap:round; stroke-linejoin:round; stroke-width:2px;"/><path d="M166.2,109.49s22.56,5.58-.7,17.75" style="fill:none; stroke:#cdedf9; stroke-linecap:round; stroke-linejoin:round; stroke-width:2px;"/><path d="M160.75,149.28s16.52,6.27,19.88,4.4,2.41-4.24,2.41-4.24c0,0,13.97-8.51,13.76-13.21s-1.3-13.5-3.09-17.54" style="fill:none; stroke:#cdedf9; stroke-linecap:round; stroke-linejoin:round; stroke-width:2px;"/><path d="M166.2,116.03s6.3,2.04,5.24,7.56" style="fill:none; stroke:#cdedf9; stroke-linecap:round; stroke-linejoin:round; stroke-width:2px;"/><path d="M24.76,102.53S-.21,114.33,1.54,123.57s27.31,13.44,27.31,13.44" style="fill:none; stroke:#cdedf9; stroke-linecap:round; stroke-linejoin:round; stroke-width:2px;"/><path d="M24.76,109.2s-16.71,10.6,2.79,18.71" style="fill:none; stroke:#cdedf9; stroke-linecap:round; stroke-linejoin:round; stroke-width:2px;"/><path d="M30.92,148.21s-11.9,8.95-14.73,7.67-2.41-3.77-2.41-3.77c0,0-11.87-6.05-12.32-10.72s-.76-13.52.09-17.81" style="fill:none; stroke:#cdedf9; stroke-linecap:round; stroke-linejoin:round; stroke-width:2px;"/><path d="M23.89,124.92s.22-5.33,3.06-6.37" style="fill:none; stroke:#cdedf9; stroke-linecap:round; stroke-linejoin:round; stroke-width:2px;"/><path d="M42.51,46.98s12.95-5.17,37.06,5.17c0,0,6.34,2.17,0-4.89" style="fill:none; stroke:#cdedf9; stroke-linecap:round; stroke-linejoin:round; stroke-width:2px;"/><path d="M97.28,41.55s2.05,1.09,2.87,0,14.41-29.09,24.47-16.86" style="fill:none; stroke:#cdedf9; stroke-linecap:round; stroke-linejoin:round; stroke-width:2px;"/><line x1="98.79" y1="52.46" x2="131.96" y2="45.69" style="fill:none; stroke:#cdedf9; stroke-linecap:round; stroke-linejoin:round; stroke-width:2px;"/><path d="M51.21,59.49s14.85-4.89,28.36-4.08" style="fill:none; stroke:#cdedf9; stroke-linecap:round; stroke-linejoin:round; stroke-width:2px;"/><path d="M106.94,67.92s15.22-3.26,25.01-5.71" style="fill:none; stroke:#cdedf9; stroke-linecap:round; stroke-linejoin:round; stroke-width:2px;"/><line x1="51.21" y1="71.45" x2="77.65" y2="69.82" style="fill:none; stroke:#cdedf9; stroke-linecap:round; stroke-linejoin:round; stroke-width:2px;"/><ellipse cx="68.64" cy="62.98" rx="3.25" ry="7.66" style="fill:#cdedf9;"/><ellipse cx="117.06" cy="57.4" rx="3.25" ry="7.66" style="fill:#cdedf9;"/><path d="M59.37,84.77s15.5,53.02,50.3,44.59,25.01-61.44,25.01-61.44" style="fill:none; stroke:#cdedf9; stroke-linecap:round; stroke-linejoin:round; stroke-width:2px;"/><path d="M60.9,89.26s25.95,6.1,58.83-9.49c4.81-2.28,9.76-5.02,14.81-8.32,3.04-1.98-7.75-3.53-7.75-3.53h15.5" style="fill:none; stroke:#cdedf9; stroke-linecap:round; stroke-linejoin:round; stroke-width:2px;"/><path d="M124.62,121.74s1.04-19.61-4.89-41.97" style="fill:none; stroke:#cdedf9; stroke-linecap:round; stroke-linejoin:round; stroke-width:2px;"/><path d="M100.02,87s4.18,7.37,12.62,40.91" style="fill:none; stroke:#cdedf9; stroke-linecap:round; stroke-linejoin:round; stroke-width:2px;"/><path d="M77.65,90.44s3.13,16.2,11.86,36.81" style="fill:none; stroke:#cdedf9; stroke-linecap:round; stroke-linejoin:round; stroke-width:2px;"/><line x1="139.02" y1="57.4" x2="136.85" y2="62.98" style="fill:none; stroke:#cdedf9; stroke-linecap:round; stroke-linejoin:round; stroke-width:2px;"/><line x1="147.45" y1="55.32" x2="143.65" y2="62.98" style="fill:none; stroke:#cdedf9; stroke-linecap:round; stroke-linejoin:round; stroke-width:2px;"/></g></svg>