<?xml version="1.0" encoding="UTF-8"?><svg id="Layer_2" xmlns="http://www.w3.org/2000/svg" xmlns:xlink="http://www.w3.org/1999/xlink" viewBox="0 0 207.55 410.66"><defs><clipPath id="clippath"><rect x="70.35" y="384.46" width="79.21" height="20.27" style="fill:none; stroke:#cdedf9; stroke-linecap:round; stroke-linejoin:round; stroke-width:2px;"/></clipPath></defs><g id="Layer_1-2"><path d="M13.73,409.34h184.05c0-133.12,0-266.23,0-399.35l-7.77-8.71c-52.81-.65-70.27,0-97.98,0-3.37,0-7.05,7.11-10.42,7.11-17.58,0-35.15,0-52.73,0-3.68,0-7.04-7.11-10.72-7.11-4.09,0-8.18,0-12.27,0v396.55l7.83,11.5Z" style="fill:none; stroke:#cdedf9; stroke-linecap:round; stroke-linejoin:round; stroke-width:2px;"/><polygon points="5.89 117.36 0 125.44 0 268.15 5.89 277.23 5.89 117.36" style="fill:#cdedf9;"/><polygon points="197.78 409.34 207.55 400.69 207.55 309.48 198.5 300.43 197.78 409.34" style="fill:#cdedf9;"/><rect x="5.89" y="15.32" width="191.88" height="8.75" style="fill:#cdedf9;"/><rect x="5.89" y="33.09" width="191.88" height="8.75" style="fill:#cdedf9;"/><line x1="14.17" y1="45.63" x2="14.17" y2="394.6" style="fill:none; stroke:#cdedf9; stroke-linecap:round; stroke-linejoin:round; stroke-width:2px;"/><line x1="18.97" y1="45.63" x2="18.97" y2="46.13" style="fill:none; stroke:#cdedf9; stroke-linecap:round; stroke-linejoin:round; stroke-width:2px;"/><line x1="18.97" y1="51.23" x2="18.97" y2="60.93" style="fill:none; stroke:#cdedf9; stroke-dasharray:1.02 5.1 1.02 5.1; stroke-linecap:round; stroke-linejoin:round; stroke-width:2px;"/><line x1="18.97" y1="63.48" x2="18.97" y2="391.55" style="fill:none; stroke:#cdedf9; stroke-dasharray:1.02 5.1 1.02 5.1 1.02 5.1; stroke-linecap:round; stroke-linejoin:round; stroke-width:2px;"/><line x1="18.97" y1="394.1" x2="18.97" y2="394.6" style="fill:none; stroke:#cdedf9; stroke-linecap:round; stroke-linejoin:round; stroke-width:2px;"/><line x1="18.97" y1="204.83" x2="26.84" y2="204.83" style="fill:none; stroke:#cdedf9; stroke-linecap:round; stroke-linejoin:round; stroke-width:2px;"/><line x1="18.97" y1="241.49" x2="26.84" y2="241.49" style="fill:none; stroke:#cdedf9; stroke-linecap:round; stroke-linejoin:round; stroke-width:2px;"/><line x1="18.97" y1="168.17" x2="26.84" y2="168.17" style="fill:none; stroke:#cdedf9; stroke-linecap:round; stroke-linejoin:round; stroke-width:2px;"/><line x1="164.33" y1="341.05" x2="190.91" y2="341.05" style="fill:none; stroke:#cdedf9; stroke-linecap:round; stroke-linejoin:round; stroke-width:2px;"/><line x1="164.33" y1="337.02" x2="190.91" y2="337.02" style="fill:none; stroke:#cdedf9; stroke-linecap:round; stroke-linejoin:round; stroke-width:2px;"/><line x1="164.33" y1="332.98" x2="190.91" y2="332.98" style="fill:none; stroke:#cdedf9; stroke-linecap:round; stroke-linejoin:round; stroke-width:2px;"/><line x1="184.9" y1="28.71" x2="192.77" y2="28.71" style="fill:none; stroke:#cdedf9; stroke-linecap:round; stroke-linejoin:round; stroke-width:2px;"/><line x1="56.33" y1="403.58" x2="65.22" y2="403.58" style="fill:none; stroke:#cdedf9; stroke-linecap:round; stroke-linejoin:round; stroke-width:2px;"/><line x1="56.33" y1="399.54" x2="65.22" y2="399.54" style="fill:none; stroke:#cdedf9; stroke-linecap:round; stroke-linejoin:round; stroke-width:2px;"/><line x1="56.33" y1="395.51" x2="65.22" y2="395.51" style="fill:none; stroke:#cdedf9; stroke-linecap:round; stroke-linejoin:round; stroke-width:2px;"/><text transform="translate(153.03 349.31) scale(2.34 1)" style="fill:#cdedf9; font-family:DINCondensed-Bold, &apos;DIN Condensed&apos;; font-size:5.66px; font-weight:700;"><tspan x="0" y="0">01000010</tspan><tspan x="0" y="6.79">01110010</tspan><tspan x="0" y="13.57">01100001</tspan><tspan x="0" y="20.36">01101110</tspan><tspan x="0" y="27.14">01100100</tspan><tspan x="0" y="33.93">00100000</tspan><tspan x="0" y="40.72">01000100</tspan><tspan x="0" y="47.5">01001110</tspan><tspan x="0" y="54.29">01000001</tspan></text><polygon points="179.73 45.63 192.77 45.63 192.77 58.67 179.73 45.63" style="fill:#cdedf9;"/><g style="clip-path:url(#clippath);"><rect x="131.11" y="390.88" width="37.99" height="7.43" transform="translate(-235.06 221.72) rotate(-45)" style="fill:#cdedf9;"/><rect x="115.05" y="390.88" width="37.99" height="7.43" transform="translate(-239.77 210.36) rotate(-45)" style="fill:#cdedf9;"/><rect x="98.98" y="390.88" width="37.99" height="7.43" transform="translate(-244.47 199) rotate(-45)" style="fill:#cdedf9;"/><rect x="82.92" y="390.88" width="37.99" height="7.43" transform="translate(-249.17 187.64) rotate(-45)" style="fill:#cdedf9;"/><rect x="66.86" y="390.88" width="37.99" height="7.43" transform="translate(-253.88 176.29) rotate(-45)" style="fill:#cdedf9;"/><rect x="50.8" y="390.88" width="37.99" height="7.43" transform="translate(-258.58 164.93) rotate(-45)" style="fill:#cdedf9;"/></g><rect x="70.35" y="384.46" width="79.21" height="20.27" style="fill:none; stroke:#cdedf9; stroke-linecap:round; stroke-linejoin:round; stroke-width:2px;"/></g></svg>