<?xml version="1.0" encoding="UTF-8"?><svg id="Layer_2" xmlns="http://www.w3.org/2000/svg" xmlns:xlink="http://www.w3.org/1999/xlink" viewBox="0 0 203.29 283.12"><defs><clipPath id="clippath"><rect x="1" y="236.45" width="201.29" height="45.67" style="fill:none; stroke:#cdedf9; stroke-linecap:round; stroke-linejoin:round; stroke-width:2px;"/></clipPath><clipPath id="clippath-1"><rect x="1.47" y="1" width="200.34" height="45.72" style="fill:none; stroke:#cdedf9; stroke-linecap:round; stroke-linejoin:round; stroke-width:2px;"/></clipPath></defs><g id="dnatitle"><g id="bottom"><g style="clip-path:url(#clippath);"><polygon points="162.86 283.64 231.13 223.12 244.48 234.96 176.21 295.47 162.86 283.64" style="fill:#cdedf9;"/><polygon points="122.03 283.63 190.3 223.11 203.65 234.95 135.38 295.47 122.03 283.63" style="fill:#cdedf9;"/><polygon points="81.21 283.64 149.48 223.12 162.83 234.95 94.56 295.47 81.21 283.64" style="fill:#cdedf9;"/><polygon points="40.41 283.63 108.67 223.11 122.03 234.95 53.76 295.46 40.41 283.63" style="fill:#cdedf9;"/><polygon points="-.42 283.64 67.85 223.12 81.2 234.96 12.93 295.48 -.42 283.64" style="fill:#cdedf9;"/><polygon points="-41.22 283.63 27.04 223.11 40.39 234.95 -27.87 295.47 -41.22 283.63" style="fill:#cdedf9;"/></g><rect x="1" y="236.45" width="201.29" height="45.67" style="fill:none; stroke:#cdedf9; stroke-linecap:round; stroke-linejoin:round; stroke-width:2px;"/></g><path d="M66.6,57.77c-.78,0-1.44-.27-1.99-.82s-.82-1.21-.82-1.99.27-1.44.82-1.99c.55-.54,1.21-.82,1.99-.82s1.44.27,1.99.82c.55.55.82,1.21.82,1.99s-.27,1.44-.82,1.99-1.21.82-1.99.82ZM64.13,80.01v-20.04h4.98v20.04h-4.98Z" style="fill:#cdedf9; stroke:#cdedf9; stroke-miterlimit:10;"/><path d="M80.26,80.38c-2.34,0-4.17-.57-5.49-1.7s-1.99-2.64-1.99-4.51.67-3.47,2.02-4.54c1.35-1.07,3.29-1.6,5.83-1.6h6.11v-.8c0-2.45-1.43-3.67-4.27-3.67-2.4,0-3.86.87-4.37,2.61h-4.98c.4-2.14,1.41-3.77,3.02-4.89,1.61-1.12,3.72-1.69,6.33-1.69,2.94,0,5.18.66,6.71,1.99,1.54,1.32,2.3,3.26,2.3,5.79v7.68h2.37v4.98h-5.11v-3.21h-1.4c-.69,1.14-1.62,2.02-2.79,2.64-1.17.62-2.6.94-4.29.94ZM80.99,76.54c1.09,0,2.07-.21,2.94-.62.87-.41,1.55-.97,2.05-1.67.5-.7.75-1.49.75-2.35v-.47h-5.84c-2.25,0-3.37.83-3.37,2.5,0,.82.31,1.46.92,1.92.61.46,1.46.68,2.55.68Z" style="fill:#cdedf9; stroke:#cdedf9; stroke-miterlimit:10;"/><path d="M97.69,80.01v-28.05h4.98v28.05h-4.98Z" style="fill:#cdedf9; stroke:#cdedf9; stroke-miterlimit:10;"/><path d="M117.02,80.41c-2.16,0-4.04-.43-5.63-1.29-1.59-.86-2.83-2.06-3.71-3.62-.88-1.56-1.32-3.39-1.32-5.51s.44-3.99,1.32-5.54c.88-1.56,2.12-2.76,3.72-3.61,1.6-.85,3.47-1.27,5.61-1.27s4.06.42,5.63,1.27c1.57.85,2.79,2.05,3.66,3.61.87,1.56,1.3,3.41,1.3,5.54s-.43,3.96-1.3,5.53c-.87,1.57-2.09,2.78-3.67,3.62-1.58.85-3.45,1.27-5.61,1.27ZM117.02,76.07c1.78,0,3.16-.54,4.14-1.62.98-1.08,1.47-2.57,1.47-4.46s-.49-3.41-1.47-4.48c-.98-1.07-2.36-1.6-4.14-1.6s-3.2.53-4.19,1.6c-.99,1.07-1.49,2.55-1.49,4.44s.5,3.41,1.49,4.49c.99,1.08,2.39,1.62,4.19,1.62Z" style="fill:#cdedf9; stroke:#cdedf9; stroke-miterlimit:10;"/><path d="M140.53,88.43c-2.94,0-5.33-.6-7.16-1.8-1.84-1.2-2.92-2.86-3.26-4.98h5.24c.56,1.85,2.23,2.77,5.01,2.77,1.85,0,3.27-.43,4.26-1.29s1.49-2.08,1.49-3.66v-2.87h-.17c-.58,1.11-1.41,1.96-2.51,2.54-1.09.58-2.39.87-3.91.87-1.87,0-3.51-.42-4.91-1.25s-2.48-2.02-3.24-3.56c-.76-1.54-1.13-3.34-1.13-5.41,0-3.12.85-5.6,2.55-7.45,1.7-1.85,4.06-2.77,7.06-2.77,1.65,0,3.06.31,4.24.93,1.18.62,2.13,1.51,2.84,2.67h1.4v-3.21h5.11v4.98h-2.51v14.59c0,2.83-.9,5.01-2.71,6.56-1.8,1.55-4.37,2.32-7.71,2.32ZM140.77,75.67c1.6,0,2.87-.45,3.81-1.35s1.4-2.12,1.4-3.66v-1.8c0-1.51-.47-2.72-1.42-3.61-.95-.89-2.21-1.34-3.79-1.34-1.76,0-3.12.52-4.09,1.55s-1.45,2.49-1.45,4.36.48,3.31,1.45,4.32,2.33,1.52,4.09,1.52Z" style="fill:#cdedf9; stroke:#cdedf9; stroke-miterlimit:10;"/><path d="M165.35,80.38c-2.74,0-4.85-.73-6.33-2.19s-2.22-3.43-2.22-5.93v-12.29h4.98v11.29c0,1.56.4,2.73,1.2,3.52.8.79,1.99,1.19,3.57,1.19,1.67,0,2.95-.42,3.84-1.27.89-.85,1.34-2.04,1.34-3.57v-11.15h4.98v15.06h2.51v4.98h-5.11v-3.21h-1.4c-.78,1.16-1.75,2.04-2.92,2.65-1.17.61-2.64.92-4.42.92Z" style="fill:#cdedf9; stroke:#cdedf9; stroke-miterlimit:10;"/><path d="M192.13,80.41c-2.16,0-4.03-.43-5.61-1.29-1.58-.86-2.8-2.07-3.66-3.64-.86-1.57-1.29-3.42-1.29-5.56s.42-3.98,1.27-5.53c.85-1.55,2.05-2.74,3.61-3.57,1.56-.83,3.38-1.25,5.48-1.25s3.81.4,5.28,1.19c1.47.79,2.6,1.93,3.41,3.41.8,1.48,1.2,3.23,1.2,5.26v1.74h-15.43c.18,1.69.76,2.99,1.75,3.89.99.9,2.31,1.35,3.96,1.35,1.22,0,2.22-.23,2.99-.68.77-.46,1.31-1.14,1.62-2.05h5.01c-.47,2.12-1.54,3.77-3.22,4.96-1.68,1.19-3.8,1.79-6.36,1.79ZM186.48,67.79h10.55c-.2-1.38-.73-2.43-1.6-3.16-.87-.72-2.04-1.09-3.51-1.09s-2.64.37-3.57,1.1c-.93.73-1.56,1.78-1.87,3.14Z" style="fill:#cdedf9; stroke:#cdedf9; stroke-miterlimit:10;"/><path d="M.69,117.65V51.23h25.5c7.22,0,13.45,1.34,18.7,4.02,5.25,2.68,9.28,6.5,12.09,11.48,2.81,4.97,4.22,10.88,4.22,17.71s-1.42,12.66-4.26,17.63c-2.84,4.97-6.89,8.81-12.14,11.52-5.25,2.71-11.45,4.06-18.61,4.06H.69ZM13.23,106.99h12.95c7.27,0,12.83-2.04,16.69-6.11,3.85-4.07,5.78-9.55,5.78-16.44s-1.93-12.44-5.78-16.48c-3.85-4.04-9.42-6.07-16.69-6.07h-12.95v45.1Z" style="fill:#cdedf9; stroke:#cdedf9; stroke-miterlimit:10;"/><path d="M73.23,117.65c-2.69,0-5.01-.53-6.98-1.6-1.97-1.07-3.48-2.58-4.55-4.53-1.07-1.95-1.6-4.26-1.6-6.92s.53-4.95,1.58-6.88c1.05-1.92,2.55-3.41,4.49-4.45,1.94-1.04,4.21-1.56,6.81-1.56s4.74.49,6.56,1.47c1.83.98,3.24,2.4,4.24,4.24s1.5,4.02,1.5,6.54v2.16h-19.19c.22,2.11.95,3.72,2.18,4.84,1.23,1.12,2.87,1.68,4.92,1.68,1.52,0,2.76-.28,3.72-.85s1.63-1.42,2.01-2.56h6.23c-.58,2.63-1.92,4.69-4.01,6.17-2.09,1.48-4.73,2.22-7.91,2.22ZM66.21,101.94h13.13c-.25-1.72-.91-3.03-1.99-3.93-1.08-.9-2.53-1.35-4.36-1.35s-3.28.46-4.45,1.37c-1.16.91-1.94,2.22-2.33,3.91Z" style="fill:#cdedf9; stroke:#cdedf9; stroke-miterlimit:10;"/><path d="M92.22,117.15v-20.11h-4.65v-4.82h4.69v-4.86c0-1.75.46-3.03,1.39-3.86.93-.83,2.22-1.25,3.88-1.25h7.06v4.82h-6.27v5.15h5.77v4.82h-5.69v20.11h-6.19ZM111.08,89.48c-.97,0-1.79-.34-2.47-1.02s-1.02-1.5-1.02-2.47.34-1.79,1.02-2.47c.68-.68,1.5-1.02,2.47-1.02s1.79.34,2.47,1.02c.68.68,1.02,1.5,1.02,2.47s-.34,1.79-1.02,2.47c-.68.68-1.5,1.02-2.47,1.02ZM107.96,117.15v-24.93h6.19v24.93h-6.19Z" style="fill:#cdedf9; stroke:#cdedf9; stroke-miterlimit:10;"/><path d="M121.76,117.15v-18.74h-3.07v-6.19h6.36v3.99h1.74c.94-1.41,2.15-2.51,3.61-3.28,1.47-.78,3.27-1.16,5.4-1.16,3.41,0,6.04.94,7.91,2.82,1.87,1.88,2.8,4.39,2.8,7.52v15.04h-6.19v-13.88c0-1.97-.52-3.46-1.56-4.49-1.04-1.02-2.58-1.54-4.63-1.54s-3.53.51-4.59,1.54c-1.07,1.02-1.6,2.52-1.6,4.49v13.88h-6.19Z" style="fill:#cdedf9; stroke:#cdedf9; stroke-miterlimit:10;"/><path d="M163.97,117.65c-2.69,0-5.01-.53-6.98-1.6-1.97-1.07-3.48-2.58-4.55-4.53-1.07-1.95-1.6-4.26-1.6-6.92s.53-4.95,1.58-6.88c1.05-1.92,2.55-3.41,4.49-4.45,1.94-1.04,4.21-1.56,6.81-1.56s4.74.49,6.57,1.47c1.83.98,3.24,2.4,4.24,4.24,1,1.84,1.49,4.02,1.49,6.54v2.16h-19.19c.22,2.11.95,3.72,2.18,4.84,1.23,1.12,2.87,1.68,4.92,1.68,1.52,0,2.76-.28,3.72-.85.95-.57,1.63-1.42,2.01-2.56h6.23c-.58,2.63-1.92,4.69-4.01,6.17-2.09,1.48-4.73,2.22-7.91,2.22ZM156.94,101.94h13.13c-.25-1.72-.91-3.03-1.99-3.93-1.08-.9-2.53-1.35-4.36-1.35s-3.28.46-4.44,1.37c-1.16.91-1.94,2.22-2.33,3.91Z" style="fill:#cdedf9; stroke:#cdedf9; stroke-miterlimit:10;"/><path d="M191.01,117.65c-3.6,0-6.44-.75-8.52-2.26-2.08-1.51-3.2-3.62-3.37-6.34h6.02c.19,1.3.79,2.26,1.79,2.89,1,.62,2.44.94,4.32.94,3.18,0,4.78-.93,4.78-2.78,0-.75-.24-1.33-.73-1.75-.48-.42-1.3-.73-2.43-.96l-5.48-1.04c-4.87-.94-7.31-3.24-7.31-6.9,0-2.35.93-4.23,2.78-5.63,1.86-1.4,4.42-2.1,7.69-2.1s5.86.71,7.79,2.14c1.92,1.43,3,3.44,3.22,6.04h-5.98c-.31-1.25-.88-2.15-1.73-2.72s-2.06-.85-3.63-.85c-1.41,0-2.49.22-3.24.66-.75.44-1.12,1.09-1.12,1.95,0,.64.23,1.15.71,1.54.47.39,1.22.68,2.24.87l5.61,1.08c2.55.5,4.42,1.33,5.61,2.49,1.19,1.16,1.79,2.73,1.79,4.69,0,2.52-.93,4.49-2.78,5.9-1.85,1.41-4.53,2.12-8.02,2.12Z" style="fill:#cdedf9; stroke:#cdedf9; stroke-miterlimit:10;"/><path d="M.69,169.51v-47.87h24.17c2.88,0,5.38.5,7.51,1.51,2.13,1.01,3.79,2.42,5,4.26,1.2,1.83,1.8,3.97,1.8,6.41s-.69,4.58-2.07,6.29c-1.38,1.71-3.15,2.93-5.32,3.64v.24c1.77.39,3.4,1.12,4.88,2.19,1.48,1.06,2.66,2.4,3.55,4.02.89,1.62,1.33,3.53,1.33,5.73,0,2.72-.66,5.09-1.98,7.12-1.32,2.03-3.15,3.62-5.5,4.76-2.35,1.14-5.05,1.71-8.13,1.71H.69ZM9.73,141.08h13.89c2.09,0,3.69-.5,4.82-1.51,1.12-1.01,1.68-2.43,1.68-4.29s-.56-3.39-1.68-4.37c-1.12-.98-2.73-1.48-4.82-1.48h-13.89v11.64ZM9.73,161.71h14.54c2.64,0,4.67-.58,6.09-1.74,1.42-1.16,2.13-2.85,2.13-5.05s-.71-3.81-2.13-4.93-3.43-1.68-6.03-1.68h-14.6v13.42Z" style="fill:#cdedf9; stroke:#cdedf9; stroke-miterlimit:10;"/><path d="M50.98,169.51v-26.66h-4.37v-8.81h8.98v6.85h2.48c.98-2.36,2.5-4.16,4.55-5.38s4.39-1.83,7.03-1.83h2.96v7.56h-3.37c-3.19,0-5.59.93-7.18,2.78-1.6,1.85-2.39,4.31-2.39,7.39v18.09h-8.69Z" style="fill:#cdedf9; stroke:#cdedf9; stroke-miterlimit:10;"/><path d="M88.22,170.16c-4.14,0-7.38-1.01-9.72-3.01s-3.52-4.67-3.52-7.98,1.19-6.15,3.58-8.04c2.38-1.89,5.82-2.84,10.31-2.84h10.82v-1.42c0-4.33-2.52-6.5-7.57-6.5-4.26,0-6.84,1.54-7.74,4.61h-8.81c.71-3.78,2.49-6.67,5.35-8.66,2.86-1.99,6.59-2.98,11.2-2.98,5.2,0,9.16,1.17,11.88,3.52,2.72,2.34,4.08,5.76,4.08,10.25v13.59h4.2v8.81h-9.04v-5.67h-2.48c-1.22,2.01-2.87,3.57-4.93,4.67-2.07,1.1-4.6,1.66-7.6,1.66ZM89.52,163.36c1.93,0,3.66-.36,5.2-1.09,1.54-.73,2.75-1.71,3.64-2.96.89-1.24,1.33-2.63,1.33-4.17v-.83h-10.34c-3.98,0-5.97,1.48-5.97,4.43,0,1.46.54,2.59,1.62,3.4,1.08.81,2.59,1.21,4.52,1.21Z" style="fill:#cdedf9; stroke:#cdedf9; stroke-miterlimit:10;"/><path d="M119.48,169.51v-26.66h-4.37v-8.81h9.04v5.67h2.48c1.34-2.01,3.05-3.56,5.14-4.67,2.09-1.1,4.65-1.65,7.68-1.65,4.85,0,8.6,1.34,11.26,4.02,2.66,2.68,3.99,6.25,3.99,10.7v21.4h-8.81v-19.74c0-2.8-.74-4.93-2.22-6.38-1.48-1.46-3.67-2.19-6.59-2.19s-5.01.73-6.53,2.19c-1.52,1.46-2.28,3.59-2.28,6.38v19.74h-8.81Z" style="fill:#cdedf9; stroke:#cdedf9; stroke-miterlimit:10;"/><path d="M177.82,170.22c-3.63,0-6.7-.76-9.22-2.28-2.52-1.52-4.44-3.66-5.76-6.44-1.32-2.78-1.98-6.02-1.98-9.72s.64-6.99,1.92-9.75c1.28-2.76,3.13-4.9,5.56-6.41,2.42-1.52,5.33-2.28,8.72-2.28,2.68,0,4.98.5,6.91,1.51,1.93,1,3.41,2.45,4.43,4.34h.24v-19.33h8.81v40.84h4.37v8.81h-8.98v-5.67h-2.48c-1.26,2.05-2.94,3.63-5.02,4.73-2.09,1.1-4.59,1.66-7.51,1.66ZM179.35,162.59c2.84,0,5.09-.8,6.77-2.39,1.67-1.6,2.51-3.77,2.51-6.53v-3.78c0-2.76-.84-4.93-2.51-6.53-1.67-1.6-3.93-2.39-6.77-2.39-3.15,0-5.56.96-7.21,2.87s-2.48,4.56-2.48,7.95.83,6.04,2.48,7.95c1.65,1.91,4.06,2.87,7.21,2.87Z" style="fill:#cdedf9; stroke:#cdedf9; stroke-miterlimit:10;"/><path d="M.69,230.19v-57.44h22.06c6.24,0,11.63,1.16,16.17,3.47s8.03,5.63,10.46,9.93,3.65,9.41,3.65,15.32-1.23,10.95-3.69,15.25c-2.46,4.3-5.96,7.62-10.5,9.96-4.54,2.34-9.9,3.51-16.1,3.51H.69ZM11.54,220.97h11.2c6.29,0,11.1-1.76,14.43-5.28,3.33-3.52,5-8.26,5-14.22s-1.67-10.75-5-14.25c-3.33-3.5-8.15-5.25-14.43-5.25h-11.2v39.01Z" style="fill:#cdedf9; stroke:#cdedf9; stroke-miterlimit:10;"/><path d="M116.57,230.19h-11.7l-31.49-42.06h-.28v42.06h-10.28v-57.44h11.42l31.77,42.69h.28v-42.69h10.28v57.44Z" style="fill:#cdedf9; stroke:#cdedf9; stroke-miterlimit:10;"/><path d="M123.31,230.19l24.4-57.44h11.28l24.25,57.44h-11.06l-6.31-15.04h-25.46l-6.38,15.04h-10.71ZM143.8,206.08h19.01l-9.29-22.27h-.35l-9.36,22.27Z" style="fill:#cdedf9; stroke:#cdedf9; stroke-miterlimit:10;"/><path d="M195.15,231.04c-1.84,0-3.42-.65-4.72-1.95-1.3-1.3-1.95-2.87-1.95-4.72s.65-3.41,1.95-4.72c1.3-1.3,2.87-1.95,4.72-1.95s3.42.65,4.72,1.95c1.3,1.3,1.95,2.87,1.95,4.72s-.65,3.42-1.95,4.72-2.87,1.95-4.72,1.95Z" style="fill:#cdedf9; stroke:#cdedf9; stroke-miterlimit:10;"/><g id="top"><g style="clip-path:url(#clippath-1);"><polygon points="162.57 48.24 230.51 -12.35 243.8 -.5 175.85 60.09 162.57 48.24" style="fill:#cdedf9;"/><polygon points="121.93 48.23 189.87 -12.36 203.16 -.51 135.22 60.08 121.93 48.23" style="fill:#cdedf9;"/><polygon points="81.3 48.24 149.25 -12.35 162.53 -.5 94.59 60.09 81.3 48.24" style="fill:#cdedf9;"/><polygon points="40.69 48.23 108.64 -12.36 121.92 -.51 53.98 60.08 40.69 48.23" style="fill:#cdedf9;"/><polygon points=".06 48.25 68 -12.34 81.29 -.49 13.35 60.1 .06 48.25" style="fill:#cdedf9;"/><polygon points="-40.55 48.24 27.39 -12.35 40.68 -.5 -27.26 60.09 -40.55 48.24" style="fill:#cdedf9;"/></g><rect x="1.47" y="1" width="200.34" height="45.72" style="fill:none; stroke:#cdedf9; stroke-linecap:round; stroke-linejoin:round; stroke-width:2px;"/></g></g></svg>