<?xml version="1.0" encoding="UTF-8"?><svg id="Layer_2" xmlns="http://www.w3.org/2000/svg" xmlns:xlink="http://www.w3.org/1999/xlink" viewBox="0 0 116 120.94"><defs><radialGradient id="radial-gradient" cx="48.97" cy="49.23" fx="48.97" fy="49.23" r="35.53" gradientTransform="translate(-17.3 28.64) rotate(-22.19) scale(.95 .98) skewX(-1.81)" gradientUnits="userSpaceOnUse"><stop offset="0" stop-color="#046e23"/><stop offset="1" stop-color="#00333a" stop-opacity=".5"/></radialGradient></defs><g id="laugh"><g id="screen"><path d="M100.27,1.1s8.94,24.84,14.73,52.33l-19.79,14.25,1.95,7.78-14.89,11.22s-49.83,13.81-55.63,14.45S2.61,39.21,1,32.32c0,0,47.32-26.51,55.99-27.98,8.67-1.48,33.84-3.85,43.28-3.24Z" style="fill:none; stroke:#cdedf9; stroke-linecap:round; stroke-linejoin:round; stroke-width:2px;"/><path d="M62.02,6.75s17.01,57.57,18.48,76.88" style="fill:none; stroke:#cdedf9; stroke-linecap:round; stroke-linejoin:round; stroke-width:2px;"/><path id="face" d="M57.05,10.49s13.61,49.35,17.78,73.73c0,0-30.92,11.24-46.71,11.5,0,0-13.06-14.58-20.82-61.85,0,0,21.17-16.53,49.76-23.38Z" style="fill:url(#radial-gradient); stroke:#cdedf9; stroke-linecap:round; stroke-linejoin:round; stroke-width:2px;"/></g><g id="leg-2"><path d="M60.45,94.19s-.66,11.89-5.75,25.73c0,0-8.51.26-8.7-1.36s3.57-8.47,8.92-22.76" style="fill:none; stroke:#cdedf9; stroke-linecap:round; stroke-linejoin:round; stroke-width:2px;"/><path d="M65.34,92.94s-.87,19.14-3.66,24.03l-6.97,2.95" style="fill:none; stroke:#cdedf9; stroke-linecap:round; stroke-linejoin:round; stroke-width:2px;"/></g><g id="arm-1"><path d="M90.31,30.74s-4.45,10.36-4.45,33.05c0,0-5.21-1.48-8.17-3.93,0,0-1.61-9.72,7.34-26.11" style="fill:none; stroke:#cdedf9; stroke-linecap:round; stroke-linejoin:round; stroke-width:2px;"/><path d="M96.29,34.87s-.54,17.99-.08,27.98c0,0,1.03,5.36-10.35.93" style="fill:none; stroke:#cdedf9; stroke-linecap:round; stroke-linejoin:round; stroke-width:2px;"/></g><g id="leg-1"><path d="M77.59,90.31s-.07,9.9-5.18,23.75c0,0-8.54.27-8.73-1.36s3.42-7.44,8.79-21.74" style="fill:none; stroke:#cdedf9; stroke-linecap:round; stroke-linejoin:round; stroke-width:2px;"/><path d="M82.23,88.16s-.03,18.05-2.83,22.94l-7,2.96" style="fill:none; stroke:#cdedf9; stroke-linecap:round; stroke-linejoin:round; stroke-width:2px;"/></g><path d="M25.28,67.23c0,.16.14.28.28.36.76.49,1.52.98,2.28,1.47" style="fill:none; stroke:#fff; stroke-linecap:round; stroke-linejoin:round; stroke-width:2px;"/><path d="M45.17,29.44s6.76-3.41,11.72,4.74" style="fill:none; stroke:#fff; stroke-linecap:round; stroke-linejoin:round; stroke-width:2px;"/><path d="M20.93,50.24s3.91,1.91,16.52-4.64" style="fill:none; stroke:#fff; stroke-linecap:round; stroke-linejoin:round; stroke-width:2px;"/><path d="M23.05,55.94s10.44-2.05,17.01-3.33" style="fill:none; stroke:#fff; stroke-linecap:round; stroke-linejoin:round; stroke-width:2px;"/><path d="M46,48.78l15.21-1.29" style="fill:none; stroke:#fff; stroke-linecap:round; stroke-linejoin:round; stroke-width:2px;"/><path d="M35.44,66.37s4.33,4.07,19.89-1.97c0,0-9.41,13.31-16.32,7.78,0,0-.38-3.96-3.57-5.81Z" style="fill:none; stroke:#fff; stroke-linecap:round; stroke-linejoin:round; stroke-width:2px;"/><path d="M23.81,61.43l3.8,1.82" style="fill:none; stroke:#fff; stroke-linecap:round; stroke-linejoin:round; stroke-width:2px;"/><path d="M26.66,57.55c-.09.62.48,1.12.99,1.45.27.18.62.37.89.2.31-.19.26-.73,0-1.01s-.64-.36-1-.43" style="fill:none; stroke:#fff; stroke-linecap:round; stroke-linejoin:round; stroke-width:2px;"/><path d="M50.18,50.1c.17.61.44,1.19.79,1.7.23.33.51.65.87.74s.81-.12.85-.52c.03-.3-.17-.6-.43-.74s-.54-.17-.83-.2" style="fill:none; stroke:#fff; stroke-linecap:round; stroke-linejoin:round; stroke-width:2px;"/><g id="arm-1-2"><path d="M34.46,87.3c-3.77,9.69-7.14,6.54-7.14,6.54-7.18-4.9-20.95-12.81-20.95-12.81,0,0-5.01-8.35,6.16-8.1,18.01.41,24.07,7.06,24.07,7.06-.01,3.12-2.14,7.31-2.14,7.31-17.5-10.63-27.96-12.39-27.45-12.2" style="fill:none; stroke:#cdedf9; stroke-linecap:round; stroke-linejoin:round; stroke-width:2px;"/></g></g></svg>