<?xml version="1.0" encoding="utf-8"?>
<!-- Generator: Adobe Illustrator 30.3.0, SVG Export Plug-In . SVG Version: 9.03 Build 0)  -->
<svg version="1.0" id="Layer_1" xmlns="http://www.w3.org/2000/svg" xmlns:xlink="http://www.w3.org/1999/xlink" x="0px" y="0px"
	 viewBox="0 0 499.8 730.9" style="enable-background:new 0 0 499.8 730.9;" xml:space="preserve">
<path d="M468.2,127c0,0.8,2.1,0.7,2.6-0.1c0.2-0.4-0.3-0.7-1.1-0.6S468.2,126.7,468.2,127z"/>
<path d="M266.3,177.1c-0.4,0.1-1.7,0.4-2.8,0.7c-1.8,0.4-2.1,0.8-1.9,2.5c0.2,1.9,0.1,2-5.4,2.9c-13.2,2.2-26,8.6-36.9,18
	c-5,4.3-5.4,5.1-3.5,6.5c1,0.7,0.6,1.4-3.4,5.3c-3.3,3.1-5.4,6-7.5,10.3c-3.6,7.5-5.9,15.5-4.5,16.9c0.7,0.7,1.3,0.5,3.2-0.8
	c1.3-0.9,2.5-1.6,2.6-1.3c0.1,0.1-0.1,2.7-0.8,5.7c-1.3,6.2-1.5,18.1-0.4,20.2c1,1.7,2.7,1.9,3.6,0.2c0.5-0.9,1.1,0.4,2.4,5
	c1.8,6.6,4.2,12.2,7.1,16.1c2.1,2.8,5.5,13.8,10.3,32.9c7.7,31.6,12.9,48.4,16.9,54.7c1.6,2.7,1.7,3.3,0.6,3.3
	c-0.4,0-4.5,1.9-9.2,4.1c-7.2,3.4-9.4,4.9-15.1,10.3L215,397l-17-1.9c-9.4-1-26-2.9-37.1-4.2c-11-1.3-23.3-2.5-27.1-2.9
	c-3.9-0.4-24.1-2.5-45-4.8C68,381,48,378.9,44.5,378.6c-6-0.4-6.5-0.3-6.9,1c-0.3,0.8,1.2,9.3,3.2,18.9
	c3.3,15.5,11.5,54.7,13.5,65.2c0.4,2.2,0.7,4.2,0.4,4.3c-0.2,0.2-10.3-1.5-22.4-3.7C20.1,461.9,9.1,460,7.7,460
	c-4.6,0-8.5,4.7-7.6,9.1c0.3,1.3,6.4,14.9,13.5,30.3C20.9,514.8,30,534.3,34,543c16.3,35,24.7,52.1,26.6,54.2c1.1,1.2,3.3,2.7,5,3.4
	c1.6,0.7,17.9,5.4,36.3,10.5l33.2,9.1v3.2c0,4.5,1.1,4.9,14.9,5.2c16.8,0.4,17.6,0.4,33.5,4.9c49.6,14,52.9,14.8,55.6,14.4
	c1.5-0.2,4.9-0.5,7.6-0.7c5-0.3,7-1,39.4-14.6l10-4.2l86.9-0.1c82.9-0.1,86.9-0.1,87.9-1.5c0.7-1,0.7-1.5,0.1-1.9s-0.4-0.6,0.4-0.6
	c1,0,1.3-0.7,1.2-3.9c0-2.1-0.2-3.4-0.4-3c-0.1,0.5-0.6,1-0.8,1c-0.6,0-1-51.7-0.6-71.8c0.1-2.8,0.4-4.4,0.9-4.3
	c0.5,0.1,0.8-1.6,0.8-4.8c0-4.7,0-4.8-0.3-0.9c-0.1,2.2-0.7,4.4-1.1,4.8c-0.6,0.5-0.7,0.4-0.4-0.4c0.2-0.7,0-1.2-0.5-1.2
	c-0.7,0-0.9,9.2-0.7,41.6c0.1,27.3,0,42.1-0.5,43.1c-0.7,1.3-1.6,1.5-8.1,1.3c-0.6-0.1-7.2-0.1-14.6-0.2l-13.6-0.1v-2.7
	c0-2.9,0.9-3.6,4.1-3.6c2.4,0,11.4-4.8,14.2-7.5c3.3-3.3,8.8-14.1,11-21.9c3.8-13.8,5.7-37.9,4.7-59.3c-0.3-6.6-0.6-12.7-0.7-13.5
	c-0.1-1.1,0.6-1.7,3-2.5c1.7-0.6,3.1-1.4,3.1-1.8c0-0.4,0.5-1.2,1.2-1.7c2.2-1.6,0.1-17.5-6.1-46.5c-3.6-17-7.5-30.6-12.9-44.5
	c-5.9-15.1-13.2-23.4-28.3-32.3c-12.7-7.5-50.9-26-59.9-29l-3.7-1.2l-3.6-9.7c-3.6-9.9-4.6-15.5-5.1-27.3l-0.3-6.1h2.1
	c4.6,0,10.2-9,11.7-19.1c2.4-15.5-0.9-28.6-8.1-32.5l-2.6-1.4l-0.1-9c-0.3-17.9-3.5-31.5-9.1-38.5L345,211l1.6-1.3
	c1.5-1.3,1.6-1.5,0.4-3.6c-1.6-3-3.2-4.3-8.7-6.9c-3-1.4-6-2.3-8-2.3c-3,0-3.3-0.2-4.8-3.2c-3-5.9-10.9-13.2-14.2-13.2
	c-1.7,0-1.7,0.1,0.1,3.7c1.7,3.3,1.5,3.6-1.5,1.5c-3.3-2.4-9.6-4.9-17.2-7c-5.9-1.6-8.5-1.9-16.3-1.9
	C271.3,176.8,266.8,176.9,266.3,177.1z M284.3,180.5c11.2,1.6,22.4,5.9,27.8,10.8c4.5,4,6.4,2.9,4.8-2.7c-0.8-3,4,3.3,6.2,8l1.8,4
	l3.3-0.5c2.8-0.4,3.9-0.1,7.8,2l4.6,2.4l-2.4,0.6c-1.3,0.4-2.3,1-2.3,1.3c0,0.8,3,3.7,3.9,3.7c1.5,0,7.3,9.4,9.1,14.6
	c2.3,7,4.2,20.2,4.2,30v7.2l-2.8,1.8c-4.5,3-5.5,5.5-6.1,15.4c-0.4,6.8-0.7,8.7-1.6,8.9c-0.9,0.1-1.4-2-2.8-11.2
	c-0.8-6.3-2.2-12.6-2.8-14c-0.7-1.4-3.2-5-5.5-8l-4.2-5.6l-0.4-9.3c-0.4-7.5-0.7-10-2.1-12.9c-2.4-4.8-7.2-9.1-14.6-12.6
	c-11.2-5.4-19.8-4.6-30,2.7c-2.4,1.6-7.3,5.1-10.9,7.7c-8.6,6.2-13.9,8.7-22.9,10.9c-4,1-7.4,1.7-7.6,1.6c-0.1-0.1,1-1.7,2.5-3.5
	c3.8-4.8,4.3-5.9,3.2-7.1c-0.7-0.9-1.3-0.7-3.7,1.6c-4.5,4.1-13.4,7.8-18.6,7.8c-2.5,0-3.6,1.4-1.9,2.5c1,0.8,1,1.4-0.2,6.7
	c-1.9,7.7-2.5,17.8-1.6,26.5c0.4,3.9,0.6,7.2,0.4,7.4c-0.1,0.1-1.1-1.5-2.1-3.7c-1.9-4.2-4.2-13.8-4.2-17.7c0-3-1.4-3.6-3-1.5
	c-1.2,1.6-1.3,1.6-1.9,0.4c-1.2-3.1,2.8-21.1,5-22.5c1-0.7,0.8-4.1-0.2-4.1c-0.4,0-2.5,1-4.5,2.3s-3.8,2.2-3.9,2
	c-0.1-0.1,0.8-2.8,2.2-5.9c2.6-5.9,8.7-14.4,10.9-15.1c0.7-0.2,1.5-1,1.6-1.7c0.2-0.7,2.3-2.3,4.6-3.6c5.1-2.6,5.4-4.5,0.8-4.2
	l-3,0.2l3.3-3c4.4-3.9,19.5-11.5,27.5-13.8c3.5-1,9.8-2,14-2.3s7.6-0.8,7.6-1.2c0-0.3-0.8-1.3-1.9-2c-1.7-1.3-1.8-1.6-0.6-1.9
	C273.4,179.5,278.5,179.7,284.3,180.5z M301.7,214.7c4.8,1.1,12.2,4.9,15.9,8.2c4.8,4.2,5.9,7.6,5.8,16.9c-0.1,9.2,0.5,11,6.1,17.6
	c2.2,2.6,4.4,5.9,4.8,7.2c0.4,1.3,1.6,8,2.7,14.6c1,6.7,2.2,12.6,2.6,13.1c1,1.2,2.8,0.7,5.6-1.5c2.2-1.8,2.2-1.9,2.3-9.8
	c0.1-11.5,1.5-14.3,7.9-15.5c2.5-0.5,2.8-0.4,4.7,2.5c3.1,4.7,4.2,9.4,4.1,17.7c0,8.3-1.3,14-4.1,19.6c-2.5,5.1-4.3,6.1-8.3,5
	c-1.8-0.4-3.2-1.3-3.2-1.8s-0.3-1-0.7-1c-0.4,0-0.9-0.9-1.2-2.1c-0.3-1.1-1.1-2.6-1.9-3.3c-1.4-1.3-1.5-1.3-1,0.5
	c0.3,1.2,0.1,1.9-0.4,1.9c-0.4,0-0.8-1.3-0.9-2.8c0-1.5-0.2-3.7-0.4-4.9c-0.3-1.9-0.2-2.1,0.7-1.3c0.8,0.7,1.2,0.7,1.6-0.1
	c0.3-0.5,0.3-0.7-0.1-0.4c-0.3,0.3-1,0.1-1.5-0.6c-0.7-1.1-1-1.1-2.1,0.1c-1,1-1.3,2.7-1.3,8c0,14.7-5.4,26.5-18.4,40.7l-4.5,4.8
	l-3.6-3c-5.8-4.9-8.2-5.7-19.8-6l-10.2-0.3l1.5-3c1-2,1.3-3.3,0.8-3.7c-1.1-1.1-2.2-0.1-5.7,5.3c-3.9,6-5,6.9-7.7,6.6
	c-1.6-0.1-2.5-1-3.6-3.2c-1.3-2.8-1.5-4.5-1.5-22.2c0-14.3-0.2-19.3-0.9-19.6c-1-0.4-1.4,1.6-2.5,14.3c-0.9,10.7-0.3,22.9,1.3,27.5
	c1,2.8,1,3-0.7,4.3c-7.5,6-8.6,7.3-10,11.4c-0.7,2.3-1.7,4.4-2.3,4.5c-0.5,0.2-2.3-0.9-3.9-2.5c-5.4-5.3-7.8-9.7-10.6-19.6
	c-4.9-17.3-6.4-23-6.4-23.8c0-0.5,1.3,0.2,2.8,1.5c4.5,3.9,8.6,5.4,14.3,5.1c2.7-0.1,6-0.8,7.4-1.6c1.4-0.7,2.7-1.1,2.8-1
	s-1.3,1.6-3.2,3.3c-2.2,1.9-3.3,3.4-3,4.2c0.6,1.6,1.3,1.4,4.7-1.5c3.3-2.9,5.4-6.7,4.1-8c-0.5-0.5-0.3-1.6,0.8-3.3
	c1-1.8,1.6-4.4,1.9-8c0.3-4.9,0.1-5.9-1.6-8.7c-1.7-2.9-1.8-3.3-0.8-4.7c0.6-0.8,1-2.6,0.9-4l-0.2-2.5l-9.3-1.8
	c-18.1-3.5-21-3.2-25.7,2.2l-2.5,3l-0.7-2.8c-3.5-13.7-2.6-42.5,1.4-46.8c0.7-0.7,9.8-3.4,10.2-3c0.1,0.1-0.4,0.6-1.3,1.1
	c-2.1,1-2,2.8,0.1,3.1c2.7,0.4,10.9-0.8,16.5-2.5c8.6-2.5,17.2-7.4,28.2-16.1c3.1-2.5,10.3-6.5,13.8-7.7
	C294.6,213.7,298.1,213.9,301.7,214.7z M249.8,286.9c5.2,0.9,9.4,1.9,9.4,2.2c0,1.3-2.5,2.9-4.4,2.9c-1.2,0-5.4-1-9.4-2.3
	c-5.5-1.6-8.5-2.2-11.7-2c-4.2,0.2-4.3,0.2-2.7-1.1C233.3,284.8,238.2,284.9,249.8,286.9z M243.7,292.7c3.9,1.2,8.6,2.4,10.3,2.5
	c2.5,0.2,3.6,0.7,4.7,2.2l1.4,1.9h-3.3c-6.5,0-15.7,2.2-23.8,5.6c-1.8,0.7-1.8-1.5,0.1-6.3c1-2.5,1.2-3.9,0.6-4.2
	c-1.3-0.7-4,3.1-4.6,6.6l-0.6,3.2l-1-2.6c-1.5-4.1-1.3-7,0.7-8.7C231.6,289.8,234.4,289.8,243.7,292.7z M260.4,306.3
	c-0.1,10.3-10.2,15.5-20.3,10.5c-3.6-1.8-7.6-5.7-7.6-7.4c0-2,17.3-6.8,25-6.9l3-0.1L260.4,306.3z M355.1,348.6
	c2.2,5.7,8.8,19.1,10.1,20.7c2,2.2-2.3,14.7-7.7,22.5c-11.2,16.2-32,26.5-47.8,23.8c-2.9-0.5-6.3-1.4-7.6-2.1c-2.9-1.5-8-5.4-8-6.2
	c0-0.3,2.1-1,4.5-1.4c5.9-1,12.4-4.2,18.4-8.7c5.9-4.5,15.5-15.2,21.6-24.1c5.2-7.7,12.4-21.9,13.1-26.2c0.3-1.6,0.7-2.8,1-2.8
	C353.1,344,354.2,346.1,355.1,348.6z M246,362.4c-1,0.7-1.3,0.5-2.5-1.9c-1.9-4.2-1.6-4.8,1.2-1.9
	C246.9,361.2,247.1,361.6,246,362.4z M255.9,361.9c-0.3,1.3-0.7,2.2-0.8,2c-0.1-0.1-0.1-1.3,0.1-2.7c0.3-1.3,0.7-2.2,0.8-2
	C256.3,359.3,256.2,360.6,255.9,361.9z M374.1,372c-0.1,5.8-0.4,7.4-2.8,12.9c-4.1,10-7.7,15.5-14.3,21.9
	c-6.5,6.4-13.7,11.1-22.2,14.4c-8.2,3.3-12.7,4-21.8,3.6c-7.4-0.2-8.6-0.5-13.2-2.8c-5.8-2.8-11.4-8-13.8-12.6
	c-0.9-1.7-1.6-3.2-1.6-3.3c0-0.1,1.1-0.1,2.5,0.1c1.8,0.2,2.8,1,4.1,2.8c2.4,3.6,9.7,8.2,14.9,9.3c6.4,1.3,18,0.4,24.1-1.8
	c13.3-4.8,26-15.2,32.9-26.9c4.3-7.4,5.6-11.6,6.2-19.9l0.4-6.5l2.3,1l2.3,1V372z M399.8,378.1c30.8,15.5,36,18.9,42.8,28
	c6.4,8.6,10,17,16,38c4.7,16.1,11,50,11.4,60.5l0.1,5l-6.3,3.1c-7.6,3.9-19.6,7.8-28.6,9.6c-8.2,1.6-27.3,1.8-34.7,0.4
	c-5.9-1.1-5.4,0.1-6.5-16.6c-1-14.2-1-27.3,0.1-39c0.7-7.1,0.7-9.5,0-10.2c-1.4-1.4-1.9,0.3-3.1,8.6c-1.2,9.1-1.2,31.2,0,45.1
	c1.1,13.1,1.3,14.1,3,14.1c3.2,0,3.7,0.7,3.7,5.5c0.1,2.5,0.4,6.8,0.7,9.7c0.4,2.8,0.6,5.3,0.4,5.4c-0.1,0.1-3.5-0.9-7.5-2.2
	c-6.7-2-20.1-7.7-35.3-15c-6.5-3.1-7-3.1,13.5,0.4c7.6,1.3,14.4,2.2,15.2,1.9c1.5-0.6,1.7,1.4-3.3-28c-2.1-12-4.6-27-5.7-33.1
	c-2.3-13.5-2.3-13.5-4.3-14.9c-1-0.5-9.1-2-18.7-3.3c-9.4-1.3-32.1-4.3-50.6-6.8c-18.4-2.5-36.4-4.8-40-5.3
	c-9.7-1.3-9.4-2.2-6.2,17.3c6.6,39.2,8.6,50.8,9,52.1c0.7,2.1,2.3,2.7,10.5,4c4,0.6,10.3,1.7,14,2.4l6.7,1.2l-3.6,1.9
	c-2,1-5,1.9-6.6,1.9c-1.7,0-3.3,0.4-3.6,0.8c-0.4,0.6-0.6,0.5-0.6-0.1c0-0.7-0.5-0.7-1.9-0.2c-1,0.4-2.2,0.6-2.5,0.4
	c-0.8-0.5-2.4,2.2-1.7,2.9c0.2,0.2,0.1,0.4-0.2,0.4c-0.4,0-1.2-0.4-1.7-1c-0.5-0.4-0.9-0.6-0.8-0.1c0.6,2.9-1.9,3.7-3,0.9
	c-0.4-0.9-0.7-1.2-0.7-0.7c-0.1,0.5-0.6,1-1.2,1c-0.9,0-1.1,1-1.1,4.1v4.1h-3c-4.2,0-7.4,1.8-8.6,4.8c-0.9,2.2-0.9,3,0.1,5.7
	c1.6,4.5,1.7,7.1,0.3,9c-0.7,0.9-1.3,2.9-1.4,4.5c-0.3,3.8,3,7.2,7,7.2c2.7,0,7.7-2.2,10-4.3c0.6-0.5,1.8-1.5,2.7-2.1
	c1.3-0.8,5.6-6.3,5.9-7.4c0-0.1,1-0.4,2.3-0.6c2.3-0.5,2.3-0.5,2.8,3.2c0.9,6.6,6.5,12.2,13.6,13.2c1.6,0.2,3.8,1.3,5.1,2.5
	c1.3,1.1,3.9,2.5,5.9,3c2.1,0.5,4.7,1.6,5.8,2.6c4.6,3.7,10.3,3.6,14.4-0.1c1.8-1.7,2.5-3,2.5-4.7c0-3.2,1.7-3.5,6.6-1.1
	c3.1,1.6,5.3,2.1,8.8,2.1l4.6,0.1l11,10.8c17.8,17.5,28.8,26,39.9,31.2c7.3,3.3,19,7.4,22.2,7.6c2.8,0.1,3.5,1,3.5,3.9v2.2
	l-44.5-0.1c-24.4-0.1-52.1-0.2-61.5-0.2l-17.1-0.1l4-1.9c2.2-1,11.6-4.8,20.8-8.6c20.9-8.4,25.4-10.5,26.8-12.1
	c0.6-0.7,1.2-3.4,1.3-5.9c0.2-3.7,0.1-4.8-1-5.7c-0.8-0.7-6.8-2.5-13.3-3.9c-6.5-1.5-17.5-4-24.5-5.7c-23.6-5.5-41.6-9.5-49.8-11.2
	c-7.4-1.4-11.1-2.2-19.9-4.5l-2.7-0.7l-0.3-25.9c-0.3-24.6-0.4-26.5-2.7-40.8c-1.9-11.6-7.6-52.8-7.6-54.2c0-0.1-0.5-0.3-1.2-0.3
	c-1.1,0-1.2,1-0.7,8.3l0.4,8.4l-2.3-5.4c-1.3-3-2.7-5.3-3.2-5.1c-1.6,0.6-0.4,5,3.2,13c5.3,11.6,6.7,22.2,3.6,27.4l-1.6,2.8l-2-11.8
	c-1.1-6.5-4.6-27.2-7.7-46c-3.1-18.8-5.9-34.9-6.1-35.8c-0.3-1.2,0.8-2.7,5.1-6.8c4.4-4.2,7.3-6.1,14.1-9.4c4.7-2.3,8.8-4.2,9.3-4.2
	c0.4,0,2.5,2.2,4.6,4.8c6.8,8.5,15.4,15.5,24.1,19.4c3.6,1.6,4.1,2.2,6.2,6.9c6.1,13.2,21.3,20.4,38.1,18.1
	c29.5-3.9,52.8-27.2,56.9-56.9c0.2-1.9,0.7-3.5,0.9-3.5S388.4,372.4,399.8,378.1z M54.6,381.2c24.5,2.7,54.8,5.9,66.4,7.1
	c6.3,0.7,12.2,1.3,13,1.4c1.4,0.3,1.5,0.7,1.1,8.3c-0.2,5.1-0.7,8.1-1.3,8.3c-0.4,0.1-2.1-1.1-3.7-2.8c-1.6-1.7-3.8-3.6-4.9-4.2
	s-1.9-1.4-1.7-1.7c0.2-0.4-0.4-1.6-1.6-2.8c-1.1-1.2-2-2.3-2-2.5c-0.1-0.2-0.3-0.3-0.6-0.2c-0.4,0.1-0.6-0.1-0.6-0.4
	c0-0.5-1.7-0.8-6.7-1.2c-1-0.1-2.5,0.3-3.1,0.9c-0.7,0.7-1.3,0.8-1.3,0.4c-0.1-0.4-0.6,0.5-1.3,1.9c-0.6,1.4-1.1,3.5-1,4.6
	c0.1,1.2-0.3,2.1-0.7,2.1s-0.7,0.4-0.4,0.9c0.1,0.5,0.4,0.8,0.7,0.6c0.2-0.2,1.4,1,2.6,2.7c1.3,1.6,3.1,3.7,4.2,4.5
	c2.9,2.3,2.3,2.8-0.8,0.7c-3.3-2.2-9.1-3.7-11.7-3.3c-1,0.2-1.9,0-1.9-0.4c0-0.5-0.2-0.4-0.4,0.1c-0.2,0.6-0.8,0.7-1.6,0.4
	c-1.4-0.7-5-0.6-7.2,0.2c-4.7,1.6-5.6,2.2-5.6,3c0,0.5-0.5,1.3-1.1,1.9c-0.6,0.5-1.1,1.8-1.1,2.9c0,2.3,2.5,6.8,3.9,6.8
	c0.5,0,0,0.5-1.2,1.1c-1.1,0.6-2.6,1.1-3.1,1.1c-0.6,0-1,0.3-1,0.7c0,0.4-0.4,0.7-0.8,0.7c-1,0-2.9,1.9-2.9,2.9
	c0,0.4-0.5,0.8-1.1,0.8s-1,0.2-1,0.5c0.1,0.4-0.3,1.6-0.7,2.7c-1.1,2.5-1.2,6.5-0.1,6.5c0.4,0,0.9,0.8,1.2,1.9
	c0.2,1,0.7,1.9,1.1,1.9c1.4,0,0.6,1.5-1.3,2.4c-1.3,0.7-2,1.5-1.9,2.4s-0.1,1.2-0.7,0.7c-0.7-0.4-0.8-0.1-0.5,1
	c0.2,0.9,0.1,1.7-0.4,1.9s-0.4,0.6,0.3,1.1c0.7,0.5,0.8,0.8,0.2,0.8c-1.1,0-1.3,1.9-0.2,2.6c0.4,0.3,0.5-0.1,0.2-0.8
	c-0.3-0.9-0.2-1.1,0.4-0.7c0.5,0.3,0.9,1.1,0.9,1.8c0,0.7,0.5,2,1.1,2.9c0.8,1.1,0.9,1.8,0.3,2.2c-0.6,0.3-0.5,0.7,0.1,1.1
	s1.3,0.2,1.6-0.3c0.4-0.6,0.6-0.4,0.6,0.4c0,0.7,0.4,1.1,0.7,0.9c0.4-0.2,0.7-0.1,0.7,0.2c0,1,4,0.1,4.7-1.1
	c0.4-0.5,0.9-0.8,1.3-0.6s0.8-0.2,1.1-1c0.2-0.7,1-1.9,1.9-2.7s1.5-2.3,1.5-3.5c0-2.9,2.7-3,3.3,0c0.2,1.2,1.8,3.9,3.5,6.2
	c1.7,2.2,4.5,6.3,6.4,9.2c1.9,2.8,4,6,4.9,7l1.6,1.8l-2.2-0.4c-1.2-0.2-12.3-2.4-24.5-4.7c-12.3-2.4-22.5-4.4-22.6-4.5
	s-2.4-10.7-4.9-23.5c-2.6-12.8-6.4-31.2-8.5-40.9c-4.8-22.2-5.1-24.4-3.6-24.4C40.8,379.7,47.3,380.4,54.6,381.2z M163.4,393.1
	c11.7,1.3,24.2,2.6,27.9,3s10.3,1.1,14.6,1.6l8,0.8l-1.8,2.4l-1.9,2.4l-8-1c-18-2.2-36.8-4-37.2-3.7c-0.2,0.2,0.4,4.7,1.3,10
	l1.7,9.5l4.2,4.6c4.1,4.5,5.9,8,5.9,11.9c0,2.3,1.9,3.9,5.3,4.4l3,0.5l-1.3,1.9c-0.7,1-3.9,6.2-7.1,11.6l-5.9,9.7l0.4,4.5
	c0.4,4.2,0.2,4.9-1.7,8c-2.2,3.3-3.7,4.4-3.7,2.5c0-0.6-1.3-2.6-2.8-4.5l-2.8-3.6l1.4-2.3c0.7-1.3,2.1-3.7,2.9-5.4
	c0.8-1.6,2.3-4.1,3.2-5.5c1.7-2.5,2.4-8.3,1-8.3c-0.4,0-1-0.7-1.2-1.6c-0.4-1.1,0.2-2.7,2.2-5.4c3.1-4.5,3.9-7.8,2.8-10.8
	c-1-2.2-2.2-2.9-6.9-4.5c-2.5-0.8-6.4-0.4-7.3,0.6c-0.2,0.2-1,0.8-1.9,1.3c-0.8,0.4-1.5,1.3-1.5,1.9c0,1.6-1.9,3.6-2.8,3
	c-0.4-0.2-0.5-0.1-0.2,0.4c0.2,0.4-0.1,1.9-1,3.1l-1.4,2.3l-2.2-3.9c-4.2-7.3-7-14.3-7.3-18c-0.1-2-0.7-3.9-1.2-4.2
	c-0.7-0.4-1-3.9-1.2-11.5l-0.3-10.9l1.7,0.4C141.3,390.7,151.7,391.8,163.4,393.1z M184.5,402c6.5,0.8,14.6,1.6,18.1,1.9
	c6.2,0.5,6.9,0.9,5.1,2.5c-0.8,0.7-3.3,0.7-11-0.2c-5.4-0.6-12.5-1.3-15.6-1.6l-5.8-0.5l0.1,2.5c0.2,6.5,0.5,6.8,6.6,7.8
	c3,0.6,8.5,1.2,12.1,1.5c6.6,0.5,6.9,0.7,5.8,2.4c-0.5,0.8-1.6,0.9-6,0.2c-9.6-1.5-13.8-1.8-13-0.9c0.4,0.4,4.1,1.1,8.2,1.6
	c9.6,1,9.9,1.1,8.5,2.6c-1,1-1.9,1-8.2-0.1c-8.3-1.3-8.6-1.3-7.7-0.4c0.4,0.4,3.6,1.1,7.2,1.6c4.4,0.6,6.5,1.2,6.5,1.9
	c0,1.5-0.7,1.6-7.1,0.7c-6.3-1-6.8-0.9-5.9,0.3c0.2,0.4,1.9,0.8,3.6,0.8c1.8,0,4.2,0.2,5.5,0.4c2,0.4,2.2,0.6,1.4,1.9
	c-0.4,0.7-1.4,1.3-2,1.1c-0.6-0.1-2.8-0.5-4.8-0.8c-5-0.7-3.5,0.7,1.6,1.6l3.9,0.6l-2,3.1c-2.1,3.3-3.3,3.7-7.5,2.5
	c-1.9-0.5-2.3-1.6-3.4-7.8c-0.4-2.2-1.6-4.1-4.6-7.3l-4.2-4.3l-1.6-8.6c-0.9-4.7-1.6-8.6-1.4-8.8C167.1,400,170.3,400.3,184.5,402z
	 M222.4,426.6c2.3,13.7,5.3,32.4,6.8,41.6c1.4,9.2,3,18.4,3.4,20.4s0.9,4.4,1,5.2c0.1,0.9-0.4,2.7-1.3,4.1l-1.6,2.6l-1.6-4.5
	l-1.6-4.5l-4.1-0.5c-3.8-0.4-4.3-0.7-7.4-4.4c-1.9-2.2-4.8-5.5-6.7-7.4s-3.2-3.7-3.1-4.1c0.1-0.4,0.1-0.5-0.2-0.2
	c-0.3,0.2-2.2-0.7-4.2-2.3c-7.4-5.6-17-9.7-22.4-9.7h-2.9l1.3-2.5c1-1.8,11.7-19.3,12.6-20.4c0.1-0.1,5.9,0.6,12.9,1.6
	c15.3,2.3,17.2,2.4,17.2,0.6c0-1.3-1.6-11.4-4.7-28.9l-1.7-9.9l1.5-1.5c0.8-0.8,1.7-1.2,2-0.9S220.1,412.9,222.4,426.6z
	 M215.5,419.5c0.9,5.7,2,13.1,2.5,16.4s0.9,6,0.8,6.1c-0.3,0.3-26.6-3.4-27-3.8c-0.2-0.1,0-1,0.4-1.8c0.7-1.4,0.9-1.4,8.4-0.1
	c12.9,2.2,14.9,2.3,14.5,1.3c-0.3-1-3.6-1.7-11.3-2.4c-2.8-0.2-6.3-0.6-7.7-0.8c-2.3-0.4-2.4-0.5-1.3-1.6c1.1-1.1,1.8-1.1,8.5,0.1
	c11.5,2,11.4,2,11.4,0.9c0-1-9.4-2.7-14.6-2.7c-2.5,0-3.8-1.2-2.6-2.4c0.4-0.4,3.3-0.3,8.3,0.5c4.2,0.6,7.8,1,8,0.8
	c1-1-1.2-1.8-6.7-2.3c-6.6-0.5-8.2-1-7.4-2.4c0.4-0.7,2.2-0.7,7.2,0.1c3.7,0.6,6.8,0.9,7,0.8c1-1-1.5-1.7-6.6-2.2
	c-3.3-0.3-5.9-0.7-5.9-0.8c0-1.1,1-2.5,1.7-2.2c2.5,0.7,10.3,1.1,9.9,0.5c-0.2-0.4-2.5-1-4.9-1.3c-2.5-0.3-4.5-0.6-4.5-0.7
	s0.2-0.7,0.4-1.4c0.4-1,1.2-1.1,4.5-0.7c3.8,0.4,4.1,0.4,3.7-1c-1.1-4-1.3-8.6-0.4-9.7c0.9-1,1-0.9,1.6,0.6
	C213.6,408.3,214.6,413.8,215.5,419.5z M100.9,412.4c0,0.8,0.1,1.7,0.2,1.9c0.1,0.3-0.7,0.6-1.9,0.7c-2.4,0.2-2.5-0.2-0.9-2.5
	C99.8,410.6,100.9,410.5,100.9,412.4z M129.7,412.8c-0.2,1-0.1,1.6,0.2,1.5c1.4-1,1.3,1.1-0.2,2.2c-2.2,1.6-5,1.5-6.7-0.1
	c-1.6-1.4-1.7-2.5-0.4-2.5c0.6,0,1.6-0.7,2.4-1.5c0.7-0.8,2.2-1.5,3.2-1.5C129.7,411,130,411.3,129.7,412.8z M106,414.7
	c-1,0.9-1.5,1.9-1.2,2.8c0.2,0.9,0,1.3-0.5,1.1c-0.4-0.1-0.8-1.8-0.8-3.6c0-3.2,0-3.2,2.1-2.5l2.1,0.7L106,414.7z M131.4,419.5
	c-1,1-2.4,2-3.1,2.3c-0.7,0.2-1.2,0.7-1,1c0.2,0.4,0,0.9-0.4,1.2c-0.6,0.3-0.7,0.2-0.4-0.3c0.2-0.4-0.2-1.2-1-1.6
	c-2.3-1.2-1.8-1.9,1.5-1.9c1.8-0.1,3.5-0.6,4.2-1.3C133.2,416.9,133.3,417.4,131.4,419.5z M113.3,419.9c-0.4,1.4,0.6,2.2,1.1,0.9
	c0.1-0.4,1,0.4,2.1,1.6c1,1.3,1.3,1.9,0.5,1.3c-0.7-0.5-1.3-0.7-1.3-0.4s-0.6,0.1-1.3-0.4c-1.1-0.9-1.2-0.9-0.6,0.1s0.5,1-0.7,0
	c-0.7-0.6-1.2-0.7-0.9-0.3c0.3,0.5,0,1.3-0.6,1.8s-1,1.2-0.7,1.5c0.2,0.4,0.1,0.8-0.4,1.1c-0.4,0.2-0.7,0.1-0.7-0.3
	s-0.4-0.8-0.7-0.8c-0.4,0-0.6,0.9-0.4,2l0.4,2.1l-1-1.8c-1-1.7-0.9-1.9,1.8-4.5c1.6-1.5,2.9-3.3,2.9-3.9c0-0.7,0.2-1.3,0.4-1.3
	C113.5,418.4,113.5,419.1,113.3,419.9z M121,421.9c0,0.7-0.4,0.5-1.5-0.3c-0.8-0.7-1.5-1.6-1.5-1.9c0-0.4,0.7-0.2,1.5,0.3
	S121,421.4,121,421.9z M131.2,422.4c-0.3,0.7,0.4,1.8,1.7,2.8c1.9,1.6,2.3,3.6,0.6,3.6c-0.4,0-0.6-0.5-0.3-1.1
	c0.2-0.6,0.1-1.1-0.3-1.1c-0.4,0-0.7,0.4-0.7,1s-0.2,1.2-0.5,1.4c-0.4,0.1-0.2,0.1,0.3,0.1c0.5-0.1,1.1,0.1,1.3,0.4
	c0.4,0.8-1.7,1.7-2.8,1.1c-0.5-0.2-0.2,0.1,0.5,0.7c1.2,1,1.6,1,2.1,0.2c0.4-0.6,0.6-0.3,0.6,0.7s0.4,1.7,0.7,1.7
	c1,0-0.9,3.8-2.5,5.1c-0.9,0.7-1.2,0.7-1.6-0.3c-0.3-0.7-0.9-1-1.6-0.7c-0.7,0.2-0.9,0.1-0.7-0.4c0.3-0.4-0.2-0.5-1.6-0.2
	c-1.4,0.4-1.9,0.3-1.5-0.4c0.4-0.7-0.4-1.1-1.9-0.9c-0.3,0-0.4-0.4-0.1-1c0.2-0.7-0.1-1-1-1c-1.7,0.1-1.5-3,0.3-4.7
	c0.7-0.6,1-0.7,0.7-0.2c-0.5,1,2.1,2.1,3.2,1.4c0.4-0.3,0.9,0,1,0.4c0.3,0.7,0.4,0.6,0.4-0.2c0.1-0.6-0.4-1.6-0.8-2.1
	c-0.8-0.7-0.7-0.8,0.4-0.4c0.7,0.3,1.3,0.9,1.3,1.3s0.2,0.6,0.4,0.3c0.2-0.2-0.1-1.2-0.7-2.2c-1.7-2.4-1.5-2.8,1-2.4
	c1.5,0.3,2.2,0.1,2.2-0.4s-0.5-0.8-1.2-0.7c-0.7,0.1-1.4-0.3-1.6-0.9c-0.3-0.9-0.2-0.9,0.4-0.1c0.5,0.8,0.7,0.7,1.1-0.5
	c0.2-0.9,0.6-1.6,0.9-1.6S131.4,421.8,131.2,422.4z M134.7,424.9c-0.1,0.1-0.7,0-1.4-0.3c-1-0.4-1-0.7-0.3-1.6c0.7-1,1-1,1.4,0.3
	C134.7,424.1,134.8,424.8,134.7,424.9z M93.4,425.6c0.4,0.7,1,1.2,1.3,1c1-0.6,1.2,4.5,0.2,5.5c-0.7,0.6-0.7,0.1-0.4-2
	c0.4-1.8,0.3-2.8-0.3-2.8c-1.3,0-1.9,0.3-1.7,0.9c0.2,0.9-0.4,0.7-2.5-0.6c-1-0.7-2.5-1-3.3-0.8c-2.3,0.6-2.5-0.7-0.2-1.6
	C89.8,424,92.6,424.2,93.4,425.6z M104.4,430.7c2.1,1.6,2.2,1.9,1.5,3.6c-0.9,1.9-2.8,3.1-2.8,1.8c0-0.4-0.7-1.5-1.6-2.4
	c-1.1-1.3-1.4-1.3-1-0.4c0.3,0.8,0.1,1.3-0.3,1.3s-0.8-0.4-0.8-0.7c0-0.4-0.4-0.7-0.8-0.7s-0.5,0.4-0.2,0.9s0.3,0.7-0.1,0.4
	c-0.3-0.3-1.1-0.1-1.7,0.4c-0.7,0.4-0.4-0.1,0.5-1.5c1.3-1.8,1.6-2.9,1.3-4.7l-0.4-2.4l2.1,1.3C101.1,428.4,103,429.8,104.4,430.7z
	 M146.3,435.5c0.8,1.6,1.3,3,1.1,3c-0.1,0-1-1.3-1.9-3c-0.8-1.6-1.3-3-1.1-3C144.5,432.5,145.4,433.9,146.3,435.5z M141.3,436
	c-0.4,0.8-0.2,1,0.4,0.7c0.6-0.4,0.5,0.1-0.2,1.6c-0.7,1.3-1.5,2.5-1.9,2.8c-1,0.7-1-5.1,0.1-6.2C140.8,433.8,141.9,434.5,141.3,436
	z M102.4,436.3c0,0.4-1,0.6-2.2,0.5c-2.6-0.2-3-1.1-0.5-1.5C101.6,435,102.4,435.3,102.4,436.3z M135.2,440.3
	c-0.4,0.5-0.7,1.6-0.4,2.4c0.3,1,0.2,1.1-0.2,0.4c-0.4-0.5-1.3-0.7-2.2-0.5c-1,0.4-0.7-0.1,0.8-1.4
	C135.7,439,136.5,438.7,135.2,440.3z M146.3,441.6c1,1.3,1.3,2.1,0.8,1.8c-1.5-0.9-1.9,1.7-0.6,3.2c0.7,0.7,1.2,1.6,1.2,1.9
	s-1-0.7-2.3-2.2s-2.8-2.5-3.4-2.3c-0.8,0.3-0.8,0.1-0.2-1c0.4-0.8,1.1-1.5,1.5-1.5s0.7-0.2,0.7-0.6
	C143.6,438.5,144.3,438.8,146.3,441.6z M269.3,441.9c4.5,0.6,22.1,2.9,39,5.1c17,2.3,32.7,4.5,35,4.8c2.2,0.4,8.3,1.2,13.4,1.9
	c14.3,1.8,14.4,1.8,15.2,5.1c0.4,1.5,0.6,2.9,0.4,3c-0.1,0.1-2.2,0-4.4-0.3c-10.3-1.6-26.5-3.9-34.6-4.8c-11-1.3-35.4-4.5-45.4-5.9
	c-4.1-0.6-12.9-1.8-19.7-2.6c-6.7-0.9-12.3-1.6-12.3-1.7c-0.4-0.5-0.9-5.7-0.6-5.9C255.7,440.1,257.4,440.3,269.3,441.9z
	 M92.7,441.5c0,0.4-0.3,0.5-0.7,0.3c-0.4-0.2-0.7-0.1-0.7,0.3s-0.4,0.8-0.8,0.8s-0.6-0.3-0.4-0.7c0.3-0.4,0-0.9-0.4-1
	c-0.5-0.2-0.1-0.4,1.1-0.4C91.8,440.7,92.7,441.1,92.7,441.5z M87.2,443.8c0.3,1,0.1,1.8-0.3,1.9s-0.6,0.7-0.4,1.4
	c0.4,1,0.1,1-1.5-0.1c-1.6-1-2.1-1-2.3-0.3c-0.9,2.9-1.2,3-0.8,0.3C82.4,442.6,86.1,440.4,87.2,443.8z M103.9,446.3
	c-0.9,1.1-0.4,2.9,0.7,2.2c1.3-0.7,1.4,2.9,0.1,3.8c-1.1,0.9-1.1,0.9,0.4,0.5c1-0.2,1.6-0.1,1.6,0.4c0,0.4-1.2,0.7-3,0.7
	c-1.6-0.1-2.8-0.4-2.5-0.8c0.2-0.4-0.2-0.4-1.1-0.2c-0.8,0.3-1.7,0.2-1.9-0.1c-0.2-0.4,0.1-0.7,0.9-0.6c0.7,0,1.2-0.4,1-1
	c-0.1-0.8,0.1-0.8,0.8,0.1c1.6,2,2.1,1.6,1.7-1.4c-0.3-3.1,0.1-4.7,1.2-4.7C104.5,445.2,104.4,445.6,103.9,446.3z M151.6,448.1
	c0.1,1.3,0.1,2.1-0.3,1.9c-0.6-0.4-0.9-4-0.3-4C151.2,445.9,151.5,446.9,151.6,448.1z M129.7,449.5c0,0.7-0.5,1.4-1,1.4
	c-1.2,0-1.3-0.7-0.1-1.9C129.7,447.8,129.8,447.9,129.7,449.5z M282.3,451.9c11.7,1.6,28.7,3.9,37.9,5.1c9.2,1.3,22.9,3.1,30.5,4.2
	s15.7,2.2,18.1,2.4c2.3,0.2,4.2,0.6,4.2,0.9c0,0.2,1.3,8,3,17.2c5.2,29.2,8,46.5,7.7,46.9c-0.2,0.4-12.6-1.4-31.5-4.8
	c-6-1.1-15.2-3.4-20.8-5.3c-5.5-1.9-13.2-4.1-17.2-5l-7.2-1.6l-4.4,1.5c-2.5,0.8-5.3,1.3-6.2,1c-2.1-0.5-1.3,2.8-7.4-33.8
	c-2.4-14.6-4.7-27-5.1-27.4c-1.2-1.2-1,1,1,12.6c3.7,20.9,8,47.2,7.7,47.5c-0.6,0.7-24.6-4.2-25.5-5.1c-0.6-0.6-2.2-8-3.6-17
	c-1.4-8.8-3.6-21.8-4.9-28.9c-1.2-7.1-2.2-13.2-2.2-13.5c0-0.4,1.1-0.5,2.5-0.3C260,448.7,270.7,450.2,282.3,451.9z M127.7,455.5
	c-0.5,0.4-0.8,1-0.5,1.5s0.1,1.3-0.4,1.8c-0.7,0.8-1.1,0.9-1.9,0.1c-1.3-1.3-1.2-2.2,0.1-1c0.6,0.5,1.2,0.7,1.2,0.3
	c0.1-0.4,0.1-1,0.3-1.4c0.1-0.4,0.2-1,0.2-1.3c0.1-0.3,0.6-0.5,1.1-0.5C128.6,454.8,128.5,455.1,127.7,455.5z M113.3,456.8
	c-0.2,0.4,0.1,1,0.7,1.6c0.6,0.5,1,0.6,1,0.1c0-0.4,0.4-0.7,0.8-0.7s0.5,0.4,0.3,0.9c-0.3,0.5,0.1,0.3,0.7-0.4
	c1-1.3,1.2-1.3,1.2-0.2c0,0.7,0.4,1.3,0.7,1.3c0.4,0,0.7,0.4,0.7,0.9c0,0.7-0.2,0.7-0.8,0.1c-0.4-0.4-1.3-0.7-2-0.4
	c-1,0.4-1,0.5,0.3,1c1,0.4,0.7,0.4-0.8,0.1c-1.2-0.2-3-0.6-3.9-0.7s-3,0-4.7,0.4s-3,0.4-3,0s0.7-0.7,1.6-0.7c0.8,0,1.3-0.2,1.2-0.6
	c-0.2-0.3,0.1-1,0.7-1.5s1-0.8,1-0.6c0,0.1,0.9,0.1,2.1-0.3c1.1-0.4,2.1-0.7,2.2-0.7C113.5,456.3,113.5,456.5,113.3,456.8z
	 M133.8,460.9c0.9,0.5,1.3,5.9,0.4,5.9c-0.4,0-0.4,0.3-0.2,0.7c0.2,0.4,0.1,0.7-0.2,0.7c-1.1,0-1.6-2-1.6-6.2c0-2.2,0.2-3.3,0.4-2.8
	S133.4,460.6,133.8,460.9z M128.4,464.3c-0.5,0.2-0.4,0.7,0.4,1.3c1.4,1,1,3.4-0.6,3.3c-0.7,0-0.7-0.1,0-0.4
	c0.4-0.1,0.9-0.7,0.9-1.1s-0.8-0.2-1.8,0.4c-1.3,0.8-2,0.9-2.4,0.4c-0.3-0.4,0-1.1,0.5-1.5c0.6-0.4,0.7-0.7,0.4-0.7
	s-0.2-0.5,0.3-1.1c0.4-0.6,0.6-1.5,0.3-2c-0.4-0.7-0.2-0.7,0.7,0.1c1.1,0.9,1.3,0.7,1.3-1.1l0.1-2.2l0.3,2.2
	C129.1,463.2,128.9,464.2,128.4,464.3z M51.1,471.1c19.9,3.7,39.3,7.4,43.1,8.3c3.9,0.7,11.6,2.2,17.1,3.3
	c45.7,8.6,68.3,13.1,70,13.7c5.1,2,5.2,2.2,33.7,73.4c14.9,37.5,27.2,69,27.2,70c0,4.5-3.8,5.7-10.8,3.5c-2-0.6-18.1-5.1-35.7-10
	c-17.5-4.8-38.1-10.6-45.7-12.6c-7.6-2.1-23.3-6.5-35-9.7s-26.8-7.4-33.8-9.3c-16.7-4.6-18.1-5.4-21.9-13.2
	c-18-37.6-24.8-52.6-25.1-55c-0.2-1.5-0.7-2.8-1.2-2.8c-0.4,0-0.5-1.1-0.3-2.6c0.3-2,0.1-2.6-0.7-2.6s-1,0.5-0.7,1.6
	c0.7,3-4.5-7.6-16.4-33.2c-9.9-21.5-11.6-25.5-11-27.1c1-2.8,3.3-3.6,7.6-3C13.4,464.1,31.2,467.5,51.1,471.1z M107.9,464
	c-0.2,0.7-1.2,0.9-2.8,0.6l-2.4-0.4l2.2-0.5C108.3,462.9,108.3,462.9,107.9,464z M189,469.6c2.5,1.1,7,3.9,10,6.2
	c6.2,4.6,15.4,13.5,14.4,13.8c-0.4,0.1-4-0.4-8.1-1.2c-4-0.7-7.4-1.3-7.6-1.2c-0.2,0.2,1.7,12.6,3,19.6c0.5,2.6,1.4,5,2,5.4
	c0.6,0.3,3.5,1,6.5,1.5l5.4,1l-1.4,2l-1.4,2l-6.8-1.4c-3.8-0.7-7.1-1.5-7.4-1.7c-0.3-0.2-1.8-3.5-3.3-7.2
	c-3.2-8.3-5.3-11.5-9.3-14.3c-1.7-1.2-4.5-3.6-6.2-5.2c-1.7-1.7-4.3-4-5.7-5.1c-2.2-1.7-2.5-2.2-1.7-3.3c0.5-0.7,2.7-4.1,4.8-7.5
	c3.7-5.9,3.9-6.2,6.2-5.7C183.5,467.4,186.6,468.5,189,469.6z M148.1,472.7c-2.1,0.9-2.8,0.9-2.2,0c0.2-0.4,1.2-0.7,2.1-0.7
	C149.5,472,149.5,472.1,148.1,472.7z M134.4,482.3c1,0.7,1,0.7,0,0.7c-0.6,0-1.6-0.4-2.2-0.7c-1-0.7-1-0.7,0-0.7
	C132.7,481.6,133.8,482,134.4,482.3z M170,485.8c1.6,1.5,2.8,3,2.5,3.5c-0.2,0.4-0.1,0.5,0.4,0.2c0.4-0.3,1.4,0,2.1,0.7
	c1.2,1.2,1.2,1.2-0.1,0.8c-0.8-0.2-3.6-0.8-6.1-1.3c-2.6-0.4-4.7-1-4.7-1.1c0-0.4,2.5-5.5,2.8-5.5C167,483.1,168.4,484.3,170,485.8z
	 M241.4,501.7c1.9,11.2,3.3,38.5,2.6,52.5l-0.5,9.7l-6-1.3c-3.3-0.7-10-2.3-14.9-3.5l-8.8-2.1l-2.8-7l-2.8-7.1l4-2.5
	c2.2-1.4,3.8-2.9,3.6-3.2c-0.2-0.4-0.9-0.3-1.5,0.2c-0.9,0.7-1,0.7-0.6-0.4c0.4-1.2,0.4-1.2-1.8-0.1c-1.4,0.7-2.5,0.9-2.8,0.4
	c-0.2-0.4-0.1-0.7,0.3-0.7c0.4,0,0.8-0.6,0.7-1.3c0-0.7-0.2-0.9-0.4-0.4c-0.9,2.4-1.8,0.7-1.5-2.8c0.4-4.5,4.9-11.2,7.4-11.2
	c0.9,0,6.2,1,11.7,2.2c13.7,2.9,13.2,3.5,10.6-12.5l-2-12.1l1.7-3.4c0.9-1.9,1.8-3.3,1.9-3.1C239.7,492.2,240.5,496.5,241.4,501.7z
	 M236.7,513.5c0.7,5,1.1,9.2,0.8,9.4c-0.3,0.3-5.3-0.4-11.2-1.6l-10.7-2.2l1.2-2c0.7-1.3,1.6-1.9,2.4-1.7c3,0.9,11,2.6,12.5,2.6
	c2,0,2.2-1.9,0.4-7.2c-1.2-3.6-1.1-3.8,0.5-7c1.6-3.3,1.6-3.3,2.2-1.3C235.1,503.7,235.9,508.6,236.7,513.5z M204.6,518.8
	c6,1.4,5.9,1.3,4.2,3.5c-0.8,1.2-2.5,3.3-3.7,4.7l-2.2,2.6l-1.9-4.5c-1.1-2.4-2.2-5.2-2.5-6.2c-0.4-1.5-0.2-1.7,1-1.4
	C200.3,517.8,202.6,518.3,204.6,518.8z M318,519.8c16.1,2.8,23.9,5.7,53.2,19.2c11.5,5.4,18.9,7.9,35.9,12.5
	c14.9,3.9,18.2,5.3,25.5,10c5.5,3.5,8.1,4.4,8.1,2.6c0-0.8-5.4-5.1-9.3-7.6c-4.4-2.7-12-5.6-21-8l-8-2.1l-0.4-5.1
	c-0.3-2.8-0.5-7.4-0.6-10.3l-0.1-5.1l2.8,0.5c15.2,2.6,34.7,0.1,51.7-6.5l6.4-2.5l0.6,2.8c0.9,4.5,0.7,39.3-0.4,47.7
	c-3.2,26.2-10.1,41.3-21.2,46.2c-3.1,1.3-5.2,1.6-10.9,1.6c-6.1,0-8.1-0.4-15.2-2.8c-4.5-1.5-10.6-4.1-13.6-5.7
	c-10.5-5.8-24.2-17-38.3-31.2l-8-8l1.9-1.4c1.3-1,1.8-1.9,1.5-2.6c-0.4-1.1-0.9-1-3.9,0.6c-2.3,1.3-4.6,1.9-6.9,1.8
	c-4.2,0-9.7-2.1-10.8-4c-0.4-0.8-0.9-1.6-1-1.8s-7.7,4.5-10.9,6.8c-1.9,1.4-0.5,3.3,1.6,2.2c1.3-0.7,1.6-0.7,1.6,0.1
	c0,2.9-6,4.4-9.5,2.3c-2.2-1.3-3.9-3.8-3.9-5.9c0-2.3,2.6-6.1,8.3-12c5.1-5.2,5.9-6.2,5.1-7.2c-1.1-1.3-1.7-0.9-10,7.7
	c-5.5,5.7-6.3,7.1-6.4,10.9c0,2.8,0,2.8-2.4,2.4c-3.8-0.7-5.8-3.5-5.8-8c0-5.2,1.5-7.7,8-14.1l5.7-5.6l10-1.3c7.4-1,9.4-1.6,7.8-1.9
	c-1.2-0.3-1.8-0.5-1.2-0.6c0.6,0,0.8-0.3,0.6-0.5c-0.3-0.3-1-0.1-1.6,0.4c-1.3,1-3,0.4-2.2-0.8c0.3-0.4-0.3-0.3-1.3,0.2s-2.4,1-3,1
	c-1.1,0.1-1.2-0.1-0.4-1c0.6-0.7,0-0.6-1.7,0.4c-2.8,1.6-5.1,1.6-3.5-0.1c0.5-0.5,1.2-0.7,1.6-0.5s0.4,0,0.2-0.4
	c-0.8-1.3-3.7-1.8-3.2-0.6c0.2,0.7,0,0.9-0.7,0.7c-0.5-0.2-1.9,0.1-2.9,0.8s-1.9,1-1.9,0.5s0.4-0.9,1-1.1c0.4-0.2,0.1-0.3-0.7-0.3
	c-1,0.1-1.5,0.4-1.3,1c0.3,0.7,0,0.8-0.8,0.5s-1.1-1-0.8-1.6c0.2-0.7,0.2-1-0.1-0.7c-0.3,0.3-1-0.2-1.6-1c-0.9-1.3-1.2-1.3-1.7-0.6
	c-0.5,0.8-0.7,0.8-0.7-0.1c0-0.8-0.1-0.9-0.6-0.2s-0.9,0.7-2-0.1c-1.3-1-1.1-1.2,2.5-3.8c2.3-1.6,3.9-3.3,3.9-4.2c0-2-1-1.8-5.8,1.4
	c-6.3,4.2-6.7,4.5-5.4,2.8c0.9-1.1,0.9-1.3,0.1-0.7c-0.7,0.4-1.4,0.1-2.1-0.7c-0.5-0.8-1-1-1-0.7c0,0.4,0.3,1,0.7,1.4
	c0.4,0.4,0.3,1.1-0.4,1.7c-0.7,0.6-1,0.7-1,0.1c0-0.6-0.4-0.6-1.5,0c-1.3,0.7-1.5,0.6-1.5-0.7c0-0.8-0.3-1.5-0.7-1.5
	c-0.4,0-0.5,0.7-0.4,1.6c0.1,1,0.1,1.3-0.1,0.7c-0.2-0.4-1-0.9-1.6-0.9c-0.8,0-0.5-0.5,1-1.5c1.3-0.8,2-1.5,1.7-1.6
	c-0.4-0.1-0.9-0.2-1.3-0.3s-1-0.2-1.5-0.3c-0.4,0-0.7-0.4-0.7-0.9c0-0.4,0.3-0.6,0.7-0.4c0.4,0.3,0.8,0.1,1-0.3
	c0.1-0.4,2.4-1.9,5.1-3.3C302,516.9,301,516.9,318,519.8z M290.5,526.5c0,0.2-0.5,0.4-1.2,0.4c-0.6,0-0.9-0.4-0.7-0.7
	c0.2-0.4-0.1-0.7-0.9-0.7c-1,0-1.1-0.1-0.3-0.7C288.4,524.2,290.5,525.4,290.5,526.5z M280.8,532.5c0-0.4,0.4,0.1,1,0.9
	c0.4,0.9,1.3,2.3,1.8,3.1c0.9,1.3,0.5,2-2.9,6l-3.9,4.5l-1.2-2c-0.7-1.1-1.8-2.5-2.5-3s-1.3-1.5-1.3-2.1c0-1.7,3.1-6.9,3.9-6.5
	c0.3,0.2,1-0.5,1.3-1.6l0.7-2l1.5,1.7C280.2,532.4,280.8,532.8,280.8,532.5z M306.3,545.6c-5,4.5-6,6.8-6.1,13.2
	c0,2.8-0.2,3.2-1.7,3.2c-3,0-6.8-2.6-8.5-5.9c-2.1-3.9-2.2-6.9-0.2-10c1.4-2.3,1.6-2.4,10.6-3.6c5.1-0.7,9.3-1.4,9.4-1.6
	c0.1-0.1,0.5-0.1,0.7,0.1C310.7,541,308.9,543.2,306.3,545.6z M272.1,545.3c2.1,2.3,2.2,4.9,0.5,7.1c-0.9,1.1-2.3,2.4-3,2.8
	c-1.4,0.7-1.5,0.7-0.4-1c0.9-1.4,1-2.3,0.4-4.5c-0.4-1.5-1-2.9-1.4-3.1c-1-0.7,0-2.6,1.5-2.6C270.4,544.1,271.5,544.7,272.1,545.3z
	 M241.1,567.1c11.5,2.8,25.4,6,30.9,7.1c11.7,2.3,81.2,18.1,81.7,18.6c0.1,0.2,0.1,0.5,0,0.7c-0.1,0.1-11.8,4.9-26,10.5
	c-14.1,5.6-37.3,14.8-51.5,20.4c-14.2,5.7-27,10.6-28.4,10.8c-2.3,0.4-2.7,0.3-3.7-1.8c-1.2-2.2-1.2-2.3,0.4-2.3
	c0.9,0,14.3-5.1,29.7-11.2c23.6-9.4,28.2-11.5,28.2-12.6c0-0.8-0.7-1.8-1.6-2.2c-1-0.4-17.9-4.8-37.8-9.7
	c-38.5-9.6-38.3-9.5-37.8-10c0.1-0.2,6.9,1.3,15,3.3l14.6,3.7l10.9-4c19.4-7.1,19.5-7.1,19.5-8.6c0-1.6,0.9-1.4-17.5-5.5
	c-8.2-1.8-19.5-4.4-25.1-5.8l-10.3-2.5l-6.7,2.3l-6.7,2.3l-1.3-3c-0.7-1.7-1.5-3.9-1.9-4.8C215.1,560.6,213.3,560.3,241.1,567.1z
	 M251.8,573.4c9.6,2.2,20.2,4.6,23.3,5.4l5.9,1.3l-12.6,4.7c-6.9,2.6-13.1,4.7-13.8,4.8c-0.7,0-6.3-1.3-12.6-3
	c-6.2-1.6-13-3.4-15-3.9c-3.2-0.8-3.7-1.2-5-4.1c-2.4-5.5-2.4-5.4,4.2-7.7c3.3-1.2,6.5-2,7.1-1.8
	C233.9,569.1,242.3,571.1,251.8,573.4z M235.1,591.3c4.1,1,8.6,2.3,10,2.8l2.5,0.8l-2.5,1c-2.2,1-3.2,0.9-9.2-0.6
	c-7.3-1.8-8.2-2.2-8.8-4.4C226.6,589.1,226.2,589.1,235.1,591.3z M258.2,597.2l3.7,1l-2.1,0.9c-2.7,1-3.9,1-8.8-0.1l-3.9-0.9l2.2-1
	C252.1,595.9,253.6,595.9,258.2,597.2z M235.9,598.4c0.4,0.4,0.5,0.7,0.3,0.7c-0.1,0-1.3,0.3-2.6,0.7c-2.1,0.6-2.5,0.4-3.2-1.2
	c-0.9-1.9-0.8-1.9,1.9-1.3C233.9,597.5,235.4,598.1,235.9,598.4z M355.1,598.9c-0.2,1.9-1.7,2.6-28.9,13.8
	c-15.8,6.5-28.8,11.7-28.9,11.7c-0.2,0,0.3-0.4,1.1-1c1.2-0.9,1.3-1.3,0.5-2.5c-0.8-1.4-0.3-1.7,7.4-4.9c16.7-6.9,47-18.9,48-19
	C355,596.9,355.2,597.5,355.1,598.9z M273,600.9c0.4,0.1-0.5,0.8-2.2,1.5c-2.5,1-3.3,1-6.3,0.1c-3.3-1-3.3-1-1.6-1.7
	C266.9,599.2,267.5,599.2,273,600.9z M245.5,600.7l3,0.9l-2.5,0.9c-1.9,0.6-3.5,0.7-5.9,0.1l-3.3-0.7l2.5-0.9
	C242.5,599.7,242.1,599.7,245.5,600.7z M282.3,603.1l3.3,1l-2.7,1.1c-2.2,1-3.2,1-6.3,0.2l-3.6-1l2.6-1.2
	C278.9,601.9,278.4,601.9,282.3,603.1z M258.2,603.9l2.2,1l-3.3,0.5c-1.9,0.3-4.5,0.2-5.9-0.1l-2.6-0.7l1.9-0.8
	C252.9,602.7,255.5,602.7,258.2,603.9z M243.3,606.2l2.2,0.5l-2.7,1c-2.1,0.7-3.5,0.7-5.6,0.1l-2.8-0.8l2.2-1
	c1.3-0.5,2.8-0.8,3.3-0.7C240.5,605.6,242,605.9,243.3,606.2z M296.5,606.5c1.8,0.5,1.8,0.6-1.1,1.8c-2.5,1.1-3.5,1.1-6.7,0.4
	l-3.7-0.9l3-1.3C290.7,605.2,291.6,605.2,296.5,606.5z M277,608.5l10.9,2.8l-2.6,1c-2.5,1-3.3,0.9-12.3-1.3
	c-5.3-1.3-10.3-2.7-11.2-3c-1.4-0.5-1.4-0.6,0.4-1.3C264.9,605.6,265,605.6,277,608.5z M254.8,609.1l2.6,1l-2.6,0.6
	c-2.9,0.7-2.9,0.7-7.1,0l-3-0.6l2.2-1C249.8,607.9,251.5,607.9,254.8,609.1z M238.5,611.4c0,0.1-0.7,0.4-1.5,0.6
	c-0.9,0.2-1.5,0-1.5-0.6s0.6-0.8,1.5-0.6C237.8,611,238.5,611.3,238.5,611.4z M269.7,613.1l7.8,2.1l-2.5,1.1
	c-2.4,1-3.2,0.9-10.7-1.2c-8.2-2.2-8.2-2.2-5.7-3.1c1.4-0.5,2.7-1,2.9-1S265.4,612,269.7,613.1z M247.5,615.3
	c-2.3,1.1-9.1,0.7-9.1-0.5c0-1.3,4.8-2,8.1-1.3l3.3,0.7L247.5,615.3z M266.7,619.2c0,0.3-0.8,0.9-1.9,1.3c-1.6,0.7-3.1,0.6-8.2-0.7
	c-3.5-1-6.3-1.9-6.3-2.1c0-0.3,0.9-0.8,2.1-1.2c1.5-0.5,3.6-0.4,8.2,0.7C264,618.1,266.7,618.9,266.7,619.2z M243.3,619.5l2.2,1
	l-2.8,0.9c-3.2,1-3.1,1.1-3.8-1.3C238.2,618.1,239.7,617.9,243.3,619.5z M295.8,621c-0.7,0.8-0.7,1.5-0.1,2.5
	c0.7,1.3,0.2,1.6-4.2,3.4c-2.8,1-5.2,1.9-5.4,1.9c-0.2,0-0.4-1.1-0.4-2.4c0-2.3,0.2-2.5,5.2-4.5C297.1,619.6,296.9,619.6,295.8,621z
	 M471.8,621.9c0,1.6-0.1,1.7-0.7,0.7c-0.4-0.7-0.4-1.6-0.2-1.9C471.6,619.5,471.8,619.8,471.8,621.9z M146.6,623.6l7.4,2.2l-7.4-0.2
	c-7.3-0.3-8.6-0.7-8.6-3.2C138.1,621.1,138.1,621.1,146.6,623.6z M254.7,622.4l2.5,0.9l-2,0.9c-1.6,0.7-2.9,0.7-6.1,0.1l-4-0.9
	l2.1-1C249.8,621.3,251.5,621.3,254.7,622.4z M244.4,626.2l3.3,1l-2.8,0.4c-2.2,0.2-3,0-3.6-1c-0.4-0.7-0.6-1.3-0.5-1.3
	C241,625.1,242.6,625.6,244.4,626.2z M276.4,630c0,1,0.4,1.9,1,1.9s0.5,0.3-0.2,0.7c-1.9,1.2-2.2,0.9-2.2-1.9c0-1.4,0.4-2.6,0.7-2.6
	C276.1,628.1,276.4,628.9,276.4,630z M265.6,634.5c0,2.5-2,4.8-3.1,3.7c-0.3-0.2-0.1-0.4,0.4-0.4c1.5,0,1-3.7-0.4-3.7
	c-0.9-0.1-0.5-0.4,0.9-1.1c1.3-0.5,2.2-1,2.2-1C265.6,631.8,265.6,633,265.6,634.5z M253.8,637.7c-0.7,1.1,0.4,3,1.7,3.1
	c2.4,0.1-4.8,2.8-7.6,2.9c-2.8,0-2.9,0-2.4-2.5c0.3-1.3,0.6-2.4,0.7-2.5c0.1-0.1,6.6-1.6,7.4-1.7C253.9,637.1,254,637.3,253.8,637.7
	z M344.7,310.6c0,0,1.2,4.1,5.3,5.1l2.9,23.2c0,0-3.4,0.7-4.1,4.6s-5,25.6-33.5,50.6c0,0-18.2,15.7-38.6,6.1s-31.5-34.7-31.5-34.7
	l-3-8.6c0,0,10.5,14.2,12.9,7.1s-1-13.7,9.4-16.2c0,0,6.4,3.1,17.5-2.8s27-3.3,31.8,6c0,0,2.8,4,5.4,1S340.1,334,344.7,310.6z"/>
<path d="M298.5,265.6c-1.6,0.6-6.5,3.6-10.9,6.7c-4.5,3.1-10,6.5-12.3,7.4c-3.3,1.5-4.1,2.2-4.1,3.6c0,3.6,5.4,7.8,8.8,6.9
	c1.3-0.3,1.4,0.1,1.7,4.8c0.3,6.2,2.8,10.3,8.4,13.7c3.2,2,4.2,2.2,9.6,2.2c4.5,0,6.8-0.4,9.4-1.6c4.5-2.1,8.6-5.8,10.6-9.5
	c1.9-3.7,2.1-10.9,0.3-14.2c-1.9-3.8-7-8.6-9.1-8.6c-2.5,0-2.4,1.7,0.1,3c1,0.6,2.9,2.3,4.2,3.9l2.2,2.8h-3c-7.5,0-25.5,4.7-29,7.6
	c-1,0.9-1.1,0.6-0.7-2.4c0.4-2.6,1.2-3.9,3.3-5.9c5.6-5,11.4-9.1,15.5-11c3.7-1.7,5.3-2,10.8-1.9c3.8,0.1,6.7-0.2,7-0.7
	c0.9-1.3-3.1-4.4-8.2-6.2C307.8,264.2,302.8,264,298.5,265.6z M311,268.9c1,0.4,0.5,0.7-2.2,1c-4.9,0.7-10.4,3.3-14.9,7.1
	c-12,9.9-15,11.4-17.8,8.6c-1.7-1.6-1.5-2.1,1.3-3.1c1.3-0.4,4.9-2.6,8-4.7c10.8-7.3,13.2-8.8,15.7-9.5
	C303.5,267.6,308.1,267.8,311,268.9z M318,292.5c0,3.4-2.2,8.2-4.5,10.4c-3.2,3-8.8,4.9-14.1,5c-4.2,0.1-5.4-0.2-8-2
	c-2.8-1.8-6-5.8-6-7.4c0-1.9,15.7-7.1,23.8-8C318.6,289.5,318,289.4,318,292.5z"/>
<path d="M292.4,299.6c-0.4,1.2-0.6,2.9-0.4,4.2c0.1,1.5,4.8,3.4,7.1,2.8c1.9-0.4,2-0.7,1.6-3.1c-0.2-1.5-0.8-3.1-1.3-3.7
	C298.3,298.4,292.8,298.3,292.4,299.6z"/>
<path d="M354.5,272.6c-5.1,4.8-6,12.3-2.2,17.9c2,3,2.2,3.7,1.8,6.8c-0.6,4,0.4,4.7,2.3,1.7c1.6-2.4,1-7.2-1.1-10.1
	c-1.7-2.3-2.1-7.4-0.8-10.7c0.4-1,1.9-2.9,3.1-4.2c2.1-1.9,2.2-2.3,1.3-2.9C357.3,270.1,357.1,270.2,354.5,272.6z"/>
<path d="M265,279.1c-2.1,2.1,2.4,12.1,5.4,12.1c1.2,0,0.9-1.3-1.1-4.2c-1-1.6-2.1-4-2.3-5.7C266.6,278.7,266,278.1,265,279.1z"/>
<path d="M287.2,309.7c-0.2,0.4,0.5,1.5,1.6,2.5c4,3.8,12,6.5,13.5,4.7c1-1.2,0.6-1.5-3.7-2.6c-1.9-0.4-4.9-1.9-6.9-3
	C287.9,308.9,287.8,308.8,287.2,309.7z"/>
<path d="M241,310.9c-0.2,0.6-0.3,2-0.1,3.2c0.1,1.5,0.7,2.2,1.9,2.3c0.9,0.1,1.6,0.6,1.6,1c0,1.2,3.1,0.7,4.2-0.7
	c1.4-1.9,1.3-2.8-0.8-5C245.6,309.6,241.7,309.2,241,310.9z"/>
<path d="M231.8,391.3c-1.7,4.5-2.5,9.2-2.5,16.3c-0.1,8.6,0.7,13.2,1.9,12.8c0.6-0.1,1-3.9,1.3-11.7c0.3-6.3,0.7-13.2,1-15.4
	C234.3,389,233.1,387.8,231.8,391.3z"/>
<path d="M430.7,402.7c-7.1,1.7-19,10.6-24.5,18.1c-4.1,5.7-7.4,12.8-6.8,14.4c0.7,1.7,1.6,0.8,4.9-5.4c5.5-10,17.2-20.4,26.2-23.5
	c2.5-0.9,5-2.7,5-3.7C435.5,402,433.9,402,430.7,402.7z"/>
<path d="M45.1,390.3c0,1.3,0.4,3.6,0.7,5.1c0.7,2.6,0.9,2.8,4.9,3.3c2.3,0.3,4.3,0.3,4.5,0.1s0-2.5-0.5-5c-1-5-2.2-5.9-7.1-5.9
	C45.3,387.9,45.1,388.1,45.1,390.3z"/>
<path d="M47.3,402c0.1,2.6,2.7,13.4,3.4,14.1c0.4,0.3,2.5,0.7,4.6,1c3.8,0.4,3.9,0.4,3.8-1.6c0-1.1-0.7-4.8-1.6-8.3l-1.6-6.3
	l-4.2-0.4C47.4,400.2,47.3,400.2,47.3,402z"/>
<path d="M351.1,454.8c-0.8,1.3,0.4,3.7,1.9,3.7c0.7,0,1.6-0.5,1.8-1.2C355.6,455.1,352.3,452.9,351.1,454.8z"/>
<path d="M357.6,455.7c-1.1,1.1,0.2,3.6,2,3.6c1.9,0,2.5-1.9,1.1-3.3C359.4,454.6,358.8,454.5,357.6,455.7z"/>
<path d="M364.1,457.7c0,1.5,0.4,2.2,1.5,2.5c2.2,0.5,3.4-1.9,1.8-3.5C365.5,454.9,364.1,455.3,364.1,457.7z"/>
<path d="M261.5,456.1c0,6.2,3,19,4.2,17.8c0.1-0.2,2.4,0.1,4.9,0.7s6.4,1,8.6,1h4l-0.4-2.5c-2.4-13.1-3-15.8-3.6-16.6
	c-0.7-0.8-2.1-1-13.1-2.2l-4.7-0.4v2.2H261.5z"/>
<path d="M287,459c-0.4,1.1,0.3,6.1,1.1,7.4c0.2,0.4,0.5,1.9,0.7,3.3c0.1,1.4,0.5,2.9,0.9,3.3c0.5,0.5,0.4,1.3,0,2.2
	c-0.9,1.6-0.7,1.7,7.1,2.8c3.3,0.4,6.7,1,7.7,1.3c1.1,0.3,1.6,0.1,1.6-0.7c0-0.8-1.6-1.3-6.3-2c-4.8-0.7-6.3-1.2-6.3-2
	c0-1,0.8-1,4.7-0.7c2.5,0.3,5.2,0.7,5.9,0.9c0.8,0.2,1.3,0,1.3-0.7s-1.4-1.3-4.7-1.9c-2.6-0.4-5.3-0.8-5.9-0.8
	c-0.7,0-1.3-0.4-1.3-0.7c0-0.8,1.7-0.9,7.3-0.1c3.3,0.4,3.9,0.4,3.9-0.7c0-1-1-1.3-4.2-1.7c-4.3-0.5-7.9-1.8-5.4-2
	c1.9-0.1,5.4,0.1,7.7,0.5c1.5,0.3,2,0.1,2-0.7c0-1.2-1-1.6-6.1-2.3c-2-0.2-3.6-0.9-3.6-1.3c0-1.8-1.2-2.7-4.3-3.4
	C288.1,458.1,287.4,458.2,287,459z"/>
<path d="M306.9,462.1c0,2.2,6.4,40,7.4,44.2c0.5,1.9,1.2,3.6,1.5,3.9c0.2,0.1,8.3,1.6,17.9,3.3c9.6,1.6,22.2,3.9,28.2,4.9
	c5.9,1,11.9,1.9,13.2,1.9h2.5l-0.5-3.2c-0.3-1.7-1.3-7.5-2.2-12.8c-1-5.4-2.7-15.2-3.8-22.1c-1.6-9.6-2.3-12.6-3.2-12.8
	c-1.6-0.5-18.7-2.9-39.5-5.7c-9.6-1.3-18.4-2.5-19.5-2.7C307.2,460.7,306.9,460.9,306.9,462.1z M337.4,466.7c26.1,3.6,28.5,4,29.4,4
	c0.4,0.1,1.3,3.4,2.1,7.5c0.7,4.1,2.6,14.8,4.2,23.8s2.8,16.5,2.6,16.7c-0.1,0.1-2.7-0.3-5.7-0.9c-3-0.7-16.2-2.9-29.4-5.1
	c-19.1-3-24.1-4.1-24.3-5.1c-0.2-0.7-1.9-10.5-3.8-21.8s-3.6-21.1-3.9-21.9C308.1,462.6,307.2,462.5,337.4,466.7z"/>
<path d="M310.9,470.5c0.2,1.7,0.6,3.3,0.8,3.5c0.4,0.4,5.3,1.3,19,3.1c5.9,0.8,11.6,1.6,12.6,1.8c2.1,0.4,15.7,2.4,21,3l3.5,0.5V480
	c0-4.6-0.1-4.7-21.9-7.7c-11-1.5-20.9-2.8-21.9-3c-1-0.1-3.5-0.5-5.6-0.7c-2-0.2-4.7-0.7-5.9-0.9
	C310.4,467.3,310.4,467.3,310.9,470.5z"/>
<path d="M316.5,477.7c0,1.2,1.3,1.4,16.4,3.6c12.5,1.8,16.1,1.9,14.7,0.6c-0.2-0.2-5.9-1.3-12.6-2.2s-13.6-2-15.3-2.3
	C317.7,477.1,316.5,477.2,316.5,477.7z"/>
<path d="M317.3,481.5c0,1.1,3.6,1.8,22.7,4.5c20.3,3,18.5,2.8,19,1.9c0.1-0.4-3-1.3-7.8-2c-6.9-1-13.6-2.1-24.9-3.9
	C319.4,480.9,317.3,480.9,317.3,481.5z"/>
<path d="M319,486.4c0.7,0.6,3.4,1.3,5.9,1.6s8.3,1.2,12.8,1.9c4.8,0.7,8.5,1,8.8,0.7c0.4-0.4,0.3-0.8-0.4-1
	c-1.5-0.5-25.5-4.2-27.2-4.2C317.7,485.4,317.7,485.4,319,486.4z"/>
<path d="M322.2,491.3c0.7,0.7,3.3,1.3,12.6,2.6c1.6,0.3,7,1.1,11.9,1.9c10,1.6,13.7,1.8,12.6,0.7c-0.4-0.4-5.4-1.4-11.1-2.2
	c-5.7-0.8-13-2-16.3-2.6C324.9,490.3,321.1,490.2,322.2,491.3z"/>
<path d="M319.8,494.8c0.2,0.4,1.7,1,3.3,1.2c1.5,0.2,8,1.3,14.5,2.3c6.5,1.1,12.1,1.8,12.6,1.6c1.9-0.7-3.2-2-13.2-3.6
	C322.3,494.2,319.2,493.9,319.8,494.8z"/>
<path d="M321.2,498.8c0.2,0.6,2.5,1.4,5.5,1.9c2.8,0.4,8,1.3,11.5,2c3.5,0.6,10.3,1.6,15.1,2.3c8,1.1,10.5,1.1,9.3,0
	c-0.4-0.4-22.6-4.3-32.2-5.6c-3.3-0.4-6.8-1-7.7-1.3C321.3,497.9,320.9,498,321.2,498.8z"/>
<path d="M321.7,503.2c0,0.8,0.9,1.3,3,1.6c33.6,5.6,39.4,6.3,37.8,4.6c-0.3-0.2-12.6-2.3-39.1-6.6
	C322.5,502.7,321.7,502.9,321.7,503.2z"/>
<path d="M264.5,478.6c0,0.7,7.9,2.1,15.6,2.8c7.4,0.7,3-1.1-5.5-2.4C265.2,477.7,264.5,477.7,264.5,478.6z"/>
<path d="M265.5,483c0.7,1.2,18.3,3.6,18.3,2.5c0-0.4-3.8-1.2-8.3-1.9C265.9,482.1,265,482.1,265.5,483z"/>
<path d="M266.3,487c-0.5,0.8,0.3,1,8.7,2.4c8.3,1.4,9.6,1.4,9.6,0.5c0-0.4-1.6-1-3.5-1.3c-2-0.2-6-0.9-9-1.3
	C269.1,486.7,266.5,486.6,266.3,487z"/>
<path d="M5.9,465c-2.3,0.8-0.7,2.4,3,3.1c7,1.5,95.3,18.5,131.4,25.4c19.4,3.7,36,6.9,36.9,7.1c0.8,0.1,2.8,1.6,4.2,3
	c2.3,2.3,2.8,2.5,3.2,1.5c0.8-2-3.9-6.2-8.3-7.5c-2-0.6-10-2.2-17.8-3.7c-12.6-2.4-41.6-8-87-16.7c-8.2-1.6-20.4-3.9-27.1-5.2
	s-14.6-2.8-17.5-3.3c-2.8-0.6-8.2-1.6-11.9-2.2c-3.6-0.7-7-1.3-7.4-1.4C7.2,464.8,6.4,464.9,5.9,465z"/>
<path d="M185.2,508.6c-0.4,1,51.2,131,52.6,132.5c1,1.2,2-1,1.3-3.3c-1.1-3.6-26.7-68-45.2-113.8C187.9,509,186.3,506.1,185.2,508.6
	z"/>
<path d="M36.4,525.3c-1.5,0.5-1.1,1.4,0.5,1.5c0.8,0.1,1.5-0.1,1.5-0.5C38.4,525.3,37.5,524.9,36.4,525.3z"/>
<path d="M109.1,536.6c-1.7,1.7-2.7,4.7-2.1,6.3c0.3,0.7-0.2,1-2.1,1c-7.6-0.2-7.4,8.8,0.3,19c3.9,5.1,7.5,7.6,10.3,7.1
	c1.2-0.2,3.6,0.1,5.6,0.8c3.3,1.1,3.6,1.1,5-0.1c1.7-1.6,2.7-5.5,2.1-8.1c-0.3-0.9-1.4-2.2-2.6-2.9c-2.9-1.7-5.1-6.3-3.9-8.2
	c0.4-0.7,0.8-1.8,0.8-2.4c0-1.6-4.2-4.2-7.4-4.7l-2.8-0.4l0.8-3C114.3,536.3,112,533.7,109.1,536.6z M112.2,547.6
	c1.6-0.4,3.1-0.4,4.5,0.1c1.8,0.7,2,1,1.6,3c-0.7,3.2,0.8,6.8,4.2,10.1c3.3,3.2,3.3,3.2,2.2,5.9c-0.7,1.9-0.7,1.9-3.5,0.7
	c-1.7-0.7-3.8-1-5.2-0.7c-2.2,0.4-2.8,0.1-5.8-3c-3.5-3.5-7.8-11.4-7.8-14.3c0-2.4,2.1-3.3,5-2.1
	C109.1,548.2,110.4,548.2,112.2,547.6z"/>
<path d="M322.6,529.9c-1.3,0.9-0.5,3,1.3,3c1.6,0,3.1-1.3,3.1-2.8C327,529,324.1,528.9,322.6,529.9z"/>
<path d="M334.8,541.4c-1.2,0.9-1.3,1.3-0.5,2.1c1.1,1.1,3.5,0,3.5-1.6C337.7,540.3,336.4,540.2,334.8,541.4z"/>
<path d="M289.1,623.6c-1.4,0.9-0.4,3.2,1.2,2.9s2.3-3.6,0.8-3.6C290.6,622.9,289.7,623.2,289.1,623.6z"/>
<path d="M470.6,522.2c-1.1,4.9-1.5,11.9-0.7,12.7c0.5,0.4,0.8-3.9,0.5-8.6c-0.1-3.1,1.1-3.1,1.3,0c0.1,1.3,0.4,2.5,0.5,2.8
	c0.5,0.5,0.4-5.1-0.2-8.4l-0.5-3L470.6,522.2z"/>
<path d="M469.5,536.9c-0.3,0.7-0.4,1.6-0.1,1.8c0.7,0.7,1.3-0.4,1-1.9C470.1,535.6,470,535.6,469.5,536.9z"/>
<path d="M471.9,546.4c-0.4,1.3-0.1,7.5,0.2,7.7c0.4,0.2,0.6-1.5,0.6-3.7c0-2.3-0.1-4.2-0.4-4.2S472,546.4,471.9,546.4z"/>
<path d="M471.9,559.5c-0.1,3.4,0.1,7.9,0.4,8.3c0.2,0.1,0.4-2.1,0.4-5c0-3-0.1-5.4-0.4-5.4S471.9,558.3,471.9,559.5z"/>
<path d="M471.8,578.7c-0.1,3.9,0,7.7,0.3,8.3s0.5-2.5,0.5-7.1c0.1-4.5-0.1-8.3-0.2-8.3C472.2,571.6,472,574.8,471.8,578.7z"/>
<path d="M472.2,598.4c0,3,0.1,4.3,0.3,2.8c0.1-1.5,0.1-4,0-5.6C472.3,594,472.2,595.3,472.2,598.4z"/>
<path d="M471.8,610c0.3,7.7,0.9,8,0.9,0.4c0-3.3-0.2-6.1-0.5-6.1C471.8,604.3,471.7,606.9,471.8,610z"/>
<path d="M243.1,650.9c1.1,0.1,2.9,0.1,4.1,0c1.1-0.1,0.1-0.3-2.1-0.3C242.9,650.6,242,650.8,243.1,650.9z"/>
<path d="M296.1,357c-9.8,3.8-16.6,5.4-24.9,6c-4.2,0.3-7.7,0.7-7.8,1c-0.2,0.3,0.1,1,0.7,1.5c1.6,1.3,14.9,0.4,21.6-1.4
	c10.6-3,18.6-6.5,18.6-7.9c0-0.7-0.3-1.5-0.7-1.6C303.2,354.6,299.8,355.6,296.1,357z"/>
</svg>
