<?xml version="1.0" encoding="utf-8"?>
<!-- Generator: Adobe Illustrator 30.3.0, SVG Export Plug-In . SVG Version: 9.03 Build 0)  -->
<svg version="1.0" id="Layer_1" xmlns="http://www.w3.org/2000/svg" xmlns:xlink="http://www.w3.org/1999/xlink" x="0px" y="0px"
	 viewBox="0 0 499.8 730.9" style="enable-background:new 0 0 499.8 730.9;" xml:space="preserve">
<path d="M451.6,23.4c-3.6,0.7-2.5,2,2,2.3c3.2,0.3,4.1,0.1,3.9-1C457.3,23.1,455.1,22.6,451.6,23.4z"/>
<path d="M28.8,63.1c0,19.7,0.4,36,0.8,36.2c0.5,0.3,0.8-13.8,0.8-31.1c0-17.4,0.1-32.2,0.2-32.7c0.6-2.6-0.1-8.1-1-8.1
	C29,27.4,28.7,40.5,28.8,63.1z"/>
<path d="M456.7,31c-0.9,0.9-0.7,11.6,0.3,14.6c0.5,1.5,0.8-0.7,0.8-6.5c0-4.8-0.1-8.8-0.2-8.8C457.4,30.3,457,30.6,456.7,31z"/>
<path d="M194,89.3c-4.5,0.9-5.1,1.5-3.7,3.8c1.2,2.1,2.1,1.7-9.3,3.9c-16.9,3.1-35.6,12.9-48.3,24.9c-3.3,3-4.2,6.4-1.7,6.4
	c2.2,0,1.8,0.5-3.3,5.3c-8.5,8-14.9,20-16.8,31.5c-0.9,5.3,1.2,6.3,5.4,2.8c1.6-1.4,3.1-2.4,3.3-2.3c0.1,0.2-0.6,3.3-1.6,6.9
	c-2,7.3-2.6,24-0.9,27.2c1.3,2.5,3.7,2.3,4.8-0.4c0.5-1.1,0.9-1.7,1-1.1c0.7,8.4,5,19.5,10.9,28.1c1.7,2.5,4.2,8.6,6,14.8
	c5.3,18.2,14.4,55.9,14.9,62.7c1,10.7,3.2,18.7,7.9,28c2.4,4.9,4.2,8.9,4,9.1c-0.2,0.1-3.6,1-7.5,1.7c-9.8,2.1-22.5,6.9-45.3,17.4
	c-22.9,10.5-25.5,11.9-25.9,14.4c-0.2,1.4-1.9,2.7-5.7,4.2c-20.8,8.3-59.7,31.3-66,39c-8.6,10.3-11.5,34.1-7,55.7
	c2,9.5,8.7,26.8,14.8,38.2c4.4,8.3,4.6,9,4.9,17.1c0.2,4.7-0.5,14.8-1.3,22.5c-2,17.2-2.1,37.9-0.2,55.5c0.8,7.3,1.4,17,1.4,21.6
	c0,4.7,0.4,8.4,0.9,8.4s1-1,1.2-2.1c0.3-1.7,0.5-1.5,0.9,1c0.5,2.6,0.3,3-1,2.6c-1-0.4-1.8,0.1-2.1,1.1c-0.3,1-2.2,2.2-4.5,3
	c-5.1,1.5-11.5,5.5-11.5,7.2c0,0.7-0.7,1.9-1.5,2.6c-3,2.4-7,10.9-8.6,17.8c-1.8,8.3-1.1,19.2,1.1,19.2c1.2,0,1.3-1.1,0.9-6.5
	c-1-9.1,2.1-20.1,7.4-27.3c2.6-3.3,2.8-0.8,0.3,3c-3.8,5.8-5.6,13.8-5.1,22.4c0.5,7.4,1.5,10.2,3.5,8.9c0.8-0.5,0.8-1.2,0.1-2.5
	c-1.5-2.9-1-13.6,0.9-19.8c1.9-6.3,5.2-11.6,7.2-11.6c0.7,0,3.1-1,5.3-2.4c2.3-1.3,4.4-2.4,4.7-2.4s0.3,3,0.2,6.8
	c-0.2,3.7,0,7.1,0.5,7.6s3,1,5.5,1.2c4.6,0.4,4.7,0.5,7.3,5.6c3.1,6.3,6.3,8.7,13.7,10.7c11.4,3,16.9,1.5,34.6-8.9l11.9-7l33.3-0.2
	c23.5-0.2,33.4-0.6,33.7-1.3c0.2-0.7,1-0.6,2.4,0.4c1.1,0.8,2.7,1.4,3.4,1.4c1.8,0,0.5-1.2-1.6-1.5c-0.9-0.2-1.7-0.8-1.9-1.2
	c-0.3-0.8-10.5-1-31.4-1c-30.9,0-31.1-0.1-28.8-1.9c4.1-3.1,24.7-13.3,26.9-13.3c1.2,0,12.9,5,26,11.3c13,6.2,26.6,12.4,30,13.8
	c10.2,4,24.2,5.4,31.8,3.3c4.1-1.1,10.9-7.4,10.9-10.1c0-1.2,0.7-1.3,4.1-0.7c2.2,0.5,51.4,0.8,109.5,0.8
	c103.3,0,109.7-0.2,107.1-2.9c-0.3-0.3-11.5-0.6-24.8-0.6l-24.3-0.1l-0.4-3.6c-0.3-3.6-0.2-3.7,3-4.3c6-1,9.4-2.4,15-6.1
	c12.1-8.1,19.3-24,23.4-51.4c2.2-15,3.5-41.7,2.6-53.8c-0.6-7.4-0.5-10.7,0.3-11.1c0.6-0.4,3.3-1.2,6.1-1.8l5-1.1l3.7,3.9
	c4.7,5.1,14.4,9.7,20.8,9.7c9.4,0,18.4-5,22.3-12.7c3-6,3.4-16.8,0.8-23.7c-2.5-6.6-8.3-12.2-15.3-14.7c-4.7-1.7-4.7-1.7-2.4-3
	c5.1-2.7,6.1-10.2,1.8-13.6c-3.3-2.7-9.4-2.1-11.9,1c-1.9,2.4-2.3,8.6-0.6,10.3c1.6,1.6,0.8,1.8-4.8,0.9l-5-0.9l3.1-2.1
	c5.3-3.5,4.9-11.1-0.8-13.5c-4.7-2-8.7-1-10.9,2.8c-2.2,3.7-2.3,6.2-0.2,8.5c2,2.3,1.4,2.8-2.9,2c-2.1-0.3-3.5-1-3.5-1.8
	s0.4-1.3,0.8-1.3c1.1,0,3-4.4,3-6.9c0-2.8-2.5-6.3-5-7.2c-1.6-0.6-2.6-3.5-5.9-18.8c-4.5-19.8-12.6-45.3-18-56.7
	c-1.9-4.1-6.1-10.7-9.2-14.6c-9.7-12-27.7-22.8-72.7-43.8c-13-6.1-25.5-11.4-27.7-12c-2.3-0.6-4.3-1.5-4.5-2.2
	c-7.2-17.2-7.5-18.2-8.4-29.1c-0.5-6-1.3-13.2-1.8-16.1c-1.5-8.6-1.4-9.1,2.8-10.5c6-1.7,10.6-9.6,12.9-22.6
	c3.7-19.1-0.6-37.8-9.8-42.4l-3-1.5l-0.4-11.8c-0.5-11.8-2.5-27.5-4.5-34.7c-1.5-5.4-5.4-12.8-8.8-16.7l-3-3.3l2.6-0.3
	c3.1-0.4,3.2-1.8,0.5-5.9c-3-4.4-12.7-9.5-19.3-10.2c-4.8-0.5-5.5-0.9-6.9-3.5c-3-5.8-8-11.9-12.4-14.8c-6.5-4.4-10.1-3.6-6.5,1.2
	c0.8,1,1.4,2.5,1.4,3.2c0,1.2-0.3,1.1-1.7-0.1c-3-2.7-14.6-7.4-23.9-9.8c-7-1.8-11.2-2.3-20-2.2C202.6,88.6,196,88.9,194,89.3z
	 M228.5,95.1c10.4,2.6,20.6,7.2,25.4,11.7c2.1,1.9,4.6,3.4,5.5,3.4c1.4,0,1.6-0.6,1.1-3.9l-0.5-3.9l2.3,2.2c1.3,1.2,3.7,5,5.3,8.3
	l2.9,6.1l3.6-0.6c4.2-0.7,9.7,1,14.9,4.6l3.6,2.5h-3.5c-4.4,0-5.6,1.8-2.6,3.7c12.8,8.2,19.8,28.8,19.9,58.3v10.1l-3.5,2.3
	c-6.9,4.4-9.1,13.6-7,28.7c0.7,4.4,2.9,16.9,5,27.9c2.6,13.3,4,23.8,4.3,31.4c0.5,10.6,0.3,12-2,19c-9.3,27.6-31.1,54-53.2,64.4
	c-13.7,6.4-32.9,7.1-44.2,1.7c-18.2-8.8-43.2-41.8-46.5-61.3l-0.6-3.8l2.9,5.1c4.2,7.3,9.3,13.3,14.3,16.4c5.4,3.4,6.6,2.6,5-3.8
	c-0.8-3.1-0.8-5.7-0.1-8.1c1.2-4.4,6-10.6,10.9-14.1c3.7-2.7,4.2-2.8,8-1.7c5.1,1.4,7.2,0.9,11.9-3.1c3.7-3.2,4.1-3.3,14.3-3.8
	c5.8-0.3,12.7-1,15.3-1.5c11.9-2.3,18,3,20.8,17.7c0.6,3.5,1.6,6.5,2.1,6.7c1,0.3,15.7-21.3,21.1-31.1c1.6-2.9,4.1-8.7,5.5-12.9
	c2.5-7.5,2.5-8,2-25.7c-0.4-13.2-1.1-21.8-3-32.1c-2.8-16.3-3.6-18.6-9.2-25.5c-7.7-9.4-7.5-9-7.5-19.6c0-15.9-3.7-23.3-15.5-30.9
	c-12.9-8.4-25.4-9.7-36.9-3.9c-3.3,1.6-10.8,6.5-16.6,10.8c-14.5,10.8-24.7,15.4-41.8,19.4l-2.8,0.6l3-3.4c4.3-4.9,6.3-9,5-10.3
	c-0.8-0.8-1.5-0.8-2.4-0.2c-0.7,0.6-3,2.3-5.3,4c-5,3.8-13.1,6.9-19.7,7.6c-5.1,0.6-6.6,2.2-3.6,3.9c1.3,0.7,1.3,1.3,0,6.5
	c-2.2,8.7-3.1,22.5-2.4,34.2c0.4,5.7,0.6,10.7,0.4,10.9s-1.4-2-2.8-5c-2.8-6-5.2-16.4-5.2-22.3c0-4.7-1.2-5.8-3.5-3.2
	c-3.4,4.1-4.1-0.3-1.6-12.1c0.8-4,2.5-9.6,3.8-12.5c3.9-8.6,2.9-9.6-4.7-4.9c-2.5,1.5-4.8,2.9-5,2.9c-0.8,0,2.4-7.8,5.3-13.4
	c3.6-6.8,13.7-17,20-20.6c6.4-3.4,6-6.6-0.7-5.2c-2.6,0.5-2.7,0.4-1.3-1.1c4.1-5.1,22.4-15,35.2-19.1c6.3-2.1,10.6-2.8,19.3-3.1
	c9.8-0.4,11.1-0.7,11.1-2.1c0-1-1.2-2.2-3-3c-2.7-1-2.8-1.3-1.1-2C203.5,91.7,219.9,92.9,228.5,95.1z M244.1,138
	c6.9,2.3,15.3,7.2,18.9,11c4.7,4.9,5.9,9.2,6,21.2c0.1,12.5,0.4,13.4,8,22.3c2.7,3.1,5.4,7.6,6.3,10c2.5,7.5,5.4,30.5,5.9,46.3
	c0.6,17-0.2,21.5-5.6,32.2c-4,8.1-16,27.3-16.9,27.3c-0.5,0-1.1-1.4-1.4-3.1c-1-4.2-3.7-9.3-6.4-11.8c-5.3-5-12.4-6.1-23.6-3.6
	c-3.4,0.8-7.7,1.3-9.7,1.4c-3,0-3.3-0.3-3-1.9c0.4-1.5,0-1.9-1.9-1.9c-1.7,0-4.5,1.7-8.4,5.2c-7.1,6.4-10,6.8-14.8,2
	c-3.8-3.8-4-5.8-1.8-22c1.6-12,1.9-28.1,0.5-28.1c-0.5,0-1.5,1.1-2.3,2.6c-0.9,1.5-1.4,2-1.5,1.2c0-2.1-3.7-8.9-5.5-10.3
	s-4-1.5-4-0.2c0,0.6,1.3,2.8,2.9,5c4.5,6.2,3.8,7.4-5.7,10.6c-8.3,2.9-24.2,5.2-26.9,4.2c-2.3-0.9-2.1-7.3,0.4-13.1
	c1.1-2.6,1.8-5,1.4-5.3c-1.1-1.1-4.9,3.5-6.4,8.1l-1.5,4.5l-1.1-5c-1.1-4.6-1.1-5.2,0.5-6.9c3.1-3.5,5.4-4.1,18-4.7
	c13.2-0.7,16.7-1.6,19.7-5.8c2.6-3.3,3.3-9.6,1.4-11.2c-1.2-1-2.6-0.9-7.5,0.7c-3.3,1-10.1,2.4-14.9,3c-10.3,1.3-15.3,3.5-18.6,8.3
	l-2.3,3.4l-1-4.7c-2-9-3.3-26.4-2.8-35.9c0.5-9.6,3-22.9,4.5-23.9c0.4-0.3,3.4-1.3,6.7-2.3c5.4-1.7,5.7-1.7,4.4-0.2
	c-2.8,3-1.8,3.9,4,3.9c13.7,0,32.6-7.5,47.6-19C225.6,135.9,231.7,133.8,244.1,138z M312.8,202.8c1.4,0.7,3.4,3.1,5,6.4
	c2.5,5,2.6,6,2.5,19.1c0,15.1-1.5,21.6-6.7,28.3c-2.9,3.8-6.6,4.3-8,1c-1.1-2.8-4.4-20.3-5.7-30.7c-1.8-14.2,0.6-22.3,6.9-24.1
	c1.7-0.5,3.2-1,3.3-1C310.2,201.7,311.5,202.1,312.8,202.8z M182.8,222c0,0.3-0.4,1.5-1,2.9c-1.4,3.9-5.4,5.2-17.3,5.9
	c-5.9,0.3-12.2,1-13.9,1.3c-3.7,1-3.7-0.4,0-3.1c1.6-1.1,5.7-2.2,12.9-3.1c5.7-0.8,12.2-2,14.2-2.8
	C181.8,221.7,182.8,221.5,182.8,222z M188.6,257.4c0,1.2-1.3,3.8-3,5.7l-3,3.3l-2.3-2.4c-3.9-4.2-10.8-2.1-9.5,3
	c0.6,2,0.3,2.3-2.3,2.3c-3.9,0-8.6-2.1-11.2-5l-2.2-2.4l7.4-0.8c4.1-0.3,11.3-1.8,16-3.3C189.3,254.5,188.6,254.6,188.6,257.4z
	 M190.9,275c-1.6,13.8-1.6,14,0.3,18.3l1.9,4.4l-4.8,3.5c-6.3,4.9-10.2,10.8-11.6,17.8l-1.1,5.8l-4.5-5.6
	c-8.1-10.2-11.6-18.5-17.4-41.1c-3.8-14.9-3.9-15.5-1.2-12.2c3,3.7,9.6,7.2,14.9,7.9c9.5,1,20.7-4.5,23.3-11.7
	C192.7,256.5,192.7,260.1,190.9,275z M317,324.9l6.1,12.4l-1,5.2c-1.6,7.7-7.9,19.6-14.2,26.9c-13.6,15.6-32.3,24.9-50.3,24.8
	c-11.5,0-17.3-2-23.7-8.2l-4.9-4.8l8.6-1.8c18.2-3.7,33.5-14.2,49.3-33.7c8-9.9,12-16.9,19.8-34.3l2.1-4.8l1,2.9
	C310.4,311.2,313.6,318.1,317,324.9z M334.5,336.1c-2.1,20.1-12.3,39.2-27.4,51.5c-8.3,6.8-17.1,11.7-26.8,15.1
	c-8,2.9-9.3,3-21.8,3.1c-13,0-13.5-0.1-19.7-3c-8-3.7-15.6-10.8-18.5-16.9l-2.3-4.8l3.1-0.3c2.2-0.3,3.3,0.1,4,1.4
	c0.5,1,3.3,4.1,6.2,7c4.4,4.6,6.3,5.7,11.8,7.4c35.6,10.9,81.8-22.5,84.1-61l0.6-8.3l3.6,1.8l3.6,1.9L334.5,336.1z M365,345.2
	c25.3,12.4,39.7,20.5,47.2,26.7c13.6,11,23.1,32,32.7,71.6c5.8,23.8,5.7,23.2,3.2,24.3c-1.1,0.6-2.7,2.6-3.4,4.6
	c-1.2,3.3-1.2,3.8,0.8,6.4c2.3,3.2,2.2,3.2-4.9,1.8c-4.2-1-4.7-1.2-3-1.9c5.4-2,6.6-10.1,1.9-13.6c-5.6-4.2-12.6-1.5-13.6,5.3
	c-0.5,2.8-0.2,3.8,1.5,5.5l2.2,2.2l-4.6-0.7c-2.5-0.4-5.4-1-6.6-1.5l-2-0.9h2.1c2.8-0.1,5-3.5,5-7.5c0-7.1-9.9-10.9-14.2-5.3
	c-2.4,3-2.6,7.7-0.4,10.1c1.9,2.1,1.4,2.1-7.5,0.3c-9.4-2-11-1.3-15.8,6.9c-5.5,9.4-7.3,10.8-16.1,12.3c-4.1,0.7-8.4,1.5-9.5,1.8
	c-2.2,0.5-2.2,0.4-2.2-9.7c0-5.7,0.5-16,1-22.9c0.9-9.7,0.9-12.9,0-13.8c-0.9-0.9-1.3-0.9-1.9,0.1c-1.3,2.1-3.1,19.9-3.4,34
	l-0.4,13.3l-14.6,2.6c-8,1.3-15.3,2.6-16.2,2.6c-1,0.1-3-2-5.1-5c-4.3-6.5-7.8-8.1-12.2-5.5c-3.4,2-5.5,6.9-4.9,11.2l0.5,2.9
	l-36.4,6c-20.1,3.2-37.9,6.2-39.5,6.5c-3,0.5-3.1,0.3-3.1-2.2c0.1-4.3,2.6-8.9,15.6-28.9c15.5-23.7,19.9-32.5,20.4-40.4
	c0.4-5.3,0.1-6.2-2.2-8.9c-2.6-3.1-8.5-5.4-19.8-7.8c-4.5-0.9-6.3-0.9-10.5,0.4c-5.3,1.5-23,11.6-46.4,26.4
	c-8.1,5.1-14.9,9.1-15,8.9c-0.5-0.5-4.5-21.4-6.9-35.7c-2.1-13.5-3.1-17.1-4.8-17.1c-1.9,0-1.9,4.5-0.2,14.3c1,5.6,1.3,9.2,0.8,8.2
	c-3-5-7.9-11.4-8.9-11.8c-2.6-0.8-1,3.5,4,11.6c3,4.7,5.1,8.6,5,8.7c-0.2,0.2-8.4,2.1-18.4,4.3l-18,4l-5.3-5.6
	c-6.6-7.1-10.9-14.3-14.9-24.8c-5.3-14.3-7.3-28.6-5.4-39.6l0.6-3.7l15.3-7.3c20.6-9.8,39.2-17.4,49.6-20.3
	c14.7-4.1,13-4.3,17.9,2.5c8.7,12.1,25.1,25.7,34.5,28.3c4.1,1.1,4.6,1.6,7.2,7.1c11,23.3,38.2,31.1,68.1,19.6
	c27.8-10.8,48.3-34.8,53.2-62.6c0.8-4.1,1.3-8,1.4-8.7c0-0.6,0.2-1.1,0.5-1.1C339.7,333,351.3,338.6,365,345.2z M85.9,384.4
	c-0.6,4.1,1.5,19.7,3.7,27.9c2.3,8.3,10,24.5,14.2,29.7l3,3.8l-4.2,1.2c-6.1,1.8-30.4,6.9-33.2,6.9c-2.2,0-2.6-0.5-3-3.6
	c-1.2-8.9-11.4-23.5-18-25.8c-4.9-1.7-4.2,0.8,1.8,6.4c10.6,10.1,12.9,18.1,14,46.8c0.6,18.6,1.4,25.2,3.5,29.3
	c1.4,2.7,6.5,5.8,15.8,9.6c9.7,4,11.7,5.7,17.8,14.9c3.5,5.2,7.2,9.5,10.6,12.1c5.2,3.9,6,5.2,4,7.2c-1.5,1.5-8.9,1.4-12-0.2
	c-1.4-0.8-5.3-4.2-8.8-7.7c-6.1-6.2-11.7-10-14.9-10c-1.3,0-1.4,0.8-0.9,5.4c0.8,6.8,3.6,11.8,9.9,17.7c5,4.7,5.4,4.9,15,4.5
	c5.5-0.2,9.8,1,9.8,2.8c0,1.5-9.9,6.9-13.8,7.4c-8,1-11.7-0.3-21.4-7.4c-5-3.6-10-7.8-11.1-9.2c-1.6-1.9-2.4-2.3-3.2-1.4
	c-1.8,1.8,1,5.4,10.6,12.9c5,3.9,10,7.6,11,8.2c3.2,1.7,11.8,2.4,16.6,1.2c2.3-0.5,4.5-0.8,4.7-0.5c1,1-5.2,6.2-8.4,7
	c-1.9,0.5-6.9,1-11,1c-9,0-9.9-0.5-21.8-10.9c-8.5-7.4-10.1-8.3-10.1-5.8c0,1.7,3.2,5.2,11.4,12.5c8.6,7.5,12.7,9.1,21.4,8.8
	c5.3-0.2,6.8,0,6.1,0.9c-1.3,1.5-9.3,3.1-15.5,3.1c-5.6,0-6.9-0.7-19.1-10.4c-4.1-3.2-7.8-5.8-8.2-5.8c-1.4,0-1,2.6,0.9,4.6
	c2.2,2.5,14.1,11.8,18.3,14.4c3.1,1.9,3.2,2,1,2c-4.3,0-17.1-9.1-21.3-15.1c-3.1-4.6-3.8-6.8-7.2-24.9c-3.9-20.3-5.6-25.7-14.3-42.8
	C20,493.9,16.6,485.4,13.8,473c-4.5-19.8-1.9-43.1,5.8-52.2c3.7-4.2,15.4-12.8,25.2-18.4c7.2-4.1,40-20.8,41-20.8
	C86.1,381.6,86.2,382.9,85.9,384.4z M233.8,436.8c-0.1,6.9-3.1,13.3-16.8,34.3c-18.2,28-21.8,36.8-18.7,44.7l1.4,3.7l-2.6,0.5
	c-1.3,0.3-4.1,0.8-6,1.1l-3.6,0.6V518c0-8.3,2.8-15.4,14.1-36.7c5.4-10.1,6-13.4,3-17.2c-4.2-5.3-8.3-3.5-48.5,21.4
	c-13.9,8.7-31.1,19.2-38.3,23.5c-7.1,4.4-13.9,8.9-14.9,10.3l-1.9,2.5l-4.3-3c-2.4-1.6-8.5-4.9-13.6-7.1c-5.3-2.5-10.1-5.3-11.1-6.7
	c-2-2.6-3-13.2-3.6-35.5l-0.3-10.6l5-0.7c4.6-0.6,5.5-0.3,11.4,3c3.5,2,10.9,6.6,16.4,10.2c13.9,9.1,20.3,12.2,26.8,12.8
	c9.4,0.9,13.1-0.9,46-21.5c38.6-24.4,52.2-31.8,57.2-31.3C233.7,431.6,233.8,431.7,233.8,436.8z M252.6,438
	c3.9,4.8-1.6,17.7-18.3,43.1c-12,18.2-16.2,26.1-16.9,31.7c-0.6,4.2-0.3,4-8.9,5.5c-3,0.5-3.7,0.2-5-1.6c-2.4-3.5-1.9-10,1.2-16.7
	c1.5-3.2,8.1-14.2,14.7-24.4c14.9-23.1,18.8-30.8,19.4-38l0.6-5.3l5.8,1.7C248.3,435,251.7,436.7,252.6,438z M157.6,454.1
	c0.9,4.9,1.8,9.5,2,10.4c0.3,1.1-2.2,3.1-9.3,7.5c-8.3,5-10.3,5.8-13.2,5.4c-2.1-0.3-9.1-4-19-10.2c-8.6-5.3-16.9-10.5-18.7-11.2
	c-1.7-0.9-3.1-1.7-3.1-2c0-0.4,3.1-1.5,7-2.6l7-2l2.9,2.2l2.8,2.2l19.4-4.1c10.7-2.3,19.7-4.2,20-4.3
	C155.7,445.5,156.7,449.4,157.6,454.1z M95.5,458.8c3.2,1.6,8.9,5,12.6,7.3c3.7,2.4,10.6,6.7,15.2,9.5c8.4,5,8.5,5.1,4.5,4.6
	c-5.3-0.8-9.7-3-28.2-14.8c-11.7-7.3-14.6-9.6-12.7-9.6C88.4,455.8,92.3,457.2,95.5,458.8z M418.4,465c1.8,1.8,2,4.9,0.4,5.3
	c-2.2,0.8-7.4-1.4-7.4-3C411.3,463.7,415.7,462.2,418.4,465z M202.6,469.2c0.2,2.7-1.1,5.9-6.5,15.4c-6.9,12.6-11.4,23.5-11.4,28.1
	c0,1.5-0.3,4.2-0.6,6.1c-0.6,3.3-0.7,3.3-6.8,4.4c-3.4,0.7-6.9,1.8-8,2.8c-1.7,1.5-1.7,1.4-1.1-3.1c0.3-3,0.1-5.5-0.7-6.9
	c-1-2-1.5-2.1-8-1.6c-9.3,0.9-16.5,2.5-18.2,4.2c-0.9,0.9-1.4,3.1-1.4,6c0,7.7-1,9.1-6.9,9.9c-2.8,0.3-6.7,0.9-8.7,1.1l-3.5,0.7
	l0.2-5.9c0.4-7.9-1.5-8.9-12.6-6.8c-2.4,0.4-4.4,0.7-4.6,0.5c-1-1,6-6.3,17.4-13.1c7.3-4.5,19.5-11.9,27.1-16.6
	c47-29,46.9-29,50.9-28.7C202,465.8,202.4,466.2,202.6,469.2z M434.7,468.8c-0.3,0.9-0.6,2.3-0.6,3.3c0,1.9-1.5,2.3-3.7,1
	c-2.1-1.3,0.2-5.8,2.9-5.8C434.7,467.3,435.1,467.7,434.7,468.8z M456.5,473c0.9,1,1.4,2.5,1.1,3.3c-0.6,1.4-4.9,1.9-7.7,0.9
	c-1.5-0.6-2.1-4.3-0.9-5.4C450.4,470.4,454.9,471.2,456.5,473z M475.1,476.3c1.5,1.8,0.9,4.7-1.2,5c-3.5,0.7-6.4-0.7-6.4-3
	c0-1.1,0.3-2.5,0.7-2.8C469.3,474.4,473.9,474.9,475.1,476.3z M438.5,484.3c53.3,10.8,53.4,10.9,56.4,13.5c5.9,5.4,7.9,18,4.2,26.1
	c-6.8,14.9-21.5,17.2-30.5,4.8c-3.4-4.8-7.1-7.1-11.3-7.1c-6.3,0-19.5,5.1-34.5,13.3c-13.8,7.6-23.4,12.4-24.9,12.4
	c-0.8,0-2-1.2-3-2.8c-3.8-6.6-8.9-9.6-21.3-13c-2.5-0.7-1.1-3,2.6-4.7c5.2-2.4,5.6-3.3,1-2.2c-2.2,0.6-4.2,0.8-4.5,0.4
	c-1.3-1.3,1.6-2.6,9.3-4c8.1-1.5,19.9-6.4,19.9-8.2c0-0.7-1.7-0.9-4.9-0.5c-5.5,0.7-6.7,1.3-4.7,2.6c1.4,0.9-1.3,1.8-12.6,4.1
	c-6.1,1.3-6.5,1.3-6.5-0.4c0-1.2,1.1-2,4.1-2.8c2.2-0.6,5.2-1.4,6.8-1.9c1.5-0.6,3.7-1,5-1c2.2,0,3.9-1.5,2.9-2.6
	c-0.4-0.4-4.5,0.4-9.1,1.6c-8.8,2.2-10.2,2.2-9.2-0.4c0.6-1.5,8.9-3.6,38-9.5c18.7-3.8,19.8-4,21.4-2.4c3.2,3.1,5.8,3.1,8.9,0
	c3.3-3.3,3.6-6.5,0.9-10c-3.6-4.6-12.3-1.9-12.3,3.9c0,1.2-0.4,2.2-0.9,2.2c-0.5,0-2.3,0.3-4,0.7c-3.1,0.6-3.2,0.6-1.5-1.3
	c2.2-2.6,2-6.9-0.5-9.5c-3.9-4.2-10.7-2-11.7,3.9l-0.7,3.1l-18.2,4.4c-10,2.4-18.4,4.2-18.6,4.1c-1.3-1.3,2.4-3.7,10.1-6.6
	c8.4-3,9.4-3.1,10.9-1.8c2,1.7,6.9,1.7,9,0.1c5-4.3,2.2-13.2-4.3-13.2c-3,0-6.9,3.6-6.9,6.7c0,1.7-0.6,2.8-1.6,3.1
	c-1,0.2-4.1,1.3-6.9,2.5l-5.2,2.1l3.9-4.1c2.2-2.3,4.8-5.6,5.6-7.4c2.2-4.4,4.3-6.7,6.1-6.7C395.9,475.8,415.4,479.6,438.5,484.3z
	 M487.7,481.6c-0.3,1.9-0.8,2.6-1.3,2s-0.6-1.6,0.1-3C488,478,488.2,478.2,487.7,481.6z M494.1,481.5c0,1.7-1.7,3.9-3,3.9
	c-0.8,0-0.1-4.3,0.9-6C492.6,478.2,494.1,479.6,494.1,481.5z M402.2,490c-1,0.9-1.2,0.9-0.6,0.1c0.6-0.7,1.2-2.2,1.2-3.3
	c0.1-1.7,0.2-1.7,0.6-0.1C403.7,487.6,403.1,489.1,402.2,490z M313.2,496.2l3,4.2l-5,0.9c-2.7,0.5-5.2,0.8-5.6,0.6
	c-1.3-0.7-0.9-5.5,0.8-7.7C308.3,491.1,309.9,491.5,313.2,496.2z M414.1,496.7c1.9,1.9,1.8,1.9-3.5,3c-3,0.7-12.1,2.6-20.2,4.4
	c-17,3.7-16.2,3.6-16.2,1.8c0-0.8,1.1-1.7,2.7-2.1c1.4-0.3,9.6-2.5,18.3-4.7c8.7-2.2,16-4.1,16.5-4.1
	C412,494.9,413.1,495.7,414.1,496.7z M357.9,499.1c-0.2,0.2-2.3,0.6-4.7,0.9c-2.9,0.4-3.6,0.3-2.4-0.3
	C352.7,498.9,358.8,498.3,357.9,499.1z M343.7,501.4c-1.3,0.4-4.8,1-7.6,1.3l-5.2,0.5l4.8-1.2c2.7-0.7,6.1-1.2,7.6-1.2
	C346,500.8,346,500.8,343.7,501.4z M365.6,502c0,0.8-0.1,1.4-0.2,1.4c-0.2,0-3.9,0.7-8.4,1.4c-4.5,0.8-8.2,1.4-8.4,1.4
	s-0.2-0.8,0-1.7c0.2-1.2,1.9-1.9,6.9-2.7C364.9,500.4,365.6,500.4,365.6,502z M506.1,505.4c0.8,1.6,1.8,5.3,2.3,8.2
	c1.6,9.9-2.1,18.8-9.4,22.9c-6.2,3.5-6.7,2.4-1.4-3c3.6-3.7,5.4-6.6,6.5-10.2c1.8-6.1,1.9-13.4,0.2-18.2
	C502.7,501.1,504,501.3,506.1,505.4z M345.6,504.8c0,1.5-1.3,2-7.6,3c-2.4,0.4-5,0.9-5.9,1c-1.1,0.4-1.7,0-1.7-1
	c0-1.5,1-1.9,8.6-3.3C345.2,503.3,345.6,503.4,345.6,504.8z M369.5,508.5c-0.8,0.8-1,0.7-1-0.4c0-1.9,1.2-3.2,1.7-1.8
	C370.5,507,370.1,507.9,369.5,508.5z M309.9,506.8c-2.4,1-11,2.1-10.3,1.4c0.8-0.9,4.8-1.5,8.9-1.7
	C309.8,506.5,310.5,506.6,309.9,506.8z M326.6,508.1c0,1.4-1,1.9-5.4,2.5c-3,0.4-5.9,0.9-6.7,1.1c-0.7,0.3-1.2-0.2-1.2-1
	c0-0.8,1-1.7,2.2-1.9c1.1-0.3,4-1,6.4-1.4c2.4-0.5,4.4-0.9,4.6-1C326.5,506.3,326.6,507.1,326.6,508.1z M364.5,507.9
	c-0.2,1.2-2,2-6.9,2.9c-8.9,1.5-9,1.5-9-0.6c0-1.4,1.1-1.9,6.5-2.7C364.6,506.1,364.9,506.1,364.5,507.9z M310.4,510.5
	c0,1.5-1.2,2-7.3,3c-3.3,0.5-4.1,0.4-4.1-0.8c0-1.3,2.6-2.1,10.8-3.4C310.1,509.3,310.4,509.7,310.4,510.5z M344.7,511
	c0,1.4-1.2,1.9-6.6,2.9c-8.9,1.4-8.9,1.4-7.7-0.8c0.7-1.3,2.6-2.1,6.9-2.8c3.3-0.5,6.3-1,6.8-1C344.4,509.3,344.7,509.9,344.7,511z
	 M295.2,513.4c0,0.8-0.6,1.4-1.3,1.4c-0.7,0-1.8-0.7-2.5-1.4c-1-1.2-0.8-1.4,1.3-1.4C294.2,512,295.2,512.5,295.2,513.4z
	 M326.6,513.8c0,1.4-1.1,2-6,2.9c-7.7,1.3-7.3,1.3-7.3-0.8c0-1.4,1.1-1.9,6-2.7c3.2-0.6,6.2-1,6.7-1.1
	C326.3,512.1,326.6,512.9,326.6,513.8z M364.7,513.8c0,1.9-1.3,2.4-9,3.4c-2.6,0.4-5.5,0.9-6.4,1.1c-1.8,0.5-2.2-0.4-1-2.4
	c0.7-1,8.1-2.8,15.7-3.9C364.4,512,364.7,512.9,364.7,513.8z M288.3,517.7c0.3,1.6-0.4,3-2.1,4.3c-2.5,2-2.6,2.4-2.8,13.4
	c-0.2,9.5,0.1,11.8,1.5,14c2.1,3.2,15.8,14.9,17.5,14.9c2.8,0,0.9-3-6.9-10.3l-8.1-7.7v-7.9c0-4.4,0.3-8.9,0.6-10.1
	c1-3.8,12.4-8.3,14.5-5.6c1.4,1.7,0.4,5.5-1.5,5.2c-1.2-0.3-1.5,0.8-1.6,5.3v5.6l4.8,3.6c8.9,6.7,16,8.5,17.5,4.4
	c0.7-1.8,2-2.5,6.5-3.2c3-0.6,5.9-0.8,6.3-0.4s1,5.2,1.3,10.7c0.7,11.3,1.5,14.7,3.6,13.8c0.9-0.3,2.9,0.3,4.6,1.3
	c5.7,3.6,22.4,7.6,36.8,9c18.6,1.8,31.2,6,39.7,13.2c4.5,3.9,5,4.1,5,1.7c0-2.8-6.1-8.3-13.3-12c-7.4-3.9-14.6-5.7-28.7-7.3
	c-5.6-0.6-10.8-1.4-11.3-1.8c-1.5-1-2.6-8.4-3.4-23.4c-0.7-11.2-0.6-11.6,1.3-12.2c2.7-0.9,8.4,0.2,12.7,2.4
	c3.6,1.8,7.1,5.5,10.1,10.4c1.5,2.7,8.9,6.7,12.2,6.7c0.9,0,10.7-4.7,21.9-10.4l20.3-10.4l0.8,7.2c1,10.3-0.2,39.6-2.1,52.1
	c-4.6,30.7-12.5,46.9-26,53.5c-4.9,2.4-6.3,2.7-15.3,2.7c-21.7-0.1-36.4-6.9-73-34.3c-14.6-10.9-20-15.4-19.3-16.3
	c1.4-1.6-0.8-2.9-6.3-3.6c-8.4-1-19.5-4.4-27.7-8.2c-8.8-4.1-18.8-13.2-23.6-21.3c-2.5-4.3-2.6-5-2-12c0.3-4.2,1-8.6,1.5-9.7
	c0.8-1.9,0.9-1.7,1,1.6c0.1,6,2,10,9.6,20.4c6.7,9.1,9.4,11.5,9.4,8.1c0-2.1-1.4-4.5-7.7-12.9c-6.6-8.9-7.3-11.7-5.7-22.6
	c1.2-8.6,2.9-12.9,5.4-13.8c1.2-0.5,1.4-0.2,1,1.5c-0.4,1.2-0.9,6-1.1,10.8c-0.6,8.4-0.5,8.7,2.3,12.9c3.8,5.6,15.3,19,16.4,19
	c3.5,0,1-4.8-7.6-14.8c-6.9-7.9-7.5-9.8-6.6-18.8c1.2-12.7,1.8-14.9,4.4-16.9c1.3-1,3.1-1.9,4-1.9c0.9-0.1,2.6-0.7,3.9-1.4
	C286,514.4,287.9,514.9,288.3,517.7z M309.5,516.7c0,2-3.1,3.5-5,2.4c-0.6-0.4-2.4-1-4-1.3c-2.8-0.6-2.7-0.7,2.3-1.6
	c2.9-0.6,5.5-1,6-1.1C309.2,515,309.5,515.7,309.5,516.7z M268.3,517.4c-0.2,1.1-1.7,1.9-5,2.5c-2.6,0.4-4.9,0.5-5.1,0.2
	c-1.4-1.3,3-3.2,9.6-4.2C268.3,515.9,268.5,516.6,268.3,517.4z M344.7,517.2c0,0.8-0.8,1.6-1.6,1.9c-1.5,0.4-12.5,2.5-13.3,2.5
	c-0.2,0-0.3-0.9-0.3-1.8c0-1.3,1-2,4.6-2.8C341,515.5,344.7,515.6,344.7,517.2z M164.7,519.8c0,1.2-0.4,3-0.8,4
	c-0.7,1.7-0.8,1.8-1.3,0.1c-0.6-1.3-1.4-1.6-4.4-1.1c-3,0.4-3.6,0.2-3.2-0.9c0.3-0.8-0.3-1.6-1.2-2c-1.4-0.6-1.1-0.9,1.5-1.3
	c1.8-0.4,4.8-0.7,6.5-0.8C164.3,517.7,164.8,518,164.7,519.8z M255,521.1c-0.1,0.1-2.1,0.6-4.3,1c-3.3,0.6-4.1,0.4-4.1-0.9
	c0-1.3,1.2-1.9,6.2-2.7C254.4,518.2,256.1,520.1,255,521.1z M325.6,520.5c0,1.4-1,1.9-4.5,2.5c-2.6,0.3-5.5,0.9-6.7,1.1
	c-1.7,0.4-2.2,0.1-2.2-1.5c0-1.2,0.8-2.1,2.2-2.4c1.1-0.3,3-0.7,4-0.9C323.4,518.3,325.6,518.7,325.6,520.5z M363.7,520.5
	c0,1.3-1,1.9-4,2.3c-2.3,0.3-5.9,0.9-8.1,1.2c-3.7,0.6-4.1,0.4-4.1-1.2s1-2.1,6-2.9C362.8,518.4,363.7,518.5,363.7,520.5z
	 M151,521.7c-0.1,1.6-0.9,2.3-3,2.5c-1.5,0.2-3.2,0.8-3.9,1.2c-0.8,0.8-1,0.4-0.6-1.2c1-4.3,1.2-4.6,4.4-4.6
	C150.7,519.6,151,519.9,151,521.7z M243.8,520.3c-0.1,1.8-1.7,2.9-5,3.4c-3,0.5-3.6,0.3-3.3-1c0.2-1,1.6-1.8,3.6-2.2
	c1.8-0.4,3.6-0.7,4.1-0.8C243.5,519.7,243.8,519.9,243.8,520.3z M232.3,523c0,0.8-1.1,1.6-2.6,2c-1.5,0.3-3.2,0.8-3.9,1
	c-0.8,0.2-1.1-0.3-1-1.2c0.3-1.4,2.3-2.3,6.8-3C232.1,521.6,232.3,522.2,232.3,523z M309.5,523.4c0,1-0.4,1.9-1,1.9
	c-0.5,0-1-0.9-1-1.9c0-1,0.5-1.9,1-1.9C309.1,521.5,309.5,522.4,309.5,523.4z M343.7,523.3c0,2-1.5,2.6-9.9,3.5
	c-5,0.6-5.5,0.6-5.1-1.1c0.2-1.4,1.7-2,6.5-2.9C343.8,521.3,343.7,521.3,343.7,523.3z M261.2,524.9c-2.1,2.8-3.1,3-3.1,0.6
	c0-1.8,1.1-2.8,3.6-2.9C262.5,522.5,262.4,523.2,261.2,524.9z M30.7,528.2c-0.6,4.1-1.1,3.5-1.1-1.2c0-2.4,0.4-3.5,0.8-2.8
	C30.8,524.9,31,526.7,30.7,528.2z M221.7,524.6c-0.6,2.8-6.5,3.9-6.5,1.3c0-1.2,1.6-1.9,5.5-2.4C221.3,523.5,221.8,524,221.7,524.6z
	 M254.2,525.7c0,2-0.6,2.3-4,2.7c-5,0.6-5,0.5-3.7-2c0.7-1.1,2.3-2,4.2-2.3c1.6-0.2,3.1-0.5,3.3-0.5
	C254.1,523.5,254.2,524.5,254.2,525.7z M325.6,526.3c0,1.1-0.8,2-2.1,2.3c-11.1,2.4-11.2,2.4-11.2,0.1c0-1.9,0.7-2.2,6-3
	c3.2-0.6,6.2-1,6.7-1.1C325.4,524.5,325.6,525.2,325.6,526.3z M363.7,526.2c0,1.4-1.2,1.9-6.6,2.9c-8.7,1.4-10.6,1.3-10.6-0.4
	c0-0.8,1.2-1.5,3.1-1.9c1.6-0.3,5-1,7.3-1.3C363.4,524.2,363.7,524.2,363.7,526.2z M211.4,526.7c0,0.7-1.1,1.5-2.6,1.8
	c-3.1,0.6-3.6,0.3-2.9-1.7C206.7,525,211.4,524.9,211.4,526.7z M242.8,527.2c0,2-1.8,3-5.4,3c-3.1,0-2.7-3,0.7-3.9
	C242,525.1,242.8,525.2,242.8,527.2z M455.6,527.1c-2.6,0.9-14.8,6.7-26.9,12.9c-13.1,6.7-23,11.1-24.3,10.9
	c-1.4-0.2,4-3.4,16.9-10.2c21.6-11.3,30.9-15.2,35.7-15.2C460.3,525.4,460.3,525.5,455.6,527.1z M117.2,530.3c0,3.8-0.1,3.9-1.8,2.3
	c-1.2-1.1-3-1.6-5.2-1.4c-3.3,0.3-6.4-1.3-5-2.7c0.4-0.4,2.5-1,4.8-1.3C117.3,526,117.2,525.9,117.2,530.3z M159,528.1
	c0,1.9-1.1,2.4-8.8,3.4c-2.6,0.4-4.6,0.3-4.6-0.1c0.1-2.5,2.3-3.4,12.7-5C158.8,526.4,159,527.2,159,528.1z M202.6,527.9
	c-0.4,2.2-5.5,3-5.5,0.9c0-1.2,1.5-2.1,4.6-2.4C202.5,526.4,202.8,527.1,202.6,527.9z M231.4,529.1c0,1.9-1.7,3-4.9,3
	c-3,0-2.3-3.6,0.9-4.1c1.4-0.2,2.9-0.5,3.3-0.6C231.1,527.3,231.4,528.1,231.4,529.1z M342.7,531.1c-0.7,0.5-3.1,1-5.5,1.4
	c-2.4,0.3-5.3,0.9-6.5,1.1c-1.7,0.4-2.2,0.1-2.2-1.4c0-1.6,1-2.1,7.4-3.2s7.3-1.1,7.6,0C343.7,529.7,343.4,530.7,342.7,531.1z
	 M194.3,529.5c0,0.7-1,1.5-2.4,1.7c-1.8,0.4-2.4,0.1-2.4-1.2s0.7-1.8,2.4-1.8C193.3,528.2,194.3,528.8,194.3,529.5z M308.3,529.8
	c-0.2,1-1,1.8-2,2c-1.5,0.3-1.6,0.1-0.7-1.6C306.9,527.8,308.8,527.5,308.3,529.8z M186.7,530.6c0,0.8-0.4,1.4-0.9,1.4
	c-0.5,0-1.5,0.3-2.4,0.6c-1,0.4-1.5,0.1-1.5-0.9c0-1.4,1.3-2.4,3.6-2.5C186.1,529.2,186.7,529.8,186.7,530.6z M220.9,531
	c0,1.6-2.4,3-5.5,3c-2.2,0-0.8-3.2,1.7-3.9C220.7,529,220.9,529.1,220.9,531z M179,531.5c0,0.8-0.2,1.4-0.4,1.4s-1,0.3-1.9,0.6
	c-1,0.4-1.5,0.1-1.5-0.9c0-1.3,1.2-2.3,3.1-2.5C178.8,530.1,179,530.8,179,531.5z M254.1,532.2c-0.2,1.8-1,2.3-4.3,2.8
	c-3.8,0.5-4.1,0.4-4.1-1.6c0-2.2,0.1-2.2,7.4-3C253.9,530.2,254.2,530.9,254.1,532.2z M363.6,532.5c-0.5,0.4-14.7,3.3-16.3,3.3
	c-0.5,0-0.8-0.7-0.8-1.4s1.2-1.5,3.1-1.9c1.6-0.3,5.2-0.9,7.8-1.2C361.7,530.5,364.9,531.2,363.6,532.5z M211.2,532.7
	c-0.3,1.8-5.2,3.4-6.1,2.1c-0.9-1.5,1.5-3.7,4.1-3.7C210.9,531.1,211.5,531.5,211.2,532.7z M324.7,532.9c0,1.4-1,1.9-4.5,2.5
	c-2.6,0.3-5.6,0.9-6.8,1.1c-1.9,0.5-2.2,0.2-1.9-1.2c0.2-1.3,1.7-2.1,5.5-3C324.4,530.8,324.7,530.9,324.7,532.9z M201.9,533.8
	c0,1.8-1.7,3-4.4,3c-2.1,0-1.5-2.9,0.9-3.8C201.5,531.7,201.9,531.8,201.9,533.8z M241.7,534.1c-0.2,1.7-1.1,2.3-3.8,2.8
	c-3.3,0.5-3.6,0.4-3.6-1.6c0-2.1,0.7-2.5,6.5-3.1C241.5,532.1,241.9,532.8,241.7,534.1z M159,534.8c0,1.5-1,1.9-5,2.5
	c-2.8,0.3-5.8,0.9-6.7,1c-1.2,0.4-1.7,0-1.7-1.4s0.9-2,3.6-2.5c1.9-0.4,4.2-0.8,5-1C157.9,532.7,159,533.1,159,534.8z M193.6,535.8
	c-0.3,1.2-1.3,1.9-2.8,1.9c-1.6,0-2.3-0.6-2.3-1.9c0-1.4,0.7-1.9,2.8-1.9C193.6,533.9,194,534.2,193.6,535.8z M230.5,536
	c-0.5,1.3-1.9,2.4-3.8,2.8c-2.7,0.6-3,0.4-3-1.6c0-2.1,1.2-2.8,5.9-3.1C231,533.9,231.2,534.4,230.5,536z M307.8,535.8
	c-0.6,2.1-3.1,2.3-3.8,0.3c-0.4-1,0.9-1.6,3.7-2.1C308,534,308.1,534.8,307.8,535.8z M343.4,535.4c0.4,1-9,3.2-13.8,3.2
	c-4,0-1-2.8,3.9-3.6C339.6,533.9,343,534,343.4,535.4z M37.4,547c1.4,6.8,3.2,15.6,4,19.7c2.2,11.5,5.1,16.6,13.7,23.7
	c4,3.4,9,7,11.1,8.2c4.1,2.2,11,2.7,16.5,1.1l3-1v5c0,2.8,0.6,5.7,1.2,6.6c1.2,1.6,30.9,16.4,78.3,38.7c30.9,14.5,34,15.4,38.3,11.3
	c4.8-4.5,4.1-5.7-19.1-41.1c-11.8-18-13.2-21-13.3-29.6c0-5.6,0.5-7.7,3.1-13.6c2.9-6.2,3.5-6.9,5.9-6.9h2.8l-2.9,4
	c-1.6,2.3-3.3,6.5-4,9.4c-2,9.5,0.1,14.7,16.1,39.2c17.7,27,21.2,33.6,21.2,39.5c0,2.6-0.7,5.4-1.4,6.7c-1.9,2.6-6.7,3.9-10.9,3
	c-1.9-0.5-15.1-6.3-29.5-13c-37.6-17.7-39.8-18.6-45.9-19c-6.9-0.6-11,1.3-29.8,13.6c-25.2,16.6-38.7,24.3-41.9,24.3
	c-3.2,0-5.9-2.3-8.4-7.1c-1.4-2.9-5.4-15.2-5.4-16.8c0-1.3,4.2-1,7.4,0.7c3.8,1.8,6.3,0.7,7.8-3.8c1.2-3.8,0.5-7.4-2-9.7
	c-1.5-1.3-2.2-1.4-4.3-0.6c-1.4,0.8-4.4,1-7.5,0.6l-5-0.7l-1-5.8c-4.2-24.5-6-49.7-4.9-68.2c0.9-13.5,3-30.5,3.7-30.5
	C34.6,534.9,36,540.3,37.4,547z M112.4,536.4c0,1.3-0.3,1.3-1.4,0.4c-0.8-0.7-1.4-1.3-1.4-1.5s0.7-0.4,1.4-0.4
	C111.7,534.9,112.4,535.5,112.4,536.4z M185.7,536.8c0,1.2-0.7,1.9-1.9,1.9c-1.8,0-2.6-1.9-1.2-3.1
	C183.8,534.2,185.7,535,185.7,536.8z M139.1,537.6c0,1.4-1.2,1.9-7.3,2.9c-4.1,0.7-8.4,1.4-9.5,1.7c-1.6,0.4-2.2,0.1-2.2-1
	c0-2.2,0.7-2.4,18.4-5.2C138.8,535.9,139.1,536.6,139.1,537.6z M177.7,539.1c-0.6,1.5-3.4,2-3.4,0.6c0-0.5,0.8-1.6,1.6-2.6
	C177.6,535.4,178.8,536.6,177.7,539.1z M220.9,537.6c0,1.7-2.4,3-5.9,3c-2.1,0-2.2-1.3-0.2-3.2C216.9,535.1,220.9,535.3,220.9,537.6
	z M210.3,541c-0.2,0.2-1.4,0.6-2.9,1c-2.4,0.6-2.7,0.4-2.7-1.7c0-1.8,0.6-2.4,2.7-2.7c1.9-0.2,2.7,0.2,2.9,1.4
	C210.5,539.9,210.5,540.9,210.3,541z M253.3,537.5c0,1.8-2.6,3.8-5.5,4.2c-2.8,0.4-3.1,0.2-2.9-1.5c0.2-1.3,1.2-2.2,3.1-2.6
	C252.3,536.7,253.3,536.7,253.3,537.5z M324.7,538.1c0,0.9-1.8,1.7-4.8,2.4c-6.4,1.4-8.6,1.3-8.6-0.3c0-0.9,2-1.6,6-2.2
	c3.2-0.6,6.2-1,6.7-1.1C324.4,536.9,324.7,537.3,324.7,538.1z M363.7,539.3c0.1,3.8,1.9,25,2.5,28.7l0.6,3.9l-5.6-1.3
	c-8.2-1.9-16.2-5.1-18.8-7.4c-2.1-1.9-2.3-3-2.6-11.6l-0.2-9.5l9.9-2C362.3,537.3,363.7,537.3,363.7,539.3z M87.8,541.2
	c2.2,2.3,2.5,3.1,1.8,6l-0.7,3.3l-2.6-3.8c-2.5-3.6-3.4-8.1-1.8-8.1C85.1,538.7,86.5,539.8,87.8,541.2z M158.4,541.4
	c-0.3,1.2-1.6,1.9-4.8,2.4c-7.4,1-8.8,0.8-8.2-1.2c0.4-1.3,1.8-2,6.3-2.7C158.6,539,159,539.1,158.4,541.4z M201.5,540.2
	c-0.3,0.9-0.6,1.9-0.6,2.4c0,0.5-1,0.9-2.4,0.9c-1.7,0-2.4-0.5-2.4-1.7c0-2.4,0.9-3,3.6-3C201.5,538.7,202,539.1,201.5,540.2z
	 M241.1,541.1c-0.3,1.7-1,2.4-2.6,2.4c-1.2,0-3,0.3-3.8,0.6c-1.2,0.5-1.5,0.2-1.2-1.6c0.2-1.8,1-2.4,3.6-2.9
	c1.8-0.4,3.6-0.7,3.9-0.8C241.3,538.8,241.4,539.7,241.1,541.1z M193.1,541.7c-0.4,3-4.6,3.7-4.6,0.9c0-1.6,1.1-2.4,4.1-2.9
	C193.1,539.7,193.3,540.6,193.1,541.7z M230.3,542.7c-0.2,1.8-1,2.3-3.8,2.5c-3.6,0.3-4.3-0.3-2.9-2.3c0.8-1.2,2.9-2.1,5.2-2.2
	C230.2,540.6,230.5,541.1,230.3,542.7z M185,543.3c-0.3,1-1.2,2-2.3,2.3c-1.4,0.4-1.8,0-1.8-1.8c0-1.8,0.5-2.3,2.3-2.3
	S185.4,541.9,185,543.3z M138.1,544.3c0,1.4-1.2,1.9-6.6,2.9c-8.8,1.4-9.3,1.3-9.9-0.8c-0.4-1.6,0.3-2,5.4-2.8
	C136.6,542.2,138.1,542.3,138.1,544.3z M178.1,543.7c0,1.3-1.9,3.5-3,3.5c-0.4,0-0.8-1-0.8-2.4c0-1.7,0.5-2.4,1.9-2.4
	C177.2,542.5,178.1,543.1,178.1,543.7z M220,544.3c0,1-0.9,2-2.1,2.4c-3.6,1-4.6,0.7-4.6-1.2c0-2,1.2-2.8,4.6-2.9
	C219.3,542.5,220,543.1,220,544.3z M170.6,547.5c-0.8,0.8-1,0.5-1-0.9c0-2.6,1.3-3.9,1.7-1.8C171.4,545.7,171.1,547,170.6,547.5z
	 M249.6,545.5c-0.5,1.4-1.7,2.3-3.3,2.5c-4,0.5-2.8-3.1,1.3-3.9c1.3-0.2,2.5-0.5,2.6-0.6C250.2,543.5,250.1,544.4,249.6,545.5z
	 M209.9,545.9c0.8,1.9,0.9,1.9-3,2.6c-2.6,0.5-3.1,0.3-3.1-1.1c0-1,0.3-2,0.7-2.3C205.7,543.8,209.3,544.4,209.9,545.9z
	 M157.9,547.4c-0.3,2.1-2,2.9-9.5,3.9c-3.3,0.5-3.6,0.4-3.6-1.7c0-2,0.6-2.3,6-3.1c3.2-0.5,6.3-1,6.7-1
	C157.9,545.4,158.1,546.3,157.9,547.4z M200.9,547.1c0,1.8-1.7,3-4.4,3c-0.8,0-1.3-0.9-1.3-1.8c0-1.7,0.6-2,5-2.9
	C200.6,545.4,200.9,546.2,200.9,547.1z M240.9,547.2c0,1-0.4,1.9-0.9,1.9s-2.2,0.3-3.8,0.6c-2.6,0.6-3,0.4-3-1.3
	c0-1.5,0.8-2.1,3.1-2.4c1.6-0.2,3.3-0.5,3.8-0.5C240.6,545.4,240.9,546.2,240.9,547.2z M192.4,549.1c0,1.4-0.7,1.9-2.4,1.9
	c-1.7,0-2.4-0.5-2.4-1.9c0-1.4,0.7-1.9,2.4-1.9C191.7,547.2,192.4,547.7,192.4,549.1z M229.5,549c0,1.6-2.4,3-5.4,3
	c-2.2,0-1.3-3.6,1-4.1C229,547.1,229.5,547.2,229.5,549z M137.9,552.5c-0.7,0.8-18.2,3.4-18.7,2.9c-0.3-0.3,0.3-1.3,1.3-2.4
	c1.1-1.1,4.5-2.3,9.4-3c7.2-1.2,7.6-1.2,7.9,0.5C138.1,551.3,138.1,552.3,137.9,552.5z M184.7,550c0,1.6-1.7,3-3.9,3
	c-1,0-1.1-3.1-0.2-4.1C182,547.4,184.7,548.2,184.7,550z M176.9,551.2c-0.4,2.8-3.6,3.6-3.6,1c0-1.8,1-2.8,3.1-3
	C176.9,549.1,177.1,550.1,176.9,551.2z M219.3,551c-0.3,1-1,1.9-1.6,1.9c-0.6,0-2,0.3-3.1,0.6c-1.7,0.5-2.2,0.2-2.2-1.3
	c0-1.9,1.4-2.8,5.4-3C219.3,549.1,219.7,549.5,219.3,551z M170.5,552.5c0,1.3-0.4,2.4-1,2.4c-1,0-1.3-3.1-0.3-4.1
	C170.3,549.7,170.5,550,170.5,552.5z M248.5,551c0,1-3.7,2.4-4.5,1.7c-0.3-0.3-0.2-1,0.2-1.5C245,549.9,248.5,549.7,248.5,551z
	 M209.5,552.9c0,1.2-0.9,1.9-3,2.3c-3.8,0.6-3.7,0.6-3-2C204.2,550.4,209.5,550.1,209.5,552.9z M240.9,552.4c0,0.9-1.5,1.6-3.9,2
	c-6.4,1.1-6.6-1.1-0.2-2.4c2-0.4,3.7-0.8,3.9-0.9C240.8,551.1,240.9,551.6,240.9,552.4z M101.3,553.8c3.8,2,3,3-1.9,2.3
	c-3.4-0.6-3.3-0.5-2.6-2.6C97.4,551.7,97,551.6,101.3,553.8z M157.1,554.3c0,2-0.6,2.3-6.4,3.2c-3.5,0.6-6.6,1-6.8,0.7
	c-0.2-0.2-0.1-1.1,0.2-2.2c0.5-1.4,2-2.1,6.1-2.9c3-0.5,5.7-1,6.2-1C156.9,552.1,157.1,553,157.1,554.3z M200,553.8
	c0,1.6-1.7,3-3.9,3c-1.6,0-0.9-3.6,0.9-4.1C199.8,551.9,200,552,200,553.8z M191.4,555.8c0,1.4-0.7,1.9-2.4,1.9
	c-2.6,0-2.7-0.1-1.8-2.3C188.1,553.1,191.4,553.5,191.4,555.8z M229.5,554.8c0,1-5.8,2.3-6.6,1.5c-0.8-0.9,2-2.4,4.5-2.4
	C228.5,553.9,229.5,554.3,229.5,554.8z M183.8,556.7c0,1-0.9,2-1.9,2.3c-1.3,0.4-1.9,0-1.9-1.1c0-2,0.9-3,2.6-3
	C183.2,554.9,183.8,555.6,183.8,556.7z M219,556.2c0,0.8-1.3,1.4-3.3,1.7c-4,0.5-4.7-1.7-0.7-2.4c1.4-0.2,2.9-0.5,3.3-0.6
	C218.7,555,219,555.4,219,556.2z M137.1,557.6c0,1.9-3,2.9-13.5,4.4c-4.4,0.7-4.6,0.6-4.6-1.6c0-2.3,0.5-2.5,6.9-3.3
	C136.7,555.5,137.1,555.6,137.1,557.6z M176.4,558.2c-0.3,1.5-1,2.4-2.3,2.4c-3.1,0-1.2-4.3,2.2-4.7
	C176.6,555.8,176.7,556.9,176.4,558.2z M208.5,558.2c0,1-1,1.4-2.9,1.4c-3.6,0-3.7-1.6-0.2-2.2c1.4-0.2,2.7-0.5,2.9-0.6
	C208.5,556.9,208.5,557.4,208.5,558.2z M247.6,559.7c0,5.1,3.9,11.4,12.4,20.1c6.8,6.9,9.5,8.9,16.2,12.1c4.5,2.2,12.9,5.1,18.8,6.6
	c10.3,2.7,10.9,3,19.5,9.9c12.4,9.9,31.4,24.1,39,28.9c13.8,8.9,29.8,15.4,42.9,17.5l7.3,1.2v3.4v3.4l-71.7,0.2l-71.6,0.3l-12.1-3.8
	c-12.1-3.8-12.2-3.9-14.2-7.9c-1.1-2.2-7.6-12.6-14.5-23c-14.5-22.3-16.9-27.2-17.5-35.7c-0.8-10.6,4.2-17.1,15.4-20.5
	c6.1-1.7,10.5-5.1,12-9.4c1.1-3,1.5-3.2,8.9-4.7c4.3-0.8,8-1.4,8.5-1.5C247.3,556.8,247.6,558.1,247.6,559.7z M157.1,559.8
	c0,2.4-1.5,3.4-5.7,4.1c-2.4,0.3-5,0.9-5.9,1c-1.3,0.4-1.7-0.1-1.7-1.8c0-2.1,0.6-2.5,5.5-3.3C157,558.6,157.1,558.6,157.1,559.8z
	 M200,559.5c0,1-4.8,2.4-5.4,1.6c-0.3-0.2-0.2-0.9,0.2-1.4C195.5,558.5,200,558.3,200,559.5z M191.4,561c0,0.9-0.9,1.4-2.4,1.4
	c-3,0-3.1-1.6-0.2-2.2c1.1-0.2,2.2-0.5,2.4-0.6C191.3,559.7,191.4,560.3,191.4,561z M225.7,561.4c0,0.5-0.9,1.8-1.9,3l-2,2.3
	l1.5-3.1C224.7,560.7,225.7,559.7,225.7,561.4z M183.8,562.4c0,0.9-2.3,2-3.9,2c-0.5,0-0.9-0.7-0.9-1.4c0-0.9,0.9-1.4,2.4-1.4
	C182.7,561.5,183.8,561.9,183.8,562.4z M137.1,563c0,2.6-2.3,4-7.8,4.6c-3.3,0.4-7.1,1-8.6,1.2c-2.3,0.5-2.7,0.2-2.7-1.5
	c0-2.1,0.4-2.2,9-3.8C133,562.5,137.1,562.3,137.1,563z M176.2,563.4c0,1.1-2.7,2.4-3.4,1.6c-0.9-0.9,0.6-2.6,2.1-2.6
	C175.6,562.5,176.2,562.9,176.2,563.4z M216.2,563.5c-5.3,2.2-23.3,4.8-21.7,3.1c0.8-0.7,18.6-4,21.7-4l2.4-0.1L216.2,563.5z
	 M156.2,568.6c0,3.5,0.2,3.4-9.2,4.9l-4.1,0.7v-3.3v-3.4l5.5-0.6c3-0.4,5.9-0.8,6.4-1c0.6-0.2,1-0.4,1.2-0.4
	C156.1,565.3,156.2,566.8,156.2,568.6z M136,576.1c-0.4,10.9,0.2,11.5,10.2,10.8c10.2-0.9,14.9-2,16.4-4c0.7-1,1.2-4.1,1.2-7.1v-5.3
	l4.3,0.1c4.6,0.1,4.8,0.3,3.4,2.4c-0.8,1.1-1.1,1.1-2.4,0.2c-1.2-1-1.8-1-2.9-0.1c-1.8,1.4-0.9,3.8,1.5,3.8c1.5,0,1.7,0.4,1,2.1
	c-0.4,1.2-0.8,6.3-0.8,11.2c0,10.9-1.1,8.4,18.7,38.9c16.1,24.7,17.4,27.7,12.9,29.8c-3,1.3-2.2,1.6-39.1-15.9
	c-48.1-22.8-70.8-34-71.3-35.3c-0.3-0.7-0.2-3.4,0.1-6.1c0.8-6.5,2.7-7.6,14.8-9.1c6.1-0.7,10.1-1.6,11-2.6c1-1,1.6-4.3,2.1-9.6
	c0.4-4.6,0.9-8.4,1-8.6c0.2-0.2,4.3-1,8.9-1.7c4.8-0.9,8.7-1.5,8.9-1.6C136.2,568.3,136.2,571.8,136,576.1z M205.6,573.8
	c-7.3,6.2-9.9,15.6-7,25.4c2.3,7.9,4.7,12.2,17,31c18,27.4,19.4,30.8,16.2,37c-1.9,3.7-6.5,5.6-13.2,5.6h-5.3l2.2-3
	c1.7-2.2,2.2-4.2,2.2-8.3c0-7.5-3-13.6-19.6-38.7c-7.4-11.4-14.6-23.2-15.8-26.1c-3.5-8.7-2.7-16.8,2.4-22.9l2.8-3.3h11h10.9
	L205.6,573.8z M159.6,579.1c-0.5,1.9-1.4,2.3-8.9,3.2c-12.2,1.5-11.6,1.6-11.6-2.8c0-3.4,0.2-3.8,1.7-3c2.8,1.5,16.5-0.2,17.7-2.1
	c1-1.5,1-1.5,1.3,0.4C160,576,159.9,577.9,159.6,579.1z M111.7,587.2c-0.4,0.4-3,1-5.8,1.2c-5.1,0.6-5.1,0.6-3.7-1.5
	c0.8-1.2,3-2.6,5.5-3.1c3.8-1,4.2-0.9,4.5,0.9C112.4,585.6,112.2,586.8,111.7,587.2z M46.5,644c2.2,0.5,3,3.5,1.1,4.7
	c-0.6,0.4-3.8,0.3-7.2,0c-5.7-0.7-6.1-0.9-4.7-2.4c0.8-0.9,1.4-2,1.4-2.5C37.2,642.9,41.9,642.9,46.5,644z M131.2,644
	c1.8,0.6,0.3,1.6-9.2,6.7c-6.2,3.3-18.2,10.2-26.5,15.2c-19.6,12-23.3,13.7-29.7,13.7h-5.1l15.6-9.8c8.6-5.4,19.6-12.5,24.5-15.7
	c13.5-9.1,16.8-10.7,22.9-10.7C126.7,643.4,130,643.7,131.2,644z M30,645.8c0,1.4-11,6.4-12.8,5.7c-1.3-0.6-1.2-0.8,0.4-2.1
	C22.7,645.6,30,643.4,30,645.8z M36.6,657.1c1.9,6.6,2,6.3-1.3,6.3c-2.7,0-2.9-0.2-2.9-3.9c0-2.1-0.5-4.7-1-5.7
	c-0.9-1.5-0.7-1.8,1.3-1.8S35.4,652.7,36.6,657.1z M242.9,662.9l3.2,1.3l-4,0.1c-3,0-4.1-0.4-4.1-1.4
	C238.1,661.1,238.9,661.1,242.9,662.9z"/>
<path d="M243.2,297.9c-0.4,0.7-0.3,1.3,0.4,1.6c0.6,0.2,2.5,1.2,4.2,2.5c6.4,4.2,6.9,14.5,1.5,25.3c-4.6,9.3-10.9,10.9-17.2,4.7
	c-2.1-2.2-2.6-3.1-1.7-4c1.4-1.4,1.3-3.5-0.3-3.5c-0.7,0-3.2,0.9-5.6,1.9c-2.5,1-6.9,2.3-9.8,2.7c-5.6,0.7-7.7,2.4-4.2,3.5
	c2.1,0.7,2.1,1.5-0.2,7.3c-1.6,4.4-5.3,3.6-12-2.6c-7.3-6.8-9.3-11.3-7.7-17.8c0.6-2.6,0.9-5,0.5-5.2c-1.1-1.1-3.3,1.9-4.2,6.1
	c-1.5,7,0.9,12.7,8.6,19.9c2.8,2.6,6.4,5.3,8.1,6c6,2.5,11.3-1.9,11.9-9.7c0.2-3,0.6-3.7,2.7-4.1c1.3-0.3,3.5-0.9,5-1.3
	c2.2-0.7,2.9-0.4,5,2.5c3.1,4.1,6.9,6.1,11.7,6.1c5.5,0,9.6-3.2,13.4-10.6c7.2-14.3,4.1-29.1-6.8-31.8
	C244.9,297,243.7,297.1,243.2,297.9z"/>
<path d="M241.4,305.1c-7.5,5.9-24.9,11.7-37.6,12.6c-7.1,0.6-9,1-9,2.1s1.5,1.5,7.1,1.7c12.6,0.5,33.7-6.4,41-13.2
	C247.2,304.2,245.9,301.6,241.4,305.1z"/>
<path d="M229.5,199.7c-13,3.7-28.1,9.5-28.4,10.9c-0.4,1.8,1.9,6.3,4.4,8.5c3.8,3.4,7.6,3.1,18.6-1.6c18.3-7.8,23.2-8.6,36.4-5.6
	c3.9,0.9,7.4,1.3,7.7,1c1.4-1.4-1.3-5-6.6-8.4C251.3,197.8,241.6,196.3,229.5,199.7z M253.8,204.8l2.9,1.5l-7.2,0.1
	c-8.7,0-14.6,1.6-26.8,7.3c-8.6,3.9-9.5,4.2-12.2,3.1c-3.3-1.4-5.4-4.6-3.5-5.1c0.7-0.3,7-2.4,14.1-4.9c12.2-4.2,13.3-4.4,21.4-4
	C248,203.1,251.9,203.8,253.8,204.8z"/>
<path d="M255.7,220.7c-0.3,0.5,1,3,2.9,5.4c1.8,2.4,3.2,4.9,3,5.4c-1,2.8-25.2,10.8-37.7,12.5l-5,0.7l0.5-6.5
	c0.3-3.6,0.7-7.4,0.9-8.4c0.6-3.4-2.1-2.7-3.6,1c-2.4,5.7-1.4,14.6,2.1,19.6c4.4,6.4,10.3,8.9,20.8,8.9c7.7,0,9-0.3,13.7-2.9
	c6.6-3.6,10-7.9,11.9-14.9c1.2-4.3,1.4-6.4,0.7-9.1C264,225.8,257.3,218,255.7,220.7z M261.9,239.3c-1.1,5-4,9.2-8.1,12.1
	c-5.2,3.4-8.1,4.2-8.1,2.1c0-2.6-2.9-5.1-5.8-5.1c-3,0-6.2,3.7-5.2,6.2c1,2.9-7.9-0.5-11.1-4.1c-2-2.2-2.8-1.9,8.6-3.6
	c4.5-0.7,21-6.4,25.5-8.8C262.6,235.4,262.7,235.4,261.9,239.3z"/>
<path d="M221.9,259.2c0,3,11.9,9.1,17.6,9.1c4.9,0,4.4-2.5-0.7-3.2c-2.3-0.4-6.8-2.2-10.1-3.9C222,257.4,221.9,257.4,221.9,259.2z"
	/>
<path d="M308.2,211.6c-3.4,3.4-5.4,9.1-5.4,15.4c0,2.7,0.7,4.4,2.7,6.4c2.3,2.4,2.6,3.3,2.4,8.4c-0.3,6.2,1,7.1,3.2,2.7
	c2.3-4.4,0.9-10.9-3-14.1c-3.4-2.9-0.7-13.6,4.4-17.6c2.9-2.2,3-4.4,0.3-4.4C312,208.3,309.9,209.8,308.2,211.6z"/>
<path d="M185.1,271.4c-1.5,1.7-4,4-5.6,5.1c-2.2,1.5-2.6,2.3-1.7,3.1c2.1,2.2,9-3.8,11.3-9.8C190.1,267.4,188.2,268,185.1,271.4z"/>
<path d="M406.6,377.5c-4.9,1.8-15.3,7.6-19.4,10.9c-9.3,7.2-21.5,24.4-21.5,30.3c0,4,2.5,1.8,6.2-5.4c2.8-5.3,6.1-9.6,12.4-16
	c7.4-7.5,9.9-9.3,18-13.3c9.5-4.7,12.3-7.1,8-6.9C409,376.9,407.3,377.2,406.6,377.5z"/>
<path d="M196.6,468.7c-0.4,0.9-0.2,2,0.4,2.6c1.4,1.4,4.2,0.1,3.8-1.8C200.4,467.3,197.3,466.7,196.6,468.7z"/>
<path d="M136.2,503.9c-0.9,1-1,1.8-0.3,2.5c1.6,1.6,4.6,0.6,4.6-1.5C140.5,502.5,137.8,501.9,136.2,503.9z"/>
<path d="M178.8,517.1c-0.8,1.9,0.9,3.9,2.6,3.2c2.2-0.9,2-4.5-0.3-4.5C180.1,515.8,179,516.4,178.8,517.1z"/>
<path d="M451.4,493.5c-4,5-1.3,12.1,4.5,12.1c4.3,0,6.9-2.7,6.9-7.1C462.7,491.5,455.5,488.4,451.4,493.5z"/>
<path d="M470.4,497.4c-4,5-1.3,11.8,4.6,11.8c6,0,9-5.9,5.8-11.2C478.3,493.8,473.4,493.5,470.4,497.4z M478,505
	c-0.7,0.7-1.7,1.3-2.3,1.3c-0.6,0-0.3-0.5,0.7-1c0.9-0.5,1.7-2.1,1.7-3.5c0.2-2.3,0.2-2.4,0.6-0.4C478.9,502.6,478.5,504.2,478,505z
	"/>
<path d="M424,505.1c-0.8,0.3-1.2,2-1.2,3.9c0.1,3.1,0.2,3.3,1.3,1.8c1.1-1.4,1.4-1.4,2.5-0.2c1,1.2,1.4,1.2,3.1,0
	c1.4-1,2.3-1.1,3.2-0.3c1.6,1.2,1.6-0.2,0.1-3.5c-1.4-3.1-2-3-3.9,0.7c-1.2,2.3-1.5,2.6-1.2,1C428.3,506.2,426.1,504.3,424,505.1z"
	/>
<path d="M434.9,507.7c0.4,3,0.7,3.3,3.1,3.1c3-0.2,3.8-1.7,1-1.7c-1.1,0-2-0.8-2.2-2.1C436.4,503.4,434.6,504.1,434.9,507.7z"/>
<path d="M400.4,506.3c-1.8,0.8-1.8,0.9,0.2,0.9c1.1,0.1,2.4-0.4,2.7-0.9C403.9,505.2,403,505.2,400.4,506.3z"/>
<path d="M419.9,507.7c0,1.3-0.4,2.4-1,2.4c-0.5,0-1-0.9-1-1.9c0-1-0.5-1.9-1-1.9c-0.6,0-0.9,1.1-0.7,2.6c0.2,2.1,0.8,2.7,2.7,2.7
	c2,0,2.5-0.5,2.7-3.1c0.2-1.7-0.1-3-0.7-3C420.4,505.4,419.9,506.4,419.9,507.7z"/>
<path d="M410.5,509.4c-1.2,3.5-0.8,4.4,1.4,2.7c1.2-1.1,1.6-1,2.3,0c1.6,2.6,2,0.2,0.5-2.8C412.8,505.5,411.8,505.5,410.5,509.4z"/>
<path d="M444.9,513.4c-0.7,1-1.2,1.3-1.2,0.7c0-1.3-2.9-1.6-2.9-0.2c0,0.6-0.8,0.5-1.8-0.2c-1.6-1-2.2-0.9-3.8,0.6c-1.1,1-2,1.4-2,1
	s-1.5-1-3.3-1c-2.8-0.3-3.3,0-3.3,1.5c0,1,0.8,2.1,1.7,2.3c1.5,0.4,1.5,0.5,0,0.6c-2.4,0.1-2.1,2,0.2,2c2.4,0,3.6-2.8,1.8-3.9
	c-1-0.7-1-0.9,0.4-0.9c1,0,1.6,0.8,1.7,2.1c0,2,0.1,2,0.8,0.4c0.7-1.7,0.8-1.7,1.3-0.3c0.8,2.1,8.3,1.9,8.3-0.2c0-1,0.3-1,1.4-0.1
	c2,1.6,2.6,0.9,2.2-3C446.1,511.7,446,511.6,444.9,513.4z M438.7,516.5c-0.2,1-0.8,1.7-1.2,1.7c-0.5,0-1-0.8-1.2-1.7
	s0.3-1.6,1.2-1.6C438.5,514.9,438.9,515.5,438.7,516.5z"/>
<path d="M447.5,513.8c0,1,0.8,2.1,1.7,2.3c1.5,0.4,1.5,0.5,0,0.6c-2.7,0.2-2,2,0.7,2c2.9,0,3.2-2.5,0.8-4.4c-1.6-1.2-1.6-1.3,0-0.8
	c0.9,0.3,1.6,0.1,1.6-0.5c0-0.6-1-1-2.4-1C448.2,512,447.5,512.5,447.5,513.8z"/>
<path d="M423.7,515.5c0,1.2-0.3,1.3-1.1,0.5c-1.8-1.8-2.7-1.3-2.7,1.7c0,1.5,0.5,2.9,1,2.9c0.6,0,1-0.5,1-1.1c0-0.9,0.3-0.9,1.1,0
	c1.9,1.9,2.7,1.3,2.7-2.2c0-1.8-0.4-3.3-1-3.3C424.2,513.9,423.7,514.7,423.7,515.5z"/>
<path d="M411.3,516.3c0,0.8-0.4,1.4-1,1.4c-0.5,0-1-0.5-1-1c0-0.6-0.4-1-1-1c-0.5,0-1,1.6-0.9,3.5c0,3,0.2,3.2,0.9,1.7
	c0.5-1,0.9-1.3,0.9-0.8c0.1,1.5,9.6,1.7,9.6,0.3c0-0.6-0.8-1-1.6-1c-1.4,0-1.4-0.2,0.2-0.9c1.9-0.8,1.9-0.8,0.1-1.5
	c-1.8-0.7-1.8-0.8,0-1.4c1.5-0.6,1.4-0.8-0.8-0.8c-2.2-0.1-2.6,0.4-3,3l-0.4,3.1l-0.1-3.1C413.2,515,411.3,513.4,411.3,516.3z"/>
<path d="M398.5,516.8c-1,1.5,0.5,6.7,1.8,6.7c3.1,0,4.8-5.9,1.9-7C400.1,515.5,399.1,515.6,398.5,516.8z M402.3,519.6
	c0,0.7-0.6,1.4-1.1,1.6c-0.8,0.3-1.2-0.4-1.2-1.6s0.5-1.9,1.2-1.7C401.7,518.2,402.3,519,402.3,519.6z"/>
<path d="M404.7,519.1c0,1.9,0.5,3.4,1,3.4c0.6,0,1-1.2,1-2.8c0-1.6-0.4-3.1-1-3.4C405,515.9,404.7,517.1,404.7,519.1z"/>
<path d="M314.3,566.3c-1.2,1-3.4,1.9-5,1.9c-3.4,0-4.4,1.5-1.7,2.9c3,1.6,8.2,0.4,10-2.4c1.3-2.1,1.1-4.3-0.4-4.3
	C316.9,564.5,315.6,565.3,314.3,566.3z"/>
<path d="M297.1,575.8c-0.8,0.5-3,1-5,1c-2.5,0-3.5,0.4-3.3,1.1c1,3.1,9.7,3.2,10.9,0.2C300.4,576.1,298.8,574.8,297.1,575.8z"/>
<path d="M53.7,609.7c-2,1-3.4,2.7-4.1,4.8c-1.9,5.7,1,10.6,7.6,12.8c3.2,1,4,1,6.2-0.4c3-1.9,4.3-5.1,4.3-10.2
	C67.7,609.3,61,606.1,53.7,609.7z M58.1,617.3c0,1.2-0.7,2.9-1.5,3.7c-3.4,3.4-5.9-3.7-2.6-7.3c1.5-1.7,1.7-1.7,2.9-0.2
	C57.6,614.5,58.1,616.2,58.1,617.3z M63.8,617.8c0,1.3-0.7,3.2-1.5,4.3c-1.3,1.6-1.4,1.6-1,0.1c0.3-1,0.6-3.5,0.6-5.7
	c0-3,0.3-3.6,1-2.6C63.4,614.6,63.8,616.5,63.8,617.8z"/>
<path d="M53.8,615.9c-0.3,0.6-0.1,1.5,0.5,2.1c0.9,0.9,1.3,0.8,2-0.3c0.9-1.4,0.4-2.9-1-2.9C54.8,614.8,54.1,615.3,53.8,615.9z"/>
<path d="M80.5,620.1c-2.6,2.5-3.2,8.5-1.4,11.9c1.2,2.4,8.8,5.1,11.8,4.4c5.3-1.3,7.5-12.2,3.4-16.6
	C91.4,616.6,83.6,616.8,80.5,620.1z M86.9,623.9c1.4,3-0.4,7.4-2.9,6.9c-1.6-0.3-2.8-5.3-1.7-8C83.2,620.7,85.6,621.3,86.9,623.9z
	 M92.4,626.8c0,1.5-0.7,3.7-1.5,4.8c-1.4,1.8-1.5,1.8-0.8-0.1c0.5-1,0.8-3.7,0.8-5.9c0-2.2,0.4-3.5,0.8-2.9
	C92,623.4,92.4,625.2,92.4,626.8z"/>
<path d="M83.8,624.8c0,0.8,0.5,1.4,1,1.4c0.6,0,1-0.7,1-1.4s-0.4-1.4-1-1.4C84.3,623.4,83.8,624.1,83.8,624.8z"/>
<path d="M54.3,631c0,0.5,0.5,1,1,1c0.6,0,1,1,1,2.4s0.5,2.4,1,2.4c0.6,0,1-1,1-2.4s0.5-2.4,1-2.4c0.6,0,1-0.5,1-1c0-0.6-1.2-1-2.9-1
	C55.7,630.1,54.3,630.4,54.3,631z"/>
<path d="M66.6,635.5c-4.4,0.5-6.6,2.9-7.2,7.8c-0.7,5,1.2,7.9,6.7,10c4,1.5,4.6,1.5,7.2,0.2c5.1-2.7,6.3-12,1.9-16.6
	c-1-1.1-2.6-2-3.5-1.9C70.8,635.1,68.5,635.3,66.6,635.5z M65,642.4c-0.3,1.7,0,2.9,0.7,2.9c0.6,0,1-1.1,1.1-2.7
	c0-2.5,0.1-2.5,1-0.5c1.4,3-1.5,7.7-3.6,5.9c-1.6-1.3-1.7-5.8-0.2-7.3c0.7-0.7,1.2-1.1,1.2-1.1C65.4,639.6,65.3,640.8,65,642.4z
	 M73.4,644.2c0,1.9-0.7,4.4-1.5,5.4c-1.3,1.7-1.4,1.7-0.4-0.5c0.7-1.2,1-3.8,0.8-5.8s0-3.4,0.4-3.2
	C73.1,640.4,73.4,642.3,73.4,644.2z"/>
<path d="M85.7,639.8c0,2.5,2.1,6.6,3.2,6.2c1.6-0.6,3.5-6.2,2.4-6.9c-0.6-0.3-1.2,0.4-1.5,1.5l-0.6,2.2l-1.7-2.3
	C86.1,638.6,85.7,638.4,85.7,639.8z"/>
<path d="M65.7,657.7c0,0.5,0.5,1,1,1c0.6,0,1,1.2,1,2.9c0,1.5,0.5,2.9,1,2.9c0.6,0,1-1.3,1-2.9c0-1.6,0.5-2.9,1-2.9c0.6,0,1-0.5,1-1
	c0-0.6-1.2-1-2.9-1C67.1,656.7,65.7,657.1,65.7,657.7z"/>
<path d="M90.6,602.8c-1.3,1.5-0.9,4.4,0.7,4.4c0.5,0,1.4-0.7,2.1-1.5c1-1.1,1-1.7-0.2-2.9C91.9,601.6,91.6,601.6,90.6,602.8z"/>
<path d="M133.9,625.9c-0.4,1-0.2,2.1,0.3,2.6c1.3,1.3,4.1,0,3.7-1.9C137.5,624.3,134.7,623.9,133.9,625.9z"/>
<path d="M164,630.3c-0.7,0.7-1.1,2.4-1.1,3.9c0,2.3,0.6,3,3.7,4.2c2,0.8,4.2,2.5,4.8,3.7c2,4.5,9.5,4.2,12-0.6
	c3.1-6,0.2-12.4-5.7-12.4c-1.8,0-3.5,0.5-3.8,1c-0.4,0.7-1.1,0.7-2.4,0C169,628.7,165.4,628.8,164,630.3z M174.3,636.1
	c0,0.7-6.3-0.6-7.3-1.4c-2.6-2.1,0-2.6,3.6-0.8C172.6,634.9,174.3,636,174.3,636.1z"/>
<path d="M195.9,652.6c-1.4,1.3-0.7,4.1,1.1,4.1c2.5,0,3.4-1.6,2-3.3C197.7,651.9,196.8,651.6,195.9,652.6z"/>
<path d="M147.2,578.5c-0.2,0.4-0.1,1.3,0.4,2.1c0.7,1,1,1,2.3,0.1c0.9-0.7,1.2-1.6,1-2.1C150.2,577.5,147.9,577.4,147.2,578.5z"/>
<path d="M28.8,103c0.1,1.3,0.6,2.1,1,1.9c1.1-0.7,1-4.2-0.2-4.2C29.1,100.8,28.7,101.8,28.8,103z"/>
<path d="M28.9,114.1c0,2.7,0.2,4.6,0.5,4.4c1-1,1.3-9.1,0.4-9.1C29.3,109.3,28.9,111.5,28.9,114.1z"/>
<path d="M28.9,127.4c0,1.6,0.4,2.9,0.9,2.9c0.4,0,0.8-1,0.8-2.3c0-1.3-0.4-2.6-0.8-2.9C29.3,124.8,28.9,125.9,28.9,127.4z"/>
<path d="M456.5,147.4c0,1.5,0.3,2.6,0.8,2.3c0.4-0.3,0.8-1.3,0.8-2.3c0-1-0.4-2-0.8-2.3C456.7,144.8,456.5,145.9,456.5,147.4z"/>
<path d="M456.1,207.8c0,3,1.4,4,1.7,1c0.1-1.2-0.3-2.6-0.8-2.9C456.5,205.7,456.1,206.4,456.1,207.8z"/>
<path d="M456.4,223.1c0.1,3.6,0.9,3.6,1.2,0c0.1-1.2-0.1-2.6-0.6-2.9C456.6,220,456.4,221.3,456.4,223.1z"/>
<path d="M28.6,259.4c0,0.5,0.5,1.4,1,2.2c0.8,1.1,1,1,1-0.8c0-1.1-0.4-2.1-1-2.1C29.1,258.8,28.6,259.1,28.6,259.4z"/>
<path d="M28.6,275.2c0,2.2,0.3,2.8,0.9,1.8c0.8-1.1,0.4-4.9-0.5-4.9C28.8,272.1,28.6,273.5,28.6,275.2z"/>
<path d="M28.9,281.5c0,1,0.5,1.6,0.9,1.4c1-0.7,1-3.2-0.1-3.2C29.1,279.7,28.8,280.6,28.9,281.5z"/>
<path d="M29.2,285.2c-0.5,0.9-0.2,3.7,0.5,4.4c0.2,0.3,0.5-0.9,0.5-2.4C30.3,284.4,30,283.9,29.2,285.2z"/>
<path d="M29.5,310.4c-0.7,2.2-0.7,8.4,0.1,8.4c0.5,0,1-1.9,1-4.3s-0.2-4.3-0.5-4.3S29.6,310.3,29.5,310.4z"/>
<path d="M28.9,322.1c0,1.3,0.3,2.4,0.8,2.4s0.9-1,0.9-2.4s-0.4-2.4-0.9-2.4S28.9,320.8,28.9,322.1z"/>
<path d="M456.3,330.7c0.1,3.9,0.3,6.9,0.6,6.7c0.9-0.9,1-13.8,0.1-13.8C456.5,323.5,456.2,326.8,456.3,330.7z"/>
<path d="M29.5,330.4c-0.1,0.7-0.3,2.4-0.5,3.8c-0.1,1.4,0,2.8,0.4,3c0.4,0.2,0.8-1.5,1-3.8c0.1-2.3,0-4.2-0.3-4.2
	S29.5,329.8,29.5,330.4z"/>
<path d="M28.6,341.1c0,1.4,0.4,2.3,1,1.9c0.6-0.3,1-1.1,1-1.9s-0.4-1.6-1-1.9C29,338.8,28.6,339.7,28.6,341.1z"/>
<path d="M456.2,341.3c0,2.4,0.1,2.5,0.9,0.8c1.1-2.6,1.1-3.3,0-3.3C456.5,338.8,456.1,339.9,456.2,341.3z"/>
<path d="M29.7,345.1c0,0.6-0.4,1.9-0.7,2.9c-0.5,1.3-0.4,1.4,0.5,0.7c0.7-0.7,1-1.9,0.8-2.9C30,344.7,29.8,344.5,29.7,345.1z"/>
<path d="M456.7,349.9c-0.4,0.3-0.7,1.4-0.7,2.5c0,2.4,0.9,1.6,1.4-1.1C457.9,349.1,457.7,348.8,456.7,349.9z"/>
<path d="M28.6,366.2c0,2.2,0.5,4,1,4c0.6,0,0.9-1.4,0.7-3.3C29.8,362,28.6,361.6,28.6,366.2z"/>
<path d="M28.7,383c0,6.5,0.4,12.1,0.9,12.4c0.5,0.3,0.9-4.6,0.8-11.9c-0.1-6.8-0.5-12.4-0.9-12.4C29.1,371.1,28.8,376.5,28.7,383z"
	/>
<path d="M456.4,375c-0.1,2.1,0.2,3.5,0.7,3.2c0.5-0.3,0.8-1.8,0.6-3.4C457.1,370.6,456.5,370.6,456.4,375z"/>
<path d="M456.3,386.4c0,1.5,0.3,2.9,0.7,2.9c0.8,0,0.9-4.4,0-5.1C456.6,383.7,456.4,384.7,456.3,386.4z"/>
<path d="M456.9,397c-0.1,0.2-0.3,1.2-0.4,2.4c-0.3,2.5,1,3,1.8,0.8c0.3-0.8,0.1-1.4-0.5-1.4c-0.6,0-0.7-0.5-0.4-1
	c0.3-0.6,0.4-1,0.1-1S456.9,396.9,456.9,397z"/>
<path d="M456.4,438c-0.2,1.5,0.1,1.6,1.2,0.8c1.7-1.4,1.7-2.6,0.1-2.6C457,436.1,456.4,437,456.4,438z"/>
<path d="M456.1,451.3c0,5.8,0.3,10.3,0.7,9.9s0.6-2.1,0.5-3.9c-0.2-1.8,0.1-3.3,0.6-3.3c0.4,0,0.9-1.1,1-2.7
	c0.1-1.9-0.1-2.2-0.7-1.1c-0.7,1-1,0.6-0.9-1.7c0.1-1.6,0.4-2.8,0.9-2.6c0.4,0.3,0.6-0.3,0.4-1.1c-0.2-1-0.4-2.3-0.4-3
	c-0.1-0.6-0.5-1.1-1-1.1S456.1,444.8,456.1,451.3z"/>
<path d="M2,530.5c1.3,0.8,2.7,1.1,3,1c0.4-0.2,0.2,1-0.3,2.7c-0.5,1.7-0.9,6.4-0.8,10.3c0.2,6.8,0.1,7.1-2.1,7.8
	c-1.8,0.5-1.6,0.6,1,0.5l3.3-0.2l0.3-11.7l0.3-11.6H3.2C-0.4,529.2-0.4,529.2,2,530.5z"/>
<path d="M456.2,554.3c0,10.7-0.1,19.8-0.2,20.2c-0.1,0.5-0.1,1.2,0.1,1.8c0.1,0.5,0.1,4.3,0,8.4c-0.1,4.9,0.2,7.3,0.9,6.9
	c0.5-0.4,0.9-1.8,0.7-3.2c-0.1-1.4,0.2-3.3,0.7-4.4c0.6-1.2,0.6-1.5-0.2-1.1c-0.7,0.5-1-0.1-1-1.3c0-1.1,0.4-1.8,0.9-1.5
	c0.4,0.3,0.5-1.2,0.1-3.5c-0.5-2.2-0.6-4.4-0.3-4.9c0.3-0.5,0.7-8.5,0.9-17.8c0.3-12.9,0-17-0.9-17c-0.8,0-0.6-0.4,0.3-1
	c1.2-0.8,1.2-1-0.2-1S456.2,536.8,456.2,554.3z"/>
<path d="M-13.3,541.1c0,0.8,0.9,1.4,1.9,1.4s1.9-0.7,1.9-1.4c0-0.8-0.9-1.4-1.9-1.4S-13.3,540.3-13.3,541.1z"/>
<path d="M456.6,593.8c-0.5,0.7-1,63.1-0.7,67.4c0.1,1.7,1.7,1.5,2.4-0.3c0.4-1,0.2-1.2-0.7-0.8c-0.8,0.5-0.7,0.2,0.2-0.9
	c1-1.3,1-1.6,0-1.6c-0.9,0-1-0.3-0.4-0.8c0.9-0.6,1-1.9,0.5-4.5c-0.6-2.9,0.5-24.7,1.2-25.9c0.4-0.7,0.2-1.4-0.4-1.7
	c-0.5-0.4-0.9-2-0.8-3.7c0.2-1.6,0-3.5-0.5-4.2c-0.4-0.6-0.3-1.1,0.2-1.1s0.7-1.4,0.4-3.1c-0.3-1.6-0.5-6.8-0.5-11.4
	C457.7,592.9,457.6,592.2,456.6,593.8z"/>
</svg>
