<?xml version="1.0" encoding="UTF-8"?><svg id="Layer_2" xmlns="http://www.w3.org/2000/svg" xmlns:xlink="http://www.w3.org/1999/xlink" viewBox="0 0 143.75 120"><defs><radialGradient id="radial-gradient" cx="71.87" cy="60" fx="71.87" fy="60" r="66.2" gradientUnits="userSpaceOnUse"><stop offset="0" stop-color="#b6040a"/><stop offset=".99" stop-color="#ff7f8a"/></radialGradient><radialGradient id="radial-gradient-2" cx="44.46" cy="109.72" fx="44.46" fy="109.72" r="18.25" xlink:href="#radial-gradient"/><radialGradient id="radial-gradient-3" cx="58.04" cy="57.09" fx="58.04" fy="57.09" r="52.01" xlink:href="#radial-gradient"/><radialGradient id="radial-gradient-4" cx="39.25" cy="15.45" fx="39.25" fy="15.45" r="16.91" xlink:href="#radial-gradient"/><radialGradient id="radial-gradient-5" cx="43.21" cy="67.05" fx="43.21" fy="67.05" r="43.4" xlink:href="#radial-gradient"/><radialGradient id="radial-gradient-6" cx="43.44" cy="110.85" fx="43.44" fy="110.85" r="13.99" xlink:href="#radial-gradient"/><radialGradient id="radial-gradient-7" cx="16.82" cy="109.54" fx="16.82" fy="109.54" r="4.17" xlink:href="#radial-gradient"/><radialGradient id="radial-gradient-8" cx="43.32" cy="68.75" fx="43.32" fy="68.75" r="38.01" xlink:href="#radial-gradient"/><radialGradient id="radial-gradient-9" cx="75.71" cy="101.04" fx="75.71" fy="101.04" r="3.62" xlink:href="#radial-gradient"/><radialGradient id="radial-gradient-10" cx="69.15" cy="34.89" fx="69.15" fy="34.89" r="6.28" xlink:href="#radial-gradient"/><radialGradient id="radial-gradient-11" cx="71.82" cy="34.18" fx="71.82" fy="34.18" r="3.23" xlink:href="#radial-gradient"/><radialGradient id="radial-gradient-12" cx="8.64" cy="42.27" fx="8.64" fy="42.27" r="2.18" xlink:href="#radial-gradient"/><radialGradient id="radial-gradient-13" cx="16.88" cy="31.17" fx="16.88" fy="31.17" r="2.44" xlink:href="#radial-gradient"/><radialGradient id="radial-gradient-14" cx="10.32" cy="34.5" fx="10.32" fy="34.5" r="5.61" xlink:href="#radial-gradient"/><radialGradient id="radial-gradient-15" cx="9.7" cy="34.33" fx="9.7" fy="34.33" r="2.63" xlink:href="#radial-gradient"/><radialGradient id="radial-gradient-16" cx="6.06" cy="43.4" fx="6.06" fy="43.4" r="2.44" xlink:href="#radial-gradient"/><radialGradient id="radial-gradient-17" cx="12.98" cy="28.22" fx="12.98" fy="28.22" r="5.49" xlink:href="#radial-gradient"/><radialGradient id="radial-gradient-18" cx="45.36" cy="26.61" fx="45.36" fy="26.61" r="15.14" xlink:href="#radial-gradient"/><radialGradient id="radial-gradient-19" cx="90.71" cy="19.52" fx="90.71" fy="19.52" r="8.38" xlink:href="#radial-gradient"/><radialGradient id="radial-gradient-20" cx="34.41" cy="8.75" fx="34.41" fy="8.75" r="4.08" xlink:href="#radial-gradient"/><radialGradient id="radial-gradient-21" cx="63.41" cy="8.98" fx="63.41" fy="8.98" r="11.19" xlink:href="#radial-gradient"/><radialGradient id="radial-gradient-22" cx="96.87" cy="14.43" fx="96.87" fy="14.43" r="8.66" xlink:href="#radial-gradient"/><radialGradient id="radial-gradient-23" cx="110.9" cy="54.24" fx="110.9" fy="54.24" r="26.39" xlink:href="#radial-gradient"/><radialGradient id="radial-gradient-24" cx="110.67" cy="60.12" fx="110.67" fy="60.12" r="16.29" xlink:href="#radial-gradient"/><radialGradient id="radial-gradient-25" cx="103.08" cy="92.32" fx="103.08" fy="92.32" r="5" xlink:href="#radial-gradient"/><radialGradient id="radial-gradient-26" cx="95.74" cy="106.39" fx="95.74" fy="106.39" r="7.41" xlink:href="#radial-gradient"/><radialGradient id="radial-gradient-27" cx="109.9" cy="107.61" fx="109.9" fy="107.61" r="6.01" xlink:href="#radial-gradient"/><radialGradient id="radial-gradient-28" cx="121.72" cy="93.23" fx="121.72" fy="93.23" r="13.43" xlink:href="#radial-gradient"/><radialGradient id="radial-gradient-29" cx="112.95" cy="88.62" fx="112.95" fy="88.62" r="3.88" xlink:href="#radial-gradient"/><radialGradient id="radial-gradient-30" cx="88.52" cy="93.86" fx="88.52" fy="93.86" r="3.37" xlink:href="#radial-gradient"/><radialGradient id="radial-gradient-31" cx="92.15" cy="93.33" fx="92.15" fy="93.33" r="2.43" xlink:href="#radial-gradient"/><radialGradient id="radial-gradient-32" cx="138.02" cy="76.82" fx="138.02" fy="76.82" r="3.55" xlink:href="#radial-gradient"/><radialGradient id="radial-gradient-33" cx="136.18" cy="80.71" fx="136.18" fy="80.71" r="2.73" xlink:href="#radial-gradient"/><radialGradient id="radial-gradient-34" cx="120.19" cy="17.35" fx="120.19" fy="17.35" r="9.63" xlink:href="#radial-gradient"/><radialGradient id="radial-gradient-35" cx="114.37" cy="7.86" fx="114.37" fy="7.86" r="9.61" xlink:href="#radial-gradient"/><radialGradient id="radial-gradient-36" cx="110.25" cy="59.87" fx="110.25" fy="59.87" r="20.64" xlink:href="#radial-gradient"/><radialGradient id="radial-gradient-37" cx="109.66" cy="36.19" fx="109.66" fy="36.19" r="7.09" xlink:href="#radial-gradient"/><radialGradient id="radial-gradient-38" cx="111.5" cy="60.54" fx="111.5" fy="60.54" r="12.57" xlink:href="#radial-gradient"/><radialGradient id="radial-gradient-39" cx="43.9" cy="68.75" fx="43.9" fy="68.75" r="37.08" gradientUnits="userSpaceOnUse"><stop offset="0" stop-color="#e51200"/><stop offset="1" stop-color="#000"/></radialGradient></defs><g id="Layer_2-2"><path d="M1,30.27s4.53,68.58,5.88,74.24l11.77,11.09s3.25.47,9.29,1.06c10.23,1,28.46,2.34,52.5,2.34l53.64-16.07s8.15-15.39,8.6-17.43-1.81-64.28-1.81-64.28c0,0-6.34-14.71-9.73-16.75S65.51.17,61.88,1.3,30.65,5.38,25.22,7.87,7.34,18.96,7.34,18.96c0,0-2.94,2.94-6.34,11.32Z" style="fill:none; stroke:url(#radial-gradient); stroke-linecap:round; stroke-linejoin:round; stroke-width:2px;"/><polyline points="66.64 118.54 62.11 111.98 63.24 109.72 67.32 106.55 66.64 102.93 23.63 100.89 25.22 105.19 22.05 107.45 21.6 109.72 27.94 116.66" style="fill:none; stroke:url(#radial-gradient-2); stroke-linecap:round; stroke-linejoin:round; stroke-width:2px;"/><path d="M8.7,101.8l2.72,4.53,10.64,1.13,41.19,2.26,14.26-.45,3.17-3.85s-4.75-73.11-4.75-73.56-2.72-3.62-2.72-3.62l-11.09-1.81-2.26-3.4,21.95-14.03,25.58-4.53" style="fill:none; stroke:url(#radial-gradient-3); stroke-linecap:round; stroke-linejoin:round; stroke-width:2px;"/><polyline points="21.6 26.43 19.56 22.13 39.48 10.36 58.94 4.47" style="fill:none; stroke:url(#radial-gradient-4); stroke-linecap:round; stroke-linejoin:round; stroke-width:2px;"/><path d="M3.49,30.5l3.17-6.34,12.9-2.04h2.72s33.5.68,37.57.91,14.03.45,14.03.45l5.21,6.34,3.85,75.37-4.75,6.79h-14.03" style="fill:none; stroke:url(#radial-gradient-5); stroke-linecap:round; stroke-linejoin:round; stroke-width:2px;"/><line x1="24.77" y1="109.72" x2="62.11" y2="111.98" style="fill:none; stroke:url(#radial-gradient-6); stroke-linecap:round; stroke-linejoin:round; stroke-width:2px;"/><line x1="12.04" y1="109.36" x2="21.6" y2="109.72" style="fill:none; stroke:url(#radial-gradient-7); stroke-linecap:round; stroke-linejoin:round; stroke-width:2px;"/><path d="M79.54,96.82c-3.21-4.76-6.56,1.13-6.56,1.13-2.94,4.75.68,8.6.68,8.6h-3.17s-41.87-1.13-47.98-2.49-5.43-6.11-5.43-6.11c-.45-7.47-5.66-5.66-5.66-5.66l-4.3-43.68,2.26-3.4s5.59,2.72,10.19-11.54l.68-2.72h41.87s-2.04,10.86,12.45,14.26" style="fill:none; stroke:url(#radial-gradient-8); stroke-linecap:round; stroke-linejoin:round; stroke-width:2px;"/><path d="M75.67,98.41c-.19-.3-.66-.29-.94-.07s-.41.57-.53.9c-.33.93-.66,1.9-.54,2.88s.85,1.96,1.83,2.01c.78.04,1.5-.51,1.86-1.21s.42-1.51.4-2.29c-.01-.68-.09-1.4-.47-1.97s-1.16-.92-1.78-.63" style="fill:none; stroke:url(#radial-gradient-9); stroke-linecap:round; stroke-linejoin:round; stroke-width:2px;"/><path d="M63.92,30.05h-.45c1.6.08,2.73.6,4.3.92-1.04,1.47.34,2.26.43,4.05.08,1.75.86,3.59,2.41,4.4s3.87.06,4.23-1.66" style="fill:none; stroke:url(#radial-gradient-10); stroke-linecap:round; stroke-linejoin:round; stroke-width:2px;"/><path d="M71.86,32.07l-.45-.49c-.54.15-.85.7-1.04,1.22-.31.83-.49,1.75-.21,2.59s1.14,1.53,2.01,1.37c1.29-.24,1.66-1.95,1.39-3.23-.14-.65-.4-1.34-.97-1.7s-1.49-.17-1.66.48" style="fill:none; stroke:url(#radial-gradient-11); stroke-linecap:round; stroke-linejoin:round; stroke-width:2px;"/><path d="M8.86,40.43c-.48,1.15-.56,2.46-.24,3.67" style="fill:none; stroke:url(#radial-gradient-12); stroke-linecap:round; stroke-linejoin:round; stroke-width:2px;"/><path d="M14.58,31.17c1.54,0,3.08,0,4.61.01" style="fill:none; stroke:url(#radial-gradient-13); stroke-linecap:round; stroke-linejoin:round; stroke-width:2px;"/><path d="M9.21,39.56c.77.08,1.53-.22,2.18-.63,3.95-2.46,4.67-10.47-1.69-9.41-4.14.7-4.94,9.58-.49,10.04Z" style="fill:none; stroke:url(#radial-gradient-14); stroke-linecap:round; stroke-linejoin:round; stroke-width:2px;"/><path d="M9.81,32.8c-.64.22-1.31.58-1.56,1.21-.36.87.39,1.97,1.33,2.02s1.78-.9,1.67-1.84-1.08-1.66-2.02-1.56" style="fill:none; stroke:url(#radial-gradient-15); stroke-linecap:round; stroke-linejoin:round; stroke-width:2px;"/><path d="M5.93,41.14l.24,4.53" style="fill:none; stroke:url(#radial-gradient-16); stroke-linecap:round; stroke-linejoin:round; stroke-width:2px;"/><path d="M6.69,29.85c.33-.99,1.23-1.72,2.2-2.1s2.04-.47,3.08-.56c2.44-.2,4.87-.4,7.31-.6" style="fill:none; stroke:url(#radial-gradient-17); stroke-linecap:round; stroke-linejoin:round; stroke-width:2px;"/><path d="M24.99,26.33c13.57.48,27.16.66,40.74.55" style="fill:none; stroke:url(#radial-gradient-18); stroke-linecap:round; stroke-linejoin:round; stroke-width:2px;"/><path d="M83.91,23.53c.42.4.84.8,1.35,1.07,1.78.94,3.94,0,5.72-.94,1.44-.76,2.88-1.51,4.32-2.27,1.42-.75,2.86-1.5,4.08-2.55.11-.09.22-.2.26-.34.04-.17-.04-.35-.13-.51-.6-1.13-1.2-2.26-1.8-3.39-.1-.18-.21-.38-.39-.48-.17-.09-.38-.08-.58-.06-3.13.33-5.96,1.94-8.77,3.35-1.52.76-4.1,1.33-5.36,2.45-1.8,1.6-.37,2.09,1.29,3.67Z" style="fill:none; stroke:url(#radial-gradient-19); stroke-linecap:round; stroke-linejoin:round; stroke-width:2px;"/><path d="M29.78,8.78c2.79-.27,5.6-.35,8.4-.25.36.01.81.12.86.47" style="fill:none; stroke:url(#radial-gradient-20); stroke-linecap:round; stroke-linejoin:round; stroke-width:2px;"/><path d="M48.64,9.24l7.03.04c7.51.04,15.04.08,22.52-.6" style="fill:none; stroke:url(#radial-gradient-21); stroke-linecap:round; stroke-linejoin:round; stroke-width:2px;"/><path d="M87.03,9.73c3.74.53,7.52.77,11.29.72,2.95-.04,5.54,6.76,7.78,8.68.2-.04.4-.09.6-.13" style="fill:none; stroke:url(#radial-gradient-22); stroke-linecap:round; stroke-linejoin:round; stroke-width:2px;"/><path d="M106.47,23.26l-.04-.62c.65,2.42,1.07,4.91,1.23,7.42-4.64,2.55-8.38,8.27-10.51,13.12-2.12,4.85-2.99,10.16-3.3,15.45-.36,6.17.09,12.61,3,18.06s8.78,9.67,14.94,9.12c5.39-.48,9.99-4.48,12.49-9.28s3.23-10.31,3.58-15.71c.42-6.44.34-13.11-2.11-19.09s-7.72-11.15-14.14-11.85c-1.95-.21-4.11.06-5.52,1.44" style="fill:none; stroke:url(#radial-gradient-23); stroke-linecap:round; stroke-linejoin:round; stroke-width:2px;"/><path d="M101.96,51.53c-1.92,4.41-3.11,9.25-2.53,14.03s3.13,9.45,7.31,11.83c1,.57,2.09,1,3.23,1.12,2.78.3,5.51-1.31,7.23-3.52s2.59-4.95,3.31-7.66c1.45-5.5,2.35-11.41.61-16.82-.86-2.67-2.39-5.19-4.65-6.85-7.49-5.51-11.82,1.71-14.5,7.87Z" style="fill:none; stroke:url(#radial-gradient-24); stroke-linecap:round; stroke-linejoin:round; stroke-width:2px;"/><path d="M103.38,86.39c-.55,3.95.94,8.22-.7,11.86" style="fill:none; stroke:url(#radial-gradient-25); stroke-linecap:round; stroke-linejoin:round; stroke-width:2px;"/><path d="M89.17,106.21c-.09-.09-.17.16-.05.19s.23-.08.29-.19c.45-.68.82-1.41,1.1-2.18.1-.26.19-.54.39-.74.26-.25.64-.32,1-.37,3.56-.53,7.07-1.43,10.45-2.68.22.88-.25,1.76-.68,2.55-1.72,3.13-3.25,6.38-4.55,9.71" style="fill:none; stroke:url(#radial-gradient-26); stroke-linecap:round; stroke-linejoin:round; stroke-width:2px;"/><path d="M103.53,110.85l3.25-5.05c1.92.08,3.85-.29,5.6-1.07.44-.2.9-.43,1.38-.36.71.1,1.16.8,1.5,1.43.33.61.67,1.21,1,1.82" style="fill:none; stroke:url(#radial-gradient-27); stroke-linecap:round; stroke-linejoin:round; stroke-width:2px;"/><path d="M105.32,99.83c9.41-1.87,18.64-4.68,27.49-8.37,1.02-.43,2.05-.87,2.94-1.54,1.09-.83,1.93-1.99,2.37-3.3" style="fill:none; stroke:url(#radial-gradient-28); stroke-linecap:round; stroke-linejoin:round; stroke-width:2px;"/><path d="M109.87,87.31l-.21-.62c.46,1.46.92,2.91,1.38,4.37.97-.11,1.93-.21,2.9-.32.46-.05.95-.11,1.29-.42.39-.35.5-.91.58-1.42.14-.9.28-1.8.42-2.7" style="fill:none; stroke:url(#radial-gradient-29); stroke-linecap:round; stroke-linejoin:round; stroke-width:2px;"/><path d="M89.73,90.85c.11-.01.04-.21-.07-.19s-.16.14-.2.24c-.73,2.05-1.46,4.1-2.2,6.15" style="fill:none; stroke:url(#radial-gradient-30); stroke-linecap:round; stroke-linejoin:round; stroke-width:2px;"/><path d="M92.95,91.41l-1.59,3.84" style="fill:none; stroke:url(#radial-gradient-31); stroke-linecap:round; stroke-linejoin:round; stroke-width:2px;"/><path d="M136.07,73.77l3.9,6.12c-.06-.09-.13-.19-.19-.28" style="fill:none; stroke:url(#radial-gradient-32); stroke-linecap:round; stroke-linejoin:round; stroke-width:2px;"/><path d="M135.11,78.74c-.12-.08.03-.29.17-.25s.21.19.26.32c.43,1.11.87,2.22,1.3,3.32.06.15.21.24.33.35s.19.32.07.43-.32-.16-.16-.2" style="fill:none; stroke:url(#radial-gradient-33); stroke-linecap:round; stroke-linejoin:round; stroke-width:2px;"/><path d="M108.24,20.54c7.55-2.43,15.21-4.54,22.94-6.32.35-.08.8-.12.97.19" style="fill:none; stroke:url(#radial-gradient-34); stroke-linecap:round; stroke-linejoin:round; stroke-width:2px;"/><path d="M102.26,10.43c5.73-1.64,11.54-3.02,17.39-4.12,2.11-.4,4.23-.76,6.37-1,.17-.02.38-.01.45.14s-.26.27-.24.1" style="fill:none; stroke:url(#radial-gradient-35); stroke-linecap:round; stroke-linejoin:round; stroke-width:2px;"/><path d="M95.84,49.94l2.65.24c.7-5.19,4.02-9.95,8.64-12.4,1.4-.74,2.91-1.29,4.48-1.55,1.05-.18,2.14-.23,3.19-.02,3.42.7,5.69,4.01,6.8,7.32s1.43,6.88,2.87,10.05c.12.26.25.54.18.82s-.42.5-.64.32c.48,4.22.1,11.12-1.24,15.15-.57,1.71-1.14,3.43-2.1,4.95-1.17,1.84-2.87,3.33-3.77,5.32-.38.84-.65,1.81-1.42,2.31-.69.45-1.72.48-2.09,1.22.28-1.18.39-2.4.34-3.61,0-.15-.03-.33-.16-.41s-.35.07-.26.2" style="fill:none; stroke:url(#radial-gradient-36); stroke-linecap:round; stroke-linejoin:round; stroke-width:2px;"/><path d="M101.48,39.23c3.49-2.84,7.29-5.81,11.78-6.08,1.62-.1,3.33.21,4.58,1.25" style="fill:none; stroke:url(#radial-gradient-37); stroke-linecap:round; stroke-linejoin:round; stroke-width:2px;"/><path d="M108.52,48.28l-3.63,5.91c-.41.67-.83,1.35-1.16,2.06-.69,1.49-1,3.16-.9,4.8,1.09-.21,1.97.92,3.06.71.11.86.22,1.72.34,2.57-1.12.58-2.13,1.39-2.94,2.36.07.25.27.96.35,1.21.78,2.36,2.31,4.56,4.51,5.73s5.1,1.14,7.04-.42c1.7-1.36,2.43-3.57,3.08-5.66.64-2.07,1.28-4.13,1.92-6.2-.94-.08-1.91.06-2.79.41.37-.71.12-1.56-.02-2.34s-.04-1.77.68-2.11c.75-.36,2.09-.05,2.12-.88,0-.17-.07-.33-.14-.49-.71-1.54-1.43-3.09-2.14-4.63-.55-1.19-1.13-2.42-2.15-3.24-1.19-.96-2.78-1.21-4.29-1.43" style="fill:none; stroke:url(#radial-gradient-38); stroke-linecap:round; stroke-linejoin:round; stroke-width:2px;"/><path d="M9.37,45.21l-1.82,4.65,3.85,42.43s3.47-3.29,6.83,7.07c0,0-2.34,3.13,6.25,5.21s49.16,1.98,49.16,1.98c0,0-4.87-3.54-.18-8.23s5.73-2.08,6.77-1.82l-4.54-51.28s-13.75-1.12-13.6-14.26H20.24s-3.34,16.66-10.86,14.26Z" style="fill:url(#radial-gradient-39);"/><path d="M19.07,66.67c-.18.14-.4-.11-.49-.33-1.8-4.36-1.32-9.49.54-13.82.81-1.88,1.94-3.71,3.64-4.73s4.1-1.02,5.46.47c.44.48,1.13,1.13,1.58.66" style="fill:none; stroke:#fff; stroke-linecap:round; stroke-linejoin:round; stroke-width:2px;"/><path d="M25.27,68.95c3,1.32,5.96,2.75,8.85,4.3-2.77.68-5.55,1.37-8.32,2.05" style="fill:none; stroke:#fff; stroke-linecap:round; stroke-linejoin:round; stroke-width:2px;"/><path d="M56.81,65.73l-6.3,4.25c-.12.08-.25.2-.22.34.03.1.13.16.23.2,2.55,1.04,5.46,1.09,8.04.12.03.25.05.51.08.76" style="fill:none; stroke:#fff; stroke-linecap:round; stroke-linejoin:round; stroke-width:2px;"/><path d="M63.18,56.52c.11,0-.08-.17-.11-.06s.09.2.2.24c3.22,1.37,6.11,3.57,8.36,6.35" style="fill:none; stroke:#fff; stroke-linecap:round; stroke-linejoin:round; stroke-width:2px;"/><path d="M63.19,62.62l6.2-8.24" style="fill:none; stroke:#fff; stroke-linecap:round; stroke-linejoin:round; stroke-width:2px;"/><path d="M67.36,63.37c.01-.27.25-.51.51-.52-.31.47-.74.85-1.23,1.1,2.21-2.17,4.41-4.33,6.62-6.5" style="fill:none; stroke:#fff; stroke-linecap:round; stroke-linejoin:round; stroke-width:2px;"/><path d="M52.09,82.01c-2.39,4.22-4.78,8.44-7.17,12.65-.96,1.7-1.97,3.44-3.52,4.57-2.98,2.16-7.33,1.29-9.98-1.29s-3.81-6.49-4-10.28c-.16-3.14.31-6.4,1.89-9.08,7.13,2.26,15.36,4.05,22.78,3.43Z" style="fill:none; stroke:#fff; stroke-linecap:round; stroke-linejoin:round; stroke-width:2px;"/><path d="M29.93,82.58c5.65,2.47,11.87,3.51,17.97,2.99" style="fill:none; stroke:#fff; stroke-linecap:round; stroke-linejoin:round; stroke-width:2px;"/><path d="M29.46,92.35c.88-2.05,3.26-2.85,5.39-3.05,1.73-.17,3.53-.09,5.11.66s2.91,2.27,3.1,4.07" style="fill:none; stroke:#fff; stroke-linecap:round; stroke-linejoin:round; stroke-width:2px;"/></g></svg>