<?xml version="1.0" encoding="UTF-8"?><svg id="Layer_2" xmlns="http://www.w3.org/2000/svg" viewBox="0 0 145.46 125.45"><g id="AI_pet"><g id="AI2"><path d="M125.35,23.55c1.43.09,2.93.23,4.1,1.04.86.6,1.45,1.5,2,2.4,9.28,15.09,13.47,33.26,11.73,50.89-28.48,4.26-57.75,8.49-85.86,2.2-1.59-.36-3.22-.77-4.53-1.74-1.65-1.23-2.55-3.2-3.27-5.13-5.19-13.91-5.93-38.95,11.23-43.57,20.9-5.63,43.04-7.5,64.61-6.09Z" style="fill:#0b2323; stroke:#72ced3; stroke-linecap:round; stroke-linejoin:round; stroke-width:3px;"/><path d="M95.45,49.86c.17-.02-.04-.31-.17-.2s-.06.33.01.48c.83,1.75,1.67,3.53,2.9,5.02s2.91,2.72,4.83,3c2.31.34,4.63-.74,6.4-2.26.87-.75,1.66-1.65,2.08-2.72s.43-2.35-.17-3.33" style="fill:none; stroke:#72ced3; stroke-linecap:round; stroke-linejoin:round; stroke-width:3px;"/><path d="M124.16,47.82c.17,1.78.78,3.94,2.53,4.3,1.5.31,2.88-.99,3.56-2.37.85-1.72,1.09-3.73.67-5.6-.43-1.92-2.42-7.71-5.43-6.49-2.66,1.07-1.53,8.01-1.33,10.17Z" style="fill:#72ced3;"/><path d="M69.81,41.18c-.61,1.34-.62,2.87-.53,4.35.1,1.6.3,3.2.61,4.78.12.63.27,1.27.65,1.78.88,1.2,2.79,1.24,4.01.4s1.88-2.3,2.22-3.75c.5-2.11.47-4.35-.09-6.45-.97-3.67-5.02-5.18-6.87-1.11Z" style="fill:#72ced3;"/><path d="M126.73,24.09c-1.25-5.13-6.01-8.54-10.58-11.2-10-5.82-20.99-10.36-32.52-11.24-6.39-.49-12.83.16-19.12,1.39C41.01,7.65,18.65,21.31,7.02,42.23c-3.76,6.77-6.4,14.54-5.25,22.2,1.28,8.53,7.02,15.66,12.93,21.93,11.38,12.07,24.42,22.83,39.48,29.77s32.29,9.88,48.47,6.23c16.18-3.65,31.05-14.37,37.87-29.49,2.13-4.72,3.08-10.35,2.49-15.49l.95-.95" style="fill:none; stroke:#72ced3; stroke-linecap:round; stroke-linejoin:round; stroke-width:3px;"/><path d="M10.6,51c-.54.81-.74,1.8-.9,2.76-.63,3.77-.78,7.62-.46,11.42.15,1.75.41,3.54,1.24,5.09s2.34,2.83,4.09,2.97c.49.04,1.01-.02,1.43-.28.77-.48,1.01-1.46,1.18-2.35,1.13-5.75,2.2-11.7.96-17.43-.29-1.33-.75-2.71-1.79-3.57-1.62-1.35-4.68-.24-5.76,1.39Z" style="fill:#0b2323; stroke:#72ced3; stroke-linecap:round; stroke-linejoin:round; stroke-width:3px;"/><path d="M6.85,50.34c-2.09,4.18-2.72,8.99-2.38,13.65.4,5.42,2.43,11.18,7.06,14.03,2,1.23,4.32,1.82,6.6,2.39,2.69.67,5.76,1.29,8.07-.25,1.63-1.09,2.47-3.01,3.14-4.85,1.7-4.73,2.78-9.68,3.2-14.69.44-5.19.1-10.69-2.65-15.11-6.74-10.84-18.54-4.17-23.04,4.82Z" style="fill:none; stroke:#72ced3; stroke-linecap:round; stroke-linejoin:round; stroke-width:3px;"/></g></g></svg>