<?xml version="1.0" encoding="UTF-8"?>
<svg id="Layer_2" xmlns="http://www.w3.org/2000/svg" xmlns:xlink="http://www.w3.org/1999/xlink" version="1.1" viewBox="0 0 564.1 406.8">
  <!-- Generator: Adobe Illustrator 30.3.0, SVG Export Plug-In . SVG Version: 2.1.3 Build 182)  -->
  <defs>
    <style>
      .st0 {
        fill: url(#radial-gradient);
      }

      .st0, .st1, .st2, .st3, .st4, .st5, .st6, .st7, .st8, .st9, .st10, .st11, .st12, .st13, .st14, .st15, .st16, .st17 {
        stroke: #cdedf9;
        stroke-width: 2px;
      }

      .st0, .st1, .st2, .st3, .st4, .st5, .st6, .st7, .st8, .st9, .st10, .st11, .st12, .st13, .st14, .st15, .st17 {
        stroke-linecap: round;
      }

      .st0, .st1, .st2, .st3, .st4, .st5, .st7, .st8, .st9, .st10, .st11, .st12, .st13, .st14, .st15, .st17 {
        stroke-linejoin: round;
      }

      .st1 {
        fill: url(#radial-gradient10);
      }

      .st2 {
        fill: url(#radial-gradient12);
      }

      .st3 {
        fill: url(#radial-gradient14);
      }

      .st4 {
        fill: url(#radial-gradient11);
      }

      .st5 {
        fill: url(#radial-gradient13);
      }

      .st6, .st16 {
        stroke-miterlimit: 10;
      }

      .st6, .st16, .st17 {
        fill: none;
      }

      .st7 {
        fill: url(#radial-gradient1);
      }

      .st8 {
        fill: url(#radial-gradient3);
      }

      .st9 {
        fill: url(#radial-gradient9);
      }

      .st10 {
        fill: url(#radial-gradient8);
      }

      .st11 {
        fill: url(#radial-gradient6);
      }

      .st12 {
        fill: url(#radial-gradient2);
      }

      .st13 {
        fill: url(#radial-gradient4);
      }

      .st14 {
        fill: url(#radial-gradient5);
      }

      .st15 {
        fill: url(#radial-gradient7);
      }

      .st18 {
        fill: #cdedf9;
      }
    </style>
    <radialGradient id="radial-gradient" cx="429.8" cy="285.9" fx="429.8" fy="285.9" r="2.7" gradientTransform="translate(0 408) scale(1 -1)" gradientUnits="userSpaceOnUse">
      <stop offset="0" stop-color="#00d5df"/>
      <stop offset="1" stop-color="#008adf" stop-opacity=".5"/>
    </radialGradient>
    <radialGradient id="radial-gradient1" cx="384.8" cy="285.9" fx="384.8" fy="285.9" r="2.7" gradientTransform="translate(0 408) scale(1 -1)" gradientUnits="userSpaceOnUse">
      <stop offset="0" stop-color="#00d5df"/>
      <stop offset="1" stop-color="#008adf" stop-opacity=".5"/>
    </radialGradient>
    <radialGradient id="radial-gradient2" cx="27.6" cy="293.7" fx="27.6" fy="293.7" r="22.1" gradientTransform="translate(0 408) scale(1 -1)" gradientUnits="userSpaceOnUse">
      <stop offset="0" stop-color="#00d5df"/>
      <stop offset="1" stop-color="#008adf" stop-opacity=".5"/>
    </radialGradient>
    <radialGradient id="radial-gradient3" cx="27.6" cy="337.7" fx="27.6" fy="337.7" r="22.1" gradientTransform="translate(0 408) scale(1 -1)" gradientUnits="userSpaceOnUse">
      <stop offset="0" stop-color="#00d5df"/>
      <stop offset="1" stop-color="#008adf" stop-opacity=".5"/>
    </radialGradient>
    <radialGradient id="radial-gradient4" cx="66" cy="360" fx="66" fy="360" r="22.1" gradientTransform="translate(0 408) scale(1 -1)" gradientUnits="userSpaceOnUse">
      <stop offset="0" stop-color="#00d5df"/>
      <stop offset="1" stop-color="#008adf" stop-opacity=".5"/>
    </radialGradient>
    <radialGradient id="radial-gradient5" cx="142.4" cy="360" fx="142.4" fy="360" r="22.1" gradientTransform="translate(0 408) scale(1 -1)" gradientUnits="userSpaceOnUse">
      <stop offset="0" stop-color="#00d5df"/>
      <stop offset="1" stop-color="#008adf" stop-opacity=".5"/>
    </radialGradient>
    <radialGradient id="radial-gradient6" cx="104.6" cy="337.9" fx="104.6" fy="337.9" r="22.1" gradientTransform="translate(0 408) scale(1 -1)" gradientUnits="userSpaceOnUse">
      <stop offset="0" stop-color="#00d5df"/>
      <stop offset="1" stop-color="#008adf" stop-opacity=".5"/>
    </radialGradient>
    <radialGradient id="radial-gradient7" cx="27.6" cy="380.5" fx="27.6" fy="380.5" r="6.3" gradientTransform="translate(0 408) scale(1 -1)" gradientUnits="userSpaceOnUse">
      <stop offset="0" stop-color="#00d5df"/>
      <stop offset="1" stop-color="#008adf" stop-opacity=".5"/>
    </radialGradient>
    <radialGradient id="radial-gradient8" cx="66" cy="315.8" fx="66" fy="315.8" r="6.3" gradientTransform="translate(0 408) scale(1 -1)" gradientUnits="userSpaceOnUse">
      <stop offset="0" stop-color="#00d5df"/>
      <stop offset="1" stop-color="#008adf" stop-opacity=".5"/>
    </radialGradient>
    <radialGradient id="radial-gradient9" cx="104.6" cy="382" fx="104.6" fy="382" r="6.3" gradientTransform="translate(0 408) scale(1 -1)" gradientUnits="userSpaceOnUse">
      <stop offset="0" stop-color="#00d5df"/>
      <stop offset="1" stop-color="#008adf" stop-opacity=".5"/>
    </radialGradient>
    <radialGradient id="radial-gradient10" cx="49.3" cy="199.5" fx="49.3" fy="199.5" r="10.6" gradientTransform="translate(0 408) scale(1 -1)" gradientUnits="userSpaceOnUse">
      <stop offset="0" stop-color="#00d5df"/>
      <stop offset="1" stop-color="#008adf" stop-opacity=".5"/>
    </radialGradient>
    <radialGradient id="radial-gradient11" cx="49.3" cy="171.2" fx="49.3" fy="171.2" r="10.6" gradientTransform="translate(0 408) scale(1 -1)" gradientUnits="userSpaceOnUse">
      <stop offset="0" stop-color="#00d5df"/>
      <stop offset="1" stop-color="#008adf" stop-opacity=".5"/>
    </radialGradient>
    <radialGradient id="radial-gradient12" cx="49.3" cy="142.9" fx="49.3" fy="142.9" r="10.5" gradientTransform="translate(0 408) scale(1 -1)" gradientUnits="userSpaceOnUse">
      <stop offset="0" stop-color="#00d5df"/>
      <stop offset="1" stop-color="#008adf" stop-opacity=".5"/>
    </radialGradient>
    <radialGradient id="radial-gradient13" cx="49.3" cy="114.6" fx="49.3" fy="114.6" r="10.5" gradientTransform="translate(0 408) scale(1 -1)" gradientUnits="userSpaceOnUse">
      <stop offset="0" stop-color="#00d5df"/>
      <stop offset="1" stop-color="#008adf" stop-opacity=".5"/>
    </radialGradient>
    <radialGradient id="radial-gradient14" cx="49.3" cy="86.2" fx="49.3" fy="86.2" r="10.5" gradientTransform="translate(0 408) scale(1 -1)" gradientUnits="userSpaceOnUse">
      <stop offset="0" stop-color="#00d5df"/>
      <stop offset="1" stop-color="#008adf" stop-opacity=".5"/>
    </radialGradient>
  </defs>
  <rect class="st18" x="332.2" y="340.8" width="191.9" height="8.8"/>
  <polygon class="st18" points="545.4 162.3 564.1 149.4 564.1 16.2 545.3 1 545.4 162.3"/>
  <polygon class="st18" points="442.2 353.1 445.8 364.3 457.5 364.3 448.1 371.1 451.7 382.3 442.2 375.4 432.7 382.3 436.3 371.1 426.9 364.3 438.6 364.3 442.2 353.1"/>
  <polygon class="st18" points="410.1 353.1 413.7 364.3 425.4 364.3 415.9 371.1 419.5 382.3 410.1 375.4 400.6 382.3 404.2 371.1 394.7 364.3 406.5 364.3 410.1 353.1"/>
  <polygon class="st18" points="377.9 353.1 381.6 364.3 393.3 364.3 383.8 371.1 387.4 382.3 377.9 375.4 368.5 382.3 372.1 371.1 362.6 364.3 374.3 364.3 377.9 353.1"/>
  <polygon class="st18" points="345.3 353.1 348.9 364.3 360.7 364.3 351.2 371.1 354.8 382.3 345.3 375.4 335.8 382.3 339.5 371.1 330 364.3 341.7 364.3 345.3 353.1"/>
  <polygon class="st18" points="506.5 353.1 510.2 364.3 521.9 364.3 512.4 371.1 516 382.3 506.5 375.4 497.1 382.3 500.7 371.1 491.2 364.3 502.9 364.3 506.5 353.1"/>
  <polygon class="st18" points="474.8 353.1 478.4 364.3 490.2 364.3 480.7 371.1 484.3 382.3 474.8 375.4 465.3 382.3 469 371.1 459.5 364.3 471.2 364.3 474.8 353.1"/>
  <g id="ID_character">
    <rect class="st17" x="324" y="13.6" width="208.3" height="312.5"/>
    <path class="st6" d="M398.2,152.9c-23.3,6-19.1,20.7-19.1,20.7-11-11.4-10.6-21.8-10.6-21.8v-41.1c0-1.1,0-2.1,0-3.2.6-30.3,10.6-39.2,10.6-39.2,0,0,11.2,0,16.5-4.2,0,0-3.1,5.7-5.6,6.2,0,0,5.8,3.5,39.2-9.6,0,0,19-4.1,28.4,18,0,0,1.8,3.4,0,9.2s-1.2,7.3,2,14.9-1.6,46.6-5.6,53.6-12.7,17-18.8,20.1c0,0,2.5-21.8-26-23.2,0,0-.8,0-.7-.8"/>
    <path class="st6" d="M368.1,106.9c-5.2-9-4.5-20.4-4.5-20.4l-2.1,2.5c-1.1,1.2-.7-14.2,6.7-23.4,0,0-3.6,2-7.8,2.8,0,0,1.5-16.4,23-20.3,0,0-7.6,1-8.3-.4s24.8-17.2,48-9.2c0,0-3.5-5.6-6.7-5.7,0,0,29.1,4.2,38.1,22.5l-2.7-9.7s7.1,8.2,6.9,14.9c0,0,9.8,0,15.1,12.9l-5.9-2.5s6.4,5.9,5.9,19.8-2.4,16.2-2.4,16.2c0,0-1.8,4.2-1.9,8.9"/>
    <path class="st6" d="M463.7,152.6s6,2.9,8.5-3.9,5.4-12.2,5.4-12.2c0,0,4.6-8.5,0-17,0,0-4.5-6.6-9.8-2,0,0-2.7,1.1-4,7.7l-.4,30.5s-2.2,20.8-14.7,32.1-24,19.5-38.2,18.5c-14.3-1-26.6-10.4-31.4-15.9s-14.4-19.5-10.4-35"/>
    <path class="st6" d="M413.8,148.8s1.1,4.3-14.5,3.8c0,0-6.4-.4-2.8-9.9s6.5-20.2,6.5-20.2c0,0,1.7-5.7.4-9.7"/>
    <path class="st6" d="M393.9,135.6s-1.6,2.7-6.8,3.9"/>
    <path class="st6" d="M420.2,136.2s3.1,3.4,10.1,4.4"/>
    <path class="st6" d="M468.7,141.9s1.1-3.7-.8-8.4c0,0-1.5-1.1.6-4.6s.3-5.3,6.4-7.1"/>
    <path class="st6" d="M413.5,98.4s-2,3.2.3,8.1c0,0,4.7,1.7,17.8-1.9,0,0,9.3-.3,17.8,2.9,0,0,1-7.9-13.5-11.3,0,0-3.4-.6-12.4,1.9,0,0-4.8.4-10,.4h0Z"/>
    <path class="st6" d="M401.5,99.7s1.5,4.2-1.4,7.2c0,0-11,0-17-1.3s-12.6,2.2-12.6,2.2c0,0-2.2-5.8,8.9-9.8,0,0,5.4-1,13.3.8,0,0,8,.3,8.8,1.1h0Z"/>
    <path class="st6" d="M398.7,175l12.9.3s-1.5,9.1,8,10.2c0,0,9-.5,8.5-11.4,0,0,.4-6.4-11.3-9.6s-13.4-2.8-18-1.8-12.2,2.8-13.1,7.5-.8,11.6,6,13.6,7.1-8.8,7.1-8.8h0Z"/>
    <path class="st6" d="M393.7,169.6s-.3-.3,2.2-.6,17.9.3,17.9.3c0,0,3-.1,4.1,1.1"/>
    <ellipse class="st6" cx="430.3" cy="122.1" rx="14.2" ry="11.8"/>
    <ellipse class="st0" cx="429.8" cy="122.1" rx="2.9" ry="2.5"/>
    <ellipse class="st6" cx="385.2" cy="122.1" rx="14.2" ry="11.8"/>
    <ellipse class="st7" cx="384.8" cy="122.1" rx="2.9" ry="2.5"/>
    <path class="st6" d="M391.5,200.2s-2.5,13.3,3.3,19.6,13.8,10.1,21.8,10.5,21.1-.8,31.8-11.1c10.6-10.3,9.7-22.2,6.3-22.2l-1.9-3.1-.3-10.5"/>
    <path class="st6" d="M452.9,192.1s8.2,2.1,9.9,5.4,3.1,10.3-3.8,20.5-19.3,19.9-37,19.9-26.5-6.8-32.2-12.6c-4.8-4.9-8.1-16.7-3.7-23.2.9-1.3,2-2.3,3.5-3.1"/>
    <path class="st6" d="M350.2,237.9s-4.8,21.5-1,54.5l.3,30"/>
    <path class="st6" d="M386.1,202.2s-31.5,13.2-38.3,19-8.8,8.6-13.4,21.7-10.4,41.5-10.4,41.5c0,0,1.9,2.3,6.9,4.4,4,1.7,9.9,3.3,18.3,3.6"/>
    <line class="st6" x1="327.4" y1="322.4" x2="330.9" y2="288.8"/>
    <path class="st6" d="M462.8,197.6s16.8,9.8,43.8,21.1c0,0,10.2,5.5,14.6,20.6s9.5,48.6,9.5,48.6c0,0-12.3,13.7-39,9.1-.8-.1-1.7-.3-2.5-.5,0,0-4.3-58.4,20.1-69.8"/>
    <line class="st6" x1="491.8" y1="322.4" x2="491.6" y2="296.9"/>
    <line class="st6" x1="525.5" y1="322.4" x2="522.2" y2="293.6"/>
  </g>
  <path class="st18" d="M303.6,267.1c-.3,0-.6-.1-.8-.3s-.3-.5-.3-.8.1-.6.3-.8.5-.3.8-.3.6.1.8.3.3.5.3.8-.1.6-.3.8-.5.3-.8.3Z"/>
  <path class="st18" d="M309.1,271.7v-1.4h1.9v-9.1h-1.9v-1.4h3.5v11.8h-3.5Z"/>
  <g>
    <path class="st18" d="M17.9,141.9h298.3v16h-50.2l-10.7,9H17.9s0-25,0-25Z"/>
    <rect class="st18" x="189.8" y="28.8" width="126" height="9.2"/>
    <rect class="st18" x="238.6" y="45.8" width="77.1" height="9.2"/>
    <path class="st17" d="M10.5,239.4v108.1c0,7.6-9.5,14.4-9.5,22v25.2h529.1l15.3-16v-.2c-.1,0-.1-377.5-.1-377.5H12.6L1,21.3v204.2l9.5,13.8Z"/>
    <polygon class="st18" points="158.1 394.7 169.3 406.8 365.7 406.8 378.2 394.7 158.1 394.7"/>
    <polygon class="st12" points="39.4 93.8 15.8 93.8 3.9 114.3 15.8 134.8 39.4 134.8 51.3 114.3 39.4 93.8"/>
    <polygon class="st8" points="39.4 49.8 15.8 49.8 3.9 70.3 15.8 90.8 39.4 90.8 51.3 70.3 39.4 49.8"/>
    <polygon class="st16" points="39.4 5.9 15.8 5.9 3.9 26.4 15.8 46.9 39.4 46.9 51.3 26.4 39.4 5.9"/>
    <polygon class="st13" points="77.8 27.5 54.2 27.5 42.3 48 54.2 68.5 77.8 68.5 89.7 48 77.8 27.5"/>
    <polygon class="st16" points="77.8 71.7 54.2 71.7 42.3 92.2 54.2 112.7 77.8 112.7 89.7 92.2 77.8 71.7"/>
    <polygon class="st16" points="116.4 5.5 92.7 5.5 80.9 26 92.7 46.5 116.4 46.5 128.2 26 116.4 5.5"/>
    <polygon class="st14" points="154.3 27.5 130.6 27.5 118.8 48 130.6 68.5 154.3 68.5 166.1 48 154.3 27.5"/>
    <polygon class="st11" points="116.4 49.6 92.7 49.6 80.9 70.1 92.7 90.6 116.4 90.6 128.2 70.1 116.4 49.6"/>
    <circle class="st15" cx="27.6" cy="27.5" r="6.3"/>
    <circle class="st10" cx="66" cy="92.2" r="6.3"/>
    <circle class="st9" cx="104.6" cy="26" r="6.3"/>
    <path class="st18" d="M11.1,385.4v-17.3h5.1v2h-2.8v13.3h2.8v2h-5.1Z"/>
    <path class="st18" d="M24.3,378.7c-.5,0-.8-.2-1.2-.5s-.5-.7-.5-1.2.2-.8.5-1.2.7-.5,1.2-.5.8.2,1.2.5.5.7.5,1.2-.2.8-.5,1.2-.7.5-1.2.5Z"/>
    <path class="st18" d="M33.3,382.3v-14.1h5.4c1.5,0,2.9.3,4,.9,1.1.6,2,1.4,2.6,2.4s.9,2.3.9,3.8-.3,2.7-.9,3.8c-.6,1.1-1.5,1.9-2.6,2.5-1.1.6-2.4.9-4,.9h-5.4ZM36,380h2.8c1.5,0,2.7-.4,3.5-1.3s1.2-2,1.2-3.5-.4-2.6-1.2-3.5c-.8-.9-2-1.3-3.5-1.3h-2.8v9.6h0Z"/>
    <path class="st18" d="M54.7,370.7c-.4,0-.8-.1-1-.4-.3-.3-.4-.6-.4-1s.1-.8.4-1c.3-.3.6-.4,1-.4s.8.1,1,.4c.3.3.4.6.4,1s-.1.8-.4,1-.6.4-1,.4ZM53.4,382.3v-10.5h2.6v10.5h-2.6Z"/>
    <path class="st18" d="M64.2,382.3v-7.9h-1.3v-2.6h2.7v1.7h.8c.3-.6.8-1,1.4-1.4.6-.3,1.3-.5,2.2-.5s1.6.1,2.1.5c.6.3,1.1.8,1.4,1.4h0c.8-1.2,2-1.8,3.6-1.8s2.4.4,3.2,1.2,1.2,1.8,1.2,3.1v6.4h-2.6v-5.9c0-1.6-.8-2.5-2.4-2.5s-2.3.8-2.3,2.5v5.9h-2.6v-5.9c0-1.6-.8-2.5-2.4-2.5s-1.3.2-1.7.6c-.4.4-.6,1-.6,1.9v5.9h-2.6Z"/>
    <path class="st18" d="M93.8,382.5c-1.1,0-2.1-.2-2.9-.7-.8-.5-1.5-1.1-1.9-1.9-.4-.8-.7-1.8-.7-2.9s.2-2.1.7-2.9c.4-.8,1.1-1.4,1.9-1.9s1.8-.6,2.9-.6,2,.2,2.8.6c.8.4,1.4,1,1.8,1.8s.6,1.7.6,2.8v.9h-8.1c0,.9.4,1.6.9,2s1.2.7,2.1.7,1.2-.1,1.6-.4c.4-.2.7-.6.8-1.1h2.6c-.2,1.1-.8,2-1.7,2.6-.9.6-2,.9-3.3.9h0ZM90.8,375.9h5.5c0-.7-.4-1.3-.8-1.6s-1.1-.6-1.8-.6-1.4.2-1.9.6c-.5.4-.8.9-1,1.6h0Z"/>
    <path class="st18" d="M106.4,382.3v-7.9h-1.3v-2.6h2.7v1.7h.7c.4-.6.9-1,1.5-1.4.6-.3,1.4-.5,2.3-.5,1.4,0,2.5.4,3.3,1.2.8.8,1.2,1.8,1.2,3.2v6.3h-2.6v-5.8c0-.8-.2-1.5-.7-1.9-.4-.4-1.1-.6-1.9-.6s-1.5.2-1.9.6-.7,1.1-.7,1.9v5.8h-2.6Z"/>
    <path class="st18" d="M128.6,382.5c-1.5,0-2.7-.3-3.6-1-.9-.6-1.3-1.5-1.4-2.7h2.5c0,.5.3,1,.8,1.2.4.3,1,.4,1.8.4,1.3,0,2-.4,2-1.2s-.1-.6-.3-.7c-.2-.2-.5-.3-1-.4l-2.3-.4c-2.1-.4-3.1-1.4-3.1-2.9s.4-1.8,1.2-2.4c.8-.6,1.8-.9,3.2-.9s2.5.3,3.3.9,1.3,1.5,1.4,2.5h-2.5c-.1-.5-.4-.9-.7-1.1-.4-.2-.9-.4-1.5-.4s-1.1,0-1.4.3-.5.5-.5.8,0,.5.3.6c.2.2.5.3.9.4l2.4.5c1.1.2,1.9.6,2.4,1s.8,1.1.8,2-.4,1.9-1.2,2.5c-.8.6-1.9.9-3.4.9h0Z"/>
    <path class="st18" d="M141.3,370.7c-.4,0-.8-.1-1-.4-.3-.3-.4-.6-.4-1s.1-.8.4-1c.3-.3.6-.4,1-.4s.8.1,1,.4c.3.3.4.6.4,1s-.1.8-.4,1-.6.4-1,.4ZM140,382.3v-10.5h2.6v10.5h-2.6Z"/>
    <path class="st18" d="M155.1,382.5c-1.1,0-2.1-.2-2.9-.7s-1.5-1.1-1.9-1.9c-.5-.8-.7-1.8-.7-2.9s.2-2.1.7-2.9c.5-.8,1.1-1.4,1.9-1.9s1.8-.7,2.9-.7,2.1.2,2.9.7,1.5,1.1,1.9,1.9.7,1.8.7,2.9-.2,2.1-.7,2.9-1.1,1.5-1.9,1.9-1.8.7-2.9.7ZM155.1,380.2c.9,0,1.6-.3,2.2-.9.5-.6.8-1.3.8-2.3s-.3-1.8-.8-2.3-1.2-.8-2.2-.8-1.7.3-2.2.8-.8,1.3-.8,2.3.3,1.8.8,2.4c.5.6,1.2.9,2.2.9h0Z"/>
    <path class="st18" d="M168.2,382.3v-7.9h-1.3v-2.6h2.7v1.7h.7c.4-.6.9-1,1.5-1.4.6-.3,1.4-.5,2.3-.5,1.4,0,2.5.4,3.3,1.2.8.8,1.2,1.8,1.2,3.2v6.3h-2.6v-5.8c0-.8-.2-1.5-.6-1.9-.4-.4-1.1-.6-1.9-.6s-1.5.2-1.9.6-.7,1.1-.7,1.9v5.8h-2.6Z"/>
    <path class="st18" d="M187.8,375.6c-.4,0-.8-.2-1.2-.5s-.5-.7-.5-1.2.2-.8.5-1.2c.3-.3.7-.5,1.2-.5s.8.2,1.2.5.5.7.5,1.2-.2.8-.5,1.2c-.3.3-.7.5-1.2.5ZM187.8,381.8c-.4,0-.8-.2-1.2-.5s-.5-.7-.5-1.2.2-.8.5-1.2c.3-.3.7-.5,1.2-.5s.8.2,1.2.5.5.7.5,1.2-.2.8-.5,1.2c-.3.3-.7.5-1.2.5Z"/>
    <path class="st18" d="M203.8,382.5c-1.4,0-2.7-.3-3.8-.9s-1.9-1.5-2.5-2.5c-.6-1.1-.9-2.4-.9-3.9s.3-2.8.9-3.9c.6-1.1,1.4-1.9,2.5-2.5s2.3-.9,3.8-.9,2.2.2,3,.6c.9.4,1.6.9,2.2,1.7.6.7.9,1.6,1.1,2.6h-2.7c-.2-.8-.6-1.4-1.2-1.9s-1.4-.7-2.4-.7c-1.4,0-2.5.4-3.3,1.3-.8.9-1.2,2.1-1.2,3.6s.4,2.8,1.2,3.6,1.9,1.3,3.3,1.3,1.8-.2,2.4-.6c.6-.4,1-1.1,1.2-1.9h2.7c-.2,1-.5,1.9-1.1,2.6-.6.7-1.3,1.3-2.2,1.7-.9.4-1.9.6-3,.6h0Z"/>
    <path class="st18" d="M216.2,378.2v-2.2h5.2v2.2h-5.2Z"/>
    <path class="st18" d="M228.9,382.3v-2.1h3.6v-9.2l-3.9,2.6h0v-2.6l4.3-2.9h2.2v12h3.1v2.1h-9.3,0Z"/>
    <path class="st18" d="M250.2,382.5c-1.6,0-2.9-.4-3.8-1.1-.9-.7-1.4-1.7-1.6-3h2.6c0,.6.3,1.1.8,1.4.5.3,1.1.5,1.9.5s1.6-.2,2-.6c.5-.4.7-.9.7-1.6s-.2-1.2-.7-1.5c-.5-.4-1.1-.6-1.9-.6h-2.2v-2.1h2.3c.7,0,1.2-.2,1.6-.5s.6-.8.6-1.4-.2-1.1-.6-1.4c-.4-.4-1-.5-1.7-.5s-1.4.2-1.8.5-.7.8-.9,1.5h-2.5c0-.8.3-1.5.8-2.2.4-.6,1.1-1.1,1.8-1.4s1.6-.5,2.7-.5,1.8.1,2.5.5,1.3.8,1.7,1.3c.4.6.6,1.2.6,2s-.2,1.2-.6,1.8-.9,1-1.6,1.3h0c.8.3,1.5.8,1.9,1.4.5.6.7,1.3.7,2.1s-.2,1.6-.7,2.3c-.4.6-1.1,1.1-1.9,1.5s-1.7.5-2.8.5h0Z"/>
    <path class="st18" d="M263.4,382.3l6.3-11.8h-7.8v-2.4h10.8v1.8l-6.4,12.3h-2.9Z"/>
    <path class="st18" d="M280.8,378.7c-.5,0-.8-.2-1.2-.5s-.5-.7-.5-1.2.2-.8.5-1.2.7-.5,1.2-.5.8.2,1.2.5.5.7.5,1.2-.2.8-.5,1.2-.7.5-1.2.5Z"/>
    <path class="st18" d="M288.9,385.4v-2h2.8v-13.2h-2.8v-2h5.1v17.2h-5.1Z"/>
    <line class="st17" x1="20" y1="186.3" x2="20" y2="346.2"/>
    <polygon class="st18" points="20 200 28 198.8 28 186.8 19.9 185.4 20 200"/>
    <polygon class="st18" points="19.3 346.9 27.3 345.7 27.3 333.7 19.2 332.3 19.3 346.9"/>
    <circle class="st1" cx="49.3" cy="208.5" r="10.6"/>
    <circle class="st4" cx="49.3" cy="236.8" r="10.6"/>
    <circle class="st2" cx="49.3" cy="265.1" r="10.5"/>
    <circle class="st5" cx="49.3" cy="293.4" r="10.5"/>
    <circle class="st3" cx="49.3" cy="321.8" r="10.5"/>
    <line class="st17" x1="38.7" y1="208.5" x2="27.2" y2="208.5"/>
    <line class="st17" x1="38.7" y1="236.8" x2="27.2" y2="236.8"/>
    <line class="st17" x1="38.7" y1="265.1" x2="27.2" y2="265.1"/>
    <line class="st17" x1="38.7" y1="293.4" x2="27.2" y2="293.4"/>
    <line class="st17" x1="38.7" y1="321.8" x2="27.2" y2="321.8"/>
    <path class="st18" d="M66,243.2v-11.9h3.5v1.4h-1.9v9.1h1.9v1.4h-3.5Z"/>
    <path class="st18" d="M75.1,238.6c-.3,0-.6-.1-.8-.3s-.3-.5-.3-.8.1-.6.3-.8.5-.3.8-.3.6.1.8.3.3.5.3.8-.1.6-.3.8-.5.3-.8.3Z"/>
    <path class="st18" d="M85.5,241.2c-.9,0-1.8-.2-2.5-.6-.7-.4-1.3-1-1.7-1.8-.4-.8-.6-1.6-.6-2.6s.2-1.9.6-2.6,1-1.3,1.7-1.8c.8-.4,1.6-.6,2.6-.6s1.5.1,2.1.4c.6.3,1.1.6,1.5,1.1s.6,1.1.7,1.8h-1.9c0-.6-.4-1-.8-1.3s-1-.4-1.7-.4-1.2.1-1.7.4-.8.7-1.1,1.2-.4,1.1-.4,1.8.1,1.3.4,1.8.6.9,1.1,1.2c.5.3,1,.4,1.6.4s.9,0,1.3-.2c.4-.2.7-.4.9-.7s.3-.6.3-.9v-.4h-2.7v-1.4h3.1c.5,0,.8.1,1.1.3.2.2.4.6.4,1v3.7h-1.7v-1.2h0c-.2.4-.6.8-1.1,1s-1.1.4-1.7.4h0Z"/>
    <path class="st18" d="M98.1,241.2c-1,0-1.7-.3-2.3-.8s-.8-1.2-.8-2.1v-4.4h1.8v4c0,.6.1,1,.4,1.3s.7.4,1.3.4,1.1-.1,1.4-.4.5-.7.5-1.3v-4h1.8v5.4h.9v1.8h-1.8v-1.1h-.5c-.3.4-.6.7-1.1.9s-.9.3-1.6.3h0Z"/>
    <path class="st18" d="M108.7,233.1c-.3,0-.5-.1-.7-.3s-.3-.4-.3-.7,0-.5.3-.7.4-.3.7-.3.5.1.7.3c.2.2.3.4.3.7s0,.5-.3.7-.4.3-.7.3ZM107.8,241.1v-7.2h1.8v7.2h-1.8Z"/>
    <path class="st18" d="M116.9,241.1c-.5,0-.8-.1-1.1-.4s-.4-.6-.4-1.1v-4.3h-1.3v-1.4h1.3v-2.1h1.8v2.1h1.7v1.4h-1.7v4.4h1.9v1.4h-2.2Z"/>
    <path class="st18" d="M125.9,241.2c-.8,0-1.5-.2-2-.6s-.7-.9-.7-1.6.2-1.2.7-1.6c.5-.4,1.2-.6,2.1-.6h2.2v-.3c0-.9-.5-1.3-1.5-1.3s-1.4.3-1.6.9h-1.8c.1-.8.5-1.4,1.1-1.8s1.3-.6,2.3-.6,1.9.2,2.4.7.8,1.2.8,2.1v2.8h.9v1.8h-1.8v-1.1h-.5c-.2.4-.6.7-1,.9-.4.2-.9.3-1.5.3h0ZM126.2,239.8c.4,0,.7,0,1.1-.2.3-.1.6-.4.7-.6.2-.2.3-.5.3-.8v-.2h-2.1c-.8,0-1.2.3-1.2.9s.1.5.3.7c.2.2.5.2.9.2h0Z"/>
    <path class="st18" d="M136.1,241.1v-5.4h-.9v-1.8h1.8v1.4h.5c.2-.5.5-.8.9-1.1s.9-.4,1.4-.4h.6v1.5h-.7c-.6,0-1.1.2-1.4.6-.3.4-.5.9-.5,1.5v3.7h-1.8,0Z"/>
    <path class="st18" d="M152.2,241.1v-9.7h4.5c1.1,0,1.9.3,2.5.8s.9,1.3.9,2.2-.3,1.7-.9,2.2c-.6.6-1.4.8-2.5.8h-2.7v3.6h-1.8ZM154,235.9h2.6c.6,0,1-.1,1.3-.4.3-.3.4-.6.4-1.1s-.1-.8-.4-1.1c-.3-.3-.7-.4-1.3-.4h-2.6v3h0Z"/>
    <path class="st18" d="M164.8,241.1v-10.1h1.8v10.1h-1.8Z"/>
    <path class="st18" d="M174,241.2c-.8,0-1.5-.2-2-.6s-.7-.9-.7-1.6.2-1.2.7-1.6c.5-.4,1.2-.6,2.1-.6h2.2v-.3c0-.9-.5-1.3-1.5-1.3s-1.4.3-1.6.9h-1.8c.1-.8.5-1.4,1.1-1.8s1.3-.6,2.3-.6,1.9.2,2.4.7.8,1.2.8,2.1v2.8h.9v1.8h-1.8v-1.1h-.5c-.2.4-.6.7-1,.9-.4.2-.9.3-1.5.3h0ZM174.3,239.8c.4,0,.7,0,1.1-.2s.6-.4.7-.6.3-.5.3-.8v-.2h-2.1c-.8,0-1.2.3-1.2.9s.1.5.3.7c.2.2.5.2.9.2h0Z"/>
    <path class="st18" d="M183.7,243.9v-1.4h1.6l.6-1.5-3.1-7.1h1.9l2.1,5.1h0l2.1-5.1h1.8l-3.1,7.2-.6,1.5c-.2.4-.4.8-.6,1-.2.2-.6.4-1.1.4h-1.7,0Z"/>
    <path class="st18" d="M198.5,241.2c-.8,0-1.4-.1-2-.5-.6-.3-1-.7-1.3-1.3s-.5-1.2-.5-2,.1-1.4.4-2,.7-1,1.3-1.3,1.2-.4,2-.4,1.4.1,1.9.4.9.7,1.2,1.2c.3.5.4,1.2.4,1.9v.6h-5.5c0,.6.3,1.1.6,1.4.4.3.8.5,1.4.5s.8,0,1.1-.2c.3-.2.5-.4.6-.7h1.8c-.2.8-.6,1.4-1.1,1.8-.6.4-1.4.6-2.3.6h0ZM196.5,236.7h3.8c0-.5-.3-.9-.6-1.1-.3-.3-.7-.4-1.3-.4s-.9.1-1.3.4c-.3.3-.6.6-.7,1.1h0Z"/>
    <path class="st18" d="M207.3,241.1v-5.4h-.9v-1.8h1.8v1.4h.5c.2-.5.5-.8.9-1.1s.9-.4,1.4-.4h.6v1.5h-.7c-.6,0-1.1.2-1.4.6-.3.4-.5.9-.5,1.5v3.7h-1.8,0Z"/>
    <path class="st18" d="M217.1,238.6c-.3,0-.6-.1-.8-.3s-.3-.5-.3-.8.1-.6.3-.8.5-.3.8-.3.6.1.8.3.3.5.3.8-.1.6-.3.8-.5.3-.8.3Z"/>
    <path class="st18" d="M222.6,243.2v-1.4h1.9v-9.1h-1.9v-1.4h3.5v11.8h-3.5Z"/>
    <path class="st18" d="M66,271.7v-11.9h3.5v1.4h-1.9v9.1h1.9v1.4h-3.5Z"/>
    <path class="st18" d="M75.1,267.1c-.3,0-.6-.1-.8-.3s-.3-.5-.3-.8.1-.6.3-.8.5-.3.8-.3.6.1.8.3.3.5.3.8-.1.6-.3.8-.5.3-.8.3Z"/>
    <path class="st18" d="M85.7,269.7c-1,0-1.8-.2-2.6-.6s-1.3-1-1.7-1.7-.6-1.6-.6-2.6.2-1.9.6-2.6,1-1.3,1.7-1.7,1.6-.6,2.6-.6,1.5.1,2.1.4c.6.3,1.1.6,1.5,1.1s.6,1.1.8,1.8h-1.9c-.1-.5-.4-1-.8-1.3s-1-.5-1.7-.5c-1,0-1.7.3-2.3.9s-.8,1.4-.8,2.5.3,1.9.8,2.5,1.3.9,2.3.9,1.2-.1,1.7-.5c.4-.3.7-.7.8-1.3h1.9c-.1.7-.4,1.3-.8,1.8s-.9.9-1.5,1.1-1.3.4-2.1.4h0Z"/>
    <path class="st18" d="M97.9,269.7c-.8,0-1.4-.1-2-.5s-1-.7-1.3-1.3-.5-1.2-.5-2,.2-1.4.4-2,.7-1,1.3-1.3,1.2-.5,2-.5,1.4.1,1.9.4.9.7,1.2,1.2.4,1.2.4,1.9v.6h-5.5c0,.6.3,1.1.6,1.4.3.3.8.5,1.4.5s.8,0,1.1-.2c.3-.2.5-.4.6-.7h1.8c-.2.8-.6,1.4-1.2,1.8s-1.4.6-2.3.6h0ZM95.8,265.2h3.8c0-.5-.3-.9-.6-1.1s-.7-.4-1.3-.4-.9.1-1.3.4c-.3.3-.6.6-.7,1.1h0Z"/>
    <path class="st18" d="M106.7,269.5v-5.4h-.9v-1.8h1.8v1.4h.5c.2-.5.5-.8.9-1.1s.9-.4,1.4-.4h.6v1.5h-.7c-.7,0-1.1.2-1.4.6-.3.4-.5.9-.5,1.5v3.7h-1.8,0Z"/>
    <path class="st18" d="M117.7,269.5c-.5,0-.8-.1-1.1-.4s-.4-.6-.4-1.1v-4.3h-1.3v-1.4h1.3v-2.1h1.8v2.1h1.7v1.4h-1.7v4.4h1.9v1.4h-2.2Z"/>
    <path class="st18" d="M125.4,261.6c-.3,0-.5-.1-.7-.3s-.3-.4-.3-.7,0-.5.3-.7.4-.3.7-.3.5.1.7.3c.2.2.3.4.3.7s0,.5-.3.7c-.2.2-.4.3-.7.3ZM124.5,269.5v-7.2h1.8v7.2h-1.8Z"/>
    <path class="st18" d="M132.2,269.5v-5.8h-1.3v-1.4h1.4v-1.4c0-.5.1-.9.4-1.1.3-.2.6-.4,1.1-.4h2v1.4h-1.8v1.5h1.7v1.4h-1.6v5.8h-1.8,0Z"/>
    <path class="st18" d="M141.1,261.6c-.3,0-.5-.1-.7-.3s-.3-.4-.3-.7.1-.5.3-.7.4-.3.7-.3.5.1.7.3c.2.2.3.4.3.7s-.1.5-.3.7c-.2.2-.4.3-.7.3ZM140.2,269.5v-7.2h1.8v7.2h-1.8Z"/>
    <path class="st18" d="M150.5,269.7c-.8,0-1.4-.1-2-.5-.6-.3-1-.7-1.3-1.3s-.5-1.2-.5-2,.1-1.4.4-2,.7-1,1.3-1.3,1.2-.5,2-.5,1.4.1,1.9.4.9.7,1.2,1.2c.3.5.4,1.2.4,1.9v.6h-5.5c0,.6.3,1.1.6,1.4.4.3.8.5,1.4.5s.8,0,1.1-.2c.3-.2.5-.4.6-.7h1.8c-.2.8-.6,1.4-1.1,1.8-.6.4-1.4.6-2.3.6h0ZM148.5,265.2h3.8c0-.5-.3-.9-.6-1.1-.3-.3-.7-.4-1.3-.4s-.9.1-1.3.4c-.3.3-.6.6-.7,1.1h0Z"/>
    <path class="st18" d="M161.8,269.7c-.7,0-1.4-.1-1.9-.5s-.9-.7-1.2-1.3-.4-1.2-.4-2,.1-1.4.4-2c.3-.6.6-1,1.1-1.3.5-.3,1.1-.5,1.8-.5s1,.1,1.4.3c.4.2.7.5.9.9h0v-3.9h1.8v8.3h.9v1.8h-1.8v-1.1h-.5c-.3.4-.6.7-1,1-.4.2-.9.3-1.5.3h0ZM162.1,268.1c.6,0,1-.2,1.4-.5.3-.3.5-.8.5-1.3v-.8c0-.6-.2-1-.5-1.3s-.8-.5-1.4-.5-1.1.2-1.5.6c-.3.4-.5.9-.5,1.6s.2,1.2.5,1.6c.3.4.8.6,1.5.6h0Z"/>
    <path class="st18" d="M179.2,269.5h-1.8v-8.1h-3.2v-1.6h8.3v1.6h-3.2v8.1h0Z"/>
    <path class="st18" d="M189.3,269.7c-.8,0-1.5-.2-2-.6-.5-.4-.7-1-.7-1.6s.2-1.2.7-1.6c.5-.4,1.2-.6,2.1-.6h2.2v-.3c0-.9-.5-1.3-1.5-1.3s-1.4.3-1.6.9h-1.8c.1-.8.5-1.4,1.1-1.8s1.3-.6,2.3-.6,1.9.2,2.4.7.8,1.2.8,2.1v2.8h.9v1.8h-1.8v-1.1h-.5c-.2.4-.6.7-1,1-.4.2-.9.3-1.5.3h0ZM189.6,268.3c.4,0,.7,0,1.1-.2s.6-.4.7-.6.3-.5.3-.8v-.2h-2.1c-.8,0-1.2.3-1.2.9s.1.5.3.7c.2.2.5.2.9.2h0Z"/>
    <path class="st18" d="M201,269.5c-.5,0-.8-.1-1.1-.4-.3-.2-.4-.6-.4-1.1v-4.3h-1.3v-1.4h1.3v-2.1h1.8v2.1h1.7v1.4h-1.7v4.4h1.9v1.4h-2.2Z"/>
    <path class="st18" d="M209.9,269.5c-.5,0-.8-.1-1.1-.4-.3-.2-.4-.6-.4-1.1v-4.3h-1.3v-1.4h1.3v-2.1h1.8v2.1h1.7v1.4h-1.7v4.4h1.9v1.4h-2.2Z"/>
    <path class="st18" d="M220.1,269.7c-.8,0-1.4-.1-2-.5s-1-.7-1.3-1.3-.5-1.2-.5-2,.2-1.4.5-2,.8-1,1.3-1.3c.6-.3,1.2-.5,2-.5s1.4.1,2,.5c.6.3,1,.7,1.3,1.3s.5,1.2.5,2-.2,1.4-.5,2-.8,1-1.3,1.3-1.2.5-2,.5h0ZM220.1,268.1c.6,0,1.1-.2,1.5-.6s.5-.9.5-1.6-.2-1.2-.5-1.6-.9-.6-1.5-.6-1.1.2-1.5.6c-.4.4-.5.9-.5,1.6s.2,1.2.5,1.6c.4.4.9.6,1.5.6h0Z"/>
    <path class="st18" d="M232,269.7c-.8,0-1.4-.1-2-.5s-1-.7-1.3-1.3-.5-1.2-.5-2,.2-1.4.5-2,.8-1,1.3-1.3c.6-.3,1.2-.5,2-.5s1.4.1,2,.5c.6.3,1,.7,1.3,1.3s.5,1.2.5,2-.2,1.4-.5,2-.8,1-1.3,1.3-1.2.5-2,.5h0ZM232,268.1c.6,0,1.1-.2,1.5-.6s.5-.9.5-1.6-.2-1.2-.5-1.6-.9-.6-1.5-.6-1.1.2-1.5.6c-.4.4-.5.9-.5,1.6s.2,1.2.5,1.6c.4.4.9.6,1.5.6h0Z"/>
    <path class="st18" d="M243.2,269.5l4.1-9.7h1.9l4.1,9.7h-1.9l-1.1-2.5h-4.3l-1.1,2.5h-1.8,0ZM246.7,265.5h3.2l-1.6-3.8h0l-1.6,3.8Z"/>
    <path class="st18" d="M258.3,269.5v-5.4h-.9v-1.8h1.8v1.4h.5c.2-.5.5-.8.9-1.1s.9-.4,1.4-.4h.6v1.5h-.7c-.6,0-1.1.2-1.5.6-.3.4-.5.9-.5,1.5v3.7h-1.8,0Z"/>
    <path class="st18" d="M269.4,269.5c-.5,0-.8-.1-1.1-.4s-.4-.6-.4-1.1v-4.3h-1.3v-1.4h1.3v-2.1h1.8v2.1h1.7v1.4h-1.7v4.4h1.9v1.4h-2.2Z"/>
    <path class="st18" d="M277,261.6c-.3,0-.5-.1-.7-.3s-.3-.4-.3-.7.1-.5.3-.7.4-.3.7-.3.5.1.7.3.3.4.3.7-.1.5-.3.7-.4.3-.7.3ZM276.2,269.5v-7.2h1.8v7.2h-1.8Z"/>
    <path class="st18" d="M286.1,269.7c-1,0-1.9-.2-2.5-.6s-.9-1-1-1.8h1.7c0,.4.2.6.5.8.3.2.7.3,1.2.3.9,0,1.4-.3,1.4-.8s0-.4-.2-.5-.4-.2-.7-.3l-1.6-.3c-1.4-.3-2.1-.9-2.1-2s.3-1.2.8-1.6,1.3-.6,2.2-.6,1.7.2,2.2.6.9,1,.9,1.7h-1.7c0-.4-.2-.6-.5-.8-.2-.2-.6-.2-1-.2s-.7,0-.9.2c-.2.1-.3.3-.3.6s0,.3.2.4c.1.1.4.2.6.2l1.6.3c.7.1,1.3.4,1.6.7.3.3.5.8.5,1.4s-.3,1.3-.8,1.7-1.3.6-2.3.6h0Z"/>
    <path class="st18" d="M296,269.5c-.5,0-.8-.1-1.1-.4s-.4-.6-.4-1.1v-4.3h-1.3v-1.4h1.3v-2.1h1.8v2.1h1.7v1.4h-1.7v4.4h1.9v1.4h-2.2Z"/>
    <path class="st18" d="M66,299.2v-11.9h3.5v1.4h-1.9v9.1h1.9v1.4h-3.5Z"/>
    <path class="st18" d="M75.1,294.5c-.3,0-.6-.1-.8-.3s-.3-.5-.3-.8.1-.6.3-.8.5-.3.8-.3.6.1.8.3.3.5.3.8-.1.6-.3.8-.5.3-.8.3Z"/>
    <path class="st18" d="M86.5,297h-1.8v-9.7h6.9v1.6h-5v2.4h4.7v1.6h-4.7v4.1h0Z"/>
    <path class="st18" d="M96.7,297v-5.4h-.9v-1.8h1.8v1.4h.5c.2-.5.5-.8.9-1.1s.9-.4,1.4-.4h.6v1.5h-.7c-.7,0-1.1.2-1.4.6-.3.4-.5.9-.5,1.5v3.7h-1.8,0Z"/>
    <path class="st18" d="M109,297.2c-.8,0-1.4-.1-2-.5s-1-.7-1.3-1.3-.5-1.2-.5-2,.2-1.4.4-2,.7-1,1.3-1.3,1.2-.5,2-.5,1.4.1,1.9.4.9.7,1.2,1.2.4,1.2.4,1.9v.6h-5.5c0,.6.3,1.1.6,1.4.3.3.8.5,1.4.5s.8,0,1.1-.2c.3-.2.5-.4.6-.7h1.8c-.2.8-.6,1.4-1.2,1.8s-1.4.6-2.3.6h0ZM107,292.6h3.8c0-.5-.3-.9-.6-1.1s-.7-.4-1.3-.4-.9.1-1.3.4c-.3.3-.6.6-.7,1.1h0Z"/>
    <path class="st18" d="M120.6,297.2c-.8,0-1.4-.1-2-.5s-1-.7-1.3-1.3-.5-1.2-.5-2,.2-1.4.4-2,.7-1,1.3-1.3,1.2-.5,2-.5,1.4.1,1.9.4.9.7,1.2,1.2.4,1.2.4,1.9v.6h-5.5c0,.6.3,1.1.6,1.4.3.3.8.5,1.4.5s.8,0,1.1-.2c.3-.2.5-.4.6-.7h1.8c-.2.8-.6,1.4-1.2,1.8s-1.4.6-2.3.6h0ZM118.6,292.6h3.8c0-.5-.3-.9-.6-1.1s-.7-.4-1.3-.4-.9.1-1.3.4c-.3.3-.6.6-.7,1.1h0Z"/>
    <path class="st18" d="M128.9,297v-10h1.8v10h-1.8Z"/>
    <path class="st18" d="M138.1,297.1c-.8,0-1.5-.2-2-.6-.5-.4-.7-1-.7-1.6s.2-1.2.7-1.6c.5-.4,1.2-.6,2.1-.6h2.2v-.3c0-.9-.5-1.3-1.5-1.3s-1.4.3-1.6.9h-1.8c.1-.8.5-1.4,1.1-1.8s1.3-.6,2.3-.6,1.9.2,2.4.7.8,1.2.8,2.1v2.8h.9v1.8h-1.8v-1.1h-.5c-.2.4-.6.7-1,1-.4.2-.9.3-1.5.3h0ZM138.3,295.8c.4,0,.7,0,1.1-.2s.6-.4.7-.6.3-.5.3-.8v-.2h-2.1c-.8,0-1.2.3-1.2.9s.1.5.3.7c.2.2.5.2.9.2h0Z"/>
    <path class="st18" d="M148.1,297v-5.4h-.9v-1.8h1.8v1.1h.5c.3-.4.6-.7,1-1,.4-.2.9-.3,1.6-.3,1,0,1.7.3,2.3.8s.8,1.3.8,2.2v4.3h-1.8v-4c0-.6-.1-1-.4-1.3s-.7-.4-1.3-.4-1,.1-1.3.4c-.3.3-.5.7-.5,1.3v4h-1.8Z"/>
    <path class="st18" d="M163.6,297.2c-.7,0-1.4-.1-1.9-.5s-1-.7-1.3-1.3-.5-1.2-.5-2,.1-1.4.5-2,.7-1,1.3-1.3,1.2-.5,2-.5,1.7.2,2.3.7,1,1.1,1.1,1.9h-1.8c-.1-.4-.3-.6-.6-.8s-.6-.3-1.1-.3-1.1.2-1.4.6-.5.9-.5,1.6.2,1.2.5,1.6c.4.4.8.6,1.4.6.9,0,1.5-.4,1.7-1.2h1.8c-.1.9-.5,1.5-1.1,2s-1.4.7-2.4.7h0Z"/>
    <path class="st18" d="M174.9,297.2c-.8,0-1.4-.1-2-.5-.6-.3-1-.7-1.3-1.3s-.5-1.2-.5-2,.1-1.4.4-2,.7-1,1.3-1.3,1.2-.5,2-.5,1.4.1,1.9.4.9.7,1.2,1.2c.3.5.4,1.2.4,1.9v.6h-5.5c0,.6.3,1.1.6,1.4.4.3.8.5,1.4.5s.8,0,1.1-.2c.3-.2.5-.4.6-.7h1.8c-.2.8-.6,1.4-1.1,1.8-.6.4-1.4.6-2.3.6h0ZM172.9,292.6h3.8c0-.5-.3-.9-.6-1.1-.3-.3-.7-.4-1.3-.4s-.9.1-1.3.4c-.3.3-.6.6-.7,1.1h0Z"/>
    <path class="st18" d="M183.7,297v-5.4h-.9v-1.8h1.8v1.4h.5c.2-.5.5-.8.9-1.1s.9-.4,1.4-.4h.6v1.5h-.7c-.6,0-1.1.2-1.4.6-.3.4-.5.9-.5,1.5v3.7h-1.8,0Z"/>
    <path class="st18" d="M193.5,294.5c-.3,0-.6-.1-.8-.3s-.3-.5-.3-.8.1-.6.3-.8.5-.3.8-.3.6.1.8.3.3.5.3.8-.1.6-.3.8-.5.3-.8.3Z"/>
    <path class="st18" d="M199,299.2v-1.4h1.9v-9.1h-1.9v-1.4h3.5v11.8h-3.5Z"/>
    <path class="st18" d="M66,215.3v-12h3.6v1.4h-1.9v9.2h1.9v1.4h-3.6Z"/>
    <path class="st18" d="M75.2,210.6c-.3,0-.6-.1-.8-.3s-.3-.5-.3-.8.1-.6.3-.8c.2-.2.5-.3.8-.3s.6.1.8.3c.2.2.3.5.3.8s-.1.6-.3.8-.5.3-.8.3Z"/>
    <path class="st18" d="M81.5,213.1v-9.8h5c.6,0,1.1.1,1.5.3.4.2.8.5,1,.9.2.4.4.8.4,1.3s-.1.9-.4,1.3-.7.6-1.1.8h0c.4.1.7.3,1,.5s.6.5.7.8.3.7.3,1.2-.1,1-.4,1.5c-.3.4-.7.7-1.1,1-.5.2-1,.4-1.7.4h-5.2,0ZM83.3,207.3h2.8c.4,0,.8-.1,1-.3s.3-.5.3-.9-.1-.7-.3-.9c-.2-.2-.6-.3-1-.3h-2.8v2.4ZM83.3,211.6h3c.5,0,1-.1,1.2-.4s.4-.6.4-1-.2-.8-.4-1-.7-.4-1.2-.4h-3v2.8h0Z"/>
    <path class="st18" d="M98.2,213.3c-.8,0-1.5-.2-2-.5s-1-.8-1.3-1.3-.5-1.2-.5-2,.2-1.4.5-2c.3-.6.8-1,1.3-1.3s1.3-.5,2-.5,1.5.1,2,.5c.6.3,1,.7,1.3,1.3.3.6.5,1.2.5,2s-.2,1.4-.5,2c-.3.6-.8,1-1.3,1.3-.6.3-1.2.5-2,.5ZM98.2,211.7c.7,0,1.2-.2,1.5-.6s.5-.9.5-1.6-.2-1.2-.5-1.6c-.4-.4-.9-.6-1.5-.6s-1.2.2-1.5.6c-.4.4-.5.9-.5,1.6s.2,1.2.5,1.6.9.6,1.5.6h0Z"/>
    <path class="st18" d="M110.2,213.3c-.8,0-1.5-.2-2-.5s-1-.8-1.3-1.3-.5-1.2-.5-2,.2-1.4.5-2c.3-.6.8-1,1.3-1.3s1.3-.5,2-.5,1.5.1,2,.5c.6.3,1,.7,1.3,1.3.3.6.5,1.2.5,2s-.2,1.4-.5,2c-.3.6-.8,1-1.3,1.3-.6.3-1.2.5-2,.5ZM110.2,211.7c.7,0,1.2-.2,1.5-.6s.5-.9.5-1.6-.2-1.2-.5-1.6c-.4-.4-.9-.6-1.5-.6s-1.2.2-1.5.6c-.4.4-.5.9-.5,1.6s.2,1.2.5,1.6.9.6,1.5.6h0Z"/>
    <path class="st18" d="M118.9,213.1v-10.2h1.8v5.7h0l3.1-2.8h2.2l-3.2,2.9,3.4,4.4h-2.1l-2.6-3.3-.8.7v2.6h-1.8Z"/>
    <path class="st18" d="M134.4,213.1v-9.8h5c1,0,1.8.2,2.4.7s.9,1.1.9,2-.1.9-.4,1.3c-.2.4-.6.6-1,.8h0c.4,0,.8.2,1,.4.2.2.4.6.4,1v3.6h-1.8v-3.8h-4.6v3.8h-1.9ZM136.3,207.7h3c.5,0,.9-.1,1.2-.4s.4-.6.4-1-.1-.8-.4-1.1-.7-.4-1.2-.4h-3v2.8h0Z"/>
    <path class="st18" d="M151.4,213.3c-.8,0-1.5-.2-2-.5-.6-.3-1-.8-1.3-1.3s-.5-1.2-.5-2,.1-1.4.5-2,.7-1,1.3-1.3c.6-.3,1.2-.4,2-.4s1.4.1,1.9.4.9.7,1.2,1.2c.3.5.4,1.2.4,1.9v.6h-5.6c0,.6.3,1.1.6,1.4s.8.5,1.4.5.8,0,1.1-.2c.3-.2.5-.4.6-.8h1.8c-.2.8-.6,1.4-1.2,1.8-.6.4-1.4.6-2.3.6h0ZM149.3,208.7h3.8c0-.5-.3-.9-.6-1.1-.3-.3-.7-.4-1.3-.4s-1,.1-1.3.4c-.3.3-.6.6-.7,1.1Z"/>
    <path class="st18" d="M162,213.3c-.9,0-1.5-.2-2-.6-.5-.4-.7-1-.7-1.6s.2-1.3.7-1.6c.5-.4,1.2-.6,2.1-.6h2.2v-.3c0-.9-.5-1.3-1.6-1.3s-1.4.3-1.6.9h-1.8c.1-.8.5-1.4,1.1-1.8.6-.4,1.4-.6,2.3-.6s1.9.2,2.4.7.8,1.2.8,2.1v2.8h.9v1.8h-1.9v-1.2h-.5c-.2.4-.6.7-1,1-.4.2-.9.3-1.6.3h0ZM162.2,211.9c.4,0,.8,0,1.1-.2.3-.1.6-.4.8-.6s.3-.5.3-.9v-.2h-2.1c-.8,0-1.2.3-1.2.9s.1.5.3.7.5.2.9.2h0Z"/>
    <path class="st18" d="M174.8,213.3c-.7,0-1.4-.2-1.9-.5s-.9-.8-1.2-1.3c-.3-.6-.4-1.2-.4-2s.1-1.4.4-2,.6-1,1.1-1.3c.5-.3,1.1-.5,1.8-.5s1,.1,1.4.3c.4.2.7.5.9.9h0v-4h1.8v8.4h.9v1.8h-1.8v-1.2h-.5c-.3.4-.6.7-1,1s-.9.3-1.5.3h0ZM175.1,211.7c.6,0,1-.2,1.4-.5.3-.3.5-.8.5-1.3v-.8c0-.6-.2-1-.5-1.3s-.8-.5-1.4-.5-1.1.2-1.5.6-.5.9-.5,1.6.2,1.2.5,1.6.8.6,1.5.6Z"/>
    <path class="st18" d="M187.9,213.3c-.8,0-1.5-.2-2-.5-.6-.3-1-.8-1.3-1.3s-.5-1.2-.5-2,.1-1.4.5-2,.7-1,1.3-1.3c.6-.3,1.2-.4,2-.4s1.4.1,1.9.4.9.7,1.2,1.2c.3.5.4,1.2.4,1.9v.6h-5.6c0,.6.3,1.1.6,1.4s.8.5,1.4.5.8,0,1.1-.2c.3-.2.5-.4.6-.8h1.8c-.2.8-.6,1.4-1.2,1.8-.6.4-1.4.6-2.3.6h0ZM185.8,208.7h3.8c0-.5-.3-.9-.6-1.1-.3-.3-.7-.4-1.3-.4s-1,.1-1.3.4c-.3.3-.6.6-.7,1.1Z"/>
    <path class="st18" d="M196.7,213.1v-5.5h-.9v-1.8h1.8v1.4h.5c.2-.5.5-.9.9-1.1s.9-.4,1.4-.4h.6v1.6h-.7c-.6,0-1.1.2-1.5.6-.3.4-.5.9-.5,1.5v3.7h-1.8,0Z"/>
    <path class="st18" d="M206.7,210.6c-.3,0-.6-.1-.8-.3s-.3-.5-.3-.8.1-.6.3-.8c.2-.2.5-.3.8-.3s.6.1.8.3c.2.2.3.5.3.8s-.1.6-.3.8-.5.3-.8.3Z"/>
    <path class="st18" d="M212.2,215.3v-1.4h1.9v-9.2h-1.9v-1.4h3.6v12h-3.6Z"/>
    <path class="st18" d="M66,328.2v-12h3.6v1.4h-1.9v9.2h1.9v1.4h-3.6Z"/>
    <path class="st18" d="M75.2,323.6c-.3,0-.6-.1-.8-.3s-.3-.5-.3-.8.1-.6.3-.8c.2-.2.5-.3.8-.3s.6.1.8.3c.2.2.3.5.3.8s-.1.6-.3.8-.5.3-.8.3Z"/>
    <path class="st18" d="M85.8,326h-1.8v-8.2h-3.3v-1.6h8.4v1.6h-3.3v8.2h0Z"/>
    <path class="st18" d="M94.7,318c-.3,0-.5-.1-.7-.3s-.3-.4-.3-.7,0-.5.3-.7.4-.3.7-.3.5.1.7.3c.2.2.3.4.3.7s0,.5-.3.7c-.2.2-.4.3-.7.3ZM93.8,326v-7.3h1.8v7.3h-1.8Z"/>
    <path class="st18" d="M101.2,326v-5.5h-.9v-1.8h1.8v1.2h.6c.2-.4.6-.7,1-1,.4-.2.9-.3,1.5-.3s1.1.1,1.5.3c.4.2.7.5,1,1h0c.6-.9,1.4-1.3,2.5-1.3s1.7.3,2.2.8.8,1.3.8,2.2v4.4h-1.8v-4.1c0-1.1-.6-1.7-1.7-1.7s-1.6.6-1.6,1.7v4.1h-1.8v-4.1c0-1.1-.6-1.7-1.7-1.7s-.9.1-1.2.4c-.3.3-.4.7-.4,1.3v4.1h-1.8,0Z"/>
    <path class="st18" d="M121.8,326.2c-.8,0-1.5-.2-2-.5-.6-.3-1-.8-1.3-1.3s-.5-1.2-.5-2,.2-1.4.5-2,.7-1,1.3-1.3c.6-.3,1.2-.5,2-.5s1.4.1,1.9.4c.5.3.9.7,1.2,1.2.3.5.4,1.2.4,1.9v.6h-5.6c0,.6.3,1.1.6,1.4.4.3.8.5,1.4.5s.8,0,1.1-.2c.3-.2.5-.4.6-.8h1.8c-.2.8-.6,1.4-1.2,1.8s-1.4.6-2.3.6h0ZM119.8,321.6h3.8c0-.5-.3-.9-.6-1.1-.3-.3-.7-.4-1.3-.4s-1,.1-1.3.4c-.3.3-.6.6-.7,1.1Z"/>
    <path class="st18" d="M138.1,326h-1.8v-8.2h-3.3v-1.6h8.4v1.6h-3.3v8.2h0Z"/>
    <path class="st18" d="M146.6,326v-5.5h-.9v-1.8h1.8v1.4h.5c.2-.5.5-.9.9-1.1s.9-.4,1.4-.4h.6v1.5h-.7c-.6,0-1.1.2-1.5.6-.3.4-.5.9-.5,1.5v3.7h-1.8,0Z"/>
    <path class="st18" d="M158,326.2c-.9,0-1.5-.2-2-.6-.5-.4-.7-1-.7-1.6s.2-1.3.7-1.6c.5-.4,1.2-.6,2.1-.6h2.2v-.3c0-.9-.5-1.3-1.6-1.3s-1.4.3-1.6,1h-1.8c.1-.8.5-1.4,1.1-1.8.6-.4,1.4-.6,2.3-.6s1.9.2,2.4.7.8,1.2.8,2.1v2.8h.9v1.8h-1.9v-1.2h-.5c-.2.4-.6.7-1,1-.4.2-.9.3-1.6.3h0ZM158.3,324.8c.4,0,.8,0,1.1-.2.3-.1.6-.4.8-.6s.3-.5.3-.9v-.2h-2.1c-.8,0-1.2.3-1.2.9s.1.5.3.7.5.2.9.2h0Z"/>
    <path class="st18" d="M170,326l-3.1-7.3h1.9l2.2,5.2h0l2.1-5.2h1.9l-3.1,7.3h-1.9Z"/>
    <path class="st18" d="M182.8,326.2c-.8,0-1.5-.2-2-.5-.6-.3-1-.8-1.3-1.3s-.5-1.2-.5-2,.1-1.4.5-2,.7-1,1.3-1.3c.6-.3,1.2-.5,2-.5s1.4.1,1.9.4c.5.3.9.7,1.2,1.2.3.5.4,1.2.4,1.9v.6h-5.6c0,.6.3,1.1.6,1.4.4.3.8.5,1.4.5s.8,0,1.1-.2c.3-.2.5-.4.6-.8h1.8c-.2.8-.6,1.4-1.2,1.8s-1.4.6-2.3.6h0ZM180.8,321.6h3.8c0-.5-.3-.9-.6-1.1-.3-.3-.7-.4-1.3-.4s-1,.1-1.3.4-.6.6-.7,1.1Z"/>
    <path class="st18" d="M191.2,326v-10.2h1.8v10.2h-1.8Z"/>
    <path class="st18" d="M201.7,326.2c-.8,0-1.5-.2-2-.5-.6-.3-1-.8-1.3-1.3s-.5-1.2-.5-2,.1-1.4.5-2,.7-1,1.3-1.3c.6-.3,1.2-.5,2-.5s1.4.1,1.9.4c.5.3.9.7,1.2,1.2.3.5.4,1.2.4,1.9v.6h-5.6c0,.6.3,1.1.6,1.4.4.3.8.5,1.4.5s.8,0,1.1-.2c.3-.2.5-.4.6-.8h1.8c-.2.8-.6,1.4-1.2,1.8s-1.4.6-2.3.6h0ZM199.6,321.6h3.8c0-.5-.3-.9-.6-1.1-.3-.3-.7-.4-1.3-.4s-1,.1-1.3.4-.6.6-.7,1.1Z"/>
    <path class="st18" d="M210.6,326v-5.5h-.9v-1.8h1.8v1.4h.5c.2-.5.5-.9.9-1.1s.9-.4,1.4-.4h.6v1.5h-.7c-.6,0-1.1.2-1.5.6-.3.4-.5.9-.5,1.5v3.7h-1.8,0Z"/>
    <path class="st18" d="M217,323.6c-.3,0-.6-.1-.8-.3s-.3-.5-.3-.8.1-.6.3-.8c.2-.2.5-.3.8-.3s.6.1.8.3c.2.2.3.5.3.8s-.1.6-.3.8-.5.3-.8.3Z"/>
    <path class="st18" d="M222.6,328.2v-1.4h1.9v-9.2h-1.9v-1.4h3.6v12h-3.6Z"/>
  </g>
</svg>