<?xml version="1.0" encoding="UTF-8"?><svg id="Layer_2" xmlns="http://www.w3.org/2000/svg" xmlns:xlink="http://www.w3.org/1999/xlink" viewBox="0 0 564.09 406.8"><defs><radialGradient id="radial-gradient" cx="27.6" cy="114.31" fx="27.6" fy="114.31" r="22.14" gradientUnits="userSpaceOnUse"><stop offset="0" stop-color="#00d5df"/><stop offset="1" stop-color="#008adf" stop-opacity=".5"/></radialGradient><radialGradient id="radial-gradient-2" cy="70.32" fy="70.32" xlink:href="#radial-gradient"/><radialGradient id="radial-gradient-3" cx="66" cy="48.04" fx="66" fy="48.04" xlink:href="#radial-gradient"/><radialGradient id="radial-gradient-4" cx="142.45" cy="48.04" fx="142.45" fy="48.04" xlink:href="#radial-gradient"/><radialGradient id="radial-gradient-5" cx="104.57" cy="70.13" fx="104.57" fy="70.13" xlink:href="#radial-gradient"/><radialGradient id="radial-gradient-6" cx="27.6" cy="27.55" fx="27.6" fy="27.55" r="6.35" xlink:href="#radial-gradient"/><radialGradient id="radial-gradient-7" cx="66" cy="92.21" fx="66" fy="92.21" r="6.35" xlink:href="#radial-gradient"/><radialGradient id="radial-gradient-8" cx="104.57" cy="25.96" fx="104.57" fy="25.96" r="6.35" xlink:href="#radial-gradient"/><radialGradient id="radial-gradient-9" cx="429.81" cy="122.13" fx="429.81" fy="122.13" r="2.72" xlink:href="#radial-gradient"/><radialGradient id="radial-gradient-10" cx="384.8" cy="122.13" fx="384.8" fy="122.13" r="2.72" xlink:href="#radial-gradient"/><radialGradient id="radial-gradient-11" cx="49.26" cy="208.48" fx="49.26" fy="208.48" r="10.55" xlink:href="#radial-gradient"/><radialGradient id="radial-gradient-12" cx="49.26" cy="236.8" fx="49.26" fy="236.8" r="10.55" xlink:href="#radial-gradient"/><radialGradient id="radial-gradient-13" cx="49.26" cy="265.12" fx="49.26" fy="265.12" r="10.55" xlink:href="#radial-gradient"/><radialGradient id="radial-gradient-14" cx="49.26" cy="293.44" fx="49.26" fy="293.44" r="10.55" xlink:href="#radial-gradient"/><radialGradient id="radial-gradient-15" cx="49.26" cy="321.75" fx="49.26" fy="321.75" r="10.55" xlink:href="#radial-gradient"/></defs><g id="Layer_1-2"><g id="id"><rect x="332.23" y="340.77" width="191.9" height="8.8" style="fill:#cdedf9;"/><path d="M17.93,141.9h298.34v15.99c-16.74,0-33.47,0-50.21,0l-10.7,9c-79.14,0-158.28,0-237.43,0v-24.99Z" style="fill:#cdedf9;"/><rect x="189.79" y="28.76" width="125.96" height="9.16" style="fill:#cdedf9;"/><rect x="238.6" y="45.82" width="77.15" height="9.16" style="fill:#cdedf9;"/><g id="border"><path d="M10.47,239.39c0,36.11,0,72.21,0,108.12,0,7.59-9.47,14.36-9.47,21.95v25.23s529.07,0,529.07,0l15.34-16-.13-.21V1c-177.56,0-355.11,0-532.67,0L1,21.32v204.24l9.47,13.83Z" style="fill:none; stroke:#cdedf9; stroke-linecap:round; stroke-linejoin:round; stroke-width:2px;"/><polygon points="158.13 394.69 169.28 406.8 365.68 406.8 378.21 394.69 158.13 394.69" style="fill:#cdedf9;"/><polygon points="545.41 162.3 564.09 149.42 564.09 16.17 545.28 1 545.41 162.3" style="fill:#cdedf9;"/></g><rect x="324.02" y="13.59" width="208.33" height="312.5" style="fill:none; stroke:#cdedf9; stroke-linecap:round; stroke-linejoin:round; stroke-width:2px;"/><polygon points="442.2 353.12 445.82 364.26 457.54 364.26 448.06 371.15 451.68 382.3 442.2 375.41 432.72 382.3 436.34 371.15 426.86 364.26 438.58 364.26 442.2 353.12" style="fill:#cdedf9;"/><polygon points="410.07 353.12 413.69 364.26 425.41 364.26 415.93 371.15 419.55 382.3 410.07 375.41 400.59 382.3 404.21 371.15 394.73 364.26 406.45 364.26 410.07 353.12" style="fill:#cdedf9;"/><polygon points="377.94 353.12 381.56 364.26 393.28 364.26 383.8 371.15 387.42 382.3 377.94 375.41 368.46 382.3 372.08 371.15 362.6 364.26 374.32 364.26 377.94 353.12" style="fill:#cdedf9;"/><polygon points="345.32 353.12 348.94 364.26 360.66 364.26 351.18 371.15 354.8 382.3 345.32 375.41 335.84 382.3 339.46 371.15 329.98 364.26 341.7 364.26 345.32 353.12" style="fill:#cdedf9;"/><polygon points="506.54 353.12 510.17 364.26 521.88 364.26 512.4 371.15 516.02 382.3 506.54 375.41 497.06 382.3 500.69 371.15 491.2 364.26 502.92 364.26 506.54 353.12" style="fill:#cdedf9;"/><polygon points="474.82 353.12 478.44 364.26 490.16 364.26 480.68 371.15 484.3 382.3 474.82 375.41 465.34 382.3 468.96 371.15 459.48 364.26 471.2 364.26 474.82 353.12" style="fill:#cdedf9;"/><polygon points="39.43 93.82 15.77 93.82 3.93 114.31 15.77 134.81 39.43 134.81 51.26 114.31 39.43 93.82" style="fill:url(#radial-gradient); stroke:#cdedf9; stroke-linecap:round; stroke-linejoin:round; stroke-width:2px;"/><polygon points="39.43 49.83 15.77 49.83 3.93 70.32 15.77 90.82 39.43 90.82 51.26 70.32 39.43 49.83" style="fill:url(#radial-gradient-2); stroke:#cdedf9; stroke-linecap:round; stroke-linejoin:round; stroke-width:2px;"/><polygon points="39.43 5.87 15.77 5.87 3.93 26.36 15.77 46.86 39.43 46.86 51.26 26.36 39.43 5.87" style="fill:none; stroke:#cdedf9; stroke-miterlimit:10; stroke-width:2px;"/><polygon points="77.83 27.55 54.17 27.55 42.33 48.04 54.17 68.54 77.83 68.54 89.66 48.04 77.83 27.55" style="fill:url(#radial-gradient-3); stroke:#cdedf9; stroke-linecap:round; stroke-linejoin:round; stroke-width:2px;"/><polygon points="77.83 71.72 54.17 71.72 42.33 92.21 54.17 112.71 77.83 112.71 89.66 92.21 77.83 71.72" style="fill:none; stroke:#cdedf9; stroke-miterlimit:10; stroke-width:2px;"/><polygon points="116.41 5.46 92.74 5.46 80.91 25.96 92.74 46.45 116.41 46.45 128.24 25.96 116.41 5.46" style="fill:none; stroke:#cdedf9; stroke-miterlimit:10; stroke-width:2px;"/><polygon points="154.28 27.55 130.62 27.55 118.78 48.04 130.62 68.54 154.28 68.54 166.11 48.04 154.28 27.55" style="fill:url(#radial-gradient-4); stroke:#cdedf9; stroke-linecap:round; stroke-linejoin:round; stroke-width:2px;"/><polygon points="116.41 49.63 92.74 49.63 80.91 70.13 92.74 90.62 116.41 90.62 128.24 70.13 116.41 49.63" style="fill:url(#radial-gradient-5); stroke:#cdedf9; stroke-linecap:round; stroke-linejoin:round; stroke-width:2px;"/><circle cx="27.6" cy="27.55" r="6.35" style="fill:url(#radial-gradient-6); stroke:#cdedf9; stroke-linecap:round; stroke-linejoin:round; stroke-width:2px;"/><circle cx="66" cy="92.21" r="6.35" style="fill:url(#radial-gradient-7); stroke:#cdedf9; stroke-linecap:round; stroke-linejoin:round; stroke-width:2px;"/><circle cx="104.57" cy="25.96" r="6.35" style="fill:url(#radial-gradient-8); stroke:#cdedf9; stroke-linecap:round; stroke-linejoin:round; stroke-width:2px;"/><g id="face"><path d="M398.19,152.87c-23.26,6.02-19.1,20.74-19.1,20.74-11-11.44-10.59-21.78-10.59-21.78v-41.11c0-1.07.01-2.12.03-3.15.65-30.27,10.56-39.21,10.56-39.21,0,0,11.18-.05,16.47-4.24,0,0-3.09,5.73-5.62,6.17,0,0,5.84,3.53,39.23-9.59,0,0,18.95-4.08,28.43,17.96,0,0,1.76,3.42,0,9.15s-1.21,7.27,1.98,14.88-1.65,46.56-5.62,53.61-12.67,16.97-18.84,20.05c0,0,2.53-21.82-26.01-23.25,0,0-.77,0-.66-.79" style="fill:none; stroke:#cdedf9; stroke-linecap:round; stroke-miterlimit:10; stroke-width:2px;"/><path d="M368.14,106.86c-5.25-8.98-4.54-20.37-4.54-20.37l-2.13,2.49c-1.07,1.25-.71-14.23,6.67-23.39,0,0-3.65,1.98-7.83,2.77,0,0,1.51-16.37,23.03-20.29,0,0-7.65.98-8.27-.44s24.81-17.25,48.02-9.16c0,0-3.47-5.6-6.67-5.69,0,0,29.08,4.18,38.06,22.5l-2.67-9.69s7.11,8.18,6.85,14.94c0,0,9.78.09,15.12,12.9l-5.87-2.49s6.36,5.93,5.87,19.76-2.35,16.17-2.35,16.17c0,0-1.75,4.17-1.86,8.92" style="fill:none; stroke:#cdedf9; stroke-linecap:round; stroke-miterlimit:10; stroke-width:2px;"/><path d="M463.67,152.59s5.99,2.87,8.46-3.91,5.35-12.21,5.35-12.21c0,0,4.63-8.54,0-17,0,0-4.55-6.55-9.82-2,0,0-2.71,1.12-3.99,7.66l-.4,30.49s-2.23,20.84-14.74,32.15-23.96,19.5-38.25,18.46c-14.29-1.04-26.64-10.42-31.41-15.93s-14.35-19.5-10.38-34.98" style="fill:none; stroke:#cdedf9; stroke-linecap:round; stroke-miterlimit:10; stroke-width:2px;"/><path d="M413.83,148.84s1.15,4.3-14.51,3.81c0,0-6.37-.41-2.76-9.89s6.54-20.16,6.54-20.16c0,0,1.73-5.72.38-9.7" style="fill:none; stroke:#cdedf9; stroke-linecap:round; stroke-miterlimit:10; stroke-width:2px;"/><path d="M393.93,135.62s-1.65,2.71-6.84,3.91" style="fill:none; stroke:#cdedf9; stroke-linecap:round; stroke-miterlimit:10; stroke-width:2px;"/><path d="M420.18,136.22s3.08,3.38,10.08,4.36" style="fill:none; stroke:#cdedf9; stroke-linecap:round; stroke-miterlimit:10; stroke-width:2px;"/><path d="M468.68,141.9s1.15-3.67-.82-8.38c0,0-1.47-1.15.58-4.6s.3-5.26,6.44-7.07" style="fill:none; stroke:#cdedf9; stroke-linecap:round; stroke-miterlimit:10; stroke-width:2px;"/><path d="M413.51,98.36s-1.99,3.25.34,8.07c0,0,4.67,1.69,17.81-1.89,0,0,9.3-.33,17.76,2.86,0,0,1.04-7.94-13.47-11.32,0,0-3.41-.59-12.41,1.89,0,0-4.83.39-10.04.39Z" style="fill:none; stroke:#cdedf9; stroke-linecap:round; stroke-miterlimit:10; stroke-width:2px;"/><path d="M401.52,99.72s1.49,4.16-1.4,7.19c0,0-10.97,0-17.04-1.35s-12.56,2.15-12.56,2.15c0,0-2.24-5.79,8.92-9.81,0,0,5.42-1.03,13.26.75,0,0,8.03.28,8.83,1.07Z" style="fill:none; stroke:#cdedf9; stroke-linecap:round; stroke-miterlimit:10; stroke-width:2px;"/><path d="M398.74,175l12.85.26s-1.54,9.06,8.04,10.19c0,0,8.96-.51,8.45-11.37,0,0,.41-6.35-11.31-9.57s-13.36-2.76-18.02-1.84-12.24,2.76-13.11,7.47-.82,11.62,5.99,13.62,7.12-8.75,7.12-8.75Z" style="fill:none; stroke:#cdedf9; stroke-linecap:round; stroke-miterlimit:10; stroke-width:2px;"/><path d="M393.73,169.57s-.26-.26,2.2-.61,17.92.31,17.92.31c0,0,2.97-.15,4.15,1.13" style="fill:none; stroke:#cdedf9; stroke-linecap:round; stroke-miterlimit:10; stroke-width:2px;"/><ellipse cx="430.26" cy="122.13" rx="14.23" ry="11.85" style="fill:none; stroke:#cdedf9; stroke-linecap:round; stroke-miterlimit:10; stroke-width:2px;"/><ellipse cx="429.81" cy="122.13" rx="2.91" ry="2.53" style="fill:url(#radial-gradient-9); stroke:#cdedf9; stroke-linecap:round; stroke-linejoin:round; stroke-width:2px;"/><ellipse cx="385.25" cy="122.13" rx="14.23" ry="11.85" style="fill:none; stroke:#cdedf9; stroke-linecap:round; stroke-miterlimit:10; stroke-width:2px;"/><ellipse cx="384.8" cy="122.13" rx="2.91" ry="2.53" style="fill:url(#radial-gradient-10); stroke:#cdedf9; stroke-linecap:round; stroke-linejoin:round; stroke-width:2px;"/><path d="M391.5,200.23s-2.49,13.28,3.34,19.59,13.78,10.08,21.82,10.49,21.13-.82,31.77-11.1c10.64-10.29,9.67-22.24,6.33-22.24l-1.85-3.08-.34-10.5" style="fill:none; stroke:#cdedf9; stroke-linecap:round; stroke-miterlimit:10; stroke-width:2px;"/><path d="M452.85,192.14s8.23,2.11,9.9,5.45,3.08,10.29-3.78,20.48-19.34,19.87-37.01,19.87-26.46-6.77-32.18-12.57c-4.78-4.85-8.1-16.71-3.73-23.19.86-1.27,2.01-2.33,3.5-3.1" style="fill:none; stroke:#cdedf9; stroke-linecap:round; stroke-miterlimit:10; stroke-width:2px;"/><path d="M350.2,237.94s-4.77,21.46-.95,54.45l.27,29.98" style="fill:none; stroke:#cdedf9; stroke-linecap:round; stroke-miterlimit:10; stroke-width:2px;"/><path d="M386.06,202.18s-31.46,13.17-38.3,19.04-8.75,8.59-13.38,21.68-10.36,41.45-10.36,41.45c0,0,1.94,2.28,6.92,4.41,3.98,1.71,9.89,3.33,18.31,3.63" style="fill:none; stroke:#cdedf9; stroke-linecap:round; stroke-miterlimit:10; stroke-width:2px;"/><line x1="327.43" y1="322.37" x2="330.93" y2="288.76" style="fill:none; stroke:#cdedf9; stroke-linecap:round; stroke-miterlimit:10; stroke-width:2px;"/><path d="M462.76,197.59s16.81,9.77,43.8,21.12c0,0,10.21,5.52,14.57,20.55s9.51,48.62,9.51,48.62c0,0-12.26,13.71-39.03,9.07-.83-.14-1.67-.3-2.53-.48,0,0-4.29-58.43,20.09-69.78" style="fill:none; stroke:#cdedf9; stroke-linecap:round; stroke-miterlimit:10; stroke-width:2px;"/><line x1="491.84" y1="322.37" x2="491.61" y2="296.94" style="fill:none; stroke:#cdedf9; stroke-linecap:round; stroke-miterlimit:10; stroke-width:2px;"/><line x1="525.48" y1="322.37" x2="522.25" y2="293.64" style="fill:none; stroke:#cdedf9; stroke-linecap:round; stroke-miterlimit:10; stroke-width:2px;"/></g><path d="M11.12,385.44v-17.27h5.13v2.01h-2.77v13.26h2.77v2.01h-5.13Z" style="fill:#cdedf9;"/><path d="M24.28,378.7c-.45,0-.84-.16-1.16-.48-.32-.32-.48-.71-.48-1.16s.16-.84.48-1.16c.32-.32.71-.48,1.16-.48s.84.16,1.16.48c.32.32.48.71.48,1.16s-.16.84-.48,1.16c-.32.32-.71.48-1.16.48Z" style="fill:#cdedf9;"/><path d="M33.33,382.3v-14.13h5.43c1.54,0,2.86.29,3.98.86,1.12.57,1.97,1.38,2.57,2.44.6,1.06.9,2.31.9,3.77s-.3,2.69-.91,3.75c-.6,1.06-1.47,1.88-2.58,2.45-1.12.58-2.44.86-3.96.86h-5.43ZM36,380.03h2.76c1.55,0,2.73-.43,3.55-1.3s1.23-2.03,1.23-3.5-.41-2.65-1.23-3.51c-.82-.86-2-1.29-3.55-1.29h-2.76v9.59Z" style="fill:#cdedf9;"/><path d="M54.68,370.68c-.41,0-.75-.14-1.04-.43-.29-.29-.43-.63-.43-1.04s.14-.75.43-1.04c.28-.28.63-.43,1.04-.43s.75.14,1.04.43c.28.29.43.63.43,1.04s-.14.75-.43,1.04c-.29.29-.63.43-1.04.43ZM53.39,382.3v-10.47h2.6v10.47h-2.6Z" style="fill:#cdedf9;"/><path d="M64.19,382.3v-7.87h-1.29v-2.6h2.67v1.67h.79c.35-.59.82-1.05,1.4-1.38.59-.33,1.31-.49,2.17-.49s1.55.15,2.14.45c.59.3,1.06.76,1.42,1.38h.05c.79-1.22,1.99-1.83,3.59-1.83,1.34,0,2.39.39,3.16,1.16s1.15,1.82,1.15,3.15v6.35h-2.6v-5.88c0-1.65-.79-2.48-2.37-2.48s-2.35.83-2.35,2.48v5.88h-2.6v-5.88c0-1.65-.8-2.48-2.39-2.48-.77,0-1.35.21-1.74.62-.4.41-.59,1.03-.59,1.86v5.88h-2.6Z" style="fill:#cdedf9;"/><path d="M93.77,382.51c-1.13,0-2.11-.22-2.93-.67-.83-.45-1.46-1.08-1.91-1.9-.45-.82-.67-1.79-.67-2.9s.22-2.08.66-2.89c.44-.81,1.07-1.43,1.88-1.87.81-.44,1.77-.65,2.86-.65s1.99.21,2.76.62c.77.41,1.36,1.01,1.78,1.78.42.77.63,1.69.63,2.75v.91h-8.06c.09.88.4,1.56.92,2.03s1.21.71,2.07.71c.64,0,1.16-.12,1.56-.36.4-.24.68-.6.85-1.07h2.62c-.24,1.1-.81,1.97-1.68,2.59-.88.62-1.99.93-3.32.93ZM90.83,375.91h5.51c-.1-.72-.38-1.27-.84-1.65s-1.06-.57-1.83-.57-1.38.19-1.87.58c-.49.38-.81.93-.98,1.64Z" style="fill:#cdedf9;"/><path d="M106.39,382.3v-7.87h-1.29v-2.6h2.67v1.67h.73c.4-.59.9-1.05,1.52-1.38.62-.33,1.37-.49,2.27-.49,1.43,0,2.54.4,3.32,1.19.79.79,1.18,1.84,1.18,3.16v6.32h-2.6v-5.83c0-.83-.22-1.45-.65-1.88-.44-.43-1.08-.65-1.95-.65s-1.48.22-1.93.65c-.45.43-.67,1.06-.67,1.88v5.83h-2.6Z" style="fill:#cdedf9;"/><path d="M128.63,382.51c-1.51,0-2.7-.32-3.58-.95-.87-.63-1.34-1.52-1.41-2.66h2.53c.08.55.33.95.75,1.21.42.26,1.02.39,1.81.39,1.34,0,2.01-.39,2.01-1.17,0-.31-.1-.56-.31-.73-.2-.17-.54-.31-1.02-.4l-2.3-.44c-2.05-.39-3.07-1.36-3.07-2.9,0-.99.39-1.78,1.17-2.36.78-.59,1.85-.88,3.23-.88s2.46.3,3.27.9c.81.6,1.26,1.45,1.35,2.54h-2.51c-.13-.52-.37-.9-.72-1.14-.35-.24-.86-.36-1.53-.36-.59,0-1.05.09-1.36.28-.31.19-.47.46-.47.82,0,.27.1.48.3.64.2.16.51.29.94.37l2.35.45c1.07.21,1.85.56,2.35,1.05s.75,1.15.75,1.97c0,1.06-.39,1.88-1.17,2.48-.78.59-1.9.89-3.37.89Z" style="fill:#cdedf9;"/><path d="M141.31,370.68c-.41,0-.75-.14-1.04-.43-.29-.29-.43-.63-.43-1.04s.14-.75.43-1.04c.28-.28.63-.43,1.04-.43s.75.14,1.04.43c.28.29.43.63.43,1.04s-.14.75-.43,1.04c-.29.29-.63.43-1.04.43ZM140.02,382.3v-10.47h2.6v10.47h-2.6Z" style="fill:#cdedf9;"/><path d="M155.14,382.51c-1.13,0-2.11-.22-2.94-.67-.83-.45-1.48-1.08-1.94-1.89-.46-.81-.69-1.77-.69-2.88s.23-2.08.69-2.9c.46-.81,1.11-1.44,1.95-1.88.84-.44,1.81-.66,2.93-.66s2.12.22,2.94.66c.82.44,1.46,1.07,1.91,1.88.45.81.68,1.78.68,2.9s-.23,2.07-.68,2.89c-.45.82-1.09,1.45-1.92,1.89-.83.44-1.8.66-2.93.66ZM155.14,380.24c.93,0,1.65-.28,2.16-.85.51-.56.77-1.34.77-2.33s-.26-1.78-.77-2.34-1.23-.84-2.16-.84-1.67.28-2.19.84-.78,1.33-.78,2.32.26,1.78.78,2.35c.52.56,1.25.85,2.19.85Z" style="fill:#cdedf9;"/><path d="M168.23,382.3v-7.87h-1.29v-2.6h2.67v1.67h.73c.4-.59.9-1.05,1.52-1.38.62-.33,1.37-.49,2.27-.49,1.43,0,2.54.4,3.32,1.19.79.79,1.18,1.84,1.18,3.16v6.32h-2.6v-5.83c0-.83-.22-1.45-.65-1.88-.44-.43-1.08-.65-1.95-.65s-1.48.22-1.93.65c-.45.43-.67,1.06-.67,1.88v5.83h-2.6Z" style="fill:#cdedf9;"/><path d="M187.82,375.56c-.45,0-.84-.16-1.16-.48-.32-.32-.48-.71-.48-1.16s.16-.84.48-1.16c.32-.32.71-.48,1.16-.48s.84.16,1.16.48c.32.32.48.71.48,1.16s-.16.84-.48,1.16c-.32.32-.71.48-1.16.48ZM187.82,381.84c-.45,0-.84-.16-1.16-.48-.32-.32-.48-.71-.48-1.16s.16-.84.48-1.16c.32-.32.71-.48,1.16-.48s.84.16,1.16.48c.32.32.48.71.48,1.16s-.16.84-.48,1.16c-.32.32-.71.48-1.16.48Z" style="fill:#cdedf9;"/><path d="M203.81,382.54c-1.43,0-2.68-.3-3.76-.9s-1.91-1.45-2.49-2.54c-.59-1.09-.88-2.38-.88-3.86s.29-2.76.88-3.86c.59-1.09,1.42-1.94,2.49-2.54s2.33-.9,3.76-.9c1.15,0,2.17.19,3.04.58.88.38,1.6.94,2.17,1.67.57.73.94,1.6,1.1,2.61h-2.74c-.16-.79-.56-1.41-1.18-1.85-.62-.44-1.42-.66-2.4-.66-1.4,0-2.49.44-3.3,1.32-.8.88-1.2,2.09-1.2,3.64s.4,2.76,1.2,3.64c.8.88,1.9,1.32,3.3,1.32.98,0,1.78-.22,2.4-.65.62-.44,1.01-1.06,1.18-1.86h2.74c-.16,1.01-.53,1.88-1.1,2.61-.57.73-1.29,1.28-2.17,1.67-.88.38-1.89.58-3.04.58Z" style="fill:#cdedf9;"/><path d="M216.18,378.16v-2.2h5.23v2.2h-5.23Z" style="fill:#cdedf9;"/><path d="M228.9,382.3v-2.08h3.61v-9.18l-3.85,2.65h-.07v-2.62l4.31-2.91h2.23v12.05h3.07v2.08h-9.3Z" style="fill:#cdedf9;"/><path d="M250.2,382.51c-1.6,0-2.87-.35-3.79-1.06-.92-.7-1.44-1.71-1.57-3.01h2.6c.07.63.34,1.1.8,1.42.47.32,1.1.48,1.92.48.87,0,1.55-.2,2.04-.59.49-.4.73-.94.73-1.64,0-.65-.23-1.17-.7-1.55-.47-.38-1.09-.58-1.87-.58h-2.23v-2.06h2.29c.66,0,1.19-.17,1.59-.51.4-.34.59-.8.59-1.37,0-.6-.22-1.08-.65-1.44-.43-.35-1.01-.53-1.73-.53s-1.36.17-1.81.5c-.45.33-.73.82-.85,1.47h-2.49c.06-.83.31-1.55.76-2.16.45-.62,1.05-1.09,1.81-1.42s1.65-.5,2.66-.5,1.81.15,2.54.46c.73.31,1.29.75,1.68,1.31.4.56.59,1.22.59,1.98,0,.65-.19,1.24-.58,1.78-.39.54-.94.95-1.65,1.26v.09c.84.24,1.49.66,1.95,1.26.46.59.69,1.3.69,2.13s-.22,1.61-.66,2.26c-.44.65-1.06,1.15-1.86,1.5-.8.35-1.74.53-2.82.53Z" style="fill:#cdedf9;"/><path d="M263.39,382.3l6.28-11.78h-7.76v-2.36h10.82v1.8l-6.44,12.33h-2.9Z" style="fill:#cdedf9;"/><path d="M280.83,378.7c-.45,0-.84-.16-1.16-.48-.32-.32-.48-.71-.48-1.16s.16-.84.48-1.16c.32-.32.71-.48,1.16-.48s.84.16,1.16.48c.32.32.48.71.48,1.16s-.16.84-.48,1.16c-.32.32-.71.48-1.16.48Z" style="fill:#cdedf9;"/><path d="M288.86,385.42v-2.01h2.77v-13.24h-2.77v-2.01h5.13v17.25h-5.13Z" style="fill:#cdedf9;"/><line x1="19.95" y1="186.33" x2="19.95" y2="346.2" style="fill:none; stroke:#cdedf9; stroke-linecap:round; stroke-linejoin:round; stroke-width:2px;"/><polygon points="20 199.96 28.01 198.8 28.01 186.81 19.94 185.44 20 199.96" style="fill:#cdedf9;"/><polygon points="19.26 346.85 27.27 345.69 27.27 333.7 19.2 332.33 19.26 346.85" style="fill:#cdedf9;"/><circle cx="49.26" cy="208.48" r="10.55" style="fill:url(#radial-gradient-11); stroke:#cdedf9; stroke-linecap:round; stroke-linejoin:round; stroke-width:2px;"/><circle cx="49.26" cy="236.8" r="10.55" style="fill:url(#radial-gradient-12); stroke:#cdedf9; stroke-linecap:round; stroke-linejoin:round; stroke-width:2px;"/><circle cx="49.26" cy="265.12" r="10.55" style="fill:url(#radial-gradient-13); stroke:#cdedf9; stroke-linecap:round; stroke-linejoin:round; stroke-width:2px;"/><circle cx="49.26" cy="293.44" r="10.55" style="fill:url(#radial-gradient-14); stroke:#cdedf9; stroke-linecap:round; stroke-linejoin:round; stroke-width:2px;"/><circle cx="49.26" cy="321.75" r="10.55" style="fill:url(#radial-gradient-15); stroke:#cdedf9; stroke-linecap:round; stroke-linejoin:round; stroke-width:2px;"/><line x1="38.71" y1="208.48" x2="27.24" y2="208.48" style="fill:none; stroke:#cdedf9; stroke-linecap:round; stroke-linejoin:round; stroke-width:2px;"/><line x1="38.71" y1="236.8" x2="27.24" y2="236.8" style="fill:none; stroke:#cdedf9; stroke-linecap:round; stroke-linejoin:round; stroke-width:2px;"/><line x1="38.71" y1="265.12" x2="27.24" y2="265.12" style="fill:none; stroke:#cdedf9; stroke-linecap:round; stroke-linejoin:round; stroke-width:2px;"/><line x1="38.71" y1="293.44" x2="27.24" y2="293.44" style="fill:none; stroke:#cdedf9; stroke-linecap:round; stroke-linejoin:round; stroke-width:2px;"/><line x1="38.71" y1="321.75" x2="27.24" y2="321.75" style="fill:none; stroke:#cdedf9; stroke-linecap:round; stroke-linejoin:round; stroke-width:2px;"/><path d="M66.03,243.24v-11.85h3.52v1.38h-1.9v9.1h1.9v1.38h-3.52Z" style="fill:#cdedf9;"/><path d="M75.05,238.62c-.31,0-.58-.11-.8-.33s-.33-.49-.33-.8.11-.58.33-.8c.22-.22.49-.33.8-.33s.58.11.8.33c.22.22.33.49.33.8s-.11.58-.33.8-.48.33-.8.33Z" style="fill:#cdedf9;"/><path d="M85.52,241.23c-.94,0-1.77-.21-2.48-.63-.71-.42-1.27-1-1.66-1.75-.4-.75-.59-1.62-.59-2.6s.21-1.88.62-2.63c.41-.75.99-1.33,1.74-1.75.75-.41,1.61-.62,2.6-.62.79,0,1.49.13,2.09.4.61.26,1.1.64,1.49,1.14.39.5.63,1.1.74,1.79h-1.89c-.1-.55-.37-.98-.78-1.27s-.97-.45-1.65-.45c-.63,0-1.18.14-1.65.42-.47.28-.83.67-1.09,1.18s-.38,1.11-.38,1.81.13,1.3.39,1.82c.26.52.62.92,1.09,1.21.47.29,1.02.43,1.64.43.49,0,.92-.08,1.3-.24.38-.16.68-.38.9-.66.22-.28.33-.59.33-.95v-.44h-2.69v-1.42h3.06c.46,0,.81.11,1.05.34.24.23.36.56.36,1v3.73h-1.69v-1.22h-.06c-.22.44-.57.78-1.06,1.01-.49.23-1.07.35-1.73.35Z" style="fill:#cdedf9;"/><path d="M98.13,241.21c-.98,0-1.74-.26-2.27-.78-.53-.52-.8-1.23-.8-2.12v-4.4h1.78v4.04c0,.56.14.98.43,1.26.29.28.71.42,1.28.42.6,0,1.06-.15,1.38-.45s.48-.73.48-1.28v-4h1.78v5.4h.9v1.78h-1.83v-1.15h-.5c-.28.41-.63.73-1.05.95s-.95.33-1.59.33Z" style="fill:#cdedf9;"/><path d="M108.73,233.11c-.28,0-.52-.1-.71-.29s-.29-.43-.29-.71.1-.52.29-.71.43-.29.71-.29.52.1.71.29c.2.2.29.43.29.71s-.1.52-.29.71c-.2.2-.43.29-.71.29ZM107.84,241.08v-7.18h1.78v7.18h-1.78Z" style="fill:#cdedf9;"/><path d="M116.93,241.08c-.47,0-.84-.12-1.1-.36-.26-.24-.39-.6-.39-1.09v-4.34h-1.27v-1.39h1.28v-2.15h1.75v2.15h1.74v1.39h-1.71v4.39h1.88v1.4h-2.18Z" style="fill:#cdedf9;"/><path d="M125.95,241.21c-.84,0-1.49-.2-1.97-.61-.48-.41-.71-.95-.71-1.62s.24-1.24.72-1.63c.48-.38,1.18-.57,2.09-.57h2.19v-.29c0-.88-.51-1.32-1.53-1.32-.86,0-1.38.31-1.57.93h-1.78c.14-.77.5-1.35,1.08-1.75.58-.4,1.33-.6,2.27-.6,1.05,0,1.86.24,2.41.71s.83,1.17.83,2.08v2.75h.85v1.78h-1.83v-1.15h-.5c-.25.41-.58.72-1,.95-.42.22-.93.33-1.54.33ZM126.21,239.84c.39,0,.74-.07,1.05-.22.31-.15.56-.35.74-.6s.27-.53.27-.84v-.17h-2.09c-.81,0-1.21.3-1.21.9,0,.3.11.52.33.69.22.16.52.25.92.25Z" style="fill:#cdedf9;"/><path d="M136.09,241.08v-5.4h-.89v-1.78h1.82v1.39h.5c.2-.48.51-.84.92-1.09s.89-.37,1.42-.37h.6v1.53h-.68c-.65,0-1.13.19-1.45.56-.32.38-.49.87-.49,1.5v3.66h-1.76Z" style="fill:#cdedf9;"/><path d="M152.16,241.08v-9.69h4.54c1.08,0,1.93.27,2.52.81s.9,1.29.9,2.24-.3,1.69-.9,2.23c-.6.55-1.44.82-2.52.82h-2.7v3.59h-1.83ZM153.99,235.92h2.6c.56,0,.98-.13,1.27-.4.29-.26.44-.63.44-1.09s-.15-.83-.44-1.09c-.29-.26-.72-.4-1.27-.4h-2.6v2.97Z" style="fill:#cdedf9;"/><path d="M164.79,241.08v-10.05h1.78v10.05h-1.78Z" style="fill:#cdedf9;"/><path d="M174.02,241.21c-.84,0-1.49-.2-1.97-.61-.48-.41-.71-.95-.71-1.62s.24-1.24.72-1.63c.48-.38,1.18-.57,2.09-.57h2.19v-.29c0-.88-.51-1.32-1.53-1.32-.86,0-1.38.31-1.57.93h-1.78c.14-.77.5-1.35,1.08-1.75.58-.4,1.33-.6,2.27-.6,1.05,0,1.86.24,2.41.71s.83,1.17.83,2.08v2.75h.85v1.78h-1.83v-1.15h-.5c-.25.41-.58.72-1,.95-.42.22-.93.33-1.54.33ZM174.28,239.84c.39,0,.74-.07,1.05-.22.31-.15.56-.35.74-.6s.27-.53.27-.84v-.17h-2.09c-.81,0-1.21.3-1.21.9,0,.3.11.52.33.69.22.16.52.25.92.25Z" style="fill:#cdedf9;"/><path d="M183.71,243.95v-1.42h1.63l.61-1.48-3.14-7.14h1.88l2.15,5.09h.06l2.08-5.09h1.81l-3.08,7.18-.62,1.48c-.19.44-.4.78-.63,1.02-.23.24-.59.36-1.08.36h-1.68Z" style="fill:#cdedf9;"/><path d="M198.54,241.23c-.77,0-1.44-.15-2.01-.46-.57-.31-1-.74-1.31-1.3s-.46-1.23-.46-1.99.15-1.43.45-1.98.73-.98,1.29-1.28c.56-.3,1.21-.45,1.96-.45s1.36.14,1.89.42c.53.28.93.69,1.22,1.22.29.53.43,1.16.43,1.89v.62h-5.53c.06.61.27,1.07.63,1.39.35.32.83.48,1.42.48.44,0,.8-.08,1.07-.25.28-.16.47-.41.58-.74h1.8c-.17.76-.55,1.35-1.15,1.78-.6.43-1.36.64-2.28.64ZM196.52,236.7h3.78c-.07-.49-.26-.87-.57-1.13-.31-.26-.73-.39-1.26-.39s-.95.13-1.28.4c-.33.26-.56.64-.67,1.12Z" style="fill:#cdedf9;"/><path d="M207.31,241.08v-5.4h-.89v-1.78h1.82v1.39h.5c.2-.48.51-.84.92-1.09s.89-.37,1.42-.37h.6v1.53h-.68c-.65,0-1.13.19-1.45.56-.32.38-.49.87-.49,1.5v3.66h-1.76Z" style="fill:#cdedf9;"/><path d="M217.13,238.62c-.31,0-.58-.11-.8-.33s-.33-.49-.33-.8.11-.58.33-.8c.22-.22.49-.33.8-.33s.58.11.8.33c.22.22.33.49.33.8s-.11.58-.33.8-.48.33-.8.33Z" style="fill:#cdedf9;"/><path d="M222.63,243.22v-1.38h1.9v-9.08h-1.9v-1.38h3.52v11.84h-3.52Z" style="fill:#cdedf9;"/><path d="M66.03,271.7v-11.85h3.52v1.38h-1.9v9.1h1.9v1.38h-3.52Z" style="fill:#cdedf9;"/><path d="M75.05,267.08c-.31,0-.58-.11-.8-.33s-.33-.49-.33-.8.11-.58.33-.8c.22-.22.49-.33.8-.33s.58.11.8.33c.22.22.33.49.33.8s-.11.58-.33.8-.48.33-.8.33Z" style="fill:#cdedf9;"/><path d="M85.67,269.72c-.98,0-1.84-.21-2.58-.62s-1.31-.99-1.71-1.74c-.4-.75-.6-1.63-.6-2.64s.2-1.89.6-2.64c.4-.75.97-1.33,1.71-1.74.74-.41,1.6-.62,2.58-.62.79,0,1.49.13,2.09.4.6.26,1.1.64,1.49,1.14.39.5.64,1.1.75,1.79h-1.88c-.11-.54-.38-.97-.81-1.27-.43-.3-.98-.45-1.65-.45-.96,0-1.71.3-2.26.9s-.83,1.43-.83,2.5.28,1.89.83,2.5,1.3.9,2.26.9c.67,0,1.22-.15,1.65-.45.43-.3.7-.72.81-1.27h1.88c-.11.69-.36,1.29-.75,1.79s-.89.88-1.49,1.14c-.6.26-1.3.4-2.09.4Z" style="fill:#cdedf9;"/><path d="M97.87,269.69c-.77,0-1.44-.15-2.01-.46-.57-.31-1-.74-1.31-1.3s-.46-1.23-.46-1.99.15-1.43.45-1.98.73-.98,1.29-1.28c.56-.3,1.21-.45,1.96-.45s1.36.14,1.89.42c.53.28.93.69,1.22,1.22.29.53.43,1.16.43,1.89v.62h-5.53c.06.61.27,1.07.63,1.39.35.32.83.48,1.42.48.44,0,.8-.08,1.07-.25.28-.16.47-.41.58-.74h1.8c-.17.76-.55,1.35-1.15,1.78-.6.43-1.36.64-2.28.64ZM95.85,265.17h3.78c-.07-.49-.26-.87-.57-1.13-.31-.26-.73-.39-1.26-.39s-.95.13-1.28.4c-.33.26-.56.64-.67,1.12Z" style="fill:#cdedf9;"/><path d="M106.65,269.55v-5.4h-.89v-1.78h1.82v1.39h.5c.2-.48.51-.84.92-1.09s.89-.37,1.42-.37h.6v1.53h-.68c-.65,0-1.13.19-1.45.56-.32.38-.49.87-.49,1.5v3.66h-1.76Z" style="fill:#cdedf9;"/><path d="M117.73,269.55c-.47,0-.84-.12-1.1-.36-.26-.24-.39-.6-.39-1.09v-4.34h-1.27v-1.39h1.28v-2.15h1.75v2.15h1.74v1.39h-1.71v4.39h1.88v1.4h-2.18Z" style="fill:#cdedf9;"/><path d="M125.42,261.58c-.28,0-.52-.1-.71-.29s-.29-.43-.29-.71.1-.52.29-.71.43-.29.71-.29.52.1.71.29c.2.2.29.43.29.71s-.1.52-.29.71c-.2.2-.43.29-.71.29ZM124.54,269.55v-7.18h1.78v7.18h-1.78Z" style="fill:#cdedf9;"/><path d="M132.21,269.55v-5.79h-1.34v-1.39h1.35v-1.4c0-.5.13-.87.4-1.11.27-.24.64-.36,1.12-.36h2.03v1.39h-1.81v1.48h1.66v1.39h-1.64v5.79h-1.78Z" style="fill:#cdedf9;"/><path d="M141.08,261.58c-.28,0-.52-.1-.71-.29s-.29-.43-.29-.71.1-.52.29-.71.43-.29.71-.29.52.1.71.29c.2.2.29.43.29.71s-.1.52-.29.71c-.2.2-.43.29-.71.29ZM140.19,269.55v-7.18h1.78v7.18h-1.78Z" style="fill:#cdedf9;"/><path d="M150.53,269.69c-.77,0-1.44-.15-2.01-.46-.57-.31-1-.74-1.31-1.3s-.46-1.23-.46-1.99.15-1.43.45-1.98.73-.98,1.29-1.28c.56-.3,1.21-.45,1.96-.45s1.36.14,1.89.42c.53.28.93.69,1.22,1.22.29.53.43,1.16.43,1.89v.62h-5.53c.06.61.27,1.07.63,1.39.35.32.83.48,1.42.48.44,0,.8-.08,1.07-.25.28-.16.47-.41.58-.74h1.8c-.17.76-.55,1.35-1.15,1.78-.6.43-1.36.64-2.28.64ZM148.51,265.17h3.78c-.07-.49-.26-.87-.57-1.13-.31-.26-.73-.39-1.26-.39s-.95.13-1.28.4c-.33.26-.56.64-.67,1.12Z" style="fill:#cdedf9;"/><path d="M161.77,269.69c-.73,0-1.36-.15-1.87-.46-.51-.31-.9-.74-1.17-1.3-.27-.56-.4-1.22-.4-1.97s.13-1.42.39-1.97c.26-.56.63-.99,1.12-1.3.49-.31,1.08-.46,1.77-.46.54,0,1.01.1,1.4.31.39.2.69.5.9.88h.05v-3.91h1.78v8.27h.89v1.78h-1.82v-1.15h-.5c-.26.41-.59.73-1.02.96-.42.22-.93.34-1.52.34ZM162.08,268.15c.57,0,1.03-.16,1.37-.49.34-.32.51-.76.51-1.32v-.77c0-.56-.17-1-.51-1.32-.34-.32-.8-.49-1.37-.49-.64,0-1.12.19-1.46.58-.33.39-.5.92-.5,1.61s.17,1.22.5,1.61c.34.39.82.58,1.46.58Z" style="fill:#cdedf9;"/><path d="M179.25,269.55h-1.8v-8.11h-3.24v-1.58h8.28v1.58h-3.24v8.11Z" style="fill:#cdedf9;"/><path d="M189.34,269.68c-.84,0-1.49-.2-1.97-.61-.48-.41-.71-.95-.71-1.62s.24-1.24.72-1.63c.48-.38,1.18-.57,2.09-.57h2.19v-.29c0-.88-.51-1.32-1.53-1.32-.86,0-1.38.31-1.57.93h-1.78c.14-.77.5-1.35,1.08-1.75.58-.4,1.33-.6,2.27-.6,1.05,0,1.86.24,2.41.71s.83,1.17.83,2.08v2.75h.85v1.78h-1.83v-1.15h-.5c-.25.41-.58.72-1,.95-.42.22-.93.33-1.54.33ZM189.6,268.3c.39,0,.74-.07,1.05-.22.31-.15.56-.35.74-.6s.27-.53.27-.84v-.17h-2.09c-.81,0-1.21.3-1.21.9,0,.3.11.52.33.69.22.16.52.25.92.25Z" style="fill:#cdedf9;"/><path d="M201.03,269.55c-.47,0-.84-.12-1.1-.36-.26-.24-.39-.6-.39-1.09v-4.34h-1.27v-1.39h1.28v-2.15h1.75v2.15h1.74v1.39h-1.71v4.39h1.88v1.4h-2.18Z" style="fill:#cdedf9;"/><path d="M209.91,269.55c-.47,0-.84-.12-1.1-.36-.26-.24-.39-.6-.39-1.09v-4.34h-1.27v-1.39h1.28v-2.15h1.75v2.15h1.74v1.39h-1.71v4.39h1.88v1.4h-2.18Z" style="fill:#cdedf9;"/><path d="M220.08,269.69c-.77,0-1.45-.15-2.02-.46-.57-.31-1.01-.74-1.33-1.3-.32-.56-.47-1.22-.47-1.97s.16-1.43.47-1.99c.31-.56.76-.99,1.33-1.29.57-.3,1.24-.45,2.01-.45s1.45.15,2.02.45c.56.3,1,.73,1.31,1.29.31.56.47,1.22.47,1.99s-.16,1.42-.47,1.98c-.31.56-.75,1-1.32,1.3-.57.3-1.24.45-2.01.45ZM220.08,268.13c.64,0,1.13-.19,1.48-.58s.53-.92.53-1.6-.18-1.22-.53-1.6c-.35-.38-.85-.57-1.48-.57s-1.15.19-1.5.57c-.36.38-.53.91-.53,1.59s.18,1.22.53,1.61c.35.39.86.58,1.5.58Z" style="fill:#cdedf9;"/><path d="M232.03,269.69c-.77,0-1.45-.15-2.02-.46-.57-.31-1.01-.74-1.33-1.3-.32-.56-.47-1.22-.47-1.97s.16-1.43.47-1.99c.31-.56.76-.99,1.33-1.29.57-.3,1.24-.45,2.01-.45s1.45.15,2.02.45c.56.3,1,.73,1.31,1.29.31.56.47,1.22.47,1.99s-.16,1.42-.47,1.98c-.31.56-.75,1-1.32,1.3-.57.3-1.24.45-2.01.45ZM232.03,268.13c.64,0,1.13-.19,1.48-.58s.53-.92.53-1.6-.18-1.22-.53-1.6c-.35-.38-.85-.57-1.48-.57s-1.15.19-1.5.57c-.36.38-.53.91-.53,1.59s.18,1.22.53,1.61c.35.39.86.58,1.5.58Z" style="fill:#cdedf9;"/><path d="M243.23,269.55l4.12-9.69h1.9l4.09,9.69h-1.87l-1.07-2.54h-4.3l-1.08,2.54h-1.81ZM246.69,265.48h3.21l-1.57-3.76h-.06l-1.58,3.76Z" style="fill:#cdedf9;"/><path d="M258.27,269.55v-5.4h-.89v-1.78h1.82v1.39h.5c.2-.48.51-.84.92-1.09s.89-.37,1.42-.37h.6v1.53h-.68c-.65,0-1.13.19-1.45.56-.32.38-.49.87-.49,1.5v3.66h-1.76Z" style="fill:#cdedf9;"/><path d="M269.35,269.55c-.47,0-.84-.12-1.1-.36-.26-.24-.39-.6-.39-1.09v-4.34h-1.27v-1.39h1.28v-2.15h1.75v2.15h1.74v1.39h-1.71v4.39h1.88v1.4h-2.18Z" style="fill:#cdedf9;"/><path d="M277.05,261.58c-.28,0-.52-.1-.71-.29s-.29-.43-.29-.71.1-.52.29-.71.43-.29.71-.29.52.1.71.29c.2.2.29.43.29.71s-.1.52-.29.71c-.2.2-.43.29-.71.29ZM276.16,269.55v-7.18h1.78v7.18h-1.78Z" style="fill:#cdedf9;"/><path d="M286.15,269.69c-1.04,0-1.86-.22-2.45-.65s-.92-1.04-.97-1.83h1.74c.06.38.23.65.51.83.29.18.7.27,1.24.27.92,0,1.38-.27,1.38-.8,0-.22-.07-.38-.21-.5s-.37-.21-.7-.28l-1.58-.3c-1.4-.27-2.11-.93-2.11-1.99,0-.68.27-1.22.8-1.62.53-.4,1.27-.6,2.21-.6s1.69.21,2.24.62.86.99.93,1.74h-1.72c-.09-.36-.25-.62-.5-.78-.24-.16-.59-.24-1.05-.24-.41,0-.72.06-.93.19-.22.13-.32.32-.32.56,0,.18.07.33.2.44.14.11.35.2.65.25l1.62.31c.73.14,1.27.38,1.62.72.34.33.51.79.51,1.35,0,.73-.27,1.29-.8,1.7-.53.41-1.3.61-2.31.61Z" style="fill:#cdedf9;"/><path d="M296.04,269.55c-.47,0-.84-.12-1.1-.36-.26-.24-.39-.6-.39-1.09v-4.34h-1.27v-1.39h1.28v-2.15h1.75v2.15h1.74v1.39h-1.71v4.39h1.88v1.4h-2.18Z" style="fill:#cdedf9;"/><path d="M303.65,267.08c-.31,0-.58-.11-.8-.33s-.33-.49-.33-.8.11-.58.33-.8c.22-.22.49-.33.8-.33s.58.11.8.33c.22.22.33.49.33.8s-.11.58-.33.8-.48.33-.8.33Z" style="fill:#cdedf9;"/><path d="M309.15,271.69v-1.38h1.9v-9.08h-1.9v-1.38h3.52v11.84h-3.52Z" style="fill:#cdedf9;"/><path d="M66.03,299.17v-11.85h3.52v1.38h-1.9v9.1h1.9v1.38h-3.52Z" style="fill:#cdedf9;"/><path d="M75.05,294.55c-.31,0-.58-.11-.8-.33s-.33-.49-.33-.8.11-.58.33-.8c.22-.22.49-.33.8-.33s.58.11.8.33c.22.22.33.49.33.8s-.11.58-.33.8-.48.33-.8.33Z" style="fill:#cdedf9;"/><path d="M86.54,297.01h-1.83v-9.69h6.86v1.58h-5.03v2.44h4.66v1.58h-4.66v4.09Z" style="fill:#cdedf9;"/><path d="M96.67,297.01v-5.4h-.89v-1.78h1.82v1.39h.5c.2-.48.51-.84.92-1.09s.89-.37,1.42-.37h.6v1.53h-.68c-.65,0-1.13.19-1.45.56-.32.38-.49.87-.49,1.5v3.66h-1.76Z" style="fill:#cdedf9;"/><path d="M109,297.16c-.77,0-1.44-.15-2.01-.46-.57-.31-1-.74-1.31-1.3s-.46-1.23-.46-1.99.15-1.43.45-1.98.73-.98,1.29-1.28c.56-.3,1.21-.45,1.96-.45s1.36.14,1.89.42c.53.28.93.69,1.22,1.22.29.53.43,1.16.43,1.89v.62h-5.53c.06.61.27,1.07.63,1.39.35.32.83.48,1.42.48.44,0,.8-.08,1.07-.25.28-.16.47-.41.58-.74h1.8c-.17.76-.55,1.35-1.15,1.78-.6.43-1.36.64-2.28.64ZM106.98,292.63h3.78c-.07-.49-.26-.87-.57-1.13-.31-.26-.73-.39-1.26-.39s-.95.13-1.28.4c-.33.26-.56.64-.67,1.12Z" style="fill:#cdedf9;"/><path d="M120.59,297.16c-.77,0-1.44-.15-2.01-.46-.57-.31-1-.74-1.31-1.3s-.46-1.23-.46-1.99.15-1.43.45-1.98.73-.98,1.29-1.28c.56-.3,1.21-.45,1.96-.45s1.36.14,1.89.42c.53.28.93.69,1.22,1.22.29.53.43,1.16.43,1.89v.62h-5.53c.06.61.27,1.07.63,1.39.35.32.83.48,1.42.48.44,0,.8-.08,1.07-.25.28-.16.47-.41.58-.74h1.8c-.17.76-.55,1.35-1.15,1.78-.6.43-1.36.64-2.28.64ZM118.57,292.63h3.78c-.07-.49-.26-.87-.57-1.13-.31-.26-.73-.39-1.26-.39s-.95.13-1.28.4c-.33.26-.56.64-.67,1.12Z" style="fill:#cdedf9;"/><path d="M128.85,297.01v-10.05h1.78v10.05h-1.78Z" style="fill:#cdedf9;"/><path d="M138.07,297.15c-.84,0-1.49-.2-1.97-.61-.48-.41-.71-.95-.71-1.62s.24-1.24.72-1.63c.48-.38,1.18-.57,2.09-.57h2.19v-.29c0-.88-.51-1.32-1.53-1.32-.86,0-1.38.31-1.57.93h-1.78c.14-.77.5-1.35,1.08-1.75.58-.4,1.33-.6,2.27-.6,1.05,0,1.86.24,2.41.71s.83,1.17.83,2.08v2.75h.85v1.78h-1.83v-1.15h-.5c-.25.41-.58.72-1,.95-.42.22-.93.33-1.54.33ZM138.34,295.77c.39,0,.74-.07,1.05-.22.31-.15.56-.35.74-.6s.27-.53.27-.84v-.17h-2.09c-.81,0-1.21.3-1.21.9,0,.3.11.52.33.69.22.16.52.25.92.25Z" style="fill:#cdedf9;"/><path d="M148.09,297.01v-5.4h-.89v-1.78h1.83v1.15h.5c.27-.41.62-.72,1.04-.95.42-.22.94-.33,1.56-.33.98,0,1.74.27,2.28.81.54.54.81,1.27.81,2.17v4.33h-1.78v-4c0-.57-.15-1-.45-1.29s-.74-.44-1.33-.44-1.02.15-1.32.44c-.31.3-.46.73-.46,1.29v4h-1.78Z" style="fill:#cdedf9;"/><path d="M163.63,297.16c-.74,0-1.39-.15-1.95-.46-.56-.31-.99-.74-1.3-1.3-.31-.56-.47-1.22-.47-1.97s.15-1.42.46-1.97.74-.99,1.3-1.3c.56-.31,1.21-.46,1.96-.46.93,0,1.69.23,2.3.7.61.47.99,1.11,1.15,1.94h-1.78c-.12-.36-.32-.63-.6-.81s-.63-.28-1.07-.28c-.59,0-1.06.19-1.41.57-.35.38-.53.92-.53,1.61s.18,1.23.53,1.61c.35.38.82.57,1.41.57.93,0,1.49-.4,1.7-1.2h1.8c-.15.87-.53,1.55-1.14,2.03-.61.48-1.39.72-2.36.72Z" style="fill:#cdedf9;"/><path d="M174.92,297.16c-.77,0-1.44-.15-2.01-.46-.57-.31-1-.74-1.31-1.3s-.46-1.23-.46-1.99.15-1.43.45-1.98.73-.98,1.29-1.28c.56-.3,1.21-.45,1.96-.45s1.36.14,1.89.42c.53.28.93.69,1.22,1.22.29.53.43,1.16.43,1.89v.62h-5.53c.06.61.27,1.07.63,1.39.35.32.83.48,1.42.48.44,0,.8-.08,1.07-.25.28-.16.47-.41.58-.74h1.8c-.17.76-.55,1.35-1.15,1.78-.6.43-1.36.64-2.28.64ZM172.9,292.63h3.78c-.07-.49-.26-.87-.57-1.13-.31-.26-.73-.39-1.26-.39s-.95.13-1.28.4c-.33.26-.56.64-.67,1.12Z" style="fill:#cdedf9;"/><path d="M183.69,297.01v-5.4h-.89v-1.78h1.82v1.39h.5c.2-.48.51-.84.92-1.09s.89-.37,1.42-.37h.6v1.53h-.68c-.65,0-1.13.19-1.45.56-.32.38-.49.87-.49,1.5v3.66h-1.76Z" style="fill:#cdedf9;"/><path d="M193.5,294.55c-.31,0-.58-.11-.8-.33s-.33-.49-.33-.8.11-.58.33-.8c.22-.22.49-.33.8-.33s.58.11.8.33c.22.22.33.49.33.8s-.11.58-.33.8-.48.33-.8.33Z" style="fill:#cdedf9;"/><path d="M199.01,299.16v-1.38h1.9v-9.08h-1.9v-1.38h3.52v11.84h-3.52Z" style="fill:#cdedf9;"/><path d="M66.03,215.33v-12h3.56v1.39h-1.93v9.21h1.93v1.39h-3.56Z" style="fill:#cdedf9;"/><path d="M75.17,210.65c-.31,0-.58-.11-.81-.33s-.33-.49-.33-.81.11-.58.33-.81c.22-.22.49-.33.81-.33s.58.11.81.33c.22.22.33.49.33.81s-.11.58-.33.81-.49.33-.81.33Z" style="fill:#cdedf9;"/><path d="M81.46,213.15v-9.82h4.96c.59,0,1.1.1,1.54.31.44.21.78.5,1.02.87.25.38.37.81.37,1.32s-.14.94-.42,1.29-.65.6-1.09.75v.05c.36.08.7.23,1,.45.3.22.55.49.73.82.18.33.27.72.27,1.18,0,.56-.13,1.04-.41,1.46-.27.42-.65.74-1.13.98-.48.23-1.04.35-1.67.35h-5.18ZM83.31,207.32h2.85c.43,0,.76-.1.99-.31s.35-.5.35-.88-.12-.69-.35-.9c-.23-.2-.56-.3-.99-.3h-2.85v2.39ZM83.31,211.55h2.98c.54,0,.96-.12,1.25-.36.29-.24.44-.58.44-1.04s-.15-.78-.44-1.01c-.29-.23-.7-.35-1.24-.35h-2.99v2.75Z" style="fill:#cdedf9;"/><path d="M98.15,213.29c-.78,0-1.46-.16-2.04-.47-.58-.31-1.03-.75-1.35-1.32-.32-.57-.48-1.23-.48-2s.16-1.45.48-2.01c.32-.57.77-1,1.35-1.31.58-.31,1.26-.46,2.04-.46s1.47.15,2.04.46c.57.31,1.01.74,1.33,1.31.32.57.47,1.24.47,2.01s-.16,1.44-.47,2.01c-.31.57-.76,1.01-1.33,1.32-.57.31-1.25.46-2.04.46ZM98.15,211.72c.65,0,1.15-.2,1.5-.59s.53-.93.53-1.62-.18-1.24-.53-1.62c-.36-.39-.86-.58-1.5-.58s-1.16.19-1.52.58c-.36.39-.54.93-.54,1.61s.18,1.24.54,1.63c.36.39.87.59,1.52.59Z" style="fill:#cdedf9;"/><path d="M110.25,213.29c-.78,0-1.46-.16-2.04-.47-.58-.31-1.03-.75-1.35-1.32-.32-.57-.48-1.23-.48-2s.16-1.45.48-2.01c.32-.57.77-1,1.35-1.31.58-.31,1.26-.46,2.04-.46s1.47.15,2.04.46c.57.31,1.01.74,1.33,1.31.32.57.47,1.24.47,2.01s-.16,1.44-.47,2.01c-.31.57-.76,1.01-1.33,1.32-.57.31-1.25.46-2.04.46ZM110.25,211.72c.65,0,1.15-.2,1.5-.59s.53-.93.53-1.62-.18-1.24-.53-1.62c-.36-.39-.86-.58-1.5-.58s-1.16.19-1.52.58c-.36.39-.54.93-.54,1.61s.18,1.24.54,1.63c.36.39.87.59,1.52.59Z" style="fill:#cdedf9;"/><path d="M118.87,213.15v-10.18h1.81v5.72h.05l3.07-2.81h2.16l-3.16,2.86,3.42,4.41h-2.13l-2.55-3.31-.85.69v2.62h-1.81Z" style="fill:#cdedf9;"/><path d="M134.41,213.15v-9.82h4.97c1.03,0,1.84.24,2.43.71.59.47.88,1.13.88,1.97,0,.5-.12.93-.35,1.3-.23.36-.56.63-1,.81v.05c.43,0,.76.11.99.35.23.23.35.57.35,1.01v3.62h-1.84v-3.83h-4.58v3.83h-1.85ZM136.27,207.74h2.98c.52,0,.92-.12,1.2-.37.28-.25.42-.59.42-1.04s-.14-.8-.42-1.05c-.28-.25-.68-.37-1.2-.37h-2.98v2.82Z" style="fill:#cdedf9;"/><path d="M151.38,213.29c-.78,0-1.46-.16-2.04-.47-.57-.31-1.02-.75-1.33-1.32s-.47-1.24-.47-2.02.15-1.44.46-2.01.74-.99,1.31-1.3c.57-.3,1.23-.45,1.99-.45s1.38.14,1.91.43c.53.29.95.7,1.24,1.24.29.54.44,1.17.44,1.91v.63h-5.6c.06.61.28,1.08.64,1.41.36.33.84.49,1.44.49.44,0,.81-.08,1.08-.25.28-.17.47-.41.59-.75h1.82c-.17.77-.56,1.37-1.17,1.8-.61.43-1.38.65-2.31.65ZM149.33,208.71h3.83c-.07-.5-.27-.88-.58-1.15-.32-.26-.74-.39-1.27-.39s-.96.13-1.3.4c-.34.27-.57.65-.68,1.14Z" style="fill:#cdedf9;"/><path d="M161.99,213.28c-.85,0-1.51-.21-1.99-.62-.48-.41-.72-.96-.72-1.64s.24-1.26.73-1.65c.49-.39,1.19-.58,2.12-.58h2.22v-.29c0-.89-.52-1.33-1.55-1.33-.87,0-1.4.32-1.59.95h-1.81c.15-.78.51-1.37,1.1-1.78.59-.41,1.35-.61,2.3-.61,1.07,0,1.88.24,2.44.72s.84,1.18.84,2.1v2.79h.86v1.81h-1.85v-1.16h-.51c-.25.41-.59.73-1.01.96-.42.23-.94.34-1.56.34ZM162.25,211.89c.4,0,.75-.07,1.07-.22.31-.15.56-.35.75-.61s.27-.54.27-.85v-.17h-2.12c-.82,0-1.22.3-1.22.91,0,.3.11.53.33.7.22.17.53.25.93.25Z" style="fill:#cdedf9;"/><path d="M174.75,213.29c-.74,0-1.37-.16-1.89-.47-.52-.31-.91-.75-1.18-1.32-.27-.57-.41-1.23-.41-1.99s.13-1.43.39-2c.26-.57.64-1,1.14-1.32.5-.31,1.09-.47,1.79-.47.55,0,1.02.1,1.42.31.4.21.7.5.91.89h.05v-3.96h1.81v8.37h.9v1.81h-1.84v-1.16h-.51c-.26.42-.6.74-1.03.97-.43.23-.94.34-1.54.34ZM175.06,211.73c.58,0,1.04-.16,1.39-.49.34-.33.51-.77.51-1.34v-.78c0-.57-.17-1.01-.51-1.34-.34-.33-.81-.49-1.39-.49-.65,0-1.14.2-1.48.59-.34.39-.51.94-.51,1.63s.17,1.24.51,1.63c.34.39.83.59,1.48.59Z" style="fill:#cdedf9;"/><path d="M187.85,213.29c-.78,0-1.46-.16-2.04-.47-.57-.31-1.02-.75-1.33-1.32s-.47-1.24-.47-2.02.15-1.44.46-2.01.74-.99,1.31-1.3c.57-.3,1.23-.45,1.99-.45s1.38.14,1.91.43c.53.29.95.7,1.24,1.24.29.54.44,1.17.44,1.91v.63h-5.6c.06.61.28,1.08.64,1.41.36.33.84.49,1.44.49.44,0,.81-.08,1.08-.25.28-.17.47-.41.59-.75h1.82c-.17.77-.56,1.37-1.17,1.8-.61.43-1.38.65-2.31.65ZM185.8,208.71h3.83c-.07-.5-.27-.88-.58-1.15-.32-.26-.74-.39-1.27-.39s-.96.13-1.3.4c-.34.27-.57.65-.68,1.14Z" style="fill:#cdedf9;"/><path d="M196.74,213.15v-5.47h-.9v-1.81h1.84v1.41h.51c.2-.49.51-.85.93-1.1s.9-.38,1.44-.38h.61v1.55h-.69c-.65,0-1.15.19-1.47.57-.33.38-.49.88-.49,1.52v3.71h-1.78Z" style="fill:#cdedf9;"/><path d="M206.67,210.65c-.31,0-.58-.11-.81-.33s-.33-.49-.33-.81.11-.58.33-.81c.22-.22.49-.33.81-.33s.58.11.81.33c.22.22.33.49.33.81s-.11.58-.33.81-.49.33-.81.33Z" style="fill:#cdedf9;"/><path d="M212.25,215.32v-1.39h1.93v-9.2h-1.93v-1.39h3.56v11.99h-3.56Z" style="fill:#cdedf9;"/><path d="M66.03,328.24v-12h3.56v1.39h-1.93v9.21h1.93v1.39h-3.56Z" style="fill:#cdedf9;"/><path d="M75.17,323.56c-.31,0-.58-.11-.81-.33s-.33-.49-.33-.81.11-.58.33-.81c.22-.22.49-.33.81-.33s.58.11.81.33c.22.22.33.49.33.81s-.11.58-.33.81-.49.33-.81.33Z" style="fill:#cdedf9;"/><path d="M85.77,326.05h-1.82v-8.22h-3.28v-1.6h8.39v1.6h-3.28v8.22Z" style="fill:#cdedf9;"/><path d="M94.65,317.98c-.28,0-.52-.1-.72-.3s-.3-.44-.3-.72.1-.52.3-.72.44-.3.72-.3.52.1.72.3c.2.2.3.44.3.72s-.1.52-.3.72c-.2.2-.44.3-.72.3ZM93.75,326.05v-7.27h1.81v7.27h-1.81Z" style="fill:#cdedf9;"/><path d="M101.25,326.05v-5.47h-.9v-1.81h1.85v1.16h.55c.24-.41.57-.73.98-.96.41-.23.91-.34,1.51-.34s1.08.1,1.48.31c.41.21.74.53.99.96h.04c.55-.85,1.38-1.27,2.5-1.27.93,0,1.66.27,2.19.81s.8,1.27.8,2.19v4.41h-1.81v-4.08c0-1.15-.55-1.72-1.65-1.72s-1.64.57-1.64,1.72v4.08h-1.81v-4.08c0-1.15-.55-1.72-1.66-1.72-.53,0-.94.14-1.21.43-.28.29-.41.72-.41,1.29v4.08h-1.81Z" style="fill:#cdedf9;"/><path d="M121.81,326.2c-.78,0-1.46-.16-2.04-.47-.57-.31-1.02-.75-1.33-1.32s-.47-1.24-.47-2.02.15-1.44.46-2.01.74-.99,1.31-1.3c.57-.3,1.23-.45,1.99-.45s1.38.14,1.91.43c.53.29.95.7,1.24,1.24.29.54.44,1.17.44,1.91v.63h-5.6c.06.61.28,1.08.64,1.41.36.33.84.49,1.44.49.44,0,.81-.08,1.08-.25.28-.17.47-.41.59-.75h1.82c-.17.77-.56,1.37-1.17,1.8-.61.43-1.38.65-2.31.65ZM119.76,321.62h3.83c-.07-.5-.27-.88-.58-1.15-.32-.26-.74-.39-1.27-.39s-.96.13-1.3.4c-.34.27-.57.65-.68,1.14Z" style="fill:#cdedf9;"/><path d="M138.15,326.05h-1.82v-8.22h-3.28v-1.6h8.39v1.6h-3.28v8.22Z" style="fill:#cdedf9;"/><path d="M146.64,326.05v-5.47h-.9v-1.81h1.84v1.41h.51c.2-.49.51-.85.93-1.1s.9-.38,1.44-.38h.61v1.55h-.69c-.65,0-1.15.19-1.47.57-.33.38-.49.88-.49,1.52v3.71h-1.78Z" style="fill:#cdedf9;"/><path d="M158.01,326.19c-.85,0-1.51-.21-1.99-.62-.48-.41-.72-.96-.72-1.64s.24-1.26.73-1.65c.49-.39,1.19-.58,2.12-.58h2.22v-.29c0-.89-.52-1.33-1.55-1.33-.87,0-1.4.32-1.59.95h-1.81c.15-.78.51-1.37,1.1-1.78.59-.41,1.35-.61,2.3-.61,1.07,0,1.88.24,2.44.72s.84,1.18.84,2.1v2.79h.86v1.81h-1.85v-1.16h-.51c-.25.41-.59.73-1.01.96-.42.23-.94.34-1.56.34ZM158.28,324.79c.4,0,.75-.07,1.07-.22.31-.15.56-.35.75-.61s.27-.54.27-.85v-.17h-2.12c-.82,0-1.22.3-1.22.91,0,.3.11.53.33.7.22.17.53.25.93.25Z" style="fill:#cdedf9;"/><path d="M170.03,326.05l-3.11-7.27h1.9l2.16,5.24h.05l2.12-5.24h1.85l-3.11,7.27h-1.85Z" style="fill:#cdedf9;"/><path d="M182.84,326.2c-.78,0-1.46-.16-2.04-.47-.57-.31-1.02-.75-1.33-1.32s-.47-1.24-.47-2.02.15-1.44.46-2.01.74-.99,1.31-1.3c.57-.3,1.23-.45,1.99-.45s1.38.14,1.91.43c.53.29.95.7,1.24,1.24.29.54.44,1.17.44,1.91v.63h-5.6c.06.61.28,1.08.64,1.41.36.33.84.49,1.44.49.44,0,.81-.08,1.08-.25.28-.17.47-.41.59-.75h1.82c-.17.77-.56,1.37-1.17,1.8-.61.43-1.38.65-2.31.65ZM180.8,321.62h3.83c-.07-.5-.27-.88-.58-1.15-.32-.26-.74-.39-1.27-.39s-.96.13-1.3.4c-.34.27-.57.65-.68,1.14Z" style="fill:#cdedf9;"/><path d="M191.21,326.05v-10.18h1.81v10.18h-1.81Z" style="fill:#cdedf9;"/><path d="M201.68,326.2c-.78,0-1.46-.16-2.04-.47-.57-.31-1.02-.75-1.33-1.32s-.47-1.24-.47-2.02.15-1.44.46-2.01.74-.99,1.31-1.3c.57-.3,1.23-.45,1.99-.45s1.38.14,1.91.43c.53.29.95.7,1.24,1.24.29.54.44,1.17.44,1.91v.63h-5.6c.06.61.28,1.08.64,1.41.36.33.84.49,1.44.49.44,0,.81-.08,1.08-.25.28-.17.47-.41.59-.75h1.82c-.17.77-.56,1.37-1.17,1.8-.61.43-1.38.65-2.31.65ZM199.63,321.62h3.83c-.07-.5-.27-.88-.58-1.15-.32-.26-.74-.39-1.27-.39s-.96.13-1.3.4c-.34.27-.57.65-.68,1.14Z" style="fill:#cdedf9;"/><path d="M210.56,326.05v-5.47h-.9v-1.81h1.84v1.41h.51c.2-.49.51-.85.93-1.1s.9-.38,1.44-.38h.61v1.55h-.69c-.65,0-1.15.19-1.47.57-.33.38-.49.88-.49,1.52v3.71h-1.78Z" style="fill:#cdedf9;"/><path d="M217.01,323.56c-.31,0-.58-.11-.81-.33s-.33-.49-.33-.81.11-.58.33-.81c.22-.22.49-.33.81-.33s.58.11.81.33c.22.22.33.49.33.81s-.11.58-.33.81-.49.33-.81.33Z" style="fill:#cdedf9;"/><path d="M222.59,328.22v-1.39h1.93v-9.2h-1.93v-1.39h3.56v11.99h-3.56Z" style="fill:#cdedf9;"/></g></g></svg>