<?xml version="1.0" encoding="UTF-8"?>
<svg id="photo-section-bar" xmlns="http://www.w3.org/2000/svg" version="1.1" viewBox="0 0 37.5 997.6">
  <!-- Generator: Adobe Illustrator 30.3.0, SVG Export Plug-In . SVG Version: 2.1.3 Build 182)  -->
  <defs>
    <style>
      .st0, .st1, .st2 {
        fill: none;
      }

      .st1, .st2 {
        stroke: #AE2012;
        stroke-linecap: round;
        stroke-linejoin: round;
        stroke-width: 2px;
      }

      .st3 {
        fill: #AE2012;
      }

      .st4, .st5 {
        isolation: isolate;
      }

      .st6, .st5 {
        fill: #EE9B00;
      }

      .st5 {
        font-family: Courier-Bold, Courier;
        font-size: 20px;
        font-weight: 700;
      }

      .st2 {
        stroke-dasharray: 11.9 11.9;
      }
    </style>
  </defs>
  <line class="st0" x1="36.5" y1="17" x2="36.5" y2="996.6"/>
  <line class="st2" x1="36.5" y1="1" x2="36.5" y2="983.6"/>
  <line class="st1" x1="36.5" y1="990.6" x2="36.5" y2="996.6"/>

  <polygon class="st3" points="0 0 35.8 0 35.8 333.9 0 298.9 0 0"/>
  <polygon class="st6" points="17.9 0 22.1 13 35.8 13 24.7 21 28.9 34 17.9 26 6.8 34 11.1 21 0 13 13.7 13 17.9 0"/>
  <g class="st4">
    <path class="st6" d="M29.1,288.3H9.1v-6h2.3v3.2h15.4v-3.2h2.3v6Z"/>
    <path class="st6" d="M21.3,273.1c0,.5-.2,1-.6,1.3-.4.4-.8.6-1.3.6s-1-.2-1.3-.6c-.4-.4-.6-.8-.6-1.3s.2-1,.6-1.3c.4-.4.8-.6,1.3-.6s1,.2,1.3.6c.4.4.6.8.6,1.3Z"/>
    <path class="st6" d="M25.5,262.4H9.1v-3.1h16.4v3.1Z"/>
    <path class="st6" d="M25.5,250.1H8.5v-3h17v3Z"/>
    <path class="st6" d="M25.5,238.2H8.5v-3h17v3Z"/>
    <path class="st6" d="M25.7,221.4c0,1.7-.4,2.9-1.3,3.8-.9.9-2.1,1.3-3.6,1.3h-7.5v-3h6.8c.9,0,1.7-.2,2.1-.7.5-.5.7-1.2.7-2.2s-.3-1.8-.8-2.3c-.5-.5-1.2-.8-2.2-.8h-6.8v-3h9.1v-1.5h3v3.1h-1.9v.9c.7.5,1.2,1.1,1.6,1.8.4.7.6,1.6.6,2.7Z"/>
    <path class="st6" d="M25.7,199.9c0,1.8-.4,3.1-1.1,4.2-.7,1-1.8,1.6-3.1,1.6v-2.9c.6,0,1.1-.4,1.4-.9.3-.5.5-1.2.5-2.1,0-1.6-.5-2.3-1.4-2.3s-.6.1-.9.4-.4.6-.5,1.2l-.5,2.7c-.5,2.4-1.6,3.6-3.4,3.6s-2.1-.5-2.7-1.4-1-2.2-1-3.7.3-2.9,1-3.8c.7-.9,1.7-1.5,2.9-1.6v2.9c-.6.1-1,.4-1.3.8-.3.4-.4,1-.4,1.8s.1,1.2.3,1.6c.2.4.5.5,1,.5s.6-.1.7-.3.3-.6.4-1.1l.5-2.7c.2-1.2.6-2.2,1.2-2.7.6-.6,1.3-.9,2.3-.9s2.2.5,2.9,1.4c.7.9,1,2.2,1,3.9Z"/>
    <path class="st6" d="M25.5,183.1c0,.8-.2,1.4-.6,1.9s-1,.7-1.8.7h-7.4v2.1h-2.3v-2.2h-3.6v-3h3.6v-2.9h2.3v2.9h7.4v-3.2h2.4v3.7Z"/>
    <path class="st6" d="M25.5,170.8h-9.1v1.5h-3v-3.1h2.3v-.9c-.8-.3-1.4-.9-1.8-1.6-.4-.7-.6-1.5-.6-2.4v-1h2.6v1.2c0,1.1.3,1.9,1,2.5.6.5,1.5.8,2.5.8h6.2v3Z"/>
    <path class="st6" d="M25.7,151.8c0,1.4-.3,2.5-1,3.3-.7.8-1.6,1.2-2.7,1.2s-2.1-.4-2.8-1.2c-.6-.8-1-2-1-3.5v-3.7h-.5c-1.5,0-2.2.9-2.2,2.6s.5,2.3,1.6,2.7v3c-1.3-.2-2.3-.9-3-1.8-.7-1-1-2.3-1-3.8s.4-3.1,1.2-4.1c.8-.9,2-1.4,3.5-1.4h4.7v-1.4h3v3.1h-1.9v.9c.7.4,1.2,1,1.6,1.7.4.7.6,1.6.6,2.6ZM23.4,151.3c0-.7-.1-1.3-.4-1.8s-.6-.9-1-1.2-.9-.5-1.4-.5h-.3v3.5c0,1.4.5,2,1.5,2s.9-.2,1.2-.6c.3-.4.4-.9.4-1.5Z"/>
    <path class="st6" d="M25.5,132c0,.8-.2,1.4-.6,1.9s-1,.7-1.8.7h-7.4v2.1h-2.3v-2.2h-3.6v-3h3.6v-2.9h2.3v2.9h7.4v-3.2h2.4v3.7Z"/>
    <path class="st6" d="M12,119c0,.5-.2.9-.5,1.2-.3.3-.7.5-1.2.5s-.9-.2-1.2-.5-.5-.7-.5-1.2.2-.9.5-1.2.7-.5,1.2-.5.9.2,1.2.5c.3.3.5.7.5,1.2ZM25.5,120.5h-12.2v-3h12.2v3Z"/>
    <path class="st6" d="M25.7,102.9c0,1.3-.3,2.4-.8,3.4-.5,1-1.3,1.7-2.2,2.2-.9.5-2.1.8-3.3.8s-2.4-.3-3.4-.8c-.9-.5-1.7-1.3-2.2-2.3-.5-1-.8-2.1-.8-3.4s.3-2.5.8-3.4c.5-1,1.2-1.7,2.2-2.2.9-.5,2.1-.8,3.4-.8s2.4.3,3.4.8c1,.5,1.7,1.3,2.2,2.2.5,1,.8,2.1.8,3.4ZM23.1,102.9c0-1.1-.3-1.9-1-2.5-.7-.6-1.6-.9-2.7-.9s-2.1.3-2.7.9c-.6.6-1,1.4-1,2.5s.3,1.9,1,2.5c.6.6,1.5.9,2.7.9s2.1-.3,2.7-.9c.7-.6,1-1.4,1-2.5Z"/>
    <path class="st6" d="M25.5,87.7h-9.1v1.5h-3v-3.1h1.9v-.9c-.7-.5-1.2-1-1.6-1.8-.4-.7-.6-1.6-.6-2.6,0-1.7.5-2.9,1.4-3.9.9-.9,2.1-1.4,3.7-1.4h7.3v3h-6.8c-1,0-1.7.3-2.2.8-.5.5-.8,1.3-.8,2.3s.2,1.7.8,2.2c.5.5,1.2.8,2.2.8h6.8v3Z"/>
    <path class="st6" d="M21.3,59.7c0,.5-.2,1-.6,1.3-.4.4-.8.6-1.3.6s-1-.2-1.3-.6-.6-.8-.6-1.3.2-1,.6-1.3.8-.6,1.3-.6,1,.2,1.3.6c.4.4.6.8.6,1.3Z"/>
    <path class="st6" d="M29.1,50.4h-2.3v-3.2h-15.4v3.2h-2.3v-6h20v6Z"/>
  </g>
</svg>