<?xml version="1.0" encoding="UTF-8"?><svg id="Layer_2" xmlns="http://www.w3.org/2000/svg" xmlns:xlink="http://www.w3.org/1999/xlink" viewBox="0 0 125.45 120.93"><defs><radialGradient id="radial-gradient" cx="53.34" cy="68.97" fx="53.34" fy="68.97" r="35.53" gradientTransform="translate(28.76 138.8) rotate(-22.19) scale(.95 -.98) skewX(1.81)" gradientUnits="userSpaceOnUse"><stop offset="0" stop-color="#046e23"/><stop offset="1" stop-color="#00333a" stop-opacity=".5"/></radialGradient></defs><g id="laugh"><g id="laugh-2"><g id="screen"><path d="M109.72,1.1s8.94,24.84,14.73,52.33l-19.79,14.25,1.95,7.78-14.89,11.22s-49.83,13.81-55.63,14.45S12.06,39.21,10.45,32.32c0,0,47.32-26.51,55.99-27.98,8.67-1.48,33.84-3.85,43.28-3.24Z" style="fill:none; stroke:#cdedf9; stroke-linecap:round; stroke-linejoin:round; stroke-width:2px;"/><path d="M71.47,6.75s17.01,57.57,18.48,76.88" style="fill:none; stroke:#cdedf9; stroke-linecap:round; stroke-linejoin:round; stroke-width:2px;"/><path id="face" d="M66.5,10.49s13.61,49.35,17.78,73.73c0,0-30.92,11.24-46.71,11.5,0,0-13.06-14.58-20.82-61.85,0,0,21.17-16.53,49.76-23.38h-.01Z" style="fill:url(#radial-gradient); stroke:#cdedf9; stroke-linecap:round; stroke-linejoin:round; stroke-width:2px;"/></g><g id="leg-2"><path d="M69.9,94.19s-.66,11.89-5.75,25.73c0,0-8.51.26-8.7-1.36s3.57-8.47,8.92-22.76" style="fill:none; stroke:#cdedf9; stroke-linecap:round; stroke-linejoin:round; stroke-width:2px;"/><path d="M74.79,92.94s-.87,19.14-3.66,24.03l-6.97,2.95" style="fill:none; stroke:#cdedf9; stroke-linecap:round; stroke-linejoin:round; stroke-width:2px;"/></g><g id="arm-1"><path d="M99.76,30.74s-4.45,10.36-4.45,33.05c0,0-5.21-1.48-8.17-3.93,0,0-1.61-9.72,7.34-26.11" style="fill:none; stroke:#cdedf9; stroke-linecap:round; stroke-linejoin:round; stroke-width:2px;"/><path d="M105.74,34.87s-.54,17.99-.08,27.98c0,0,1.03,5.36-10.35.93" style="fill:none; stroke:#cdedf9; stroke-linecap:round; stroke-linejoin:round; stroke-width:2px;"/></g><g id="leg-1"><path d="M87.04,90.31s-.07,9.9-5.18,23.75c0,0-8.54.27-8.73-1.36s3.42-7.44,8.79-21.74" style="fill:none; stroke:#cdedf9; stroke-linecap:round; stroke-linejoin:round; stroke-width:2px;"/><path d="M91.68,88.16s-.03,18.05-2.83,22.94l-7,2.96" style="fill:none; stroke:#cdedf9; stroke-linecap:round; stroke-linejoin:round; stroke-width:2px;"/></g><g id="arm-1-2"><path d="M1.58,65.69c1.32-10.31,5.35-8.07,5.35-8.07,8.15,3.02,13.14,6.97,13.14,6.97,0,0,2.92,8.78,3.86,11.48-17.58,3.95-22.65-2.77-22.65-2.77-.74-3.03.31-7.61.31-7.61,19.55,6.09,20.96,4.74,20.42,4.68" style="fill:none; stroke:#cdedf9; stroke-linecap:round; stroke-linejoin:round; stroke-width:2px;"/></g></g><g id="laugh1"><path d="M58.81,50.74c.6.2,1.1.7,1.7,1.1,3.2,2.5,7.4,3.1,11.5,3.1h.4c.1,0,.1-.3,0-.3" style="fill:none; stroke:#fff; stroke-linecap:round; stroke-linejoin:round; stroke-width:2px;"/><path d="M70.41,59.34c-3.5,0-7,.8-10.1,2.3,2.9.3,5.7,1.4,8.5,2.4" style="fill:none; stroke:#fff; stroke-linecap:round; stroke-linejoin:round; stroke-width:2px;"/><path d="M38.01,55.54c4,1.5,7.8,3.5,11.4,6-3-1.3-6.3-2.1-9.6-2.1" style="fill:none; stroke:#fff; stroke-linecap:round; stroke-linejoin:round; stroke-width:2px;"/><path d="M35.31,60.24c-.9.8-1.7,1.7-2.2,2.7" style="fill:none; stroke:#fff; stroke-linecap:round; stroke-linejoin:round; stroke-width:2px;"/><path d="M36.51,62.54c-.2.3-.3.6-.3.9" style="fill:none; stroke:#fff; stroke-linecap:round; stroke-linejoin:round; stroke-width:2px;"/><path d="M71.21,66.64h.3c-.7.4-1.5.8-2.3.9" style="fill:none; stroke:#fff; stroke-linecap:round; stroke-linejoin:round; stroke-width:2px;"/><path d="M72.51,69.14h0v.1c-.5.4-1.1.8-1.7,1.1" style="fill:none; stroke:#fff; stroke-linecap:round; stroke-linejoin:round; stroke-width:2px;"/><path d="M44.11,68.74c6.6,2.6,14.3,2.2,20.7-.9.7,1.5.4,3.3,0,5-.5,2.6-1,5.2-2.1,7.6-.8,1.7-2,3.4-3.8,3.8-2.1.4-4.1-1.2-5.7-2.6-2.5-2.3-5.2-4.7-6.2-8" style="fill:none; stroke:#fff; stroke-linecap:round; stroke-linejoin:round; stroke-width:2px;"/><path d="M48.81,71.74c0,.7.2,1.4.3,2.1,0,.2,0,.4.2.5.1,0,.3.1.4.2,4.7,1.1,9.8.2,14-2.2" style="fill:none; stroke:#fff; stroke-linecap:round; stroke-linejoin:round; stroke-width:2px;"/><path d="M43.01,42.54c-5.4.9-10,5.3-11.2,10.6" style="fill:none; stroke:#fff; stroke-linecap:round; stroke-linejoin:round; stroke-width:2px;"/><path d="M28.81,46.94h-.3c3.7,1,7.3,2.1,11,3.1" style="fill:none; stroke:#fff; stroke-linecap:round; stroke-linejoin:round; stroke-width:2px;"/><path d="M33.71,37.14l-.4-.5c2.9,3.6,5.9,7.2,8.8,10.7" style="fill:none; stroke:#fff; stroke-linecap:round; stroke-linejoin:round; stroke-width:2px;"/></g></g></svg>