<?xml version="1.0" encoding="UTF-8"?><svg id="Layer_2" xmlns="http://www.w3.org/2000/svg" xmlns:xlink="http://www.w3.org/1999/xlink" viewBox="0 0 114.92 119.13"><defs><radialGradient id="radial-gradient" cx="36.08" cy="76.85" fx="36.08" fy="76.85" r="35.53" gradientTransform="translate(0 121.73) scale(1 -1)" gradientUnits="userSpaceOnUse"><stop offset="0" stop-color="#046e23"/><stop offset="1" stop-color="#00333a" stop-opacity=".5"/></radialGradient></defs><g id="laugh"><g id="laugh-2"><g id="screen"><path d="M113.92,15.02s-.32,27.02-4.73,55.34l-24.9,5.86-.95,8.14-18.92,4.88s-54.54-6.18-60.53-7.81c-5.99-1.63-.95-68.03,0-75.2,0,0,56.75-6.84,65.89-4.88,9.14,1.95,34.99,9.44,44.14,13.67Z" style="fill:none; stroke:#cdedf9; stroke-linecap:round; stroke-linejoin:round; stroke-width:2px;"/><path d="M73.88,5.58s-4.41,61.2-10.09,80.08" style="fill:none; stroke:#cdedf9; stroke-linecap:round; stroke-linejoin:round; stroke-width:2px;"/><path id="face" d="M67.58,7.21s-4.74,52.08-9.62,76.82c0,0-34.83-1.3-50.59-7.16,0,0-7.57-18.88,2.21-66.73,0,0,27.11-7.49,58.01-2.93h-.01Z" style="fill:url(#radial-gradient); stroke:#cdedf9; stroke-linecap:round; stroke-linejoin:round; stroke-width:2px;"/></g><g id="leg-2"><path d="M56.33,89.18s2.53,13.69,10.55,28.95c0,0,10.01-1.05,9.99-2.97s-5.44-9.27-13.83-25" style="fill:none; stroke:#cdedf9; stroke-linecap:round; stroke-linejoin:round; stroke-width:2px;"/><path d="M50.42,88.5s3.86,22.08,7.85,27.31l8.61,2.31" style="fill:none; stroke:#cdedf9; stroke-linecap:round; stroke-linejoin:round; stroke-width:2px;"/></g><g id="arm-1"><path d="M78.44,36.87s4.53,10.41,21.48,25.76c0,0-4.87,2.98-8.84,3.59,0,0-8.43-5.34-14.2-23.28" style="fill:none; stroke:#cdedf9; stroke-linecap:round; stroke-linejoin:round; stroke-width:2px;"/><path d="M85.85,35.09s13.05,12.58,20.85,18.99c0,0,4.75,2.84-6.78,8.55" style="fill:none; stroke:#cdedf9; stroke-linecap:round; stroke-linejoin:round; stroke-width:2px;"/></g><g id="leg-1"><path d="M35.67,87.41s1.55,11.48,9.6,26.74c0,0,10.05-1.06,10.03-2.97s-5.11-8.1-13.52-23.83" style="fill:none; stroke:#cdedf9; stroke-linecap:round; stroke-linejoin:round; stroke-width:2px;"/><path d="M29.91,85.66s2.72,20.94,6.72,26.18l8.64,2.31" style="fill:none; stroke:#cdedf9; stroke-linecap:round; stroke-linejoin:round; stroke-width:2px;"/></g><path d="M45.6,38.76c.63.22,1.14.69,1.66,1.11,3.16,2.5,7.43,3.06,11.46,3.12.13,0,.27,0,.37-.08s.12-.27,0-.32" style="fill:none; stroke:#fff; stroke-linecap:round; stroke-linejoin:round; stroke-width:2px;"/><path d="M57.21,47.41c-3.48.06-6.95.84-10.13,2.26,2.93.27,5.72,1.37,8.45,2.45" style="fill:none; stroke:#fff; stroke-linecap:round; stroke-linejoin:round; stroke-width:2px;"/><path d="M24.8,43.61c4.02,1.51,7.85,3.53,11.36,6-3.02-1.35-6.32-2.08-9.62-2.12" style="fill:none; stroke:#fff; stroke-linecap:round; stroke-linejoin:round; stroke-width:2px;"/><path d="M22.1,48.29c-.91.76-1.66,1.7-2.21,2.74" style="fill:none; stroke:#fff; stroke-linecap:round; stroke-linejoin:round; stroke-width:2px;"/><path d="M23.34,50.61c-.17.27-.28.57-.34.88" style="fill:none; stroke:#fff; stroke-linecap:round; stroke-linejoin:round; stroke-width:2px;"/><path d="M58.04,54.71l.3-.08c-.69.5-1.49.85-2.33,1.01" style="fill:none; stroke:#fff; stroke-linecap:round; stroke-linejoin:round; stroke-width:2px;"/><path d="M59.35,57.21s.06-.08.08-.03-.03.1-.07.14c-.53.42-1.11.78-1.72,1.08" style="fill:none; stroke:#fff; stroke-linecap:round; stroke-linejoin:round; stroke-width:2px;"/><path d="M30.94,56.81c6.62,2.57,14.31,2.24,20.69-.89.69,1.54.38,3.33.05,4.98-.51,2.57-1.02,5.16-2.09,7.55-.76,1.7-2,3.42-3.84,3.78-2.14.42-4.12-1.16-5.73-2.63-2.52-2.29-5.15-4.74-6.19-7.98" style="fill:none; stroke:#fff; stroke-linecap:round; stroke-linejoin:round; stroke-width:2px;"/><path d="M35.66,59.75c.06.69.16,1.37.29,2.05.04.19.08.39.22.51.11.1.26.14.41.17,4.73,1.05,9.84.25,14.02-2.21" style="fill:none; stroke:#fff; stroke-linecap:round; stroke-linejoin:round; stroke-width:2px;"/><path d="M29.88,30.58c-5.36.92-9.97,5.27-11.22,10.56" style="fill:none; stroke:#fff; stroke-linecap:round; stroke-linejoin:round; stroke-width:2px;"/><path d="M15.66,34.92l-.32-.04c3.67,1.05,7.33,2.11,11,3.16" style="fill:none; stroke:#fff; stroke-linecap:round; stroke-linejoin:round; stroke-width:2px;"/><path d="M20.48,25.2l-.39-.51c2.93,3.58,5.86,7.16,8.79,10.75" style="fill:none; stroke:#fff; stroke-linecap:round; stroke-linejoin:round; stroke-width:2px;"/></g></g></svg>