<?xml version="1.0" encoding="UTF-8"?><svg id="Layer_2" xmlns="http://www.w3.org/2000/svg" xmlns:xlink="http://www.w3.org/1999/xlink" viewBox="0 0 114.91 119.13"><defs><radialGradient id="radial-gradient" cx="36.06" cy="44.89" fx="36.06" fy="44.89" r="35.53" gradientUnits="userSpaceOnUse"><stop offset="0" stop-color="#046e23"/><stop offset="1" stop-color="#00333a" stop-opacity=".5"/></radialGradient></defs><g id="laugh"><g id="screen"><path d="M113.91,15.02s-.32,27.02-4.73,55.34l-24.9,5.86-.95,8.14-18.92,4.88s-54.54-6.18-60.53-7.81c-5.99-1.63-.95-68.03,0-75.2,0,0,56.75-6.84,65.89-4.88,9.14,1.95,34.99,9.44,44.14,13.67Z" style="fill:none; stroke:#cdedf9; stroke-linecap:round; stroke-linejoin:round; stroke-width:2px;"/><path d="M73.87,5.58s-4.41,61.2-10.09,80.08" style="fill:none; stroke:#cdedf9; stroke-linecap:round; stroke-linejoin:round; stroke-width:2px;"/><path id="face" d="M67.57,7.21s-4.74,52.08-9.62,76.82c0,0-34.83-1.3-50.59-7.16,0,0-7.57-18.88,2.21-66.73,0,0,27.11-7.49,58.01-2.93Z" style="fill:url(#radial-gradient); stroke:#cdedf9; stroke-linecap:round; stroke-linejoin:round; stroke-width:2px;"/></g><g id="leg-2"><path d="M56.32,89.18s2.53,13.69,10.55,28.95c0,0,10.01-1.05,9.99-2.97s-5.44-9.27-13.83-25" style="fill:none; stroke:#cdedf9; stroke-linecap:round; stroke-linejoin:round; stroke-width:2px;"/><path d="M50.41,88.5s3.86,22.08,7.85,27.31l8.61,2.31" style="fill:none; stroke:#cdedf9; stroke-linecap:round; stroke-linejoin:round; stroke-width:2px;"/></g><g id="arm-1"><path d="M78.43,36.87s4.53,10.41,21.48,25.76c0,0-4.87,2.98-8.84,3.59,0,0-8.43-5.34-14.2-23.28" style="fill:none; stroke:#cdedf9; stroke-linecap:round; stroke-linejoin:round; stroke-width:2px;"/><path d="M85.84,35.09s13.05,12.58,20.85,18.99c0,0,4.75,2.84-6.78,8.55" style="fill:none; stroke:#cdedf9; stroke-linecap:round; stroke-linejoin:round; stroke-width:2px;"/></g><g id="leg-1"><path d="M35.66,87.41s1.55,11.48,9.6,26.74c0,0,10.05-1.06,10.03-2.97s-5.11-8.1-13.52-23.83" style="fill:none; stroke:#cdedf9; stroke-linecap:round; stroke-linejoin:round; stroke-width:2px;"/><path d="M29.9,85.66s2.72,20.94,6.72,26.18l8.64,2.31" style="fill:none; stroke:#cdedf9; stroke-linecap:round; stroke-linejoin:round; stroke-width:2px;"/></g><g id="laugh-2"><path d="M13.87,38.44c-.17.1-.34-.1-.42-.3-1.52-4.41-1.1-9.51.42-13.82.68-1.9,1.6-3.7,3.04-4.71s3.46-1,4.64.5c.34.5.93,1.1,1.35.7" style="fill:none; stroke:#fff; stroke-linecap:round; stroke-linejoin:round; stroke-width:2px;"/><path d="M19.1,40.64c2.53,1.3,5.07,2.8,7.51,4.31-2.36.7-4.64,1.4-7.01,2" style="fill:none; stroke:#fff; stroke-linecap:round; stroke-linejoin:round; stroke-width:2px;"/><path d="M45.78,37.44l-5.32,4.21c-.08,0-.25.2-.17.3,0,.1.08.2.17.2,2.2,1,4.64,1.1,6.75.1v.8" style="fill:none; stroke:#fff; stroke-linecap:round; stroke-linejoin:round; stroke-width:2px;"/><path d="M51.19,28.23c.08,0,0-.2-.08,0s0,.2.17.2c2.7,1.4,5.15,3.6,7.09,6.31" style="fill:none; stroke:#fff; stroke-linecap:round; stroke-linejoin:round; stroke-width:2px;"/><path d="M51.19,34.34l5.24-8.21" style="fill:none; stroke:#fff; stroke-linecap:round; stroke-linejoin:round; stroke-width:2px;"/><path d="M54.65,35.14c0-.3.25-.5.42-.5-.25.5-.59.8-1.01,1.1,1.86-2.2,3.72-4.31,5.57-6.51" style="fill:none; stroke:#fff; stroke-linecap:round; stroke-linejoin:round; stroke-width:2px;"/><path d="M41.82,53.76c-2.03,4.21-4.05,8.41-6.08,12.72-.84,1.7-1.69,3.4-2.96,4.61-2.53,2.2-6.16,1.3-8.44-1.3s-3.21-6.51-3.38-10.31c-.17-3.1.25-6.41,1.6-9.11,6,2.3,13,4.01,19.25,3.4Z" style="fill:none; stroke:#fff; stroke-linecap:round; stroke-linejoin:round; stroke-width:2px;"/><path d="M23.07,54.36c4.73,2.5,10.05,3.5,15.2,3" style="fill:none; stroke:#fff; stroke-linecap:round; stroke-linejoin:round; stroke-width:2px;"/><path d="M22.65,64.07c.76-2,2.79-2.8,4.56-3.1,1.44-.2,2.96,0,4.31.7s2.45,2.3,2.62,4.11" style="fill:none; stroke:#fff; stroke-linecap:round; stroke-linejoin:round; stroke-width:2px;"/></g></g></svg>