<?xml version="1.0" encoding="UTF-8"?><svg id="Layer_2" xmlns="http://www.w3.org/2000/svg" xmlns:xlink="http://www.w3.org/1999/xlink" viewBox="0 0 220.4 160.03"><defs><radialGradient id="radial-gradient" cx="133.12" cy="88.68" fx="133.12" fy="88.68" r="64.51" gradientTransform="translate(-6.62 2.71) rotate(-6.11) scale(1.01 1.07) skewX(-.93)" gradientUnits="userSpaceOnUse"><stop offset="0" stop-color="#046e23"/><stop offset="1" stop-color="#00333a" stop-opacity=".5"/></radialGradient></defs><g id="laugh"><g id="laugh-2"><g id="screen"><path d="M3.89,49.76s.58,26.69,8.59,81.17l45.21,11.27,1.72,15.66,32.66-1.01s113.45,4.15,124.32,1.01c10.87-3.14-11.01-136.5-12.74-150.29,0,0-83.43-23.04-143.83,17.17-16.59,3.75-39.31,16.89-55.93,25.02Z" style="fill:none; stroke:#cdedf9; stroke-linecap:round; stroke-linejoin:round; stroke-width:2px;"/><path d="M58.29,35.08s8.01,88.09,18.32,115.26" style="fill:none; stroke:#cdedf9; stroke-linecap:round; stroke-linejoin:round; stroke-width:2px;"/></g></g><path d="M69.36,28.3s-3.95,51.58,11.61,126.66c0,0,53.53,3.3,122.03-13.07,0,0,3.14-58.27-11.61-126.66,0,0-44.67-12.52-122.03,13.07Z" style="fill:url(#radial-gradient); stroke:#cdedf9; stroke-linecap:round; stroke-linejoin:round; stroke-width:2px;"/><ellipse cx="120.1" cy="87.92" rx="2.67" ry="8.52" transform="translate(-7.4 11.12) rotate(-5.14)" style="fill:#cdedf9;"/><ellipse cx="161.73" cy="77.15" rx="2.67" ry="8.52" transform="translate(-6.27 14.81) rotate(-5.14)" style="fill:#cdedf9;"/><path d="M97.7,85.75l13.74-2.88c4.94-1.03,10.02-2.13,14.23-5.08" style="fill:none; stroke:#cdedf9; stroke-linecap:round; stroke-linejoin:round; stroke-width:2px;"/><path d="M145.87,71.85c8.53.18,17.07-.43,25.5-1.82" style="fill:none; stroke:#cdedf9; stroke-linecap:round; stroke-linejoin:round; stroke-width:2px;"/><path d="M152.5,44.78c1.21-.89,2.45-1.72,3.74-2.47.45-.27.95-.53,1.46-.44.51.09.91.51,1.26.91,2.17,2.48,4.14,5.16,5.89,8" style="fill:none; stroke:#cdedf9; stroke-linecap:round; stroke-linejoin:round; stroke-width:2px;"/><path d="M99.39,69.08c1.12-1.44,2.43-3,4.18-3.16.9-.08,1.79.23,2.63.55,2.54.98,5.02,2.16,7.4,3.52,2.01,1.15,4.34,2.47,6.45,1.51.35-.87.42-1.86.19-2.77" style="fill:none; stroke:#cdedf9; stroke-linecap:round; stroke-linejoin:round; stroke-width:2px;"/><path d="M103.5,108.47l1.7,9.22c18.89-.94,37.71-3.74,56.13-8.35,6.82-1.7,13.8-3.78,19.25-8.47-.46-2.73-1.05-5.44-1.75-8.12" style="fill:none; stroke:#cdedf9; stroke-linecap:round; stroke-linejoin:round; stroke-width:2px;"/><path d="M178.67,79.13c2.58-2.28,4.71-5.14,6.21-8.33" style="fill:none; stroke:#cdedf9; stroke-linecap:round; stroke-linejoin:round; stroke-width:2px;"/><path d="M186.4,82.91c1.71-2.48,3.42-4.95,5.13-7.43" style="fill:none; stroke:#cdedf9; stroke-linecap:round; stroke-linejoin:round; stroke-width:2px;"/><path d="M134.42,123.69c-.83,1.96-.24,4.48,1.35,5.79,1.43,1.17,3.35,1.33,5.15,1.39" style="fill:none; stroke:#cdedf9; stroke-linecap:round; stroke-linejoin:round; stroke-width:2px;"/><path d="M125.15,121.64c0,2.04.24,4.09.73,6.06" style="fill:none; stroke:#cdedf9; stroke-linecap:round; stroke-linejoin:round; stroke-width:2px;"/><line x1="1" y1="157.86" x2="211.78" y2="157.86" style="fill:none; stroke:#cdedf9; stroke-linecap:round; stroke-linejoin:round; stroke-width:2px;"/><path d="M212.72,120.54s9.8,18.84,3.87,32.9c0,0-2.01,6.74-20.09,5.43-18.08-1.31-24.04,0-24.04,0,0,0-3-11.42.95-25.15,0,0,18.27-.87,32.98,6.07,0,0,3.56.08,2.14-6.07" style="fill:none; stroke:#cdedf9; stroke-linecap:round; stroke-linejoin:round; stroke-width:2px;"/><path d="M54.72,137.56s-6.81-10.93-14.03-7.38c0,0-7.37,5.07,6.36,22.77,0,0-9.11,7.45-20.4,3.99,0,0-.58-3.84,1.68-7.66l4.46-1.39s-4.45-17.26-.99-21.41c3.46-4.15,18.03-12.72,28.68,5.9" style="fill:none; stroke:#cdedf9; stroke-linecap:round; stroke-linejoin:round; stroke-width:2px;"/><path d="M26.65,156.94s-8.53-6.73-8.82-10.45c0,0-.58-6.39,6.4-6.39,0,0-6.81-30.5,24.44-27.18" style="fill:none; stroke:#cdedf9; stroke-linecap:round; stroke-linejoin:round; stroke-width:2px;"/></g></svg>