<?xml version="1.0" encoding="utf-8"?>
<!-- Generator: Adobe Illustrator 30.3.0, SVG Export Plug-In . SVG Version: 9.03 Build 0)  -->
<svg version="1.0" id="Layer_1" xmlns="http://www.w3.org/2000/svg" xmlns:xlink="http://www.w3.org/1999/xlink" x="0px" y="0px"
	 viewBox="0 0 945.1 814.2" style="enable-background:new 0 0 945.1 814.2;" xml:space="preserve">
<style type="text/css">
	.st0{fill:#383D39;}
	.st1{fill:#833623;}
	.st2{fill:#22231D;}
	.st3{fill:#9A4D3D;}
	.st4{fill:#963B28;}
	.st5{fill:#59635B;}
	.st6{fill:#6F7D74;}
	.st7{fill:#DAA283;}
	.st8{fill:#9D7462;}
	.st9{fill:none;}
</style>
<g id="color">
	<path class="st0" d="M329.8,814.2L111,708.2c0,0,16.3-36.7,66.8-62.7c0,0,6-32.5,53.9-46.4c0,0,6.1-29.6,47.1-41.1
		c0,0-4.1-17.9,23.4-39.4c0,0-50.8-15.3,44.7-49.9s154.3,10.4,154.3,10.4s130.4,78.8,139.3,172.3s-41.4,110.7-41.4,110.7
		s3,41.9-17,52.1H329.8z"/>
	<path class="st1" d="M0,814.2c0,0,113.2-129.2,123.2-97.7l86.9,18.1l16.4,17.1c0,0,90.5,35.4,103.3,62.6H0z"/>
	<path class="st2" d="M123.2,716.5l99.8,19.4l78.7-82.1l28.1,11.9c0,0-17.8-24.1-28.1-25.6s-79.6-15.9-102.9-3.5
		S123.2,716.5,123.2,716.5z"/>
	<path class="st3" d="M45.3,516.9"/>
	<path class="st3" d="M70.7,763.7c0,0-47.8,29.2-51.5,42.3h110.3l-58.8-14.2C70.7,791.7,52.1,798.1,70.7,763.7z"/>
	<polygon id="glow" class="st4" points="214.4,695 196,715.6 138.8,710.6 158.5,691.2 	"/>
	<path class="st5" d="M604.8,701.5c0,0,21.4-21.1,16.2-44.2s-56.7-152.4-160.4-179.7c-103.7-27.3-143.7,24.8-143.7,24.8
		s-9.6,7,5.7,4s111-16.4,150,17.5C506.5,553.4,508.5,521.2,604.8,701.5z"/>
	<path class="st5" d="M587.4,753.1c0,0,4,21-7.4,9.8c0,0-29.7-122.9-93-162.9c-63.3-39.9-90.9-67.8-182.4-57.4
		c0,0-10.1-13.3,18.7-15.6s148.9-0.2,192.2,72S580.7,689.9,587.4,753.1z"/>
	<path class="st5" d="M547,791.7c0,0,11.4,20.9,13.8-9c2.4-29.9-51.6-149.8-120.4-182.7c-68.8-32.9-99.8-58.4-182.3-23.6
		c0,0-14.9,8.7-6.1,10.3c0,0,94.5-8.3,135.5,18.9C428.5,632.8,488.5,638.5,547,791.7z"/>
	<path class="st5" d="M490,798.8c0,0,44.7,35.9,34-14c0,0-121.4-218-296.4-172.2c0,0-39.8,13.2-13.2,11c0,0,76.8-3.3,139.9,22.8
		C417.4,672.4,473.6,761.8,490,798.8z"/>
	<path class="st5" d="M465.8,798.8c0,0-13.3,21.3-27.8,7.1c-14.5-14.2-67.1-86-125.4-110.3c0,0-23.6-15.8,11.6-11.8
		C359.4,687.7,434.5,751.5,465.8,798.8z"/>
	<path class="st6" d="M376.3,477.5c0,0-24.1,8-4.2,13.2c19.8,5.2,91.5,6.7,110.9,22.2c19.4,15.5,10.2-12.1,10.2-12.1
		S445.1,465.9,376.3,477.5z"/>
	<path class="st6" d="M324.8,565.2c0,0,104.8,18.4,121.3,30.4c16.5,12-21.7,3-21.7,3l-133.5-30.7
		C290.9,567.9,296.1,561.5,324.8,565.2z"/>
	<path class="st7" d="M513.7,364.3L572,187.4c16.4-34.5,43.2-23.6,43.2-23.6c16.7-20.3,46-20.7,46-20.7
		c15.2-24.4,58.6-23.3,58.6-23.3c18.7-14.6,57.3-15.5,57.3-15.5l19.2-22.9l35.5-15c0,0,57.8-52.3,77.6-46
		c19.8,6.3,3.2,44.8,3.2,44.8l-67.3,56.5l-28.8,47.2l-22.2,90l5.6,19.9l30.6-25.5c0,0,19.3-43.7,57.9-45.6c38.6-1.9,24.2,25,24.2,25
		l-28.4,48.2v32.9c0,0-40.4,24.1-56.1,53.9s-47.8,52-47.8,52l-92.1,53.6"/>
	<path class="st6" d="M638,643.5l63.8-105.9c0,0-16.9-103.1-35.4-102.3c0,0-10-23.2-24.7-21.3l-9-12l-8.2-8.1h-10.3l-10.7-7.4
		l-8.9-10.9l-11.8,0.6l-8.7-6.3l-29.1-1l-22.9,0l-17.2-3.1l-11.5,7l-19.4,0.4L403,450.4c0,0,43.6-7.1,98.3,28.7
		S604.2,543.9,638,643.5z"/>
	<path class="st8" d="M674.6,450.4c0,0,22.9-10.3,34-28.7c0,0,3.3,8.9,0,14.7c0,0,75.6-27.8,87.6-49.8c12-22,64.3-75.3,64.3-75.3
		s11.5-8.9,14.8,5.9l-41.7,41.5c0,0-21.8,38.6-53.4,61s-84.9,57.6-84.9,57.6S674.6,467.7,674.6,450.4z"/>
	<path class="st8" d="M803.1,228.3c0,0-28.3,1.9-30.1,27.6s2,44.6,2,44.6s-5.5,3.7-11.9,8.2c0,0,36.8-5.4,36.8-17.6
		c0,0,43.5,3.9,28.2-25.4"/>
	<path class="st8" d="M789.2,228.3l10.6-51.4l36.3-57.8l67.7-57.7c0,0,15.3-1.6,8.7,3.9c-6.6,5.5-67.3,56.5-67.3,56.5l-33.3,59.4
		l-9.9,57.9L789.2,228.3z"/>
	<line class="st8" x1="531.5" y1="358.7" x2="558.1" y2="232.7"/>
</g>
<g id="left_handline">
	<path d="M695,500c0-3.6,3.8-6.5,13.6-9.9l-1.3-9.4c-3.9,1.6-8.8,4.7-11.3,7.3c-1.4,1.4-2.8,2.6-3.2,2.6c-2.1,0-7.8-7.4-8.3-10.8
		c-0.3-2-0.8-5.9-1.1-8.7c-0.6-3.9-1.5-5.7-4.5-8.7c-2.1-2.1-4.7-3.8-5.9-3.8c-2.1,0-2.1-0.3-1.5-6.5c0.6-5.3,0.3-7.1-1.4-10.7
		c-3.7-7.8-9.8-11.8-17.8-11.8c-3,0-3.1-0.1-3.8-5.6c-1.1-9.8-5.5-16.8-12.6-20.4c-4.1-2.1-10.4-2.8-13.2-1.6
		c-1.9,0.9-2,0.7-3.8-6.2c-2.6-10.1-12.5-15.8-22.4-12.8c-4.4,1.3-4.6,1.3-6.1-1c-0.8-1.3-1.5-2.7-1.5-3.2c0-2.2-8.8-8.9-12.4-9.6
		c-3.9-0.7-11.3,0-13.1,1.4c-2.6,1.9-4.6,1.8-7.2-0.4c-4.3-3.5-6.9-4.6-13.5-5.7c-6.2-1-9.2-0.5-16.9,2.8c-3.4,1.4-3.9,1.4-6.2-0.2
		l-2.6-1.7l4-8c1.3-2.6,2.8-6.1,4.5-10.4c-1.5-0.7-3-1.5-4.4-2.3c-3.4,10.2-6.3,17.8-7.4,19.6c-0.5,0.7-2.4,1.3-4.3,1.3
		c-3.1,0-12.5,4.2-16.1,7.1c-1,0.9-1.7,0.8-2.9-0.2c-2.3-1.9-12.3-1.5-16.5,0.6c-4.2,2.1-7.5,5.7-18.6,20.5
		c-17.4,23-35.4,43.3-48.6,54.5l-6.5,5.6l-10.1,0.8c-8.1,0.8-13.2,2-26.8,6.6c-26.6,9-39.7,16.7-53.3,31.1
		c-4.5,4.8-7.8,9.6-10.8,15.6c-2.3,4.8-4.2,9.1-4.2,9.5c0,3.8-2.8,8.9-7.3,13.5c-5.9,6-10.1,12.7-12.7,20.2
		c-1.7,4.9-2.1,5.2-7.7,7.2c-6.9,2.4-9.7,4.1-18.3,11c-5.9,4.8-15.2,15.9-20,24.1c-1.5,2.6-4.5,4.5-13.2,8.7
		c-6.2,2.9-14.1,7.5-17.5,10c-9.3,7-20.6,19.7-24.9,27.9c-2,4-4.5,8.4-5.6,9.9c-1.9,2.8-12.8,11.3-23.8,18.7
		c-11.2,7.6-23,18.9-25.7,24.8c-3.1,6.8-2.8,9.7,1.1,10.1c1.6,0.2,3.9-0.2,5.2-0.8c4.1-2.3,4.6-0.5,0.8,3.4
		c-3.6,3.7-3.8,3.7-7.8,2.7c-5.4-1.3-12-0.4-17,2.5c-11.6,6.6-29.5,25.2-34.7,36.1c-2.5,5.3-4.2,7.2-10.2,11.6
		c-4,2.9-10.6,8.5-14.7,12.3c-4.2,3.9-10,8.9-13,11.1c-8.1,6.1-28,27.4-28,30c0,2.7,2.4,1.1,8.7-5.7c3.6-3.8,12-11.3,18.6-16.6
		c6.7-5.4,14.9-11.9,18.1-14.5c3.2-2.6,9.8-7,14.5-9.9c4.7-2.8,11.5-6.9,15-9.1c3.4-2.1,7.3-3.9,8.5-3.9s2.7-0.5,3.3-1.1
		c1.9-1.9,2.4,0.7,1.2,5.8c-0.6,2.6-1.3,5.5-1.6,6.3c-0.4,0.8-0.5,1.9-0.4,2.4c0.6,2.8-6.2,18.9-10,23.5c-2.6,3.2-3.7,6.1-2.4,6.1
		c0.3,0,1.4-0.5,2.5-1.2c1.5-1,2.2-0.9,3.9,0.6c1.1,1,2.5,1.5,3.1,1.1c2.4-1.5,5.3-9.2,5.7-15.5c0.4-4.2,1.3-7.9,2.8-10.5
		c1.6-2.8,2.4-6.4,2.8-12.3c0.6-8.1,3.3-15.2,5.8-15.2c1.4,0,1.1,2.8-0.3,3.3c-0.7,0.2-1,0.8-0.6,1.2c1.5,1.6,3.8-0.5,3.8-3.5
		c0-1.7,0.7-4.2,1.6-5.5c1.5-2.2,13.4-11.5,14.8-11.5c1.5,0,0.4,1.8-1.4,2.3c-1.1,0.3-2,1.1-2,1.9c0,1.4,8.6,1.8,10.8,0.4
		c0.7-0.4,1.6-0.5,2.1-0.1c0.5,0.3,1.7-0.2,2.5-1.1c0.9-0.8,1.6-1.1,1.6-0.5c0,0.5,1,1.3,2.3,1.7c2.4,0.8,22,0.6,35.3-0.3
		c9.7-0.6,12.1,0.3,12.6,5c0.3,2.9,0.6,3.2,4,3.5c3.3,0.3,3.7,0.6,4,3.5c0.2,1.9,0.8,3.1,1.6,2.9c1-0.2,1,0.2,0,1.8
		c-0.7,1-1.5,1.6-1.8,1.1c-0.7-1.1-6.8-1.2-7.5-0.1c-0.8,1.3,3.3,3.2,5.5,2.5c1.5-0.5,1.7-0.2,1.3,1.4c-0.3,1.1-1.1,2.6-1.9,3.2
		c-0.8,0.6-1.4,2.2-1.4,3.5c0,1.8-0.6,2.4-2,2.4c-1.8,0-2,0.4-1.5,3.4c0.8,3.9-0.6,7.2-3.5,8.1c-1.1,0.3-2,1.3-2,2.1
		c0,0.8,0.4,1.3,0.9,0.9c1.2-0.7,2.5,3.1,1.6,4.5c-0.7,1.2-1.1,3.6-2.5,16.5c-1.3,12.5-1.3,16.8,0.3,16.3c1.2-0.5,5.5-18.8,5.6-24.6
		c0.1-1.7,0.5-3.2,1-3.2c1.7,0,6.1,5,6.1,7.1c0,1.5,0.5,1.9,1.5,1.5c2.2-0.8,1.9,0.5-1,4.4c-2.5,3.3-3.3,7.4-1.7,8.4
		c1.2,0.7,11.3-13.1,12.3-16.9c1-3.6,6.9-7.1,7.7-4.7c0.2,0.7,1.8,1.2,3.5,1.2c3.6,0,16.7,4.7,18.2,6.5c0.6,0.6,2.6,1.5,4.5,1.9
		c5.7,1.1,12.5,4.9,12.2,6.7c-0.2,1.2,0.4,1.5,2.2,1.2c1.8-0.4,5.9,1.5,14.8,6.6c21.5,12.5,23.8,13.6,23.8,11.2
		c0-2.2-17.3-14.4-31.5-22.1c-10.9-6-11.5-6.5-11.3-8.5c0.3-1.7-0.3-2-3.7-2c-2.8,0-4-0.4-4.1-1.5c-0.1-0.8-0.2-2.2-0.3-3
		c-0.1-2.2-6.6-4.3-10.6-3.6c-2.1,0.4-4.2,0.2-5.5-0.6c-2.2-1.4-2.7-2.9-0.7-2.6c0.9,0.2,1.2-1.6,1.2-6.4c0-6.3,0.1-6.7,2-6.2
		c3.6,1,14.9,5.6,18.7,7.5c2.1,1.1,4.2,1.9,4.8,1.9c2.6,0-0.8-2.4-8.3-6.1c-8.2-4-11.1-5.9-8.9-5.9c0.7,0,0.9-1,0.5-3
		c-0.6-3.2,0.8-3.9,3.7-2c1.2,0.8,1.3,1.1,0.1,1.9c-1.1,0.7-1,1.3,0.5,3.6s2.3,2.6,5.1,2.2c2.8-0.5,3.3-0.3,3.3,1.4
		c0,1.1,0.7,1.9,1.6,1.9c1.2,0,1.5-0.7,1.2-2.9c-0.5-3.6,0.3-3.4,14.9,3.5c11.2,5.2,11.3,5.3,10.7,8.3c-0.6,2.7-0.4,2.9,1.5,2.4
		c1.1-0.3,2.1-0.9,2.1-1.4c0-2.4,19.5,9.8,37.2,23.3c6.5,4.9,12.2,8.7,12.8,8.3c1.6-1-5.7-9.2-15.5-17.5c-6.3-5.3-8.4-7.7-8.2-9.3
		c0.2-1.8-0.3-2.2-2.8-2.2c-3,0-14.2-7.1-13-8.3c0.3-0.3,1.5,0.4,2.8,1.6c1.3,1.2,3.1,2.2,4.1,2.2c1.5,0,1.7-0.6,1.3-3
		c-0.4-1.7-0.5-3-0.3-3c1.5,0,11.9,6.8,12.4,8.2c0.2,0.4,0.8,0.8,1.3,0.8c0.9,0,7.3,4.7,25.3,18.4c4.5,3.5,8.1,5.5,8.6,5
		c1-1-9.7-10.6-22.8-20.4c-4.8-3.6-8.7-7.2-8.7-8c0-1-1-1.5-3-1.5c-1.9-0.1-5.5-1.8-9.6-4.5c-3.7-2.5-8.6-5.6-10.9-7
		c-3.9-2.3-4-2.5-1.8-3.1c2.7-0.8,1.6-1.2-2.7-1c-3.6,0.2-12.5-5.1-12.5-7.5c0-1.3-0.3-1.4-1.3-0.5c-1.1,0.8-3.8-0.1-11.7-4l-10.2-5
		l0.6-5.2c0.5-4.3,1.3-5.8,4.6-9c2.2-2.1,4.7-4.8,5.6-6.2c1.4-2.1,1.9-2.2,4.7-1.3c1.8,0.6,3.7,1.4,4.2,1.9c0.6,0.4,3.9,1.9,7.5,3.2
		c18.6,7.2,41.4,22,66.8,43.4c7.6,6.5,17.3,13.5,17.9,13c0.2-0.3-2-2.7-4.9-5.4c-17.8-16.7-48.9-39.3-67.8-49.5
		c-5-2.7-6.4-3.9-6.2-5.4c0.5-2.3,0.2-2,2.9-2.8c1.6-0.5,2.3-0.2,2.6,1.1c0.3,1.2,0.5,0.8,0.6-1c0.1-3.4,1.2-3.4,7.3,0.3
		c2.6,1.6,5.3,3,5.8,3c0.6,0,1,0.4,1,1c0,0.5,0.7,1,1.5,1c2.4,0,15.4,7.3,27,15.1c6.1,4.1,13.3,9,16,10.9
		c11.3,7.6,30.4,22.9,39.7,31.7c12,11.3,15.2,11.5,6.1,0.3c-13.3-16.5-61.3-52-89-65.8c-2.1-1-8.3-4.2-13.8-7.1
		c-5.5-2.9-11.6-5.5-13.5-5.9c-3-0.7-3.5-1.2-3.8-3.8c-0.2-2.2,0.5-3.6,2.9-5.9c2.1-2,3.3-2.6,3.6-1.8c0.3,0.7,0.9,1.3,1.4,1.3
		c0.6,0,0.5-0.8-0.1-2c-0.9-1.7-0.6-2.5,1.5-4.6c1.4-1.3,2.5-2.9,2.5-3.4c0-0.6,0.5-1,1-1c0.6,0,1-0.6,1-1.4
		c0-2.1,15.7-17.9,17-17.1c2.8,1.7-1,8.4-8.7,15.6c-4.8,4.4-4.8,4.4-5.2,11.7c-0.4,8.8,0.6,11.2,6.7,15.3c2.3,1.6,4.5,2.9,4.7,2.9
		c1.1,0,33.7,17.8,40,21.8c3.9,2.5,9.5,6.1,12.5,8c23,14.8,43.8,34.5,64.4,61.2c6.5,8.4,9.3,10.7,10.8,9.2
		c2.4-2.4-6.3-14.4-22.1-30.6c-7.1-7.3-9.9-10.7-8.3-10.3c1.4,0.3,2.2,0.1,2.2-0.8s-0.9-1.2-2.8-0.9c-2,0.3-3.4-0.2-4.8-1.8
		c-4.8-5.3-26.9-21.5-45.4-33.4c-9.7-6.2-16-9.8-40.5-22.8c-4.9-2.7-10.3-6-11.8-7.5c-2.7-2.6-2.8-3-2.1-9.6c0.7-6.5,0.9-7,6.6-13.3
		c3.3-3.6,6.6-7.8,7.4-9.4c1.3-2.5,1.8-2.7,6.2-2.4c12.3,1.1,36.4,12.7,56.2,27.1c4.1,3,8.6,6.3,10,7.2c5.4,3.8,19.1,15.1,32,26.3
		c26.2,22.9,51.1,50.2,68.5,75.4c6.9,10,10.3,12.4,9,6.4c-2.6-11.9-25.5-41.9-49.7-65.2c-8.6-8.2-15.4-15.4-15.1-16
		c0.4-0.5,0.1-0.6-0.6-0.1c-0.8,0.4-2.7-0.6-4.9-2.7c-3.3-3.1-20.5-16.9-32.2-25.8c-7.8-5.9-12.5-10.4-12.5-11.9
		c0-1.6-10.9-7.5-30.8-16.6c-11.5-5.3-12.9-6.3-14.8-9.8c-1.1-2.2-1.8-4.1-1.6-4.4c0.7-0.6,17.9,8.7,19.8,10.6
		c0.9,1,3.8,2.5,6.5,3.6c2.7,1,5.6,2.3,6.4,2.9c1.3,0.9,1.3,0.9,0.2-0.5c-0.7-1-5-4.1-9.5-6.9c-4.5-2.9-9.4-6.1-10.8-7.1
		c-1.5-1-4.3-2.5-6.4-3.3c-2.1-0.9-6.3-3.3-9.4-5.4c-3.1-2.1-6.5-4.2-7.6-4.6c-1.3-0.6-1.6-1-0.7-1.3c0.7-0.3,3.2,0.4,5.6,1.6
		c2.4,1.1,5.6,2.3,7,2.7c1.4,0.3,2.9,1,3.2,1.5c0.3,0.5,1.3,0.9,2.3,0.9c1.8,0,13.2,5.5,24.1,11.6c5.5,3.1,10.5,6.3,22.4,14.4
		c23.7,16.1,68.9,58.3,85.9,80.1c4.1,5.3,10.7,15,14.7,21.5c7.9,12.7,10.5,14,4.5,2.2c-8.9-17.4-23.9-35.3-52.1-62.4
		c-21.5-20.6-23.8-22.6-37.9-33.6c-29.4-22.8-54.5-36.6-81.6-44.8c-7.4-2.2-14.1-4-15-4c-0.9,0-1.9-0.3-2.3-0.7
		c-0.4-0.5-1.7-0.9-2.9-1c-5.1-0.6-10.3-1.6-11.2-2.2c-0.5-0.4-3.7-0.8-7-0.9c-14.6-0.5-21-2-17.5-4.2c2-1.3,29-0.4,43,1.4
		c6.9,0.8,16.5,2,21.3,2.6c26.8,3.2,61.7,20,90.2,43.4c11.2,9.2,34.6,33,40.5,41.1c2.4,3.3,8.2,11.2,13,17.5
		c18.9,25.1,29,42.4,42.8,73.2c2.9,6.4,4.4,8,5.6,6c0.8-1.3-3.6-12.7-9.5-24.9c-5.8-11.8-24.9-40.9-35.6-54.3
		c-3.8-4.7-8-10.1-9.3-12c-15.2-22.1-50.4-54.8-75-69.5c-16.2-9.8-40.9-20-54-22.4c-3-0.5-12-1.7-20-2.6c-8-0.8-18.1-2-22.6-2.5
		c-8.9-1.1-39.1-1.3-47.1-0.4c-5.9,0.8-7,2.1-2.1,2.6c2.1,0.2,3.4,0.9,3.6,2c0.3,1.6-4.3,2.4-18.8,3.2c-2.5,0.1-5,0.5-5.5,0.8
		c-0.6,0.3-2.9,0.9-5.3,1.3c-4.6,0.7-11.7,3-22,7.1c-3.5,1.4-6.6,2.3-6.9,2c-0.7-0.7,3.5-6.9,7.9-11.7c4.1-4.5,15.8-13.7,21.8-17.1
		c11.3-6.4,36.2-14.2,54-16.9c10.7-1.7,43-1.7,53,0c27.5,4.4,56.6,14.8,78.5,27.9c34.1,20.4,61.7,44,85.4,72.9
		c10.1,12.4,23.1,31.6,23.1,34.2c0,0.4,1.7,3.9,3.8,7.7c2,3.8,5,9.8,6.6,13.4c1.6,3.6,4.1,9.2,5.7,12.5c3.3,7,12.3,31.6,13.3,36.2
		c1,4.5,3.2,6.1,5.4,4c1.4-1.5,1.5-2.4,0.3-7.9c-1.8-8.7-6.6-20.7-15-37.8c-4-8-7.7-15.4-8.3-16.4c-0.6-1.1-2.1-3.9-3.5-6.3
		c-1.3-2.4-2.3-4.9-2.1-5.5c0.4-1.2,11.6,15.7,16.3,24.7c5.5,10.5,7.5,12.8,7.5,8.8c0-2.4-10-19.9-21.1-37.2
		c-2.7-4.1-4.6-7.8-4.3-8.3c0.3-0.5,0.1-0.7-0.4-0.6c-1.5,0.4-15.3-20-15-22c0.2-0.9-0.2-1.6-0.8-1.5c-0.7,0.1-4.8-3.9-9.2-9
		c-8.5-10-40-39.7-42-39.7c-0.3,0-4.2-2.8-8.8-6.2c-37.9-28.6-66.5-41.3-112.9-50.2c-25.2-4.9-47.1-4.3-70,1.9
		c-5.5,1.5-11.1,2.9-12.4,3.2l-2.4,0.6l2.4-4.3c3.6-6.5,13.3-16.5,19.4-19.9c11.3-6.4,36.1-13.3,55.5-15.6
		c23.9-2.7,47.6-1.6,67.5,3.2c18.6,4.4,42.6,15.2,60.3,27c39.8,26.7,70.8,62.4,94.6,109.1c6.1,12.1,9.1,18.6,18.6,40.4
		c2.2,5.1,4.5,10.2,5,11.3c4.9,10.8,12.2,39.6,13.6,53.7c0.4,3.8,1,7,1.4,7.3c0.4,0.2,1.5-0.4,2.5-1.5c1.5-1.7,1.7-3,1.1-8.7
		c-1.8-18.1-6.4-34.4-17.6-62.8c-6.3-16-28.9-61.7-37.7-76.3c-21.3-35.3-62.5-72.4-100.6-90.8c-10-4.7-28.5-11.5-38.1-14
		c-3.4-0.8-6.8-1.8-7.6-2.1s-2.6-0.7-4-0.9c-1.4-0.1-8.1-0.9-15-1.8c-6.8-0.9-16.5-1.6-21.5-1.6c-15.4,0-43.4,4.5-52.7,8.5
		c-4.8,2-1.9-6.9,4.9-15.3c4.2-5.2,16.4-13.6,24.5-16.9c32.9-13.3,87.8-13.4,118.6-0.1c17.8,7.7,33.8,16.3,43.2,23.2
		c10.2,7.5,30.6,25.4,38.6,33.8c10.7,11.3,26.7,32.7,35.4,47.3c7.3,12.1,20.3,38.2,23.3,46.5c4,11.1,12,39.8,14.8,53
		c7.6,35.7,7.9,51.7,1.6,68.5c-0.9,2.2-1.1,4.1-0.7,4.3c2.3,0.8,5.5-2.6,8.6-9.1c2.8-6,3.4-8.2,3.4-14v-6.9l5.6-6.1
		c7.4-8.2,15.1-19.9,21.2-32.2c9.9-19.9,12.5-32,12.6-57.7c0.1-17.5,0.2-18.8,2.2-21c5.6-6.1,13.5-20.9,20.8-38.7
		c7.2-17.7,14.8-30.8,33.2-57.5c3-4.4,5.9-9.8,6.5-12c1.5-5.6,0.5-15.1-3.1-28.9C696.4,507.9,695,501.5,695,500z M86.2,745.1
		c-0.4-0.4-0.2-1,0.4-1.2c0.6-0.2,2-1,3-1.8c2.3-1.7,3.1-1.8,3.9-0.6C94.2,742.7,87.2,746.1,86.2,745.1z M110.5,722.3
		c-5.1,5.7-8.8,8.2-21.5,15c-2.5,1.3-5.8,3.6-7.5,5.2c-8.1,7.5-13.1,9.6-9.8,4.1c1.3-2.2,2.3-2.9,3.8-2.5c1.1,0.3,1.4,0.2,0.8-0.1
		c-2.5-1.1-1.2-3.7,5.5-10.6c8-8.4,16-14.7,22.2-17.6c5.1-2.4,12-2.9,12-1C116,715.5,113.5,718.9,110.5,722.3z M126.6,720
		c-2.3-0.9-2-2.4,0.4-2.4c1.1,0,2-0.5,2-1c0-0.6,0.5-1,1-1c0.6,0,1,0.7,1,1.5s0.7,1.5,1.5,1.5s1.5,0.4,1.5,1
		C134,720.7,129.1,721,126.6,720z M138.6,705.3c-0.3,2.1-0.6,4.6-0.7,5.5c0,1.2-0.8,1.8-2.5,1.8c-1.3,0-2.4-0.5-2.4-1
		c0-0.6,0.7-1,1.5-1c2,0,1.9-1.4-0.1-3.5c-1.5-1.5-1.5-1.7,0.1-3.5C137.5,700.2,139.3,701,138.6,705.3z M177.3,722
		c-1.3-0.4-2.3-1-2.3-1.5c0-1.5,3.7-1,5,0.6S180.8,722.9,177.3,722z M171.1,715.6c-5.3-0.7-11.5-1.2-13.8-1.1
		c-3.1,0.1-4.9-0.5-6.3-1.9c-2.4-2.4-3.6-2.5-5.8-0.3c-1.6,1.6-1.7,1.2-2.3-5.3c-0.4-4.5-0.3-7.4,0.5-8.3c0.8-1.1,0.8-1.3-0.1-0.7
		c-0.8,0.4-1.3,0.2-1.3-0.7c0-2.3,9.4-9.7,12.3-9.7c1.4,0,2.9-0.5,3.2-1c0.9-1.5,16.8-1.2,32.3,0.6c7.5,0.9,14.2,2,14.9,2.6
		c0.7,0.5,1.7,0.7,2.3,0.3c1.2-0.8,16,1.5,16,2.5c0,0.3-5.3,6.1-11.9,12.8c-10.6,11-15.1,14.3-15.1,11.1c0-0.6-0.7-0.3-1.6,0.5
		c-1.9,1.9-3.3,2-3.9,0.3c-0.4-0.8-2.1-1.1-5.1-0.8C182.8,716.7,176.4,716.3,171.1,715.6z M230.2,692.6c0.4,0,0.8,0.4,0.8,0.9
		s-1.5,2.6-3.4,4.6c-1.9,2-4.7,5.2-6.1,7.1c-1.4,1.9-3.3,3.4-4.1,3.4c-0.7,0-1.4,0.6-1.4,1.3s-3.2,4.3-7.1,8.1
		c-5.5,5.3-7.3,6.5-8,5.5c-1.3-2.1-1.2-2.3,3.4-6.6c2.3-2.2,5.9-6.2,8.1-8.7C216.2,703.5,228.7,692.6,230.2,692.6z M190.7,725.6
		c-0.3-1.2-1.4-2-2.5-2c-1.2,0-2.4-0.5-2.7-1c-0.4-0.7,1.8-0.9,6.3-0.8c6.8,0.3,6.9,0.4,7,3c0,1.9-0.4,2.8-1.4,2.8
		c-0.8,0-1.2-0.5-0.9-1c0.3-0.6-0.1-1-1-1c-0.9,0-1.3,0.4-1,1c0.3,0.5-0.3,1-1.3,1C192.1,727.6,191,726.7,190.7,725.6z M195.5,732.6
		c2.3,0,3.5,0.5,3.5,1.3c0,2.2-1,2.5-4.1,1.4C191,733.8,191.2,732.6,195.5,732.6z M194.9,766.2c-0.6,0.3-0.9,1.4-0.6,2.3
		c0.3,1.4-0.1,1.7-1.9,1.3c-1.7-0.3-2.4-1.1-2.4-2.6c0-1.3,0.3-2.6,0.7-2.9c1-1,5.3-0.8,5.3,0.2C196,765.1,195.5,765.8,194.9,766.2z
		 M200.5,754.7c-1.1-0.5-2.5-0.4-3.3,0.2c-1.9,1.5-2.5,0.2-1-2.2c1.4-2.2,2.8-2.8,2.8-1c0,0.5,0.4,0.8,0.9,0.5
		c1.4-0.9,4.1,0.4,4.1,2C204,755.8,203.4,755.8,200.5,754.7z M202.8,734.6c-1,0-1.1-3.4-0.1-4.3c1.1-1.2,3.3-0.8,3.3,0.6
		C206,732.3,204,734.6,202.8,734.6z M209.3,747c-1.5,2-3.1,3.6-3.6,3.6c-1,0,2.2-5.1,4.2-6.7C212.5,741.6,212.3,743.4,209.3,747z
		 M221.5,726.2c-1.6,0.4-3.7,1.7-4.6,2.8c-1,1.2-2,1.8-2.4,1.4c-0.4-0.4,0.8-2.5,2.6-4.7c1.9-2.2,3.7-3.5,4-2.9
		c0.4,0.6,1.3,1.4,2,1.8C224,725.2,223.5,725.7,221.5,726.2z M223.6,729.5c-0.5-0.5,7.2-9.9,8-9.9c0.3,0,0,0.8-0.6,1.7
		C229.3,724.3,224.1,730,223.6,729.5z M227.6,713.8c1.9-2.7,3.4-2.8,3.4-0.3c0,1.1-0.9,2.3-2.1,2.6
		C226.1,717,225.8,716.4,227.6,713.8z M272,758c0-2,1.4-1.8,5.6,1.1c2,1.4,4.2,2.5,4.8,2.5c0.6,0,2.7,1.4,4.6,3c4.7,4,1.6,4-3.8,0
		c-4.9-3.5-4.6-3.5-6.9-1.1c-1.6,1.6-2.1,1.7-5.2,0.4c-3.3-1.4-3.4-1.4-1.2-2.9C271,760.2,272,758.8,272,758z M248.3,743.1
		c1.7,1.5,2.4,2.5,1.5,2.2c-2.8-1-3,0.9-0.3,2.1c1.5,0.7,2.5,0.8,2.5,0.2s0.5-1,1.1-1c1.5,0,15.9,7.1,16.6,8.2
		c0.7,1.3-0.4,2.1-1.9,1.6c-0.7-0.3-1.7-0.6-2.3-0.8c-0.5-0.1-1.3-0.7-1.7-1.3c-0.6-0.9-0.8-0.9-0.8,0c0,1.6-7.9,2.8-9.3,1.4
		c-0.6-0.6-1.9-1.1-2.8-1.1c-0.9,0-2.2-0.7-2.9-1.5c-1-1.2-1-1.5,0-1.5s1-0.3,0-1.5c-1.4-1.6-5.5-2.1-4.5-0.5
		c1.3,2.1-3.3,0.9-4.9-1.3c-1.2-1.5-1.8-1.8-2.2-1c-0.8,1.8-3.9,1.6-5.4-0.2c-0.7-0.8-2-1.5-2.9-1.6c-1.2,0-1.1-0.2,0.4-0.9
		c1.1-0.5,1.6-0.9,1.2-0.9c-0.4-0.1-0.3-1,0.3-2.2c0.7-1.2,1.7-1.8,2.7-1.5c0.8,0.3,2.5,0.3,3.9,0c1.9-0.5,2.4-1.3,2.4-4
		c0-1.9-0.5-3.4-1.1-3.4c-0.5,0-0.7-0.5-0.3-1.2c0.6-0.9,0.9-0.9,1.2,0c0.2,0.7,1.3,1.2,2.3,1.2c1.4,0,1.8-0.4,1.3-1.3
		c-0.5-0.8-0.2-0.8,0.9,0.2c1.1,0.8,1.7,2.8,1.7,5.1C245,739.7,245.6,741,248.3,743.1z M246.5,727.6c-2.3,2.2-2.4,2.2-1.8,0.1
		c0.7-2.8-1.2-2.7-3.1,0.1c-1,1.4-1.6,1.7-1.6,0.9c0-3.5,6.8-6.9,8.4-4.2C248.7,724.9,247.9,726.3,246.5,727.6z M244,696.1
		c1.6-1.9,3-1.9,3-0.1c0,0.7-0.6,1.9-1.4,2.5C243.7,700.1,242.4,698,244,696.1z M253.1,717.6c-0.3,0-1.3-0.5-2.1-1
		c-1-0.6-1.1-1-0.2-1c0.6,0,1.2-0.6,1.2-1.3c0-1.4,2-3.7,3.2-3.7c0.4,0,0.8,0.4,0.8,1C256,713,253.8,717.6,253.1,717.6z
		 M273.8,707.9l2.3,1.1l-2.7,2.3c-1.5,1.3-3.1,2.3-3.6,2.3c-0.4,0-0.8,0.7-0.8,1.5c0,1.9-0.4,1.9-4.1-0.1c-2.6-1.3-2.9-1.9-2.4-4.4
		c0.3-1.6,0.2-3.1-0.4-3.5c-2-1.2-1.1-2.7,1.2-2.2c1.2,0.3,3.6,0.9,5.2,1.2C270.2,706.5,272.5,707.3,273.8,707.9z M272.9,658.4
		c-0.8-0.2-1.3,0.3-1.1,1.1c0.2,0.8-0.9,2.7-2.4,4.2c-2.7,2.9-5.2,4-3.8,1.8c0.4-0.7,0.1-1-0.7-0.7s-1.6,1.5-1.7,2.9
		c-0.4,2.7-4.9,7.9-6.9,7.9c-0.7,0-1.3,0.6-1.3,1.2c0,1.1-6.9,8.8-36.7,41.2c-5,5.4-6.6,6.7-7.6,5.7c-0.9-0.9-0.3-2,2.8-5
		c2.2-2.2,6.9-7.3,10.5-11.5c3.6-4.2,7.1-7.6,7.7-7.6c0.7,0,1.3-0.6,1.3-1.3s1.4-2.6,3.1-4.3l3-2.9l-4.3-1.8c-2.4-1-6.4-2.1-9-2.4
		c-2.7-0.3-4.8-0.9-4.8-1.2c0-0.3-2.6-0.7-5.8-0.8c-3.1-0.1-10.2-0.9-15.7-1.8c-5.5-0.8-11.4-1.5-13.2-1.5c-1.7,0-3.4-0.4-3.8-1
		c-0.3-0.5-5.7-0.7-13.5-0.3c-7.2,0.3-13,0.2-13-0.2s2.9-3.6,6.5-7.2c5.2-5.2,7-6.3,9.2-6.1c2.1,0.2,2.7-0.1,2.5-1.3
		c-0.2-1.7,3.4-4.9,10.1-8.7c3.2-1.8,4.1-2,6.3-1c2.4,1.1,2.9,1,4.9-1.6c2.2-2.7,3-3,11.7-3.6c9.9-0.7,15.8-0.6,36.3,1.1
		c20.1,1.5,33.5,3.1,33.5,3.9C277,656.9,274.3,658.7,272.9,658.4z M286.5,661c-1.5,1.9-1.5,1.9-1.5-0.2c0-1.3-0.6-2.2-1.5-2.2
		c-2.2,0-1.8-1.5,0.8-3.3c3.1-2.2,3.7-2.1,3.7,1C288,657.9,287.3,660,286.5,661z M310.4,645.1c3.6,1.5,4.5,2.8,2.6,4
		c-1.9,1.2-1,2.5,1.8,2.5c2,0,3.3,0.7,4.2,2.5c0.7,1.4,1.1,2.8,0.7,3.1c-0.3,0.4-4.6-0.8-9.4-2.6c-9.2-3.4-15.6-4.3-18.5-2.6
		c-2.8,1.7-3.5-0.4-0.8-2.5C298.4,643.7,303.9,642.4,310.4,645.1z M244.9,623.6c1.7,0,3.3,0.5,3.7,1.1c1,1.8-1.1,3.1-4,2.3
		C241,626.1,241.2,623.6,244.9,623.6z M186.9,646.4c18.9-9.7,36-12.9,66.1-12.3c15.2,0.2,20.6,0.8,30.5,2.9
		c6.6,1.4,12.4,2.6,12.8,2.6c1.9,0-0.2,2.1-6.8,6.9c-4.4,3.2-7.6,4.9-8.7,4.5c-1.5-0.4-24.9-2.5-45.8-3.9
		c-17.1-1.2-35.2-0.5-38.9,1.4c-1.1,0.6-4.3,1.6-7.3,2.2c-10.1,2.2-19.4,8.7-36.6,25.7c-14.8,14.7-20.2,18.8-27,20.7
		c-2.1,0.6-2.3,0.4-1.7-1.7c1.6-5.6,7-10.4,33.5-29.8C173.7,653.4,174.5,652.9,186.9,646.4z M686.7,493.3c2.3,3.4,4.4,10,3.7,11.8
		c-0.3,0.7-0.1,1.6,0.5,2c0.6,0.3,1.1,2.8,1.1,5.5c0,4.4-0.9,6.3-9.1,19.7c-5.1,8.1-11.5,18.8-14.4,23.8
		c-2.9,4.9-7.6,12.8-10.5,17.5c-2.9,4.7-6.1,10.1-7.2,12c-2.9,5.2-3.6,5.6-4.4,2.6c-0.5-2,0.3-4,3.5-9.2c2.3-3.6,4.1-6.8,4.1-7
		c0-0.3,1.6-3.3,3.7-6.7c2-3.4,5.3-9.1,7.3-12.7s7.7-13.5,12.6-22c9.8-17,11-19.4,9.2-18.8c-0.6,0.2-4.3,5.8-8.1,12.4
		c-3.8,6.5-7.8,13.2-8.7,14.9c-5.2,8.8-28.6,49.6-30.8,53.5c-1.4,2.5-3.9,6.7-5.7,9.5c-1.7,2.7-3.9,6.2-4.8,7.7
		c-1,1.6-2.2,2.8-2.7,2.8c-1.4,0-5-8.8-5-12.2c0-3.3,0.7-4.6,15.2-28.8c11.9-19.8,25.5-43.8,27.9-49c0.9-1.9,4.3-8.1,7.7-13.7
		c3.3-5.6,7-12,8.2-14.2C682.4,489.9,684.2,489.6,686.7,493.3z M645,593.6c0.6,0-0.2,2.2-1.7,4.9c-6.5,11.3-9.5,16.1-10.2,16.1
		c-0.4,0-1.3,1.6-2,3.5c-1.5,4.1-2.6,4.5-3.5,1c-0.5-2,0.8-4.7,6.3-13.1c3.9-5.8,7.6-11.9,8.3-13.5c1.5-3.4,1.5-3.4,3.6-1.2
		c1.6,1.6,1.6,1.6,0,1c-1-0.3-1.8-0.2-1.8,0.3C644,593.2,644.5,593.6,645,593.6z M669.9,461.6c0.4,0,2.6,1.6,4.9,3.5
		c3.2,2.8,4.3,4.6,5.3,8.9c1.3,6.1,1.8,5-13.1,32.6c-4.5,8.5-9.8,18.4-11.7,22c-6.8,12.8-19.4,34.7-24.8,43
		c-3,4.7-6.8,11.3-8.5,14.7c-1.7,3.5-3.6,6.3-4.2,6.3c-1.6,0-0.2-5.7,2.3-9.2c1.2-1.6,3.2-4.8,4.4-7.1c5.5-10.5,17.9-32.5,19.6-34.9
		c1.1-1.4,1.9-2.8,1.9-3.1c0-0.2,5.9-11.8,13-25.6c7.2-13.8,13-25.6,13-26.2c0-2.6-2.5,1.2-8,11.9c-9.7,19.1-23.8,45.2-27.9,51.7
		c-2.6,4.2-8.1,14.3-15.7,28.7c-2.5,4.9-5,8.8-5.5,8.8s-1.5-1.3-2.4-2.9c-0.8-1.7-2.9-5.1-4.6-7.6l-3.1-4.5l4.3-7.8
		c2.3-4.2,4.8-8.6,5.6-9.7s7.2-12.1,14.2-24.5C665.5,466.5,668.4,461.6,669.9,461.6z M659.4,436.1c4.6,2,7.6,6.7,7.6,12.3
		c0,4.8-4,13.3-14.4,31c-3.5,5.9-10.9,18.8-16.6,28.7c-5.6,9.9-12.3,21.4-14.8,25.5s-5.9,10.1-7.4,13.3c-1.6,3.2-3.7,7.1-4.7,8.5
		c-1.1,1.5-3.2,4.7-4.6,7.1l-2.8,4.5l-2.1-2.6c-1.1-1.4-4.7-5.8-7.9-9.6l-5.8-7.1l2.5-4c1.4-2.2,2.6-4.8,2.6-5.6
		c0-1.6,3.9-8.9,16-29.5c3.7-6.3,9.5-16.9,13-23.5c13-24.8,24.5-45,27.8-48.8C649.7,434.2,654.5,434.1,659.4,436.1z M627.6,405.6
		c1.2,0,4.1,1,6.4,2.2c4.6,2.5,9.3,9.5,10.5,15.6c0.7,3.5-2.1,10.2-10.5,25.2c-1.7,3-6.2,11.1-9.9,18c-9.9,18-11.9,21.7-16.1,29
		c-2.1,3.6-5.4,9.6-7.5,13.5c-8.4,15.9-17.8,31.5-18.9,31.5c-0.7,0-2.3-1.1-3.5-2.4l-2.3-2.4l3.6-5.6c2-3.1,3.6-6,3.6-6.5
		c0-1.1-2.5-2.1-5.1-2.1c-1.1,0-3.2-0.8-4.7-1.7c-2.4-1.6-2.5-1.6-1.4-0.1c0.7,0.9,2.9,2.4,4.8,3.3l3.5,1.6l-2.3,4.1
		c-1.3,2.3-2.7,4.3-3.3,4.5c-1.6,0.4-18.5-16.3-18.5-18.4c0-1.8,6.2-12.3,18.6-31.8c3.2-5,12.6-20.3,21-34.1
		C619.1,410.1,622.4,405.6,627.6,405.6z M591.9,391.3c3.5-3.2,4.8-3.7,8.9-3.7c2.9,0,5.9,0.8,8,2c3.5,2.2,7.1,8.7,7.2,13
		c0,2.9-0.8,4.4-8,16c-2.9,4.7-7.8,12.8-11,18c-20.2,33.5-45.7,73-47.2,73c-2,0-25.8-16.7-25.8-18.1c0-0.4,3-5.5,6.7-11.1
		c3.6-5.7,8.9-13.9,11.8-18.3C567.9,422.5,586,396.6,591.9,391.3z M558.1,380c3.5-3.2,10-6.3,13.2-6.4c1.5,0,4.3,0.6,6.1,1.4
		c3.9,1.6,8.6,7.4,8.6,10.5c0,2.6-2.4,7.3-5.6,11.1c-2,2.5-5.4,7.1-14.3,20c-7.7,11.1-30.4,45.5-34.6,52.5
		c-2.2,3.7-5.6,8.9-7.5,11.5c-1.9,2.7-4,5.6-4.6,6.7c-1.1,1.7-1.3,1.7-4-0.3c-1.6-1.1-8-4.7-14.1-7.9c-6.2-3.3-11.3-6.3-11.3-6.8
		s2.6-3.9,5.8-7.5c7.4-8.5,15.2-19.3,33.5-46.4C543.3,397.6,553.1,384.5,558.1,380z M538.7,369c3.4,0.3,8.5,1.5,11.3,2.7
		s5,2.8,5,3.6c0,0.8-2.7,4.5-6.1,8.1c-3.4,3.7-10,12.3-14.7,19.2c-4.7,6.9-12.4,18.1-17.1,25c-4.7,6.9-11,15.9-14.1,20.1
		c-9.6,13.2-22,25.7-22,22.3c0-0.4,2.4-3.2,5.3-6.3c4.9-5.3,18.5-23.9,29-39.6c10.3-15.5,13.7-20.2,27.4-37.8
		c5.2-6.7,3.8-6.8-2.1-0.1c-7.2,8.1-10.1,11.9-23.6,31.4c-14.5,21-31.3,43.3-34.5,45.8c-1.4,1.1-2.5,2.7-2.5,3.6
		c0,0.9-0.3,1.6-0.7,1.6c-2,0-17.3-5.5-17.3-6.3c0-0.5,3.4-4.5,7.6-9c13.2-14.3,20.7-25.1,37.5-53.7
		C523,372.3,527.3,368.1,538.7,369z M454.9,460.6c-1.1,0-1.9-0.3-1.9-0.8c0-0.4,3.6-4.3,8.1-8.7c11.7-11.6,27.9-32.2,34.2-43.6
		c3.6-6.6,6.1-10.1,6.5-9.1c0.2,0.6-2.2,5.5-5.4,10.9c-6.5,11.2-13.5,21.1-20.8,29.8C463.3,453.7,456.6,460.6,454.9,460.6z
		 M495.5,380.9l10-10.3h5.1c3.4,0,5.6,0.5,6.4,1.5c1.8,2.1,0,5.3-7.2,13.1c-3.2,3.4-5.8,6.7-5.8,7.4s-1,2-2.2,3
		c-1.3,1-5.9,7.1-10.3,13.6c-12.2,18.2-18.5,26.3-30.4,38.6l-10.9,11.3l-8.6-0.5c-4.7-0.4-8.9-0.9-9.2-1.3c-0.4-0.4,2.9-4.2,7.2-8.4
		c13.2-12.8,27.4-30.1,38.9-47.3C482.4,395.7,489.9,386.6,495.5,380.9z M424.6,438.3c10.2-10.6,20.5-22.8,29.9-35.2
		c14.9-19.7,18-23.2,23-25.8c4.1-2.2,11.5-2.2,11.5-0.1c0,1.9-5.9,9.4-7.5,9.4c-1.7,0-10.1,9.2-22.1,24
		c-12.9,16-14.9,18.3-27.6,31.5c-5.4,5.6-9.8,10.4-9.8,10.8s0.6,0.7,1.4,0.7c1.5,0,22.6-22.7,36.7-39.5
		c13.5-16.1,16.9-19.9,16.9-18.8c0,0.6-0.7,1.6-1.5,2.3s-1.5,1.7-1.5,2.2c0,2.7-22.8,30.6-36.8,44.9l-10.4,10.7l-8.9,0.1
		c-4.9,0-8.9-0.2-8.9-0.5C409,454.7,416,447.2,424.6,438.3z M632.4,674.6c0,11.3-0.5,17.2-1.8,22c-5.9,21.9-19.4,49-29,57.9
		c-3.1,2.9-2.8,3.5-5.1-12.4c-2.3-16.8-6.8-36.2-13.2-57.4c-8-26.8-30.1-68.8-49.1-93.4c-19.9-25.8-58.1-55.6-89.9-70.1
		c-22-10-40.7-14.8-63-16.3c-9.4-0.6-11.3-2.3-2.5-2.3c46.7,0.1,110.6,32.3,154.5,77.9c4.9,5.1,9.1,9,9.4,8.7c0.8-0.8-0.8-3-8.1-11
		c-29.8-33.2-86.5-67-125.6-74.9c-25.4-5.1-57.4-5-77.6,0.3c-8.1,2.1-13.4,4.5-13.4,6.1c0,0.6,0.6,0.9,1.3,0.7
		c2-0.8,11.9-3.9,15.2-4.8c4-1.2,18.8-3,24.2-3c8.6,0,4,1.7-7.9,2.9c-6.7,0.7-16.5,2.4-21.7,3.8c-5.3,1.5-10.6,2.6-11.9,2.6
		c-1.3-0.1-4.8,1.4-7.9,3.3c-3.1,1.9-6.3,3.4-7,3.4c-2.1,0,1.9-7.9,8.5-16.7c9.7-12.8,26.8-24.9,40.7-28.7c2.8-0.7,8.2-2.6,12-4.1
		c22.3-8.6,21.5-8.4,38.5-7.9c8.5,0.3,22.3,1.4,30.5,2.5c8.3,1.1,16.6,2.4,18.5,2.9c1.9,0.5,7.6,1.9,12.5,3.1
		c6.3,1.5,14.2,4.7,26,10.5c24.6,12,29.9,15.4,51,32.3c24,19.3,50.7,49,63.5,70.6c6.2,10.7,16.2,32.7,18.5,41c0.8,2.7,2.8,9,4.4,14
		C631.8,653,632.5,658,632.4,674.6z M681.5,562.1c-5.9,8.8-13.1,20.7-16.1,26.5c-2.9,5.8-7.8,14.3-10.8,19
		c-6.8,10.6-14.6,26.1-14.6,29.2c0,2.6-3.5,7.6-4.5,6.6c-0.4-0.4-1.8-4.4-3.1-8.9l-2.4-8.2l2.1-3.3c1.1-1.9,2.6-3.7,3.2-4.1
		c1.3-0.9,1.4-1,8.3-12.8c2.6-4.4,6.8-11.4,9.4-15.5c2.6-4.1,7.3-11.8,10.5-17s7.3-11.8,9-14.5c6.2-9.6,14.5-23.3,14.5-23.8
		c0-1.6,7.4-12.6,8.1-12.1c0.5,0.3,0.9,3.8,0.9,7.7C696,540.1,695,542.2,681.5,562.1z"/>
	<path d="M570.5,397.9c-12,16.8-56.5,83.7-56.5,84.9c0,2.7,4.8-4,26.1-36c12.6-18.8,25.3-37.8,28.3-42.1
		c8.6-12.2,11.6-16.8,11.6-17.5C580,385.2,577.6,387.9,570.5,397.9z"/>
	<path d="M605,411.6c-2.3,4.1-7.5,12.7-11.5,19S583,447.5,579,454.1s-11.3,18.5-16.2,26.3c-4.9,7.9-8.7,14.7-8.3,15
		c0.3,0.3,1.3-0.5,2.3-1.9c6.5-9.2,47.3-75.3,51.3-83.1C611.8,403.1,609.4,404.1,605,411.6z"/>
	<path d="M545,494.5c0,0.5,1.7,2,3.8,3.2c4.9,3.1,5.2,3.2,5.2,2c0-1-6.8-6.1-8.2-6.1C545.3,493.6,545,494,545,494.5z"/>
	<path d="M634.7,430.8c-3.6,6-15.3,27-23.2,41.8c-4.8,9.1-10.2,19.2-12,22.5s-5.2,9.6-7.5,14c-2.3,4.4-4.7,8.4-5.1,9
		c-1.2,1.2-1.1,3.8,0,3c1.4-0.8,10.8-17,18.3-31.5c10.4-19.9,21.9-41.3,23.9-44.2c1.1-1.4,1.9-2.8,1.9-3.1c0-0.3,1.6-3.3,3.5-6.7
		c1.9-3.4,3.5-6.4,3.5-6.6C638,427.7,635.8,428.9,634.7,430.8z"/>
	<path d="M657.7,455.9c-4.4,7.5-18.5,32.7-32.7,58.7c-3.2,5.8-8.5,15.2-11.8,21s-7,12.4-8.2,14.7c-1.4,2.8-2.8,4.3-4.1,4.3
		c-2.3,0-2.5,1.8-0.3,2.7c2,0.7,5.3-3.2,9.5-11.2c1.7-3.3,4.6-8.5,6.4-11.5s8-14.1,13.8-24.5c5.8-10.5,12.3-22.2,14.5-26
		c4.8-8.5,19.2-35.6,19.2-36.1C664,446.1,661.7,449,657.7,455.9z"/>
	<path d="M435,470.5c0,0.6,0.9,1.1,2.1,1.1c6,0,36.1,8.4,48.2,13.5c0.9,0.4,1.7,0.3,1.7-0.3c0-1.5-13.2-6.7-26.7-10.6
		C447.4,470.5,435,468.7,435,470.5z"/>
	<path d="M341.5,488.5c-7.9,2-31.7,16.9-28.6,17.9c0.7,0.2,2.7-1,4.4-2.6c3.4-3.3,21.3-12.5,26.5-13.7c1.8-0.3,3.2-1.1,3.2-1.6
		C347,487.5,345.8,487.5,341.5,488.5z"/>
	<path d="M534,521.4c0,1.5,13.6,15.9,14.4,15.1c0.3-0.3-2.7-4.1-6.8-8.5C537.4,523.7,534.1,520.7,534,521.4z"/>
	<path d="M557.1,543.4c0.6,1.6,13.3,16.1,14.2,16.1c1.7,0.2,0.4-1.9-5.2-8.4C560.5,544.6,556.3,541,557.1,543.4z"/>
	<path d="M600,595.1c0,0.3,2.4,5.4,5.4,11.3c6.9,13.5,9.1,19.2,12,30.6c3.3,12.6,4,21.6,2.6,31.7c-1.1,7.1-4.5,19.2-7.5,26.1
		c-0.4,1-0.3,1.8,0.3,1.8c1.3,0,5.7-10.2,7.7-17.9c5.2-20.2,2.1-41.8-9.3-65.1c-2.5-5.2-4.8-10.2-5.1-11
		C604.4,598.2,600,592.7,600,595.1z"/>
	<path d="M549,600.4c0,0.6,1.3,2.6,2.8,4.4c20.8,23.9,41.7,64.5,48.6,94c0.6,2.7,2.6,4,2.6,1.7c0-1.6-4.6-18.6-6.3-23.4
		c-5-14-14.8-33.8-23.2-47C564.6,616.1,549,597.2,549,600.4z"/>
	<path d="M147.7,693.2c-1.5,2-1.6,2.4-0.3,2.4c1.7,0,4-3.6,2.9-4.3C149.8,691,148.7,691.9,147.7,693.2z"/>
	<path d="M888.7,23.8c-4.4,2-13,7.1-19.2,11.2s-15.3,10.3-20.4,13.7c-5.1,3.4-11.2,7.8-13.6,9.8s-10.6,6.7-18.2,10.4
		c-18.3,8.9-21.5,11.4-30,22.8c-3.9,5.3-8.6,11-10.4,12.7c-3.2,3.1-3.4,3.1-6.1,1.3c-4.3-2.9-14.8-3.4-22.8-1.1
		c-8.3,2.3-11.2,3.8-20.9,10.3l-7.4,5l-14.5,0.6c-21,0.7-28.9,3.3-39.4,13.4c-4.4,4.1-8.9,7.8-10.1,8.3c-1.2,0.4-6,1.2-10.6,1.8
		c-10.6,1.2-15.9,4-25.2,13l-7.4,7.2l-6.9-0.7c-11.5-1.1-21.2,2.3-28.2,9.9c-5.8,6.2-9.1,12.7-14.1,28.1
		c-2.5,7.5-7.4,20.4-10.9,28.6c-8.3,19.6-15.3,41.3-20.8,65.2c-8.1,34.7-16.7,62.9-21,68.2c-0.7,0.8-2.7,1.4-4.6,1.4
		c-5.5,0-10.4,1.9-14.3,5.4c-3.4,3-4.1,3.2-7.1,2c-2.7-1.1-3.9-0.9-7.4,0.9c-2.2,1.2-19.6,17.9-38.5,37.1
		c-18.9,19.2-36.2,36-38.3,37.3c-2.2,1.3-5.7,2.3-8.2,2.3c-11.2,0-26.3,3.6-46.5,11.2c-12.3,4.5-37.8,19.8-52.2,31.3
		c-5.1,4.1-5.7,5-5.7,8.9l-0.1,4.3l4.2-3.9c2.2-2.1,5.3-4.7,6.8-5.9c45.3-31.4,65.2-38.3,110.6-38.6c21.8-0.1,29,0.8,50.4,6
		c27.9,6.8,40.2,12.4,78.8,35.3c24.7,14.7,55.1,43.5,67.7,64c9.5,15.6,23,48.7,24.7,60.8c0.4,2.8,1.5,8.2,2.5,12.2
		c2.6,11,2.1,46.4-0.8,46.4c-0.4,0-1.2-5.3-1.5-11.9c-0.4-6.5-1.6-18.3-3-26.3c-1.2-8-2.3-15.7-2.5-17.1c-0.1-1.5-0.5-3.2-0.9-3.8
		c-0.3-0.7-1.2-3.8-2.1-7c-0.8-3.1-1.8-5.7-2.3-5.7c-1.2,0-1.2-0.4,1.2,11.4c6.9,32.6,7.9,55.5,3.7,81.9c-1.1,7.1,2.2,4.3,4.1-3.4
		c1.1-4.5,2.3-7,3.7-7.6c6.5-3,10.2-22.4,8.5-44.6l-1-12.7l5.7-8.8c8.3-12.9,17.8-30.2,25.5-45.8c3.7-7.6,10.4-19.3,14.9-26
		c13.7-20.3,14.2-21.3,14.7-28.7c0.2-4.1-0.4-10.5-1.9-16.9c-1.3-5.6-2.1-10.7-1.8-11.3s0.1-1.9-0.4-3s-1.6-4.9-2.3-8.4
		c-1.1-5.7-1.1-6.7,0.7-8.6c4.4-5,14.5-11.5,37.1-24.1c26.2-14.7,51.6-31.3,63.2-41.3c8.9-7.6,21.7-22.2,29.8-33.8
		c5.5-7.8,10.8-13.6,36.6-38.3c10.6-10.2,24.4-27.5,27.1-34.1c0.9-2.1,2.3-9.4,3.2-16.2c2.6-19.1,4.5-24,17.8-46
		c6.8-11.3,8.9-19.1,7-26.5c-1.8-6.6-7-11.7-14.6-13.9c-17.1-5.2-33.6,1.9-55.3,23.3c-8.2,8.1-14.6,18.2-16.9,27.1
		c-1.6,6.3-2.5,7.2-13.7,13c-4.8,2.5-10.3,5.7-12.2,7.3c-5.9,4.4-6.5,4.1-6-4c0.1-4,1.2-12.2,2.4-18.2c1.1-6.1,2.7-16,3.6-22.1
		c3.3-21.7,9.1-41.3,16.7-55.8c15.9-29.9,19.8-37.3,21.7-40.2c1.2-1.8,6.6-6.5,12-10.6c5.4-4.1,15.5-12.8,22.6-19.4
		c7-6.6,16.7-15.8,21.8-20.3c10.4-9.4,18.8-21.4,21.5-30.8c2.2-7.2,1.5-19.1-1.2-24.4C915.2,19,902.5,17.4,888.7,23.8z M911.9,27.8
		c3.4,3.3,1.3,9.5-4.5,13.6l-4.5,3.3l-7.6-2.3c-4.1-1.2-10.3-2.5-13.7-3c-3.5-0.3-6.3-1.1-6.3-1.7s1.8-2,3.8-3.3
		C894.8,24.7,906.5,22.3,911.9,27.8z M916.9,43.7c0,2.5-0.5,6.4-1.2,8.5c-2.3,6.8-10.5,18-19.4,26.4c-32.3,30.6-45.6,42-49,42
		c-1.5,0-4.5,3.3-6.8,7.6c-1.1,1.8-4.1,7-6.7,11.4s-8.2,14-12.5,21.3s-9.4,15.2-11.4,17.6c-3.9,4.7-4.6,6.8-1.9,5.7
		c2.3-0.9,1.8,2.2-2.6,14.8c-1.8,5.2-4.5,17.6-6.1,27.6c-3.9,24.1-3.9,24.3-5.1,24.3c-0.5,0-1-2-1-4.4c0-4.5-1.6-6.1-2.5-2.5
		c-0.3,1.1-1.4,8.5-2.5,16.5c-1.6,12.6-1.6,15.1-0.3,19.3c2,6.1,5.1,8,11.9,7c2.7-0.3,5.6-1.2,6.3-1.8c0.8-0.7,3.2-0.9,5.6-0.4
		c8.3,1.3,10.7-1.9,2.8-3.9c-5.5-1.4-5.8-2-3-4.6c2.7-2.5,24.3-12.9,26.7-12.9c2.4,0,10.1-7.3,8.5-8.3c-0.5-0.3-0.8-1.3-0.3-2.2
		c0.8-2.3-0.3-2.1-4.4,1c-4.2,3.1-7.1,4.2-7.8,3c-1.4-2.3,14.9-27.7,17.8-27.7c0.5,0,4.1-2.9,7.9-6.5c8.2-7.5,17.8-13,24.3-13.8
		c18.1-2.2,18.8-1.8,9.9,6.5c-7.4,6.7-12.4,15.4-12.4,21.4c0,2.7,1.4,6.3,4.4,11.2c5,8.2,5.4,11.8,2.5,22.1
		c-1.4,5.5-2.3,6.8-4.6,7.4c-2.2,0.6-3.2,0-5.5-3.1c-4.6-6.2-13.2-14.9-13.2-13.5c0,0.8,1.4,3,3.1,5c8.4,9.9,12.4,18.2,13.9,29.2
		c0.7,4.9,0.3,6.5-2.1,11.4c-1.6,3.1-3.3,5.6-3.8,5.6c-0.4,0-1.2-2.3-1.5-5.3c-0.3-2.9-1.9-7.8-3.4-10.9c-1.5-3.2-2.8-6.2-2.8-6.6
		c-0.1-1.5-6.5-8.6-6.6-7.2c0,0.8,1.2,3.8,2.6,6.6c1.4,2.9,3.4,7.8,4.3,11c2.1,6.8,1.3,9.4-4.5,16c-4.6,5.3-3.6,6.8,1.2,2.1
		c4.8-4.6,6.7-4.6,5.7,0c-1.1,5-13.7,18.8-26.4,29.1c-10.7,8.8-18.1,17-32,35.9c-9.7,13.3-19.9,22.6-41.3,37.9
		c-17.4,12.5-23.3,16-47.6,28.6c-10.5,5.4-21.3,11.8-24.1,14c-8.5,7.2-9.1,7.4-12.8,4.7c-2.5-1.8-3.4-3.6-4.6-9.2
		c-0.8-3.9-2.3-8.7-3.4-10.9c-2.5-5-10.2-12.2-13-12.2c-2.3,0-3.4-2.1-3.4-6.2c0-4-3.7-10.7-8.1-14.6c-3.6-3.2-6.6-4.2-14.3-4.9
		c-2.7-0.3-3.5-1.1-5.1-5.7c-2.3-6.5-5.5-10.3-11.3-12.9c-4.9-2.3-9.5-2.7-12.6-1c-1.8,0.9-2.5,0.2-5.4-4.9c-1.8-3.3-4.9-7-7-8.3
		c-4.4-2.7-11.9-3.1-16.3-0.8c-2.7,1.4-3.1,1.3-6.9-2.7c-6.2-6.5-15.9-8.4-24.6-4.9c-3.9,1.5-4.7,1.7-6.3,0.2
		c-1-0.9-4.8-2.3-8.3-3.1c-5.7-1.3-7.2-1.3-13.6,0.3c-3.9,1.1-7.3,1.8-7.6,1.5c-0.2-0.2,1.4-4.3,3.5-8.9c4.3-9.3,9.3-24.7,12.7-39.3
		c7.4-31.8,11.4-46.6,15.7-58.8c8-22.8,10.7-29.6,11.8-29.6c0.5,0,0.8,0.9,0.4,1.9c-0.3,1.1-1.1,6-1.8,10.8
		c-0.7,4.9-3.3,17.6-5.9,28.2c-7.7,30.5-15.9,62.6-16.6,64.5c-0.3,1-0.2,1.8,0.3,1.8c0.9,0,2.8-5.7,8.6-25.4
		c6.7-22.5,17.7-71.5,20.1-88.9c2.1-16,10-37.9,16.2-45.6c2.2-2.7,5.8-5.7,8.2-7.1c8.1-4.1,20.5-3.8,20.5,0.7c0,0.9-1,3.6-2.2,6.3
		c-2.2,5.1-3,15.4-1.1,15.4c0.7,0,1.1-1,1.1-2.2c0-2,3.6-9.4,11.1-22.6c6.8-12.3,17.5-19.2,30.8-20.2c6.1-0.4,7.4-0.2,7.4,1.1
		c0,2.2-3.2,5-6.8,5.9c-1.8,0.4-3.1,1.2-3.1,1.8c0,1.3,0.5,1.2,5.7-0.3c3.5-1,4.9-2.4,8.2-8c5.5-9.3,9.6-13.6,17.2-17.5
		c7.1-3.6,23.2-7,28.8-5.9c5.7,1,5,2-5.4,8.8c-2.3,1.5-6.6,2.9-10.4,3.3c-3.5,0.4-8.5,2-11.3,3.4c-9.6,4.9-19.8,22.4-21.5,36.9
		c-1,8.7,0.9,8.6,3.3-0.2c4.4-15.8,12.7-28.2,21.8-32.4c5-2.4,6.6-2.5,16.3-2c7.9,0.4,10.7,0.3,10.7-0.7c0-0.7-1.4-1.5-3.3-2
		c-1.8-0.3-3.3-1-3.3-1.4c0-0.6,3.4-3.2,7.4-6c4.1-2.7,9.6-6.8,12.4-9.3c2.7-2.4,8.1-6.2,12-8.3c6-3.3,7.9-3.9,11.7-3.3
		c3.1,0.4,4.6,0.2,4.6-0.7c0-0.7-1-1.2-2.2-1.2c-1.2,0-2.2-0.6-2.2-1.1c0-1.8,15.7-1.3,20.1,0.6l4.1,1.8l-2.3,3
		c-1.3,1.7-6.5,8.7-11.5,15.7c-13.6,18.7-13.2,18.4-18.3,20.1c-2.8,0.9-4.7,2.1-4.7,3.1c0,1.3,1.8,1.7,9.7,1.4
		c5.3,0,10.2-0.7,10.8-1.3c0.9-0.9,0.2-1.2-2.3-1.2c-2,0-3.5-0.2-3.5-0.6c0-0.4,4.9-7.5,11.8-16.6c1.3-1.9,6.2-8.5,10.9-14.8
		c4.6-6.3,12.9-17.6,18.3-24.9l9.9-13.4l16.5-8.3c9.1-4.5,19-9.9,22.1-11.9c9.1-6,18.8-6,32.8-0.1l4.6,2v-2.4c0-2-0.2-2.1-1.1-0.8
		c-0.5,0.9-1.1,1.1-1.1,0.4c0-2.5-8.8-6.1-16.4-6.7c-4.2-0.3-7.7-1-7.7-1.4c0-1.4,18.8-10.7,23.2-11.5c4.9-0.9,12.5,0.8,20.1,4.4
		l5.8,2.8l5.1-2.2c2.8-1.3,6.2-3.5,7.7-5.1C915.7,37.6,916.9,38.2,916.9,43.7z M907.2,211.1c2.8,1.5,5.4,6.8,5.4,11.3
		c0,4.5-2.4,9.7-9.7,21.7c-3.1,5.1-5.6,9.6-5.6,10.2c0,2-2.2,2.2-3,0.3c-0.4-1.1-2.8-5-5.5-8.6c-5.4-7.5-5.9-11-2.4-17.7
		c2.6-5.2,10-13.1,14.7-16.1C904.9,209.7,904.4,209.7,907.2,211.1z M509.8,371.4c2.1,1.1,2.1,1.2-0.3,4.5c-1.4,1.9-4.7,6.7-7.4,10.7
		c-10.9,16-16.2,23.4-26.7,37.4c-6.1,8.1-13.5,17.9-16.4,21.9c-5,6.8-5.6,7.3-8.8,6.5c-1.9-0.4-5-1.1-7.1-1.5
		c-2.1-0.3-3.9-1.2-4.2-1.9c-0.2-0.7,1.9-4.2,4.6-7.7c2.7-3.6,12.8-17,22.4-29.7c29.2-38.8,31.6-41.3,38.6-41.4
		C506.3,370.2,508.6,370.8,509.8,371.4z M536.9,371.8c6.2,3.3,6.2,4.3,0.4,12.2c-2.8,4-10,14-15.7,22.3s-13.6,19.3-17.4,24.6
		c-3.8,5.2-10.2,14.2-14,20.1c-7.9,12-6.3,11.5-20,6.8c-4.4-1.4-6.1-2.7-6.3-4.2c-0.2-1.4,6.2-11.7,18.2-28.7
		c35-50.4,34.4-49.5,39.6-52.2C527.3,369.9,532.5,369.5,536.9,371.8z M568.9,375c2.8,1.5,4.9,3.5,5.1,4.9c0.2,1.2-1.8,4.9-4.6,8.7
		c-5.1,6.8-30.1,39.8-46.4,61.1c-5.3,6.8-10.6,14.1-11.8,16c-4.5,6.6-4.8,6.6-14,2.2c-4.6-2.2-8.3-4.4-8.3-4.9
		c0-1.3,13.1-20.2,40.9-58.9c9.1-12.7,17.4-24.3,18.4-25.8C552.3,372,560.7,370.6,568.9,375z M482.3,380.1c0,0.7-2.2,3.9-4.9,7.3
		c-2.7,3.3-5.8,7.4-6.8,9.1c-1.1,1.7-7.1,9.8-13.5,18.2c-18.5,24.5-21.8,28.8-21.8,29.9c-0.2,2.2-3.6,4.9-5.7,4.3
		c-1.1-0.3-2.1-1-2.1-1.5c0-0.4,3.8-5.5,8.5-11c13.6-16.2,26.5-32.4,26.5-33.4c0-2-2.1,0-8.6,7.8c-10.9,13.5-23.2,27.7-28.2,33
		c-3.9,4.1-5.3,4.7-9,4.7c-3.2,0-4.5-0.4-4.5-1.5c0-0.9,14.7-16.6,32.6-34.8c23.5-24.1,33.2-33.2,35-33.2
		C481.2,379,482.3,379.6,482.3,380.1z M598.8,383.6c4.7,4.2,5.9,9.2,3.5,14.5c-1,2-7.2,10.8-13.8,19.7c-6.7,8.8-14.5,19.4-17.4,23.7
		c-3,4.2-7,9.8-9,12.3c-2.1,2.5-8.4,11.2-14.1,19.1c-9.4,13.3-10.6,14.5-13.1,13.9c-1.5-0.4-3-0.9-3.1-1.1c-0.2-0.2,2.5-4.3,6-9.1
		c8.2-10.8,18.9-25.6,46.1-63.3c3.7-5.2,8.5-11.7,10.7-14.7c2.3-3,3.3-5.2,2.4-5.2c-1.5,0.1-12.6,14.2-29.9,38.1
		c-5.7,7.8-15.5,21.3-21.7,29.8c-6.2,8.5-12.3,17.1-13.4,19c-1.2,2-2.5,3.6-3,3.6c-1.1,0-13.2-6.7-15.3-8.5c-1.2-1.1-1.5-2.1-0.8-3
		c0.5-0.7,3.3-4.4,6.1-8.4c3-4,8.2-10.9,11.9-15.7c3.6-4.6,14.8-19.2,24.6-32.5c9.9-13.1,20.5-26.6,23.5-29.9
		c5.3-5.4,6.1-5.9,10.7-5.9C594,380.1,595.7,380.8,598.8,383.6z M625.3,397.4c3,2,8.1,11.5,8.1,15c0,3.4-11.8,21.3-39.3,59.3
		c-12.6,17.6-13.8,18.8-16.4,18.1c-1.5-0.3-3-0.8-3.2-0.9c-0.7-0.6,10-14.9,10.9-14.9c0.4,0,0.9-0.6,0.9-1.2c0-0.8,3.6-6.3,7.9-12.5
		c18.2-25.5,30.8-44.8,29.9-45.7c-0.9-0.9-2.8,1.7-12.8,16.3c-4.3,6.4-13.8,20-21,30.2c-7.3,10.2-15.1,21.1-17.3,24.2
		c-2.2,3.1-5.4,6.7-7.1,8.2c-2.3,1.9-2.7,2.8-1.8,3.8c1,1.1,2.2,0.4,5.4-2.7c2.3-2.2,4.8-3.8,5.7-3.4c0.8,0.3,2,0.6,2.5,0.6
		c1,0-3.7,8.8-7.4,13.9c-2.2,2.9-2.6,3.1-4.8,1.8c-1.3-0.9-4.2-2.5-6.3-3.8c-6.8-3.9-17.6-12.3-17.6-13.7c0-0.8,0.7-1.9,1.5-2.3
		c2.5-1.5,12.6-13.7,19.8-24.1c11.7-16.7,30.3-42.6,37.4-52.1c3.7-5,7.3-10.1,8-11.3C611,394.6,619,393.3,625.3,397.4z M652.6,420
		c3.9,3.9,5.9,8.9,5.9,15.6c0,3.2-2,7-10.3,19.6c-10.1,15.1-23.5,33.7-27.7,38.2c-1.2,1.2-2.6,3-3.2,4c-0.8,1.3-1.4,1.4-3.4,0.4
		c-2.4-1.2-2.4-1.2-0.3-4.5c2.4-3.5,6.2-8.7,18.6-25.4c12.3-16.3,18.9-26.6,18.4-28.1c-0.2-0.8-4.5,4.3-9.6,11.2
		c-5,7-12.4,16.9-16.2,22.2c-3.9,5.4-7.6,9.7-8.1,9.7c-0.4,0-0.9,0.6-0.9,1.3c0,2.2-9.1,13.6-9.6,12c-0.2-0.8,0.2-1.9,1-2.4
		c1.2-0.8,1.1-1-0.3-1c-1.1,0-2,0.8-2,1.7s-0.5,1.7-1.1,1.7c-0.8,0-0.8,0.8,0,2.2c1.6,3-3.4,10.1-6.9,9.6c-2.2-0.2-2.4,0.2-2.1,4.2
		c0.2,3.1,1.1,5.2,3.1,7c3,2.7,2.8,3.1-1.4,7.7c-1.2,1.2-1.4,1.2-1.4-0.1c0-2-4.6-1.9-5.3,0c-0.3,1.3,1.1,1.9,3.4,1.5
		c1.2-0.2,0.9,1.9-0.4,2.8c-0.7,0.3-3.3-1.7-5.9-4.6c-4.5-5-6.2-8.1-3.9-6.6c1.1,0.8,2.5-2.1,1.5-3.1c-1.3-1.3-4.6-0.7-4.9,0.9
		c-0.2,1.2-1.2,0.9-4.1-1.4l-3.7-3.1l2.5-3.4c1.8-2.4,3.3-3.3,4.5-3c1.1,0.3,2.2,0.1,2.6-0.6c0.3-0.6-0.1-1.1-1-1.1
		c-2.3,0-2.2-0.7,0.5-4.5c2.3-3.3,5.1-4.1,7.2-2c0.9,0.9,1.9,0.9,3.5,0c2.6-1.4,2.5-1.1,1.2-7.8c-1-5.5-2.3-3.3,22.4-38.7
		c5.4-7.6,12.3-17.8,15.4-22.6c9.6-14.8,8.9-14.1,13.9-13.5C647.5,416.3,650.2,417.6,652.6,420z M670.8,445
		c3.9,4.4,6.5,10.1,7.1,16.3c0.5,5.5,0.4,5.9-6.9,16.6c-4.1,6.1-10.4,15.4-13.9,20.8c-3.6,5.3-8,11-9.6,12.8s-3.3,4.1-3.6,5.2
		c-1.3,4-5,7.5-6.3,6.2c-1.8-1.8,0.4-6.4,5.7-12.4c2.4-2.8,4.4-5.4,4.4-5.9c0-0.4,2.7-4.6,6-9.1c3.3-4.5,6-8.5,6-8.8
		c0-0.3,2.1-3.9,4.5-7.8c5.1-8.1,5-11,0-3.6c-18.4,26.8-27.9,40.4-28.9,41.3c-0.8,0.7-1.8,2-2.4,2.9c-2.5,4-5.6,8.4-7.9,11.3
		l-2.5,3.2l-0.1-3.2c-0.1-2.2-0.4-1.7-1.2,2.1c-0.7,3-1.5,5.3-2.1,5.3s-1,0.6-1,1.2s-1,2.7-2.3,4.5c-2.8,4-1.9,5.4,1.5,2.3
		c1.3-1.2,3.2-2.5,4.2-2.9c1-0.3,2.1-2,2.4-3.8c1-4.4,2.3-6.1,4.4-5.2c2.4,0.9,2.3,1.5-0.8,5c-1.4,1.5-3.2,3.9-3.8,5.2
		c-0.7,1.3-2.1,2.4-3,2.4c-0.9,0-1.3,0.4-1,1.1c0.3,0.6,0.5,1.1,0.3,1.1c-4.4,0.6-9.2,1.4-9.4,1.7c-0.2,0.2,0.7,1.4,1.9,2.7
		c1.3,1.3,2.3,2.8,2.3,3.4c0,2.5-2.4,0.8-7.7-5.6c-4.3-5.2-5.5-7.4-4.9-9.2c0.9-3,0.9-3.9,0-8c-0.7-2.9,0-4.3,4.6-10.5
		c3-3.9,10.2-13.8,16-22c5.9-8.2,14.1-19.7,18.3-25.4c4.2-5.7,11.2-15.8,15.5-22.4c4.5-6.6,8.8-11.8,9.7-11.8
		C667.2,442,669.3,443.3,670.8,445z M685.9,480.2c1.2,3.5,1,4.5-2.3,11c-2,4-4.2,7.5-5,7.8c-0.8,0.3-1.4,1.4-1.4,2.5
		c0,1.2-0.5,2.4-1.2,2.8c-0.5,0.4-1.6,2.1-2.2,3.6c-1.1,2.8-1.3,2.9-2.5,1c-0.8-1-2.6-1.9-4.1-1.9c-3.6,0-5.6-3.3-3.9-6.3
		c2.4-4.2,12-18.6,15.3-22.8C682.2,473.4,683.8,473.8,685.9,480.2z M591.8,489.2c-0.1,0.6-1.3,2.3-2.7,4.2c-2.1,2.4-2.7,2.9-2.7,1.4
		c0-1.1,1.1-2.9,2.4-4.2C591.3,488.2,591.8,488,591.8,489.2z M691,491.3c0.8,3-2,10.5-5.1,14.2c-1.1,1.2-4.1,5.4-6.7,9.4
		c-2.6,4-5.5,7.2-6.3,7.2c-1,0-1.6,1.1-1.8,2.9c-0.1,3.2-3.4,8.7-5.3,8.7c-1.4,0-2.1-4.6-0.8-5.5c0.5-0.3,2-2.7,3.3-5.3
		c1.3-2.5,2.7-4.6,3.2-4.6s1.5-1.8,2.3-3.9c0.8-2.1,2.4-5.2,3.7-7c1.4-1.7,3.2-4.5,4.1-6.3c3.2-6.7,6.8-12.7,7.8-12.7
		C689.9,488.4,690.6,489.7,691,491.3z M664,508.5c1.2,1.3,2.2,3.1,2.2,3.9c0,0.8,0.5,1.4,1.1,1.4c1.9,0,1.2,2.8-2.1,8.1
		c-2.7,4.2-3.8,5.1-6.3,4.9c-2.8-0.2-3.1,0-3.1,4.2c0,5.1-2.8,10.9-6,12.7c-1.2,0.7-2.2,2.2-2.2,3.5c0,3.3-5.5,11-7.3,10.4
		c-0.9-0.4-1.4,0.2-1.4,1.9c0,1.3-1,3.6-2.2,5.2c-1.2,1.5-2.2,3.2-2.2,3.9c-0.2,3.1-3.4,5.4-7.1,5.2c-3.6-0.3-3.8-0.1-3.2,2.5
		c1.3,5.5-2.3,1.8-4.9-5l-2.6-6.7l3.1-3.2c2.4-2.5,3.5-3,4.6-2.1c2.6,2.3,4.4,0.2,4.9-5.9c0.5-6.4,3.5-11.8,6.6-11.9
		c1.1,0,1.6-0.7,1.2-2c-0.2-1.2,2.3-5.7,7-12.2c4.1-5.5,9.2-12.6,11.3-15.7c2.1-3,4.4-5.5,5.1-5.5
		C661.2,506.1,662.7,507.2,664,508.5z M694.1,517.6c0,7.7-0.2,8.3-4.5,14c-2.5,3.3-6.7,9.9-9.3,14.7c-2.6,4.9-6.2,10.4-8.1,12.4
		c-1.8,2-3.4,4.3-3.6,5.1c-0.2,0.8-0.9,2-1.6,2.5c-0.8,0.7-1.4,1.9-1.6,2.8c-0.4,2.2-3.5,5.3-3.5,3.6c0-0.8,0.5-1.7,1.1-2
		c2.4-1.5,0.9-2.5-2.2-1.5c-3.7,1.3-4.1,2.3-1.5,4.9c1,0.9,1.4,2.4,1.1,3.3c-0.8,2.2-2.8,2.1-2.8-0.1c0-0.9-0.5-1.3-1.2-0.9
		c-0.7,0.3-0.9,2.2-0.5,4.2c0.5,2.7,0,4.4-1.8,6.8c-3.3,4.4-8.5,9.6-11.3,11.3c-1.2,0.7-1.5,1.3-0.8,1.3c1.9,0,1.6,2.8-0.3,4.4
		c-1,0.8-2.5,3.1-3.4,5.1c-1,2.1-2.1,3.8-2.5,3.8c-0.4,0-1.9-3.6-3.1-8c-2.6-8.8-2.1-10.8,2.6-10.8c2.4,0,2.6-0.3,2.1-3.1
		c-0.5-2.2,0-3.8,2.1-6.2c1.5-1.8,2.7-3.8,2.8-4.4c0-0.7,2.7-5,5.9-9.5c5.5-7.6,19.3-27.8,33.2-48.3c3.2-4.9,6.5-8.5,7.2-8.3
		c1.1,0.2,1.4-0.4,1-2c-0.3-1.2,0-3,0.8-3.9C692.8,505.9,694.1,508.9,694.1,517.6z M607.1,512.6c-1.8,2.3-3.4,3.2-5.5,3.2
		c-1.6-0.1-3.6,0.3-4.4,0.8c-1,0.7-1.2,0.4-0.5-0.7c2.2-3.9,4.2-5.4,5.5-4.3c1,0.8,2.2,0.6,3.9-1
		C609.6,507.7,610.1,508.5,607.1,512.6z M637.2,524.9c1.2,2-3.9,7.7-6.8,7.5c-2.8-0.3-3.4-1.8-0.9-2.7c0.9-0.4,1.6-1.3,1.6-2
		C631.2,524.7,635.8,522.5,637.2,524.9z M664.5,534.9c0.4,0.4-0.7,2.3-2.5,4.3c-3.2,3.4-3.4,3.4-3.4,1.2c0-2.7,3.5-8.1,4.4-7
		C663.3,533.9,663.9,534.6,664.5,534.9z M657.9,546.4c-0.7,1.7-4.6,3.3-5.6,2.3c-1.1-1,2-4,4.2-4
		C657.8,544.7,658.2,545.3,657.9,546.4z M652.4,553.8c-0.4,0.8-2,3-3.4,4.9c-1.4,1.9-2.5,3.8-2.5,4.2c0,0.4-1.6,3.1-3.5,6
		c-2,2.8-3.9,5.6-4.4,6.2c-0.5,0.8-1.2,0.8-2.1-0.1c-1-1-0.7-2.1,1.4-5c1.5-2,3.6-5.4,4.7-7.5c2.4-4.7,7.1-9.9,9.1-9.9
		C652.6,552.5,652.9,553,652.4,553.8z M635.6,578.4c0,1.9-5.4,8.2-5.5,6.3c0-1.5-3.3-1.9-3.3-0.2c0,0.6,0.5,1.1,1.1,1.1
		c0.7,0,1.1,1,1.1,2.2c0,3.5-1.6,2.5-3.2-1.8c-1.1-3.2-1.2-4.2-0.1-4.9c0.8-0.4,1-1.4,0.7-2.1c-0.4-0.7-0.1-1.2,0.9-1.2
		c0.9,0,1.9,0.7,2.2,1.3c0.4,1,1.1,0.7,2.4-1C633.7,575.7,635.6,575.8,635.6,578.4z M662.7,582.3c-1.1,3.4-2.7,5.1-3.8,4.1
		c-0.5-0.7,3.7-7.4,4.6-7.4C663.7,579,663.4,580.5,662.7,582.3z M658.1,590.8c-0.3,1.1-1.8,3.2-3.1,4.7c-1.4,1.5-3.2,4.1-4.1,5.7
		c-1.3,2.7-4.5,4.3-4.5,2.5c0-0.9,2.6-5.3,4.2-7c0.8-0.9,2.6-3.2,4.3-5.3C657.9,587.6,659.2,587.3,658.1,590.8z M645.4,607.7
		c0,3-5.7,13.3-7.3,13.3c-2.1,0-1.8-5.5,0.5-7.6c1-1,2.5-3.1,3.4-4.9C643.9,604.9,645.4,604.6,645.4,607.7z"/>
	<path d="M796.2,88.5c0,0.7,6.4,3.2,8.4,3.2c1.8,0,0.2-1.9-2.1-2.4c-1.6-0.4-3.6-0.9-4.5-1.2C797,87.8,796.2,88,796.2,88.5z"/>
	<path d="M785.9,92.4c-1.5,1.4-0.6,2.5,1.6,1.9c2.1-0.5,9.1,0.3,17.2,2c2.2,0.4,2.7,0.3,1.9-0.5c-0.5-0.6-4.5-1.8-8.8-2.6
		C789.2,91.5,786.9,91.4,785.9,92.4z"/>
	<path d="M794.2,97.4c0,0.5,2,1.4,4.5,2.1c2.5,0.7,6.3,2.3,8.5,3.7c4.8,3.1,5.9,3.2,3.4,0.4C807.1,99.7,794.2,94.8,794.2,97.4z"/>
	<path d="M788.2,101.4c0,1.4,3.4,2.3,8.5,2.3c5.6,0,3.2-1.9-3.3-2.7C790.1,100.6,788.2,100.8,788.2,101.4z"/>
	<path d="M714,166.3c-2.5,1.4-6.7,4.7-9.2,7.3c-3.7,4-5,6.6-7.6,14.7c-3.6,11.6-4.9,19.4-3.1,19.4s4.8-7.5,6.6-16.5
		c0.9-4.4,2.7-9.8,4-12.1c2.3-4,8.7-9.9,13.3-12.3c2.1-1.1,3.1-3.2,1.5-3C719,163.8,716.6,164.9,714,166.3z"/>
	<path d="M679.6,178.9c-4.5,4.1-7,7.6-6.1,8.4c1.5,1.5,15.2-10,14.1-11.8C686.5,173.8,684,174.8,679.6,178.9z"/>
	<path d="M593.7,179.5c-3,1.6-4.4,2.8-3.4,3c1.9,0.3,8.9-3.5,8.9-4.9C599.2,176.5,599.6,176.3,593.7,179.5z"/>
	<path d="M732.7,194.3c-7,5.3-13.2,11.1-14.7,13.8c-1,1.9-1,1.9,1.3,0c1.3-1,6.6-5.2,11.7-9.3c8.3-6.6,10.7-9.2,8.5-9.1
		C739,189.7,736,191.8,732.7,194.3z"/>
	<path d="M596.6,202.3c-3.5,7.8-4,9.4-2.5,9.4c0.6,0,4.5-7.8,7.8-15.8c0.3-0.6,0-1.2-0.6-1.2C600.6,194.7,598.5,198.1,596.6,202.3z"
		/>
	<path d="M643.4,200.9c-0.5,0.7-2.4,4.7-4.2,8.8c-1.8,4.1-4.6,10.2-6.2,13.5c-3.7,7.5-18.8,41.1-18.8,41.9c0,0.3,0.4,0.6,1,0.6
		c1,0,8-14,13.4-27.3c1.9-4.5,6.2-13.9,9.5-20.9c5.7-12,7.9-17.8,6.8-17.8C644.7,199.7,644,200.3,643.4,200.9z"/>
	<path d="M684.4,216.9c-0.6,0.6-1.2,1.6-1.2,2c0,0.4-2.7,5.3-6,10.9c-3.3,5.6-5.9,10.4-5.6,10.6c0.8,0.9,7.5-8.5,11-15.5
		C686.2,217.7,687,214.3,684.4,216.9z"/>
	<path d="M633.3,240.5c-1.3,2.5-1.4,4.2-0.2,4.2c1,0,2.5-5,1.7-5.7C634.6,238.7,633.9,239.4,633.3,240.5z"/>
	<path d="M755.2,273.1c0,1.3,1.7,4.2,4,6.7c4.7,5.2,5.2,3.8,1-2.4c-1.6-2.5-3-5-3-5.6c0-0.6-0.4-1.1-1-1.1
		C755.7,270.7,755.2,271.8,755.2,273.1z"/>
	<path d="M784.2,280.2c-1.9,0.7-4.8,1.4-6.5,1.4c-3.3,0.1-11.6,3.8-15.5,7c-4.6,3.6-1.3,3.2,6.4-0.9c4.2-2.2,8.7-4,9.9-4
		c2.6,0,10.7-3.2,10.7-4.3C789.2,278.5,788.4,278.6,784.2,280.2z"/>
	<path d="M824.4,319.7c-1.8,1.6-3.2,3.5-3.2,4.2c0,0.7,1.7-0.4,3.7-2.4C829.3,317,828.9,315.5,824.4,319.7z"/>
	<path d="M799.2,340.8c-1.3,1.9-5.5,6.7-9.4,10.6c-3.8,4-6.3,7.3-5.5,7.3c1.6,0,12.4-10.7,15.8-15.8c1.3-1.8,2.1-3.8,1.9-4.4
		C801.8,337.9,800.5,338.9,799.2,340.8z"/>
	<path d="M763.2,377c-4.7,3.5-10.1,7.2-12,8.4c-1.9,1.1-6.4,3.8-10,6c-6.7,4.1-19.4,11-36,19.6c-10.8,5.5-13.4,7.5-7.3,5.3
		c3.8-1.3,18.2-8.6,33.3-16.9c19.9-10.8,45.6-28.7,41.3-28.7C772,370.7,767.8,373.5,763.2,377z"/>
	<path d="M686.9,420.2c-2,1.4-3.7,3-3.7,3.6c0,1.1,7.5-2.8,9.2-4.8C694.2,416.7,691,417.5,686.9,420.2z"/>
	<path d="M499.3,371.3c-2.9,3.1-6.6,7.7-8.3,10.3c-1.8,2.5-7,9.8-11.7,16.1c-4.6,6.3-9.8,13.4-11.5,15.8c-1.7,2.4-4.2,5.7-5.6,7.4
		c-1.3,1.7-2,2.9-1.4,2.7c2.7-1.1,18.7-21.3,30.8-38.9c2.4-3.6,6.5-9,9-12c4.1-4.9,5.4-7,4.2-7C504.6,365.7,502.1,368.2,499.3,371.3
		z"/>
	<path d="M529.2,370.4c-4.1,5.4-9.7,12.9-12.5,16.8c-2.7,3.9-6.4,8.9-8.1,11.1c-1.7,2.1-4.3,5.9-5.8,8.4s-5.4,8.3-8.6,13
		c-3.3,4.6-6,8.8-6,9.2c0,2.9,2.5-0.3,19.5-24.6c1.7-2.3,6-8.3,9.6-13.2c10.2-13.8,18.5-25.7,19.8-28.2
		C539.7,358,536.3,361.2,529.2,370.4z"/>
	<path d="M554.7,374.9c-2.7,3.9-9.6,13.4-15.2,20.9c-5.6,7.6-10.9,15-11.7,16.6c-3.8,6.7-14.4,20.9-16.5,21.9
		c-2.3,1.2-2.3,1.2-0.2,1.9c1.5,0.5,2.7-0.1,4.6-2.2c1.3-1.5,2.5-3.1,2.5-3.4c0-0.4,2.6-4,5.7-8c8.8-11.4,37.2-52.7,37.3-54.2
		C561.2,366.4,559.2,368.4,554.7,374.9z"/>
	<path d="M340.3,527.9c-4.6,0.6-8.3,1.3-8.3,1.6c0,0.3,10.9,0.6,24.2,0.6c26.6,0,33.2,0.9,49.9,6.6c9.7,3.3,9.9,3.3,9.9,1.9
		c0-3-24.6-9.4-42.2-11C360.6,526.5,351.7,526.5,340.3,527.9z"/>
	<path d="M318,541.1c-7.4,0.8-15.4,1.9-17.7,2.5c-2.3,0.5-5.6,1-7.2,1c-1.7,0-3.1,0.4-3.1,1c0,1.1,4.5,0.8,25.5-1.5
		c26.9-2.8,56.1-1,77.9,5c9.3,2.6,28.2,10.2,36.5,14.7c4.2,2.2,9,4.8,10.6,5.6c5.1,2.6,27.5,18.2,37,25.8c5,4,13.9,12.2,20,18.3
		c6,6.1,11.3,11.1,11.8,11.1c1.8,0-6.1-9.5-14.8-17.8c-11.8-11.4-20-17.8-37-29.4c-22.8-15.4-29.7-19-54.7-28.3
		C382.4,541.4,347.3,538.1,318,541.1z"/>
	<path d="M438,544.4c0,0.4,3.5,2.5,7.8,4.6c22.7,11.1,36.2,20.5,53,36.9c7.9,7.6,14.6,13.6,15,13.2c0.4-0.3-5.8-7.1-13.8-14.9
		c-16.5-16.3-28.9-25.2-48.5-34.7C439.2,543.5,438,543,438,544.4z"/>
	<path d="M307,561.6c0,0.6,5.3,1,13.8,1c18.3,0,28.3,1.2,47.1,5.6c15.6,3.7,40.4,14,55.5,23.1c17.4,10.4,47.5,37.7,62.9,57
		c5.8,7.4,7.4,8.9,8.4,8c1.9-2-32.3-38.3-49.2-52.2c-19.3-15.8-41.9-27.8-67-35.4c-15.5-4.7-15.2-4.6-28.4-6.5
		C338.2,560.4,307,560,307,561.6z"/>
	<path d="M282.5,578.3c-12.3,1-30.5,5.6-30.5,7.6c0,0.5,1,0.6,2.3,0.3c4.9-1.5,19.8-4.5,22.4-4.6c1.5,0,6.2-0.3,10.3-0.6
		c17.9-1.4,55.2,4.1,75.7,11.2c19.2,6.6,44.7,19.9,65.8,34.2c15.1,10.3,17.6,12.2,27.5,20.1c23.5,18.8,37.9,33.6,55.8,57.5
		c19.5,26.1,34.9,50.7,43.2,68.8c3.9,8.6,6,11.7,6,9c0-1.5-5-13.3-9.2-21.6c-9.3-18.7-34.6-55.5-53-77.3
		c-11.8-14-34.7-34.9-50.7-46.3c-4.1-2.9-10.7-7.7-14.7-10.6c-4-3-7.5-5.4-7.8-5.4c-0.3,0-3.8-2.1-7.8-4.7
		c-10.3-6.6-38.4-20.4-50.3-24.6C340.3,581.6,305.8,576.3,282.5,578.3z"/>
	<path d="M519.3,470.4c0.8,0.9,4.6,3.6,8.4,6.1c3.9,2.5,12.1,9.4,18.4,15.4c11.7,11.2,15.2,13.4,8.5,5.4
		c-7.4-8.9-29.5-26.6-33.1-26.6c-0.7,0-1.3-0.5-1.3-1c0-0.6-0.5-1-1.1-1C518.3,468.7,518.4,469.3,519.3,470.4z"/>
	<path d="M266.5,607.1c-0.5,0.2-6.5,0.9-13.3,1.4c-12.5,1-24.2,3.6-24.2,5.3c0,0.6,0.8,0.7,1.8,0.3c0.9-0.4,6.2-1.4,11.7-2.3
		c11-1.7,55.5-2.3,67.8-0.9c9.4,1.1,8.5-0.8-1-2.2C301.1,607.6,268.2,606.3,266.5,607.1z"/>
	<path d="M338,612.3c0,0.5,2.6,1.7,5.8,2.7c13.7,4.3,35.9,15.8,52.2,27c9.3,6.5,13.8,8.5,10.9,5c-0.7-0.9-3.8-3.3-6.9-5.3
		c-3-2.1-7.6-5.2-10.2-6.9C375,624.6,338,608.6,338,612.3z"/>
	<path d="M522,637.7c0,1.1,3.5,7.6,12.7,23.8c11.6,20.2,29.2,58.3,33.7,72.9c0.8,2.6,2.6,8.5,4.1,13.2c2.5,8.1,7.2,28.6,8.2,36
		c0.5,3.5,3.7,9,4.7,8c0.2-0.3-0.2-3.2-1.1-6.5c-0.8-3.3-2.5-11.4-3.8-18c-1.9-10.3-8.1-31.7-10.5-36.6c-0.5-0.9-2.7-6.5-5.1-12.5
		c-2.3-6-7.3-17.4-11.1-25.2c-3.7-7.9-6.8-14.5-6.8-14.7c0-0.9-24.1-41.5-24.6-41.5C522.2,636.6,522,637.1,522,637.7z"/>
	<path d="M425,659.8c18.2,14.6,40.6,35.9,52.9,50.3c7,8.2,19.6,24.7,28.1,36.7c3.1,4.4,5,6,5,4c0-3.4-23.8-34.7-37.2-49.1
		c-17.3-18.4-36.5-35.8-47.1-42.4C419.1,654.4,418.5,654.6,425,659.8z"/>
	<path d="M334,685.4c0,0.5,2.4,2.2,5.3,3.7c6.2,3.4,18.6,10.7,24.2,14.3c2.2,1.5,7.6,6.2,12,10.7c4.5,4.4,13.9,13,21,19.2
		c7.2,6.1,22.4,19.9,33.9,30.7c11.5,10.8,21.2,19.3,21.5,19.1c1.4-1.5-48.7-48.8-68.9-65c-3.4-2.8-6.9-6.3-7.8-7.8
		c-2.3-3.8-14.1-12-28.3-19.5C334.9,684.4,334,684,334,685.4z"/>
	<path d="M372.1,685.3c0,0.7,27.8,19.3,30,20.1c0.5,0.2,0.9,0,0.9-0.5c0-0.8-5.1-4.6-19.9-14.6C375.2,685,371.9,683.5,372.1,685.3z"
		/>
	<path d="M258.4,721.1c-0.9,2.3,0,2.7,4.1,1.9c3.9-0.7,3.7-1.8-0.8-2.8C259.7,719.7,258.8,720,258.4,721.1z"/>
	<path d="M108.4,736.1c-0.7,1.7,0.4,3.7,1.7,3c1.2-0.8,1.2-4.5-0.1-4.5C109.4,734.6,108.7,735.3,108.4,736.1z"/>
	<path d="M103.5,748.4c0.9,1,16.5,2.2,50,3.9c6.1,0.3,11.2,0.8,11.5,1.2c0.3,0.3,4.4,0.6,9.1,0.6c6.5,0,8.5-0.3,8.2-1.3
		c-0.3-0.6-1.8-1.2-3.3-1.2c-1.6,0-3.1-0.4-3.4-0.9s-2.6-0.6-5.1-0.3c-2.6,0.2-5,0-5.8-0.7C162.8,748.2,102.1,746.9,103.5,748.4z"/>
	<path d="M83,764.3c0,0.6-0.9,0.9-2,0.6c-2.6-0.7-2.6,1.3-0.1,2.7c1.6,0.8,2.1,0.6,2.6-1.1c0.4-1.1,0.4-2.3,0.1-2.6
		C83.3,763.5,83,763.7,83,764.3z"/>
	<path d="M255.5,768.6c-1,1.6,0.4,3,3.1,3c2.6,0,3.1-0.9,1.2-2.8C258.3,767.3,256.3,767.2,255.5,768.6z"/>
</g>
<ellipse id="pointer_invisible" class="st9" cx="901.3" cy="48.9" rx="11.2" ry="9.9"/>
</svg>
