<?xml version="1.0" encoding="UTF-8"?><svg id="Layer_2" xmlns="http://www.w3.org/2000/svg" xmlns:xlink="http://www.w3.org/1999/xlink" viewBox="0 0 113.65 119.58"><defs><radialGradient id="radial-gradient" cx="52.77" cy="70.49" fx="52.77" fy="70.49" r="35.53" gradientTransform="translate(4.73 -34.01) rotate(11.51) scale(.89 1) skewX(2.62)" gradientUnits="userSpaceOnUse"><stop offset="0" stop-color="#046e23"/><stop offset="1" stop-color="#00333a" stop-opacity=".5"/></radialGradient></defs><g id="Layer_2-2"><g id="laugh"><g id="laugh-2"><g id="screen"><path d="M112.65,29.27s-4.56,26.53-12.92,53.61l-22.74,1.33-2.13,7.84-17.34,1.43s-46.77-15.81-51.75-18.49C.78,72.32,15.73,7.89,17.7,1c0,0,50.77,3.39,58.46,6.95,7.7,3.55,29.14,15.53,36.47,21.32h0Z" style="fill:none; stroke:#cdedf9; stroke-linecap:round; stroke-linejoin:round; stroke-width:2px;"/><path d="M79.08,12.84s-13.57,59.43-21.54,77" style="fill:none; stroke:#cdedf9; stroke-linecap:round; stroke-linejoin:round; stroke-width:2px;"/><path id="face" d="M73.31,13.32s-12.41,50.4-20.61,73.87c0,0-30.29-7.49-43.16-16.07,0,0-3.63-19.93,12.52-65.27,0,0,24.92-2.54,51.26,7.46h0Z" style="fill:url(#radial-gradient); stroke:#cdedf9; stroke-linecap:round; stroke-linejoin:round; stroke-width:2px;"/></g><g id="leg-2"><path d="M45.26,90.36s2.61,13.49,8.76,28.22c0,0,6.18-1.64,6.02-3.55s-4.09-8.91-10.52-24.09" style="fill:none; stroke:#cdedf9; stroke-linecap:round; stroke-linejoin:round; stroke-width:2px;"/><path d="M41.51,90.03s4.07,21.77,6.95,26.75l5.55,1.79" style="fill:none; stroke:#cdedf9; stroke-linecap:round; stroke-linejoin:round; stroke-width:2px;"/></g><g id="leg-1"><path d="M30.26,84.1s1.82,11.35,8,26.08c0,0,6.2-1.65,6.04-3.55s-3.42-5.88-9.85-21.06" style="fill:none; stroke:#cdedf9; stroke-linecap:round; stroke-linejoin:round; stroke-width:2px;"/><path d="M26.53,82.7s3.27,20.7,6.16,25.69l5.57,1.79" style="fill:none; stroke:#cdedf9; stroke-linecap:round; stroke-linejoin:round; stroke-width:2px;"/></g></g></g><path d="M28.49,14.37c.42-.75,1.3-1.22,2.16-1.14.62.06,1.18.37,1.7.7.89.58,1.71,1.25,2.53,1.93.47.38.93.77,1.35,1.21.44.47.82,1.01,1.26,1.47.77.81,1.74,1.4,2.69,1.98.19.12.4.24.62.22.37-.03.59-.54.37-.84" style="fill:none; stroke:#cdedf9; stroke-linecap:round; stroke-linejoin:round; stroke-width:2px;"/><line x1="24.94" y1="21.5" x2="41.26" y2="23.35" style="fill:none; stroke:#cdedf9; stroke-linecap:round; stroke-linejoin:round; stroke-width:2px;"/><path d="M50.78,23.35s7.05-.74,10.88,1.42" style="fill:none; stroke:#cdedf9; stroke-linecap:round; stroke-linejoin:round; stroke-width:2px;"/><path d="M51.71,21.5s6.74-.62,10.39-3.03" style="fill:none; stroke:#cdedf9; stroke-linecap:round; stroke-linejoin:round; stroke-width:2px;"/><path d="M29.7,40.54v-3.34s10.45-1.55,22.01,5.56" style="fill:none; stroke:#cdedf9; stroke-linecap:round; stroke-linejoin:round; stroke-width:2px;"/><ellipse cx="26.17" cy="24" rx="3.93" ry="1.42" transform="translate(-9.31 25.54) rotate(-45)" style="fill:#cdedf9;"/><ellipse cx="50.78" cy="25.38" rx="3.93" ry="1.42" transform="translate(-3.07 43.34) rotate(-45)" style="fill:#cdedf9;"/><path d="M79.87,52.33s6.6,3.3,4.95,7.99-13.07,6.47-13.07,6.47c0,0-5.71,3.17-2.41,8.37,0,0-.53,3.82,7.73,3.37,3.45-.19,0-4.34,0-4.34,10.64,2.39,14.88-3.26,14.88-3.26,11.62-16.62-9.01-25.6-9.01-25.6" style="fill:none; stroke:#cdedf9; stroke-linecap:round; stroke-linejoin:round; stroke-width:2px;"/><path d="M91.85,44.62s10.15,7.63,9.26,15.17-2.23,11.72-4.6,13.63-9.03,1.37-9.03,1.37c0,0,4.19,2.03,1.14,3.04s-11.56.71-11.56.71" style="fill:none; stroke:#cdedf9; stroke-linecap:round; stroke-linejoin:round; stroke-width:2px;"/><path d="M10.49,28.33s-18.14.1-4.26,27.67" style="fill:none; stroke:#cdedf9; stroke-linecap:round; stroke-linejoin:round; stroke-width:2px;"/></g></svg>