<?xml version="1.0" encoding="utf-8"?>
<!-- Generator: Adobe Illustrator 30.3.0, SVG Export Plug-In . SVG Version: 9.03 Build 0)  -->
<svg version="1.0" id="Layer_1" xmlns="http://www.w3.org/2000/svg" xmlns:xlink="http://www.w3.org/1999/xlink" x="0px" y="0px"
	 viewBox="0 0 499.8 730.9" style="enable-background:new 0 0 499.8 730.9;" xml:space="preserve">
<path d="M25,28.6c-0.8,0.9-1.1,70.6-1.1,242.2c0,132.5,0,283.6-0.1,335.8c0,68.1,0.3,95.2,1.1,96s62.8,1.1,225.1,1.1
	c198,0,224.1-0.2,224.9-1.5c1.5-2.4,1.2-370.3-0.3-369.3c-0.9,0.5-0.9,0.3-0.1-0.8c1.8-2.1,1.8-189.3,0.1-188.3
	c-0.9,0.5-0.9,0.4,0.1-0.7c0.6-0.7,1.2-2.4,1.2-3.8c0-2.1-0.2-2.3-1-1.1c-0.8,1.3-1,1.2-1-0.3c0-0.9,0.4-1.7,1-1.7
	c1.2,0,1.1-12.1-0.1-13.7c-0.7-0.7-0.6-1.4,0-1.8c1.6-0.9,1.4-85-0.2-87.6c-1-1.6-0.9-2.1,0.2-2.8c0.7-0.5,1-1.4,0.7-2
	c-1.1-1.6-72.4-1.5-74.5,0.2c-1.2,0.9-1.3,0.9-0.7-0.1c0.6-0.9-1.9-1.2-10.9-1.2c-7.1,0-11.4,0.4-11,1c0.3,0.5-2.1,1.1-5.7,1.3
	c-5.1,0.2-4.5,0.4,3,0.5c6.9,0.2,9.1-0.1,8.6-1c-0.4-0.6,0.2-0.5,1.3,0.3c1.6,1.1,5.6,1.3,19.2,1.1c10.6-0.2,16.9-0.7,16.6-1.2
	c-0.4-0.6-0.1-1,0.4-1c0.6,0,1.1,0.4,1.1,1c0,0.5,0.7,1,1.5,1c0.8,0,1.5-0.5,1.5-1c0-0.6,0.5-1,1.1-1c0.5,0,0.7,0.4,0.4,1
	c-0.3,0.6,0.5,1,1.9,1c1.3,0,2.7-0.6,2.9-1.3c0.4-1,0.6-1,0.6,0c0.1,0.7,1.2,1.3,2.6,1.3s2.5-0.6,2.5-1.3c0-0.9,0.3-0.9,0.9,0.1
	c0.6,1.1,4.6,1.4,17.5,1.3H473l-0.1,15.2c0,11.9-0.1,89-0.1,116.2c0,2.7,0,34.2,0,70c0,35.7,0.1,74.4,0.1,86
	c-0.1,64.9,0,66.6,1.3,65.9c0.8-0.5,0.8-0.2-0.2,0.9c-1.1,1.4-1.4,16.7-1.6,88.3c-0.2,47.6-0.5,86.8-0.8,87
	c-0.2,0.2-1.9-5.3-3.7-12.3c-6.8-26.2-14.2-43.7-24.1-56.7c-12.8-17-39.6-32.4-96.2-55.5c-12.3-4.9-21.2-9.2-23.3-11
	c-1.9-1.7-5.2-4.1-7.3-5.3l-3.9-2.2l-1.2-11.1c-0.6-6-1.2-11.9-1.2-13c-0.1-1.1,1.6-4.7,3.6-8c6.1-10,10.5-26.5,12.1-46.2
	c0.7-7.5,0.9-8.2,2.6-7.3c3,1.7,7.3,1.1,11-1.4c3.8-2.6,4.2-3.3,10.9-18.6c2.3-5.2,5.2-11.8,6.6-14.7c4.2-8.9,5.7-16.7,4.9-25.1
	c-1.4-14.9-8.4-24.2-18.1-24.2c-2.5,0-2.6-0.2-1.9-4.3c0.3-2.3,2-8.3,3.6-13.2c5.6-17.4,6.6-39.6,2.4-56c-1.3-5.4-3.1-10.8-4-12.1
	c-2.2-3.4-1.9-3.8,1.4-1.5c3.3,2.4,6.1,2.7,6.1,0.8c0-3.1-6.3-13.6-11.8-19.7c-6-6.6-13-11.2-18.8-12.4c-2.9-0.6-3.2-1.2-4.3-6.2
	c-1.4-7-6.7-17.2-13.1-25.2c-7-8.5-8.2-8.4-5.5,0.4c0.8,2.7,1.5,5.3,1.5,5.8c0,0.4-2.6-1.6-5.7-4.5c-10-9.1-22.2-16.2-38.4-22.5
	c-10.4-4-28.5-8.8-30.5-8c-2.4,0.9-1.5,3,2.7,6c2.2,1.5,3.8,3,3.5,3.3s-3.6-0.1-7.3-0.8c-19.8-4-46.8,0.5-71.4,11.9
	c-15.7,7.2-21.8,12.2-18.9,15.7c1.2,1.5,1,1.6-8.2,6.8c-9.8,5.6-18.8,17-22.8,29c-1.9,6-2,7.1-0.8,8.3c1.2,1.2,2.1,1.2,6.3-0.1
	c2.8-0.8,5.1-1.5,5.2-1.5c0,0-1.4,3.5-3.2,7.8c-4.7,11.2-7.7,24.3-7.3,32.2c0.3,6.4,0.3,6.5,3.1,6.3c2.4-0.2,2.7,0.2,2.7,2.9
	c0,5.1,3.9,22.3,6.9,30.5c2.3,6.5,2.9,10,3.5,20.8c0.7,14.6,0.6,79-0.1,96.3c-1.2,29.1,11.2,59.7,33.3,82c5.8,5.8,6.9,7.4,5.6,7.9
	c-4.8,1.7-15.3,6.2-29.2,12.6c-43,19.6-58,30-70.9,49l-3.2,4.7l-3.2-2.2c-1.8-1.2-5.5-4.1-8.4-6.5c-2.8-2.4-5.9-4.3-6.8-4.3
	c-1.5,0-1.7,0.7-1.1,5.2c0.4,2.9,1,6.4,1.3,7.7l0.6,2.4l-5.2-2.9c-4.6-2.6-5.1-3.2-5.1-6.4c0-2.6-0.3-3.1-1-2c-0.6,0.9-1,1-1,0.3
	c0-0.6,0.5-1.5,1-1.8c1.3-0.8,1.1-46.2-0.3-48.9c-0.6-1.3-0.6-1.6,0.2-1.2c0.8,0.5,1.1-2.2,1-8.8c0-6.6-0.4-9.6-1.2-9.6
	c-0.8,0-0.8-0.3,0.1-0.9c1-0.6,1.2-2.7,0.8-7.7c-0.3-3.8-0.5-6.9-0.6-6.9c-0.6,0-0.6-4,0-7.3c0.4-2.2,0.3-4.6-0.1-5.3
	c-0.4-0.8-0.4-1.8,0.1-2.4c1.2-1.5,1-143.6-0.2-145.2c-0.5-0.7-0.5-1.4,0.2-1.8c0.5-0.3,1-1.1,1-1.6c0-0.6-0.3-0.8-0.8-0.5
	c-0.4,0.2-0.8-1.8-0.8-4.5s0.3-4.9,0.9-4.9c0.5,0,0.6-1.4,0.3-3.3c-0.7-3.4-0.8-4.9-0.7-8.2c0.1-1.1,0-7.3-0.1-13.8
	c-0.2-6.4-0.1-11.7,0.2-11.7c0.4,0,0.8-77.6,1-165.2c0-0.3,1.2-0.4,2.8-0.2c1.5,0.2,18.7,0.4,38.2,0.3c19.5,0,36,0,36.5,0
	c0.6,0,22.2,0,48,0.1c25.9,0,57.4,0.1,70,0.1c12.7,0,24.6,0,26.5,0.1c2.2,0.1,3.4-0.3,3.2-1c-0.1-0.7,0.2-1.2,0.8-1.2
	c0.5,0,1,0.4,1,0.9c0,0.8,9.6,1.2,25.5,1.3c30.3,0.1,45.5-0.4,44.9-1.5c-0.5-0.9-0.3-0.8,0.7,0c0.9,0.9,5.2,1.3,14,1.3
	c9.3,0,12.9-0.3,13.2-1.3c0.4-1,0.6-1,0.6,0c0.1,0.9,1.9,1.3,5.6,1.3c3.7,0,5.5-0.4,5.5-1.3c0-0.8,0.4-0.7,1,0.3c0.6,0.9,1,1,1,0.3
	c0-0.7,2-1.3,4.8-1.6c2.6-0.2,0.2-0.4-5.3-0.4c-6.3-0.1-9.1,0.2-7.5,0.7l2.5,0.8l-2.7,0.1c-1.6,0.1-2.8-0.4-2.8-0.9
	c0-1.4-4.3-1.2-5.9,0.2c-1.1,1.1-1.2,1-0.6,0c0.5-1,0.1-1.3-1.6-1c-1.3,0.2-2.7,0.7-3.1,1.3c-0.5,0.6-0.8,0.5-0.8-0.2
	c0-0.9-26.1-1.2-116.5-1.3c-78.4,0-116.5,0.3-116.5,1c0,0.5-0.5,1-1.1,1c-0.5,0-0.8-0.4-0.5-0.9c0.4-0.5-3-0.9-7.6-1
	c-5.7,0-7.8,0.2-6.8,0.9c1.3,0.8,1.2,1-0.2,1c-1,0-1.8-0.4-1.8-0.8c0-1.5-11.2-1.4-12.2,0c-0.6,1-0.8,1-0.8,0.1
	C78.9,26.7,26.5,26.7,25,28.6z M258.8,83.2c20,8.7,30.5,16.2,41.2,29.6c2.8,3.6,5.6,6.3,6.3,6.1c0.6-0.2,1-2,0.8-4.3
	c-0.3-2.8-0.1-3.6,0.7-2.8c1.9,1.7,5.1,12.1,5.1,16.3c0,4.2,0.2,4.4,7.2,5.5c5.4,1,15.1,7.9,18.8,13.4c1.7,2.6,2.7,4.8,2.2,5
	c-0.4,0.1-3.9-1.1-7.6-2.8c-3.8-1.7-7-2.9-7.3-2.7c-0.2,0.3,2.1,2.9,5.2,5.8c10,9.4,14.5,22.8,14.5,42.9c0,14.6-1.5,24.8-5,34.8
	c-1.7,4.6-3,10.3-3,12.8c0,4.1-0.5,5-4.8,9.2c-6.6,6.5-7.9,11.3-8.7,32.7c-0.8,22.7-3.2,58.1-4.6,68c-4,28.7-17.7,46.4-52.5,67.8
	c-29.1,17.8-50.4,24.2-72.4,21.7c-15.2-1.7-25.8-6.9-37.8-18.4c-19.5-18.7-31.8-45.5-33.6-73.1c-0.5-7.3-0.4-8.5,0.5-6.5
	c0.7,1.4,3.1,6.5,5.4,11.5c2.3,5,6.5,11.8,9.4,15.2c5.2,6.2,11.6,11.1,12.9,9.8c0.4-0.3,0.7-5,0.7-10.3c0-8.1,0.4-10.4,2.2-13.8
	c3-5.6,8.2-9.9,19.8-16.3c8.7-4.8,9.8-5.2,12.7-4.2c4.9,1.7,12,1.3,16.3-0.9l4-2l11.5,4.1c13.3,4.8,24.8,10.5,30.4,15.1
	c5.8,4.7,7.6,9.5,7.6,20.5c0,8,0.2,9.3,1.7,9.3c5.3,0,26-18.5,37.5-33.6c5.8-7.6,11.2-17.3,13.8-24.9c3.6-10.5,10-48.5,12.1-71.8
	c1.4-15.4,0.2-25.4-4.3-36.6c-4.1-10.4-4.4-14.8-1.8-25.9c2.9-12.4,2-18.4-4.7-29.6c-15.5-25.9-42.3-37.9-65.3-29.2
	c-28.2,10.6-51,17.2-66,19.1l-5.4,0.7l1.7-2.3c4.2-5.9,9.9-16,9.4-16.6c-0.4-0.3-3,1.2-5.9,3.5c-6.8,5.1-16,8.3-26.7,9
	c-7.4,0.4-8.8,0.8-11.6,3.3c-9,8-19.1,39.1-21.1,65.3c-0.8,10.2-1.5,9.7-4.5-3c-1.3-5.7-2.1-12.5-2.2-19.1l-0.1-10.3l-2.9,2.8
	l-2.9,2.7l0.7-5.5c1.8-14.5,8.7-31.4,16.8-40.5c2-2.4,3.7-4.6,3.7-4.9c0-0.9-5,1.2-8.1,3.5c-3.1,2.2-13.1,6-13.8,5.3
	c-1.1-1.1,7.7-16.3,11.8-20.4c6.3-6.2,17.2-12.4,26.6-15.2c4.2-1.2,8-2.9,8.3-3.6c0.8-2.3-2-3.3-7.8-2.6c-5.1,0.6-5.4,0.6-4-1
	c3.7-4.6,28.9-14.6,45.5-18.2c12.6-2.7,31.4-2.3,44,1c5.5,1.4,10.3,2.6,10.7,2.6c1.6,0,0.7-2.8-2.2-6.8l-2.9-4.1l5.2,1.5
	C245.1,77.7,252.5,80.6,258.8,83.2z M267.8,133.3c15.9,2.5,32.6,15.2,40.3,30.6c5,10,5.4,13.2,2.8,25.4c-2.5,12-2.2,14.3,2.7,28.9
	c5.8,17.2,5.7,28-1.3,70c-5.7,34.6-7.9,40.9-19.9,56.9c-7.3,9.6-20,22.8-26.5,27.6l-3.5,2.6l-0.6-6.9c-1.5-16.1-11.2-24.6-39.7-34.8
	c-5.2-1.8-9.7-3.6-9.9-3.8c-0.2-0.2,1-0.8,2.6-1.4c3.3-1.2,4.1-3.6,1.5-4.6c-2-0.7-7.7,1.7-11.5,4.8c-6.6,5.6-17,4.8-22.3-1.5
	c-4.2-5-3.6-9.8,3.5-27.8c7.1-17.9,11.9-35.5,10.1-37.3c-1.7-1.7-4.2-0.2-4.2,2.6c0,3.9-4.7,19-9.7,31c-5.2,12.7-7.3,19.6-7.3,24.6
	c0,3.3,0.5,4.5,3.7,9.7c1.1,1.8,0.5,2.3-6.5,6.3c-16.7,9.3-22.1,15.1-24.2,26.5c-0.7,3.6-1,7.2-0.6,8c1.2,3.1-1.5,1.3-5.8-4.1
	c-5.7-7-11-17.6-13.8-27.9c-2-7.3-2.2-10.7-2.5-39c-0.2-26.4,0-30.3,1-26.4c2.7,9.5,11.4,19.9,16.8,19.9c3.5,0,3.2-2.5-0.6-4.9
	l-2-1.3l2,0.8c1.1,0.4,8.1,1,15.5,1.4c7.4,0.4,12.9,0.7,12.3,0.8c-1.9,0.3-1.5,3,0.5,3.4c1.2,0.3,0.5,1-2.5,2.6
	c-4,2.1-5.8,5.2-3,5.2c2.5,0,11.4-5.9,15.1-10c2.9-3.2,3.5-4.5,2.6-5.5c-0.6-0.8-0.7-1.6-0.2-1.9c2.1-1.3,5.2-9.9,5.3-14.6
	c0.2-5.6-1.7-11-3.7-11c-2.1,0-2.4,1.4-1.2,5.3c0.6,2,0.9,3.9,0.7,4.1c-0.2,0.3-4.8-0.6-10.1-1.9c-11.7-2.8-24.7-4.5-35-4.5
	c-9.2,0-9.4-0.4-4.3-7.9c3.5-5.1,3.8-7.1,1-7.1c-2.1,0-6.6,6.5-8.5,12.1c-2.3,6.6-3,4.5-3-8.6v-10.3l3.6-1.2c7.5-2.5,13.4-1,30.8,8
	c18.8,9.6,23.7,10.8,29.6,6.8c4.1-2.8,7.1-9.8,5.4-12.5c-0.6-1-4-2.5-7.5-3.4c-7-1.8-12.2-3.8-24.3-9.4c-14.7-6.7-21-6.7-31.3,0.1
	c-2.9,1.9-5.5,3.4-5.8,3.4c-0.9,0-0.6-6,1.1-20c2.7-23.4,6.6-38.5,13.4-52c4.4-8.7,6.1-10,12.8-10c5.1,0,10.7-1.1,18.2-3.5
	c2.2-0.7,2.3-0.6,1.2,0.8c-0.7,0.9-2.7,1.9-4.3,2.2c-3.7,0.8-4.3,1.9-2.2,4c1.5,1.5,3.3,1.7,14.2,1.2c15-0.6,23.4-2.6,50.7-12.3
	C258.1,131.5,257.5,131.6,267.8,133.3z M164.4,234.1c7.7,3.3,16.4,6.6,19.3,7.2c5.8,1.4,6.5,2.9,3,6.6c-4.1,4.3-10.7,2.8-26.8-6.2
	c-12.1-6.8-16.5-8.4-23.8-8.6c-5.5-0.2-5.5-0.3-3.3-1.8C140.9,225.8,146.3,226.3,164.4,234.1z M351.4,255.3
	c4.2,3.7,6.5,10.5,6.5,19.4c0,7.6-1.8,13.6-8.1,27.9c-2.8,6.1-6,13.3-7.2,15.9c-2.5,5.7-5.9,8.7-9.6,8.7c-5.4,0-5.4,0.5-4.6-29.1
	c0.7-31.1,1.5-35.7,7.2-41.9c3.1-3.5,4.1-4,7.9-4C346.9,252.2,348.6,252.8,351.4,255.3z M167.9,269.2c8,1.6,14.7,3,14.9,3
	c0.8,0-1.2,5.6-3,8.1c-2.1,2.9-8.5,4.9-15.9,4.9H160l0.6-3.5c1-6.1-5.3-10.3-10.3-7c-2.7,1.7-3.3,6.2-1.1,8.4c1,1.1,0.3,1.2-3.8,0.6
	c-10.5-1.5-13.9-4.6-15.2-14.1l-0.6-4.7l11.9,0.6C148.3,265.9,159.6,267.5,167.9,269.2z M308.2,416.2c1.6,18.4,1.3,24.5-1.9,33
	c-5.3,14-22,29.8-38.8,36.8c-11,4.5-19.6,6.3-32.6,6.9c-13.9,0.6-23.8-1.1-34.2-6.1c-8.1-3.9-18.1-11.9-22.2-17.8
	c-3.8-5.6-6.5-15.4-6.6-23.7c0-3.7,0.2-4.2,1.8-3.6c12.5,4.8,13.4,4.9,30.2,4.9c15.1,0,17.3-0.2,25.5-2.7
	c21-6.4,58.7-28.9,72.4-43.1c1.9-2,3.8-3.3,4.2-2.9C306.3,398.4,307.3,406.6,308.2,416.2z M322,429.4c5.2,7.3,2.5,22.9-6.4,36.8
	c-9.2,14.4-28.2,30.3-43.6,36.5c-31.2,12.7-71.3,7.2-95.6-13.2c-14-11.8-17.9-19.8-18-37c0-10.7,0.1-11.4,2.5-13.8
	c2.3-2.3,2.7-2.4,4.7-1c1.8,1.3,2.1,2.6,2.5,11.8c0.3,9.2,0.7,11,3.6,16.9c8.4,17.1,31.4,30.2,55.4,31.5
	c29.5,1.7,60.5-12.3,76.5-34.5c7.5-10.5,9.5-16.5,10.1-29.4l0.4-10.7l2.8,1.4C318.5,425.5,320.8,427.6,322,429.4z M355.9,444
	c52.4,21.9,74.5,35.5,86.7,53.2c10.4,15.3,20.6,44.6,26.7,77c2.3,12.4,2.9,20.2,2.7,38.2l-0.1,5.7l-8.2,4
	c-19.6,9.4-41.9,15-63.9,15.8l-14.7,0.6l-0.7-16.7c-1.3-28.4-0.1-55,3-69.6c1.4-6.9,3.7-15.9,5.1-20c5.4-16,16.7-32,27.9-39.4
	c5.9-3.9,7.1-6.6,3.1-6.6c-2.5,0-9.2,4.6-15.4,10.4c-9.2,8.5-18.7,26.7-23.1,44.1c-5.1,20.3-5.6,25.3-5.6,59
	c0,34.2,0.6,41.3,3.3,42.1c4.5,1.4,4.6,1.8,6.9,19.4c1.2,9.6,2.1,17.6,1.8,17.8c-0.6,0.6-8.9-1.7-14.2-3.9c-3.6-1.5-6-4.2-15.6-17.1
	c-13.3-17.9-24.4-28.9-33.8-33.5l-6.5-3.1l-8.2-41.4l-8.2-41.3l-4.3-3.8c-3.6-3.2-4.7-3.7-7.9-3.3c-3.5,0.4-4.2-0.1-10.8-6.5
	c-3.9-3.8-7.7-6.9-8.4-6.9c-0.8,0-3.3,0.7-5.7,1.5c-8.1,2.9-21.2,4.5-47.9,6c-38.6,2.1-54.6,5.3-72,14c-10.3,5.2-19.1,11.7-25.8,19
	l-5,5.5l-2.1-6.8c-4-13.4-11.3-24-22.9-33.6c-6-4.9-7.3-6.4-7-8.5c0.2-2.7-0.7-5.1-2.1-5.1c-0.4,0-1.3,1.1-1.9,2.5l-1.1,2.5
	l-10.1-6.1c-5.5-3.3-10-6.6-10-7.3c0-2.1,9.3-13.8,15-18.9c9.5-8.5,33.2-21.7,63.6-35.5c16.6-7.5,14.9-8.1,14.9,5.6
	c0,11.5,0.1,11.9,3.8,19.6c4.8,10,8.4,14.5,17.5,21.8c8.7,6.9,15.6,10.6,26.7,14.1c14.6,4.8,23.5,6,38.5,5.4
	c23.5-1,41.2-7.6,58.4-21.8c19.5-16.1,31.6-36.9,31.6-54.4v-4.5l4.8,2C337.3,436.2,346.8,440.2,355.9,444z M47.6,500.3
	c3.2,2.2,12.3,7.9,20.3,12.6c17.5,10.4,26.4,17.4,33,26.2c7.6,10.1,14.7,30.1,10.7,30.1c-1,0-1.4-0.6-1.1-1.5c0.9-2.4-1.6-11.5-5-18
	c-6.4-12.3-19.5-22.3-45.9-34.9c-8.5-4.1-16-8.2-16.5-9.3c-1.3-2.3-2.6-9.3-1.9-9.3C41.6,496.2,44.4,498,47.6,500.3z M36.8,512.5
	c9.7,7.2,15.3,10.7,17,10.7c2.8,0,0.4-2.4-7.9-8c-4.9-3.3-9-6.2-9-6.3c0-0.2,9.5,4.5,21.1,10.3c32.4,16.3,43.1,25.5,47.5,40.9
	c0.9,3.1,2,6.1,2.5,6.7c0.7,0.8-0.2,1.4-2.7,1.8c-2,0.4-3.7,0.6-3.8,0.4c-0.2-0.2-2-3-4.1-6.3c-6.8-10.5-26.5-28.5-31.2-28.5
	c-2.5,0-1.2,1.7,4.5,5.7c9,6.4,17.3,14.5,22.1,21.4c2.5,3.5,3.6,5.7,2.5,4.8c-5.7-4.6-22.3-17.6-31.9-25c-38.9-30-36.6-28-36.3-31.6
	c0.1-1.8,0.4-3.3,0.6-3.3C28,506.2,32,509.1,36.8,512.5z M30.9,521.9c1.9,1.6,7,5.5,11.2,8.6c7.2,5.3,27.3,20.8,43.5,33.5
	c4.7,3.7,7.6,6.8,8.3,8.9c3,8.5,30.8,12.6,37.8,5.6c2.2-2.2,12.7-5.1,82.5-22.5c72.3-18,80.2-19.7,81.6-18.3
	c1.4,1.3,1.4,1.5-0.1,1.5c-0.9,0-21.6,4.9-46,10.9c-67.8,16.7-105.9,25.9-110.3,26.7c-2.2,0.3-5.2,1.7-6.6,3.1
	c-3.1,2.8-8.2,4.2-15.4,4.3c-11.2,0-24.8-5.5-26.1-10.6c-0.4-1.4-2.3-3.7-4.3-5.2c-9.2-6.9-51.5-39.5-57.3-44.2
	c-2.8-2.3-3.6-2.6-3.2-1.3c0.5,1.5,0.4,1.5-0.4,0.3c-0.6-0.8-0.8-1.9-0.4-2.5c0.3-0.5,0.6-2.1,0.5-3.5c-0.2-2.2-0.1-2.3,0.5-0.4
	C27.1,517.9,29,520.2,30.9,521.9z M278.4,528.6l5.6,5.3l-73.8,18.3c-40.6,10.1-74.5,18.5-75.3,18.7c-3.7,1.1,4.4-4.1,12.5-8.1
	c11.8-5.7,19.9-8.4,31.4-10.5c9.8-1.8,13.5-4.1,6.4-4.1c-13.5,0.1-43.1,11.5-53.1,20.6c-3.6,3.1-5.8,4.4-6.9,4
	c-1.3-0.6-0.8-1.6,3.3-5.7c6.5-6.6,16.9-13.4,26.7-17.6c16.2-6.8,31.6-9.7,67.2-12.3c25-1.9,47.3-5.4,49.8-7.9
	c2.3-2.3-0.7-2.3-10-0.2c-5.4,1.1-19.9,3-32.3,4.1c-37.4,3.3-44.1,4.1-53.5,6.2c-11.5,2.6-23,6.9-31.3,11.5
	c-7.3,4.1-20.2,14-22.5,17.3c-0.9,1.2-2,2.1-2.6,1.9c-2-0.7,3.7-7.6,11.7-14.4c13-11,29.8-18.4,50.2-22c4.7-0.8,20.4-2.2,35-3
	c27.8-1.6,42.8-3.4,49.5-5.9c2.2-0.8,4.5-1.5,5.2-1.5C272.2,523.2,275.3,525.6,278.4,528.6z M47.9,544.4c10.7,8.3,23.6,18.2,28.7,22
	c5.1,3.9,9.4,7.7,9.7,8.6c0.8,2.8,14.1,49.7,18,63.5c2,7.1,3.3,13.3,3,13.8c-0.9,1.5-7.1,1-8.8-0.6c-1.9-1.9-3.2-6.4-5.2-17.4
	c-1.6-9.3-4.1-15.7-8-20.9c-5.6-7.2-13.4-9.3-17.9-4.7c-3.3,3.2-3.3,8.1,0,18.2c3,9.4,3.1,12.6,0.6,24.6
	c-3.1,14.6-3.3,17.3-2.1,23.2c0.6,3.1,1,5.9,0.7,6.1c-0.5,0.5-19.7-12.4-19.7-13.2c0-1.4-18.2-57-19-57.8c-0.4-0.6-0.9-13-1-27.6
	c-0.1-14.6-0.2-27.9-0.2-29.5c-0.1-12.8,0.3-23.5,1-23.5C28.1,529.2,37.2,536,47.9,544.4z M300.9,542.7c0,0.3,11.9,59.5,18.5,92.1
	l1.2,6.1l-11.1,0.6c-6.2,0.3-13,1.2-15.3,2.1c-4.3,1.5-4.3,1.5-4.9-0.9c-0.3-1.4-0.1-3.9,0.5-5.6c1.5-4.4,1.4-6.9-0.4-6.9
	c-0.8,0-1.5,0.4-1.5,0.9s-0.5,2.2-1,3.7l-1.1,2.7l-2.9-2.8c-2.3-2.2-3.3-2.6-4.2-1.7c-0.9,0.9-0.4,2,2.4,5c4.9,5,5.7,8.4,2.5,9.9
	c-2.2,1-2.8,0.8-5.2-1.7c-2.3-2.4-2.5-3.1-1.6-4.9c1.3-2.4,0.2-5.5-2.3-6.4c-0.8-0.3-3.4,0-5.8,0.7c-4,1.1-4.3,1.4-4.2,4.7
	c0.2,6.2,2.3,12.1,4.2,11.7c1.3-0.2,1.6-1.2,1.4-3.6c-0.4-4.1,1.4-4.2,5.1-0.4l2.7,2.8l-5.7,4c-6.6,4.5-8.9,7.9-7.9,11.7
	c1.6,6.6,9.8,7.6,23.7,2.9c4.7-1.7,11-3.2,14-3.6l5.4-0.6l-8.2,2.9c-13.6,4.8-27.3,13.1-30.9,18.7c-2.2,3.3-2.2,7.8,0,10.3
	c1.6,1.7,1.5,1.9-2,2.4c-2,0.3-20.7,0.6-41.5,0.7c-35,0-40.4-0.3-37-2.4c1.5-1,5.1-9.5,5.1-12.1c0-1.4-0.5-3.3-1.1-4.3
	c-0.9-1.4-0.5-2.8,1.5-6.6c3.5-6.5,3.5-11.8,0-14.5c-2.4-1.9-2.5-2.1-1-4.3c2.3-3.2,2-6.5-0.9-9.3c-4.7-4.8-13.7-2.9-26,5.7
	c-5.9,4.1-7,4.6-7.8,3.2c-0.7-1.1,0.2-2.8,3.3-6.5c4.8-5.7,9-12.7,9-15.1c0-6.6-5.3-9.5-13.1-7.2c-2.8,0.9-5.5,1.2-5.9,0.7
	c-0.8-0.9-11-41.9-11-44.3c0-1.2,4.5-2.6,18.3-5.8c30.5-7.3,86.7-21,114.7-28.2C302.7,541.6,300.9,542,300.9,542.7z M120,575.5
	c3.2,1.5,3.3,1.5,0.9,1.8c-6.6,0.6-19.4-1.7-18.4-3.3C103.4,572.6,115.6,573.6,120,575.5z M109.6,588.1c7.8,0.9,14.7,0.5,21-1.4
	l4.3-1.3l1,3.7c2.7,10.1,2.7,9.9-2.5,12.2c-7.7,3.4-26.9,2.5-33.2-1.6c-1.4-1-2.9-3.9-4.3-8.4c-1.1-3.7-2-7.1-2-7.4s2,0.3,4.5,1.4
	C100.8,586.4,105.9,587.6,109.6,588.1z M140.4,605.9c0.8,3.3-0.8,4.7-7.9,6.8c-13.1,3.9-32.6-0.4-32.6-7.2c0-1.1,0.6-1.4,2.3-0.9
	c9.8,2.9,17.5,3.9,23.3,2.9c3.4-0.6,7.5-1.8,9-2.6C138.7,602.7,139.6,602.9,140.4,605.9z M80,614.4c1.8,1.8,4.1,5.2,5.2,7.7
	c2.1,4.9,6,24,5.8,28.7c-0.1,2.9,0.4,3.4,5,5.4c5.6,2.3,8.2,2.2,17.4-0.7c9.7-3.1,19.9-8.4,29.6-15.3c9.6-7,17.6-10.7,20.4-9.6
	c4.1,1.5-0.7,10.6-11.4,21.5c-6.2,6.2-15.3,12.7-24.7,17.4c-10.8,5.5-9.7,9.1,1.7,5.3c4.1-1.3,10.7-3.4,14.8-4.7
	c5.4-1.7,10.2-4.3,18-9.7c14.4-10.1,22.1-13.4,25.6-10.8c3.1,2.3,0.2,6.7-12.3,18.7c-12.9,12.2-18.9,15.8-34.7,20.4
	c-9.8,2.8-11.6,3.8-9.7,5.7c1.5,1.5,8.6-0.1,21-4.7c11.1-4.1,15.5-7,27.2-18.2c8.8-8.4,11.2-9.5,12.6-5.9
	c1.8,4.7-16.1,25.1-27.5,31.1l-6.5,3.5h-54c-29.7,0-53.5-0.4-53-0.8c0.5-0.5,3.8-2.9,7.4-5.4c3.6-2.5,7.4-5.5,8.5-6.7l1.9-2.2
	l1.8,2.3c1.2,1.7,2,2,2.8,1.2c0.8-0.8,0.5-3.4-1.1-9.5c-2.4-9.2-2.2-15.1,0.7-26.2c2.2-8.3,2.2-20,0-25.7
	c-2.1-5.6-3.6-12.9-2.9-14.7C70.6,609.9,76.5,611,80,614.4z M144,620.8c2.8,10.9,2.7,11.2-4.9,16.7c-6.5,4.7-20.7,12.1-24.6,12.9
	c-1.6,0.3-2.4-1.7-6.1-14.7c-2.4-8.3-4.6-16.4-4.9-18.2l-0.7-3.1l4.4,1.3c10.3,3.1,23.9,2.6,30.7-1c1.4-0.8,2.9-1.3,3.4-1.1
	C141.9,613.7,143.1,617,144,620.8z M30.4,631.2l2.5,7.3l-2.6,8.3c-1.5,4.6-2.8,8.4-3,8.4c-0.2,0-0.4-7.3-0.4-16.2
	c0-8.9,0.2-15.9,0.5-15.6C27.7,623.6,29,627.2,30.4,631.2z M472.2,661.8l0.2,37.9l-7.3,0.3c-6.5,0.3-7.6,0-10.2-2.1
	c-3.8-3.3-27.1-10.8-44-14.3c-7.4-1.5-13.6-2.8-13.7-2.9c-0.2-0.1-5.3-35.8-5.3-36.9c0-0.2,4.8-0.6,10.8-0.9c19-1,47-8.2,62.3-16.1
	c3.5-1.9,6.5-3.2,6.7-3.1C471.9,623.9,472.1,641,472.2,661.8z M329.8,630.8c8.2,5.5,16.8,14.7,28,29.9c5.6,7.5,11.4,14.8,12.8,16.1
	c2.7,2.5,11.4,5.6,20.8,7.4c6.7,1.3,27.8,6.2,37,8.5c7.5,2,17.7,5.5,18.9,6.6c0.6,0.5-36.2,0.9-81.7,0.9c-47,0-82.7-0.4-82.7-0.9
	c0-1.2,15.1-7.6,24-10c4.1-1.2,10.2-2.4,13.7-2.7c6.6-0.7,9.9-2.8,7.2-4.5c-2-1.2-4.6-1.1-13.5,0.6c-9.9,1.9-16,3.9-25.4,8.3
	c-12.4,5.7-19.8,5.3-16.9-1.1c1.2-2.6,14-11.5,21.3-14.7c5.9-2.7,18.5-5.9,26.1-6.8c5.1-0.6,6-1,6-2.7s-1.1-2.2-6.5-3.2
	c-11.9-2.2-19.9-1.7-31.9,2.2c-11,3.6-14.6,4.1-16.9,2.6c-6.2-3.9,14-16.9,32.2-20.7c7.3-1.6,14.3-1.4,28,0.8c5.5,0.8,7,0.8,7.7-0.3
	c1.3-2.1-0.6-3.3-6.8-4.4l-5.7-1l-1.2-5.5c-1.5-6.4-1.7-9-0.6-9C324.1,627.2,326.8,628.8,329.8,630.8z M273.2,638.9
	c1.1,1-1.3,3.3-3.4,3.3c-1.8,0-2.6-2-1.2-3.3C269.4,638,272.4,638,273.2,638.9z M52.9,677.9c5.2,3.6,9.6,6.6,9.8,6.8s-2.5,2.2-6,4.6
	c-3.5,2.3-8.2,5.7-10.5,7.6c-4.1,3.2-4.5,3.4-11.5,3.1l-7.3-0.3l0.1-13c0-11,0.5-14.6,2.8-23c1.5-5.5,3.2-11.8,3.8-14l1.1-4
	l4.1,12.9l4.1,12.8L52.9,677.9z M153.6,659.6c-0.3,0.8-2.5,2.5-4.9,3.7l-4.3,2.2l4.5-4.1C153.5,657.3,154.6,656.9,153.6,659.6z
	 M187.5,687.5c-0.3,1.8-2,5.4-3.6,8l-3,4.7l-5.5-0.1c-3-0.1-5.5-0.5-5.5-0.8c0-0.4,1.2-1.4,2.8-2.3c1.5-0.9,5.4-4.4,8.6-7.7
	c3.3-3.3,6.2-5.9,6.4-5.6C187.9,683.9,187.9,685.6,187.5,687.5z"/>
<path d="M164.4,357.4c-3.6,4.3-4.7,7.3-4.7,13.8c-0.2,10.6,7,21.4,16.1,24.1c3.5,1,4.4,0.9,7.3-0.8c3.7-2.2,7.4-8,8.3-13.3l0.6-3.5
	h6.9h7l1.5,4.5c3.4,10.2,9,15,17.6,15c8.4,0,16-6.3,19.8-16.4c2.8-7.4,2.7-12.1-0.4-18.3c-3.2-6.4-6.1-9.1-7.7-7.5
	c-1,1-0.8,1.9,0.5,4c5.5,8.4,5.9,15,1.6,23.6c-3.1,6.3-7.9,9.6-14,9.6c-7.2,0-11.4-4.4-13.9-14.8l-1.1-4.2l-7.7-0.1
	c-4.2,0-9.8-0.4-12.3-0.8s-5.1-0.5-5.7-0.3c-2.1,0.7-1.3,3.2,1.3,4.2c2.2,0.8,2.4,1.4,1.9,3.7c-1.5,6.1-5.5,11.3-8.8,11.3
	c-4.9,0-11.8-7.3-13.7-14.4c-1.4-5.3-0.4-11.2,2.7-15.9C171.7,354.6,169.1,351.8,164.4,357.4z"/>
<path d="M206.4,356.4c-2.7,0.5-10.2,1-16.5,1.1c-9,0.2-12.4,0.7-15.5,2.2c-4.3,2.1-4.6,4.2-0.5,3.7c1.4-0.2,7.5-0.5,13.5-0.6
	c6.1-0.2,14.1-0.9,18-1.6c8.2-1.4,16.6-0.3,25.5,3.5c3,1.3,5.8,2.1,6.2,1.9c3.6-2.2-5.2-7.7-16.1-10
	C213.7,355.1,213.5,355.1,206.4,356.4z"/>
<path d="M258.1,221.7c-3,0.8-12,4.1-20,7.2c-8.1,3.1-17.4,6.4-20.7,7.3c-5.2,1.5-6,2-6.3,4.3c-0.4,3.5,4.1,10.3,8.4,12.9
	c2.9,1.7,3.4,2.5,2.9,4.2c-1.4,4.2-1.7,14.5-0.6,17.8c3.1,9.3,12.6,18.5,18.3,17.6c2.1-0.3,2.1-0.4,0.4-2.1
	c-1.7-1.6-1.1-1.7,11.1-1.7c7,0,14.6-0.3,16.8-0.6c3.2-0.4,3.6-0.3,2.3,0.6c-2.6,1.6-2.2,4,0.6,4c3.5,0,11.1-7.3,14.3-13.8
	c4-8.1,3.9-16.4-0.2-24.7c-2.2-4.3-3.7-6.1-5.3-6.3c-2.7-0.4-2.8,0.8-0.3,5.6l1.9,3.8l-14.4,1.2c-13.4,1.1-33.2,4.7-39.6,7.1
	c-2.4,0.9-2.8,0.8-2.7-0.7c0-0.9,0.8-3.6,1.7-5.9c1.6-4,2.4-4.5,18.2-12.6c18.4-9.5,24.7-11.7,32.9-11.7c5.1,0.1,7.6,0.5,16.7,2.5
	c2.5,0.5,3.3,0.3,3.8-1.1c1-2.7-3.8-7-13.3-11.7C275.4,220.1,267.3,219.2,258.1,221.7z M279.3,227.3c3.1,1.1,5.8,2.4,6.1,2.9
	c0.3,0.4-3.5,0.8-8.3,0.8c-10.3,0.1-16.4,2-29.1,8.9c-21.7,11.8-23.9,12.4-29,7.2c-1.7-1.7-3.1-3.6-3.1-4.2c0-0.7,6.2-3.4,13.8-6.1
	c7.5-2.6,18-6.4,23.2-8.2C264.2,224.6,271.2,224.2,279.3,227.3z M283.3,269.2c-0.1,7.8-2.3,11.4-7.6,12.9c-5.3,1.4-17,3.1-22,3.1
	h-3.6l0.5-3.9c0.4-3.1,0.1-4.3-1.6-6c-2.6-2.6-6.5-2.7-9.1-0.1c-2.2,2.2-2.5,4.2-1,7.1c0.9,1.6,0.7,1.9-0.8,1.9
	c-4.2,0-7.9-2.2-10-5.9c-3.3-5.8-2.9-6.8,3.1-8.4c15.7-4.4,30.1-6.6,42.7-6.4l9.5,0.2L283.3,269.2z"/>
<path d="M202.9,230.8c-2.4,6.3-0.5,18,3.7,22.6c2.7,3,3.4,0.9,1.1-3.5c-2.3-4.4-2.9-12.3-1.6-18.5c0.6-2.5,0.4-3.2-0.7-3.2
	C204.5,228.2,203.4,229.4,202.9,230.8z"/>
<path d="M223.9,287.2c0,2.8,9.8,11.3,17.3,15c8.2,4.1,16.3,5.6,13.7,2.5c-0.7-0.8-1.9-1.5-2.7-1.5c-3.3,0-15-6.7-20.4-11.7
	C226.3,286.4,223.9,285.1,223.9,287.2z"/>
<path d="M347.4,260.9c-4.3,1.1-7.5,4.6-10.9,11.9c-4,8.3-4.4,11.8-2,18.8c1.1,3.1,1.5,6.7,1.2,10.2c-0.4,5.1-0.3,5.5,1.6,5.2
	c3.7-0.5,4.1-11.1,0.7-20.1c-0.8-2.2-0.6-3.8,1-8.1c2.9-7.9,6-11.9,9.9-13.2C354.7,263.7,353.3,259.4,347.4,260.9z"/>
<path d="M78.9,535.9c0,0.3,3.2,3.8,7.1,7.6c3.9,3.9,8.7,9.5,10.6,12.4c3.5,5.6,5,6.3,3.9,2C98.8,550.9,78.9,530.7,78.9,535.9z"/>
<path d="M263.9,533.7c-5.2,1.4-14.4,3.3-20.4,4.4c-11.3,2.1-12.6,2.5-11,4.1c0.5,0.5,7.5-0.4,17.9-2.6c20.7-4.2,25.7-5.6,26.3-7.2
	C277.2,530.7,274.9,531,263.9,533.7z"/>
<path d="M279.4,560.9c-6.5,1.7-6.4,1.4-4.6,9.5l1.7,7.3l3.9-0.2c6.1-0.4,8.5-2.6,8.5-7.7C288.9,563.3,284.9,559.6,279.4,560.9z
	 M283.8,565.6c0.7,0.8,1.1,3,0.9,4.8c-0.2,2.5-0.8,3.4-2.5,3.6c-1.8,0.3-2.4-0.4-3.2-3.5c-0.6-2.1-1.1-4.4-1.1-5.1
	C277.9,563.7,282.4,563.9,283.8,565.6z"/>
<path d="M262.1,565.3c-1.8,0.5-3.5,1.5-3.7,2.2c-0.6,1.8,3,14,4.3,14.5c1.7,0.5,10.6-2.4,11-3.7c0.3-1-0.9-1.2-4.4-0.9
	c-3.8,0.2-4.9,0-4.9-1.1c0-0.8,1.5-1.9,3.3-2.3c1.8-0.5,3.2-1.5,3.2-2.3c0-1.8-0.4-1.8-4.8-0.6c-2.7,0.8-3.2,0.7-3.2-0.8
	c0-1.2,1.2-2,3.8-2.7c2-0.5,3.7-1.4,3.7-1.9C270.4,564.3,266.1,564.1,262.1,565.3z"/>
<path d="M247.9,569c-5.4,1.7-7.7,8.4-4.4,13c4.7,6.8,15.8,2.9,12.9-4.5c-0.5-1.5-0.9-1.2-2,1.4c-2.7,6.4-9.8,2.7-8.1-4.1
	c0.7-2.9,3.3-3.4,6.6-1.4c2.3,1.5,3.8,0.3,2.4-1.9C254.1,569.6,250.2,568.3,247.9,569z"/>
<path d="M234.6,573c-0.3,0.4-0.2,2.6,0.3,4.7c0.5,2.2,0.8,4.1,0.6,4.2c-0.1,0.1-2.4-1.6-5.1-3.8c-6.4-5.3-7.4-4.2-4.8,5.3
	c1.4,5.2,2.4,7.4,3.7,7.6c1.5,0.3,1.7-0.2,1-4.5l-0.7-4.8l4.1,3.7c2.5,2.3,4.8,3.5,5.7,3.2c1.9-0.8,1.9-1.4-0.4-9.3
	C237.3,573.2,235.8,571,234.6,573z"/>
<path d="M211.5,579c-0.3,0.5-0.8,4.3-1.2,8.5c-0.6,6.8-0.5,7.7,1,7.7c0.9,0,1.6-0.7,1.6-1.5c0-3.3,6.5-4.6,8.6-1.8
	c1,1.4,1.5,1.5,2.5,0.6c0.9-0.9,0.1-2.6-3.5-7.7C216.1,578.7,213,576.6,211.5,579z M216.7,587.4c-2.2,1.3-2.8,0.9-2.8-1.9
	c0-2.6,0-2.6,2-0.8C217.5,586.1,217.6,586.7,216.7,587.4z"/>
<path d="M203.1,581.4c-0.7,0.7-1.2,3.4-1.2,6s-0.3,4.8-0.8,4.8c-0.4,0-1.9-2-3.4-4.5c-2.7-4.3-5.8-6-5.8-3.1
	c0,2.5,8.3,13.6,10.1,13.6c2.1,0,2.5-1.3,3.4-10.1C206,581.4,205.3,579.2,203.1,581.4z"/>
<path d="M283.7,583.9c-1.4,0.4-1.8,1.5-1.8,5.6v5.2l-2.8-4.2c-2.6-4.1-5.4-5.4-6.7-3.3c-0.8,1.3,1.4,12.5,2.9,14.5
	c2,2.6,3.7,0.3,2.6-3.5c-1.3-4.7-0.4-5,1.7-0.6c2.4,5.1,4.7,4.4,5.2-1.4l0.3-4.5l1.3,3.5c1.3,3.8,4.6,5.5,4.4,2.3
	c-0.1-3.4-3.4-13.6-4.4-13.8C285.9,583.5,284.6,583.6,283.7,583.9z"/>
<path d="M178.6,587.4c-1.9,0.7-2.6,1.5-2.3,2.6c0.3,1,1,3.9,1.7,6.7c0.6,2.7,1.5,5.4,2,5.9c1.2,1.3,9.8-1.4,10.9-3.5
	c1.6-2.9,1.1-7.5-1.1-10.3C187.6,586,183.8,585.5,178.6,587.4z M186.7,590.4c0.7,0.7,1.2,2.7,1.2,4.5c0,2.6-0.5,3.6-2.2,4.2
	c-2.6,1-3.2,0.3-4.3-4.8C180.5,589.9,183.7,587.4,186.7,590.4z"/>
<path d="M264.5,589c-0.3,0.5,0.2,3.2,1.1,6.1c1.4,4.8,1.4,5.5,0,6.8c-2.5,2.5-4.4,0.8-6.1-5.1c-1.1-3.8-2.2-5.6-3.3-5.6
	c-1.3,0-1.5,0.8-0.9,4.6c1,7.5,2.5,9.9,6.8,10.2c5.3,0.4,9.3-3.4,8.3-8.1C268.8,590.6,266.1,586.5,264.5,589z"/>
<path d="M164,592.1c-0.6,1.1-1.4,5.1-1.7,9c-0.6,6.2-0.5,7.1,0.9,7.1c0.9,0,1.9-1.1,2.3-2.4c0.7-3.1,5.1-4.1,7.7-1.8
	c1.3,1.1,2,1.3,2.9,0.4c0.8-0.8-0.2-2.8-3.6-7.6C167.6,589.9,165.7,588.9,164,592.1z M168.9,598.8c0,0.8-0.6,1.4-1.4,1.4
	c-0.9,0-1.2-0.7-0.9-2C167.2,596,168.9,596.4,168.9,598.8z"/>
<path d="M244.7,593.9c-6,1.6-8.1,4.3-3.4,4.3c1.5,0,2.7,0.7,3,1.7s1,3.7,1.6,6c1,3.9,2.6,5.3,4.2,3.7c0.3-0.3,0.2-2-0.2-3.7
	c-2-8-2-9.5,0-10c1.1-0.3,2-1.2,2-2.1C251.9,591.9,252.1,591.9,244.7,593.9z"/>
<path d="M233.4,597.1c-0.3,0.6-0.3,2.9,0.1,5.3l0.7,4.3l-4-3.8c-4-3.8-7.3-4.8-7.3-2.2c0,0.9,0.7,4.5,1.6,8.1c1.3,5,2,6.4,3.3,6.1
	c1.7-0.3,1.7-0.4,0.6-5.6l-0.7-3.5l4.3,3.7c6.2,5.3,9,4.7,7-1.6c-0.5-1.7-1.5-5.1-2.1-7.5C235.9,596.3,234.6,595.2,233.4,597.1z"/>
<path d="M210.4,603.4c-0.7,2.2-2.4,16.2-2,16.6c1,1,3.5-0.9,3.5-2.6c0-2.8,5.7-3.8,8.2-1.5c1.3,1.1,2.2,1.3,2.9,0.6
	c0.7-0.7-0.5-3-3.9-7.4C214.3,602.8,211.3,600.8,210.4,603.4z M215.3,611.4c-1.1,1.7-2.4,0.6-2.4-1.9c0-2.6,0.1-2.6,1.4-0.8
	C215.1,609.8,215.5,611,215.3,611.4z"/>
<path d="M199.9,606.7c0,0.8,0.5,3.5,1.2,6c1,3.8,1,4.7-0.3,6c-2.5,2.5-4.5,0.8-6.3-5.5c-1.5-5.8-3.1-7.5-4.2-4.7
	c-0.8,2.1,1.5,10.9,3.3,12.9c3.4,3.8,12.3,0.4,12.3-4.6c0-3.8-3.1-11.6-4.6-11.6C200.5,605.2,199.9,605.9,199.9,606.7z"/>
<path d="M177.2,611.2c-1.2,0.5-2.9,2.1-3.9,3.5c-1.4,2.2-1.5,3.2-0.5,6.5c1.6,5.3,3.9,6.4,11.7,5.5c6-0.6,8.1-1.9,5.1-3.1
	c-0.8-0.3-1.1-1.7-0.9-3.9c0.3-2.8-0.2-4-2.6-6.5C183,610.1,181,609.7,177.2,611.2z M183.7,616.7c1.7,3.6,1.5,4.3-1,4.7
	c-1.3,0.2-2.2,0.9-2,1.6c0.1,0.6-0.2,1.2-0.7,1.2c-1.2,0-2.7-2.1-3.6-4.8C174.9,614.4,181.6,612,183.7,616.7z"/>
<path d="M258,614.3c-3.2,1-3.3,1.2-2.7,4.9c0.3,2.1,1.2,5.6,1.9,7.7c1.1,3.4,1.5,3.8,4.1,3.5c5-0.6,7.6-2.1,8.7-4.9
	c1.4-3.7,0.2-7.9-2.8-10.3C264.4,613,263.1,612.9,258,614.3z M265.9,619.1c1.7,3.2,1.2,6.1-1.2,7c-2.9,1.1-3.5,0.6-4.6-4.7
	c-1-4.2-1-4.2,1.9-4.2C263.8,617.2,265.2,617.9,265.9,619.1z"/>
<path d="M240.9,619.4c0,3.6,3.6,14.8,4.8,14.8c0.7,0,3.3-0.5,5.8-1.1c5.5-1.4,5.3-3.5-0.2-3.1l-4,0.3l-1.4-5.8c-1-4-2-5.9-3.2-6.1
	C241.7,618.2,240.9,618.6,240.9,619.4z"/>
<path d="M230.6,621.4c-2.1,0.6-4.1,1.7-4.4,2.4c-0.8,2.2,2.8,14.4,4.3,14.4c3.4,0,10.4-2.5,10.4-3.8c0-1-1.1-1.2-4.5-0.6
	c-4.1,0.6-4.5,0.5-4.5-1.5c0-1.5,0.6-2.1,2.3-2.1c3,0,4.8-1.3,3.8-2.8c-0.5-0.8-1.6-0.9-3.8-0.3c-2.4,0.7-3.3,0.6-3.7-0.5
	c-0.3-0.9,0.8-1.7,3.4-2.5c2.2-0.7,4-1.8,4-2.6C237.9,620,236,620,230.6,621.4z"/>
<path d="M218.5,625c-0.7,1.2,2.5,13.5,4,15.1c2.4,2.6,2.8-1.3,0.9-8.9C221.8,624.8,220,622.5,218.5,625z"/>
<path d="M207.2,627.7c-3.8,1.6-3.8,1.1-1.4,9.5c2,7,4.7,9.1,4.5,3.3c-0.2-2.7,0.3-3.3,2.7-4.2c4.2-1.5,3.8-3.5-0.6-2.8
	c-2.9,0.5-3.5,0.3-3.5-1.2c0-1.2,1.1-2.1,3.3-2.7c1.7-0.6,3.2-1.4,3.2-1.9C215.4,626.1,210.7,626.1,207.2,627.7z"/>
<path d="M250.2,640.4c-4.9,2.4-5.2,10.1-0.6,13.8c6.2,4.9,15-0.9,12.7-8.3C260.6,640.2,255.4,637.9,250.2,640.4z M257.3,644.4
	c2.1,3,2,5.1-0.5,7.4c-2.8,2.6-5.3,0.8-5.7-4.1C250.6,642.2,254.4,640.2,257.3,644.4z"/>
<path d="M236.8,643.7c-7,1.9-7,1.8-4.8,9.2c1,3.7,2.2,7,2.6,7.4c1.4,1.4,10.8-1.6,11.1-3.5c0.3-1.3-0.1-1.7-1.5-1.2
	c-6.3,1.8-7.3,1.8-7.3-0.1c0-1.3,1.1-2.2,3.3-2.8c4-1.2,3.3-3-1.2-3c-4.7,0-5.1-2.2-0.7-3.1c2-0.3,3.9-1.1,4.2-1.6
	C243.7,643.1,241.3,642.5,236.8,643.7z"/>
<path d="M223.7,646.8c-0.4,0.3-0.4,2.1-0.1,3.9c0.5,2.9,0.2,3.3-2.2,3.7c-2.3,0.5-2.8,0.1-3.7-2.3c-0.5-1.6-1.7-2.9-2.5-2.9
	c-1.3,0-1.4,0.8-0.9,4.2c1.4,8.8,2.6,11.8,4.7,11.8c1.7,0,1.9-0.4,1.3-3.5c-0.5-3-0.3-3.6,1.7-4.4c2.9-1.1,3.9-0.6,3.9,1.8
	c0,1,0.7,2.4,1.5,3.1c2.6,2.1,3-1.7,0.9-8.8C226.5,647.3,225.1,645.3,223.7,646.8z"/>
<path d="M202.1,652.4c-3.2,0.7-4.2,1.4-4,2.6c0.2,1.1,1.1,1.6,2.5,1.4c1.8-0.3,2.4,0.4,3.3,4c1.9,7.4,2.1,7.8,3.5,7.8
	c2.3,0,2.5-1.4,1-7c-1.5-5.6-1.3-7,1.1-7c0.8,0,1.4-0.7,1.4-1.5C210.9,651,208.6,650.9,202.1,652.4z"/>
<path d="M336.7,652.7c-0.4,0.4,0.1,2.3,0.9,4.3c1.3,3.1,1.3,4.5,0.3,8.8c-1.2,4.7-1.1,5.5,1,9.7c2.2,4.3,2.2,5,0.8,13.2
	c-0.6,3.4,2.8,3,4.1-0.6c1.7-4.8,1.3-9.4-1-13.9c-1.9-3.6-2-4.4-0.8-8.9c1-4.1,1-5.6-0.2-8.8C340.4,653,338.1,651.3,336.7,652.7z"/>
</svg>
