<?xml version="1.0" encoding="utf-8"?>
<!-- Generator: Adobe Illustrator 30.3.0, SVG Export Plug-In . SVG Version: 9.03 Build 0)  -->
<svg version="1.0" id="Layer_1" xmlns="http://www.w3.org/2000/svg" xmlns:xlink="http://www.w3.org/1999/xlink" x="0px" y="0px"
	 viewBox="0 0 163.9 421" style="enable-background:new 0 0 163.9 421;" xml:space="preserve">
<g id="_x36_">
	<path d="M78.6,67.4c0.5,1.3-0.1,1.4-3.8,0.5c-3.9-0.9-9.6-0.5-15.7,0.9c-2,0.5-2.1,0.7-0.7,1.5c1.5,0.8,1.3,1.2-1.5,3.1
		c-3.8,2.6-7,7-4.8,6.5c0.8-0.2,1.3,0.4,1.2,1.5c-0.1,1.7,0,1.7,2-0.2c5-4.6,12.5-4.6,17.3,0c2.2,2,2.5,3.2,2.5,8.9
		c0,3.6,0.1,10.5,0.2,15.5c0.2,8.1-0.1,9.6-2.6,14.8c-2.4,4.9-7.9,10.7-10,10.7c-0.4,0-1.3-1.6-2.2-3.5c-1-2.4-2.5-4-4.9-5
		c-4.1-1.7-6.6-1.9-6.6-0.5c0,0.5,0.8,1,1.8,1c0.9,0,3.2,0.9,5,2c2.6,1.6,3.2,2.6,3.2,5.4c0,4-2.1,6-5.5,5.4c-4.9-1-2.4,5.4,2.8,7.1
		c5.8,2,14.9-2.2,18.9-8.7c1.8-3,2.3-5.6,2.9-14.9c0.4-8.9,1-11.7,2.4-13.3c2.4-2.6,6-2.5,7.9,0.2c2.1,3,2,5.3-0.5,10.4
		c-2.2,4.2-2.2,4.3-0.3,7.5c1.1,1.8,2.4,3.4,3,3.6c1.4,0.5,10.3-13.3,12.8-19.5c0.9-2.4,1.9-6.9,2.2-10.1c0.6-5.7,0.5-6.3-4.4-16.5
		c-0.3-0.5,0.4-0.6,1.4-0.3c1.8,0.7,1.8,0.6,0-0.8c-1.1-0.8-2.3-1.5-2.8-1.5c-0.4,0-1.4-1.2-2.2-2.8c-0.8-1.5-1.5-2.1-1.6-1.4
		c0,0.9-1.1,0.4-3.1-1.3c-3.3-2.7-8.8-5.7-12.6-6.9C78.4,66.1,78.1,66.3,78.6,67.4z"/>
	<path d="M138.4,70.8c-0.4,1-0.7,3-0.6,4.5c0.2,2-0.2,2.8-1.3,2.8c-1.2,0-1.4,0.5-0.6,2.4c0.6,1.8,0.5,2.8-0.6,3.6
		c-2.1,1.8-1.8,4.3,0.5,3.5c1.4-0.4,2.1,0,2.4,1.2c0.4,1.7,0.4,1.7,1.2-0.1c0.5-1.2,0.3-2.1-0.6-2.7c-1.2-0.7-1.1-1.3,0.3-3.7
		c1.1-1.7,1.5-3.8,1.1-5.3c-0.6-2.1-0.4-2.2,0.9-1.1c1.1,0.9,1.8,0.9,2.3,0.3c0.7-1.2-0.7-4.2-2.8-6
		C139.4,69.3,139.1,69.4,138.4,70.8z"/>
	<path d="M144.6,72.7c1.1,1.5,1.8,3.1,1.7,3.4c-0.2,0.3,0.2,0.7,0.8,0.9c1.3,0.4-1.6-5.5-3.2-6.5C143.2,70.2,143.6,71.1,144.6,72.7z
		"/>
	<path d="M141.6,88.3c-1.9,5.7-2.9,9.4-2.2,8.4c1.7-2.3,6.9-17.5,6.2-18.2C145.4,78.2,143.6,82.7,141.6,88.3z"/>
	<path d="M57.5,81.2c-2.9,2.3-6.5,9-6.6,12.1c0,1.5,0.4,1.6,2.7,0.7c1.4-0.5,4-0.7,5.7-0.3c3,0.6,6.6,3,6.6,4.4c0,0.4-3.1,0.6-7,0.6
		c-6.8-0.1-8.6-0.8-5.4-2c2.5-1,6.3-0.7,8.7,0.6c2,1,2.1,1,0.8-0.5c-0.8-1.1-2.8-1.7-5.1-1.7c-6,0-7,0.7-7,5.1v3.9h5.6
		c5.1,0,5.5-0.2,4.3-1.6c-0.9-1.2-2.4-1.5-5.1-1.1c-2.1,0.3-3.8,0.1-3.8-0.4s2-0.9,4.3-0.9c7.4,0,10.2,5.6,5.1,10.6
		c-1.9,2-3.1,2.4-5.2,1.9c-3.6-0.9-5.2-2.3-5.2-4.6c0-1.1-0.3-1.9-0.7-1.9c-0.7,0-6.3,10.9-6.3,12.3c0,0.3,2.1,0.9,4.8,1.2
		c6.8,0.9,10.9,3,12.7,6.5c1.5,2.9,1.8,3.1,3.8,1.7c6.7-4.4,11.5-21.1,8.5-29.9c-0.9-2.6-1.2-5.1-0.7-6.3c2.5-6.3-1-11.4-8.3-12.2
		C61.3,79,59.8,79.4,57.5,81.2z"/>
	<path d="M133.1,93.8c0.4,4.5,2,5.3,3.7,1.7c1-2.2,0.9-2.8-0.6-4C133.4,89.4,132.9,89.8,133.1,93.8z"/>
	<path d="M126.7,124.8c-3.4,15.3-6.3,26.3-7.3,27.4c-0.9,1-3,1.9-4.8,2.1c-2.3,0.2-3.2,0.8-3.4,2.5c-0.3,2.2,0,2.3,5.6,2.3h5.9
		l1.2-6.8c1.4-7.7,9.9-47.9,10.7-50.3c0.2-0.9-0.1-1.9-0.9-2.2C132.6,99.4,130.9,105.4,126.7,124.8z"/>
	<path d="M135.1,106.8c-0.6,3.2-3.4,16.4-6.1,29.3c-4.4,20.7-5.1,25.5-3.7,23.9c0.8-0.9,12.2-58.9,11.6-58.9
		C136.6,101.1,135.8,103.7,135.1,106.8z"/>
	<path d="M53.2,105.9c-1,0.6-0.9,1.3,0.3,3c2.6,3.7,8.4,2.3,8.4-2c0-1.4-0.8-1.8-3.7-1.8C56.1,105.1,53.9,105.5,53.2,105.9z"/>
	<path d="M81.6,106.9c-2.3,2.5-2.8,12.5-0.6,13c2.8,0.5,6-3.1,6.6-7.6C88.4,106,85.1,103,81.6,106.9z M85.9,108
		c0,0.5-0.7,1.2-1.6,1.5c-1.2,0.4-1.5,1.5-1.2,3.7c0.6,3.7-0.8,4.8-1.6,1.3c-0.5-1.7-0.1-3.5,0.9-5C83.9,107.1,85.9,106.3,85.9,108z
		"/>
	<path d="M79.6,125.6c-0.9,6-4,11.8-7.7,14.5c-3,2.2-3.8,5.2-2,8c0.7,1.2,2,0.9,7.8-1.9c11-5.3,11.6-6,11.3-12.1
		c-0.2-3.6-1.1-6.5-2.8-9.1C82.8,119.6,80.3,119.8,79.6,125.6z"/>
	<path d="M49,126c0,0.5,1.2,0.8,2.6,0.8s3.1,0.6,3.7,1.2c0.9,1,0.6,1.1-1.4,0.6c-1.6-0.4-3-0.2-3.3,0.4c-0.4,0.7,0.1,1.1,1.3,1.1
		c2.3,0,2.7,1,0.9,2.8c-1.7,1.7,1.8,2.8,3.7,1.2c2.1-1.7,1.9-4.6-0.5-7C54,125.1,49,124.3,49,126z"/>
	<path d="M84.6,144.1c-3.2,2.2-8,4.7-10.5,5.6c-5.2,1.9-7.4,3.4-5.1,3.4c2.7,0,17.3-7.7,19.8-10.4C91.9,139.4,91.7,139.5,84.6,144.1
		z"/>
	<path d="M88.3,145.2c-4.6,3.7-14.5,8.6-19.1,9.5c-3,0.6-3.5,1.3-6.2,8.4c-1.7,4.3-3.7,11.8-4.6,16.5c-1.8,10.7-3.5,35.5-3.5,52.6
		c0,14.8-0.9,13.8,12.2,14.6l8.6,0.6l1.1-3.9c1.8-7,3.4-30.4,2.9-42.6c-0.5-10.5-0.8-12.1-2.7-13.9c-1.9-1.8-2.1-3-2.1-12.3
		c0-11.8,1.3-16,6-20c6.4-5.3,15.3-2.2,17.9,6.3c0.6,2.2,1.6,8.2,2.1,13.3c0.8,8.4,0.7,9.5-0.9,10.9c-1.6,1.3-1.9,3.7-2.3,17
		c-0.5,13.6-1,17-4.2,29.3c-2,7.6-3.6,14.1-3.6,14.3c0,0.9,7.9-0.6,11.7-2.2l3.6-1.5l-0.7-7.3c-0.5-3.9-1.1-21.8-1.5-39.7
		c-0.7-29.7-1-33-3-38.8c-1.9-5.6-6.5-14.2-7.5-14.2C92.3,142.1,90.4,143.5,88.3,145.2z"/>
	<path d="M99.6,149.8c2.2,3.5,4.3,5.3,6.3,5.3c1.6,0-3.1-5.5-6.2-7.2C97.8,147,97.8,147.1,99.6,149.8z"/>
	<path d="M83.2,155.1c-5.8,3.5-6.7,5.9-6.6,18.2c0,6.1,0.5,11.4,1.1,12c1.4,1.4,14.1,1.3,18.6-0.2l3.9-1.2l-0.7-8.4
		c-0.9-11-3-17.8-6.3-20.3C90.1,152.6,87.3,152.6,83.2,155.1z"/>
	<path d="M105.4,159.8c-0.9,2.4-0.6,53.8,0.4,68.8c0.7,9.7,0.6,12.5-0.6,14.5l-1.4,2.5l2-2.4c4.2-4.7,5.5-12.2,5.6-31.6
		c0.1-14.5,0.4-19.1,1.9-23.9c2.6-8.3,2.5-17-0.2-22.2C109.7,158.6,106.8,156.5,105.4,159.8z"/>
	<path d="M112.9,161.4c0,0.2,0.9,2.2,2,4.5c2.6,5.3,2.6,13.1,0,23.1c-1.6,6.3-1.9,10.9-1.9,23.8c0.1,17-1.1,24.2-5.3,31l-2,3.3h6.5
		c5.9,0,6.8-0.3,8.6-2.6c4.8-6.1,7-21,5.2-35c-1.1-8.4-1.1-9.5,1.3-18.8c2.8-10.5,3.2-16,1.6-21.7c-1.7-5.9-4.3-7.9-10.5-7.9
		C115.4,161.1,112.9,161.2,112.9,161.4z"/>
	<path d="M87.4,187.8l-7,0.4l0.9,10.9c0.7,8.4,0.5,14.8-0.7,27.7c-1.7,16.1-1.9,17.1-5.7,24.7c-2.2,4.3-4,8.1-4,8.4s1.1-0.5,2.5-1.8
		l2.5-2.3v3.9c0,2.1-0.4,5.4-0.9,7.2c-0.5,1.7-0.6,3.2-0.2,3.2c0.5,0,1.4-2.1,2.1-4.8c1.7-6.2,3.5-8.1,2.6-2.7c-0.4,2.2-1,4.9-1.3,6
		c-1.2,4.3,1.3,0.1,2.9-4.8c1.2-4,1.6-4.6,1.7-2.5c0.1,1.5-0.3,3.8-0.9,5.3c-0.5,1.4-0.6,2.4-0.1,2.1c0.5-0.3,1.4-2.6,2-5.1
		c1.4-5.4,2.6-6,1.8-0.8c-0.5,2.9-0.4,3.4,0.4,2c0.6-1,1.4-6.4,1.9-12c0.4-5.8,2.1-15.4,3.9-22.1c1.7-6.6,3.6-16,4.1-21
		c0.9-8.8,0.4-22.8-0.9-22.4C94.8,187.4,91.3,187.6,87.4,187.8z"/>
	<path d="M94.8,247.3l-4.6,1l-0.6,7.3c-0.4,4-1.1,8.4-1.6,9.8c-1.4,3.5-5.2,5.8-10.8,6.5l-4.6,0.5l0.6-5.5c0.6-4.9,0.5-5.6-1.1-5.4
		c-1.4,0.1-1.7-0.6-1.5-3.9c0.3-5.6-2-8.3-7.8-9.1l-4.6-0.6l1.3,7.8c0.7,4.4,2,17.9,2.8,30.2c0.8,12.2,1.8,22.7,2.1,23.1
		c0.3,0.5,3.7,1.5,7.6,2.1c6.9,1.2,14.8,0.8,21.9-1l3.5-0.9v-21.3c0-19.6,0.2-21.8,2.3-27.2c2.4-6.5,3-14.7,1-14.5
		C100.1,246.3,97.3,246.8,94.8,247.3z M90.8,274.3c0.8,0.8,1.2,5.2,1.2,13.4v12.2l-3.1,1.1c-4.6,1.6-16.1,1.4-18.4-0.3
		c-1.6-1.2-2-3-2.3-13.9c-0.5-14.6-1.6-13.4,12.4-13.6C86.3,273.1,89.9,273.5,90.8,274.3z"/>
	<path d="M71.1,276c-2.1,1.4-0.4,4.8,3.1,6c4.2,1.5,8.2,1.4,12.3-0.3c2.7-1.2,3.5-2.1,3.5-4c0-2.6,0-2.6-8.7-2.6
		C76.3,275.1,71.8,275.5,71.1,276z"/>
	<path d="M70.1,289.7c0.2,4.4,0.8,8.6,1.2,9.2c0.8,1.3,12.3,1.7,16.4,0.6c2.1-0.6,2.2-1.2,2.2-8.9v-8.3l-4,1.5c-3.7,1.5-4,1.9-4,5.5
		c0,2.1-0.4,3.8-1,3.8c-0.5,0-1-1.7-1-3.9c0-3.7-0.2-3.9-3.7-4.6c-2.1-0.4-4.4-1.2-5.2-1.8C69.8,281.8,69.8,282.9,70.1,289.7z"/>
	<path d="M69.9,249.5c0,0.2,0.6,0.9,1.4,1.5c1,0.9,1.5,0.8,2-0.4c0.4-1-0.1-1.5-1.4-1.5C70.8,249.1,69.9,249.3,69.9,249.5z"/>
	<path d="M72.3,333.1c1.1,11,2.2,19.8,2.4,19.5c0.7-0.7-3-39.5-3.8-39.5C70.6,313.1,71.2,322.1,72.3,333.1z"/>
	<path d="M73.3,315.1c0.3,0.8,1.2,10.8,2.2,22.2l1.8,20.8h5.3c2.9,0,5.3-0.3,5.3-0.8c0-0.4,0.7-6.8,1.5-14.2
		c1-8.4,1.3-16.6,0.9-21.6l-0.6-8h-8.4C74.4,313.6,73.1,313.9,73.3,315.1z"/>
	<path d="M74.2,358.1c0.5,4.4,1.7,4.9,1.7,0.7c0-2.1-0.4-3.7-1-3.7C74.4,355.1,74.1,356.5,74.2,358.1z"/>
	<path d="M77.1,362.6c0.4,3.5,3.4,5.4,7.8,4.7c2.7-0.4,3-0.8,3-4.1v-3.6h-5.5h-5.6L77.1,362.6z"/>
	<path d="M57,363.2c-35.7,2.9-60.1,10.2-57.4,17.2c2,5.4,20.5,10.8,47.4,13.8c15.8,1.8,58.7,1.5,75.3-0.5
		c22.7-2.8,40.5-8.3,42.4-13.2c0.3-0.9-0.7-2.8-2.3-4.5c-4.7-4.9-23.5-9.7-46.4-11.8c-21.9-2.1-26-2.2-26-0.7c0,1,3.4,1.4,14.3,2
		c29.1,1.3,52.2,6.1,54.1,11.3c5.5,14.1-101.3,19.9-143.2,7.7c-6.2-1.8-10.6-5.2-9.7-7.5c1.9-5,20.2-9.2,50.2-11.4
		c5.2-0.4,10-1.3,11-2.1c1-0.7,1.6-1.3,1.3-1.2C67.6,362.3,62.8,362.8,57,363.2z"/>
	<path d="M63.8,366.8c-4.9,2.5-8.8,4.9-8.8,5.4s1.6,0.9,3.5,0.9c4.4,0,16.7-6.7,16.3-8.9C74.2,361.8,72.8,362.1,63.8,366.8z"/>
	<path d="M90.4,373.8v7.7l-5,1.3c-5.7,1.6-23.6,2.2-27.9,1c-2.5-0.7-2.8-1.2-2.3-3.7c0.4-1.9,0.2-3-0.8-3.4c-2.8-1-1.7-5.5,1.8-7.7
		l3.2-2l-8.5,0.6c-12.6,1-28.7,3.3-34.9,5.1c-26.6,7.5,9.3,16.6,65.4,16.6c28.4,0,48.7-1.7,62.7-5.2c13.8-3.5,16.1-6.3,8-9.8
		c-7.7-3.3-25.6-5.9-53.7-7.6l-8-0.5C90.4,366.2,90.4,373.8,90.4,373.8z"/>
	<path d="M66.2,372.6c-5.1,3.1-9.3,6-9.3,6.6c0,1.3,20.4,1,26.5-0.4l5-1.2l0.3-4.5l0.3-4.5l-4.8-0.1c-2.6,0-5.7-0.4-6.8-0.8
		C76.1,367.2,72.8,368.6,66.2,372.6z"/>
	<path d="M84.4,380.3c-1.6,0.5-8.5,1-15.1,1.1c-6.7,0.1-11.7,0.5-11,0.9c1.7,1.2,16.5,0.9,23.2-0.3c5.8-1.1,10.7-2.9,7.4-2.8
		C88.1,379.2,86.1,379.7,84.4,380.3z"/>
	<path d="M-1,394.1c0,6.1,0.5,12,1,13.1c2.2,4.1,12.3,7.5,32.4,11c16.7,2.9,24.5,3.5,25,1.8c0.2-0.8,1.5-4.8,2.8-8.9l2.3-7.4
		l18.5,0.3c12.4,0.2,18.7,0.7,19.2,1.4c0.4,0.6,1.5,4.3,2.4,8.2c0.9,3.8,1.9,7.3,2.3,7.7c0.8,0.9,29.4-2.7,39.1-5l7.5-1.7l0.6-11
		c0.4-6.1,0.7-11.1,0.8-11.2c0-0.2,2-1.2,4.4-2.4c4.7-2.4,7.7-4.8,7.7-6.1c0-0.5-1.2,0-2.6,1.1c-5.8,4.5-24,9.1-44.9,11.1
		c-14.1,1.4-57.1,1.4-69.5,0c-23.7-2.7-39.7-6.5-46.2-11.1l-2.8-2C-1.1,383-1.1,394.1-1,394.1z"/>
	<path d="M61.1,414.3c-1.2,4.6-2.2,8.6-2.2,9c0,0.9,44,1.1,44,0.3c0-0.3-1-4.4-2.1-9l-2.1-8.5H81.1H63.5L61.1,414.3z"/>
</g>
<g id="_x37_">
	<path d="M-107-13.1c0.8,1-0.8,1.3-7.6,1.3c-6.3,0-9.5,0.5-11.7,1.7c-1.6,1-2.4,1.7-1.7,1.8c2.1,0,0.4,1.8-3.3,3.6
		c-1.9,0.8-4.1,2.7-5,4.1c-1.6,2.4-1.6,2.5,0.4,1.8c2.2-0.7,2.8,0.4,1.2,2c-1.4,1.7-3.1,7.5-2,7.5c0.5,0,0.9,1.7,1,3.7
		c0.1,3.7,0.1,3.7,1.3-1.4c1.6-6.4,4-10.3,6.6-10.3c1,0,2.2-0.5,2.5-1c1.1-1.8,2.6-1,2,1c-0.6,1.8-0.3,2,2.2,1.4
		c1.5-0.3,5.2-1.5,8.1-2.5c8.6-3.1,13.4-2.4,18.5,2.6c2.5,2.5,2.7,3.5,2.6,9c-0.1,3.4,0.4,7.2,1.1,8.5c1.6,3,0.8,18.4-1.5,25.7
		c-1.2,3.9-2.7,6.2-6.6,9.7c-2.8,2.5-5.5,4.6-5.9,4.6s-1.1-1.5-1.4-3.4c-0.4-1.8-1.4-4-2.4-4.8c-4.3-3.8-14.1-4.9-19.2-2.3
		c-2.4,1.3-3,2.2-3,5c0,1.8,0.5,3.7,1.1,4c0.6,0.4,1,0.1,0.8-0.6c-0.7-5.6,3.8-7.7,12.6-5.9c7.1,1.5,9.7,4.7,7.4,8.9
		c-1.2,2-2.2,2.6-4.9,2.6c-2.9,0-3.6-0.4-3.8-2.3c-0.4-2.9-5.1-3.1-5.9-0.2c-0.8,3-2.4,2.5-6.8-2c-2.1-2.2-4-3.8-4.2-3.6
		c-0.7,0.7,2.7,7.9,5.4,11.4c3,4,9.3,7.2,14.3,7.2c4.4,0,12.5-3.7,17.4-8c6.4-5.6,7.9-9.9,8.6-23.4c0.5-10.9,0.7-12,2.9-13.7
		c1.4-1.1,3.2-1.7,4.2-1.4c4,1.3,5.5-15.4,1.9-21.3c-2.4-4-2.5-4.3-0.2-3.5c1.5,0.6,1.5,0.5,0.3-1.1c-0.8-0.9-2.7-2.4-4.3-3.2
		c-1.5-0.8-2.8-2.2-2.9-3.2c0-1.1-0.2-1.2-0.6-0.4c-0.3,0.8-1.8-0.1-4.5-2.7C-96.3-10.6-110.2-16.9-107-13.1z"/>
	<path d="M-48.1-0.6c-1.2,1.2-0.7,2.1,1.4,2.6c1.8,0.5,1.9,0.8,0.7,2.9c-0.7,1.3-1.4,3-1.5,3.8c-0.3,2.1-5.1,15.1-6.5,17.5
		c-1,1.9-1,1.9,0.7,0.5s1.8-1.3,1.2,0.3c-1.6,4.3,1.6,0.1,3.9-5.1c1.3-3.1,3.6-7.1,4.9-8.8c1.4-1.8,2.5-3.7,2.5-4.2s0.7-1.6,1.6-2.3
		c1.4-1.1,1.8-1.1,2.9,0.5c1.3,1.6,1.4,1.6,2-0.3c0.4-1.4-0.2-2.9-2.1-5.1c-2.2-2.4-3.5-3-6.9-3C-45.6-1.3-47.8-1-48.1-0.6z"/>
	<path d="M-113.3,3.3c-5,1.8-8.4,2.4-11.7,2.1c-4.5-0.4-4.8-0.2-6.3,2.9c-0.8,1.7-1.5,5-1.5,7.2v4.1l4.8,0.3
		c4.3,0.3,4.7,0.5,4.7,2.8c0,2.4-0.2,2.5-5.1,2.2c-3.7-0.3-5.3,0-5.6,1c-0.4,1,0.3,1.3,2.8,1c2-0.3,4.4,0.2,5.8,1.2
		c1.8,1.1,2.6,1.2,2.9,0.3c0.3-0.8,0.7-0.6,1.2,0.6c0.5,1.1-0.3,4.8-1.8,9.4c-1.5,4.2-2.4,8-2,8.6c0.3,0.5,2.5,0.7,5,0.3
		c2.4-0.3,4.2-0.2,3.9,0.3c-0.3,0.4,1.2,1.3,3.3,1.9c4.4,1.4,6.9,3.8,8,7.8l0.7,2.8l4.1-3.7c5.4-5,7-8.5,8.4-19.4
		c1-7.8,0.9-9.8-0.5-14.7c-1-3.5-1.4-7-1-9.1c0.8-4.2-1.2-7.7-5.9-10.5C-103.2,0.2-104.8,0.2-113.3,3.3z M-100,21
		c2.7,2.5,3,5.1,0.5,4.3c-5.2-1.5-7.4-1.7-10.8-0.7c-4.1,1.1-7.5,0.1-7.5-2.4c0-1.8,1.1-2.4,6.2-3.4C-106.2,17.8-102.9,18.4-100,21z
		 M-101.9,29.2c2.1,2,1.7,6.6-0.9,8.7c-5.2,4.2-14.4,0.5-13.8-5.5c0.4-4.1,3.8-5.9,9.3-5.1C-105.1,27.6-102.7,28.5-101.9,29.2z
		 M-109.2,41.8c0.3,0.5,0.1,0.9-0.5,0.9c-1.7,0-4.1-1.2-4.1-2C-113.8,39.7-110,40.6-109.2,41.8z"/>
	<path d="M-113.3,20.6c-5.4,1.1-2.2,2.6,5.8,2.6c7.6,0,7.7,0,5.6-1.8C-104,19.7-107.8,19.4-113.3,20.6z"/>
	<path d="M-114.2,30.3c-2.1,2-2,3.7,0.2,5.7s9.2,2.3,11,0.5s1.4-5.6-0.7-6.8C-106.6,28.2-112.4,28.5-114.2,30.3z M-108.8,33.2
		c0,0.8-0.7,1.5-1.5,1.5c-1.6,0-2-1.2-0.8-2.3C-110,31.2-108.8,31.6-108.8,33.2z"/>
	<path d="M-51.2,7.2c-0.3,0.9,0,1.5,0.9,1.5c0.8,0,1.5-0.7,1.5-1.5s-0.4-1.5-0.9-1.5S-50.8,6.4-51.2,7.2z"/>
	<path d="M-53.3,12.7c-0.3,0.5-0.3,1.5,0.1,2.1c0.6,1.1,2.3-0.6,2.4-2.4C-50.8,11.4-52.6,11.5-53.3,12.7z"/>
	<path d="M-44.1,18.2c-0.8,1.8,1.1,3.1,2.5,1.7c1.1-1.1,0.3-3.2-1.2-3.2C-43.2,16.7-43.8,17.4-44.1,18.2z"/>
	<path d="M-56.1,18.3c-0.4,0.4-0.7,1.4-0.7,2.3c0,1.1,0.3,1.2,1.1,0.4c0.6-0.6,1-1.6,0.7-2.3C-55.2,18.1-55.7,17.9-56.1,18.3z"/>
	<path d="M-133.8,21.9c0,0.8,1.8,1.4,5,1.6c4.8,0.3,6.7-0.9,3.4-2.2C-128.2,20.2-133.8,20.6-133.8,21.9z"/>
	<path d="M-133.6,29.3c-2.4,1.7-2.9,5.3-1,7.2c1.7,1.7,7.4,1.5,9.2-0.4c2.1-2.1,2-4-0.4-6.4C-128.2,27.3-130.6,27.2-133.6,29.3z
		 M-129,32.9c-0.3,0.7-0.8,1.3-1.3,1.3s-1-0.6-1.2-1.3c-0.3-0.6,0.3-1.2,1.2-1.2C-129.4,31.7-128.8,32.3-129,32.9z"/>
	<path d="M-56.7,31.8c-0.6,1.8-0.9,3.4-0.7,3.6s0.9-1,1.5-2.8s0.9-3.4,0.7-3.6C-55.4,28.8-56.1,30-56.7,31.8z"/>
	<path d="M-85.6,31.9c-1.4,1.4-1.7,15.8-0.3,15.8c3,0,6.6-8.1,5.9-13.5C-80.3,30.9-83.4,29.7-85.6,31.9z M-80.8,33.7
		c0,0.5-0.6,1-1.4,1c-1.9,0-2.7,2.4-1.9,6c0.3,1.7,0.2,3-0.3,3c-1.4,0-1.6-8-0.3-9.6C-83.4,32.5-80.8,32.2-80.8,33.7z"/>
	<path d="M-56.3,36.8c-0.5,1.4-1,1.7-1.4,1s-1.4,0.3-2.4,2.4c-2,4.1-1.4,4.7,0.7,0.7c0.9-1.5,1.6-2.1,1.6-1.2c0,0.8,0.8,0.2,1.6-1.3
		c0.9-1.6,1.3-3.1,1.1-3.4C-55.4,34.8-55.9,35.5-56.3,36.8z"/>
	<path d="M-126.3,38.7c-0.5,0.8-2.2,1-4.6,0.7l-3.9-0.5l0.1,6.1c0,3.4,0.4,7.1,0.8,8.1c0.7,1.9,0.8,1.9,2.2-0.1
		c0.8-1.1,2.3-2.5,3.5-3.1c1.6-0.8,2-1.8,1.6-4.1c-0.2-1.7-0.8-3.1-1.3-3.1c-0.5,0-0.9-0.5-0.9-1c0-0.6,0.6-1,1.4-1
		c1.6,0,3.1-1.8,2.3-2.6C-125.4,37.8-125.9,38.1-126.3,38.7z"/>
	<path d="M-66.6,56.5c-5.7,11.9-9.5,21.2-8.9,21.9c0.3,0.2,1.5-2.4,2.7-5.7c1.6-4.2,2.6-5.7,3.1-4.8c0.7,1.1,0.9,1.1,0.9,0
		c0-0.7,0.4-1,1-0.7c0.6,0.4,0.7-0.1,0.3-1.1c-0.5-1.3-0.3-1.5,0.7-0.9c0.8,0.5,1.1,0.4,0.6-0.3c-0.3-0.6-0.2-2.2,0.4-3.7
		c0.7-1.7,0.7-2.4,0-2c-1.6,1-1.2-0.1,2.1-6.6c1.7-3.4,2.9-6.3,2.6-6.5C-61.3,45.9-63.8,50.6-66.6,56.5z M-67.8,63.7
		c-0.7,1.7-1.5,2.8-1.8,2.6c-0.2-0.3,0.1-1.9,0.8-3.6c0.7-1.7,1.5-2.8,1.8-2.6C-66.8,60.4-67.1,62-67.8,63.7z"/>
	<path d="M-67.8,53.5c-4.3,8.6-10.1,22.5-9.6,22.9c0.2,0.2,1.2-1.7,2.2-4.3c1.1-2.6,4.1-9.2,6.7-14.7s4.6-10.1,4.4-10.3
		S-65.9,49.8-67.8,53.5z"/>
	<path d="M-126.5,55.4c-1.8,0.7-1.6,5.8,0.2,7.3c1.3,1,1.5,0.9,1.5-0.9c0-2,0.5-2.2,4.3-1.9c2.4,0.2,4.3,0.8,4.3,1.5
		c0.1,0.7,0.2,1.7,0.3,2.3c0.1,1.4,3.4,1.3,4.9-0.2c2.2-2.2,1.4-5.7-1.8-7.3C-115.5,54.8-123.8,54.3-126.5,55.4z M-115.9,56.3
		c5.2,1.1,3.5,1.9-3.9,1.9c-3.8,0-7-0.3-7-0.7C-126.8,55.9-121.2,55.3-115.9,56.3z"/>
	<path d="M-97.1,69.2c-5.1,4.4-10.1,6.7-15.9,7.3c-4.2,0.4-4.8,0.8-4.8,2.7c0,7.8,14.4,7.1,22-1c2-2.1,2.5-3.7,2.5-7.6
		c0-2.7,0-4.9,0-4.9C-93.3,65.8-95,67.3-97.1,69.2z"/>
	<path d="M-71.8,74.3c-2.1,4.9-2.6,7-0.9,4.1s4-8.7,3.4-8.7C-69.6,69.7-70.8,71.8-71.8,74.3z"/>
	<path d="M-91.8,75c0,1.8-5.7,7.5-9.4,9.5c-1.7,0.8-5.4,1.6-8.2,1.6c-6.2,0.1-9.4-2.2-9.4-6.6c0-1.5-0.4-2.8-1-2.8
		c-1.8,0-1.1,5.6,1,8.3c5.4,6.9,21.2,3,27.1-6.7c2.1-3.5,2.4-4.6,0.9-4.6C-91.3,73.7-91.8,74.3-91.8,75z"/>
	<path d="M-88.5,76.5c-0.3,0.9-1.3,2.6-2.2,3.6c-1,1.2-0.1,0.9,2.2-0.8c4.2-3.2,4.2-3.2,2.2-4C-87.3,75-88.1,75.4-88.5,76.5z"/>
	<path d="M-90.4,83.9c-15.9,16.5-33.9,41-42,57c-2.7,5.3-3.4,8-3.4,12.5v5.7l7.4-12.1c13.4-22.1,30-44.5,43.4-58.5l8.3-8.6l-2.3-1.6
		c-1.2-0.9-2.7-1.6-3.4-1.6C-83,76.7-86.6,80-90.4,83.9z"/>
	<path d="M-126.8,80.4c-4.5,3-9.1,7.7-11,11.3c-1.5,3-2.5,6.8-5.6,21.8c-0.4,1.9,0.2,2.5,3,3.7c2,0.8,3.8,1.5,4.1,1.5s0.5-2,0.5-4.4
		c0-5.6,1.1-13.6,1.9-13.6c0.3,0,0.5,8.7,0.3,19.2l-0.3,19.3l5.8-9.5c8.7-14.2,21.3-30.8,31.7-41.9c2.8-3,4-4.7,2.6-3.8
		c-5.7,3.9-10.6,5.7-16.2,5.7c-7,0-11.8-3.3-11.8-8.1C-121.8,78.3-123.1,78-126.8,80.4z"/>
	<path d="M-79.3,84.8c-11.5,10.1-37.3,44.8-50.8,68.4c-4.3,7.4-4.7,8.7-5.3,17.2l-0.7,9.2l2.9,1.2c5.6,2.1,18.3,4,25.6,3.7l7.3-0.3
		v-4.3c0-2.4,0.6-4.6,1.3-5.1c0.7-0.4,6-1.6,11.8-2.6l10.4-1.8v-5.6c0-5.8-2.2-25.9-4.1-36.9c-0.7-3.7-1.6-6.2-2.4-6.2
		c-1.1,0-3.5-10.7-3.5-16.1c0-4.3,1.2-1,2.4,6.8l1.2,7.8l6-0.1c3.2,0,8.2-0.8,11.1-1.8c5.1-1.7,5.2-1.8,4.7-4.9
		c-2.4-13.6-6.4-24.4-10.8-28.6l-3.4-3.3L-79.3,84.8z"/>
	<path d="M-62.6,96.3c1,1.1,2.5,4,3.3,6.4c1.4,3.9,1.4,5.3,0.4,10.2c-0.7,3.2-1.7,5.8-2.1,5.8c-0.4,0-0.8,1.9-0.8,4.2v4.3l2.5-3.7
		c3.6-5.3,4.7-8.6,4.6-14.1c0-5.5-2.6-10.5-6.9-13.3C-64.3,94.4-64.3,94.4-62.6,96.3z"/>
	<path d="M-62.7,99.7c0,0.3,0.6,2.7,1.4,5.5c0.8,3,1.4,4,1.4,2.5C-59.9,105.7-62.5,98-62.7,99.7z"/>
	<path d="M-140.9,120c0,0.7-0.4,14.7-0.9,31.2c-0.4,16.5-1.4,32.7-2,36.1c-1.3,7-0.3,12.7,3,16.6l2,2.3l-0.3-2.6
		c-0.1-1.5-0.8-3.4-1.5-4.2s-1.5-3.9-1.7-6.8c-0.3-3.9-0.2-4.7,0.4-2.9c0.5,1.4,0.9,3.8,1,5.3c0.1,3.7,2.1,2.5,2.1-1.3
		c0-3.3,1.8-8.5,2.6-7.7c0.4,0.3,0.2,1.9-0.4,3.6c-0.8,2.1-0.7,3.9,0.3,6.8c1.4,3.8,1.4,3.7,1.5-4.8c0-4.7-0.4-8.9-0.9-9.5
		c-1-0.9-1.4-24.6-0.9-48.8c0.3-12.5,0.2-12.9-1.9-13.7C-140.1,119-140.8,119.1-140.9,120z"/>
	<path d="M-67.8,120.7c-1.4,0.4-4.6,0.8-7.2,0.9c-5.6,0.1-5.4-0.7-3.4,12.9c1.5,9.6,3.1,26.6,4,41.5c0.4,7.1,0.2,8-2,10.6
		c-2.5,3-5.9,11.1-4.6,11.1c0.4,0,1.3-0.9,2-2s1.7-2,2.2-2c1.3,0,1.3,5.9-0.1,9.8c-0.6,1.7-0.9,3.7-0.6,4.4c0.5,1.6,4.7-6.4,4.7-8.9
		c0-1.2,0.3-1.4,1.1-0.6c0.7,0.7,0.6,2.1-0.5,4.8c-2.1,4.9-2,5.5,0.4,2.6c1.1-1.3,2-3.4,2-4.7c0-1.2,0.5-2.6,1-2.9
		c0.6-0.3,1-0.1,1,0.5s0.4,0.8,1,0.5c1.2-0.8,0.2,2.1-1.9,5.5c-1,1.5-1.1,2.1-0.3,1.6c2.9-1.8,4.3-6.6,4.1-15.4
		c0-4.8,0.5-13,1.2-18.2c2.1-15.9,1.4-53.3-0.9-52.9C-65,119.9-66.4,120.3-67.8,120.7z"/>
	<path d="M-144.2,146.4c-1.4,1.4-3.5,7.2-4.1,11.6c-0.7,4.4,1.8,16.1,3.6,17.3c0.4,0.2,0.9-6.3,1.1-14.6c0.2-8.2,0.3-15,0.2-15
		C-143.4,145.7-143.8,146-144.2,146.4z"/>
	<path d="M-59.5,171.5c-1.7,0.3-2.3,1.2-2.8,5.5c-1.3,9.2-1.2,25.8,0.2,25.3c0.6-0.3,2.8-0.8,4.7-1.2c3.3-0.6,3.6-0.9,3.6-4.3
		c0-5.3-2.2-24.5-2.9-25.2C-57,171.3-58.3,171.3-59.5,171.5z"/>
	<path d="M-83.8,173.5c-8.3,1.8-9.4,2.2-8.9,2.7c0.4,0.4,15-2.5,15.8-3.2C-75.7,172.1-78,172.2-83.8,173.5z"/>
	<path d="M-85.3,176.9c-2.7,0.6-5.1,1.2-5.3,1.3c-0.3,0.3,1.6,20.9,2.4,26.2c0.4,3,0.7,3.2,3.7,2.6c4.2-0.7,5.7-2.2,6.7-6.7
		c0.8-3.5,0.7-3.7-0.9-2.2c-1.9,1.8-5.1,2.1-5.1,0.6c0-2,3.4-9.6,5.7-12.7c1.4-1.9,2.3-4.6,2.3-6.7
		C-75.8,175.2-76.3,175.1-85.3,176.9z"/>
	<path d="M-93.2,183.7c0.3,4.6,0.2,6.1-0.6,5c-0.5-0.8-1-1.1-1.1-0.5c-0.1,0.5-0.5-0.6-1-2.5c-0.6-2.5-0.6-1.7-0.3,2.8
		c0.3,3.5,0.9,7.5,1.5,8.9c0.5,1.3,0.9,3.5,0.9,4.8c0,1.4,0.9,2.9,2,3.5c2.4,1.3,2.6,0.2,0.5-2.6c-1.7-2.2-1.9-3.8-0.5-2.9
		c1.2,0.7,0.4-11.7-1.1-19C-93.6,178-93.6,178.6-93.2,183.7z"/>
	<path d="M-97.7,180.4c0,1.1,0.3,1.3,0.6,0.5c0.2-0.6,0.9-1,1.4-0.6c0.5,0.3,0.9,0,0.9-0.5c0-0.6-0.7-1.1-1.5-1.1
		C-97.1,178.7-97.8,179.5-97.7,180.4z"/>
	<path d="M-132.6,213l0.3,30.1l3,0.8c4,1.2,19.5,1.2,20.7,0c0.6-0.6,0.6-8.8,0.2-20.7l-0.7-19.7l-3.1-1.3c-1.7-0.6-4-1.5-5-1.9
		c-1-0.3-1.6-0.9-1.3-1.3c0.8-0.8,10,1.8,10.8,3c0.4,0.5,1,10.8,1.4,22.8l0.7,21.8l5.7,1.2c6,1.2,16.8,0.7,21.4-1
		c2.4-0.9,2.7-1.6,2.7-5.6c0-4.4,0-4.4-2.6-3.5c-3.3,1.3-10,1.3-12.5,0c-1.7-1-1.9-2.2-1.9-13.5v-12.4l3.8-0.7
		c9.1-1.5,9.5-2.1,1.4-1.9c-4.6,0.1-8.5-0.1-8.7-0.5c-0.2-0.3-1.1-5.5-2-11.5s-1.7-11-1.8-11c-0.1-0.1-2.6,0.1-5.4,0.3l-5.3,0.4
		l0.6,5.4c0.4,3.4,0.3,5.4-0.3,5.4c-1.1,0-2.3-4.6-2.3-8.5c0-1.4-0.7-2.5-1.9-2.8c-1.8-0.4-1.9,0-1.4,4.9c0.4,3.7,0.2,5.4-0.6,5.4
		c-0.6,0-1.1-1.7-1.1-4.3c0-2.3-0.4-4.7-0.8-5.3s-3.7-1.8-7.5-2.6l-6.7-1.5L-132.6,213z"/>
	<path d="M-137.7,200.2c-0.1,3.1,1.4,6.4,2.3,5.4c0.4-0.3,0-2.3-0.8-4.5C-137.6,197.3-137.7,197.3-137.7,200.2z"/>
	<path d="M-82.8,211.9c-3.6,0.6-6.6,1.2-6.8,1.3c-0.5,0.5,2,4.9,3.2,5.7c1.8,1.3,12.6-1.4,12.6-3.1c-0.1-1.7-1.3-5.1-1.9-5
		C-76,210.9-79.2,211.4-82.8,211.9z"/>
	<path d="M-90.8,226.1l0.5,10.1l6.8-0.1c9.2-0.1,10.1-1,9.2-10.1c-0.7-6.3-0.9-7-2.6-6.6c-1.6,0.4-1.9,1.5-1.9,6
		c0,3.3-0.4,5.2-1,4.8c-0.5-0.3-1-2.7-1-5.2c0-4.4-0.1-4.5-2.6-3.9c-2,0.5-3.1,0.1-5.2-2.2l-2.7-2.9L-90.8,226.1z"/>
	<path d="M-135.5,225.2c0,3.3,0.2,4.5,0.4,2.7s0.2-4.5,0-6S-135.5,221.9-135.5,225.2z"/>
	<path d="M-118,246.5c-6.5,0.2-7.8,0.6-7.8,2c0,2.3,3,33,3.6,36.9c0.5,3.1,0.7,3.3,4.9,3.3c2.4,0,4.7-0.5,5-1
		c1.4-2.3,3.7-31.2,2.9-36.3l-0.9-5.2L-118,246.5z"/>
	<path d="M-99.4,253.2c0.3,1.6,1.3,11.3,2.2,21.5c0.9,10.2,1.8,18.7,1.9,18.8c0.8,0.9,8.1,1.2,9.3,0.4c1.4-1,4.1-29.7,3.4-38.2
		l-0.4-5.5h-8.4h-8.5L-99.4,253.2z"/>
	<path d="M-121.8,292.4c0,2.6,2.7,4.3,6.9,4.3c3.5,0,4.1-0.6,3.4-4.1c-0.4-2.3-0.9-2.5-5.4-2.5
		C-121.3,290.1-121.8,290.3-121.8,292.4z"/>
	<path d="M-90.5,295.4c-6.7,0.5-7.3,3-1.2,5.5c5.2,2.2,6.9,1.5,6.9-2.8c0-1.9-0.1-3.3-0.2-3.2C-85.2,295-87.7,295.2-90.5,295.4z"/>
	<path d="M-132,302.7c-4.9,3.4-8.8,6.6-8.8,7.2c0,1.6,18.3,0.3,25.3-1.8c5.9-1.8,6.5-2.7,5.1-7.9c-0.4-1.6-1.4-2.1-4.2-2.2
		c-2,0-4.8-0.4-6.2-0.7C-122.8,296.7-125,297.8-132,302.7z"/>
	<path d="M-108.8,298.7c0,0.6,2.7,1,6,1s6-0.4,6-1s-2.7-1-6-1C-106.1,297.7-108.8,298.1-108.8,298.7z"/>
	<path d="M-144.8,299.8c-17.2,2-33.7,6.3-40.2,10.5c-12.1,7.8,6,15.8,44.7,20c18.9,2,61.4,1.4,77.5-1.1c20.9-3.2,34.5-7.9,37-12.5
		c1.5-2.9-2.8-7-10.2-9.8c-13.3-5-50.3-10.3-46.7-6.8c0.2,0.3,5.4,1,11.4,1.6c22.3,2.3,38.7,6.9,40,11.1c0.8,2.5,0,3.6-4.3,5.8
		c-10.3,5.2-36.9,8.4-71.2,8.5c-39.9,0-74.1-5.3-76.6-11.9c-2.2-5.6,14.4-11,41-13.5c6.1-0.5,11.4-1.4,12-2
		C-129.2,298.5-133.7,298.6-144.8,299.8z"/>
	<path d="M-108.4,305.9c0.1,4.1,0,4.2-4.6,6c-7.5,2.8-21.1,4.3-25.8,2.9c-3.2-0.9-4-1.7-4-3.5c0-2.2,2.5-5.2,6.5-7.5
		c1.6-1,0.6-1.1-5.5-0.6c-18.9,1.5-34.2,5-38.7,8.9l-2.7,2.3l2.7,1.8c3.9,2.5,14.6,5.1,29.9,7.2c18.7,2.5,69.6,2.5,87.8,0
		c32.8-4.6,39.1-10.5,17.3-16.1c-6.5-1.7-27.4-4.6-33.1-4.6h-3.7l0.3,6.4l0.4,6.4l-4.4,2.6c-9.3,5.4-23.9,7.1-25.5,3
		c-0.9-2.4,2.3-8.1,7.9-14l5.1-5.4h-5h-5L-108.4,305.9z"/>
	<path d="M-102,307.9c-3,3.5-6,7.3-6.7,8.5c-1,2-0.9,2.3,1.3,2.9c1.4,0.3,4.7,0.1,7.5-0.5c5-1.1,15.7-5.7,16.6-7.2
		c0.3-0.4,0.3-2.5-0.1-4.6c-0.6-3.7-0.7-3.9-3.9-3.5c-1.8,0.2-3.6-0.1-3.9-0.7C-92.9,300.1-96.6,301.8-102,307.9z"/>
	<path d="M-116.8,309.9c-4,1.2-10,2-15.7,2.1c-5.9,0.1-8.6,0.5-7.6,1.1c3.9,2.2,30.3-1.7,30.3-4.4c0-0.6-0.1-0.9-0.2-0.9
		C-110.2,307.9-113.2,308.8-116.8,309.9z"/>
	<path d="M-90.2,317c-3.8,1.9-8.5,3.2-13,3.8l-7.1,0.8l7.5-0.3c7.4-0.3,14-2.4,18.5-6C-81.4,313-83.5,313.6-90.2,317z"/>
	<path d="M-189.8,330.7c0,14,0.2,14.4,9.6,18c10.3,3.8,44.2,10,47.7,8.7c0.8-0.3,2.2-3.6,3.1-7.4c0.9-3.8,2.1-7.5,2.5-8.2
		c0.7-1.1,4.7-1.3,19.2-1.2c11,0.1,18.6,0.6,19,1.2c0.3,0.6,1.4,4.4,2.4,8.5c1.9,7.3,1.9,7.4,5.2,7.4c11.6,0,40.2-6,49.9-10.4
		l5.4-2.5v-12.4V320l-5.7,2.9c-13.1,6.4-34.4,9.7-67.3,10.5c-40.4,0.9-76.9-4.3-88.2-12.7l-2.8-2.1V330.7z"/>
	<path d="M-127.6,350.9c-1.2,4.6-2.2,8.6-2.2,9c0,0.5,10,0.8,22.1,0.8h22.1l-0.6-2.3c-0.3-1.2-1.3-5.2-2.3-9l-1.7-6.7h-17.6h-17.5
		L-127.6,350.9z"/>
</g>
<g id="_x38_">
	<path d="M355.8-166.1c0.8,1-0.8,1.3-7.2,1.2c-9.1,0-15.5,1.9-13.7,4c0.8,1,0.4,1.4-1.4,1.9c-2.8,0.7-8.6,5.3-8.6,6.8
		c0,0.6,0.7,0.7,1.6,0.4c1.2-0.5,1.5-0.2,0.9,1.1c-0.4,1-1.3,3.7-2.1,6c-1.1,3.6-1.1,4.1,0.2,3.6c1-0.4,1.4,0.4,1.5,2.8
		c0.1,2.7,0.3,2.3,1.3-2.3c1.3-6,3.8-9.8,6.6-9.8c0.9,0,2.1-0.5,2.8-1.2c1.7-1.7,2.8-0.2,1.2,1.7c-1.9,2.3,1.1,2,10.3-1.1
		c9.7-3.2,13.7-2.7,18.5,2.3c3,3.2,3.3,4,3.1,9.2c-0.2,3.1,0.4,7.7,1.1,10.3c1.9,6.4,0.1,21.1-3.3,27.7c-2.1,4.1-9.5,11.1-11.7,11.1
		c-0.5,0-1.1-1.3-1.5-2.9c-1.7-7.8-15.3-12.2-22-6.9c-2.3,1.8-2.6,2.6-2.1,5.7l0.5,3.6l-2-2.5l-2.1-2.5l0.7,3c0.3,1.6,1.8,5,3.3,7.5
		c7.1,11.7,22.5,11.7,34.3-0.1c6.3-6.3,7.8-10.7,7.9-22.4c0-11.9,1.2-15,5.5-15c3.8,0,5.3-3.5,5.4-12.5c0.1-4.8-0.4-7.3-1.9-9.8
		c-2.4-4-2.5-4.3-0.2-3.6c1.2,0.4,1,0-0.7-1.5c-1.3-1.2-2.9-2.1-3.6-2.1s-1.8-1.5-2.4-3.3c-0.8-2.2-1.4-2.8-2-1.9
		c-0.5,0.9-1.4,0.5-3.2-1.4c-2.6-2.8-8.5-6.1-13.2-7.5C355.4-167.1,355-167,355.8-166.1z M348.9-96.9c1.6,0.8,3.1,2.4,3.5,3.5
		c2,6.2-5.5,10.5-8.6,4.9c-1.3-2.5-4.9-2.5-5.6,0.1c-0.6,2.4-1.1,2.5-3.5,0.3c-2-1.8-2.4-7.3-0.6-9.1
		C335.8-98.9,345.4-98.7,348.9-96.9z"/>
	<path d="M335.7-96.3c-2.2,1.2-2.3,3.9-0.3,6.5c1.4,1.8,1.5,1.6,0.9-1.9l-0.6-3.7l4.3,0.1c2.4,0.1,5.5,0.5,6.9,0.9
		c1.9,0.6,0.9,0.8-3.7,0.9c-3.5,0.1-6.3,0.5-6.3,0.9s1.6,0.6,3.5,0.4c3-0.4,3.6-0.1,4.5,2.2c0.6,1.6,1.7,2.6,2.9,2.6
		c2.7,0,4.5-3.4,3.2-5.9C349.1-96.8,339.6-98.6,335.7-96.3z"/>
	<path d="M404.6-154.3c-0.4,1.5-0.2,1.9,0.8,1.5c2.7-1,2.6,1.3-0.5,12.6c-3.2,12.2-3.8,16-1.5,11.3c0.8-1.7,1.9-3.7,2.4-4.5
		c3.9-6.2,7.1-12.3,7.1-13.4c0-0.7,0.6-1.9,1.4-2.5c1-0.9,1.6-0.7,2.7,0.5c1.2,1.4,1.4,1.4,2.5-0.1c1.1-1.4,0.8-2.1-2.1-4.6
		c-2.6-2.3-4.2-2.9-7.8-2.9C405.9-156.4,405-156,404.6-154.3z"/>
	<path d="M349.9-149.7c-4.9,2.1-13.7,3.2-15,1.9c-1.4-1.4-3.6,1.4-5,6.4c-1.9,6.8-1.5,7.8,3.5,8.6c2.5,0.3,4.8,1,5.1,1.6
		c1.2,1.9-1.9,3.8-6.2,3.8c-2.4,0-4.4,0.4-4.4,0.9s-0.3,1.6-0.6,2.4c-0.4,1.2,0.6,1.6,5,1.9l5.5,0.3l-1.5-2.3
		c-1.7-2.6-1.2-2.9,1-0.6c2.2,2.1,2,7.3-0.4,13.5c-1,2.9-1.7,5.6-1.4,6.1c0.7,1.1,6.1,1,6.9-0.2c0.9-1.5,2.8-1.2,2.2,0.4
		c-0.4,0.9,0.4,1.6,2.5,2c3.4,0.7,9.8,6.6,9.8,9c0,2.6,1.6,1.9,6.3-2.8c5.7-5.8,7.2-11,7-24.1c-0.2-15.7-0.8-22.8-2.1-25.1
		C365.3-151.2,357.2-152.9,349.9-149.7z M359.8-132.9c2.3,1.1,4.1,3.3,4.1,4.8c0,0.6-18.7,0-19.7-0.6
		C338.5-132.3,353.3-136.3,359.8-132.9z M347.1-124.2c-2,2-1.4,2.3,5.3,2.3c3.6,0,6.5-0.3,6.5-0.8c0-0.4-0.4-0.7-1-0.7
		c-0.5,0-1-0.5-1-1.2c0-0.6,0.9-0.3,2,0.7c4.7,4.2,0.5,11.5-6.7,11.5c-4,0-8.3-3.7-8.3-7.2c0-2.6,2.8-7.3,3.8-6.3
		C348-125.6,347.7-124.8,347.1-124.2z M351-110.9c2.5,1,2.9,1.4,1.3,1.5c-1.1,0-2.9-0.7-4-1.5C345.8-112.8,346.8-112.8,351-110.9z"
		/>
	<path d="M346.7-131.7c-4.5,1.1-1,2.2,6.7,2c7.2-0.2,8.3-0.4,6.8-1.4C358.6-132.3,350.4-132.7,346.7-131.7z"/>
	<path d="M344.9-119.5c0,0.5,0.8,1.9,1.9,3.2c2.6,3.2,8.6,3.2,11.2,0c2.6-3.1,1.6-4.1-3.9-4.1c-3,0-4.2,0.3-3.3,0.9
		c0.9,0.6,1,1.1,0.2,1.5c-1.4,0.9-3.3-0.2-2.6-1.5c0.4-0.5-0.3-0.9-1.4-0.9C345.8-120.4,344.9-120,344.9-119.5z"/>
	<path d="M402.9-148.5c-1.3,2.6-1.3,2.8,0.6,3.5c1.2,0.4,1.4,0.1,0.9-1.4c-0.4-1.1-0.2-2,0.4-2s1.1-0.5,1.1-1
		C405.9-151.1,404-150.5,402.9-148.5z"/>
	<path d="M415-145.3c-1.9,0.8-2.1,1.2-1.1,2.4c0.7,0.9,1.4,1.4,1.5,1.3c0.6-0.7,2.5-4.8,2.3-4.7C417.5-146.3,416.3-145.8,415-145.3z
		"/>
	<path d="M400.9-141.9c-1.9,2.2-0.7,4.1,1.3,2.1c1.8-1.9,2.2-3.6,0.8-3.6C402.5-143.4,401.6-142.7,400.9-141.9z"/>
	<path d="M412.4-138.4c-0.4,0.6-1.1,0.8-1.6,0.5c-0.5-0.4-0.9,0-0.9,0.8c0,2.6,2.7,2.7,3.9,0.1C414.8-139.3,413.7-140.5,412.4-138.4
		z"/>
	<path d="M409.6-132.3c-2.1,1.2-2.2,2.6-0.2,2.6c0.8,0,1.7-0.7,2-1.5C412.1-133.2,411.7-133.4,409.6-132.3z"/>
	<path d="M327.9-130.5c0,1,6.9,2.3,8.2,1.5c0.4-0.3,0.6-1,0.3-1.5C335.6-131.6,327.9-131.7,327.9-130.5z"/>
	<path d="M400-119.9c-0.7,2-1.1,3.9-0.8,4.1c0.2,0.3,0.8-0.7,1.1-2.3c0.6-2.1,0.9-2.4,1.7-1.2c1,1.6,1.1,0.2,0-2.4
		C401.5-123.2,401.1-122.8,400-119.9z"/>
	<path d="M377.5-120.8c-0.9,0.8-1.6,2.5-1.6,3.7c0.1,2,0.2,2,1.6-0.6c0.8-1.5,1.9-2.7,2.4-2.7c1.5,0,1.2,1.6-0.5,3
		c-0.9,0.8-1.3,2.1-0.9,3.5c0.3,1.3,0.1,3.2-0.5,4.2c-0.9,1.5-1,1.3-1.1-1.7c-0.1-2.9-0.2-3.2-1.1-1.7c-1.5,2.5-0.7,8.2,1.1,8.2
		c2.1,0,6-7.4,6-11.7C382.9-121.2,380-123.4,377.5-120.8z"/>
	<path d="M328.2-120.7c-2.5,0.5-3.1,3.1-1.1,5.1c3.4,3.4,12.8-0.7,9.8-4.3C335.7-121.3,332.9-121.6,328.2-120.7z"/>
	<path d="M396.1-115.2c-1.6,6.3-2.5,11.4-1.9,10.8c0.7-0.7,3.8-14.2,3.4-14.7C397.3-119.3,396.7-117.5,396.1-115.2z"/>
	<path d="M327.9-106.1c0,4.1,0.2,7.6,0.5,7.9s1.8-0.7,3.3-2.2c3.3-3.2,4-10,1.1-10c-0.9,0-1.9-0.7-2.3-1.5
		C329.1-115.6,327.9-112.9,327.9-106.1z"/>
	<path d="M391.1-103.7c-0.6,2-0.7,3.2-0.2,2.7c1-1,2.5-6.4,1.8-6.4C392.4-107.4,391.7-105.8,391.1-103.7z"/>
	<path d="M390.4-98.2c-2.5,6.7-4.4,13.2-4.1,13.5c0.2,0.2,1.5-3,2.9-7.1c1.4-4.2,2.4-7.6,2.1-7.6C391-99.4,390.6-98.8,390.4-98.2z"
		/>
	<path d="M389-87.3c-2.2,6.8-3.9,12.4-3.7,12.6c0.2,0.2,2.2-5.1,4.5-11.8c2.2-6.8,3.9-12.4,3.7-12.6C393.3-99.3,391.3-94,389-87.3z"
		/>
	<path d="M389.1-80.7c-1.2,3.7-2,6.9-1.8,7.1s1.4-2.7,2.6-6.3c1.2-3.6,2-6.8,1.8-7C391.5-87.2,390.3-84.3,389.1-80.7z"/>
	<path d="M366.9-83.9c-3,3.2-13.3,8.3-18,8.8c-3,0.3-3.5,0.7-3.2,2.8c0.6,5.4,7.7,6.5,15.9,2.4c6.5-3.3,8.5-6.2,8.1-12.1l-0.3-4.6
		L366.9-83.9z"/>
	<path d="M384-79.8c-0.7,2-1.1,3.8-0.8,4c0.3,0.3,1-1.1,1.7-3.1C386.5-83.6,385.7-84.4,384-79.8z"/>
	<path d="M370.7-76.2c-3,6.8-14.5,12-21.4,9.8c-3.7-1.2-5.4-3.5-5.5-7.2v-2.3l-1.1,2.3c-1.6,3.3,0.4,7,4.9,8.8
		c3,1.3,4.7,1.4,9.2,0.5c8.5-1.7,16.7-8.6,15.9-13.3C372.3-79.6,372.1-79.5,370.7-76.2z"/>
	<path d="M372.8-73c-5.2,8.5-18.9,13.2-26.7,9.2c-1.8-0.9-3.2-1.3-3.2-0.9s1.2,4.3,2.6,8.7c3.3,9.8,12.7,28.4,20,39.3
		c5.5,8.2,18.1,24.3,19.2,24.3c0.8,0-0.6-20.8-2-29.1c-0.7-4.5-1.8-8-2.9-8.9c-1.7-1.5-4.3-17-2.8-17c0.7,0,1.2,2.5,2.5,11.4
		l0.7,4.9l6.6-0.6c3.6-0.3,8.7-1.3,11.3-2.2c5.4-1.9,5.3-1.2,1.6-16c-2.8-10.6-5.3-15.9-9.1-18.8c-3.2-2.4-14-8.7-14.8-8.7
		C375.6-77.4,374.2-75.4,372.8-73z"/>
	<path d="M336.7-72.8c-3.3,1.8-3.5,3.9-1.2,13.3c5.1,20.4,18.2,45.2,33.6,63.7c6.2,7.4,8.1,9.1,11.6,10c4.2,1.1,4.2,1.1,4.2-1.6
		c0-1.6-1-3.6-2.6-5.1c-4.2-3.9-15-18-20.9-27.4c-11.3-18-20.3-39.6-20.8-49.7c-0.1-2.6-0.4-4.8-0.7-4.8
		C339.6-74.3,338.2-73.6,336.7-72.8z"/>
	<path d="M329-65.2c-2.8,3.5-6.6,15-7.6,23.1c-0.6,5-0.5,6,1.1,7.2c4.2,3.2,5.1,2.1,5.8-7.7c0.5-8.3,1.1-10.8,1.9-9.7
		c0.2,0.2-0.1,13.2-0.7,28.9c-0.5,15.7-1,33.7-1,40l-0.1,11.5l5.5,2c4.5,1.6,8.2,1.9,20.7,2c8.3,0,15.4-0.3,15.8-0.7
		c0.3-0.3,1.3-3.6,2-7.3c0.8-3.7,1.9-7.3,2.6-8.1c0.8-1-0.4-3-5.6-8.9C352.8-12,339.3-38.1,332.2-65l-0.8-3.1L329-65.2z"/>
	<path d="M402.4-54.7c5.1,5.6,5.7,14.1,1.5,22.3c-1.9,3.6-2,5.2-1.4,14.3c0.4,6.2,1.5,13.2,3,18c3.8,12.5,3.1,19.6-3.1,28.7
		c-3.9,5.9-4.4,7.6-1.7,6.1c3.9-2.1,9.2-8.7,10.8-13.4C414,13.8,413,6,408-5.8c-2.3-5.7-4.1-11.5-4.1-13.7s1.4-6.7,3.5-11
		c5.4-11.3,4.5-18.7-2.8-24.3C400.2-58.2,399.2-58.1,402.4-54.7z"/>
	<path d="M402.3-46.2c1.6,6.1,2.2,7.5,2.4,5.4c0.5-4.2-0.6-8.7-2.6-11.4C400.4-54.4,400.4-53.9,402.3-46.2z"/>
	<path d="M323.8-27.2c-0.1,2.9-0.3,6.9-0.4,8.8c-0.2,1.9-0.1,2.9,0.2,2.2c0.5-1.4,2.3-1.6,2.3-0.3c0,0.5-0.7,1.6-1.5,2.4
		c-1.1,1.2-1.6,5.3-2,17.4c-0.3,8.7-1.3,20.7-2.2,26.8c-1.7,12.1-1.1,17.2,2.7,21.7l2,2.3l-0.7-3.5c-0.3-1.9-1.1-3.8-1.6-4.1
		c-1.4-1-2.7-10.2-1.6-11.3c0.5-0.6,0.9,0.4,1,2.5c0.1,3.9,1.7,8.9,1.8,5.5c0.1-3,2.3-9.6,3.2-9.6c0.5,0,0.4,1.1-0.1,2.5
		s-1.1,5.2-1.2,8.5c-0.2,4.7,0.2,6.4,1.6,7.8c1.8,1.6,1.8,1.6,1.1-0.8c-0.9-2.9-0.9-6.9,0-15.8c0.4-3.8,0.3-6.2-0.3-6.2
		c-1,0-2.1-4.8-2.5-10.8c-0.2-2.9-0.3-3.1-1.6-1.5c-1.3,1.7-1.3,1.7-0.6-0.2c0.4-1.1,0.9-3.1,1-4.5c0.6-6,0.4-5.6,1.5-4
		c0.7,1.1,1,0.2,1-3.3c0-3.3-0.4-4.6-1.1-4.1c-0.8,0.4-0.9-0.1-0.3-1.7c0.4-1.3,0.7-3,0.7-3.7c0-0.6,0.4-1.2,0.9-1.2
		c0.4,0,0.8-2.1,0.8-4.6s-0.4-4.3-0.8-4c-0.5,0.3-0.9-0.8-0.9-2.4c0-1.7,0.4-3,0.9-3c1.3,0,0.9-4.4-0.4-5.9
		c-0.8-0.9-0.8-1.1-0.2-0.8c1.5,0.9,1.4-4.5-0.1-5.5C324.4-33.1,323.9-32.3,323.8-27.2z M325.9,5.7c0,0.3-0.6,0.6-1.4,0.6
		s-1.1-0.8-0.8-2c0.4-1.4,0.7-1.6,1.3-0.5C325.5,4.5,325.9,5.4,325.9,5.7z"/>
	<path d="M390.1-30.6c-5.6,1.3-7.1,1.9-6.8,3.1c1.5,5.1,2.9,20,3.6,36.1l0.7,18.5l-2.8,5c-2.9,5.4-5.2,12.5-4,12.5
		c0.4,0,1.3-1.1,1.9-2.5c1.8-4,3.3-3,2.6,1.7c-0.3,2.4-1,5.9-1.5,7.8l-0.8,3.5l1.9-2.5c1.1-1.4,2.3-4.2,2.6-6.2
		c0.4-2.1,1-3.5,1.4-3.3c0.9,0.6-0.2,6.1-1.8,9.2c-1.8,3.3-1.4,4.1,0.8,1.4c1.1-1.3,2.3-4.1,2.6-6.2c0.4-2.2,1-3.9,1.5-3.9
		c1.1,0,1.1,0.7,0,4.8c-0.6,1.8-0.6,3-0.1,2.7s1.2-2.1,1.6-4c0.3-1.9,1-3.5,1.5-3.5s0.7,1.2,0.3,2.7c-0.4,2.2-0.3,2.5,0.5,1.3
		c0.6-0.8,1.1-6.2,1.1-12.1c0-5.8,0.7-15,1.5-20.5c0.8-5.4,1.8-14,2.2-18.9c0.7-11.5-0.5-28.6-2-28.4
		C397.9-32.2,394.1-31.4,390.1-30.6z"/>
	<path d="M401.9,0.1c0,2.2-0.9,9.6-2,16.5c-2.4,15.1-2.4,14.5-0.4,12.9c5-4.1,7.5-15.9,5.4-25C403.1-3.1,402-4.8,401.9,0.1z"/>
	<path d="M377.7,16.6c-1,0.6-1.4,1.8-1.1,3c0.3,1.1,0.9,1.7,1.4,1.4s0.7-1,0.4-1.5c-0.8-1.2,0.2-1.1,2.6,0.1
		c1.5,0.9,2.1,0.7,2.5-0.5c0.4-0.9,0.5-1.7,0.3-1.9C382.6,16.1,379.2,15.8,377.7,16.6z"/>
	<path d="M373.9,26.3c-0.3,2.9-0.1,4.8,0.3,4.4c0.5-0.5,0.7-2.8,0.5-5.2l-0.3-4.4L373.9,26.3z"/>
	<path d="M379.1,23.3c-1.9,1.7-4.6,12.8-3.5,14.5c1,1.8,4.1,0.6,5.1-2c1.4-3.6,2.3-14.2,1.2-14.2C381.5,21.6,380.2,22.4,379.1,23.3z
		"/>
	<path d="M383.9,26.8c0,3.2,0.3,3.9,1,2.8c1.3-2,1.3-7,0-7C384.4,22.6,383.9,24.5,383.9,26.8z"/>
	<path d="M331.2,50.2c0.4,10.4,0.7,23.9,0.7,30.1v11.2l3.8,1c4,1.2,16.1,1.5,18.6,0.5c1.3-0.5,1.6-2.6,1.6-12.3
		c0-18.8-1.1-31.1-2.7-31.1c-2.2,0-8.7-3-8-3.7c0.4-0.3,3.1,0.2,6.2,1.1c4.8,1.6,5.5,2.1,5.6,4.4c0,1.5,0.4,11.6,0.7,22.4
		c0.5,13.9,1.1,20.1,2,21c2,2,20.9,2.4,25.5,0.5c3.4-1.5,3.7-1.9,3.7-5.8s-0.1-4.1-2.6-3.5c-6.5,1.7-8.6,1.8-11.3,0.6
		c-2.9-1.2-2.9-1.3-3.6-11.3c-1.1-15.6-1.3-15,7.4-16.4c9-1.5,10.7-2.1,6.2-2.2l-3.4-0.1l0.6-4.3c0.2-2.3,0.8-5.1,1.2-6.2
		c0.7-1.6,0.6-1.8-0.6-0.8c-2.3,2.2-3.9,1.5-3.9-1.7c0-2.1-0.5-3-1.6-3c-0.9,0-3.1-1.5-4.8-3.3l-3.2-3.4l-8.3,0.5l-8.3,0.5l0.6,4.8
		c0.4,2.7,0.3,4.9-0.2,4.9s-1.2-2.3-1.6-5c-0.6-4.2-1-5-2.8-5c-1.9,0-2,0.4-1.5,4.5c0.8,5.4-0.9,6.1-1.8,0.7c-1-5.8-1.1-5.9-5.7-6.5
		c-2.3-0.4-5.4-1-6.7-1.3l-2.4-0.7L331.2,50.2z M372.7,41.6c1.6,2.9,1.9,4,0.9,4c-1.1,0-4.7-5.8-4.7-7.5
		C368.9,36.5,370.7,38.2,372.7,41.6z"/>
	<path d="M381.6,60.2c-3.7,0.6-7,1.4-7.4,1.7c-0.3,0.4,0.2,1.8,1.1,3.2c1.8,2.8,6,3.3,11.5,1.4c3-1.1,3.5-1.9,3.1-4.9
		C389.6,59.1,388.7,58.9,381.6,60.2z"/>
	<path d="M329.2,73.1c0,4.4,0.2,6.1,0.4,3.7c0.2-2.3,0.2-5.9,0-8C329.4,66.8,329.2,68.7,329.2,73.1z"/>
	<path d="M372.9,68.2c0,1.6,0.3,5.9,0.6,9.6c0.6,5.9,1,6.7,3,7.2c2.8,0.7,12.1-1.2,13-2.6c0.6-1,0.6-13.9,0-14.5
		c-0.1-0.1-1.2,0-2.4,0.4c-2,0.5-2.1,0.9-1.6,5.9c0.4,3.4,0.3,5.4-0.3,5.4c-0.6,0-1.3-2.3-1.7-5c-0.6-4.7-0.8-5-3.6-5
		c-1.7,0-3.8-0.9-5-2.2l-2-2.2V68.2z"/>
	<path d="M338.4,98.6c0.5,3.5,3.5,34.3,3.5,36.6c0,1.6,4.1,2.5,7.8,1.8l3-0.6l1.2-14.2c0.6-7.7,1-16.9,0.8-20.4l-0.3-6.3l-8.3-0.2
		l-8.3-0.2L338.4,98.6z"/>
	<path d="M364.9,99.8c0,0.7,0.9,10.1,2,20.8s2,20.1,2,20.8c0,0.9,1.5,1.2,5.3,1l5.2-0.3l1.2-12.5c0.6-6.9,1.2-16.7,1.2-21.8l0.1-9.2
		h-8.5C367.3,98.6,364.9,98.9,364.9,99.8z"/>
	<path d="M341.9,140.3c0,2.8,5.2,5.7,8.6,4.9c1.9-0.5,2.4-1.3,2.4-3.9v-3.2h-5.5C342.4,138.1,341.9,138.3,341.9,140.3z"/>
	<path d="M368.9,145.8c0,2.2,6.2,5.2,8.9,4.3c1.5-0.4,2.1-1.5,2.1-3.4c0-2.6-0.2-2.7-5.5-2.7C369.9,144.1,368.9,144.4,368.9,145.8z"
		/>
	<path d="M334.3,149.5c-3.8,2.6-7.7,5.8-8.8,6.9c-1.7,2-1.8,2.2-0.2,2.8c2.5,1,14-0.2,21.9-2.1l6.7-1.7v-4.6v-4.5l-3.4,0.6
		c-2.2,0.3-4.1,0-5.3-0.8C342.5,144,341.8,144.2,334.3,149.5z"/>
	<path d="M355.4,145.6c0.3,0.5,3.1,1,6.1,1s5.4-0.5,5.4-1c0-0.6-2.7-1-6.1-1C357.1,144.6,355,145,355.4,145.6z"/>
	<path d="M381.4,145.6c-0.4,0.6-0.5,1.2-0.4,1.4c0.2,0.1,6.5,0.8,13.9,1.4c22.5,2,40,6.5,41.7,10.8c1.2,3.2-4.6,7-14.3,9.2
		c-16.4,3.8-28.3,4.7-63.4,4.7c-34.5,0-42.5-0.6-60-4.6c-10.6-2.4-15-4.9-15-8.4c0-2.1,0.9-3,4.6-4.7c6.1-2.6,19.6-5.4,34.2-6.9
		c6.4-0.6,12.1-1.6,12.6-2c2.1-1.9-16.6-0.3-31.4,2.7c-16.3,3.4-26.4,8.3-25.8,12.7c1.4,9.8,46.5,17.8,92.3,16.4
		c35-1.2,59-5.5,68.3-12.4c4-3,4.1-5.4,0.2-8.6c-5.1-4.3-25.5-9.6-43.5-11.2c-3.8-0.3-8.4-0.8-10.2-1.1
		C383.5,144.8,381.8,145,381.4,145.6z"/>
	<path d="M355.7,153.2l-0.3,5.9l-5.5,1.9c-7.1,2.5-26.6,2.9-28,0.7c-1.2-2.1,0.7-5.3,5.5-9.2l4-3.2l-8,0.6
		c-15.6,1.2-34.8,5.6-37.9,8.7c-0.7,0.7-0.7,1.6,0,2.8c4.3,6.7,46.9,12.1,85.7,10.8c28.7-1,49.2-3.7,59-7.9c9-3.8,4.6-7.7-12.7-11.3
		c-5.7-1.2-30.9-4.3-35.3-4.4c-0.8,0-0.9,0.9-0.2,3.2c0.5,1.8,0.9,5,0.9,7.1c0,3.4-0.5,4-4.7,6.7c-5.8,3.7-11.1,5.3-18,5.4
		c-10.5,0.2-10.4-4.3,0.4-15.5c6.1-6.3,6.4-6.9,4.1-6.9c-1.4,0-3.9-0.3-5.6-0.6l-3.1-0.6L355.7,153.2z"/>
	<path d="M362.2,155.8c-3.3,3.5-6.5,7.3-7.2,8.5c-1,2-0.9,2.3,1.3,2.9c3.5,0.8,12.2-1.2,18.6-4.4c5.3-2.7,5.5-2.9,5.5-6.7
		c0-3.9-0.1-4-3.1-3.7c-1.9,0.2-3.6-0.3-4.4-1.3C370.7,148.4,368.4,149.5,362.2,155.8z"/>
	<path d="M348.9,158.3c-2.5,0.8-9.4,1.7-15.5,2.1c-8.8,0.4-10.3,0.7-7.5,1.4c5.6,1.3,27.1-1.9,28.5-4.3
		C355.2,156.4,354.5,156.5,348.9,158.3z"/>
	<path d="M374.9,164.3c-4.5,2.3-8.8,3.7-13.5,4.3l-7,0.9l7.2-0.3c7.3-0.3,16.5-3.7,19.3-7.1C382.5,160.2,382.6,160.2,374.9,164.3z"
		/>
	<path d="M278.1,178.2l0.3,12.7l4.5,2.3c7.7,3.9,27.7,8.4,48.1,10.8l4.7,0.5l2.4-8.7l2.3-8.7h18.9h18.9l2.5,8.9l2.5,8.8l6.1-0.6
		c21.6-2.3,43.1-7.4,49.7-11.9l3.4-2.3l0.3-12.2l0.3-12.3l-5.4,3.1c-20.2,11.4-85,15.5-127.9,8c-12.7-2.2-24.9-6-29.1-9.1l-2.8-2
		L278.1,178.2z"/>
	<path d="M340.1,196.5c-1.2,4.3-2.2,8.5-2.2,9.4c0,1.4,2.8,1.6,21.9,1.7l22,0.1l-2.4-8.8c-1.4-4.8-2.5-9.1-2.5-9.6
		c0-0.4-7.8-0.7-17.3-0.7h-17.4L340.1,196.5z"/>
</g>
</svg>
