<?xml version="1.0" encoding="utf-8"?>
<!-- Generator: Adobe Illustrator 30.3.0, SVG Export Plug-In . SVG Version: 9.03 Build 0)  -->
<svg version="1.0" id="Layer_1" xmlns="http://www.w3.org/2000/svg" xmlns:xlink="http://www.w3.org/1999/xlink" x="0px" y="0px"
	 viewBox="0 0 163.9 421" style="enable-background:new 0 0 163.9 421;" xml:space="preserve">
<g id="_x38_">
	<path d="M77.4,47.2c0.8,1-0.8,1.3-7.2,1.2c-9.1,0-15.5,1.9-13.7,4c0.8,1,0.4,1.4-1.4,1.9c-2.8,0.7-8.6,5.3-8.6,6.8
		c0,0.6,0.7,0.7,1.6,0.4c1.2-0.5,1.5-0.2,0.9,1.1c-0.4,1-1.3,3.7-2.1,6c-1.1,3.6-1.1,4.1,0.2,3.6c1-0.4,1.4,0.4,1.5,2.8
		c0.1,2.7,0.3,2.3,1.3-2.3c1.3-6,3.8-9.8,6.6-9.8c0.9,0,2.1-0.5,2.8-1.2c1.7-1.7,2.8-0.2,1.2,1.7c-1.9,2.3,1.1,2,10.3-1.1
		c9.7-3.2,13.7-2.7,18.5,2.3c3,3.2,3.3,4,3.1,9.2c-0.2,3.1,0.4,7.7,1.1,10.3c1.9,6.4,0.1,21.1-3.3,27.7c-2.1,4.1-9.5,11.1-11.7,11.1
		c-0.5,0-1.1-1.3-1.5-2.9c-1.7-7.8-15.3-12.2-22-6.9c-2.3,1.8-2.6,2.6-2.1,5.7l0.5,3.6l-2-2.5l-2.1-2.5l0.7,3c0.3,1.6,1.8,5,3.3,7.5
		c7.1,11.7,22.5,11.7,34.3-0.1c6.3-6.3,7.8-10.7,7.9-22.4c0-11.9,1.2-15,5.5-15c3.8,0,5.3-3.5,5.4-12.5c0.1-4.8-0.4-7.3-1.9-9.8
		c-2.4-4-2.5-4.3-0.2-3.6c1.2,0.4,1,0-0.7-1.5c-1.3-1.2-2.9-2.1-3.6-2.1s-1.8-1.5-2.4-3.3c-0.8-2.2-1.4-2.8-2-1.9
		c-0.5,0.9-1.4,0.5-3.2-1.4c-2.6-2.8-8.5-6.1-13.2-7.5C77,46.2,76.6,46.3,77.4,47.2z M70.5,116.4c1.6,0.8,3.1,2.4,3.5,3.5
		c2,6.2-5.5,10.5-8.6,4.9c-1.3-2.5-4.9-2.5-5.6,0.1c-0.6,2.4-1.1,2.5-3.5,0.3c-2-1.8-2.4-7.3-0.6-9.1
		C57.4,114.4,67,114.6,70.5,116.4z"/>
	<path d="M57.3,117c-2.2,1.2-2.3,3.9-0.3,6.5c1.4,1.8,1.5,1.6,0.9-1.9l-0.6-3.7l4.3,0.1c2.4,0.1,5.5,0.5,6.9,0.9
		c1.9,0.6,0.9,0.8-3.7,0.9c-3.5,0.1-6.3,0.5-6.3,0.9s1.6,0.6,3.5,0.4c3-0.4,3.6-0.1,4.5,2.2c0.6,1.6,1.7,2.6,2.9,2.6
		c2.7,0,4.5-3.4,3.2-5.9C70.7,116.5,61.2,114.7,57.3,117z"/>
	<path d="M126.2,59c-0.4,1.5-0.2,1.9,0.8,1.5c2.7-1,2.6,1.3-0.5,12.6c-3.2,12.2-3.8,16-1.5,11.3c0.8-1.7,1.9-3.7,2.4-4.5
		c3.9-6.2,7.1-12.3,7.1-13.4c0-0.7,0.6-1.9,1.4-2.5c1-0.9,1.6-0.7,2.7,0.5c1.2,1.4,1.4,1.4,2.5-0.1c1.1-1.4,0.8-2.1-2.1-4.6
		c-2.6-2.3-4.2-2.9-7.8-2.9C127.5,56.9,126.6,57.3,126.2,59z"/>
	<path d="M71.5,63.6c-4.9,2.1-13.7,3.2-15,1.9c-1.4-1.4-3.6,1.4-5,6.4c-1.9,6.8-1.5,7.8,3.5,8.6c2.5,0.3,4.8,1,5.1,1.6
		c1.2,1.9-1.9,3.8-6.2,3.8c-2.4,0-4.4,0.4-4.4,0.9s-0.3,1.6-0.6,2.4c-0.4,1.2,0.6,1.6,5,1.9l5.5,0.3l-1.5-2.3
		c-1.7-2.6-1.2-2.9,1-0.6c2.2,2.1,2,7.3-0.4,13.5c-1,2.9-1.7,5.6-1.4,6.1c0.7,1.1,6.1,1,6.9-0.2c0.9-1.5,2.8-1.2,2.2,0.4
		c-0.4,0.9,0.4,1.6,2.5,2c3.4,0.7,9.8,6.6,9.8,9c0,2.6,1.6,1.9,6.3-2.8c5.7-5.8,7.2-11,7-24.1c-0.2-15.7-0.8-22.8-2.1-25.1
		C86.9,62.1,78.8,60.4,71.5,63.6z M81.4,80.4c2.3,1.1,4.1,3.3,4.1,4.8c0,0.6-18.7,0-19.7-0.6C60.1,81,74.9,77,81.4,80.4z M68.7,89.1
		c-2,2-1.4,2.3,5.3,2.3c3.6,0,6.5-0.3,6.5-0.8c0-0.4-0.4-0.7-1-0.7c-0.5,0-1-0.5-1-1.2c0-0.6,0.9-0.3,2,0.7
		c4.7,4.2,0.5,11.5-6.7,11.5c-4,0-8.3-3.7-8.3-7.2c0-2.6,2.8-7.3,3.8-6.3C69.6,87.7,69.3,88.5,68.7,89.1z M72.6,102.4
		c2.5,1,2.9,1.4,1.3,1.5c-1.1,0-2.9-0.7-4-1.5C67.4,100.5,68.4,100.5,72.6,102.4z"/>
	<path d="M68.3,81.6c-4.5,1.1-1,2.2,6.7,2c7.2-0.2,8.3-0.4,6.8-1.4C80.2,81,72,80.6,68.3,81.6z"/>
	<path d="M66.5,93.8c0,0.5,0.8,1.9,1.9,3.2c2.6,3.2,8.6,3.2,11.2,0c2.6-3.1,1.6-4.1-3.9-4.1c-3,0-4.2,0.3-3.3,0.9
		c0.9,0.6,1,1.1,0.2,1.5c-1.4,0.9-3.3-0.2-2.6-1.5c0.4-0.5-0.3-0.9-1.4-0.9C67.4,92.9,66.5,93.3,66.5,93.8z"/>
	<path d="M124.5,64.8c-1.3,2.6-1.3,2.8,0.6,3.5c1.2,0.4,1.4,0.1,0.9-1.4c-0.4-1.1-0.2-2,0.4-2s1.1-0.5,1.1-1
		C127.5,62.2,125.6,62.8,124.5,64.8z"/>
	<path d="M136.6,68c-1.9,0.8-2.1,1.2-1.1,2.4c0.7,0.9,1.4,1.4,1.5,1.3c0.6-0.7,2.5-4.8,2.3-4.7C139.1,67,137.9,67.5,136.6,68z"/>
	<path d="M122.5,71.4c-1.9,2.2-0.7,4.1,1.3,2.1c1.8-1.9,2.2-3.6,0.8-3.6C124.1,69.9,123.2,70.6,122.5,71.4z"/>
	<path d="M134,74.9c-0.4,0.6-1.1,0.8-1.6,0.5c-0.5-0.4-0.9,0-0.9,0.8c0,2.6,2.7,2.7,3.9,0.1C136.4,74,135.3,72.8,134,74.9z"/>
	<path d="M131.2,81c-2.1,1.2-2.2,2.6-0.2,2.6c0.8,0,1.7-0.7,2-1.5C133.7,80.1,133.3,79.9,131.2,81z"/>
	<path d="M49.5,82.8c0,1,6.9,2.3,8.2,1.5c0.4-0.3,0.6-1,0.3-1.5C57.2,81.7,49.5,81.6,49.5,82.8z"/>
	<path d="M121.6,93.4c-0.7,2-1.1,3.9-0.8,4.1c0.2,0.3,0.8-0.7,1.1-2.3c0.6-2.1,0.9-2.4,1.7-1.2c1,1.6,1.1,0.2,0-2.4
		C123.1,90.1,122.7,90.5,121.6,93.4z"/>
	<path d="M99.1,92.5c-0.9,0.8-1.6,2.5-1.6,3.7c0.1,2,0.2,2,1.6-0.6c0.8-1.5,1.9-2.7,2.4-2.7c1.5,0,1.2,1.6-0.5,3
		c-0.9,0.8-1.3,2.1-0.9,3.5c0.3,1.3,0.1,3.2-0.5,4.2c-0.9,1.5-1,1.3-1.1-1.7c-0.1-2.9-0.2-3.2-1.1-1.7c-1.5,2.5-0.7,8.2,1.1,8.2
		c2.1,0,6-7.4,6-11.7C104.5,92.1,101.6,89.9,99.1,92.5z"/>
	<path d="M49.8,92.6c-2.5,0.5-3.1,3.1-1.1,5.1c3.4,3.4,12.8-0.7,9.8-4.3C57.3,92,54.5,91.7,49.8,92.6z"/>
	<path d="M117.7,98.1c-1.6,6.3-2.5,11.4-1.9,10.8c0.7-0.7,3.8-14.2,3.4-14.7C118.9,94,118.3,95.8,117.7,98.1z"/>
	<path d="M49.5,107.2c0,4.1,0.2,7.6,0.5,7.9s1.8-0.7,3.3-2.2c3.3-3.2,4-10,1.1-10c-0.9,0-1.9-0.7-2.3-1.5
		C50.7,97.7,49.5,100.4,49.5,107.2z"/>
	<path d="M112.7,109.6c-0.6,2-0.7,3.2-0.2,2.7c1-1,2.5-6.4,1.8-6.4C114,105.9,113.3,107.5,112.7,109.6z"/>
	<path d="M112,115.1c-2.5,6.7-4.4,13.2-4.1,13.5c0.2,0.2,1.5-3,2.9-7.1c1.4-4.2,2.4-7.6,2.1-7.6C112.6,113.9,112.2,114.5,112,115.1z
		"/>
	<path d="M110.6,126c-2.2,6.8-3.9,12.4-3.7,12.6c0.2,0.2,2.2-5.1,4.5-11.8c2.2-6.8,3.9-12.4,3.7-12.6
		C114.9,114,112.9,119.3,110.6,126z"/>
	<path d="M110.7,132.6c-1.2,3.7-2,6.9-1.8,7.1c0.2,0.2,1.4-2.7,2.6-6.3c1.2-3.6,2-6.8,1.8-7C113.1,126.1,111.9,129,110.7,132.6z"/>
	<path d="M88.5,129.4c-3,3.2-13.3,8.3-18,8.8c-3,0.3-3.5,0.7-3.2,2.8c0.6,5.4,7.7,6.5,15.9,2.4c6.5-3.3,8.5-6.2,8.1-12.1l-0.3-4.6
		L88.5,129.4z"/>
	<path d="M105.6,133.5c-0.7,2-1.1,3.8-0.8,4c0.3,0.3,1-1.1,1.7-3.1C108.1,129.7,107.3,128.9,105.6,133.5z"/>
	<path d="M92.3,137.1c-3,6.8-14.5,12-21.4,9.8c-3.7-1.2-5.4-3.5-5.5-7.2v-2.3l-1.1,2.3c-1.6,3.3,0.4,7,4.9,8.8
		c3,1.3,4.7,1.4,9.2,0.5c8.5-1.7,16.7-8.6,15.9-13.3C93.9,133.7,93.7,133.8,92.3,137.1z"/>
	<path d="M94.4,140.3c-5.2,8.5-18.9,13.2-26.7,9.2c-1.8-0.9-3.2-1.3-3.2-0.9s1.2,4.3,2.6,8.7c3.3,9.8,12.7,28.4,20,39.3
		c5.5,8.2,18.1,24.3,19.2,24.3c0.8,0-0.6-20.8-2-29.1c-0.7-4.5-1.8-8-2.9-8.9c-1.7-1.5-4.3-17-2.8-17c0.7,0,1.2,2.5,2.5,11.4
		l0.7,4.9l6.6-0.6c3.6-0.3,8.7-1.3,11.3-2.2c5.4-1.9,5.3-1.2,1.6-16c-2.8-10.6-5.3-15.9-9.1-18.8c-3.2-2.4-14-8.7-14.8-8.7
		C97.2,135.9,95.8,137.9,94.4,140.3z"/>
	<path d="M58.3,140.5c-3.3,1.8-3.5,3.9-1.2,13.3c5.1,20.4,18.2,45.2,33.6,63.7c6.2,7.4,8.1,9.1,11.6,10c4.2,1.1,4.2,1.1,4.2-1.6
		c0-1.6-1-3.6-2.6-5.1c-4.2-3.9-15-18-20.9-27.4c-11.3-18-20.3-39.6-20.8-49.7c-0.1-2.6-0.4-4.8-0.7-4.8
		C61.2,139,59.8,139.7,58.3,140.5z"/>
	<path d="M50.6,148.1c-2.8,3.5-6.6,15-7.6,23.1c-0.6,5-0.5,6,1.1,7.2c4.2,3.2,5.1,2.1,5.8-7.7c0.5-8.3,1.1-10.8,1.9-9.7
		c0.2,0.2-0.1,13.2-0.7,28.9c-0.5,15.7-1,33.7-1,40l-0.1,11.5l5.5,2c4.5,1.6,8.2,1.9,20.7,2c8.3,0,15.4-0.3,15.8-0.7
		c0.3-0.3,1.3-3.6,2-7.3c0.8-3.7,1.9-7.3,2.6-8.1c0.8-1-0.4-3-5.6-8.9c-16.6-19.1-30.1-45.2-37.2-72.1l-0.8-3.1L50.6,148.1z"/>
	<path d="M124,158.6c5.1,5.6,5.7,14.1,1.5,22.3c-1.9,3.6-2,5.2-1.4,14.3c0.4,6.2,1.5,13.2,3,18c3.8,12.5,3.1,19.6-3.1,28.7
		c-3.9,5.9-4.4,7.6-1.7,6.1c3.9-2.1,9.2-8.7,10.8-13.4c2.5-7.5,1.5-15.3-3.5-27.1c-2.3-5.7-4.1-11.5-4.1-13.7s1.4-6.7,3.5-11
		c5.4-11.3,4.5-18.7-2.8-24.3C121.8,155.1,120.8,155.2,124,158.6z"/>
	<path d="M123.9,167.1c1.6,6.1,2.2,7.5,2.4,5.4c0.5-4.2-0.6-8.7-2.6-11.4C122,158.9,122,159.4,123.9,167.1z"/>
	<path d="M45.4,186.1c-0.1,2.9-0.3,6.9-0.4,8.8c-0.2,1.9-0.1,2.9,0.2,2.2c0.5-1.4,2.3-1.6,2.3-0.3c0,0.5-0.7,1.6-1.5,2.4
		c-1.1,1.2-1.6,5.3-2,17.4c-0.3,8.7-1.3,20.7-2.2,26.8c-1.7,12.1-1.1,17.2,2.7,21.7l2,2.3l-0.7-3.5c-0.3-1.9-1.1-3.8-1.6-4.1
		c-1.4-1-2.7-10.2-1.6-11.3c0.5-0.6,0.9,0.4,1,2.5c0.1,3.9,1.7,8.9,1.8,5.5c0.1-3,2.3-9.6,3.2-9.6c0.5,0,0.4,1.1-0.1,2.5
		c-0.5,1.4-1.1,5.2-1.2,8.5c-0.2,4.7,0.2,6.4,1.6,7.8c1.8,1.6,1.8,1.6,1.1-0.8c-0.9-2.9-0.9-6.9,0-15.8c0.4-3.8,0.3-6.2-0.3-6.2
		c-1,0-2.1-4.8-2.5-10.8c-0.2-2.9-0.3-3.1-1.6-1.5c-1.3,1.7-1.3,1.7-0.6-0.2c0.4-1.1,0.9-3.1,1-4.5c0.6-6,0.4-5.6,1.5-4
		c0.7,1.1,1,0.2,1-3.3c0-3.3-0.4-4.6-1.1-4.1c-0.8,0.4-0.9-0.1-0.3-1.7c0.4-1.3,0.7-3,0.7-3.7c0-0.6,0.4-1.2,0.9-1.2
		c0.4,0,0.8-2.1,0.8-4.6s-0.4-4.3-0.8-4c-0.5,0.3-0.9-0.8-0.9-2.4c0-1.7,0.4-3,0.9-3c1.3,0,0.9-4.4-0.4-5.9
		c-0.8-0.9-0.8-1.1-0.2-0.8c1.5,0.9,1.4-4.5-0.1-5.5C46,180.2,45.5,181,45.4,186.1z M47.5,219c0,0.3-0.6,0.6-1.4,0.6s-1.1-0.8-0.8-2
		c0.4-1.4,0.7-1.6,1.3-0.5C47.1,217.8,47.5,218.7,47.5,219z"/>
	<path d="M111.7,182.7c-5.6,1.3-7.1,1.9-6.8,3.1c1.5,5.1,2.9,20,3.6,36.1l0.7,18.5l-2.8,5c-2.9,5.4-5.2,12.5-4,12.5
		c0.4,0,1.3-1.1,1.9-2.5c1.8-4,3.3-3,2.6,1.7c-0.3,2.4-1,5.9-1.5,7.8l-0.8,3.5l1.9-2.5c1.1-1.4,2.3-4.2,2.6-6.2
		c0.4-2.1,1-3.5,1.4-3.3c0.9,0.6-0.2,6.1-1.8,9.2c-1.8,3.3-1.4,4.1,0.8,1.4c1.1-1.3,2.3-4.1,2.6-6.2c0.4-2.2,1-3.9,1.5-3.9
		c1.1,0,1.1,0.7,0,4.8c-0.6,1.8-0.6,3-0.1,2.7c0.5-0.3,1.2-2.1,1.6-4c0.3-1.9,1-3.5,1.5-3.5s0.7,1.2,0.3,2.7
		c-0.4,2.2-0.3,2.5,0.5,1.3c0.6-0.8,1.1-6.2,1.1-12.1c0-5.8,0.7-15,1.5-20.5c0.8-5.4,1.8-14,2.2-18.9c0.7-11.5-0.5-28.6-2-28.4
		C119.5,181.1,115.7,181.9,111.7,182.7z"/>
	<path d="M123.5,213.4c0,2.2-0.9,9.6-2,16.5c-2.4,15.1-2.4,14.5-0.4,12.9c5-4.1,7.5-15.9,5.4-25
		C124.7,210.2,123.6,208.5,123.5,213.4z"/>
	<path d="M99.3,229.9c-1,0.6-1.4,1.8-1.1,3c0.3,1.1,0.9,1.7,1.4,1.4s0.7-1,0.4-1.5c-0.8-1.2,0.2-1.1,2.6,0.1
		c1.5,0.9,2.1,0.7,2.5-0.5c0.4-0.9,0.5-1.7,0.3-1.9C104.2,229.4,100.8,229.1,99.3,229.9z"/>
	<path d="M95.5,239.6c-0.3,2.9-0.1,4.8,0.3,4.4c0.5-0.5,0.7-2.8,0.5-5.2l-0.3-4.4L95.5,239.6z"/>
	<path d="M100.7,236.6c-1.9,1.7-4.6,12.8-3.5,14.5c1,1.8,4.1,0.6,5.1-2c1.4-3.6,2.3-14.2,1.2-14.2
		C103.1,234.9,101.8,235.7,100.7,236.6z"/>
	<path d="M105.5,240.1c0,3.2,0.3,3.9,1,2.8c1.3-2,1.3-7,0-7C106,235.9,105.5,237.8,105.5,240.1z"/>
	<path d="M52.8,263.5c0.4,10.4,0.7,23.9,0.7,30.1v11.2l3.8,1c4,1.2,16.1,1.5,18.6,0.5c1.3-0.5,1.6-2.6,1.6-12.3
		c0-18.8-1.1-31.1-2.7-31.1c-2.2,0-8.7-3-8-3.7c0.4-0.3,3.1,0.2,6.2,1.1c4.8,1.6,5.5,2.1,5.6,4.4c0,1.5,0.4,11.6,0.7,22.4
		c0.5,13.9,1.1,20.1,2,21c2,2,20.9,2.4,25.5,0.5c3.4-1.5,3.7-1.9,3.7-5.8c0-3.9-0.1-4.1-2.6-3.5c-6.5,1.7-8.6,1.8-11.3,0.6
		c-2.9-1.2-2.9-1.3-3.6-11.3c-1.1-15.6-1.3-15,7.4-16.4c9-1.5,10.7-2.1,6.2-2.2l-3.4-0.1l0.6-4.3c0.2-2.3,0.8-5.1,1.2-6.2
		c0.7-1.6,0.6-1.8-0.6-0.8c-2.3,2.2-3.9,1.5-3.9-1.7c0-2.1-0.5-3-1.6-3c-0.9,0-3.1-1.5-4.8-3.3l-3.2-3.4l-8.3,0.5l-8.3,0.5l0.6,4.8
		c0.4,2.7,0.3,4.9-0.2,4.9s-1.2-2.3-1.6-5c-0.6-4.2-1-5-2.8-5c-1.9,0-2,0.4-1.5,4.5c0.8,5.4-0.9,6.1-1.8,0.7c-1-5.8-1.1-5.9-5.7-6.5
		c-2.3-0.4-5.4-1-6.7-1.3l-2.4-0.7L52.8,263.5z M94.3,254.9c1.6,2.9,1.9,4,0.9,4c-1.1,0-4.7-5.8-4.7-7.5
		C90.5,249.8,92.3,251.5,94.3,254.9z"/>
	<path d="M103.2,273.5c-3.7,0.6-7,1.4-7.4,1.7c-0.3,0.4,0.2,1.8,1.1,3.2c1.8,2.8,6,3.3,11.5,1.4c3-1.1,3.5-1.9,3.1-4.9
		C111.2,272.4,110.3,272.2,103.2,273.5z"/>
	<path d="M50.8,286.4c0,4.4,0.2,6.1,0.4,3.7c0.2-2.3,0.2-5.9,0-8C51,280.1,50.8,282,50.8,286.4z"/>
	<path d="M94.5,281.5c0,1.6,0.3,5.9,0.6,9.6c0.6,5.9,1,6.7,3,7.2c2.8,0.7,12.1-1.2,13-2.6c0.6-1,0.6-13.9,0-14.5
		c-0.1-0.1-1.2,0-2.4,0.4c-2,0.5-2.1,0.9-1.6,5.9c0.4,3.4,0.3,5.4-0.3,5.4c-0.6,0-1.3-2.3-1.7-5c-0.6-4.7-0.8-5-3.6-5
		c-1.7,0-3.8-0.9-5-2.2l-2-2.2V281.5z"/>
	<path d="M60,311.9c0.5,3.5,3.5,34.3,3.5,36.6c0,1.6,4.1,2.5,7.8,1.8l3-0.6l1.2-14.2c0.6-7.7,1-16.9,0.8-20.4l-0.3-6.3l-8.3-0.2
		l-8.3-0.2L60,311.9z"/>
	<path d="M86.5,313.1c0,0.7,0.9,10.1,2,20.8s2,20.1,2,20.8c0,0.9,1.5,1.2,5.3,1l5.2-0.3l1.2-12.5c0.6-6.9,1.2-16.7,1.2-21.8l0.1-9.2
		H95C88.9,311.9,86.5,312.2,86.5,313.1z"/>
	<path d="M63.5,353.6c0,2.8,5.2,5.7,8.6,4.9c1.9-0.5,2.4-1.3,2.4-3.9v-3.2H69C64,351.4,63.5,351.6,63.5,353.6z"/>
	<path d="M90.5,359.1c0,2.2,6.2,5.2,8.9,4.3c1.5-0.4,2.1-1.5,2.1-3.4c0-2.6-0.2-2.7-5.5-2.7C91.5,357.4,90.5,357.7,90.5,359.1z"/>
	<path d="M55.9,362.8c-3.8,2.6-7.7,5.8-8.8,6.9c-1.7,2-1.8,2.2-0.2,2.8c2.5,1,14-0.2,21.9-2.1l6.7-1.7v-4.6v-4.5l-3.4,0.6
		c-2.2,0.3-4.1,0-5.3-0.8C64.1,357.3,63.4,357.5,55.9,362.8z"/>
	<path d="M77,358.9c0.3,0.5,3.1,1,6.1,1s5.4-0.5,5.4-1c0-0.6-2.7-1-6.1-1C78.7,357.9,76.6,358.3,77,358.9z"/>
	<path d="M103,358.9c-0.4,0.6-0.5,1.2-0.4,1.4c0.2,0.1,6.5,0.8,13.9,1.4c22.5,2,40,6.5,41.7,10.8c1.2,3.2-4.6,7-14.3,9.2
		c-16.4,3.8-28.3,4.7-63.4,4.7c-34.5,0-42.5-0.6-60-4.6c-10.6-2.4-15-4.9-15-8.4c0-2.1,0.9-3,4.6-4.7c6.1-2.6,19.6-5.4,34.2-6.9
		c6.4-0.6,12.1-1.6,12.6-2c2.1-1.9-16.6-0.3-31.4,2.7c-16.3,3.4-26.4,8.3-25.8,12.7C1.1,385,46.2,393,92,391.6
		c35-1.2,59-5.5,68.3-12.4c4-3,4.1-5.4,0.2-8.6c-5.1-4.3-25.5-9.6-43.5-11.2c-3.8-0.3-8.4-0.8-10.2-1.1
		C105.1,358.1,103.4,358.3,103,358.9z"/>
	<path d="M77.3,366.5l-0.3,5.9l-5.5,1.9c-7.1,2.5-26.6,2.9-28,0.7c-1.2-2.1,0.7-5.3,5.5-9.2l4-3.2l-8,0.6
		c-15.6,1.2-34.8,5.6-37.9,8.7c-0.7,0.7-0.7,1.6,0,2.8c4.3,6.7,46.9,12.1,85.7,10.8c28.7-1,49.2-3.7,59-7.9c9-3.8,4.6-7.7-12.7-11.3
		c-5.7-1.2-30.9-4.3-35.3-4.4c-0.8,0-0.9,0.9-0.2,3.2c0.5,1.8,0.9,5,0.9,7.1c0,3.4-0.5,4-4.7,6.7c-5.8,3.7-11.1,5.3-18,5.4
		c-10.5,0.2-10.4-4.3,0.4-15.5c6.1-6.3,6.4-6.9,4.1-6.9c-1.4,0-3.9-0.3-5.6-0.6l-3.1-0.6L77.3,366.5z"/>
	<path d="M83.8,369.1c-3.3,3.5-6.5,7.3-7.2,8.5c-1,2-0.9,2.3,1.3,2.9c3.5,0.8,12.2-1.2,18.6-4.4c5.3-2.7,5.5-2.9,5.5-6.7
		c0-3.9-0.1-4-3.1-3.7c-1.9,0.2-3.6-0.3-4.4-1.3C92.3,361.7,90,362.8,83.8,369.1z"/>
	<path d="M70.5,371.6c-2.5,0.8-9.4,1.7-15.5,2.1c-8.8,0.4-10.3,0.7-7.5,1.4c5.6,1.3,27.1-1.9,28.5-4.3
		C76.8,369.7,76.1,369.8,70.5,371.6z"/>
	<path d="M96.5,377.6c-4.5,2.3-8.8,3.7-13.5,4.3l-7,0.9l7.2-0.3c7.3-0.3,16.5-3.7,19.3-7.1C104.1,373.5,104.2,373.5,96.5,377.6z"/>
	<path d="M-0.3,391.5L0,404.2l4.5,2.3c7.7,3.9,27.7,8.4,48.1,10.8l4.7,0.5l2.4-8.7l2.3-8.7h18.9h18.9l2.5,8.9l2.5,8.8l6.1-0.6
		c21.6-2.3,43.1-7.4,49.7-11.9l3.4-2.3l0.3-12.2l0.3-12.3l-5.4,3.1c-20.2,11.4-85,15.5-127.9,8c-12.7-2.2-24.9-6-29.1-9.1l-2.8-2
		L-0.3,391.5z"/>
	<path d="M61.7,409.8c-1.2,4.3-2.2,8.5-2.2,9.4c0,1.4,2.8,1.6,21.9,1.7l22,0.1l-2.4-8.8c-1.4-4.8-2.5-9.1-2.5-9.6
		c0-0.4-7.8-0.7-17.3-0.7H63.8L61.7,409.8z"/>
</g>
</svg>
