<?xml version="1.0" encoding="utf-8"?>
<!-- Generator: Adobe Illustrator 30.3.0, SVG Export Plug-In . SVG Version: 9.03 Build 0)  -->
<svg version="1.0" id="Layer_1" xmlns="http://www.w3.org/2000/svg" xmlns:xlink="http://www.w3.org/1999/xlink" x="0px" y="0px"
	 viewBox="0 0 163.9 421" style="enable-background:new 0 0 163.9 421;" xml:space="preserve">
<g id="_x37_">
	<path d="M82.6,46.8c0.8,1-0.8,1.3-7.6,1.3c-6.3,0-9.5,0.5-11.7,1.7c-1.6,1-2.4,1.7-1.7,1.8c2.1,0,0.4,1.8-3.3,3.6
		c-1.9,0.8-4.1,2.7-5,4.1c-1.6,2.4-1.6,2.5,0.4,1.8c2.2-0.7,2.8,0.4,1.2,2c-1.4,1.7-3.1,7.5-2,7.5c0.5,0,0.9,1.7,1,3.7
		C54,78,54,78,55.2,72.9c1.6-6.4,4-10.3,6.6-10.3c1,0,2.2-0.5,2.5-1c1.1-1.8,2.6-1,2,1c-0.6,1.8-0.3,2,2.2,1.4
		c1.5-0.3,5.2-1.5,8.1-2.5c8.6-3.1,13.4-2.4,18.5,2.6c2.5,2.5,2.7,3.5,2.6,9c-0.1,3.4,0.4,7.2,1.1,8.5c1.6,3,0.8,18.4-1.5,25.7
		c-1.2,3.9-2.7,6.2-6.6,9.7c-2.8,2.5-5.5,4.6-5.9,4.6s-1.1-1.5-1.4-3.4c-0.4-1.8-1.4-4-2.4-4.8c-4.3-3.8-14.1-4.9-19.2-2.3
		c-2.4,1.3-3,2.2-3,5c0,1.8,0.5,3.7,1.1,4c0.6,0.4,1,0.1,0.8-0.6c-0.7-5.6,3.8-7.7,12.6-5.9c7.1,1.5,9.7,4.7,7.4,8.9
		c-1.2,2-2.2,2.6-4.9,2.6c-2.9,0-3.6-0.4-3.8-2.3c-0.4-2.9-5.1-3.1-5.9-0.2c-0.8,3-2.4,2.5-6.8-2c-2.1-2.2-4-3.8-4.2-3.6
		c-0.7,0.7,2.7,7.9,5.4,11.4c3,4,9.3,7.2,14.3,7.2c4.4,0,12.5-3.7,17.4-8c6.4-5.6,7.9-9.9,8.6-23.4c0.5-10.9,0.7-12,2.9-13.7
		c1.4-1.1,3.2-1.7,4.2-1.4c4,1.3,5.5-15.4,1.9-21.3c-2.4-4-2.5-4.3-0.2-3.5c1.5,0.6,1.5,0.5,0.3-1.1c-0.8-0.9-2.7-2.4-4.3-3.2
		c-1.5-0.8-2.8-2.2-2.9-3.2c0-1.1-0.2-1.2-0.6-0.4c-0.3,0.8-1.8-0.1-4.5-2.7C93.3,49.3,79.4,43,82.6,46.8z"/>
	<path d="M141.5,59.3c-1.2,1.2-0.7,2.1,1.4,2.6c1.8,0.5,1.9,0.8,0.7,2.9c-0.7,1.3-1.4,3-1.5,3.8c-0.3,2.1-5.1,15.1-6.5,17.5
		c-1,1.9-1,1.9,0.7,0.5s1.8-1.3,1.2,0.3c-1.6,4.3,1.6,0.1,3.9-5.1c1.3-3.1,3.6-7.1,4.9-8.8c1.4-1.8,2.5-3.7,2.5-4.2s0.7-1.6,1.6-2.3
		c1.4-1.1,1.8-1.1,2.9,0.5c1.3,1.6,1.4,1.6,2-0.3c0.4-1.4-0.2-2.9-2.1-5.1c-2.2-2.4-3.5-3-6.9-3C144,58.6,141.8,58.9,141.5,59.3z"/>
	<path d="M76.3,63.2c-5,1.8-8.4,2.4-11.7,2.1c-4.5-0.4-4.8-0.2-6.3,2.9c-0.8,1.7-1.5,5-1.5,7.2v4.1l4.8,0.3c4.3,0.3,4.7,0.5,4.7,2.8
		c0,2.4-0.2,2.5-5.1,2.2c-3.7-0.3-5.3,0-5.6,1c-0.4,1,0.3,1.3,2.8,1c2-0.3,4.4,0.2,5.8,1.2c1.8,1.1,2.6,1.2,2.9,0.3
		c0.3-0.8,0.7-0.6,1.2,0.6c0.5,1.1-0.3,4.8-1.8,9.4c-1.5,4.2-2.4,8-2,8.6c0.3,0.5,2.5,0.7,5,0.3c2.4-0.3,4.2-0.2,3.9,0.3
		c-0.3,0.4,1.2,1.3,3.3,1.9c4.4,1.4,6.9,3.8,8,7.8l0.7,2.8l4.1-3.7c5.4-5,7-8.5,8.4-19.4c1-7.8,0.9-9.8-0.5-14.7c-1-3.5-1.4-7-1-9.1
		c0.8-4.2-1.2-7.7-5.9-10.5C86.4,60.1,84.8,60.1,76.3,63.2z M89.6,80.9c2.7,2.5,3,5.1,0.5,4.3c-5.2-1.5-7.4-1.7-10.8-0.7
		c-4.1,1.1-7.5,0.1-7.5-2.4c0-1.8,1.1-2.4,6.2-3.4C83.4,77.7,86.7,78.3,89.6,80.9z M87.7,89.1c2.1,2,1.7,6.6-0.9,8.7
		c-5.2,4.2-14.4,0.5-13.8-5.5c0.4-4.1,3.8-5.9,9.3-5.1C84.5,87.5,86.9,88.4,87.7,89.1z M80.4,101.7c0.3,0.5,0.1,0.9-0.5,0.9
		c-1.7,0-4.1-1.2-4.1-2C75.8,99.6,79.6,100.5,80.4,101.7z"/>
	<path d="M76.3,80.5c-5.4,1.1-2.2,2.6,5.8,2.6c7.6,0,7.7,0,5.6-1.8C85.6,79.6,81.8,79.3,76.3,80.5z"/>
	<path d="M75.4,90.2c-2.1,2-2,3.7,0.2,5.7s9.2,2.3,11,0.5c1.8-1.8,1.4-5.6-0.7-6.8C83,88.1,77.2,88.4,75.4,90.2z M80.8,93.1
		c0,0.8-0.7,1.5-1.5,1.5c-1.6,0-2-1.2-0.8-2.3C79.6,91.1,80.8,91.5,80.8,93.1z"/>
	<path d="M138.4,67.1c-0.3,0.9,0,1.5,0.9,1.5c0.8,0,1.5-0.7,1.5-1.5c0-0.8-0.4-1.5-0.9-1.5S138.8,66.3,138.4,67.1z"/>
	<path d="M136.3,72.6c-0.3,0.5-0.3,1.5,0.1,2.1c0.6,1.1,2.3-0.6,2.4-2.4C138.8,71.3,137,71.4,136.3,72.6z"/>
	<path d="M145.5,78.1c-0.8,1.8,1.1,3.1,2.5,1.7c1.1-1.1,0.3-3.2-1.2-3.2C146.4,76.6,145.8,77.3,145.5,78.1z"/>
	<path d="M133.5,78.2c-0.4,0.4-0.7,1.4-0.7,2.3c0,1.1,0.3,1.2,1.1,0.4c0.6-0.6,1-1.6,0.7-2.3C134.4,78,133.9,77.8,133.5,78.2z"/>
	<path d="M55.8,81.8c0,0.8,1.8,1.4,5,1.6c4.8,0.3,6.7-0.9,3.4-2.2C61.4,80.1,55.8,80.5,55.8,81.8z"/>
	<path d="M56,89.2c-2.4,1.7-2.9,5.3-1,7.2c1.7,1.7,7.4,1.5,9.2-0.4c2.1-2.1,2-4-0.4-6.4C61.4,87.2,59,87.1,56,89.2z M60.6,92.8
		c-0.3,0.7-0.8,1.3-1.3,1.3s-1-0.6-1.2-1.3c-0.3-0.6,0.3-1.2,1.2-1.2C60.2,91.6,60.8,92.2,60.6,92.8z"/>
	<path d="M132.9,91.7c-0.6,1.8-0.9,3.4-0.7,3.6s0.9-1,1.5-2.8c0.6-1.8,0.9-3.4,0.7-3.6C134.2,88.7,133.5,89.9,132.9,91.7z"/>
	<path d="M104,91.8c-1.4,1.4-1.7,15.8-0.3,15.8c3,0,6.6-8.1,5.9-13.5C109.3,90.8,106.2,89.6,104,91.8z M108.8,93.6
		c0,0.5-0.6,1-1.4,1c-1.9,0-2.7,2.4-1.9,6c0.3,1.7,0.2,3-0.3,3c-1.4,0-1.6-8-0.3-9.6C106.2,92.4,108.8,92.1,108.8,93.6z"/>
	<path d="M133.3,96.7c-0.5,1.4-1,1.7-1.4,1c-0.4-0.7-1.4,0.3-2.4,2.4c-2,4.1-1.4,4.7,0.7,0.7c0.9-1.5,1.6-2.1,1.6-1.2
		c0,0.8,0.8,0.2,1.6-1.3c0.9-1.6,1.3-3.1,1.1-3.4C134.2,94.7,133.7,95.4,133.3,96.7z"/>
	<path d="M63.3,98.6c-0.5,0.8-2.2,1-4.6,0.7l-3.9-0.5l0.1,6.1c0,3.4,0.4,7.1,0.8,8.1c0.7,1.9,0.8,1.9,2.2-0.1
		c0.8-1.1,2.3-2.5,3.5-3.1c1.6-0.8,2-1.8,1.6-4.1c-0.2-1.7-0.8-3.1-1.3-3.1c-0.5,0-0.9-0.5-0.9-1c0-0.6,0.6-1,1.4-1
		c1.6,0,3.1-1.8,2.3-2.6C64.2,97.7,63.7,98,63.3,98.6z"/>
	<path d="M123,116.4c-5.7,11.9-9.5,21.2-8.9,21.9c0.3,0.2,1.5-2.4,2.7-5.7c1.6-4.2,2.6-5.7,3.1-4.8c0.7,1.1,0.9,1.1,0.9,0
		c0-0.7,0.4-1,1-0.7c0.6,0.4,0.7-0.1,0.3-1.1c-0.5-1.3-0.3-1.5,0.7-0.9c0.8,0.5,1.1,0.4,0.6-0.3c-0.3-0.6-0.2-2.2,0.4-3.7
		c0.7-1.7,0.7-2.4,0-2c-1.6,1-1.2-0.1,2.1-6.6c1.7-3.4,2.9-6.3,2.6-6.5C128.3,105.8,125.8,110.5,123,116.4z M121.8,123.6
		c-0.7,1.7-1.5,2.8-1.8,2.6c-0.2-0.3,0.1-1.9,0.8-3.6c0.7-1.7,1.5-2.8,1.8-2.6C122.8,120.3,122.5,121.9,121.8,123.6z"/>
	<path d="M121.8,113.4c-4.3,8.6-10.1,22.5-9.6,22.9c0.2,0.2,1.2-1.7,2.2-4.3c1.1-2.6,4.1-9.2,6.7-14.7s4.6-10.1,4.4-10.3
		S123.7,109.7,121.8,113.4z"/>
	<path d="M63.1,115.3c-1.8,0.7-1.6,5.8,0.2,7.3c1.3,1,1.5,0.9,1.5-0.9c0-2,0.5-2.2,4.3-1.9c2.4,0.2,4.3,0.8,4.3,1.5
		c0.1,0.7,0.2,1.7,0.3,2.3c0.1,1.4,3.4,1.3,4.9-0.2c2.2-2.2,1.4-5.7-1.8-7.3C74.1,114.7,65.8,114.2,63.1,115.3z M73.7,116.2
		c5.2,1.1,3.5,1.9-3.9,1.9c-3.8,0-7-0.3-7-0.7C62.8,115.8,68.4,115.2,73.7,116.2z"/>
	<path d="M92.5,129.1c-5.1,4.4-10.1,6.7-15.9,7.3c-4.2,0.4-4.8,0.8-4.8,2.7c0,7.8,14.4,7.1,22-1c2-2.1,2.5-3.7,2.5-7.6
		c0-2.7,0-4.9,0-4.9C96.3,125.7,94.6,127.2,92.5,129.1z"/>
	<path d="M117.8,134.2c-2.1,4.9-2.6,7-0.9,4.1c1.7-2.9,4-8.7,3.4-8.7C120,129.6,118.8,131.7,117.8,134.2z"/>
	<path d="M97.8,134.9c0,1.8-5.7,7.5-9.4,9.5c-1.7,0.8-5.4,1.6-8.2,1.6c-6.2,0.1-9.4-2.2-9.4-6.6c0-1.5-0.4-2.8-1-2.8
		c-1.8,0-1.1,5.6,1,8.3c5.4,6.9,21.2,3,27.1-6.7c2.1-3.5,2.4-4.6,0.9-4.6C98.3,133.6,97.8,134.2,97.8,134.9z"/>
	<path d="M101.1,136.4c-0.3,0.9-1.3,2.6-2.2,3.6c-1,1.2-0.1,0.9,2.2-0.8c4.2-3.2,4.2-3.2,2.2-4C102.3,134.9,101.5,135.3,101.1,136.4
		z"/>
	<path d="M99.2,143.8c-15.9,16.5-33.9,41-42,57c-2.7,5.3-3.4,8-3.4,12.5v5.7l7.4-12.1c13.4-22.1,30-44.5,43.4-58.5l8.3-8.6l-2.3-1.6
		c-1.2-0.9-2.7-1.6-3.4-1.6C106.6,136.6,103,139.9,99.2,143.8z"/>
	<path d="M62.8,140.3c-4.5,3-9.1,7.7-11,11.3c-1.5,3-2.5,6.8-5.6,21.8c-0.4,1.9,0.2,2.5,3,3.7c2,0.8,3.8,1.5,4.1,1.5s0.5-2,0.5-4.4
		c0-5.6,1.1-13.6,1.9-13.6c0.3,0,0.5,8.7,0.3,19.2l-0.3,19.3l5.8-9.5c8.7-14.2,21.3-30.8,31.7-41.9c2.8-3,4-4.7,2.6-3.8
		c-5.7,3.9-10.6,5.7-16.2,5.7c-7,0-11.8-3.3-11.8-8.1C67.8,138.2,66.5,137.9,62.8,140.3z"/>
	<path d="M110.3,144.7c-11.5,10.1-37.3,44.8-50.8,68.4c-4.3,7.4-4.7,8.7-5.3,17.2l-0.7,9.2l2.9,1.2c5.6,2.1,18.3,4,25.6,3.7l7.3-0.3
		v-4.3c0-2.4,0.6-4.6,1.3-5.1c0.7-0.4,6-1.6,11.8-2.6l10.4-1.8v-5.6c0-5.8-2.2-25.9-4.1-36.9c-0.7-3.7-1.6-6.2-2.4-6.2
		c-1.1,0-3.5-10.7-3.5-16.1c0-4.3,1.2-1,2.4,6.8l1.2,7.8l6-0.1c3.2,0,8.2-0.8,11.1-1.8c5.1-1.7,5.2-1.8,4.7-4.9
		c-2.4-13.6-6.4-24.4-10.8-28.6l-3.4-3.3L110.3,144.7z"/>
	<path d="M127,156.2c1,1.1,2.5,4,3.3,6.4c1.4,3.9,1.4,5.3,0.4,10.2c-0.7,3.2-1.7,5.8-2.1,5.8c-0.4,0-0.8,1.9-0.8,4.2v4.3l2.5-3.7
		c3.6-5.3,4.7-8.6,4.6-14.1c0-5.5-2.6-10.5-6.9-13.3C125.3,154.3,125.3,154.3,127,156.2z"/>
	<path d="M126.9,159.6c0,0.3,0.6,2.7,1.4,5.5c0.8,3,1.4,4,1.4,2.5C129.7,165.6,127.1,157.9,126.9,159.6z"/>
	<path d="M48.7,179.9c0,0.7-0.4,14.7-0.9,31.2c-0.4,16.5-1.4,32.7-2,36.1c-1.3,7-0.3,12.7,3,16.6l2,2.3l-0.3-2.6
		c-0.1-1.5-0.8-3.4-1.5-4.2c-0.7-0.8-1.5-3.9-1.7-6.8c-0.3-3.9-0.2-4.7,0.4-2.9c0.5,1.4,0.9,3.8,1,5.3c0.1,3.7,2.1,2.5,2.1-1.3
		c0-3.3,1.8-8.5,2.6-7.7c0.4,0.3,0.2,1.9-0.4,3.6c-0.8,2.1-0.7,3.9,0.3,6.8c1.4,3.8,1.4,3.7,1.5-4.8c0-4.7-0.4-8.9-0.9-9.5
		c-1-0.9-1.4-24.6-0.9-48.8c0.3-12.5,0.2-12.9-1.9-13.7C49.5,178.9,48.8,179,48.7,179.9z"/>
	<path d="M121.8,180.6c-1.4,0.4-4.6,0.8-7.2,0.9c-5.6,0.1-5.4-0.7-3.4,12.9c1.5,9.6,3.1,26.6,4,41.5c0.4,7.1,0.2,8-2,10.6
		c-2.5,3-5.9,11.1-4.6,11.1c0.4,0,1.3-0.9,2-2s1.7-2,2.2-2c1.3,0,1.3,5.9-0.1,9.8c-0.6,1.7-0.9,3.7-0.6,4.4c0.5,1.6,4.7-6.4,4.7-8.9
		c0-1.2,0.3-1.4,1.1-0.6c0.7,0.7,0.6,2.1-0.5,4.8c-2.1,4.9-2,5.5,0.4,2.6c1.1-1.3,2-3.4,2-4.7c0-1.2,0.5-2.6,1-2.9
		c0.6-0.3,1-0.1,1,0.5s0.4,0.8,1,0.5c1.2-0.8,0.2,2.1-1.9,5.5c-1,1.5-1.1,2.1-0.3,1.6c2.9-1.8,4.3-6.6,4.1-15.4
		c0-4.8,0.5-13,1.2-18.2c2.1-15.9,1.4-53.3-0.9-52.9C124.6,179.8,123.2,180.2,121.8,180.6z"/>
	<path d="M45.4,206.3c-1.4,1.4-3.5,7.2-4.1,11.6c-0.7,4.4,1.8,16.1,3.6,17.3c0.4,0.2,0.9-6.3,1.1-14.6c0.2-8.2,0.3-15,0.2-15
		C46.2,205.6,45.8,205.9,45.4,206.3z"/>
	<path d="M130.1,231.4c-1.7,0.3-2.3,1.2-2.8,5.5c-1.3,9.2-1.2,25.8,0.2,25.3c0.6-0.3,2.8-0.8,4.7-1.2c3.3-0.6,3.6-0.9,3.6-4.3
		c0-5.3-2.2-24.5-2.9-25.2C132.6,231.2,131.3,231.2,130.1,231.4z"/>
	<path d="M105.8,233.4c-8.3,1.8-9.4,2.2-8.9,2.7c0.4,0.4,15-2.5,15.8-3.2C113.9,232,111.6,232.1,105.8,233.4z"/>
	<path d="M104.3,236.8c-2.7,0.6-5.1,1.2-5.3,1.3c-0.3,0.3,1.6,20.9,2.4,26.2c0.4,3,0.7,3.2,3.7,2.6c4.2-0.7,5.7-2.2,6.7-6.7
		c0.8-3.5,0.7-3.7-0.9-2.2c-1.9,1.8-5.1,2.1-5.1,0.6c0-2,3.4-9.6,5.7-12.7c1.4-1.9,2.3-4.6,2.3-6.7
		C113.8,235.1,113.3,235,104.3,236.8z"/>
	<path d="M96.4,243.6c0.3,4.6,0.2,6.1-0.6,5c-0.5-0.8-1-1.1-1.1-0.5c-0.1,0.5-0.5-0.6-1-2.5c-0.6-2.5-0.6-1.7-0.3,2.8
		c0.3,3.5,0.9,7.5,1.5,8.9c0.5,1.3,0.9,3.5,0.9,4.8c0,1.4,0.9,2.9,2,3.5c2.4,1.3,2.6,0.2,0.5-2.6c-1.7-2.2-1.9-3.8-0.5-2.9
		c1.2,0.7,0.4-11.7-1.1-19C96,237.9,96,238.5,96.4,243.6z"/>
	<path d="M91.9,240.3c0,1.1,0.3,1.3,0.6,0.5c0.2-0.6,0.9-1,1.4-0.6c0.5,0.3,0.9,0,0.9-0.5c0-0.6-0.7-1.1-1.5-1.1
		C92.5,238.6,91.8,239.4,91.9,240.3z"/>
	<path d="M57,272.9l0.3,30.1l3,0.8c4,1.2,19.5,1.2,20.7,0c0.6-0.6,0.6-8.8,0.2-20.7l-0.7-19.7l-3.1-1.3c-1.7-0.6-4-1.5-5-1.9
		c-1-0.3-1.6-0.9-1.3-1.3c0.8-0.8,10,1.8,10.8,3c0.4,0.5,1,10.8,1.4,22.8l0.7,21.8l5.7,1.2c6,1.2,16.8,0.7,21.4-1
		c2.4-0.9,2.7-1.6,2.7-5.6c0-4.4,0-4.4-2.6-3.5c-3.3,1.3-10,1.3-12.5,0c-1.7-1-1.9-2.2-1.9-13.5v-12.4l3.8-0.7
		c9.1-1.5,9.5-2.1,1.4-1.9c-4.6,0.1-8.5-0.1-8.7-0.5c-0.2-0.3-1.1-5.5-2-11.5c-0.9-6-1.7-11-1.8-11c-0.1-0.1-2.6,0.1-5.4,0.3
		l-5.3,0.4l0.6,5.4c0.4,3.4,0.3,5.4-0.3,5.4c-1.1,0-2.3-4.6-2.3-8.5c0-1.4-0.7-2.5-1.9-2.8c-1.8-0.4-1.9,0-1.4,4.9
		c0.4,3.7,0.2,5.4-0.6,5.4c-0.6,0-1.1-1.7-1.1-4.3c0-2.3-0.4-4.7-0.8-5.3s-3.7-1.8-7.5-2.6l-6.7-1.5L57,272.9z"/>
	<path d="M51.9,260.1c-0.1,3.1,1.4,6.4,2.3,5.4c0.4-0.3,0-2.3-0.8-4.5C52,257.2,51.9,257.2,51.9,260.1z"/>
	<path d="M106.8,271.8c-3.6,0.6-6.6,1.2-6.8,1.3c-0.5,0.5,2,4.9,3.2,5.7c1.8,1.3,12.6-1.4,12.6-3.1c-0.1-1.7-1.3-5.1-1.9-5
		C113.6,270.8,110.4,271.3,106.8,271.8z"/>
	<path d="M98.8,286l0.5,10.1l6.8-0.1c9.2-0.1,10.1-1,9.2-10.1c-0.7-6.3-0.9-7-2.6-6.6c-1.6,0.4-1.9,1.5-1.9,6c0,3.3-0.4,5.2-1,4.8
		c-0.5-0.3-1-2.7-1-5.2c0-4.4-0.1-4.5-2.6-3.9c-2,0.5-3.1,0.1-5.2-2.2l-2.7-2.9L98.8,286z"/>
	<path d="M54.1,285.1c0,3.3,0.2,4.5,0.4,2.7c0.2-1.8,0.2-4.5,0-6S54.1,281.8,54.1,285.1z"/>
	<path d="M71.6,306.4c-6.5,0.2-7.8,0.6-7.8,2c0,2.3,3,33,3.6,36.9c0.5,3.1,0.7,3.3,4.9,3.3c2.4,0,4.7-0.5,5-1
		c1.4-2.3,3.7-31.2,2.9-36.3l-0.9-5.2L71.6,306.4z"/>
	<path d="M90.2,313.1c0.3,1.6,1.3,11.3,2.2,21.5c0.9,10.2,1.8,18.7,1.9,18.8c0.8,0.9,8.1,1.2,9.3,0.4c1.4-1,4.1-29.7,3.4-38.2
		l-0.4-5.5h-8.4h-8.5L90.2,313.1z"/>
	<path d="M67.8,352.3c0,2.6,2.7,4.3,6.9,4.3c3.5,0,4.1-0.6,3.4-4.1c-0.4-2.3-0.9-2.5-5.4-2.5C68.3,350,67.8,350.2,67.8,352.3z"/>
	<path d="M99.1,355.3c-6.7,0.5-7.3,3-1.2,5.5c5.2,2.2,6.9,1.5,6.9-2.8c0-1.9-0.1-3.3-0.2-3.2C104.4,354.9,101.9,355.1,99.1,355.3z"
		/>
	<path d="M57.6,362.6c-4.9,3.4-8.8,6.6-8.8,7.2c0,1.6,18.3,0.3,25.3-1.8c5.9-1.8,6.5-2.7,5.1-7.9c-0.4-1.6-1.4-2.1-4.2-2.2
		c-2,0-4.8-0.4-6.2-0.7C66.8,356.6,64.6,357.7,57.6,362.6z"/>
	<path d="M80.8,358.6c0,0.6,2.7,1,6,1s6-0.4,6-1s-2.7-1-6-1C83.5,357.6,80.8,358,80.8,358.6z"/>
	<path d="M44.8,359.7c-17.2,2-33.7,6.3-40.2,10.5c-12.1,7.8,6,15.8,44.7,20c18.9,2,61.4,1.4,77.5-1.1c20.9-3.2,34.5-7.9,37-12.5
		c1.5-2.9-2.8-7-10.2-9.8c-13.3-5-50.3-10.3-46.7-6.8c0.2,0.3,5.4,1,11.4,1.6c22.3,2.3,38.7,6.9,40,11.1c0.8,2.5,0,3.6-4.3,5.8
		c-10.3,5.2-36.9,8.4-71.2,8.5c-39.9,0-74.1-5.3-76.6-11.9c-2.2-5.6,14.4-11,41-13.5c6.1-0.5,11.4-1.4,12-2
		C60.4,358.4,55.9,358.5,44.8,359.7z"/>
	<path d="M81.2,365.8c0.1,4.1,0,4.2-4.6,6c-7.5,2.8-21.1,4.3-25.8,2.9c-3.2-0.9-4-1.7-4-3.5c0-2.2,2.5-5.2,6.5-7.5
		c1.6-1,0.6-1.1-5.5-0.6c-18.9,1.5-34.2,5-38.7,8.9l-2.7,2.3l2.7,1.8c3.9,2.5,14.6,5.1,29.9,7.2c18.7,2.5,69.6,2.5,87.8,0
		c32.8-4.6,39.1-10.5,17.3-16.1c-6.5-1.7-27.4-4.6-33.1-4.6h-3.7l0.3,6.4l0.4,6.4l-4.4,2.6c-9.3,5.4-23.9,7.1-25.5,3
		c-0.9-2.4,2.3-8.1,7.9-14l5.1-5.4h-5h-5L81.2,365.8z"/>
	<path d="M87.6,367.8c-3,3.5-6,7.3-6.7,8.5c-1,2-0.9,2.3,1.3,2.9c1.4,0.3,4.7,0.1,7.5-0.5c5-1.1,15.7-5.7,16.6-7.2
		c0.3-0.4,0.3-2.5-0.1-4.6c-0.6-3.7-0.7-3.9-3.9-3.5c-1.8,0.2-3.6-0.1-3.9-0.7C96.7,360,93,361.7,87.6,367.8z"/>
	<path d="M72.8,369.8c-4,1.2-10,2-15.7,2.1c-5.9,0.1-8.6,0.5-7.6,1.1c3.9,2.2,30.3-1.7,30.3-4.4c0-0.6-0.1-0.9-0.2-0.9
		C79.4,367.8,76.4,368.7,72.8,369.8z"/>
	<path d="M99.4,376.9c-3.8,1.9-8.5,3.2-13,3.8l-7.1,0.8l7.5-0.3c7.4-0.3,14-2.4,18.5-6C108.2,372.9,106.1,373.5,99.4,376.9z"/>
	<path d="M-0.2,390.6c0,14,0.2,14.4,9.6,18c10.3,3.8,44.2,10,47.7,8.7c0.8-0.3,2.2-3.6,3.1-7.4c0.9-3.8,2.1-7.5,2.5-8.2
		c0.7-1.1,4.7-1.3,19.2-1.2c11,0.1,18.6,0.6,19,1.2c0.3,0.6,1.4,4.4,2.4,8.5c1.9,7.3,1.9,7.4,5.2,7.4c11.6,0,40.2-6,49.9-10.4
		l5.4-2.5v-12.4v-12.4l-5.7,2.9c-13.1,6.4-34.4,9.7-67.3,10.5c-40.4,0.9-76.9-4.3-88.2-12.7l-2.8-2.1V390.6z"/>
	<path d="M62,410.8c-1.2,4.6-2.2,8.6-2.2,9c0,0.5,10,0.8,22.1,0.8H104l-0.6-2.3c-0.3-1.2-1.3-5.2-2.3-9l-1.7-6.7H81.8H64.3L62,410.8
		z"/>
</g>
<g id="_x38_">
	<path d="M355.8-166.1c0.8,1-0.8,1.3-7.2,1.2c-9.1,0-15.5,1.9-13.7,4c0.8,1,0.4,1.4-1.4,1.9c-2.8,0.7-8.6,5.3-8.6,6.8
		c0,0.6,0.7,0.7,1.6,0.4c1.2-0.5,1.5-0.2,0.9,1.1c-0.4,1-1.3,3.7-2.1,6c-1.1,3.6-1.1,4.1,0.2,3.6c1-0.4,1.4,0.4,1.5,2.8
		c0.1,2.7,0.3,2.3,1.3-2.3c1.3-6,3.8-9.8,6.6-9.8c0.9,0,2.1-0.5,2.8-1.2c1.7-1.7,2.8-0.2,1.2,1.7c-1.9,2.3,1.1,2,10.3-1.1
		c9.7-3.2,13.7-2.7,18.5,2.3c3,3.2,3.3,4,3.1,9.2c-0.2,3.1,0.4,7.7,1.1,10.3c1.9,6.4,0.1,21.1-3.3,27.7c-2.1,4.1-9.5,11.1-11.7,11.1
		c-0.5,0-1.1-1.3-1.5-2.9c-1.7-7.8-15.3-12.2-22-6.9c-2.3,1.8-2.6,2.6-2.1,5.7l0.5,3.6l-2-2.5l-2.1-2.5l0.7,3c0.3,1.6,1.8,5,3.3,7.5
		c7.1,11.7,22.5,11.7,34.3-0.1c6.3-6.3,7.8-10.7,7.9-22.4c0-11.9,1.2-15,5.5-15c3.8,0,5.3-3.5,5.4-12.5c0.1-4.8-0.4-7.3-1.9-9.8
		c-2.4-4-2.5-4.3-0.2-3.6c1.2,0.4,1,0-0.7-1.5c-1.3-1.2-2.9-2.1-3.6-2.1s-1.8-1.5-2.4-3.3c-0.8-2.2-1.4-2.8-2-1.9
		c-0.5,0.9-1.4,0.5-3.2-1.4c-2.6-2.8-8.5-6.1-13.2-7.5C355.4-167.1,355-167,355.8-166.1z M348.9-96.9c1.6,0.8,3.1,2.4,3.5,3.5
		c2,6.2-5.5,10.5-8.6,4.9c-1.3-2.5-4.9-2.5-5.6,0.1c-0.6,2.4-1.1,2.5-3.5,0.3c-2-1.8-2.4-7.3-0.6-9.1
		C335.8-98.9,345.4-98.7,348.9-96.9z"/>
	<path d="M335.7-96.3c-2.2,1.2-2.3,3.9-0.3,6.5c1.4,1.8,1.5,1.6,0.9-1.9l-0.6-3.7l4.3,0.1c2.4,0.1,5.5,0.5,6.9,0.9
		c1.9,0.6,0.9,0.8-3.7,0.9c-3.5,0.1-6.3,0.5-6.3,0.9s1.6,0.6,3.5,0.4c3-0.4,3.6-0.1,4.5,2.2c0.6,1.6,1.7,2.6,2.9,2.6
		c2.7,0,4.5-3.4,3.2-5.9C349.1-96.8,339.6-98.6,335.7-96.3z"/>
	<path d="M404.6-154.3c-0.4,1.5-0.2,1.9,0.8,1.5c2.7-1,2.6,1.3-0.5,12.6c-3.2,12.2-3.8,16-1.5,11.3c0.8-1.7,1.9-3.7,2.4-4.5
		c3.9-6.2,7.1-12.3,7.1-13.4c0-0.7,0.6-1.9,1.4-2.5c1-0.9,1.6-0.7,2.7,0.5c1.2,1.4,1.4,1.4,2.5-0.1c1.1-1.4,0.8-2.1-2.1-4.6
		c-2.6-2.3-4.2-2.9-7.8-2.9C405.9-156.4,405-156,404.6-154.3z"/>
	<path d="M349.9-149.7c-4.9,2.1-13.7,3.2-15,1.9c-1.4-1.4-3.6,1.4-5,6.4c-1.9,6.8-1.5,7.8,3.5,8.6c2.5,0.3,4.8,1,5.1,1.6
		c1.2,1.9-1.9,3.8-6.2,3.8c-2.4,0-4.4,0.4-4.4,0.9s-0.3,1.6-0.6,2.4c-0.4,1.2,0.6,1.6,5,1.9l5.5,0.3l-1.5-2.3
		c-1.7-2.6-1.2-2.9,1-0.6c2.2,2.1,2,7.3-0.4,13.5c-1,2.9-1.7,5.6-1.4,6.1c0.7,1.1,6.1,1,6.9-0.2c0.9-1.5,2.8-1.2,2.2,0.4
		c-0.4,0.9,0.4,1.6,2.5,2c3.4,0.7,9.8,6.6,9.8,9c0,2.6,1.6,1.9,6.3-2.8c5.7-5.8,7.2-11,7-24.1c-0.2-15.7-0.8-22.8-2.1-25.1
		C365.3-151.2,357.2-152.9,349.9-149.7z M359.8-132.9c2.3,1.1,4.1,3.3,4.1,4.8c0,0.6-18.7,0-19.7-0.6
		C338.5-132.3,353.3-136.3,359.8-132.9z M347.1-124.2c-2,2-1.4,2.3,5.3,2.3c3.6,0,6.5-0.3,6.5-0.8c0-0.4-0.4-0.7-1-0.7
		c-0.5,0-1-0.5-1-1.2c0-0.6,0.9-0.3,2,0.7c4.7,4.2,0.5,11.5-6.7,11.5c-4,0-8.3-3.7-8.3-7.2c0-2.6,2.8-7.3,3.8-6.3
		C348-125.6,347.7-124.8,347.1-124.2z M351-110.9c2.5,1,2.9,1.4,1.3,1.5c-1.1,0-2.9-0.7-4-1.5C345.8-112.8,346.8-112.8,351-110.9z"
		/>
	<path d="M346.7-131.7c-4.5,1.1-1,2.2,6.7,2c7.2-0.2,8.3-0.4,6.8-1.4C358.6-132.3,350.4-132.7,346.7-131.7z"/>
	<path d="M344.9-119.5c0,0.5,0.8,1.9,1.9,3.2c2.6,3.2,8.6,3.2,11.2,0c2.6-3.1,1.6-4.1-3.9-4.1c-3,0-4.2,0.3-3.3,0.9
		c0.9,0.6,1,1.1,0.2,1.5c-1.4,0.9-3.3-0.2-2.6-1.5c0.4-0.5-0.3-0.9-1.4-0.9C345.8-120.4,344.9-120,344.9-119.5z"/>
	<path d="M402.9-148.5c-1.3,2.6-1.3,2.8,0.6,3.5c1.2,0.4,1.4,0.1,0.9-1.4c-0.4-1.1-0.2-2,0.4-2s1.1-0.5,1.1-1
		C405.9-151.1,404-150.5,402.9-148.5z"/>
	<path d="M415-145.3c-1.9,0.8-2.1,1.2-1.1,2.4c0.7,0.9,1.4,1.4,1.5,1.3c0.6-0.7,2.5-4.8,2.3-4.7C417.5-146.3,416.3-145.8,415-145.3z
		"/>
	<path d="M400.9-141.9c-1.9,2.2-0.7,4.1,1.3,2.1c1.8-1.9,2.2-3.6,0.8-3.6C402.5-143.4,401.6-142.7,400.9-141.9z"/>
	<path d="M412.4-138.4c-0.4,0.6-1.1,0.8-1.6,0.5c-0.5-0.4-0.9,0-0.9,0.8c0,2.6,2.7,2.7,3.9,0.1C414.8-139.3,413.7-140.5,412.4-138.4
		z"/>
	<path d="M409.6-132.3c-2.1,1.2-2.2,2.6-0.2,2.6c0.8,0,1.7-0.7,2-1.5C412.1-133.2,411.7-133.4,409.6-132.3z"/>
	<path d="M327.9-130.5c0,1,6.9,2.3,8.2,1.5c0.4-0.3,0.6-1,0.3-1.5C335.6-131.6,327.9-131.7,327.9-130.5z"/>
	<path d="M400-119.9c-0.7,2-1.1,3.9-0.8,4.1c0.2,0.3,0.8-0.7,1.1-2.3c0.6-2.1,0.9-2.4,1.7-1.2c1,1.6,1.1,0.2,0-2.4
		C401.5-123.2,401.1-122.8,400-119.9z"/>
	<path d="M377.5-120.8c-0.9,0.8-1.6,2.5-1.6,3.7c0.1,2,0.2,2,1.6-0.6c0.8-1.5,1.9-2.7,2.4-2.7c1.5,0,1.2,1.6-0.5,3
		c-0.9,0.8-1.3,2.1-0.9,3.5c0.3,1.3,0.1,3.2-0.5,4.2c-0.9,1.5-1,1.3-1.1-1.7c-0.1-2.9-0.2-3.2-1.1-1.7c-1.5,2.5-0.7,8.2,1.1,8.2
		c2.1,0,6-7.4,6-11.7C382.9-121.2,380-123.4,377.5-120.8z"/>
	<path d="M328.2-120.7c-2.5,0.5-3.1,3.1-1.1,5.1c3.4,3.4,12.8-0.7,9.8-4.3C335.7-121.3,332.9-121.6,328.2-120.7z"/>
	<path d="M396.1-115.2c-1.6,6.3-2.5,11.4-1.9,10.8c0.7-0.7,3.8-14.2,3.4-14.7C397.3-119.3,396.7-117.5,396.1-115.2z"/>
	<path d="M327.9-106.1c0,4.1,0.2,7.6,0.5,7.9s1.8-0.7,3.3-2.2c3.3-3.2,4-10,1.1-10c-0.9,0-1.9-0.7-2.3-1.5
		C329.1-115.6,327.9-112.9,327.9-106.1z"/>
	<path d="M391.1-103.7c-0.6,2-0.7,3.2-0.2,2.7c1-1,2.5-6.4,1.8-6.4C392.4-107.4,391.7-105.8,391.1-103.7z"/>
	<path d="M390.4-98.2c-2.5,6.7-4.4,13.2-4.1,13.5c0.2,0.2,1.5-3,2.9-7.1c1.4-4.2,2.4-7.6,2.1-7.6C391-99.4,390.6-98.8,390.4-98.2z"
		/>
	<path d="M389-87.3c-2.2,6.8-3.9,12.4-3.7,12.6c0.2,0.2,2.2-5.1,4.5-11.8c2.2-6.8,3.9-12.4,3.7-12.6C393.3-99.3,391.3-94,389-87.3z"
		/>
	<path d="M389.1-80.7c-1.2,3.7-2,6.9-1.8,7.1s1.4-2.7,2.6-6.3c1.2-3.6,2-6.8,1.8-7C391.5-87.2,390.3-84.3,389.1-80.7z"/>
	<path d="M366.9-83.9c-3,3.2-13.3,8.3-18,8.8c-3,0.3-3.5,0.7-3.2,2.8c0.6,5.4,7.7,6.5,15.9,2.4c6.5-3.3,8.5-6.2,8.1-12.1l-0.3-4.6
		L366.9-83.9z"/>
	<path d="M384-79.8c-0.7,2-1.1,3.8-0.8,4c0.3,0.3,1-1.1,1.7-3.1C386.5-83.6,385.7-84.4,384-79.8z"/>
	<path d="M370.7-76.2c-3,6.8-14.5,12-21.4,9.8c-3.7-1.2-5.4-3.5-5.5-7.2v-2.3l-1.1,2.3c-1.6,3.3,0.4,7,4.9,8.8
		c3,1.3,4.7,1.4,9.2,0.5c8.5-1.7,16.7-8.6,15.9-13.3C372.3-79.6,372.1-79.5,370.7-76.2z"/>
	<path d="M372.8-73c-5.2,8.5-18.9,13.2-26.7,9.2c-1.8-0.9-3.2-1.3-3.2-0.9s1.2,4.3,2.6,8.7c3.3,9.8,12.7,28.4,20,39.3
		c5.5,8.2,18.1,24.3,19.2,24.3c0.8,0-0.6-20.8-2-29.1c-0.7-4.5-1.8-8-2.9-8.9c-1.7-1.5-4.3-17-2.8-17c0.7,0,1.2,2.5,2.5,11.4
		l0.7,4.9l6.6-0.6c3.6-0.3,8.7-1.3,11.3-2.2c5.4-1.9,5.3-1.2,1.6-16c-2.8-10.6-5.3-15.9-9.1-18.8c-3.2-2.4-14-8.7-14.8-8.7
		C375.6-77.4,374.2-75.4,372.8-73z"/>
	<path d="M336.7-72.8c-3.3,1.8-3.5,3.9-1.2,13.3c5.1,20.4,18.2,45.2,33.6,63.7c6.2,7.4,8.1,9.1,11.6,10c4.2,1.1,4.2,1.1,4.2-1.6
		c0-1.6-1-3.6-2.6-5.1c-4.2-3.9-15-18-20.9-27.4c-11.3-18-20.3-39.6-20.8-49.7c-0.1-2.6-0.4-4.8-0.7-4.8
		C339.6-74.3,338.2-73.6,336.7-72.8z"/>
	<path d="M329-65.2c-2.8,3.5-6.6,15-7.6,23.1c-0.6,5-0.5,6,1.1,7.2c4.2,3.2,5.1,2.1,5.8-7.7c0.5-8.3,1.1-10.8,1.9-9.7
		c0.2,0.2-0.1,13.2-0.7,28.9c-0.5,15.7-1,33.7-1,40l-0.1,11.5l5.5,2c4.5,1.6,8.2,1.9,20.7,2c8.3,0,15.4-0.3,15.8-0.7
		c0.3-0.3,1.3-3.6,2-7.3c0.8-3.7,1.9-7.3,2.6-8.1c0.8-1-0.4-3-5.6-8.9C352.8-12,339.3-38.1,332.2-65l-0.8-3.1L329-65.2z"/>
	<path d="M402.4-54.7c5.1,5.6,5.7,14.1,1.5,22.3c-1.9,3.6-2,5.2-1.4,14.3c0.4,6.2,1.5,13.2,3,18c3.8,12.5,3.1,19.6-3.1,28.7
		c-3.9,5.9-4.4,7.6-1.7,6.1c3.9-2.1,9.2-8.7,10.8-13.4C414,13.8,413,6,408-5.8c-2.3-5.7-4.1-11.5-4.1-13.7s1.4-6.7,3.5-11
		c5.4-11.3,4.5-18.7-2.8-24.3C400.2-58.2,399.2-58.1,402.4-54.7z"/>
	<path d="M402.3-46.2c1.6,6.1,2.2,7.5,2.4,5.4c0.5-4.2-0.6-8.7-2.6-11.4C400.4-54.4,400.4-53.9,402.3-46.2z"/>
	<path d="M323.8-27.2c-0.1,2.9-0.3,6.9-0.4,8.8c-0.2,1.9-0.1,2.9,0.2,2.2c0.5-1.4,2.3-1.6,2.3-0.3c0,0.5-0.7,1.6-1.5,2.4
		c-1.1,1.2-1.6,5.3-2,17.4c-0.3,8.7-1.3,20.7-2.2,26.8c-1.7,12.1-1.1,17.2,2.7,21.7l2,2.3l-0.7-3.5c-0.3-1.9-1.1-3.8-1.6-4.1
		c-1.4-1-2.7-10.2-1.6-11.3c0.5-0.6,0.9,0.4,1,2.5c0.1,3.9,1.7,8.9,1.8,5.5c0.1-3,2.3-9.6,3.2-9.6c0.5,0,0.4,1.1-0.1,2.5
		s-1.1,5.2-1.2,8.5c-0.2,4.7,0.2,6.4,1.6,7.8c1.8,1.6,1.8,1.6,1.1-0.8c-0.9-2.9-0.9-6.9,0-15.8c0.4-3.8,0.3-6.2-0.3-6.2
		c-1,0-2.1-4.8-2.5-10.8c-0.2-2.9-0.3-3.1-1.6-1.5c-1.3,1.7-1.3,1.7-0.6-0.2c0.4-1.1,0.9-3.1,1-4.5c0.6-6,0.4-5.6,1.5-4
		c0.7,1.1,1,0.2,1-3.3c0-3.3-0.4-4.6-1.1-4.1c-0.8,0.4-0.9-0.1-0.3-1.7c0.4-1.3,0.7-3,0.7-3.7c0-0.6,0.4-1.2,0.9-1.2
		c0.4,0,0.8-2.1,0.8-4.6s-0.4-4.3-0.8-4c-0.5,0.3-0.9-0.8-0.9-2.4c0-1.7,0.4-3,0.9-3c1.3,0,0.9-4.4-0.4-5.9
		c-0.8-0.9-0.8-1.1-0.2-0.8c1.5,0.9,1.4-4.5-0.1-5.5C324.4-33.1,323.9-32.3,323.8-27.2z M325.9,5.7c0,0.3-0.6,0.6-1.4,0.6
		s-1.1-0.8-0.8-2c0.4-1.4,0.7-1.6,1.3-0.5C325.5,4.5,325.9,5.4,325.9,5.7z"/>
	<path d="M390.1-30.6c-5.6,1.3-7.1,1.9-6.8,3.1c1.5,5.1,2.9,20,3.6,36.1l0.7,18.5l-2.8,5c-2.9,5.4-5.2,12.5-4,12.5
		c0.4,0,1.3-1.1,1.9-2.5c1.8-4,3.3-3,2.6,1.7c-0.3,2.4-1,5.9-1.5,7.8l-0.8,3.5l1.9-2.5c1.1-1.4,2.3-4.2,2.6-6.2
		c0.4-2.1,1-3.5,1.4-3.3c0.9,0.6-0.2,6.1-1.8,9.2c-1.8,3.3-1.4,4.1,0.8,1.4c1.1-1.3,2.3-4.1,2.6-6.2c0.4-2.2,1-3.9,1.5-3.9
		c1.1,0,1.1,0.7,0,4.8c-0.6,1.8-0.6,3-0.1,2.7s1.2-2.1,1.6-4c0.3-1.9,1-3.5,1.5-3.5s0.7,1.2,0.3,2.7c-0.4,2.2-0.3,2.5,0.5,1.3
		c0.6-0.8,1.1-6.2,1.1-12.1c0-5.8,0.7-15,1.5-20.5c0.8-5.4,1.8-14,2.2-18.9c0.7-11.5-0.5-28.6-2-28.4
		C397.9-32.2,394.1-31.4,390.1-30.6z"/>
	<path d="M401.9,0.1c0,2.2-0.9,9.6-2,16.5c-2.4,15.1-2.4,14.5-0.4,12.9c5-4.1,7.5-15.9,5.4-25C403.1-3.1,402-4.8,401.9,0.1z"/>
	<path d="M377.7,16.6c-1,0.6-1.4,1.8-1.1,3c0.3,1.1,0.9,1.7,1.4,1.4s0.7-1,0.4-1.5c-0.8-1.2,0.2-1.1,2.6,0.1
		c1.5,0.9,2.1,0.7,2.5-0.5c0.4-0.9,0.5-1.7,0.3-1.9C382.6,16.1,379.2,15.8,377.7,16.6z"/>
	<path d="M373.9,26.3c-0.3,2.9-0.1,4.8,0.3,4.4c0.5-0.5,0.7-2.8,0.5-5.2l-0.3-4.4L373.9,26.3z"/>
	<path d="M379.1,23.3c-1.9,1.7-4.6,12.8-3.5,14.5c1,1.8,4.1,0.6,5.1-2c1.4-3.6,2.3-14.2,1.2-14.2C381.5,21.6,380.2,22.4,379.1,23.3z
		"/>
	<path d="M383.9,26.8c0,3.2,0.3,3.9,1,2.8c1.3-2,1.3-7,0-7C384.4,22.6,383.9,24.5,383.9,26.8z"/>
	<path d="M331.2,50.2c0.4,10.4,0.7,23.9,0.7,30.1v11.2l3.8,1c4,1.2,16.1,1.5,18.6,0.5c1.3-0.5,1.6-2.6,1.6-12.3
		c0-18.8-1.1-31.1-2.7-31.1c-2.2,0-8.7-3-8-3.7c0.4-0.3,3.1,0.2,6.2,1.1c4.8,1.6,5.5,2.1,5.6,4.4c0,1.5,0.4,11.6,0.7,22.4
		c0.5,13.9,1.1,20.1,2,21c2,2,20.9,2.4,25.5,0.5c3.4-1.5,3.7-1.9,3.7-5.8s-0.1-4.1-2.6-3.5c-6.5,1.7-8.6,1.8-11.3,0.6
		c-2.9-1.2-2.9-1.3-3.6-11.3c-1.1-15.6-1.3-15,7.4-16.4c9-1.5,10.7-2.1,6.2-2.2l-3.4-0.1l0.6-4.3c0.2-2.3,0.8-5.1,1.2-6.2
		c0.7-1.6,0.6-1.8-0.6-0.8c-2.3,2.2-3.9,1.5-3.9-1.7c0-2.1-0.5-3-1.6-3c-0.9,0-3.1-1.5-4.8-3.3l-3.2-3.4l-8.3,0.5l-8.3,0.5l0.6,4.8
		c0.4,2.7,0.3,4.9-0.2,4.9s-1.2-2.3-1.6-5c-0.6-4.2-1-5-2.8-5c-1.9,0-2,0.4-1.5,4.5c0.8,5.4-0.9,6.1-1.8,0.7c-1-5.8-1.1-5.9-5.7-6.5
		c-2.3-0.4-5.4-1-6.7-1.3l-2.4-0.7L331.2,50.2z M372.7,41.6c1.6,2.9,1.9,4,0.9,4c-1.1,0-4.7-5.8-4.7-7.5
		C368.9,36.5,370.7,38.2,372.7,41.6z"/>
	<path d="M381.6,60.2c-3.7,0.6-7,1.4-7.4,1.7c-0.3,0.4,0.2,1.8,1.1,3.2c1.8,2.8,6,3.3,11.5,1.4c3-1.1,3.5-1.9,3.1-4.9
		C389.6,59.1,388.7,58.9,381.6,60.2z"/>
	<path d="M329.2,73.1c0,4.4,0.2,6.1,0.4,3.7c0.2-2.3,0.2-5.9,0-8C329.4,66.8,329.2,68.7,329.2,73.1z"/>
	<path d="M372.9,68.2c0,1.6,0.3,5.9,0.6,9.6c0.6,5.9,1,6.7,3,7.2c2.8,0.7,12.1-1.2,13-2.6c0.6-1,0.6-13.9,0-14.5
		c-0.1-0.1-1.2,0-2.4,0.4c-2,0.5-2.1,0.9-1.6,5.9c0.4,3.4,0.3,5.4-0.3,5.4c-0.6,0-1.3-2.3-1.7-5c-0.6-4.7-0.8-5-3.6-5
		c-1.7,0-3.8-0.9-5-2.2l-2-2.2V68.2z"/>
	<path d="M338.4,98.6c0.5,3.5,3.5,34.3,3.5,36.6c0,1.6,4.1,2.5,7.8,1.8l3-0.6l1.2-14.2c0.6-7.7,1-16.9,0.8-20.4l-0.3-6.3l-8.3-0.2
		l-8.3-0.2L338.4,98.6z"/>
	<path d="M364.9,99.8c0,0.7,0.9,10.1,2,20.8s2,20.1,2,20.8c0,0.9,1.5,1.2,5.3,1l5.2-0.3l1.2-12.5c0.6-6.9,1.2-16.7,1.2-21.8l0.1-9.2
		h-8.5C367.3,98.6,364.9,98.9,364.9,99.8z"/>
	<path d="M341.9,140.3c0,2.8,5.2,5.7,8.6,4.9c1.9-0.5,2.4-1.3,2.4-3.9v-3.2h-5.5C342.4,138.1,341.9,138.3,341.9,140.3z"/>
	<path d="M368.9,145.8c0,2.2,6.2,5.2,8.9,4.3c1.5-0.4,2.1-1.5,2.1-3.4c0-2.6-0.2-2.7-5.5-2.7C369.9,144.1,368.9,144.4,368.9,145.8z"
		/>
	<path d="M334.3,149.5c-3.8,2.6-7.7,5.8-8.8,6.9c-1.7,2-1.8,2.2-0.2,2.8c2.5,1,14-0.2,21.9-2.1l6.7-1.7v-4.6v-4.5l-3.4,0.6
		c-2.2,0.3-4.1,0-5.3-0.8C342.5,144,341.8,144.2,334.3,149.5z"/>
	<path d="M355.4,145.6c0.3,0.5,3.1,1,6.1,1s5.4-0.5,5.4-1c0-0.6-2.7-1-6.1-1C357.1,144.6,355,145,355.4,145.6z"/>
	<path d="M381.4,145.6c-0.4,0.6-0.5,1.2-0.4,1.4c0.2,0.1,6.5,0.8,13.9,1.4c22.5,2,40,6.5,41.7,10.8c1.2,3.2-4.6,7-14.3,9.2
		c-16.4,3.8-28.3,4.7-63.4,4.7c-34.5,0-42.5-0.6-60-4.6c-10.6-2.4-15-4.9-15-8.4c0-2.1,0.9-3,4.6-4.7c6.1-2.6,19.6-5.4,34.2-6.9
		c6.4-0.6,12.1-1.6,12.6-2c2.1-1.9-16.6-0.3-31.4,2.7c-16.3,3.4-26.4,8.3-25.8,12.7c1.4,9.8,46.5,17.8,92.3,16.4
		c35-1.2,59-5.5,68.3-12.4c4-3,4.1-5.4,0.2-8.6c-5.1-4.3-25.5-9.6-43.5-11.2c-3.8-0.3-8.4-0.8-10.2-1.1
		C383.5,144.8,381.8,145,381.4,145.6z"/>
	<path d="M355.7,153.2l-0.3,5.9l-5.5,1.9c-7.1,2.5-26.6,2.9-28,0.7c-1.2-2.1,0.7-5.3,5.5-9.2l4-3.2l-8,0.6
		c-15.6,1.2-34.8,5.6-37.9,8.7c-0.7,0.7-0.7,1.6,0,2.8c4.3,6.7,46.9,12.1,85.7,10.8c28.7-1,49.2-3.7,59-7.9c9-3.8,4.6-7.7-12.7-11.3
		c-5.7-1.2-30.9-4.3-35.3-4.4c-0.8,0-0.9,0.9-0.2,3.2c0.5,1.8,0.9,5,0.9,7.1c0,3.4-0.5,4-4.7,6.7c-5.8,3.7-11.1,5.3-18,5.4
		c-10.5,0.2-10.4-4.3,0.4-15.5c6.1-6.3,6.4-6.9,4.1-6.9c-1.4,0-3.9-0.3-5.6-0.6l-3.1-0.6L355.7,153.2z"/>
	<path d="M362.2,155.8c-3.3,3.5-6.5,7.3-7.2,8.5c-1,2-0.9,2.3,1.3,2.9c3.5,0.8,12.2-1.2,18.6-4.4c5.3-2.7,5.5-2.9,5.5-6.7
		c0-3.9-0.1-4-3.1-3.7c-1.9,0.2-3.6-0.3-4.4-1.3C370.7,148.4,368.4,149.5,362.2,155.8z"/>
	<path d="M348.9,158.3c-2.5,0.8-9.4,1.7-15.5,2.1c-8.8,0.4-10.3,0.7-7.5,1.4c5.6,1.3,27.1-1.9,28.5-4.3
		C355.2,156.4,354.5,156.5,348.9,158.3z"/>
	<path d="M374.9,164.3c-4.5,2.3-8.8,3.7-13.5,4.3l-7,0.9l7.2-0.3c7.3-0.3,16.5-3.7,19.3-7.1C382.5,160.2,382.6,160.2,374.9,164.3z"
		/>
	<path d="M278.1,178.2l0.3,12.7l4.5,2.3c7.7,3.9,27.7,8.4,48.1,10.8l4.7,0.5l2.4-8.7l2.3-8.7h18.9h18.9l2.5,8.9l2.5,8.8l6.1-0.6
		c21.6-2.3,43.1-7.4,49.7-11.9l3.4-2.3l0.3-12.2l0.3-12.3l-5.4,3.1c-20.2,11.4-85,15.5-127.9,8c-12.7-2.2-24.9-6-29.1-9.1l-2.8-2
		L278.1,178.2z"/>
	<path d="M340.1,196.5c-1.2,4.3-2.2,8.5-2.2,9.4c0,1.4,2.8,1.6,21.9,1.7l22,0.1l-2.4-8.8c-1.4-4.8-2.5-9.1-2.5-9.6
		c0-0.4-7.8-0.7-17.3-0.7h-17.4L340.1,196.5z"/>
</g>
</svg>
