<?xml version="1.0" encoding="UTF-8"?><svg id="Layer_2" xmlns="http://www.w3.org/2000/svg" xmlns:xlink="http://www.w3.org/1999/xlink" viewBox="0 0 139.05 122.71"><defs><radialGradient id="radial-gradient" cx="72.73" cy="53.97" fx="72.73" fy="53.97" r="61.36" gradientTransform="translate(5.96 117.88) rotate(-5.85) scale(.94 -.9)" gradientUnits="userSpaceOnUse"><stop offset="0" stop-color="#046e23"/><stop offset="1" stop-color="#00333a" stop-opacity=".5"/></radialGradient></defs><g id="Layer_2-2"><g id="laugh"><path d="M124.69,7.99S46.01,10.88,3.31,20.43c0,0,3.49,63.56,12.18,95.92,0,0,70.83-.8,117.4-12.03,0,0-3.25-67.78-8.19-96.33h0Z" style="fill:url(#radial-gradient); stroke:#cdedf9; stroke-linecap:round; stroke-linejoin:round; stroke-width:2px;"/><path d="M1.79,13.92s-5.21,56.37,11.04,107.79c0,0,95.79-7.26,124.79-13.96,0,0,3.52-33.49-9.71-106.75,0,0-82.82,5.24-126.13,12.92h0Z" style="fill:none; stroke:#cdedf9; stroke-linecap:round; stroke-linejoin:round; stroke-width:2px;"/><path d="M23.74,31.28s14.25,14.77,18.6,7.03" style="fill:none; stroke:#fff; stroke-linecap:round; stroke-linejoin:round; stroke-width:2px;"/><path d="M20.29,47.86s-.25-7.26,10.9-1.12c0,0,2.25,2.83,10.08.38" style="fill:none; stroke:#fff; stroke-linecap:round; stroke-linejoin:round; stroke-width:2px;"/><path d="M24.47,67.13s9.11.54,12.96-9.73" style="fill:none; stroke:#fff; stroke-linecap:round; stroke-linejoin:round; stroke-width:2px;"/><path d="M41.26,58.88s-.38,8.27-2.54,11.08" style="fill:none; stroke:#fff; stroke-linecap:round; stroke-linejoin:round; stroke-width:2px;"/><path d="M58.7,30.75s1.14,15.88,13.99-6.85c0,0,5.93-13.78,13.07-8.63" style="fill:none; stroke:#fff; stroke-linecap:round; stroke-linejoin:round; stroke-width:2px;"/><path d="M66.86,39.84s22.39-21.63,24.31-10.07" style="fill:none; stroke:#fff; stroke-linecap:round; stroke-linejoin:round; stroke-width:2px;"/><path d="M75.24,52.35s14.26,6.53,26.78-2.74" style="fill:none; stroke:#fff; stroke-linecap:round; stroke-linejoin:round; stroke-width:2px;"/><path d="M107.12,58.73s3.54-1.31,10.16,8.36" style="fill:none; stroke:#fff; stroke-linecap:round; stroke-linejoin:round; stroke-width:2px;"/><path d="M68.9,106.39s8.7-5.83,13.36-5.84" style="fill:none; stroke:#fff; stroke-linecap:round; stroke-linejoin:round; stroke-width:2px;"/><path d="M39.09,107.04s-11.05-14.71-9.04-28.48c2.01-13.76,13.86-5.76,13.86-5.76,0,0,7.26,3.87,17.32,1.75s20.5-13.22,20.5-13.22c0,0,13.32-12.75,27.27,1.55,0,0,10.38,8.15,8,23.04,0,0,.72,6.98-25.11,8.27s-42.75,10.62-42.75,10.62c0,0-1.99,4.5-10.05,2.23h0Z" style="fill:none; stroke:#fff; stroke-linecap:round; stroke-linejoin:round; stroke-width:2px;"/><path d="M38.19,77.99s-7.61,5.87,1.69,16.5l4.24-7.65s36.58-12.73,47.71-12.27l6.56,6.38,7.5-11.51s-6.45-9.13-25.88,1.47l-10.89,7.01s-8.52,3.9-17.78,2.74c-9.26-1.16-11.07-3.46-13.17-2.67h0Z" style="fill:#fff;"/><ellipse cx="76.67" cy="44.65" rx="2.21" ry="3.22" transform="translate(-4.15 8.05) rotate(-5.85)" style="fill:#fff;"/><ellipse cx="26.59" cy="53.09" rx="2.62" ry="2.51" transform="translate(-5.27 2.99) rotate(-5.85)" style="fill:#fff;"/><path d="M35.62,111.42c4.35,1.94,9.65,1.78,13.91-.4" style="fill:none; stroke:#fff; stroke-linecap:round; stroke-linejoin:round; stroke-width:2px;"/></g></g></svg>