<?xml version="1.0" encoding="UTF-8"?>
<svg id="Layer_2" xmlns="http://www.w3.org/2000/svg" xmlns:xlink="http://www.w3.org/1999/xlink" version="1.1" viewBox="0 0 179.8 151.8">
  <!-- Generator: Adobe Illustrator 30.0.0, SVG Export Plug-In . SVG Version: 2.1.1 Build 123)  -->
  <defs>
    <style>
      .st0, .st1, .st2 {
        fill: none;
      }

      .st1, .st2 {
        stroke: #cdedf9;
        stroke-linecap: round;
        stroke-linejoin: round;
      }

      .st2 {
        stroke-dasharray: 1 5.1 1 5.1 1 5.1;
        stroke-width: 2px;
      }

      .st3, .st4 {
        isolation: isolate;
      }

      .st5 {
        clip-path: url(#clippath-1);
      }

      .st4 {
        font-family: DINCondensed-Bold, 'DIN Condensed';
        font-size: 1.7px;
        font-weight: 700;
      }

      .st4, .st6 {
        fill: #cdedf9;
      }

      .st7 {
        clip-path: url(#clippath);
      }
    </style>
    <clipPath id="clippath">
      <rect class="st0" x="102.7" y="130.8" width="58.4" height="14.9"/>
    </clipPath>
    <clipPath id="clippath-1">
      <rect class="st0" x="44.4" y="130.8" width="58.4" height="14.9"/>
    </clipPath>
  </defs>
  <g id="Layer_1-2">
    <path class="st1" d="M10.9,148.6h165.9V6.6l-7-3.1c-47.6-.2-63.3,0-88.3,0s-6.4,2.5-9.4,2.5H24.5c-3.3,0-6.3-2.5-9.7-2.5H3.8v140.9l7.1,4.1h0Z"/>
    <polygon class="st6" points="31.3 8.8 32.9 12.7 60.8 12.7 62.6 8.8 31.3 8.8"/>
    <line class="st1" x1="9.2" y1="8" x2="9.2" y2="141.8"/>
    <line class="st2" x1="46.9" y1="126.7" x2="161.1" y2="126.7"/>
    <line class="st1" x1="17.5" y1="133.9" x2="17.5" y2="141.8"/>
    <line class="st1" x1="13.5" y1="133.9" x2="13.5" y2="141.8"/>
    <line class="st1" x1="21.7" y1="133.9" x2="21.7" y2="141.8"/>
    <line class="st1" x1="167.8" y1="12.7" x2="167.8" y2="33.5"/>
    <line class="st1" x1="170.6" y1="12.7" x2="170.6" y2="33.5"/>
    <line class="st1" x1="173.4" y1="12.7" x2="173.4" y2="33.5"/>
    <g class="st3">
      <text class="st4" transform="translate(163.2 129.9) scale(2.3 1)"><tspan x="0" y="0">01000010</tspan></text>
      <text class="st4" transform="translate(163.2 131.9) scale(2.3 1)"><tspan x="0" y="0">01110010</tspan></text>
      <text class="st4" transform="translate(163.2 133.9) scale(2.3 1)"><tspan x="0" y="0">01100001</tspan></text>
      <text class="st4" transform="translate(163.2 135.9) scale(2.3 1)"><tspan x="0" y="0">01101110</tspan></text>
      <text class="st4" transform="translate(163.2 137.9) scale(2.3 1)"><tspan x="0" y="0">01100100</tspan></text>
      <text class="st4" transform="translate(163.2 139.9) scale(2.3 1)"><tspan x="0" y="0">00100000</tspan></text>
      <text class="st4" transform="translate(163.2 141.9) scale(2.3 1)"><tspan x="0" y="0">01000100</tspan></text>
      <text class="st4" transform="translate(163.2 143.9) scale(2.3 1)"><tspan x="0" y="0">01001110</tspan></text>
      <text class="st4" transform="translate(163.2 145.9) scale(2.3 1)"><tspan x="0" y="0">01000001</tspan></text>
    </g>
    <g class="st7">
      <g>
        <rect class="st6" x="147.5" y="135.5" width="28" height="5.5" transform="translate(-50.5 154.7) rotate(-45)"/>
        <rect class="st6" x="135.7" y="135.5" width="28" height="5.5" transform="translate(-53.9 146.3) rotate(-45)"/>
        <rect class="st6" x="123.8" y="135.5" width="28" height="5.5" transform="translate(-57.4 138) rotate(-45)"/>
        <rect class="st6" x="112" y="135.5" width="28" height="5.5" transform="translate(-60.9 129.6) rotate(-45)"/>
        <rect class="st6" x="100.2" y="135.5" width="28" height="5.5" transform="translate(-64.3 121.2) rotate(-45)"/>
        <rect class="st6" x="88.3" y="135.5" width="28" height="5.5" transform="translate(-67.8 112.9) rotate(-45)"/>
      </g>
    </g>
    <g class="st5">
      <g>
        <rect class="st6" x="89.2" y="135.6" width="28" height="5.5" transform="translate(-67.6 113.4) rotate(-45)"/>
        <rect class="st6" x="77.3" y="135.5" width="28" height="5.5" transform="translate(-71 105.1) rotate(-45)"/>
        <rect class="st6" x="65.5" y="135.6" width="28" height="5.5" transform="translate(-74.5 96.7) rotate(-45)"/>
        <rect class="st6" x="53.7" y="135.5" width="28" height="5.5" transform="translate(-78 88.3) rotate(-45)"/>
        <rect class="st6" x="41.8" y="135.6" width="28" height="5.5" transform="translate(-81.4 80) rotate(-45)"/>
        <rect class="st6" x="30" y="135.5" width="28" height="5.5" transform="translate(-84.9 71.6) rotate(-45)"/>
      </g>
    </g>
    <rect class="st1" x="43" y="123.3" width="119.2" height="24.2"/>
  </g>
</svg>