<?xml version="1.0" encoding="UTF-8"?><svg id="Layer_2" xmlns="http://www.w3.org/2000/svg" xmlns:xlink="http://www.w3.org/1999/xlink" viewBox="0 0 141.32 123.06"><defs><radialGradient id="radial-gradient" cx="73.49" cy="54.51" fx="73.49" fy="54.51" r="61.36" gradientTransform="translate(-4.84 103.79) rotate(6.67) scale(.94 -.9)" gradientUnits="userSpaceOnUse"><stop offset="0" stop-color="#046e23"/><stop offset="1" stop-color="#00333a" stop-opacity=".5"/></radialGradient></defs><g id="Layer_2-2"><g id="laugh"><path d="M135.66,21.86S58.23,7.63,14.47,7.68c0,0-10.38,62.8-8.91,96.28,0,0,69.32,14.58,117.21,13.72,0,0,11.53-66.87,12.89-95.81h0Z" style="fill:url(#radial-gradient); stroke:#cdedf9; stroke-linecap:round; stroke-linejoin:round; stroke-width:2px;"/><path d="M14.41,1S-2.9,54.9,1.81,108.62c0,0,95.09,13.68,124.84,13.43,0,0,10.7-31.93,13.67-106.32,0,0-81.99-12.84-125.93-14.73h0Z" style="fill:none; stroke:#cdedf9; stroke-linecap:round; stroke-linejoin:round; stroke-width:2px;"/><path d="M32.07,22.71s10.7,17.51,16.63,10.9" style="fill:none; stroke:#fff; stroke-linecap:round; stroke-linejoin:round; stroke-width:2px;"/><path d="M25.11,38.14s1.33-7.14,10.89,1.27c0,0,1.58,3.25,9.75,2.56" style="fill:none; stroke:#fff; stroke-linecap:round; stroke-linejoin:round; stroke-width:2px;"/><path d="M25.01,57.86s8.78,2.51,14.76-6.69" style="fill:none; stroke:#fff; stroke-linecap:round; stroke-linejoin:round; stroke-width:2px;"/><path d="M43.19,53.45s-2.16,7.99-4.88,10.26" style="fill:none; stroke:#fff; stroke-linecap:round; stroke-linejoin:round; stroke-width:2px;"/><path d="M55.71,37.67s-2.33,15.75,15.14-3.65c0,0,8.78-12.17,14.63-5.59" style="fill:none; stroke:#fff; stroke-linecap:round; stroke-linejoin:round; stroke-width:2px;"/><path d="M70.11,46.5s26.55-16.26,25.92-4.56" style="fill:none; stroke:#fff; stroke-linecap:round; stroke-linejoin:round; stroke-width:2px;"/><path d="M77.77,54.44s12.5,9.47,26.74,3.13" style="fill:none; stroke:#fff; stroke-linecap:round; stroke-linejoin:round; stroke-width:2px;"/><path d="M107.51,67.59s3.74-.51,8.1,10.36" style="fill:none; stroke:#fff; stroke-linecap:round; stroke-linejoin:round; stroke-width:2px;"/><path d="M59.86,105.82s9.76-3.81,14.31-2.8" style="fill:none; stroke:#fff; stroke-linecap:round; stroke-linejoin:round; stroke-width:2px;"/><path d="M31.04,100.29s-8.62-13.35-3.8-23.35c4.82-10,15.6-1.56,15.6-1.56,0,0,6.81,4.39,17.73,4.82,10.92.43,24-5.85,24-5.85,0,0,16.42-6.95,28.15,6.68,0,0,9.22,8.26,3.79,19.03,0,0-.63,5.42-27.83,1.18s-46.7-.6-46.7-.6c0,0-2.97,3-10.93-.34h0Z" style="fill:none; stroke:#fff; stroke-linecap:round; stroke-linejoin:round; stroke-width:2px;"/><path d="M38.94,72.79s-8.7,4.08-1.93,16.48l5.8-6.55s38.47-4.49,49.24-1.63l5.02,7.65,9.82-9.6s-4.32-10.31-25.58-4.18l-12.15,4.48s-9.16,1.96-17.95-1.18c-8.79-3.14-10.06-5.77-12.27-5.46h0Z" style="fill:#fff;"/><ellipse cx="87.53" cy="49.11" rx="4.3" ry="9.07" transform="translate(28.57 130.34) rotate(-83.33)" style="fill:#fff;"/><ellipse cx="30.12" cy="44.62" rx="2.51" ry="2.62" transform="translate(-17.7 69.35) rotate(-83.33)" style="fill:#fff;"/><path d="M26.28,103.52c3.82,2.83,9.04,3.83,13.66,2.62" style="fill:none; stroke:#fff; stroke-linecap:round; stroke-linejoin:round; stroke-width:2px;"/></g></g></svg>