<?xml version="1.0" encoding="UTF-8"?><svg id="Layer_2" xmlns="http://www.w3.org/2000/svg" xmlns:xlink="http://www.w3.org/1999/xlink" viewBox="0 0 144.81 124.86"><defs><radialGradient id="radial-gradient" cx="72.02" cy="63.93" fx="72.02" fy="63.93" r="61.36" gradientUnits="userSpaceOnUse"><stop offset="0" stop-color="#046e23"/><stop offset="1" stop-color="#00333a" stop-opacity=".5"/></radialGradient></defs><g id="laugh"><path d="M137.22,9.95S53.43,4.24,7.08,9.95c0,0-3.21,70.6,2.5,107.33,0,0,75.24,7.13,125.87,0,0,0,3.92-75.24,1.78-107.33Z" style="fill:url(#radial-gradient); stroke:#cdedf9; stroke-linecap:round; stroke-linejoin:round; stroke-width:2px;"/><path d="M6.18,2.59s-11.65,61.68,0,120.32c0,0,102.43,2.82,133.92-1.3,0,0,7.38-36.6,1.3-119.02,0,0-88.45-3.58-135.23,0Z" style="fill:none; stroke:#cdedf9; stroke-linecap:round; stroke-linejoin:round; stroke-width:2px;"/><path d="M27.58,24.25s13.51,17.93,18.97,9.87" style="fill:none; stroke:#fff; stroke-linecap:round; stroke-linejoin:round; stroke-width:2px;"/><path d="M22.12,42.17s.52-8.05,11.69,0c0,0,2.08,3.38,10.65,1.56" style="fill:none; stroke:#fff; stroke-linecap:round; stroke-linejoin:round; stroke-width:2px;"/><path d="M24.46,63.93s9.61,1.63,14.81-9.28" style="fill:none; stroke:#fff; stroke-linecap:round; stroke-linejoin:round; stroke-width:2px;"/><path d="M43.17,56.72s-1.3,9.09-3.9,11.95" style="fill:none; stroke:#fff; stroke-linecap:round; stroke-linejoin:round; stroke-width:2px;"/><path d="M64.73,27.62s-.52,17.67,15.59-5.98c0,0,7.79-14.55,14.81-8.05" style="fill:none; stroke:#fff; stroke-linecap:round; stroke-linejoin:round; stroke-width:2px;"/><path d="M72.4,38.59s26.11-21.36,26.89-8.37" style="fill:none; stroke:#fff; stroke-linecap:round; stroke-linejoin:round; stroke-width:2px;"/><path d="M79.93,53.35s14.42,8.83,28.71,0" style="fill:none; stroke:#fff; stroke-linecap:round; stroke-linejoin:round; stroke-width:2px;"/><path d="M113.06,64.01s3.9-1.05,9.87,10.38" style="fill:none; stroke:#fff; stroke-linecap:round; stroke-linejoin:round; stroke-width:2px;"/><path d="M67.33,112.33s9.87-5.46,14.81-4.94" style="fill:none; stroke:#fff; stroke-linecap:round; stroke-linejoin:round; stroke-width:2px;"/><path d="M35.63,109.84s-10.13-15.18-6.5-28.17,15.33-4.16,15.33-4.16c0,0,7.28,4.42,18.19,3.38s23.19-10.65,23.19-10.65c0,0,15.52-10.91,28.77,4.16,0,0,10.13,8.83,5.98,22.86,0,0,0,6.76-27.54,5.46s-46.51,5.98-46.51,5.98c0,0-2.6,4.12-10.91,1.15Z" style="fill:none; stroke:#fff; stroke-linecap:round; stroke-linejoin:round; stroke-width:2px;"/><path d="M37.83,77.48s-8.71,5.62,0,18.42l5.33-7.97s40.2-9.92,51.96-8.15l6.27,7.79,9.21-11.86s-5.85-10.81-27.62-1.31l-12.32,6.51s-9.46,3.34-19.16,1.01-11.37-5.07-13.68-4.44Z" style="fill:#fff;"/><ellipse cx="82.29" cy="45.01" rx="2.36" ry="3.57" style="fill:#fff;"/><circle cx="28.23" cy="48.67" r="2.79" style="fill:#fff;"/><path d="M31.47,114.12c4.4,2.63,10.05,3.06,14.8,1.13" style="fill:none; stroke:#fff; stroke-linecap:round; stroke-linejoin:round; stroke-width:2px;"/></g></svg>