<?xml version="1.0" encoding="UTF-8"?><svg id="Layer_2" xmlns="http://www.w3.org/2000/svg" xmlns:xlink="http://www.w3.org/1999/xlink" viewBox="0 0 123.25 119.58"><defs><radialGradient id="radial-gradient" cx="46.42" cy="75.5" fx="46.42" fy="75.5" r="35.53" gradientTransform="translate(-18.81 110.79) rotate(10.27) scale(1 -1)" gradientUnits="userSpaceOnUse"><stop offset="0" stop-color="#046e23"/><stop offset="1" stop-color="#00333a" stop-opacity=".5"/></radialGradient></defs><g id="laugh"><g id="laugh-2"><g id="screen"><path d="M122.25,29.27s-5.13,26.53-14.52,53.61l-25.55,1.33-2.39,7.84-19.49,1.43S7.74,77.67,2.14,74.99C-3.47,72.32,13.33,7.89,15.55,1c0,0,57.06,3.39,65.7,6.95,8.65,3.55,32.75,15.53,40.99,21.32Z" style="fill:none; stroke:#cdedf9; stroke-linecap:round; stroke-linejoin:round; stroke-width:2px;"/><path d="M84.53,12.84s-15.25,59.43-24.21,77" style="fill:none; stroke:#cdedf9; stroke-linecap:round; stroke-linejoin:round; stroke-width:2px;"/><path id="face" d="M78.04,13.32s-13.95,50.4-23.16,73.87c0,0-34.04-7.49-48.5-16.07,0,0-4.08-19.93,14.07-65.27,0,0,28.01-2.54,57.6,7.46h0Z" style="fill:url(#radial-gradient); stroke:#cdedf9; stroke-linecap:round; stroke-linejoin:round; stroke-width:2px;"/></g><g id="leg-2"><path d="M46.52,90.36s2.93,13.49,9.84,28.22c0,0,6.94-1.64,6.77-3.55s-4.6-8.91-11.82-24.09" style="fill:none; stroke:#cdedf9; stroke-linecap:round; stroke-linejoin:round; stroke-width:2px;"/><path d="M42.31,90.03s4.57,21.77,7.81,26.75l6.24,1.79" style="fill:none; stroke:#cdedf9; stroke-linecap:round; stroke-linejoin:round; stroke-width:2px;"/></g><g id="arm-1"><path d="M55.95,62.89s-11.67,2.96-28.72,13.36c0,0-3.43-2.78-4.18-5.09,0,0,5.89-5.11,26.03-9.01" style="fill:none; stroke:#cdedf9; stroke-linecap:round; stroke-linejoin:round; stroke-width:2px;"/><path d="M58.07,67.2s-13.99,8.03-21.1,12.8c0,0-3.13,2.87-9.74-3.74" style="fill:none; stroke:#cdedf9; stroke-linecap:round; stroke-linejoin:round; stroke-width:2px;"/></g><g id="leg-1"><path d="M29.66,84.1s2.05,11.35,8.99,26.08c0,0,6.97-1.65,6.79-3.55s-3.84-5.88-11.07-21.06" style="fill:none; stroke:#cdedf9; stroke-linecap:round; stroke-linejoin:round; stroke-width:2px;"/><path d="M25.47,82.7s3.67,20.7,6.92,25.69l6.26,1.79" style="fill:none; stroke:#cdedf9; stroke-linecap:round; stroke-linejoin:round; stroke-width:2px;"/></g><g id="arm-1-2"><path d="M27.9,64.81s10.61,2.4,26.41,11.97c0,0,2.95-2.94,3.5-5.29,0,0-5.54-4.82-23.79-7.75" style="fill:none; stroke:#cdedf9; stroke-linecap:round; stroke-linejoin:round; stroke-width:2px;"/><path d="M26.21,69.21s12.94,7.35,19.55,11.77c0,0,2.95,2.72,8.56-4.21" style="fill:none; stroke:#cdedf9; stroke-linecap:round; stroke-linejoin:round; stroke-width:2px;"/></g><path d="M41.25,20.14c.06.12-.22.11-.2-.02s.18-.18.31-.21c4.49-.76,9.04-1.24,13.59-1.44" style="fill:none; stroke:#cdedf9; stroke-linecap:round; stroke-linejoin:round; stroke-width:2px;"/><path d="M41.55,25.79c4.38-.37,8.8-.32,13.17.13" style="fill:none; stroke:#cdedf9; stroke-linecap:round; stroke-linejoin:round; stroke-width:2px;"/><path d="M46.72,27.09c-.26,1.27-.16,2.61.29,3.83.89-1.09,1.04-2.73.36-3.96-.07,1.18,0,2.37.21,3.53,0-.91,0-1.82-.01-2.73" style="fill:none; stroke:#cdedf9; stroke-linecap:round; stroke-linejoin:round; stroke-width:2px;"/><path d="M20.77,26.6c-.05-.23-.4-.31-.55-.13,4.69.18,9.39.21,14.08.09.16,0,.37.02.42.18s-.3.2-.23.05" style="fill:none; stroke:#cdedf9; stroke-linecap:round; stroke-linejoin:round; stroke-width:2px;"/><path d="M28.65,28.28c.11.13.19-.23.02-.22s-.24.22-.25.39c-.15,1.39-.06,2.8.26,4.16.8-1.55.94-3.44.36-5.09.11,1.38.22,2.76.33,4.15.23-.97.28-1.99.16-2.98" style="fill:none; stroke:#cdedf9; stroke-linecap:round; stroke-linejoin:round; stroke-width:2px;"/><path d="M32.06,43.91c-.02-.28-.56-.24-.54.04,5.23-1.62,10.96-1.6,16.19.05-.34-.18-.55-.6-.47-.98.16.13.31.25.47.38-.12-.28-.25-.57-.37-.85" style="fill:none; stroke:#cdedf9; stroke-linecap:round; stroke-linejoin:round; stroke-width:2px;"/></g></g></svg>