<?xml version="1.0" encoding="UTF-8"?><svg id="Layer_2" xmlns="http://www.w3.org/2000/svg" xmlns:xlink="http://www.w3.org/1999/xlink" viewBox="0 0 214.17 374.62"><defs><radialGradient id="radial-gradient" cx="14.24" cy="90.54" fx="14.24" fy="90.54" r="60.14" gradientTransform="translate(-9 8.23) scale(1.35 .88)" gradientUnits="userSpaceOnUse"><stop offset="0" stop-color="#00ffed"/><stop offset="1" stop-color="#0033ad" stop-opacity=".5"/></radialGradient></defs><g id="skills"><path d="M28.64,267.69v-9.13h2.71v1.06h-1.47v7.01h1.47v1.06h-2.71Z" style="fill:#cdedf9;"/><path d="M35.6,264.13c-.24,0-.44-.08-.61-.25-.17-.17-.25-.37-.25-.61s.08-.44.25-.61c.17-.17.37-.25.61-.25s.44.08.61.25c.17.17.25.37.25.61s-.08.44-.25.61c-.17.17-.37.25-.61.25Z" style="fill:#cdedf9;"/><path d="M42,266.03l-2.16-7.47h1.47l1.46,5.37h.05l1.61-5.37h1.25l1.71,5.37h.04l1.44-5.37h1.48l-2.15,7.47h-1.42l-1.71-5.51h-.04l-1.61,5.51h-1.41Z" style="fill:#cdedf9;"/><path d="M56.52,266.14c-.6,0-1.11-.12-1.55-.35-.44-.24-.77-.57-1.01-1.01-.24-.43-.35-.94-.35-1.54s.12-1.1.35-1.53c.23-.43.57-.76,1-.99.43-.23.93-.35,1.51-.35s1.05.11,1.46.33c.41.22.72.53.94.94.22.41.33.89.33,1.45v.48h-4.26c.05.47.21.83.48,1.07.27.25.64.37,1.09.37.34,0,.61-.06.83-.19s.36-.32.45-.57h1.38c-.13.58-.43,1.04-.89,1.37s-1.05.49-1.76.49ZM54.97,262.66h2.92c-.06-.38-.2-.67-.44-.87-.24-.2-.56-.3-.97-.3s-.73.1-.99.3c-.26.2-.43.49-.52.87Z" style="fill:#cdedf9;"/><path d="M66.27,266.14c-.46,0-.85-.09-1.18-.26s-.58-.42-.77-.74h-.39v.89h-1.41v-1.37h.68v-6.37h1.37v3.02h.04c.17-.3.4-.52.7-.68s.66-.24,1.08-.24c.53,0,.98.12,1.36.35.38.24.66.57.86,1,.2.43.3.94.3,1.52s-.1,1.08-.3,1.52c-.2.43-.5.77-.89,1.01s-.87.35-1.44.35ZM66.02,264.95c.5,0,.87-.15,1.13-.45.25-.3.38-.71.38-1.24s-.13-.94-.38-1.24c-.26-.3-.63-.45-1.13-.45-.44,0-.79.12-1.05.37-.26.25-.4.59-.4,1.02v.59c0,.43.13.77.4,1.02.26.25.61.37,1.05.37Z" style="fill:#cdedf9;"/><path d="M73.21,264.13c-.24,0-.44-.08-.61-.25-.17-.17-.25-.37-.25-.61s.08-.44.25-.61c.17-.17.37-.25.61-.25s.44.08.61.25c.17.17.25.37.25.61s-.08.44-.25.61c-.17.17-.37.25-.61.25Z" style="fill:#cdedf9;"/><path d="M77.45,267.68v-1.06h1.47v-7h-1.47v-1.06h2.71v9.12h-2.71Z" style="fill:#cdedf9;"/><text transform="translate(27.87 279.32)" style="fill:#cdedf9; font-family:FunnelDisplay-SemiBold, &apos;Funnel Display&apos;; font-size:11.07px; font-weight:600; isolation:isolate;"><tspan x="0" y="0" xml:space="preserve">    </tspan></text><path d="M39.68,277.21c-.18,0-.34-.06-.47-.19-.13-.13-.19-.29-.19-.47s.06-.34.19-.47c.13-.13.29-.19.47-.19s.34.06.47.19c.13.13.19.29.19.47s-.06.34-.19.47c-.13.13-.29.19-.47.19Z" style="fill:#cdedf9;"/><path d="M46.2,279.32l-2.22-7.47h.9l1.81,6.42h.05l1.85-6.42h.91l1.96,6.42h.04l1.79-6.42h.91l-2.22,7.47h-.97l-1.96-6.45h-.04l-1.84,6.45h-.97Z" style="fill:#cdedf9;"/><path d="M60.57,279.43c-.57,0-1.06-.12-1.48-.35-.42-.24-.74-.57-.97-1.01-.23-.44-.34-.95-.34-1.53s.11-1.09.34-1.52c.23-.43.55-.76.96-.99.41-.23.89-.35,1.45-.35.52,0,.97.11,1.36.32.38.21.68.51.89.9s.32.85.32,1.37v.39h-4.48c.02.63.21,1.13.56,1.48s.81.54,1.39.54c.4,0,.74-.09,1.02-.26.28-.17.47-.42.58-.75h.89c-.14.56-.43.99-.86,1.3-.43.31-.97.46-1.61.46ZM58.66,275.99h3.6c-.04-.5-.22-.89-.53-1.16-.31-.28-.71-.42-1.21-.42s-.91.14-1.24.42c-.33.28-.54.66-.62,1.16Z" style="fill:#cdedf9;"/><path d="M70.09,279.43c-.44,0-.82-.08-1.13-.24-.31-.16-.56-.39-.75-.7h-.39v.83h-.96v-.92h.46v-6.83h.87v3.15h.04c.17-.34.43-.61.76-.78.34-.18.73-.27,1.18-.27.52,0,.97.12,1.35.35s.67.56.87.99c.2.43.3.94.3,1.54s-.1,1.11-.31,1.54-.5.76-.89.99-.85.35-1.4.35ZM69.97,278.69c.58,0,1.04-.19,1.37-.56.33-.37.49-.9.49-1.58s-.16-1.2-.49-1.58c-.33-.37-.78-.56-1.37-.56-.54,0-.97.15-1.29.46-.33.31-.49.72-.49,1.23v.9c0,.51.16.92.49,1.23.33.31.76.46,1.29.46Z" style="fill:#cdedf9;"/><path d="M79.66,279.32v-7.47h3.27c.83,0,1.47.2,1.91.61.44.41.66.96.66,1.66s-.22,1.25-.67,1.66-1.08.61-1.9.61h-2.39v2.93h-.89ZM80.55,275.64h2.35c.57,0,.99-.14,1.29-.41.29-.28.44-.65.44-1.12s-.15-.85-.44-1.12c-.29-.27-.72-.41-1.29-.41h-2.35v3.06Z" style="fill:#cdedf9;"/><path d="M89.43,279.32v-7.75h.87v7.75h-.87Z" style="fill:#cdedf9;"/><path d="M96.3,279.42c-.62,0-1.1-.16-1.46-.47-.36-.31-.54-.71-.54-1.2,0-.53.17-.94.52-1.23.35-.29.85-.43,1.51-.43h1.99v-.26c0-.95-.51-1.42-1.52-1.42-.82,0-1.32.31-1.48.94h-.89c.09-.53.34-.94.77-1.24.43-.3.97-.44,1.63-.44.75,0,1.33.18,1.73.54.4.36.6.88.6,1.55v2.63h.42v.92h-.96v-.83h-.39c-.19.28-.46.51-.79.68-.34.17-.72.25-1.14.25ZM96.41,278.7c.35,0,.67-.07.96-.22s.52-.35.7-.59c.17-.25.26-.52.26-.83v-.3h-1.93c-.85,0-1.28.32-1.28.96,0,.3.12.54.35.72s.55.27.95.27Z" style="fill:#cdedf9;"/><path d="M103.85,279.32v-4.61h-.46v-.92h.96v.83h.39c.18-.31.44-.54.78-.7.34-.16.72-.24,1.15-.24.7,0,1.25.2,1.66.61.41.41.62.95.62,1.62v3.4h-.87v-3.27c0-.52-.14-.92-.43-1.19s-.7-.41-1.25-.41-.96.14-1.24.41-.43.67-.43,1.19v3.27h-.87Z" style="fill:#cdedf9;"/><path d="M113.44,279.32v-4.61h-.46v-.92h.96v.83h.39c.18-.31.44-.54.78-.7.34-.16.72-.24,1.15-.24.69,0,1.25.2,1.66.61.41.41.62.95.62,1.62v3.4h-.87v-3.27c0-.52-.14-.92-.43-1.19-.29-.27-.7-.41-1.25-.41s-.96.14-1.24.41c-.29.27-.43.67-.43,1.19v3.27h-.87Z" style="fill:#cdedf9;"/><path d="M123.35,272.95c-.15,0-.28-.05-.39-.16s-.16-.24-.16-.39.05-.28.16-.39.24-.16.39-.16.28.05.39.16.16.24.16.39-.05.28-.16.39-.24.16-.39.16ZM122.91,279.32v-5.53h.87v5.53h-.87Z" style="fill:#cdedf9;"/><path d="M128.38,279.32v-4.61h-.46v-.92h.96v.83h.39c.18-.31.44-.54.78-.7.34-.16.72-.24,1.15-.24.7,0,1.25.2,1.66.61.41.41.62.95.62,1.62v3.4h-.87v-3.27c0-.52-.14-.92-.43-1.19s-.7-.41-1.25-.41-.96.14-1.24.41-.43.67-.43,1.19v3.27h-.87Z" style="fill:#cdedf9;"/><path d="M140.09,281.64c-.74,0-1.35-.16-1.82-.47s-.74-.75-.83-1.3h.92c.17.68.75,1.02,1.72,1.02.61,0,1.08-.15,1.4-.43.33-.29.49-.7.49-1.25v-.94h-.05c-.14.33-.38.59-.71.77s-.72.28-1.16.28c-.53,0-.99-.12-1.37-.35s-.69-.56-.89-.98c-.21-.42-.31-.92-.31-1.5,0-.87.23-1.55.7-2.06s1.1-.76,1.9-.76c.44,0,.82.08,1.14.24.31.16.56.39.75.7h.39v-.83h.96v.92h-.46v4.57c0,.74-.24,1.33-.72,1.74s-1.16.63-2.03.63ZM140.26,278.56c.51,0,.92-.15,1.24-.45.32-.3.48-.7.48-1.19v-.85c0-.49-.16-.89-.48-1.19-.32-.3-.73-.45-1.24-.45-.6,0-1.07.18-1.41.54-.34.36-.51.87-.51,1.52s.17,1.16.51,1.52c.34.36.81.54,1.41.54Z" style="fill:#cdedf9;"/><g style="isolation:isolate;"><path d="M40.14,290.5c-.18,0-.34-.06-.47-.19-.13-.13-.19-.29-.19-.47s.06-.34.19-.47c.13-.13.29-.19.47-.19s.34.06.47.19c.13.13.19.29.19.47s-.06.34-.19.47c-.13.13-.29.19-.47.19Z" style="fill:#cdedf9;"/><path d="M46.66,292.6l-2.22-7.47h.9l1.81,6.42h.05l1.85-6.42h.91l1.96,6.42h.04l1.79-6.42h.91l-2.22,7.47h-.97l-1.96-6.45h-.04l-1.84,6.45h-.97Z" style="fill:#cdedf9;"/><path d="M61.03,292.71c-.57,0-1.06-.12-1.48-.35-.42-.24-.74-.57-.97-1.01-.23-.44-.34-.95-.34-1.53s.11-1.09.34-1.52c.23-.43.55-.76.96-.99.41-.23.89-.35,1.45-.35.52,0,.97.11,1.36.32.38.21.68.51.89.9s.32.85.32,1.37v.39h-4.48c.02.63.21,1.13.56,1.48s.81.54,1.39.54c.4,0,.74-.09,1.02-.26.28-.17.47-.42.58-.75h.89c-.14.56-.43.99-.86,1.3-.43.31-.97.46-1.61.46ZM59.12,289.27h3.6c-.04-.5-.22-.89-.53-1.16-.31-.28-.71-.42-1.21-.42s-.91.14-1.24.42c-.33.28-.54.66-.62,1.16Z" style="fill:#cdedf9;"/><path d="M70.55,292.71c-.44,0-.82-.08-1.13-.24-.31-.16-.56-.39-.75-.7h-.39v.83h-.96v-.92h.46v-6.83h.87v3.15h.04c.17-.34.43-.61.76-.78.34-.18.73-.27,1.18-.27.52,0,.97.12,1.35.35s.67.56.87.99c.2.43.3.94.3,1.54s-.1,1.11-.31,1.54-.5.76-.89.99-.85.35-1.4.35ZM70.43,291.97c.58,0,1.04-.19,1.37-.56.33-.37.49-.9.49-1.58s-.16-1.2-.49-1.58c-.33-.37-.78-.56-1.37-.56-.54,0-.97.15-1.29.46-.33.31-.49.72-.49,1.23v.9c0,.51.16.92.49,1.23.33.31.76.46,1.29.46Z" style="fill:#cdedf9;"/><path d="M80.12,292.6v-7.47h2.62c.81,0,1.51.15,2.1.45s1.04.73,1.36,1.29.48,1.23.48,2-.16,1.43-.48,1.99-.77.99-1.36,1.29c-.59.3-1.28.45-2.09.45h-2.62ZM81.01,291.84h1.73c.95,0,1.69-.26,2.22-.78.53-.52.8-1.25.8-2.2s-.26-1.69-.79-2.21c-.53-.52-1.27-.77-2.22-.77h-1.73v5.96Z" style="fill:#cdedf9;"/><path d="M91.25,286.23c-.15,0-.28-.05-.39-.16-.11-.11-.16-.24-.16-.39s.05-.28.16-.39c.11-.11.24-.16.39-.16s.28.05.39.16c.11.11.16.24.16.39s-.05.28-.16.39c-.11.11-.24.16-.39.16ZM90.81,292.6v-5.53h.87v5.53h-.87Z" style="fill:#cdedf9;"/><path d="M96.39,292.6v-4.61h-.46v-.92h.96v1.01h.39c.16-.33.4-.58.72-.77.32-.19.71-.28,1.15-.28h.45v.74h-.5c-.58,0-1.03.17-1.36.52-.33.34-.49.81-.49,1.4v2.92h-.87Z" style="fill:#cdedf9;"/><path d="M105.86,292.71c-.57,0-1.06-.12-1.48-.35-.42-.24-.74-.57-.97-1.01-.23-.44-.34-.95-.34-1.53s.11-1.09.34-1.52c.23-.43.55-.76.96-.99.41-.23.89-.35,1.45-.35.52,0,.97.11,1.36.32.38.21.68.51.89.9.21.39.32.85.32,1.37v.39h-4.48c.03.63.21,1.13.56,1.48.35.36.81.54,1.39.54.4,0,.74-.09,1.02-.26.28-.17.47-.42.58-.75h.89c-.14.56-.43.99-.86,1.3s-.97.46-1.61.46ZM103.95,289.27h3.6c-.04-.5-.22-.89-.53-1.16-.31-.28-.71-.42-1.21-.42s-.91.14-1.24.42c-.33.28-.54.66-.62,1.16Z" style="fill:#cdedf9;"/><path d="M114.86,292.71c-.56,0-1.05-.12-1.46-.35-.41-.24-.73-.57-.95-1s-.34-.94-.34-1.52.11-1.09.33-1.52c.22-.43.54-.76.95-1,.41-.24.9-.35,1.47-.35.66,0,1.21.16,1.65.48.44.32.74.79.89,1.42h-.89c-.11-.39-.3-.68-.58-.87s-.64-.28-1.08-.28c-.6,0-1.06.19-1.39.56-.33.37-.49.89-.49,1.56s.16,1.18.49,1.56c.33.37.79.56,1.39.56.92,0,1.49-.41,1.7-1.24h.89c-.15.65-.45,1.15-.89,1.49-.45.34-1.01.51-1.69.51Z" style="fill:#cdedf9;"/><path d="M122.44,292.6c-.26,0-.46-.07-.6-.2-.14-.13-.22-.33-.22-.6v-4.08h-1.06v-.66h1.07v-1.66h.85v1.66h1.51v.66h-1.5v4.19h1.65v.68h-1.7Z" style="fill:#cdedf9;"/><path d="M128.42,286.23c-.15,0-.28-.05-.39-.16s-.16-.24-.16-.39.05-.28.16-.39.24-.16.39-.16.28.05.39.16.16.24.16.39-.05.28-.16.39-.24.16-.39.16ZM127.99,292.6v-5.53h.87v5.53h-.87Z" style="fill:#cdedf9;"/><path d="M135.75,292.71c-.57,0-1.06-.12-1.48-.35-.42-.24-.74-.57-.97-1s-.35-.94-.35-1.52.11-1.09.34-1.52c.23-.43.55-.76.97-1,.42-.24.91-.35,1.48-.35s1.07.12,1.49.35c.42.23.74.57.96,1s.34.94.34,1.53-.11,1.09-.34,1.53c-.23.43-.55.77-.97,1-.42.23-.91.35-1.49.35ZM135.75,291.95c.61,0,1.08-.19,1.42-.56.34-.37.51-.89.51-1.56s-.17-1.2-.51-1.57c-.34-.37-.81-.55-1.42-.55s-1.07.19-1.42.56-.51.89-.51,1.56.17,1.19.51,1.56.81.56,1.42.56Z" style="fill:#cdedf9;"/><path d="M142.77,292.6v-4.61h-.46v-.92h.96v.83h.39c.18-.31.45-.54.78-.7.34-.16.72-.24,1.15-.24.69,0,1.25.2,1.66.61.41.41.62.95.62,1.62v3.4h-.87v-3.27c0-.52-.14-.92-.43-1.19-.29-.27-.7-.41-1.25-.41s-.96.14-1.25.41-.43.67-.43,1.19v3.27h-.87Z" style="fill:#cdedf9;"/></g><g style="isolation:isolate;"><path d="M40.14,303.78c-.18,0-.34-.06-.47-.19-.13-.13-.19-.29-.19-.47s.06-.34.19-.47c.13-.13.29-.19.47-.19s.34.06.47.19c.13.13.19.29.19.47s-.06.34-.19.47c-.13.13-.29.19-.47.19Z" style="fill:#cdedf9;"/><path d="M46.66,305.88l-2.22-7.47h.9l1.81,6.42h.05l1.85-6.42h.91l1.96,6.42h.04l1.79-6.42h.91l-2.22,7.47h-.97l-1.96-6.45h-.04l-1.84,6.45h-.97Z" style="fill:#cdedf9;"/><path d="M57.43,305.99c-.57,0-1.06-.12-1.48-.35-.42-.24-.74-.57-.97-1.01-.23-.44-.34-.95-.34-1.53s.11-1.09.34-1.52c.23-.43.55-.76.96-.99.41-.23.89-.35,1.45-.35.52,0,.97.11,1.36.32.38.21.68.51.89.9s.32.85.32,1.37v.39h-4.48c.02.63.21,1.13.56,1.48s.81.54,1.39.54c.4,0,.74-.09,1.02-.26.28-.17.47-.42.58-.75h.89c-.14.56-.43.99-.86,1.3-.43.31-.97.46-1.61.46ZM55.52,302.55h3.6c-.04-.5-.22-.89-.53-1.16-.31-.28-.71-.42-1.21-.42s-.91.14-1.24.42c-.33.28-.54.66-.62,1.16Z" style="fill:#cdedf9;"/><path d="M64.18,305.99c-.44,0-.82-.08-1.13-.24-.31-.16-.56-.39-.75-.7h-.39v.83h-.96v-.92h.46v-6.83h.87v3.15h.04c.17-.34.43-.61.76-.78.34-.18.73-.27,1.18-.27.52,0,.97.12,1.35.35s.67.56.87.99c.2.43.3.94.3,1.54s-.1,1.11-.31,1.54-.5.76-.89.99-.85.35-1.4.35ZM64.06,305.26c.58,0,1.04-.19,1.37-.56.33-.37.49-.9.49-1.58s-.16-1.2-.49-1.58c-.33-.37-.78-.56-1.37-.56-.54,0-.97.15-1.29.46-.33.31-.49.72-.49,1.23v.9c0,.51.16.92.49,1.23.33.31.76.46,1.29.46Z" style="fill:#cdedf9;"/><path d="M70.99,305.88v-7.47h2.62c.81,0,1.51.15,2.1.45s1.04.73,1.36,1.29.48,1.23.48,2-.16,1.43-.48,1.99-.77.99-1.36,1.29c-.59.3-1.28.45-2.09.45h-2.62ZM71.87,305.13h1.73c.95,0,1.69-.26,2.22-.78.53-.52.8-1.25.8-2.2s-.26-1.69-.79-2.21c-.53-.52-1.27-.77-2.22-.77h-1.73v5.96Z" style="fill:#cdedf9;"/><path d="M81.32,305.99c-.57,0-1.06-.12-1.48-.35-.42-.24-.74-.57-.97-1.01-.23-.44-.34-.95-.34-1.53s.11-1.09.34-1.52c.23-.43.55-.76.96-.99.41-.23.89-.35,1.45-.35.52,0,.97.11,1.36.32.38.21.68.51.89.9s.32.85.32,1.37v.39h-4.48c.02.63.21,1.13.56,1.48s.81.54,1.39.54c.4,0,.74-.09,1.02-.26.28-.17.47-.42.58-.75h.89c-.14.56-.43.99-.86,1.3-.43.31-.97.46-1.61.46ZM79.41,302.55h3.6c-.04-.5-.22-.89-.53-1.16-.31-.28-.71-.42-1.21-.42s-.91.14-1.24.42c-.33.28-.54.66-.62,1.16Z" style="fill:#cdedf9;"/><path d="M87.18,305.99c-.75,0-1.34-.15-1.78-.47-.44-.31-.68-.75-.72-1.31h.87c.04.36.2.62.47.79.27.17.67.26,1.19.26.94,0,1.41-.3,1.41-.9,0-.25-.07-.44-.22-.57s-.39-.23-.73-.29l-1.21-.22c-1-.18-1.5-.66-1.5-1.44,0-.5.19-.89.56-1.18.38-.29.89-.43,1.54-.43s1.21.15,1.61.44c.4.29.63.71.7,1.24h-.85c-.07-.33-.22-.57-.46-.72-.24-.16-.58-.24-1.01-.24s-.73.07-.95.22c-.22.15-.33.36-.33.63,0,.21.07.37.22.49s.38.21.71.27l1.2.22c.53.1.92.27,1.16.52s.37.58.37,1c0,.54-.19.95-.58,1.24-.39.3-.94.44-1.66.44Z" style="fill:#cdedf9;"/><path d="M91.06,299.52c-.15,0-.28-.05-.39-.16-.11-.11-.16-.24-.16-.39s.05-.28.16-.39c.11-.11.24-.16.39-.16s.28.05.39.16c.11.11.16.24.16.39s-.05.28-.16.39c-.11.11-.24.16-.39.16ZM90.63,305.88v-5.53h.87v5.53h-.87Z" style="fill:#cdedf9;"/><path d="M95.44,308.21c-.74,0-1.35-.16-1.82-.47s-.74-.75-.83-1.3h.92c.17.68.75,1.02,1.73,1.02.61,0,1.08-.15,1.4-.43.33-.29.49-.7.49-1.25v-.94h-.05c-.14.33-.38.59-.71.77-.33.18-.72.28-1.16.28-.53,0-.99-.12-1.37-.35s-.69-.56-.89-.98c-.21-.42-.31-.92-.31-1.5,0-.87.23-1.55.7-2.06s1.1-.76,1.9-.76c.44,0,.82.08,1.14.24.31.16.56.39.75.7h.39v-.83h.96v.92h-.46v4.57c0,.74-.24,1.33-.72,1.74-.48.42-1.16.63-2.03.63ZM95.62,305.13c.51,0,.92-.15,1.24-.45.32-.3.48-.7.48-1.19v-.85c0-.49-.16-.89-.48-1.19-.32-.3-.73-.45-1.24-.45-.6,0-1.07.18-1.41.54-.34.36-.51.87-.51,1.52s.17,1.16.51,1.52c.34.36.81.54,1.41.54Z" style="fill:#cdedf9;"/><path d="M100.16,305.88v-4.61h-.46v-.92h.96v.83h.39c.18-.31.44-.54.78-.7.34-.16.72-.24,1.15-.24.69,0,1.25.2,1.66.61.41.41.62.95.62,1.62v3.4h-.87v-3.27c0-.52-.14-.92-.43-1.19-.29-.27-.7-.41-1.25-.41s-.96.14-1.24.41c-.29.27-.43.67-.43,1.19v3.27h-.87Z" style="fill:#cdedf9;"/></g><path d="M40.14,317.06c-.18,0-.34-.06-.47-.19-.13-.13-.19-.29-.19-.47s.06-.34.19-.47c.13-.13.29-.19.47-.19s.34.06.47.19c.13.13.19.29.19.47s-.06.34-.19.47c-.13.13-.29.19-.47.19Z" style="fill:#cdedf9;"/><path d="M48.05,319.28c-.66,0-1.23-.1-1.69-.31s-.81-.52-1.05-.93c-.24-.41-.36-.91-.36-1.51v-4.83h.89v4.83c0,.66.18,1.15.55,1.47.37.32.93.48,1.7.48s1.29-.16,1.67-.49c.38-.33.56-.81.56-1.46v-4.84h.87v4.85c0,.88-.27,1.55-.82,2.03-.54.47-1.32.71-2.33.71Z" style="fill:#cdedf9;"/><path d="M54.99,319.17l2.82-3.89-2.62-3.58h.99l2.19,2.99h.05l2.18-2.99h.93l-2.62,3.56,2.82,3.91h-1.01l-2.35-3.29h-.05l-2.39,3.29h-.94Z" style="fill:#cdedf9;"/><path d="M64.85,319.28l2.75-7.69h.79l-2.75,7.69h-.79Z" style="fill:#cdedf9;"/><path d="M75.26,319.28c-.66,0-1.23-.1-1.69-.31s-.81-.52-1.05-.93c-.24-.41-.36-.91-.36-1.51v-4.83h.89v4.83c0,.66.18,1.15.55,1.47.37.32.93.48,1.7.48s1.29-.16,1.67-.49c.38-.33.56-.81.56-1.46v-4.84h.87v4.85c0,.88-.27,1.55-.82,2.03-.54.47-1.32.71-2.33.71Z" style="fill:#cdedf9;"/><path d="M83.01,319.17v-7.47h.89v7.47h-.89Z" style="fill:#cdedf9;"/><path d="M91.38,319.17v-7.47h2.62c.81,0,1.51.15,2.1.45s1.04.73,1.36,1.29c.32.56.48,1.23.48,2s-.16,1.43-.48,1.99-.77.99-1.36,1.29c-.59.3-1.28.45-2.09.45h-2.62ZM92.26,318.41h1.73c.95,0,1.69-.26,2.22-.78s.8-1.25.8-2.2-.26-1.69-.79-2.21c-.53-.52-1.27-.77-2.22-.77h-1.73v5.96Z" style="fill:#cdedf9;"/><path d="M104.47,319.28c-.57,0-1.06-.12-1.48-.35s-.74-.57-.97-1.01c-.23-.44-.34-.95-.34-1.53s.11-1.09.34-1.52c.23-.43.55-.76.96-.99.41-.23.89-.35,1.45-.35.52,0,.97.11,1.36.32.38.21.68.51.89.9.21.39.32.85.32,1.37v.39h-4.48c.02.63.21,1.13.56,1.48.35.36.81.54,1.39.54.4,0,.74-.09,1.02-.26.28-.17.47-.42.58-.75h.89c-.14.56-.43.99-.86,1.3-.43.31-.97.46-1.61.46ZM102.56,315.84h3.6c-.04-.5-.22-.89-.53-1.16s-.71-.42-1.21-.42-.91.14-1.24.42-.54.66-.62,1.16Z" style="fill:#cdedf9;"/><path d="M113.1,319.28c-.75,0-1.34-.15-1.78-.47-.44-.31-.68-.75-.72-1.31h.87c.04.36.2.62.47.79.27.17.67.26,1.19.26.94,0,1.41-.3,1.41-.9,0-.25-.07-.44-.22-.57-.15-.13-.39-.23-.73-.29l-1.21-.22c-1-.18-1.5-.66-1.5-1.44,0-.5.19-.89.56-1.18.37-.29.89-.43,1.54-.43s1.21.15,1.61.44c.4.29.63.71.7,1.24h-.85c-.07-.33-.22-.57-.46-.72-.24-.16-.58-.24-1.01-.24s-.73.07-.95.22c-.22.15-.33.36-.33.63,0,.21.07.37.22.49.14.12.38.21.71.27l1.2.22c.53.1.92.27,1.16.52s.37.58.37,1c0,.54-.19.95-.58,1.24-.39.3-.94.44-1.66.44Z" style="fill:#cdedf9;"/><path d="M119.75,312.8c-.15,0-.28-.05-.39-.16-.11-.11-.16-.24-.16-.39s.05-.28.16-.39c.11-.11.24-.16.39-.16s.28.05.39.16c.11.11.16.24.16.39s-.05.28-.16.39c-.11.11-.24.16-.39.16ZM119.32,319.17v-5.53h.87v5.53h-.87Z" style="fill:#cdedf9;"/><path d="M126.9,321.49c-.74,0-1.35-.16-1.82-.47s-.74-.75-.83-1.3h.92c.17.68.75,1.02,1.73,1.02.61,0,1.08-.15,1.4-.43.33-.29.49-.7.49-1.25v-.94h-.05c-.14.33-.38.59-.71.77-.33.18-.72.28-1.16.28-.53,0-.99-.12-1.37-.35s-.69-.56-.89-.98c-.21-.42-.31-.92-.31-1.5,0-.87.23-1.55.7-2.06s1.1-.76,1.9-.76c.44,0,.82.08,1.14.24.31.16.56.39.75.7h.39v-.83h.96v.92h-.46v4.57c0,.74-.24,1.33-.72,1.74-.48.42-1.16.63-2.03.63ZM127.07,318.41c.51,0,.92-.15,1.24-.45.32-.3.48-.7.48-1.19v-.85c0-.49-.16-.89-.48-1.19-.32-.3-.73-.45-1.24-.45-.6,0-1.07.18-1.41.54-.34.36-.51.87-.51,1.52s.17,1.16.51,1.52c.34.36.81.54,1.41.54Z" style="fill:#cdedf9;"/><path d="M134.38,319.17v-4.61h-.46v-.92h.96v.83h.39c.18-.31.45-.54.78-.7.34-.16.72-.24,1.15-.24.69,0,1.25.2,1.66.61.41.41.62.95.62,1.62v3.4h-.87v-3.27c0-.52-.14-.92-.43-1.19-.29-.27-.7-.41-1.25-.41s-.96.14-1.25.41-.43.67-.43,1.19v3.27h-.87Z" style="fill:#cdedf9;"/><path d="M40.14,330.35c-.18,0-.34-.06-.47-.19-.13-.13-.19-.29-.19-.47s.06-.34.19-.47c.13-.13.29-.19.47-.19s.34.06.47.19c.13.13.19.29.19.47s-.06.34-.19.47c-.13.13-.29.19-.47.19Z" style="fill:#cdedf9;"/><path d="M46.66,332.45l-2.22-7.47h.9l1.81,6.42h.05l1.85-6.42h.91l1.96,6.42h.04l1.79-6.42h.91l-2.22,7.47h-.97l-1.96-6.45h-.04l-1.84,6.45h-.97Z" style="fill:#cdedf9;"/><path d="M61.04,332.56c-.57,0-1.06-.12-1.48-.35-.42-.24-.74-.57-.97-1s-.35-.94-.35-1.52.11-1.09.34-1.52c.23-.43.55-.76.97-1,.42-.24.91-.35,1.48-.35s1.07.12,1.49.35c.42.23.74.57.96,1s.34.94.34,1.53-.11,1.09-.34,1.53c-.23.43-.55.77-.97,1-.42.23-.91.35-1.49.35ZM61.04,331.8c.61,0,1.08-.19,1.42-.56s.51-.89.51-1.56-.17-1.2-.51-1.57c-.34-.37-.81-.55-1.42-.55s-1.07.19-1.42.56c-.34.37-.51.89-.51,1.56s.17,1.19.51,1.56c.34.37.81.56,1.42.56Z" style="fill:#cdedf9;"/><path d="M68.17,332.45v-4.61h-.46v-.92h.96v1.01h.39c.16-.33.4-.58.72-.77.32-.19.71-.28,1.15-.28h.45v.74h-.5c-.58,0-1.03.17-1.36.52-.33.34-.49.81-.49,1.4v2.92h-.87Z" style="fill:#cdedf9;"/><path d="M77.45,332.56c-.54,0-1.01-.12-1.4-.35-.39-.23-.69-.56-.89-.99-.21-.43-.31-.94-.31-1.54s.1-1.11.3-1.54c.2-.43.49-.76.87-.99s.83-.35,1.35-.35c.46,0,.85.09,1.18.27s.58.44.76.78h.04v-3.15h.87v6.83h.46v.92h-.96v-.83h-.39c-.18.31-.43.54-.75.7-.31.16-.69.24-1.13.24ZM77.57,331.82c.53,0,.97-.15,1.29-.46.33-.31.49-.72.49-1.23v-.9c0-.51-.16-.92-.49-1.23-.33-.31-.76-.46-1.29-.46-.58,0-1.04.19-1.37.56-.33.37-.49.9-.49,1.58s.16,1.2.49,1.58c.33.38.78.56,1.37.56Z" style="fill:#cdedf9;"/><path d="M84.92,332.45v-7.47h3.27c.83,0,1.47.2,1.91.61.44.41.66.96.66,1.66s-.22,1.25-.67,1.66-1.08.61-1.9.61h-2.39v2.93h-.89ZM85.8,328.78h2.35c.57,0,.99-.14,1.29-.41.29-.28.44-.65.44-1.12s-.15-.85-.44-1.12c-.29-.27-.72-.41-1.29-.41h-2.35v3.06Z" style="fill:#cdedf9;"/><path d="M94.92,332.45v-4.61h-.46v-.92h.96v1.01h.39c.16-.33.4-.58.72-.77.32-.19.71-.28,1.15-.28h.45v.74h-.5c-.58,0-1.03.17-1.36.52-.33.34-.49.81-.49,1.4v2.92h-.87Z" style="fill:#cdedf9;"/><path d="M104.38,332.56c-.57,0-1.06-.12-1.48-.35-.42-.24-.74-.57-.97-1.01-.23-.44-.34-.95-.34-1.53s.11-1.09.34-1.52c.23-.43.55-.76.96-.99.41-.23.89-.35,1.45-.35.52,0,.97.11,1.36.32.38.21.68.51.89.9.21.39.32.85.32,1.37v.39h-4.48c.03.63.21,1.13.56,1.48.35.36.81.54,1.39.54.4,0,.74-.09,1.02-.26.28-.17.47-.42.58-.75h.89c-.14.56-.43.99-.86,1.3s-.97.46-1.61.46ZM102.47,329.12h3.6c-.04-.5-.22-.89-.53-1.16-.31-.28-.71-.42-1.21-.42s-.91.14-1.24.42c-.33.28-.54.66-.62,1.16Z" style="fill:#cdedf9;"/><path d="M113.01,332.56c-.75,0-1.34-.15-1.78-.47s-.68-.75-.72-1.31h.87c.04.36.2.62.47.79.27.17.67.26,1.19.26.94,0,1.41-.3,1.41-.9,0-.25-.07-.44-.22-.57-.14-.13-.39-.23-.73-.29l-1.21-.22c-1-.18-1.5-.66-1.5-1.44,0-.5.19-.89.56-1.18.38-.29.89-.43,1.54-.43s1.21.15,1.61.44c.4.29.64.71.7,1.24h-.85c-.07-.33-.22-.57-.46-.72s-.57-.24-1.01-.24-.73.07-.95.22c-.22.15-.33.36-.33.63,0,.21.07.37.22.49.15.12.38.21.71.27l1.2.22c.53.1.92.27,1.16.52s.37.58.37,1c0,.54-.19.95-.58,1.24-.39.3-.94.44-1.66.44Z" style="fill:#cdedf9;"/><path d="M121.22,332.56c-.75,0-1.34-.15-1.78-.47-.44-.31-.68-.75-.72-1.31h.87c.04.36.2.62.47.79.27.17.67.26,1.19.26.94,0,1.41-.3,1.41-.9,0-.25-.07-.44-.22-.57-.15-.13-.39-.23-.73-.29l-1.21-.22c-1-.18-1.5-.66-1.5-1.44,0-.5.19-.89.56-1.18.37-.29.89-.43,1.54-.43s1.21.15,1.61.44c.4.29.63.71.7,1.24h-.85c-.07-.33-.22-.57-.46-.72-.24-.16-.58-.24-1.01-.24s-.73.07-.95.22c-.22.15-.33.36-.33.63,0,.21.07.37.22.49.14.12.38.21.71.27l1.2.22c.53.1.92.27,1.16.52s.37.58.37,1c0,.54-.19.95-.58,1.24-.39.3-.94.44-1.66.44Z" style="fill:#cdedf9;"/><path d="M40.14,343.63c-.18,0-.34-.06-.47-.19-.13-.13-.19-.29-.19-.47s.06-.34.19-.47c.13-.13.29-.19.47-.19s.34.06.47.19c.13.13.19.29.19.47s-.06.34-.19.47c-.13.13-.29.19-.47.19Z" style="fill:#cdedf9;"/><path d="M45.95,345.73h-.89v-7.47h5.04v.76h-4.15v2.57h3.93v.76h-3.93v3.39Z" style="fill:#cdedf9;"/><path d="M54.15,345.73v-4.61h-.46v-.92h.96v1.01h.39c.16-.33.4-.58.72-.77.32-.19.71-.28,1.15-.28h.45v.74h-.5c-.58,0-1.03.17-1.36.52-.33.34-.49.81-.49,1.4v2.92h-.87Z" style="fill:#cdedf9;"/><path d="M63.62,345.84c-.57,0-1.06-.12-1.48-.35-.42-.24-.74-.57-.97-1s-.35-.94-.35-1.52.11-1.09.34-1.52c.23-.43.55-.76.97-1,.42-.24.91-.35,1.48-.35s1.07.12,1.49.35c.42.23.74.57.96,1s.34.94.34,1.53-.11,1.09-.34,1.53c-.23.43-.55.77-.97,1-.42.23-.91.35-1.49.35ZM63.62,345.09c.61,0,1.08-.19,1.42-.56s.51-.89.51-1.56-.17-1.2-.51-1.57c-.34-.37-.81-.55-1.42-.55s-1.07.19-1.42.56c-.34.37-.51.89-.51,1.56s.17,1.19.51,1.56c.34.37.81.56,1.42.56Z" style="fill:#cdedf9;"/><path d="M70.64,345.73v-4.61h-.46v-.92h.96v.83h.39c.18-.31.44-.54.78-.7.34-.16.72-.24,1.15-.24.69,0,1.25.2,1.66.61.41.41.62.95.62,1.62v3.4h-.87v-3.27c0-.52-.14-.92-.43-1.19-.29-.27-.7-.41-1.25-.41s-.96.14-1.24.41c-.29.27-.43.67-.43,1.19v3.27h-.87Z" style="fill:#cdedf9;"/><path d="M81.3,345.73c-.26,0-.46-.07-.6-.2s-.22-.33-.22-.6v-4.08h-1.06v-.66h1.07v-1.66h.85v1.66h1.51v.66h-1.5v4.19h1.65v.68h-1.7Z" style="fill:#cdedf9;"/><path d="M89.25,345.84c-.57,0-1.06-.12-1.48-.35-.42-.24-.74-.57-.97-1.01-.23-.44-.34-.95-.34-1.53s.11-1.09.34-1.52c.23-.43.55-.76.96-.99.41-.23.89-.35,1.45-.35.52,0,.97.11,1.36.32.38.21.68.51.89.9s.32.85.32,1.37v.39h-4.48c.02.63.21,1.13.56,1.48s.81.54,1.39.54c.4,0,.74-.09,1.02-.26.28-.17.47-.42.58-.75h.89c-.14.56-.43.99-.86,1.3-.43.31-.97.46-1.61.46ZM87.34,342.4h3.6c-.04-.5-.22-.89-.53-1.16-.31-.28-.71-.42-1.21-.42s-.91.14-1.24.42c-.33.28-.54.66-.62,1.16Z" style="fill:#cdedf9;"/><path d="M96.01,345.73v-4.61h-.46v-.92h.96v.83h.39c.18-.31.44-.54.78-.7.34-.16.72-.24,1.15-.24.7,0,1.25.2,1.66.61.41.41.62.95.62,1.62v3.4h-.87v-3.27c0-.52-.14-.92-.43-1.19s-.7-.41-1.25-.41-.96.14-1.24.41-.43.67-.43,1.19v3.27h-.87Z" style="fill:#cdedf9;"/><path d="M107.7,345.84c-.54,0-1.01-.12-1.4-.35-.39-.23-.69-.56-.89-.99-.21-.43-.31-.94-.31-1.54s.1-1.11.3-1.54c.2-.43.49-.76.87-.99s.83-.35,1.35-.35c.46,0,.85.09,1.18.27.33.18.58.44.76.78h.04v-3.15h.87v6.83h.46v.92h-.96v-.83h-.39c-.18.31-.43.54-.75.7-.31.16-.69.24-1.14.24ZM107.82,345.11c.53,0,.96-.15,1.29-.46.33-.31.49-.72.49-1.23v-.9c0-.51-.16-.92-.49-1.23-.33-.31-.76-.46-1.29-.46-.58,0-1.04.19-1.37.56s-.49.9-.49,1.58.16,1.2.49,1.58c.33.38.78.56,1.37.56Z" style="fill:#cdedf9;"/><path d="M117.94,345.73v-7.47h2.62c.81,0,1.51.15,2.1.45s1.04.73,1.36,1.29c.32.56.47,1.23.47,2s-.16,1.43-.48,1.99-.77.99-1.36,1.29c-.59.3-1.28.45-2.09.45h-2.62ZM118.83,344.98h1.73c.95,0,1.69-.26,2.22-.78.53-.52.8-1.25.8-2.2s-.26-1.69-.79-2.21c-.53-.52-1.27-.77-2.22-.77h-1.73v5.96Z" style="fill:#cdedf9;"/><path d="M131.04,345.84c-.57,0-1.06-.12-1.48-.35-.42-.24-.74-.57-.97-1.01-.23-.44-.34-.95-.34-1.53s.11-1.09.34-1.52c.23-.43.55-.76.96-.99.41-.23.9-.35,1.45-.35.52,0,.97.11,1.36.32.38.21.68.51.89.9.21.39.32.85.32,1.37v.39h-4.48c.03.63.21,1.13.56,1.48.35.36.81.54,1.39.54.4,0,.74-.09,1.02-.26.28-.17.47-.42.58-.75h.89c-.14.56-.43.99-.86,1.3s-.97.46-1.61.46ZM129.13,342.4h3.6c-.04-.5-.22-.89-.53-1.16s-.71-.42-1.21-.42-.91.14-1.24.42c-.33.28-.54.66-.62,1.16Z" style="fill:#cdedf9;"/><path d="M139.22,345.73l-2.35-5.53h.9l1.96,4.69h.04l1.94-4.69h.87l-2.35,5.53h-1Z" style="fill:#cdedf9;"/><path d="M148.66,345.84c-.57,0-1.06-.12-1.48-.35-.42-.24-.74-.57-.97-1.01-.23-.44-.34-.95-.34-1.53s.11-1.09.34-1.52c.23-.43.55-.76.96-.99.41-.23.9-.35,1.45-.35.52,0,.97.11,1.36.32.38.21.68.51.89.9.21.39.32.85.32,1.37v.39h-4.48c.02.63.21,1.13.56,1.48.35.36.81.54,1.39.54.4,0,.74-.09,1.02-.26.28-.17.47-.42.58-.75h.89c-.14.56-.43.99-.86,1.3s-.97.46-1.61.46ZM146.75,342.4h3.6c-.04-.5-.22-.89-.53-1.16s-.71-.42-1.21-.42-.91.14-1.24.42c-.33.28-.54.66-.62,1.16Z" style="fill:#cdedf9;"/><path d="M155.29,345.73v-7.75h.87v7.75h-.87Z" style="fill:#cdedf9;"/><path d="M163.06,345.84c-.57,0-1.06-.12-1.48-.35-.42-.24-.74-.57-.97-1s-.35-.94-.35-1.52.11-1.09.34-1.52c.23-.43.55-.76.97-1,.42-.24.91-.35,1.48-.35s1.07.12,1.49.35c.42.23.74.57.96,1s.34.94.34,1.53-.11,1.09-.34,1.53c-.23.43-.55.77-.97,1-.42.23-.91.35-1.49.35ZM163.06,345.09c.61,0,1.08-.19,1.42-.56.34-.37.51-.89.51-1.56s-.17-1.2-.51-1.57c-.34-.37-.81-.55-1.42-.55s-1.07.19-1.42.56-.51.89-.51,1.56.17,1.19.51,1.56.81.56,1.42.56Z" style="fill:#cdedf9;"/><path d="M170.08,347.95v-6.83h-.46v-.92h.96v.83h.39c.18-.31.43-.54.75-.7.31-.16.69-.24,1.13-.24.55,0,1.02.12,1.4.35s.68.56.89.99.31.94.31,1.54-.1,1.11-.3,1.54-.49.76-.87.99c-.38.23-.83.35-1.35.35-.45,0-.84-.09-1.18-.27s-.59-.44-.76-.78h-.04v3.15h-.87ZM172.72,345.11c.58,0,1.04-.19,1.37-.56.33-.37.49-.9.49-1.58s-.16-1.2-.49-1.58-.78-.56-1.37-.56c-.54,0-.97.15-1.29.46-.33.31-.49.72-.49,1.23v.9c0,.51.16.92.49,1.23.33.31.76.46,1.29.46Z" style="fill:#cdedf9;"/><path d="M179.67,345.73v-4.61h-.46v-.92h.96v.83h.46c.15-.3.37-.53.67-.69.3-.16.66-.24,1.08-.24s.8.09,1.1.27.54.46.72.83h.03c.38-.73,1.02-1.1,1.92-1.1.66,0,1.18.19,1.55.58.37.38.56.92.56,1.6v3.46h-.87v-3.35c0-1.02-.5-1.53-1.5-1.53s-1.49.51-1.49,1.53v3.35h-.87v-3.35c0-1.02-.5-1.53-1.5-1.53-.49,0-.86.13-1.11.39s-.38.64-.38,1.14v3.35h-.87Z" style="fill:#cdedf9;"/><path d="M195.06,345.84c-.57,0-1.06-.12-1.48-.35-.42-.24-.74-.57-.97-1.01-.23-.44-.34-.95-.34-1.53s.11-1.09.34-1.52c.23-.43.55-.76.96-.99.41-.23.9-.35,1.45-.35.52,0,.97.11,1.36.32.38.21.68.51.89.9.21.39.32.85.32,1.37v.39h-4.48c.02.63.21,1.13.56,1.48.35.36.81.54,1.39.54.4,0,.74-.09,1.02-.26.28-.17.47-.42.58-.75h.89c-.14.56-.43.99-.86,1.3s-.97.46-1.61.46ZM193.15,342.4h3.6c-.04-.5-.22-.89-.53-1.16s-.71-.42-1.21-.42-.91.14-1.24.42c-.33.28-.54.66-.62,1.16Z" style="fill:#cdedf9;"/><path d="M201.81,345.73v-4.61h-.46v-.92h.96v.83h.39c.18-.31.45-.54.78-.7.34-.16.72-.24,1.15-.24.69,0,1.25.2,1.66.61.41.41.62.95.62,1.62v3.4h-.87v-3.27c0-.52-.14-.92-.43-1.19-.29-.27-.7-.41-1.25-.41s-.96.14-1.25.41-.43.67-.43,1.19v3.27h-.87Z" style="fill:#cdedf9;"/><path d="M212.47,345.73c-.26,0-.46-.07-.6-.2-.15-.13-.22-.33-.22-.6v-4.08h-1.06v-.66h1.07v-1.66h.85v1.66h1.51v.66h-1.5v4.19h1.65v.68h-1.7Z" style="fill:#cdedf9;"/><g style="isolation:isolate;"><path d="M40.14,356.91c-.18,0-.34-.06-.47-.19-.13-.13-.19-.29-.19-.47s.06-.34.19-.47c.13-.13.29-.19.47-.19s.34.06.47.19c.13.13.19.29.19.47s-.06.34-.19.47c-.13.13-.29.19-.47.19Z" style="fill:#cdedf9;"/><path d="M47.68,359.13c-.94,0-1.69-.21-2.25-.62-.56-.41-.87-.98-.92-1.71h.95c.01.49.21.87.6,1.14.39.27.94.41,1.65.41.62,0,1.1-.11,1.43-.34.34-.23.5-.56.5-1.01,0-.35-.12-.63-.35-.85-.24-.22-.59-.38-1.05-.47l-1.39-.27c-.63-.12-1.11-.35-1.45-.68-.34-.33-.51-.74-.51-1.24,0-.63.24-1.14.71-1.51.47-.37,1.12-.56,1.93-.56s1.5.2,2.02.59c.52.39.82.93.91,1.63h-.95c-.19-.96-.86-1.44-2.02-1.44-.54,0-.96.11-1.27.32-.3.21-.46.52-.46.91,0,.64.45,1.05,1.37,1.23l1.45.29c.63.12,1.11.35,1.44.69.33.34.49.77.49,1.3,0,.69-.25,1.23-.76,1.61-.5.38-1.2.58-2.08.58Z" style="fill:#cdedf9;"/><path d="M59.98,359.02h-5.13v-7.47h5.13v.76h-4.24v2.47h4.05v.74h-4.05v2.75h4.24v.76Z" style="fill:#cdedf9;"/><path d="M67.45,359.13c-.75,0-1.41-.16-1.96-.47-.56-.32-.99-.76-1.3-1.34-.31-.58-.46-1.25-.46-2.03s.15-1.46.46-2.03c.31-.57.74-1.02,1.3-1.34.56-.32,1.21-.47,1.96-.47s1.41.16,1.97.47c.56.32.99.76,1.3,1.34s.46,1.25.46,2.03-.15,1.45-.46,2.03c-.31.58-.74,1.03-1.3,1.34-.56.32-1.21.47-1.97.47ZM67.45,358.35c.87,0,1.56-.27,2.07-.82.5-.55.76-1.3.76-2.25s-.25-1.71-.75-2.26c-.5-.54-1.19-.82-2.07-.82s-1.56.27-2.07.82c-.5.54-.76,1.3-.76,2.26s.25,1.71.76,2.25c.5.54,1.19.82,2.07.82Z" style="fill:#cdedf9;"/></g><g style="isolation:isolate;"><path d="M40.14,370.2c-.18,0-.34-.06-.47-.19-.13-.13-.19-.29-.19-.47s.06-.34.19-.47c.13-.13.29-.19.47-.19s.34.06.47.19c.13.13.19.29.19.47s-.06.34-.19.47c-.13.13-.29.19-.47.19Z" style="fill:#cdedf9;"/><path d="M46.66,372.3l-2.22-7.47h.9l1.81,6.42h.05l1.85-6.42h.91l1.96,6.42h.04l1.79-6.42h.91l-2.22,7.47h-.97l-1.96-6.45h-.04l-1.84,6.45h-.97Z" style="fill:#cdedf9;"/><path d="M61.03,372.41c-.57,0-1.06-.12-1.48-.35-.42-.24-.74-.57-.97-1.01-.23-.44-.34-.95-.34-1.53s.11-1.09.34-1.52c.23-.43.55-.76.96-.99.41-.23.89-.35,1.45-.35.52,0,.97.11,1.36.32.38.21.68.51.89.9s.32.85.32,1.37v.39h-4.48c.02.63.21,1.13.56,1.48s.81.54,1.39.54c.4,0,.74-.09,1.02-.26.28-.17.47-.42.58-.75h.89c-.14.56-.43.99-.86,1.3-.43.31-.97.46-1.61.46ZM59.12,368.97h3.6c-.04-.5-.22-.89-.53-1.16-.31-.28-.71-.42-1.21-.42s-.91.14-1.24.42c-.33.28-.54.66-.62,1.16Z" style="fill:#cdedf9;"/><path d="M70.55,372.41c-.44,0-.82-.08-1.13-.24-.31-.16-.56-.39-.75-.7h-.39v.83h-.96v-.92h.46v-6.83h.87v3.15h.04c.17-.34.43-.61.76-.78.34-.18.73-.27,1.18-.27.52,0,.97.12,1.35.35s.67.56.87.99c.2.43.3.94.3,1.54s-.1,1.11-.31,1.54-.5.76-.89.99-.85.35-1.4.35ZM70.43,371.67c.58,0,1.04-.19,1.37-.56.33-.37.49-.9.49-1.58s-.16-1.2-.49-1.58c-.33-.37-.78-.56-1.37-.56-.54,0-.97.15-1.29.46-.33.31-.49.72-.49,1.23v.9c0,.51.16.92.49,1.23.33.31.76.46,1.29.46Z" style="fill:#cdedf9;"/><path d="M80.12,372.3v-7.47h1.34l2.71,6.27h.04l2.72-6.27h1.33v7.47h-.89v-6.54h-.04l-2.82,6.54h-.7l-2.82-6.55h-.04v6.55h-.83Z" style="fill:#cdedf9;"/><path d="M94.36,372.4c-.62,0-1.1-.16-1.46-.47-.36-.31-.54-.71-.54-1.2,0-.53.17-.94.52-1.23.35-.29.85-.43,1.51-.43h1.99v-.26c0-.95-.51-1.42-1.52-1.42-.82,0-1.32.31-1.49.94h-.89c.09-.53.34-.94.77-1.24.43-.3.97-.44,1.63-.44.75,0,1.33.18,1.72.54.4.36.6.88.6,1.55v2.63h.42v.92h-.96v-.83h-.39c-.19.28-.45.51-.79.68-.34.17-.72.25-1.14.25ZM94.47,371.68c.35,0,.67-.07.96-.22.29-.15.52-.35.7-.59.17-.25.26-.52.26-.83v-.3h-1.93c-.85,0-1.28.32-1.28.96,0,.3.12.54.35.72s.55.27.95.27Z" style="fill:#cdedf9;"/><path d="M102.02,372.3v-4.61h-.46v-.92h.96v1.01h.39c.16-.33.4-.58.72-.77.32-.19.71-.28,1.15-.28h.45v.74h-.5c-.58,0-1.03.17-1.36.52-.33.34-.49.81-.49,1.4v2.92h-.87Z" style="fill:#cdedf9;"/><path d="M109.01,372.3v-7.75h.87v4.87h.04l2.83-2.66h1.08l-2.6,2.34,2.82,3.19h-1.07l-2.33-2.66-.77.63v2.03h-.87Z" style="fill:#cdedf9;"/><path d="M120.25,372.41c-.57,0-1.06-.12-1.48-.35s-.74-.57-.97-1.01c-.23-.44-.34-.95-.34-1.53s.11-1.09.34-1.52c.23-.43.55-.76.96-.99.41-.23.89-.35,1.45-.35.52,0,.97.11,1.36.32.38.21.68.51.89.9.21.39.32.85.32,1.37v.39h-4.48c.02.63.21,1.13.56,1.48.35.36.81.54,1.39.54.4,0,.74-.09,1.02-.26.28-.17.47-.42.58-.75h.89c-.14.56-.43.99-.86,1.3-.43.31-.97.46-1.61.46ZM118.34,368.97h3.6c-.04-.5-.22-.89-.53-1.16s-.71-.42-1.21-.42-.91.14-1.24.42-.54.66-.62,1.16Z" style="fill:#cdedf9;"/><path d="M128.07,372.3c-.26,0-.46-.07-.6-.2-.14-.13-.22-.33-.22-.6v-4.08h-1.06v-.66h1.07v-1.66h.85v1.66h1.51v.66h-1.5v4.19h1.65v.68h-1.7Z" style="fill:#cdedf9;"/><path d="M134.05,365.93c-.15,0-.28-.05-.39-.16s-.16-.24-.16-.39.05-.28.16-.39.24-.16.39-.16.28.05.39.16.16.24.16.39-.05.28-.16.39-.24.16-.39.16ZM133.61,372.3v-5.53h.87v5.53h-.87Z" style="fill:#cdedf9;"/><path d="M139.08,372.3v-4.61h-.46v-.92h.96v.83h.39c.18-.31.45-.54.78-.7.34-.16.72-.24,1.15-.24.69,0,1.25.2,1.66.61.41.41.62.95.62,1.62v3.4h-.87v-3.27c0-.52-.14-.92-.43-1.19-.29-.27-.7-.41-1.25-.41s-.96.14-1.25.41-.43.67-.43,1.19v3.27h-.87Z" style="fill:#cdedf9;"/><path d="M150.79,374.62c-.74,0-1.35-.16-1.82-.47s-.74-.75-.83-1.3h.92c.17.68.75,1.02,1.72,1.02.61,0,1.08-.15,1.4-.43.33-.29.49-.7.49-1.25v-.94h-.05c-.14.33-.38.59-.71.77s-.72.28-1.16.28c-.53,0-.99-.12-1.37-.35s-.69-.56-.89-.98c-.21-.42-.31-.92-.31-1.5,0-.87.23-1.55.7-2.06.47-.51,1.1-.76,1.9-.76.44,0,.82.08,1.14.24.31.16.56.39.75.7h.39v-.83h.96v.92h-.46v4.57c0,.74-.24,1.33-.72,1.74s-1.16.63-2.03.63ZM150.96,371.54c.51,0,.92-.15,1.24-.45.32-.3.48-.7.48-1.19v-.85c0-.49-.16-.89-.48-1.19-.32-.3-.73-.45-1.24-.45-.6,0-1.07.18-1.41.54s-.51.87-.51,1.52.17,1.16.51,1.52.81.54,1.41.54Z" style="fill:#cdedf9;"/></g><g style="isolation:isolate;"><path d="M28.64,9.41V.28h2.71v1.06h-1.47v7.01h1.47v1.06h-2.71Z" style="fill:#cdedf9;"/><path d="M35.59,5.85c-.24,0-.44-.08-.61-.25-.17-.17-.25-.37-.25-.61s.08-.44.25-.61c.17-.17.37-.25.61-.25s.44.08.61.25c.17.17.25.37.25.61s-.08.44-.25.61c-.17.17-.37.25-.61.25Z" style="fill:#cdedf9;"/><path d="M43.26,7.86c-.99,0-1.78-.22-2.37-.65s-.91-1.04-.96-1.8h1.45c.05.43.24.76.57.98.33.22.79.33,1.37.33.52,0,.91-.09,1.18-.26.27-.17.4-.43.4-.77,0-.26-.09-.48-.26-.64-.18-.16-.45-.28-.83-.36l-1.51-.3c-.68-.14-1.19-.38-1.53-.72-.34-.34-.51-.77-.51-1.31,0-.68.25-1.21.77-1.6.51-.39,1.21-.59,2.09-.59s1.61.2,2.16.61.86.98.94,1.7h-1.45c-.18-.8-.76-1.2-1.73-1.2-.44,0-.78.08-1.03.24s-.37.4-.37.7c0,.47.34.78,1.01.91l1.57.32c.7.14,1.22.39,1.55.73.34.35.5.81.5,1.38,0,.72-.26,1.28-.79,1.68s-1.27.6-2.22.6Z" style="fill:#cdedf9;"/><path d="M49.98,7.75V0h1.37v4.35h.04l2.33-2.14h1.64l-2.41,2.18,2.6,3.36h-1.62l-1.94-2.52-.65.53v1.99h-1.37Z" style="fill:#cdedf9;"/><path d="M59.7,1.61c-.22,0-.4-.07-.55-.23-.15-.15-.23-.33-.23-.55s.08-.4.23-.55c.15-.15.33-.23.55-.23s.4.08.55.23c.15.15.23.33.23.55s-.08.4-.23.55c-.15.15-.33.23-.55.23ZM59.02,7.75V2.21h1.37v5.53h-1.37Z" style="fill:#cdedf9;"/><path d="M64.42,7.75V0h1.37v7.75h-1.37Z" style="fill:#cdedf9;"/><path d="M69.83,7.75V0h1.37v7.75h-1.37Z" style="fill:#cdedf9;"/><path d="M77.53,7.86c-.8,0-1.43-.17-1.89-.5s-.71-.8-.75-1.41h1.34c.04.29.18.5.4.64.22.14.54.21.96.21.71,0,1.06-.21,1.06-.62,0-.17-.05-.29-.16-.39-.11-.09-.29-.16-.54-.21l-1.22-.23c-1.08-.21-1.62-.72-1.62-1.53,0-.52.21-.94.62-1.25.41-.31.98-.47,1.71-.47s1.3.16,1.73.47c.43.32.67.76.71,1.34h-1.33c-.07-.28-.2-.48-.38-.6-.19-.13-.46-.19-.81-.19-.31,0-.55.05-.72.15-.17.1-.25.24-.25.43,0,.14.05.25.16.34.1.09.27.15.5.19l1.25.24c.57.11.98.3,1.25.55.26.26.4.61.4,1.04,0,.56-.21,1-.62,1.31-.41.31-1.01.47-1.78.47Z" style="fill:#cdedf9;"/><path d="M84.17,5.85c-.24,0-.44-.08-.61-.25-.17-.17-.25-.37-.25-.61s.08-.44.25-.61c.17-.17.37-.25.61-.25s.44.08.61.25c.17.17.25.37.25.61s-.08.44-.25.61c-.17.17-.37.25-.61.25Z" style="fill:#cdedf9;"/><path d="M88.42,9.4v-1.06h1.47V1.34h-1.47V.28h2.71v9.12h-2.71Z" style="fill:#cdedf9;"/></g><text transform="translate(27.87 21.03)" style="fill:#cdedf9; font-family:FunnelDisplay-SemiBold, &apos;Funnel Display&apos;; font-size:11.07px; font-weight:600; isolation:isolate;"><tspan x="0" y="0" xml:space="preserve">    </tspan></text><g style="isolation:isolate;"><path d="M39.68,18.93c-.18,0-.34-.06-.47-.19-.13-.13-.19-.29-.19-.47s.06-.34.19-.47c.13-.13.29-.19.47-.19s.34.06.47.19c.13.13.19.29.19.47s-.06.34-.19.47c-.13.13-.29.19-.47.19Z" style="fill:#cdedf9;"/><path d="M44.6,21.03v-7.47h3.27c.83,0,1.47.2,1.91.61.44.41.66.96.66,1.66s-.22,1.25-.67,1.66-1.08.61-1.9.61h-2.39v2.93h-.89ZM45.49,17.36h2.35c.57,0,.99-.14,1.29-.41.29-.28.44-.65.44-1.12s-.15-.85-.44-1.12c-.29-.27-.72-.41-1.29-.41h-2.35v3.06Z" style="fill:#cdedf9;"/><path d="M54.31,21.03v-7.75h.87v3.14h.04c.18-.33.43-.59.76-.76.33-.17.71-.26,1.15-.26.69,0,1.25.2,1.66.61.41.41.62.95.62,1.62v3.4h-.87v-3.27c0-.52-.14-.92-.43-1.19s-.7-.41-1.25-.41-.96.14-1.25.41-.43.67-.43,1.19v3.27h-.87Z" style="fill:#cdedf9;"/><path d="M66.2,21.14c-.57,0-1.06-.12-1.48-.35-.42-.24-.74-.57-.97-1s-.35-.94-.35-1.52.11-1.09.34-1.52c.23-.43.55-.76.97-1,.42-.24.91-.35,1.48-.35s1.07.12,1.49.35c.42.23.74.57.96,1s.34.94.34,1.53-.11,1.09-.34,1.53c-.23.43-.55.77-.97,1-.42.23-.91.35-1.49.35ZM66.2,20.39c.61,0,1.08-.19,1.42-.56s.51-.89.51-1.56-.17-1.2-.51-1.57c-.34-.37-.81-.55-1.42-.55s-1.07.19-1.42.56c-.34.37-.51.89-.51,1.56s.17,1.19.51,1.56c.34.37.81.56,1.42.56Z" style="fill:#cdedf9;"/><path d="M74.29,21.03c-.26,0-.46-.07-.6-.2s-.22-.33-.22-.6v-4.08h-1.06v-.66h1.07v-1.66h.85v1.66h1.51v.66h-1.5v4.19h1.65v.68h-1.7Z" style="fill:#cdedf9;"/><path d="M82.25,21.14c-.57,0-1.06-.12-1.48-.35-.42-.24-.74-.57-.97-1s-.35-.94-.35-1.52.11-1.09.34-1.52c.23-.43.55-.76.97-1,.42-.24.91-.35,1.48-.35s1.07.12,1.49.35c.42.23.74.57.96,1s.34.94.34,1.53-.11,1.09-.34,1.53c-.23.43-.55.77-.97,1-.42.23-.91.35-1.49.35ZM82.25,20.39c.61,0,1.08-.19,1.42-.56s.51-.89.51-1.56-.17-1.2-.51-1.57c-.34-.37-.81-.55-1.42-.55s-1.07.19-1.42.56c-.34.37-.51.89-.51,1.56s.17,1.19.51,1.56c.34.37.81.56,1.42.56Z" style="fill:#cdedf9;"/><path d="M91.38,23.36c-.74,0-1.35-.16-1.82-.47s-.74-.75-.83-1.3h.92c.17.68.75,1.02,1.73,1.02.61,0,1.08-.15,1.4-.43.33-.29.49-.7.49-1.25v-.94h-.05c-.14.33-.38.59-.71.77-.33.18-.72.28-1.16.28-.53,0-.99-.12-1.37-.35s-.69-.56-.89-.98c-.21-.42-.31-.92-.31-1.5,0-.87.23-1.55.7-2.06.47-.51,1.1-.76,1.9-.76.44,0,.82.08,1.13.24.31.16.56.39.75.7h.39v-.83h.96v.92h-.46v4.57c0,.74-.24,1.33-.72,1.74s-1.16.63-2.03.63ZM91.55,20.28c.51,0,.92-.15,1.24-.45.32-.3.47-.7.47-1.19v-.85c0-.49-.16-.89-.47-1.19-.32-.3-.73-.45-1.24-.45-.6,0-1.07.18-1.41.54-.34.36-.51.87-.51,1.52s.17,1.16.51,1.52c.34.36.81.54,1.41.54Z" style="fill:#cdedf9;"/><path d="M98.97,21.03v-4.61h-.46v-.92h.96v1.01h.39c.16-.33.4-.58.72-.77.32-.19.71-.28,1.15-.28h.45v.74h-.5c-.58,0-1.03.17-1.36.52-.33.34-.49.81-.49,1.4v2.92h-.87Z" style="fill:#cdedf9;"/><path d="M107.55,21.13c-.62,0-1.1-.16-1.46-.47-.36-.31-.54-.71-.54-1.2,0-.53.17-.94.52-1.23.35-.29.85-.43,1.51-.43h1.99v-.26c0-.95-.51-1.42-1.52-1.42-.82,0-1.32.31-1.49.94h-.89c.09-.53.34-.94.77-1.24.43-.3.97-.44,1.63-.44.75,0,1.33.18,1.72.54.4.36.6.88.6,1.55v2.63h.42v.92h-.96v-.83h-.39c-.19.28-.45.51-.79.68-.34.17-.72.25-1.14.25ZM107.66,20.41c.35,0,.67-.07.96-.22.29-.15.52-.35.7-.59.17-.25.26-.52.26-.83v-.3h-1.93c-.85,0-1.28.32-1.28.96,0,.3.12.54.35.72s.55.27.95.27Z" style="fill:#cdedf9;"/><path d="M115.1,23.25v-6.83h-.46v-.92h.96v.83h.39c.18-.31.43-.54.75-.7.31-.16.69-.24,1.14-.24.55,0,1.01.12,1.4.35s.68.56.89.99c.21.43.31.94.31,1.54s-.1,1.11-.3,1.54c-.2.43-.49.76-.87.99s-.83.35-1.35.35c-.45,0-.84-.09-1.18-.27s-.59-.44-.76-.78h-.04v3.15h-.87ZM117.74,20.41c.58,0,1.04-.19,1.36-.56.33-.37.49-.9.49-1.58s-.16-1.2-.49-1.58-.78-.56-1.36-.56c-.54,0-.97.15-1.29.46-.33.31-.49.72-.49,1.23v.9c0,.51.16.92.49,1.23.33.31.76.46,1.29.46Z" style="fill:#cdedf9;"/><path d="M124.5,21.03v-7.75h.87v3.14h.04c.18-.33.43-.59.76-.76.33-.17.71-.26,1.15-.26.69,0,1.25.2,1.66.61.41.41.62.95.62,1.62v3.4h-.87v-3.27c0-.52-.14-.92-.43-1.19-.29-.27-.7-.41-1.25-.41s-.96.14-1.25.41-.43.67-.43,1.19v3.27h-.87Z" style="fill:#cdedf9;"/><path d="M133.7,23.25v-.68h1.37l.63-1.49-2.52-5.57h.89l2.01,4.52h.05l1.91-4.52h.83l-2.35,5.53-.59,1.38c-.11.25-.21.45-.3.6-.09.15-.27.23-.54.23h-1.38Z" style="fill:#cdedf9;"/></g><g style="isolation:isolate;"><path d="M40.14,32.21c-.18,0-.34-.06-.47-.19-.13-.13-.19-.29-.19-.47s.06-.34.19-.47c.13-.13.29-.19.47-.19s.34.06.47.19c.13.13.19.29.19.47s-.06.34-.19.47c-.13.13-.29.19-.47.19Z" style="fill:#cdedf9;"/><path d="M45.09,34.32v-7.47h.89v7.47h-.89Z" style="fill:#cdedf9;"/><path d="M50.59,34.32v-7.75h.87v7.75h-.87Z" style="fill:#cdedf9;"/><path d="M55.94,34.32v-7.75h.87v7.75h-.87Z" style="fill:#cdedf9;"/><path d="M63.44,34.42c-.69,0-1.24-.2-1.64-.59s-.61-.92-.61-1.59v-3.46h.87v3.27c0,.52.14.92.42,1.19.28.27.68.41,1.2.41s.97-.14,1.28-.42.46-.68.46-1.18v-3.27h.87v4.61h.46v.92h-.96v-.83h-.39c-.19.3-.45.53-.79.69-.34.16-.72.24-1.17.24Z" style="fill:#cdedf9;"/><path d="M72.87,34.43c-.75,0-1.34-.15-1.78-.47-.44-.31-.68-.75-.72-1.31h.87c.04.36.2.62.47.79.27.17.67.26,1.19.26.94,0,1.41-.3,1.41-.9,0-.25-.07-.44-.22-.57s-.39-.23-.73-.29l-1.21-.22c-1-.18-1.5-.66-1.5-1.44,0-.5.19-.89.56-1.18.38-.29.89-.43,1.54-.43s1.21.15,1.61.44c.4.29.63.71.7,1.24h-.85c-.07-.33-.22-.57-.46-.72-.24-.16-.58-.24-1.01-.24s-.73.07-.95.22c-.22.15-.33.36-.33.63,0,.21.07.37.22.49s.38.21.71.27l1.2.22c.53.1.92.27,1.16.52s.37.58.37,1c0,.54-.19.95-.58,1.24-.39.3-.94.44-1.66.44Z" style="fill:#cdedf9;"/><path d="M80.28,34.32c-.26,0-.46-.07-.6-.2s-.22-.33-.22-.6v-4.08h-1.06v-.66h1.07v-1.66h.85v1.66h1.51v.66h-1.5v4.19h1.65v.68h-1.7Z" style="fill:#cdedf9;"/><path d="M86.06,34.32v-4.61h-.46v-.92h.96v1.01h.39c.16-.33.4-.58.72-.77.32-.19.71-.28,1.15-.28h.45v.74h-.5c-.58,0-1.03.17-1.36.52-.33.34-.49.81-.49,1.4v2.92h-.87Z" style="fill:#cdedf9;"/><path d="M94.63,34.42c-.62,0-1.1-.16-1.46-.47-.36-.31-.53-.71-.53-1.2,0-.53.17-.94.52-1.23.35-.29.85-.43,1.51-.43h1.99v-.26c0-.95-.51-1.42-1.52-1.42-.82,0-1.32.31-1.48.94h-.89c.09-.53.34-.94.77-1.24.43-.3.97-.44,1.63-.44.75,0,1.33.18,1.73.54.4.36.6.88.6,1.55v2.63h.42v.92h-.96v-.83h-.39c-.19.28-.46.51-.79.68-.34.17-.72.25-1.14.25ZM94.75,33.7c.35,0,.67-.07.96-.22s.52-.35.7-.59c.17-.25.26-.52.26-.83v-.3h-1.93c-.85,0-1.28.32-1.28.96,0,.3.12.54.35.72s.55.27.95.27Z" style="fill:#cdedf9;"/><path d="M103.25,34.32c-.26,0-.46-.07-.6-.2-.15-.13-.22-.33-.22-.6v-4.08h-1.06v-.66h1.07v-1.66h.85v1.66h1.51v.66h-1.5v4.19h1.65v.68h-1.7Z" style="fill:#cdedf9;"/><path d="M109.23,27.95c-.15,0-.28-.05-.39-.16-.11-.11-.16-.24-.16-.39s.05-.28.16-.39c.11-.11.24-.16.39-.16s.28.05.39.16c.11.11.16.24.16.39s-.05.28-.16.39c-.11.11-.24.16-.39.16ZM108.79,34.32v-5.53h.87v5.53h-.87Z" style="fill:#cdedf9;"/><path d="M116.56,34.43c-.57,0-1.06-.12-1.48-.35s-.74-.57-.97-1-.35-.94-.35-1.52.11-1.09.34-1.52c.23-.43.55-.76.97-1,.42-.24.91-.35,1.48-.35s1.07.12,1.49.35c.42.23.74.57.96,1,.23.43.34.94.34,1.53s-.11,1.09-.34,1.53c-.23.43-.55.77-.97,1-.42.23-.91.35-1.49.35ZM116.56,33.67c.61,0,1.08-.19,1.42-.56.34-.37.51-.89.51-1.56s-.17-1.2-.51-1.57c-.34-.37-.81-.55-1.42-.55s-1.07.19-1.42.56c-.34.37-.51.89-.51,1.56s.17,1.19.51,1.56c.34.37.81.56,1.42.56Z" style="fill:#cdedf9;"/><path d="M123.58,34.32v-4.61h-.46v-.92h.96v.83h.39c.18-.31.44-.54.78-.7.34-.16.72-.24,1.15-.24.7,0,1.25.2,1.66.61.41.41.62.95.62,1.62v3.4h-.87v-3.27c0-.52-.14-.92-.43-1.19s-.7-.41-1.25-.41-.96.14-1.24.41-.43.67-.43,1.19v3.27h-.87Z" style="fill:#cdedf9;"/></g><text transform="translate(27.87 47.6)" style="fill:#cdedf9; font-family:FunnelDisplay-SemiBold, &apos;Funnel Display&apos;; font-size:11.07px; font-weight:600; isolation:isolate;"><tspan x="0" y="0" xml:space="preserve">    </tspan></text><g style="isolation:isolate;"><path d="M39.68,45.49c-.18,0-.34-.06-.47-.19-.13-.13-.19-.29-.19-.47s.06-.34.19-.47c.13-.13.29-.19.47-.19s.34.06.47.19c.13.13.19.29.19.47s-.06.34-.19.47c-.13.13-.29.19-.47.19Z" style="fill:#cdedf9;"/><path d="M44.63,47.6v-7.47h.89v7.47h-.89Z" style="fill:#cdedf9;"/><path d="M50.13,47.6v-7.75h.87v7.75h-.87Z" style="fill:#cdedf9;"/><path d="M55.48,47.6v-7.75h.87v7.75h-.87Z" style="fill:#cdedf9;"/><path d="M62.98,47.7c-.69,0-1.24-.2-1.64-.59s-.61-.92-.61-1.59v-3.46h.87v3.27c0,.52.14.92.42,1.19.28.27.68.41,1.2.41s.97-.14,1.28-.42.46-.68.46-1.18v-3.27h.87v4.61h.46v.92h-.96v-.83h-.39c-.19.3-.45.53-.79.69-.34.16-.72.24-1.17.24Z" style="fill:#cdedf9;"/><path d="M72.41,47.71c-.75,0-1.34-.15-1.78-.47-.44-.31-.68-.75-.72-1.31h.87c.04.36.2.62.47.79.27.17.67.26,1.19.26.94,0,1.41-.3,1.41-.9,0-.25-.07-.44-.22-.57s-.39-.23-.73-.29l-1.21-.22c-1-.18-1.5-.66-1.5-1.44,0-.5.19-.89.56-1.18.38-.29.89-.43,1.54-.43s1.21.15,1.61.44c.4.29.63.71.7,1.24h-.85c-.07-.33-.22-.57-.46-.72-.24-.16-.58-.24-1.01-.24s-.73.07-.95.22c-.22.15-.33.36-.33.63,0,.21.07.37.22.49s.38.21.71.27l1.2.22c.53.1.92.27,1.16.52s.37.58.37,1c0,.54-.19.95-.58,1.24-.39.3-.94.44-1.66.44Z" style="fill:#cdedf9;"/><path d="M79.82,47.6c-.26,0-.46-.07-.6-.2s-.22-.33-.22-.6v-4.08h-1.06v-.66h1.07v-1.66h.85v1.66h1.51v.66h-1.5v4.19h1.65v.68h-1.7Z" style="fill:#cdedf9;"/><path d="M85.6,47.6v-4.61h-.46v-.92h.96v1.01h.39c.16-.33.4-.58.72-.77.32-.19.71-.28,1.15-.28h.45v.74h-.5c-.58,0-1.03.17-1.36.52-.33.34-.49.81-.49,1.4v2.92h-.87Z" style="fill:#cdedf9;"/><path d="M94.17,47.7c-.62,0-1.1-.16-1.46-.47-.36-.31-.54-.71-.54-1.2,0-.53.17-.94.52-1.23.35-.29.85-.43,1.51-.43h1.99v-.26c0-.95-.51-1.42-1.52-1.42-.82,0-1.32.31-1.48.94h-.89c.09-.53.34-.94.77-1.24.43-.3.97-.44,1.63-.44.75,0,1.33.18,1.73.54.4.36.6.88.6,1.55v2.63h.42v.92h-.96v-.83h-.39c-.19.28-.46.51-.79.68-.34.17-.72.25-1.14.25ZM94.28,46.98c.35,0,.67-.07.96-.22s.52-.35.7-.59c.17-.25.26-.52.26-.83v-.3h-1.93c-.85,0-1.28.32-1.28.96,0,.3.12.54.35.72s.55.27.95.27Z" style="fill:#cdedf9;"/><path d="M102.79,47.6c-.26,0-.46-.07-.6-.2-.15-.13-.22-.33-.22-.6v-4.08h-1.06v-.66h1.07v-1.66h.85v1.66h1.51v.66h-1.5v4.19h1.65v.68h-1.7Z" style="fill:#cdedf9;"/><path d="M110.75,47.71c-.57,0-1.06-.12-1.48-.35s-.74-.57-.97-1-.35-.94-.35-1.52.11-1.09.34-1.52c.23-.43.55-.76.97-1,.42-.24.91-.35,1.48-.35s1.07.12,1.49.35c.42.23.74.57.96,1,.23.43.34.94.34,1.53s-.11,1.09-.34,1.53c-.23.43-.55.77-.97,1-.42.23-.91.35-1.49.35ZM110.75,46.95c.61,0,1.08-.19,1.42-.56.34-.37.51-.89.51-1.56s-.17-1.2-.51-1.57c-.34-.37-.81-.55-1.42-.55s-1.07.19-1.42.56c-.34.37-.51.89-.51,1.56s.17,1.19.51,1.56c.34.37.81.56,1.42.56Z" style="fill:#cdedf9;"/><path d="M117.88,47.6v-4.61h-.46v-.92h.96v1.01h.39c.16-.33.4-.58.72-.77.32-.19.71-.28,1.15-.28h.45v.74h-.5c-.58,0-1.03.17-1.36.52-.33.34-.49.81-.49,1.4v2.92h-.87Z" style="fill:#cdedf9;"/></g><text transform="translate(27.87 60.88)" style="fill:#cdedf9; font-family:FunnelDisplay-SemiBold, &apos;Funnel Display&apos;; font-size:11.07px; font-weight:600; isolation:isolate;"><tspan x="0" y="0" xml:space="preserve">    </tspan></text><g style="isolation:isolate;"><path d="M39.68,58.78c-.18,0-.34-.06-.47-.19-.13-.13-.19-.29-.19-.47s.06-.34.19-.47c.13-.13.29-.19.47-.19s.34.06.47.19c.13.13.19.29.19.47s-.06.34-.19.47c-.13.13-.29.19-.47.19Z" style="fill:#cdedf9;"/><path d="M44.6,60.88v-7.47h3.27c.83,0,1.47.2,1.91.61.44.41.66.96.66,1.66s-.22,1.25-.67,1.66-1.08.61-1.9.61h-2.39v2.93h-.89ZM45.49,57.21h2.35c.57,0,.99-.14,1.29-.41.29-.28.44-.65.44-1.12s-.15-.85-.44-1.12c-.29-.27-.72-.41-1.29-.41h-2.35v3.06Z" style="fill:#cdedf9;"/><path d="M54.31,60.88v-7.75h.87v3.14h.04c.18-.33.43-.59.76-.76.33-.17.71-.26,1.15-.26.69,0,1.25.2,1.66.61.41.41.62.95.62,1.62v3.4h-.87v-3.27c0-.52-.14-.92-.43-1.19s-.7-.41-1.25-.41-.96.14-1.25.41-.43.67-.43,1.19v3.27h-.87Z" style="fill:#cdedf9;"/><path d="M66.2,60.99c-.57,0-1.06-.12-1.48-.35-.42-.24-.74-.57-.97-1s-.35-.94-.35-1.52.11-1.09.34-1.52c.23-.43.55-.76.97-1,.42-.24.91-.35,1.48-.35s1.07.12,1.49.35c.42.23.74.57.96,1s.34.94.34,1.53-.11,1.09-.34,1.53c-.23.43-.55.77-.97,1-.42.23-.91.35-1.49.35ZM66.2,60.24c.61,0,1.08-.19,1.42-.56s.51-.89.51-1.56-.17-1.2-.51-1.57c-.34-.37-.81-.55-1.42-.55s-1.07.19-1.42.56c-.34.37-.51.89-.51,1.56s.17,1.19.51,1.56c.34.37.81.56,1.42.56Z" style="fill:#cdedf9;"/><path d="M74.29,60.88c-.26,0-.46-.07-.6-.2s-.22-.33-.22-.6v-4.08h-1.06v-.66h1.07v-1.66h.85v1.66h1.51v.66h-1.5v4.19h1.65v.68h-1.7Z" style="fill:#cdedf9;"/><path d="M82.25,60.99c-.57,0-1.06-.12-1.48-.35-.42-.24-.74-.57-.97-1s-.35-.94-.35-1.52.11-1.09.34-1.52c.23-.43.55-.76.97-1,.42-.24.91-.35,1.48-.35s1.07.12,1.49.35c.42.23.74.57.96,1s.34.94.34,1.53-.11,1.09-.34,1.53c-.23.43-.55.77-.97,1-.42.23-.91.35-1.49.35ZM82.25,60.24c.61,0,1.08-.19,1.42-.56s.51-.89.51-1.56-.17-1.2-.51-1.57c-.34-.37-.81-.55-1.42-.55s-1.07.19-1.42.56c-.34.37-.51.89-.51,1.56s.17,1.19.51,1.56c.34.37.81.56,1.42.56Z" style="fill:#cdedf9;"/><path d="M91.14,60.99c-.75,0-1.34-.15-1.78-.47-.44-.31-.68-.75-.72-1.31h.87c.04.36.2.62.47.79.27.17.67.26,1.19.26.94,0,1.41-.3,1.41-.9,0-.25-.07-.44-.22-.57s-.39-.23-.73-.29l-1.21-.22c-1-.18-1.5-.66-1.5-1.44,0-.5.19-.89.56-1.18.38-.29.89-.43,1.54-.43s1.21.15,1.61.44c.4.29.63.71.7,1.24h-.85c-.07-.33-.22-.57-.46-.72-.24-.16-.58-.24-1.01-.24s-.73.07-.95.22c-.22.15-.33.36-.33.63,0,.21.07.37.22.49s.38.21.71.27l1.2.22c.53.1.92.27,1.16.52s.37.58.37,1c0,.54-.19.95-.58,1.24-.39.3-.94.44-1.66.44Z" style="fill:#cdedf9;"/><path d="M97.29,60.88v-7.75h.87v3.14h.04c.18-.33.43-.59.76-.76.33-.17.71-.26,1.15-.26.69,0,1.25.2,1.66.61.41.41.62.95.62,1.62v3.4h-.87v-3.27c0-.52-.14-.92-.43-1.19-.29-.27-.7-.41-1.25-.41s-.96.14-1.24.41-.43.67-.43,1.19v3.27h-.87Z" style="fill:#cdedf9;"/><path d="M109.18,60.99c-.57,0-1.06-.12-1.48-.35-.42-.24-.74-.57-.97-1s-.35-.94-.35-1.52.11-1.09.34-1.52c.23-.43.55-.76.97-1,.42-.24.92-.35,1.48-.35s1.07.12,1.49.35c.42.23.74.57.96,1,.23.43.34.94.34,1.53s-.11,1.09-.34,1.53c-.23.43-.55.77-.97,1-.42.23-.91.35-1.49.35ZM109.18,60.24c.61,0,1.08-.19,1.42-.56.34-.37.51-.89.51-1.56s-.17-1.2-.51-1.57c-.34-.37-.81-.55-1.42-.55s-1.07.19-1.42.56-.51.89-.51,1.56.17,1.19.51,1.56.81.56,1.42.56Z" style="fill:#cdedf9;"/><path d="M116.2,63.1v-6.83h-.46v-.92h.96v.83h.39c.18-.31.43-.54.75-.7.31-.16.69-.24,1.14-.24.55,0,1.01.12,1.4.35s.68.56.89.99c.21.43.31.94.31,1.54s-.1,1.11-.3,1.54c-.2.43-.49.76-.87.99s-.83.35-1.35.35c-.45,0-.84-.09-1.18-.27s-.59-.44-.76-.78h-.04v3.15h-.87ZM118.85,60.25c.58,0,1.04-.19,1.36-.56.33-.37.49-.9.49-1.58s-.16-1.2-.49-1.58-.78-.56-1.36-.56c-.54,0-.97.15-1.29.46-.33.31-.49.72-.49,1.23v.9c0,.51.16.92.49,1.23.33.31.76.46,1.29.46Z" style="fill:#cdedf9;"/></g><text transform="translate(27.87 74.17)" style="fill:#cdedf9; font-family:FunnelDisplay-SemiBold, &apos;Funnel Display&apos;; font-size:11.07px; font-weight:600; isolation:isolate;"><tspan x="0" y="0" xml:space="preserve">    </tspan></text><g style="isolation:isolate;"><path d="M39.68,72.06c-.18,0-.34-.06-.47-.19-.13-.13-.19-.29-.19-.47s.06-.34.19-.47c.13-.13.29-.19.47-.19s.34.06.47.19c.13.13.19.29.19.47s-.06.34-.19.47c-.13.13-.29.19-.47.19Z" style="fill:#cdedf9;"/><path d="M44.6,74.16v-7.47h.89v6.71h4.15v.76h-5.04Z" style="fill:#cdedf9;"/><path d="M53.88,67.8c-.15,0-.28-.05-.39-.16-.11-.11-.16-.24-.16-.39s.05-.28.16-.39c.11-.11.24-.16.39-.16s.28.05.39.16c.11.11.16.24.16.39s-.05.28-.16.39c-.11.11-.24.16-.39.16ZM53.45,74.16v-5.53h.87v5.53h-.87Z" style="fill:#cdedf9;"/><path d="M61.03,76.49c-.74,0-1.35-.16-1.82-.47s-.74-.75-.83-1.3h.92c.17.68.75,1.02,1.73,1.02.61,0,1.08-.15,1.4-.43.33-.29.49-.7.49-1.25v-.94h-.05c-.14.33-.38.59-.71.77s-.72.28-1.16.28c-.53,0-.99-.12-1.37-.35s-.69-.56-.89-.98c-.21-.42-.31-.92-.31-1.5,0-.87.23-1.55.7-2.06.47-.51,1.1-.76,1.9-.76.44,0,.82.08,1.13.24.31.16.56.39.75.7h.39v-.83h.96v.92h-.46v4.57c0,.74-.24,1.33-.72,1.74-.48.42-1.16.63-2.03.63ZM61.21,73.41c.51,0,.92-.15,1.24-.45.32-.3.48-.7.48-1.19v-.85c0-.49-.16-.89-.48-1.19-.32-.3-.73-.45-1.24-.45-.6,0-1.07.18-1.41.54-.34.36-.51.87-.51,1.52s.17,1.16.51,1.52c.34.36.81.54,1.41.54Z" style="fill:#cdedf9;"/><path d="M68.33,74.16v-7.75h.87v3.14h.04c.18-.33.43-.59.76-.76.33-.17.71-.26,1.15-.26.69,0,1.25.2,1.66.61.41.41.62.95.62,1.62v3.4h-.87v-3.27c0-.52-.14-.92-.43-1.19s-.7-.41-1.25-.41-.96.14-1.25.41-.43.67-.43,1.19v3.27h-.87Z" style="fill:#cdedf9;"/><path d="M78.99,74.16c-.26,0-.46-.07-.6-.2s-.22-.33-.22-.6v-4.08h-1.06v-.66h1.07v-1.66h.85v1.66h1.51v.66h-1.5v4.19h1.65v.68h-1.7Z" style="fill:#cdedf9;"/><path d="M84.77,74.16v-4.61h-.46v-.92h.96v1.01h.39c.16-.33.4-.58.72-.77.32-.19.71-.28,1.15-.28h.45v.74h-.5c-.58,0-1.03.17-1.36.52-.33.34-.49.81-.49,1.4v2.92h-.87Z" style="fill:#cdedf9;"/><path d="M94.24,74.28c-.57,0-1.06-.12-1.48-.35-.42-.24-.74-.57-.97-1s-.35-.94-.35-1.52.11-1.09.34-1.52c.23-.43.55-.76.97-1,.42-.24.91-.35,1.48-.35s1.07.12,1.49.35c.42.23.74.57.96,1,.23.43.34.94.34,1.53s-.11,1.09-.34,1.53c-.23.43-.55.77-.97,1-.42.23-.91.35-1.49.35ZM94.24,73.52c.61,0,1.08-.19,1.42-.56.34-.37.51-.89.51-1.56s-.17-1.2-.51-1.57c-.34-.37-.81-.55-1.42-.55s-1.07.19-1.42.56c-.34.37-.51.89-.51,1.56s.17,1.19.51,1.56c.34.37.81.56,1.42.56Z" style="fill:#cdedf9;"/><path d="M103.55,74.28c-.57,0-1.06-.12-1.48-.35s-.74-.57-.97-1-.35-.94-.35-1.52.11-1.09.34-1.52c.23-.43.55-.76.97-1,.42-.24.91-.35,1.48-.35s1.07.12,1.49.35c.42.23.74.57.96,1,.23.43.34.94.34,1.53s-.11,1.09-.34,1.53c-.23.43-.55.77-.97,1-.42.23-.91.35-1.49.35ZM103.55,73.52c.61,0,1.08-.19,1.42-.56.34-.37.51-.89.51-1.56s-.17-1.2-.51-1.57c-.34-.37-.81-.55-1.42-.55s-1.07.19-1.42.56c-.34.37-.51.89-.51,1.56s.17,1.19.51,1.56c.34.37.81.56,1.42.56Z" style="fill:#cdedf9;"/><path d="M110.57,74.16v-4.61h-.46v-.92h.96v.83h.46c.15-.3.37-.53.67-.69.3-.16.66-.24,1.08-.24s.8.09,1.1.27c.3.18.55.46.72.83h.03c.37-.73,1.01-1.1,1.92-1.1.66,0,1.18.19,1.55.58.37.38.56.92.56,1.6v3.46h-.87v-3.35c0-1.02-.5-1.53-1.5-1.53s-1.49.51-1.49,1.53v3.35h-.87v-3.35c0-1.02-.5-1.53-1.5-1.53-.49,0-.86.13-1.11.39-.26.26-.38.64-.38,1.14v3.35h-.87Z" style="fill:#cdedf9;"/></g><text transform="translate(27.87 87.45)" style="fill:#cdedf9; font-family:FunnelDisplay-SemiBold, &apos;Funnel Display&apos;; font-size:11.07px; font-weight:600; isolation:isolate;"><tspan x="0" y="0" xml:space="preserve">    </tspan></text><g style="isolation:isolate;"><path d="M39.68,85.34c-.18,0-.34-.06-.47-.19-.13-.13-.19-.29-.19-.47s.06-.34.19-.47c.13-.13.29-.19.47-.19s.34.06.47.19c.13.13.19.29.19.47s-.06.34-.19.47c-.13.13-.29.19-.47.19Z" style="fill:#cdedf9;"/><path d="M43.7,87.45l3.22-7.47h1.02l3.21,7.47h-.89l-1.01-2.36h-3.67l-1.01,2.36h-.87ZM45.87,84.31h3.1l-1.52-3.56h-.05l-1.53,3.56Z" style="fill:#cdedf9;"/><path d="M57.06,87.56c-.54,0-1.01-.12-1.4-.35-.39-.23-.69-.56-.89-.99-.21-.43-.31-.94-.31-1.54s.1-1.11.3-1.54c.2-.43.49-.76.87-.99s.83-.35,1.35-.35c.46,0,.85.09,1.18.27s.58.44.76.78h.04v-3.15h.87v6.83h.46v.92h-.96v-.83h-.39c-.18.31-.43.54-.75.7-.31.16-.69.24-1.13.24ZM57.18,86.82c.53,0,.97-.15,1.29-.46.33-.31.49-.72.49-1.23v-.9c0-.51-.16-.92-.49-1.23-.33-.31-.76-.46-1.29-.46-.58,0-1.04.19-1.37.56-.33.37-.49.9-.49,1.58s.16,1.2.49,1.58c.33.38.78.56,1.37.56Z" style="fill:#cdedf9;"/><path d="M66.84,87.56c-.57,0-1.06-.12-1.48-.35-.42-.24-.74-.57-.97-1s-.35-.94-.35-1.52.11-1.09.34-1.52c.23-.43.55-.76.97-1,.42-.24.91-.35,1.48-.35s1.07.12,1.49.35c.42.23.74.57.96,1s.34.94.34,1.53-.11,1.09-.34,1.53c-.23.43-.55.77-.97,1-.42.23-.91.35-1.49.35ZM66.84,86.8c.61,0,1.08-.19,1.42-.56s.51-.89.51-1.56-.17-1.2-.51-1.57c-.34-.37-.81-.55-1.42-.55s-1.07.19-1.42.56c-.34.37-.51.89-.51,1.56s.17,1.19.51,1.56c.34.37.81.56,1.42.56Z" style="fill:#cdedf9;"/><path d="M76.63,87.56c-.44,0-.82-.08-1.13-.24-.31-.16-.56-.39-.75-.7h-.39v.83h-.96v-.92h.46v-6.83h.87v3.15h.04c.17-.34.43-.61.76-.78.34-.18.73-.27,1.18-.27.52,0,.97.12,1.35.35s.67.56.87.99c.2.43.3.94.3,1.54s-.1,1.11-.31,1.54-.5.76-.89.99-.85.35-1.4.35ZM76.51,86.82c.58,0,1.04-.19,1.37-.56.33-.37.49-.9.49-1.58s-.16-1.2-.49-1.58c-.33-.37-.78-.56-1.37-.56-.54,0-.97.15-1.29.46-.33.31-.49.72-.49,1.23v.9c0,.51.16.92.49,1.23.33.31.76.46,1.29.46Z" style="fill:#cdedf9;"/><path d="M85.74,87.56c-.57,0-1.06-.12-1.48-.35-.42-.24-.74-.57-.97-1.01-.23-.44-.34-.95-.34-1.53s.11-1.09.34-1.52c.23-.43.55-.76.96-.99.41-.23.89-.35,1.45-.35.52,0,.97.11,1.36.32.38.21.68.51.89.9s.32.85.32,1.37v.39h-4.48c.02.63.21,1.13.56,1.48s.81.54,1.39.54c.4,0,.74-.09,1.02-.26.28-.17.47-.42.58-.75h.89c-.14.56-.43.99-.86,1.3-.43.31-.97.46-1.61.46ZM83.83,84.12h3.6c-.04-.5-.22-.89-.53-1.16-.31-.28-.71-.42-1.21-.42s-.91.14-1.24.42c-.33.28-.54.66-.62,1.16Z" style="fill:#cdedf9;"/><path d="M94.47,87.45l2.82-3.89-2.62-3.58h.99l2.19,2.99h.05l2.18-2.99h.93l-2.62,3.56,2.82,3.91h-1.01l-2.35-3.29h-.05l-2.39,3.29h-.94Z" style="fill:#cdedf9;"/><path d="M105.11,87.45v-7.47h2.62c.81,0,1.51.15,2.1.45s1.04.73,1.36,1.29c.32.56.48,1.23.48,2s-.16,1.43-.48,1.99-.77.99-1.36,1.29c-.59.3-1.28.45-2.09.45h-2.62ZM106,86.69h1.73c.95,0,1.69-.26,2.22-.78s.8-1.25.8-2.2-.26-1.69-.79-2.21c-.53-.52-1.27-.77-2.22-.77h-1.73v5.96Z" style="fill:#cdedf9;"/></g><text transform="translate(27.87 100.73)" style="fill:#cdedf9; font-family:FunnelDisplay-SemiBold, &apos;Funnel Display&apos;; font-size:11.07px; font-weight:600; isolation:isolate;"><tspan x="0" y="0" xml:space="preserve">    </tspan></text><g style="isolation:isolate;"><path d="M39.68,98.63c-.18,0-.34-.06-.47-.19-.13-.13-.19-.29-.19-.47s.06-.34.19-.47c.13-.13.29-.19.47-.19s.34.06.47.19c.13.13.19.29.19.47s-.06.34-.19.47c-.13.13-.29.19-.47.19Z" style="fill:#cdedf9;"/><path d="M45.49,100.73h-.89v-7.47h5.04v.76h-4.15v2.57h3.93v.76h-3.93v3.39Z" style="fill:#cdedf9;"/><path d="M53.88,94.37c-.15,0-.28-.05-.39-.16-.11-.11-.16-.24-.16-.39s.05-.28.16-.39c.11-.11.24-.16.39-.16s.28.05.39.16c.11.11.16.24.16.39s-.05.28-.16.39c-.11.11-.24.16-.39.16ZM53.45,100.73v-5.53h.87v5.53h-.87Z" style="fill:#cdedf9;"/><path d="M61.03,103.06c-.74,0-1.35-.16-1.82-.47s-.74-.75-.83-1.3h.92c.17.68.75,1.02,1.73,1.02.61,0,1.08-.15,1.4-.43.33-.29.49-.7.49-1.25v-.94h-.05c-.14.33-.38.59-.71.77s-.72.28-1.16.28c-.53,0-.99-.12-1.37-.35s-.69-.56-.89-.98c-.21-.42-.31-.92-.31-1.5,0-.87.23-1.55.7-2.06.47-.51,1.1-.76,1.9-.76.44,0,.82.08,1.13.24.31.16.56.39.75.7h.39v-.83h.96v.92h-.46v4.57c0,.74-.24,1.33-.72,1.74-.48.42-1.16.63-2.03.63ZM61.21,99.97c.51,0,.92-.15,1.24-.45.32-.3.48-.7.48-1.19v-.85c0-.49-.16-.89-.48-1.19-.32-.3-.73-.45-1.24-.45-.6,0-1.07.18-1.41.54-.34.36-.51.87-.51,1.52s.17,1.16.51,1.52c.34.36.81.54,1.41.54Z" style="fill:#cdedf9;"/><path d="M68.51,100.73v-4.61h-.46v-.92h.96v.83h.46c.15-.3.37-.53.67-.69.3-.16.66-.24,1.08-.24s.8.09,1.1.27c.3.18.55.46.72.83h.03c.38-.73,1.01-1.1,1.92-1.1.66,0,1.18.19,1.55.58.37.38.56.92.56,1.6v3.46h-.87v-3.35c0-1.02-.5-1.53-1.5-1.53s-1.49.51-1.49,1.53v3.35h-.87v-3.35c0-1.02-.5-1.53-1.5-1.53-.49,0-.86.13-1.11.39-.26.26-.38.64-.38,1.14v3.35h-.87Z" style="fill:#cdedf9;"/><path d="M83.01,100.83c-.62,0-1.1-.16-1.46-.47-.36-.31-.54-.71-.54-1.2,0-.53.17-.94.52-1.23s.85-.43,1.51-.43h1.99v-.26c0-.95-.51-1.42-1.52-1.42-.82,0-1.32.31-1.49.94h-.89c.09-.53.34-.94.77-1.24.43-.3.97-.44,1.63-.44.75,0,1.33.18,1.72.54.4.36.6.88.6,1.55v2.63h.42v.92h-.96v-.83h-.39c-.19.28-.46.51-.79.68s-.72.25-1.14.25ZM83.12,100.11c.35,0,.67-.07.96-.22.29-.15.52-.35.7-.59.17-.25.26-.52.26-.83v-.3h-1.93c-.85,0-1.28.32-1.28.96,0,.3.12.54.35.72s.55.27.95.27Z" style="fill:#cdedf9;"/></g><g style="isolation:isolate;"><path d="M28.64,138.55v-9.13h2.71v1.06h-1.47v7.01h1.47v1.06h-2.71Z" style="fill:#cdedf9;"/><path d="M35.6,134.99c-.24,0-.44-.08-.61-.25-.17-.17-.25-.37-.25-.61s.08-.44.25-.61c.17-.17.37-.25.61-.25s.44.08.61.25c.17.17.25.37.25.61s-.08.44-.25.61c-.17.17-.37.25-.61.25Z" style="fill:#cdedf9;"/><path d="M40.38,136.89v-7.47h3.77c.45,0,.84.08,1.17.24s.59.38.78.66c.19.29.28.62.28,1s-.11.72-.32.98-.49.46-.83.57v.04c.28.06.53.18.76.34.23.17.41.38.55.63.14.25.21.55.21.89,0,.42-.1.79-.31,1.11-.21.32-.49.56-.86.74-.37.18-.79.27-1.27.27h-3.94ZM41.79,132.45h2.17c.33,0,.58-.08.75-.24.18-.16.26-.38.26-.67s-.09-.53-.26-.68c-.18-.15-.43-.23-.75-.23h-2.17v1.82ZM41.79,135.67h2.27c.41,0,.73-.09.95-.27.22-.18.33-.44.33-.79s-.11-.6-.33-.77c-.22-.18-.54-.26-.94-.26h-2.28v2.09Z" style="fill:#cdedf9;"/><path d="M50.89,136.89v-4.16h-.68v-1.37h1.4v1.07h.39c.15-.37.39-.65.71-.84s.69-.29,1.1-.29h.46v1.18h-.53c-.5,0-.87.15-1.12.43s-.37.67-.37,1.15v2.82h-1.36Z" style="fill:#cdedf9;"/><path d="M59.54,136.99c-.65,0-1.15-.16-1.52-.47-.37-.31-.55-.73-.55-1.24,0-.54.19-.96.56-1.25.37-.29.91-.44,1.61-.44h1.69v-.22c0-.68-.39-1.01-1.18-1.01-.66,0-1.07.24-1.21.72h-1.37c.11-.59.39-1.04.84-1.35.45-.31,1.03-.47,1.75-.47.81,0,1.43.18,1.85.55.42.37.64.9.64,1.6v2.12h.65v1.37h-1.41v-.89h-.39c-.19.31-.45.56-.77.73-.32.17-.72.26-1.19.26ZM59.74,135.93c.3,0,.57-.06.81-.17.24-.11.43-.27.57-.46s.21-.41.21-.65v-.13h-1.61c-.62,0-.93.23-.93.69,0,.23.08.4.25.53.17.13.4.19.71.19Z" style="fill:#cdedf9;"/><path d="M67.26,136.89v-4.16h-.68v-1.37h1.41v.89h.39c.21-.31.48-.56.8-.73.33-.17.73-.26,1.2-.26.76,0,1.34.21,1.76.63.41.42.62.97.62,1.67v3.34h-1.37v-3.08c0-.44-.12-.77-.35-1s-.57-.34-1.03-.34-.78.11-1.02.34c-.24.23-.36.56-.36,1v3.08h-1.37Z" style="fill:#cdedf9;"/><path d="M79.02,137c-.57,0-1.05-.12-1.44-.35-.39-.24-.69-.57-.9-1.01-.21-.43-.31-.94-.31-1.52s.1-1.09.3-1.52c.2-.43.49-.76.87-1,.38-.24.83-.35,1.36-.35.42,0,.78.08,1.08.24s.53.38.69.68h.04v-3.02h1.37v6.37h.68v1.37h-1.4v-.89h-.39c-.2.32-.46.57-.78.74-.33.17-.72.26-1.17.26ZM79.26,135.81c.44,0,.79-.12,1.06-.37.26-.25.39-.59.39-1.02v-.59c0-.43-.13-.77-.39-1.02-.26-.25-.61-.37-1.06-.37-.49,0-.87.15-1.13.45-.26.3-.39.71-.39,1.24s.13.94.39,1.24c.26.3.63.45,1.13.45Z" style="fill:#cdedf9;"/><path d="M87.11,130.75c-.22,0-.4-.07-.55-.23-.15-.15-.23-.33-.23-.55s.08-.4.23-.55c.15-.15.33-.23.55-.23s.4.08.55.23c.15.15.23.33.23.55s-.08.4-.23.55c-.15.15-.33.23-.55.23ZM86.43,136.89v-5.53h1.37v5.53h-1.37Z" style="fill:#cdedf9;"/><path d="M92.14,136.89v-4.16h-.68v-1.37h1.41v.89h.39c.21-.31.48-.56.8-.73.33-.17.73-.26,1.2-.26.76,0,1.34.21,1.76.63.41.42.62.97.62,1.67v3.34h-1.37v-3.08c0-.44-.12-.77-.35-1s-.57-.34-1.03-.34-.78.11-1.02.34c-.24.23-.36.56-.36,1v3.08h-1.37Z" style="fill:#cdedf9;"/><path d="M104.14,139.22c-.81,0-1.47-.17-1.98-.5-.51-.33-.81-.79-.9-1.37h1.45c.15.51.62.77,1.38.77.51,0,.9-.12,1.18-.36.27-.24.41-.57.41-1.01v-.79h-.05c-.16.31-.39.54-.69.7-.3.16-.66.24-1.08.24-.52,0-.97-.12-1.36-.35s-.69-.56-.9-.98-.31-.92-.31-1.49c0-.86.24-1.55.71-2.06.47-.51,1.12-.77,1.95-.77.46,0,.85.09,1.17.26s.59.42.78.74h.39v-.89h1.41v1.37h-.69v4.03c0,.78-.25,1.38-.75,1.81-.5.43-1.21.64-2.13.64ZM104.2,135.69c.44,0,.79-.12,1.05-.37.26-.25.39-.59.39-1.01v-.5c0-.42-.13-.75-.39-1s-.61-.37-1.05-.37c-.49,0-.86.14-1.13.43-.27.29-.4.69-.4,1.2s.13.91.4,1.19c.27.28.64.42,1.13.42Z" style="fill:#cdedf9;"/><path d="M111.99,134.99c-.24,0-.44-.08-.61-.25-.17-.17-.25-.37-.25-.61s.08-.44.25-.61c.17-.17.37-.25.61-.25s.44.08.61.25.25.37.25.61-.08.44-.25.61-.37.25-.61.25Z" style="fill:#cdedf9;"/><path d="M116.23,138.54v-1.06h1.47v-7h-1.47v-1.06h2.71v9.12h-2.71Z" style="fill:#cdedf9;"/></g><g style="isolation:isolate;"><path d="M40.14,148.07c-.18,0-.34-.06-.47-.19-.13-.13-.19-.29-.19-.47s.06-.34.19-.47c.13-.13.29-.19.47-.19s.34.06.47.19c.13.13.19.29.19.47s-.06.34-.19.47c-.13.13-.29.19-.47.19Z" style="fill:#cdedf9;"/><path d="M45.07,150.17v-7.47h.89v6.71h4.15v.76h-5.04Z" style="fill:#cdedf9;"/><path d="M56.33,150.29c-.57,0-1.06-.12-1.48-.35-.42-.24-.74-.57-.97-1s-.35-.94-.35-1.52.11-1.09.34-1.52c.23-.43.55-.76.97-1,.42-.24.91-.35,1.48-.35s1.07.12,1.49.35c.42.23.74.57.96,1s.34.94.34,1.53-.11,1.09-.34,1.53c-.23.43-.55.77-.97,1-.42.23-.91.35-1.49.35ZM56.33,149.53c.61,0,1.08-.19,1.42-.56s.51-.89.51-1.56-.17-1.2-.51-1.57c-.34-.37-.81-.55-1.42-.55s-1.07.19-1.42.56c-.34.37-.51.89-.51,1.56s.17,1.19.51,1.56c.34.37.81.56,1.42.56Z" style="fill:#cdedf9;"/><path d="M65.46,152.5c-.74,0-1.35-.16-1.82-.47s-.74-.75-.83-1.3h.92c.17.68.75,1.02,1.73,1.02.61,0,1.08-.15,1.4-.43.33-.29.49-.7.49-1.25v-.94h-.05c-.14.33-.38.59-.71.77s-.72.28-1.16.28c-.53,0-.99-.12-1.37-.35s-.69-.56-.89-.98c-.21-.42-.31-.92-.31-1.5,0-.87.23-1.55.7-2.06.47-.51,1.1-.76,1.9-.76.44,0,.82.08,1.13.24.31.16.56.39.75.7h.39v-.83h.96v.92h-.46v4.57c0,.74-.24,1.33-.72,1.74-.48.42-1.16.63-2.03.63ZM65.64,149.42c.51,0,.92-.15,1.24-.45.32-.3.48-.7.48-1.19v-.85c0-.49-.16-.89-.48-1.19-.32-.3-.73-.45-1.24-.45-.6,0-1.07.18-1.41.54-.34.36-.51.87-.51,1.52s.17,1.16.51,1.52c.34.36.81.54,1.41.54Z" style="fill:#cdedf9;"/><path d="M75.24,150.29c-.57,0-1.06-.12-1.48-.35-.42-.24-.74-.57-.97-1s-.35-.94-.35-1.52.11-1.09.34-1.52c.23-.43.55-.76.97-1,.42-.24.91-.35,1.48-.35s1.07.12,1.49.35c.42.23.74.57.96,1s.34.94.34,1.53-.11,1.09-.34,1.53c-.23.43-.55.77-.97,1-.42.23-.91.35-1.49.35ZM75.24,149.53c.61,0,1.08-.19,1.42-.56s.51-.89.51-1.56-.17-1.2-.51-1.57c-.34-.37-.81-.55-1.42-.55s-1.07.19-1.42.56c-.34.37-.51.89-.51,1.56s.17,1.19.51,1.56c.34.37.81.56,1.42.56Z" style="fill:#cdedf9;"/><path d="M87.78,150.17v-7.47h2.62c.81,0,1.51.15,2.1.45s1.04.73,1.36,1.29c.32.56.48,1.23.48,2s-.16,1.43-.48,1.99-.77.99-1.36,1.29c-.59.3-1.28.45-2.09.45h-2.62ZM88.66,149.42h1.73c.95,0,1.69-.26,2.22-.78.53-.52.8-1.25.8-2.2s-.26-1.69-.79-2.21c-.53-.52-1.27-.77-2.22-.77h-1.73v5.96Z" style="fill:#cdedf9;"/><path d="M100.88,150.29c-.57,0-1.06-.12-1.48-.35s-.74-.57-.97-1.01c-.23-.44-.34-.95-.34-1.53s.11-1.09.34-1.52c.23-.43.55-.76.96-.99.41-.23.89-.35,1.45-.35.52,0,.97.11,1.36.32.38.21.68.51.89.9.21.39.32.85.32,1.37v.39h-4.48c.02.63.21,1.13.56,1.48.35.36.81.54,1.39.54.4,0,.74-.09,1.02-.26.28-.17.47-.42.58-.75h.89c-.14.56-.43.99-.86,1.3-.43.31-.97.46-1.61.46ZM98.97,146.84h3.6c-.04-.5-.22-.89-.53-1.16s-.71-.42-1.21-.42-.91.14-1.24.42-.54.66-.62,1.16Z" style="fill:#cdedf9;"/><path d="M109.5,150.29c-.75,0-1.34-.15-1.78-.47s-.68-.75-.72-1.31h.87c.04.36.2.62.47.79.27.17.67.26,1.19.26.94,0,1.41-.3,1.41-.9,0-.25-.07-.44-.22-.57-.14-.13-.39-.23-.73-.29l-1.21-.22c-1-.18-1.5-.66-1.5-1.44,0-.5.19-.89.56-1.18.38-.29.89-.43,1.54-.43s1.21.15,1.61.44c.4.29.64.71.7,1.24h-.85c-.07-.33-.22-.57-.46-.72s-.57-.24-1.01-.24-.73.07-.95.22c-.22.15-.33.36-.33.63,0,.21.07.37.22.49.15.12.38.21.71.27l1.2.22c.53.1.92.27,1.16.52s.37.58.37,1c0,.54-.19.95-.58,1.24-.39.3-.94.44-1.66.44Z" style="fill:#cdedf9;"/><path d="M116.15,143.81c-.15,0-.28-.05-.39-.16s-.16-.24-.16-.39.05-.28.16-.39.24-.16.39-.16.28.05.39.16.16.24.16.39-.05.28-.16.39-.24.16-.39.16ZM115.72,150.17v-5.53h.87v5.53h-.87Z" style="fill:#cdedf9;"/><path d="M123.3,152.5c-.74,0-1.35-.16-1.82-.47s-.74-.75-.83-1.3h.92c.17.68.75,1.02,1.73,1.02.61,0,1.08-.15,1.4-.43.33-.29.49-.7.49-1.25v-.94h-.05c-.14.33-.38.59-.71.77-.33.18-.72.28-1.16.28-.53,0-.99-.12-1.37-.35s-.69-.56-.9-.98c-.21-.42-.31-.92-.31-1.5,0-.87.23-1.55.7-2.06.47-.51,1.1-.76,1.9-.76.44,0,.82.08,1.13.24.31.16.56.39.75.7h.39v-.83h.96v.92h-.46v4.57c0,.74-.24,1.33-.72,1.74s-1.16.63-2.03.63ZM123.48,149.42c.51,0,.92-.15,1.24-.45.32-.3.47-.7.47-1.19v-.85c0-.49-.16-.89-.47-1.19-.32-.3-.73-.45-1.24-.45-.6,0-1.07.18-1.41.54s-.51.87-.51,1.52.17,1.16.51,1.52.81.54,1.41.54Z" style="fill:#cdedf9;"/><path d="M130.78,150.17v-4.61h-.46v-.92h.96v.83h.39c.18-.31.45-.54.78-.7.34-.16.72-.24,1.15-.24.69,0,1.25.2,1.66.61.41.41.62.95.62,1.62v3.4h-.87v-3.27c0-.52-.14-.92-.43-1.19-.29-.27-.7-.41-1.25-.41s-.96.14-1.25.41-.43.67-.43,1.19v3.27h-.87Z" style="fill:#cdedf9;"/></g><g style="isolation:isolate;"><path d="M40.14,161.35c-.18,0-.34-.06-.47-.19-.13-.13-.19-.29-.19-.47s.06-.34.19-.47c.13-.13.29-.19.47-.19s.34.06.47.19c.13.13.19.29.19.47s-.06.34-.19.47c-.13.13-.29.19-.47.19Z" style="fill:#cdedf9;"/><path d="M50.2,163.46h-5.13v-7.47h5.13v.76h-4.24v2.47h4.05v.74h-4.05v2.75h4.24v.76Z" style="fill:#cdedf9;"/><path d="M56.51,163.57c-.54,0-1.01-.12-1.4-.35-.39-.23-.69-.56-.89-.99-.21-.43-.31-.94-.31-1.54s.1-1.11.3-1.54c.2-.43.49-.76.87-.99s.83-.35,1.35-.35c.46,0,.85.09,1.18.27s.58.44.76.78h.04v-3.15h.87v6.83h.46v.92h-.96v-.83h-.39c-.18.31-.43.54-.75.7-.31.16-.69.24-1.13.24ZM56.63,162.83c.53,0,.97-.15,1.29-.46.33-.31.49-.72.49-1.23v-.9c0-.51-.16-.92-.49-1.23-.33-.31-.76-.46-1.29-.46-.58,0-1.04.19-1.37.56-.33.37-.49.9-.49,1.58s.16,1.2.49,1.58c.33.38.78.56,1.37.56Z" style="fill:#cdedf9;"/><path d="M64.31,157.09c-.15,0-.28-.05-.39-.16-.11-.11-.16-.24-.16-.39s.05-.28.16-.39c.11-.11.24-.16.39-.16s.28.05.39.16c.11.11.16.24.16.39s-.05.28-.16.39c-.11.11-.24.16-.39.16ZM63.88,163.46v-5.53h.87v5.53h-.87Z" style="fill:#cdedf9;"/><path d="M70.42,163.46c-.26,0-.46-.07-.6-.2s-.22-.33-.22-.6v-4.08h-1.06v-.66h1.07v-1.66h.85v1.66h1.51v.66h-1.5v4.19h1.65v.68h-1.7Z" style="fill:#cdedf9;"/><path d="M78.38,163.57c-.57,0-1.06-.12-1.48-.35-.42-.24-.74-.57-.97-1s-.35-.94-.35-1.52.11-1.09.34-1.52c.23-.43.55-.76.97-1,.42-.24.91-.35,1.48-.35s1.07.12,1.49.35c.42.23.74.57.96,1s.34.94.34,1.53-.11,1.09-.34,1.53c-.23.43-.55.77-.97,1-.42.23-.91.35-1.49.35ZM78.38,162.81c.61,0,1.08-.19,1.42-.56s.51-.89.51-1.56-.17-1.2-.51-1.57c-.34-.37-.81-.55-1.42-.55s-1.07.19-1.42.56c-.34.37-.51.89-.51,1.56s.17,1.19.51,1.56c.34.37.81.56,1.42.56Z" style="fill:#cdedf9;"/><path d="M85.51,163.46v-4.61h-.46v-.92h.96v1.01h.39c.16-.33.4-.58.72-.77.32-.19.71-.28,1.15-.28h.45v.74h-.5c-.58,0-1.03.17-1.36.52-.33.34-.49.81-.49,1.4v2.92h-.87Z" style="fill:#cdedf9;"/><path d="M93,157.09c-.15,0-.28-.05-.39-.16-.11-.11-.16-.24-.16-.39s.05-.28.16-.39c.11-.11.24-.16.39-.16s.28.05.39.16c.11.11.16.24.16.39s-.05.28-.16.39c-.11.11-.24.16-.39.16ZM92.57,163.46v-5.53h.87v5.53h-.87Z" style="fill:#cdedf9;"/><path d="M99.44,163.56c-.62,0-1.1-.16-1.46-.47-.36-.31-.54-.71-.54-1.2,0-.53.17-.94.52-1.23.35-.29.85-.43,1.51-.43h1.99v-.26c0-.95-.51-1.42-1.52-1.42-.82,0-1.32.31-1.48.94h-.89c.09-.53.34-.94.77-1.24.43-.3.97-.44,1.63-.44.75,0,1.33.18,1.73.54.4.36.6.88.6,1.55v2.63h.42v.92h-.96v-.83h-.39c-.19.28-.46.51-.79.68-.34.17-.72.25-1.14.25ZM99.55,162.84c.35,0,.67-.07.96-.22s.52-.35.7-.59c.17-.25.26-.52.26-.83v-.3h-1.93c-.85,0-1.28.32-1.28.96,0,.3.12.54.35.72s.55.27.95.27Z" style="fill:#cdedf9;"/><path d="M106.86,163.46v-7.75h.87v7.75h-.87Z" style="fill:#cdedf9;"/></g><text transform="translate(27.87 176.74)" style="fill:#cdedf9; font-family:FunnelDisplay-SemiBold, &apos;Funnel Display&apos;; font-size:11.07px; font-weight:600; isolation:isolate;"><tspan x="0" y="0" xml:space="preserve">    </tspan></text><g style="isolation:isolate;"><path d="M39.68,174.64c-.18,0-.34-.06-.47-.19-.13-.13-.19-.29-.19-.47s.06-.34.19-.47c.13-.13.29-.19.47-.19s.34.06.47.19c.13.13.19.29.19.47s-.06.34-.19.47c-.13.13-.29.19-.47.19Z" style="fill:#cdedf9;"/><path d="M44.61,176.74v-7.47h3.55c.43,0,.8.08,1.12.23.32.15.56.37.74.66.18.29.27.63.27,1.02,0,.43-.14.78-.41,1.06-.27.27-.58.44-.92.51v.04c.25.02.5.11.76.24.26.14.48.34.66.61.18.27.27.6.27,1.01s-.1.79-.3,1.11-.48.56-.83.73-.75.26-1.21.26h-3.72ZM45.49,172.5h2.56c.42,0,.75-.11.99-.32.24-.22.36-.52.36-.91s-.12-.71-.36-.92c-.24-.21-.57-.32-.99-.32h-2.56v2.47ZM45.49,175.98h2.63c.51,0,.91-.12,1.21-.35.3-.24.44-.58.44-1.03s-.15-.8-.44-1.02c-.29-.23-.69-.34-1.2-.34h-2.64v2.75Z" style="fill:#cdedf9;"/><path d="M57.74,176.74h-.89v-6.72h-2.75v-.76h6.38v.76h-2.75v6.72Z" style="fill:#cdedf9;"/><path d="M64.44,176.74v-7.47h.89v6.71h4.15v.76h-5.04Z" style="fill:#cdedf9;"/></g><text transform="translate(27.87 190.02)" style="fill:#cdedf9; font-family:FunnelDisplay-SemiBold, &apos;Funnel Display&apos;; font-size:11.07px; font-weight:600; isolation:isolate;"><tspan x="0" y="0" xml:space="preserve">    </tspan></text><g style="isolation:isolate;"><path d="M39.68,187.92c-.18,0-.34-.06-.47-.19-.13-.13-.19-.29-.19-.47s.06-.34.19-.47c.13-.13.29-.19.47-.19s.34.06.47.19c.13.13.19.29.19.47s-.06.34-.19.47c-.13.13-.29.19-.47.19Z" style="fill:#cdedf9;"/><path d="M41.84,190.02v-7.47h3.27c.83,0,1.47.2,1.91.61.44.41.66.96.66,1.66s-.22,1.25-.67,1.66-1.08.61-1.9.61h-2.39v2.93h-.89ZM42.73,186.35h2.35c.57,0,.99-.14,1.29-.41.29-.28.44-.65.44-1.12s-.15-.85-.44-1.12c-.29-.27-.72-.41-1.29-.41h-2.35v3.06Z" style="fill:#cdedf9;"/><path d="M48.78,190.02v-7.75h.87v3.14h.04c.18-.33.43-.59.76-.76.33-.17.71-.26,1.15-.26.69,0,1.25.2,1.66.61.41.41.62.95.62,1.62v3.4h-.87v-3.27c0-.52-.14-.92-.43-1.19s-.7-.41-1.25-.41-.96.14-1.25.41-.43.67-.43,1.19v3.27h-.87Z" style="fill:#cdedf9;"/><path d="M57.9,190.14c-.57,0-1.06-.12-1.48-.35-.42-.24-.74-.57-.97-1s-.35-.94-.35-1.52.11-1.09.34-1.52c.23-.43.55-.76.97-1,.42-.24.91-.35,1.48-.35s1.07.12,1.49.35c.42.23.74.57.96,1s.34.94.34,1.53-.11,1.09-.34,1.53c-.23.43-.55.77-.97,1-.42.23-.91.35-1.49.35ZM57.9,189.38c.61,0,1.08-.19,1.42-.56s.51-.89.51-1.56-.17-1.2-.51-1.57c-.34-.37-.81-.55-1.42-.55s-1.07.19-1.42.56c-.34.37-.51.89-.51,1.56s.17,1.19.51,1.56c.34.37.81.56,1.42.56Z" style="fill:#cdedf9;"/><path d="M63.22,190.02c-.26,0-.46-.07-.6-.2s-.22-.33-.22-.6v-4.08h-1.06v-.66h1.07v-1.66h.85v1.66h1.51v.66h-1.5v4.19h1.65v.68h-1.7Z" style="fill:#cdedf9;"/><path d="M68.42,190.14c-.57,0-1.06-.12-1.48-.35-.42-.24-.74-.57-.97-1s-.35-.94-.35-1.52.11-1.09.34-1.52c.23-.43.55-.76.97-1,.42-.24.91-.35,1.48-.35s1.07.12,1.49.35c.42.23.74.57.96,1s.34.94.34,1.53-.11,1.09-.34,1.53c-.23.43-.55.77-.97,1-.42.23-.91.35-1.49.35ZM68.42,189.38c.61,0,1.08-.19,1.42-.56s.51-.89.51-1.56-.17-1.2-.51-1.57c-.34-.37-.81-.55-1.42-.55s-1.07.19-1.42.56c-.34.37-.51.89-.51,1.56s.17,1.19.51,1.56c.34.37.81.56,1.42.56Z" style="fill:#cdedf9;"/><path d="M74.54,190.14c-.75,0-1.34-.15-1.78-.47-.44-.31-.68-.75-.72-1.31h.87c.04.36.2.62.47.79.27.17.67.26,1.19.26.94,0,1.41-.3,1.41-.9,0-.25-.07-.44-.22-.57s-.39-.23-.73-.29l-1.21-.22c-1-.18-1.5-.66-1.5-1.44,0-.5.19-.89.56-1.18.38-.29.89-.43,1.54-.43s1.21.15,1.61.44c.4.29.63.71.7,1.24h-.85c-.07-.33-.22-.57-.46-.72-.24-.16-.58-.24-1.01-.24s-.73.07-.95.22c-.22.15-.33.36-.33.63,0,.21.07.37.22.49s.38.21.71.27l1.2.22c.53.1.92.27,1.16.52s.37.58.37,1c0,.54-.19.95-.58,1.24-.39.3-.94.44-1.66.44Z" style="fill:#cdedf9;"/><path d="M77.93,190.02v-7.75h.87v3.14h.04c.18-.33.43-.59.76-.76.33-.17.71-.26,1.15-.26.69,0,1.25.2,1.66.61.41.41.62.95.62,1.62v3.4h-.87v-3.27c0-.52-.14-.92-.43-1.19s-.7-.41-1.25-.41-.96.14-1.25.41-.43.67-.43,1.19v3.27h-.87Z" style="fill:#cdedf9;"/><path d="M87.05,190.14c-.57,0-1.06-.12-1.48-.35-.42-.24-.74-.57-.97-1s-.35-.94-.35-1.52.11-1.09.34-1.52c.23-.43.55-.76.97-1,.42-.24.91-.35,1.48-.35s1.07.12,1.49.35c.42.23.74.57.96,1s.34.94.34,1.53-.11,1.09-.34,1.53c-.23.43-.55.77-.97,1-.42.23-.91.35-1.49.35ZM87.05,189.38c.61,0,1.08-.19,1.42-.56s.51-.89.51-1.56-.17-1.2-.51-1.57c-.34-.37-.81-.55-1.42-.55s-1.07.19-1.42.56c-.34.37-.51.89-.51,1.56s.17,1.19.51,1.56c.34.37.81.56,1.42.56Z" style="fill:#cdedf9;"/><path d="M91.3,192.24v-6.83h-.46v-.92h.96v.83h.39c.18-.31.43-.54.75-.7.31-.16.69-.24,1.14-.24.55,0,1.01.12,1.4.35s.68.56.89.99c.21.43.31.94.31,1.54s-.1,1.11-.3,1.54c-.2.43-.49.76-.87.99s-.83.35-1.35.35c-.45,0-.84-.09-1.18-.27s-.59-.44-.76-.78h-.04v3.15h-.87ZM93.95,189.4c.58,0,1.04-.19,1.36-.56.33-.37.49-.9.49-1.58s-.16-1.2-.49-1.58-.78-.56-1.36-.56c-.54,0-.97.15-1.29.46-.33.31-.49.72-.49,1.23v.9c0,.51.16.92.49,1.23.33.31.76.46,1.29.46Z" style="fill:#cdedf9;"/></g><text transform="translate(27.87 203.31)" style="fill:#cdedf9; font-family:FunnelDisplay-SemiBold, &apos;Funnel Display&apos;; font-size:11.07px; font-weight:600; isolation:isolate;"><tspan x="0" y="0" xml:space="preserve">    </tspan></text><g style="isolation:isolate;"><path d="M39.68,201.2c-.18,0-.34-.06-.47-.19-.13-.13-.19-.29-.19-.47s.06-.34.19-.47c.13-.13.29-.19.47-.19s.34.06.47.19c.13.13.19.29.19.47s-.06.34-.19.47c-.13.13-.29.19-.47.19Z" style="fill:#cdedf9;"/><path d="M41.84,203.31v-7.47h.89v6.71h4.15v.76h-5.04Z" style="fill:#cdedf9;"/><path d="M48.35,196.94c-.15,0-.28-.05-.39-.16-.11-.11-.16-.24-.16-.39s.05-.28.16-.39c.11-.11.24-.16.39-.16s.28.05.39.16c.11.11.16.24.16.39s-.05.28-.16.39c-.11.11-.24.16-.39.16ZM47.92,203.31v-5.53h.87v5.53h-.87Z" style="fill:#cdedf9;"/><path d="M52.73,205.63c-.74,0-1.35-.16-1.82-.47s-.74-.75-.83-1.3h.92c.17.68.75,1.02,1.73,1.02.61,0,1.08-.15,1.4-.43.33-.29.49-.7.49-1.25v-.94h-.05c-.14.33-.38.59-.71.77s-.72.28-1.16.28c-.53,0-.99-.12-1.37-.35s-.69-.56-.89-.98c-.21-.42-.31-.92-.31-1.5,0-.87.23-1.55.7-2.06.47-.51,1.1-.76,1.9-.76.44,0,.82.08,1.13.24.31.16.56.39.75.7h.39v-.83h.96v.92h-.46v4.57c0,.74-.24,1.33-.72,1.74-.48.42-1.16.63-2.03.63ZM52.91,202.55c.51,0,.92-.15,1.24-.45.32-.3.48-.7.48-1.19v-.85c0-.49-.16-.89-.48-1.19-.32-.3-.73-.45-1.24-.45-.6,0-1.07.18-1.41.54-.34.36-.51.87-.51,1.52s.17,1.16.51,1.52c.34.36.81.54,1.41.54Z" style="fill:#cdedf9;"/><path d="M57.26,203.31v-7.75h.87v3.14h.04c.18-.33.43-.59.76-.76.33-.17.71-.26,1.15-.26.69,0,1.25.2,1.66.61.41.41.62.95.62,1.62v3.4h-.87v-3.27c0-.52-.14-.92-.43-1.19s-.7-.41-1.25-.41-.96.14-1.25.41-.43.67-.43,1.19v3.27h-.87Z" style="fill:#cdedf9;"/><path d="M65.16,203.31c-.26,0-.46-.07-.6-.2s-.22-.33-.22-.6v-4.08h-1.06v-.66h1.07v-1.66h.85v1.66h1.51v.66h-1.5v4.19h1.65v.68h-1.7Z" style="fill:#cdedf9;"/><path d="M68.17,203.31v-4.61h-.46v-.92h.96v1.01h.39c.16-.33.4-.58.72-.77.32-.19.71-.28,1.15-.28h.45v.74h-.5c-.58,0-1.03.17-1.36.52-.33.34-.49.81-.49,1.4v2.92h-.87Z" style="fill:#cdedf9;"/><path d="M74.6,203.42c-.57,0-1.06-.12-1.48-.35-.42-.24-.74-.57-.97-1s-.35-.94-.35-1.52.11-1.09.34-1.52c.23-.43.55-.76.97-1,.42-.24.91-.35,1.48-.35s1.07.12,1.49.35c.42.23.74.57.96,1s.34.94.34,1.53-.11,1.09-.34,1.53c-.23.43-.55.77-.97,1-.42.23-.91.35-1.49.35ZM74.6,202.66c.61,0,1.08-.19,1.42-.56s.51-.89.51-1.56-.17-1.2-.51-1.57c-.34-.37-.81-.55-1.42-.55s-1.07.19-1.42.56c-.34.37-.51.89-.51,1.56s.17,1.19.51,1.56c.34.37.81.56,1.42.56Z" style="fill:#cdedf9;"/><path d="M81.14,203.42c-.57,0-1.06-.12-1.48-.35-.42-.24-.74-.57-.97-1s-.35-.94-.35-1.52.11-1.09.34-1.52c.23-.43.55-.76.97-1,.42-.24.91-.35,1.48-.35s1.07.12,1.49.35c.42.23.74.57.96,1s.34.94.34,1.53-.11,1.09-.34,1.53c-.23.43-.55.77-.97,1-.42.23-.91.35-1.49.35ZM81.14,202.66c.61,0,1.08-.19,1.42-.56s.51-.89.51-1.56-.17-1.2-.51-1.57c-.34-.37-.81-.55-1.42-.55s-1.07.19-1.42.56c-.34.37-.51.89-.51,1.56s.17,1.19.51,1.56c.34.37.81.56,1.42.56Z" style="fill:#cdedf9;"/><path d="M85.4,203.31v-4.61h-.46v-.92h.96v.83h.46c.15-.3.37-.53.67-.69.3-.16.66-.24,1.08-.24s.8.09,1.1.27c.3.18.55.46.72.83h.03c.38-.73,1.01-1.1,1.92-1.1.66,0,1.18.19,1.55.58.37.38.56.92.56,1.6v3.46h-.87v-3.35c0-1.02-.5-1.53-1.5-1.53s-1.49.51-1.49,1.53v3.35h-.87v-3.35c0-1.02-.5-1.53-1.5-1.53-.49,0-.86.13-1.11.39-.26.26-.38.64-.38,1.14v3.35h-.87Z" style="fill:#cdedf9;"/></g><text transform="translate(27.87 216.59)" style="fill:#cdedf9; font-family:FunnelDisplay-SemiBold, &apos;Funnel Display&apos;; font-size:11.07px; font-weight:600; isolation:isolate;"><tspan x="0" y="0" xml:space="preserve">    </tspan></text><g style="isolation:isolate;"><path d="M39.68,214.49c-.18,0-.34-.06-.47-.19-.13-.13-.19-.29-.19-.47s.06-.34.19-.47c.13-.13.29-.19.47-.19s.34.06.47.19c.13.13.19.29.19.47s-.06.34-.19.47c-.13.13-.29.19-.47.19Z" style="fill:#cdedf9;"/><path d="M40.94,216.59l3.22-7.47h1.02l3.21,7.47h-.89l-1.01-2.36h-3.67l-1.01,2.36h-.87ZM43.1,213.45h3.1l-1.52-3.56h-.05l-1.53,3.56Z" style="fill:#cdedf9;"/><path d="M51.43,216.7c-.54,0-1.01-.12-1.4-.35-.39-.23-.69-.56-.89-.99-.21-.43-.31-.94-.31-1.54s.1-1.11.3-1.54c.2-.43.49-.76.87-.99s.83-.35,1.35-.35c.46,0,.85.09,1.18.27s.58.44.76.78h.04v-3.15h.87v6.83h.46v.92h-.96v-.83h-.39c-.18.31-.43.54-.75.7-.31.16-.69.24-1.13.24ZM51.55,215.96c.53,0,.97-.15,1.29-.46.33-.31.49-.72.49-1.23v-.9c0-.51-.16-.92-.49-1.23-.33-.31-.76-.46-1.29-.46-.58,0-1.04.19-1.37.56-.33.37-.49.9-.49,1.58s.16,1.2.49,1.58c.33.38.78.56,1.37.56Z" style="fill:#cdedf9;"/><path d="M58.45,216.7c-.57,0-1.06-.12-1.48-.35-.42-.24-.74-.57-.97-1s-.35-.94-.35-1.52.11-1.09.34-1.52c.23-.43.55-.76.97-1,.42-.24.91-.35,1.48-.35s1.07.12,1.49.35c.42.23.74.57.96,1s.34.94.34,1.53-.11,1.09-.34,1.53c-.23.43-.55.77-.97,1-.42.23-.91.35-1.49.35ZM58.45,215.94c.61,0,1.08-.19,1.42-.56s.51-.89.51-1.56-.17-1.2-.51-1.57c-.34-.37-.81-.55-1.42-.55s-1.07.19-1.42.56c-.34.37-.51.89-.51,1.56s.17,1.19.51,1.56c.34.37.81.56,1.42.56Z" style="fill:#cdedf9;"/><path d="M65.47,216.7c-.44,0-.82-.08-1.13-.24-.31-.16-.56-.39-.75-.7h-.39v.83h-.96v-.92h.46v-6.83h.87v3.15h.04c.17-.34.43-.61.76-.78.34-.18.73-.27,1.18-.27.52,0,.97.12,1.35.35s.67.56.87.99c.2.43.3.94.3,1.54s-.1,1.11-.31,1.54-.5.76-.89.99-.85.35-1.4.35ZM65.35,215.96c.58,0,1.04-.19,1.37-.56.33-.37.49-.9.49-1.58s-.16-1.2-.49-1.58c-.33-.37-.78-.56-1.37-.56-.54,0-.97.15-1.29.46-.33.31-.49.72-.49,1.23v.9c0,.51.16.92.49,1.23.33.31.76.46,1.29.46Z" style="fill:#cdedf9;"/><path d="M71.82,216.7c-.57,0-1.06-.12-1.48-.35-.42-.24-.74-.57-.97-1.01-.23-.44-.34-.95-.34-1.53s.11-1.09.34-1.52c.23-.43.55-.76.96-.99.41-.23.89-.35,1.45-.35.52,0,.97.11,1.36.32.38.21.68.51.89.9s.32.85.32,1.37v.39h-4.48c.02.63.21,1.13.56,1.48s.81.54,1.39.54c.4,0,.74-.09,1.02-.26.28-.17.47-.42.58-.75h.89c-.14.56-.43.99-.86,1.3-.43.31-.97.46-1.61.46ZM69.91,213.26h3.6c-.04-.5-.22-.89-.53-1.16-.31-.28-.71-.42-1.21-.42s-.91.14-1.24.42c-.33.28-.54.66-.62,1.16Z" style="fill:#cdedf9;"/><path d="M77.78,216.59l2.82-3.89-2.62-3.58h.99l2.19,2.99h.05l2.18-2.99h.93l-2.62,3.56,2.82,3.91h-1.01l-2.35-3.29h-.05l-2.39,3.29h-.94Z" style="fill:#cdedf9;"/><path d="M85.66,216.59v-7.47h2.62c.81,0,1.51.15,2.1.45s1.04.73,1.36,1.29.48,1.23.48,2-.16,1.43-.48,1.99-.77.99-1.36,1.29c-.59.3-1.28.45-2.09.45h-2.62ZM86.54,215.83h1.73c.95,0,1.69-.26,2.22-.78.53-.52.8-1.25.8-2.2s-.26-1.69-.79-2.21c-.53-.52-1.27-.77-2.22-.77h-1.73v5.96Z" style="fill:#cdedf9;"/></g><text transform="translate(27.87 229.87)" style="fill:#cdedf9; font-family:FunnelDisplay-SemiBold, &apos;Funnel Display&apos;; font-size:11.07px; font-weight:600; isolation:isolate;"><tspan x="0" y="0" xml:space="preserve">    </tspan></text><g style="isolation:isolate;"><path d="M39.68,227.77c-.18,0-.34-.06-.47-.19-.13-.13-.19-.29-.19-.47s.06-.34.19-.47c.13-.13.29-.19.47-.19s.34.06.47.19c.13.13.19.29.19.47s-.06.34-.19.47c-.13.13-.29.19-.47.19Z" style="fill:#cdedf9;"/><path d="M42.73,229.87h-.89v-7.47h5.04v.76h-4.15v2.57h3.93v.76h-3.93v3.39Z" style="fill:#cdedf9;"/><path d="M48.35,223.51c-.15,0-.28-.05-.39-.16-.11-.11-.16-.24-.16-.39s.05-.28.16-.39c.11-.11.24-.16.39-.16s.28.05.39.16c.11.11.16.24.16.39s-.05.28-.16.39c-.11.11-.24.16-.39.16ZM47.92,229.87v-5.53h.87v5.53h-.87Z" style="fill:#cdedf9;"/><path d="M52.73,232.2c-.74,0-1.35-.16-1.82-.47s-.74-.75-.83-1.3h.92c.17.68.75,1.02,1.73,1.02.61,0,1.08-.15,1.4-.43.33-.29.49-.7.49-1.25v-.94h-.05c-.14.33-.38.59-.71.77s-.72.28-1.16.28c-.53,0-.99-.12-1.37-.35s-.69-.56-.89-.98c-.21-.42-.31-.92-.31-1.5,0-.87.23-1.55.7-2.06.47-.51,1.1-.76,1.9-.76.44,0,.82.08,1.13.24.31.16.56.39.75.7h.39v-.83h.96v.92h-.46v4.57c0,.74-.24,1.33-.72,1.74-.48.42-1.16.63-2.03.63ZM52.91,229.12c.51,0,.92-.15,1.24-.45.32-.3.48-.7.48-1.19v-.85c0-.49-.16-.89-.48-1.19-.32-.3-.73-.45-1.24-.45-.6,0-1.07.18-1.41.54-.34.36-.51.87-.51,1.52s.17,1.16.51,1.52c.34.36.81.54,1.41.54Z" style="fill:#cdedf9;"/><path d="M57.45,229.87v-4.61h-.46v-.92h.96v.83h.46c.15-.3.37-.53.67-.69.3-.16.66-.24,1.08-.24s.8.09,1.1.27c.3.18.55.46.72.83h.03c.38-.73,1.01-1.1,1.92-1.1.66,0,1.18.19,1.55.58.37.38.56.92.56,1.6v3.46h-.87v-3.35c0-1.02-.5-1.53-1.5-1.53s-1.49.51-1.49,1.53v3.35h-.87v-3.35c0-1.02-.5-1.53-1.5-1.53-.49,0-.86.13-1.11.39-.26.26-.38.64-.38,1.14v3.35h-.87Z" style="fill:#cdedf9;"/><path d="M69.18,229.98c-.62,0-1.1-.16-1.46-.47-.36-.31-.54-.71-.54-1.2,0-.53.17-.94.52-1.23s.85-.43,1.51-.43h1.99v-.26c0-.95-.51-1.42-1.52-1.42-.82,0-1.32.31-1.49.94h-.89c.09-.53.34-.94.77-1.24.43-.3.97-.44,1.63-.44.75,0,1.33.18,1.72.54.4.36.6.88.6,1.55v2.63h.42v.92h-.96v-.83h-.39c-.19.28-.46.51-.79.68s-.72.25-1.14.25ZM69.29,229.26c.35,0,.67-.07.96-.22.29-.15.52-.35.7-.59.17-.25.26-.52.26-.83v-.3h-1.93c-.85,0-1.28.32-1.28.96,0,.3.12.54.35.72s.55.27.95.27Z" style="fill:#cdedf9;"/></g><line x1="19.56" y1="13.28" x2="19.56" y2="364.55" style="fill:none; stroke:#cdedf9; stroke-linecap:round; stroke-linejoin:round; stroke-width:2px;"/><rect x="1" y="13.28" width="18.56" height="148.58" style="fill:url(#radial-gradient); stroke:#cdedf9; stroke-linecap:round; stroke-linejoin:round; stroke-width:2px;"/><path d="M15.38,157.88H5.48v-2.94h1.15v1.59h7.6v-1.59h1.15v2.94Z" style="fill:#fff;"/><path d="M11.52,150.34c0,.26-.09.48-.27.67-.18.18-.41.27-.67.27s-.48-.09-.67-.27c-.18-.18-.27-.41-.27-.67s.09-.48.27-.67c.18-.18.41-.28.67-.28s.48.09.67.28c.18.18.27.41.27.67Z" style="fill:#fff;"/><path d="M13.58,145.98l-8.1-3.44v-1.59l8.1-3.42v1.56l-2.12.89v3.59l2.12.9v1.51ZM10.18,143.09v-2.68l-3.14,1.31v.05l3.14,1.32Z" style="fill:#fff;"/><path d="M13.58,133.41h-4.51v.74h-1.49v-1.52h1.16v-.42c-.4-.17-.7-.42-.91-.77-.21-.35-.31-.74-.31-1.19v-.5h1.28v.57c0,.54.16.94.47,1.21.31.27.73.4,1.25.4h3.06v1.47Z" style="fill:#fff;"/><path d="M13.58,124.15c0,.39-.1.7-.3.92-.2.22-.5.33-.91.33h-3.63v1.06h-1.16v-1.07h-1.8v-1.46h1.8v-1.45h1.16v1.43h3.67v-1.57h1.17v1.82Z" style="fill:#fff;"/><path d="M15.38,113.89H5.18v-1.12h10.2v1.12Z" style="fill:#fff;"/><path d="M13.58,103.68H5.48v-3.11c0-.88.16-1.64.49-2.28.33-.64.79-1.13,1.4-1.47s1.33-.51,2.16-.51,1.54.17,2.15.52,1.07.84,1.4,1.48c.33.64.5,1.4.5,2.27v3.11ZM12.28,102.15v-1.58c0-.89-.25-1.57-.75-2.04s-1.17-.71-2-.71-1.52.24-2.01.71c-.49.47-.74,1.15-.74,2.04v1.58h5.5Z" style="fill:#fff;"/><path d="M6.92,91.44c0,.23-.08.43-.24.6-.16.16-.36.24-.6.24s-.43-.08-.6-.24c-.16-.16-.24-.36-.24-.6s.08-.43.24-.59c.16-.16.36-.25.6-.25s.43.08.6.25c.16.16.24.36.24.59ZM13.58,92.18h-6v-1.49h6v1.49Z" style="fill:#fff;"/><path d="M13.58,85.89h-4.51v.74h-1.49v-1.52h1.16v-.42c-.4-.17-.7-.42-.91-.77-.21-.35-.31-.74-.31-1.19v-.5h1.28v.57c0,.54.16.94.47,1.21.31.27.73.4,1.25.4h3.06v1.47Z" style="fill:#fff;"/><path d="M13.7,75.58c0,.65-.13,1.21-.39,1.68-.26.47-.62.84-1.09,1.09s-1.02.38-1.67.38-1.19-.13-1.65-.38c-.46-.25-.82-.61-1.07-1.08s-.38-1.01-.38-1.64.12-1.14.35-1.58c.24-.44.58-.78,1.02-1.02.44-.24.97-.36,1.58-.36h.52v4.62c.51-.05.9-.23,1.17-.53s.4-.69.4-1.18c0-.37-.07-.67-.21-.9-.14-.23-.34-.39-.61-.49v-1.5c.63.14,1.13.46,1.48.97.36.5.54,1.14.54,1.9ZM9.92,77.27v-3.16c-.41.06-.73.22-.94.48-.22.26-.33.61-.33,1.05s.11.79.33,1.07c.22.28.53.47.94.56Z" style="fill:#fff;"/><path d="M13.7,65.95c0,.62-.13,1.16-.39,1.63-.26.47-.62.83-1.08,1.09-.47.26-1.02.39-1.65.39s-1.18-.13-1.65-.38-.83-.62-1.08-1.08c-.26-.47-.39-1.01-.39-1.64,0-.77.2-1.41.58-1.92.39-.51.93-.83,1.62-.96v1.49c-.3.1-.53.27-.68.5s-.23.53-.23.89c0,.49.16.89.47,1.18.32.29.77.44,1.35.44s1.03-.15,1.35-.44c.32-.29.47-.69.47-1.18,0-.77-.33-1.25-1-1.42v-1.5c.73.13,1.29.44,1.7.95s.6,1.16.6,1.97Z" style="fill:#fff;"/><path d="M13.58,57.57c0,.39-.1.7-.3.92-.2.22-.5.33-.91.33h-3.63v1.06h-1.16v-1.07h-1.8v-1.46h1.8v-1.45h1.16v1.43h3.67v-1.57h1.17v1.82Z" style="fill:#fff;"/><path d="M6.92,51.14c0,.23-.08.43-.24.6-.16.16-.36.24-.6.24s-.43-.08-.6-.24c-.16-.16-.24-.36-.24-.6s.08-.43.24-.59c.16-.16.36-.25.6-.25s.43.08.6.25c.16.16.24.36.24.59ZM13.58,51.88h-6v-1.49h6v1.49Z" style="fill:#fff;"/><path d="M13.7,43.21c0,.65-.13,1.21-.39,1.68-.26.48-.62.85-1.08,1.11-.47.26-1.02.39-1.65.39s-1.19-.13-1.66-.39c-.47-.26-.83-.64-1.08-1.12-.25-.48-.38-1.04-.38-1.68s.13-1.22.38-1.69c.25-.47.61-.83,1.08-1.09.47-.26,1.02-.39,1.66-.39s1.19.13,1.65.39c.47.26.83.63,1.09,1.1.25.47.38,1.03.38,1.68ZM12.4,43.21c0-.53-.16-.95-.48-1.24-.32-.29-.77-.44-1.33-.44s-1.02.15-1.34.44c-.32.29-.48.71-.48,1.24s.16.96.48,1.25c.32.3.76.44,1.33.44s1.02-.15,1.34-.44.48-.71.48-1.25Z" style="fill:#fff;"/><path d="M13.58,35.71h-4.51v.74h-1.49v-1.53h.96v-.42c-.34-.23-.6-.52-.79-.87-.19-.35-.28-.79-.28-1.3,0-.82.23-1.46.68-1.91.45-.45,1.06-.67,1.81-.67h3.62v1.49h-3.34c-.47,0-.83.12-1.08.38s-.37.62-.37,1.12.12.85.37,1.1.61.38,1.08.38h3.34v1.49Z" style="fill:#fff;"/><path d="M11.52,24.78c0,.26-.09.48-.27.67-.18.18-.41.27-.67.27s-.48-.09-.67-.27c-.18-.18-.27-.41-.27-.67s.09-.48.27-.67c.18-.18.41-.28.67-.28s.48.09.67.28c.18.18.27.41.27.67Z" style="fill:#fff;"/><path d="M15.37,20.18h-1.15v-1.59h-7.59v1.59h-1.15v-2.94h9.89v2.94Z" style="fill:#fff;"/></g></svg>