<?xml version="1.0" encoding="UTF-8"?>
<svg id="Layer_2" xmlns="http://www.w3.org/2000/svg" version="1.1" viewBox="0 0 214.2 374.6">
  <!-- Generator: Adobe Illustrator 30.0.0, SVG Export Plug-In . SVG Version: 2.1.1 Build 123)  -->
  <defs>
    <style>
      .st0 {
        fill: none;
        stroke: #001219;
        stroke-linecap: round;
        stroke-linejoin: round;
        stroke-width: 2px;
      }

      .st1, .st2 {
        fill: #001219;
      }

      .st2 {
        font-family: FunnelDisplay-SemiBold, 'Funnel Display';
        font-size: 11.1px;
        font-weight: 600;
      }

      .st2, .st3 {
        isolation: isolate;
      }

      .st4 {
        fill: #fff;
      }
    </style>
  </defs>
  <g id="skills">
    <g>
      <path class="st1" d="M23.6,240.2v-9.1h2.7v1.1h-1.5v7h1.5v1.1h-2.7Z"/>
      <path class="st1" d="M30.6,236.6c-.2,0-.4,0-.6-.2-.2-.2-.2-.4-.2-.6s0-.4.2-.6.4-.2.6-.2.4,0,.6.2c.2.2.2.4.2.6s0,.4-.2.6-.4.2-.6.2Z"/>
      <path class="st1" d="M37,238.5l-2.2-7.5h1.5l1.5,5.4h0l1.6-5.4h1.2l1.7,5.4h0l1.4-5.4h1.5l-2.2,7.5h-1.4l-1.7-5.5h0l-1.6,5.5h-1.4.1Z"/>
      <path class="st1" d="M51.5,238.6c-.6,0-1.1-.1-1.5-.4-.4-.2-.8-.6-1-1s-.3-.9-.3-1.5,0-1.1.3-1.5.6-.8,1-1,.9-.4,1.5-.4,1,.1,1.5.3.7.5.9.9.3.9.3,1.5v.5h-4.3c0,.5.2.8.5,1.1.3.2.6.4,1.1.4s.6,0,.8-.2.4-.3.5-.6h1.4c0,.6-.4,1-.9,1.4s-1,.5-1.8.5h0ZM50,235.2h2.9c0-.4-.2-.7-.4-.9-.2-.2-.6-.3-1-.3s-.7.1-1,.3c-.3.2-.4.5-.5.9Z"/>
      <path class="st1" d="M61.3,238.6c-.5,0-.8,0-1.2-.3s-.6-.4-.8-.7h-.4v.9h-1.4v-1.4h.7v-6.4h1.4v3h0c.2-.3.4-.5.7-.7s.7-.2,1.1-.2,1,.1,1.4.4c.4.2.7.6.9,1s.3.9.3,1.5,0,1.1-.3,1.5c-.2.4-.5.8-.9,1s-.9.4-1.4.4h0ZM61,237.5c.5,0,.9-.1,1.1-.5.2-.3.4-.7.4-1.2s0-.9-.4-1.2c-.3-.3-.6-.5-1.1-.5s-.8.1-1.1.4-.4.6-.4,1v.6c0,.4,0,.8.4,1s.6.4,1.1.4h0Z"/>
      <path class="st1" d="M68.2,236.6c-.2,0-.4,0-.6-.2s-.2-.4-.2-.6,0-.4.2-.6.4-.2.6-.2.4,0,.6.2.2.4.2.6,0,.4-.2.6-.4.2-.6.2Z"/>
      <path class="st1" d="M72.4,240.2v-1.1h1.5v-7h-1.5v-1.1h2.7v9.1h-2.7Z"/>
      <g class="st3">
        <g class="st3">
          <text class="st2" transform="translate(22.9 251.8)"><tspan x="0" y="0" xml:space="preserve">    </tspan></text>
        </g>
      </g>
      <path class="st1" d="M34.7,249.7c-.2,0-.3,0-.5-.2s-.2-.3-.2-.5,0-.3.2-.5c0-.1.3-.2.5-.2s.3,0,.5.2.2.3.2.5,0,.3-.2.5c0,.1-.3.2-.5.2Z"/>
      <path class="st1" d="M41.2,251.8l-2.2-7.5h.9l1.8,6.4h0l1.8-6.4h.9l2,6.4h0l1.8-6.4h.9l-2.2,7.5h-1l-2-6.5h0l-1.8,6.5h-1,0Z"/>
      <path class="st1" d="M55.6,251.9c-.6,0-1.1-.1-1.5-.4-.4-.2-.7-.6-1-1s-.3-1-.3-1.5,0-1.1.3-1.5.5-.8,1-1c.4-.2.9-.4,1.5-.4s1,.1,1.4.3c.4.2.7.5.9.9s.3.9.3,1.4v.4h-4.5c0,.6.2,1.1.6,1.5s.8.5,1.4.5.7,0,1-.3.5-.4.6-.8h.9c0,.6-.4,1-.9,1.3s-1,.5-1.6.5h-.1ZM53.7,248.5h3.6c0-.5-.2-.9-.5-1.2-.3-.3-.7-.4-1.2-.4s-.9.1-1.2.4-.5.7-.6,1.2h0Z"/>
      <path class="st1" d="M65.1,251.9c-.4,0-.8,0-1.1-.2s-.6-.4-.8-.7h-.4v.8h-1v-.9h.5v-6.8h.9v3.1h0c.2-.3.4-.6.8-.8.3-.2.7-.3,1.2-.3s1,.1,1.3.4.7.6.9,1c.2.4.3.9.3,1.5s0,1.1-.3,1.5-.5.8-.9,1-.8.4-1.4.4h0ZM65,251.2c.6,0,1-.2,1.4-.6s.5-.9.5-1.6-.2-1.2-.5-1.6-.8-.6-1.4-.6-1,.1-1.3.5c-.3.3-.5.7-.5,1.2v.9c0,.5.2.9.5,1.2.3.3.8.5,1.3.5h0Z"/>
      <path class="st1" d="M74.7,251.8v-7.5h3.3c.8,0,1.5.2,1.9.6s.7,1,.7,1.7-.2,1.2-.7,1.7-1.1.6-1.9.6h-2.4v2.9h-.9ZM75.6,248.1h2.3c.6,0,1-.1,1.3-.4s.4-.6.4-1.1-.2-.9-.4-1.1-.7-.4-1.3-.4h-2.3v3.1h0Z"/>
      <path class="st1" d="M84.4,251.8v-7.8h.9v7.8h-.9Z"/>
      <path class="st1" d="M91.3,251.9c-.6,0-1.1-.2-1.5-.5s-.5-.7-.5-1.2.2-.9.5-1.2.8-.4,1.5-.4h2v-.3c0-1-.5-1.4-1.5-1.4s-1.3.3-1.5.9h-.9c0-.5.3-.9.8-1.2s1-.4,1.6-.4,1.3.2,1.7.5c.4.4.6.9.6,1.5v2.6h.4v.9h-1v-.8h-.4c-.2.3-.5.5-.8.7s-.7.2-1.1.2h.1ZM91.4,251.2c.3,0,.7,0,1-.2s.5-.4.7-.6.3-.5.3-.8v-.3h-1.9c-.8,0-1.3.3-1.3,1s0,.5.3.7.6.3.9.3h0Z"/>
      <path class="st1" d="M98.8,251.8v-4.6h-.5v-.9h1v.8h.4c.2-.3.4-.5.8-.7s.7-.2,1.2-.2,1.2.2,1.7.6c.4.4.6,1,.6,1.6v3.4h-.9v-3.3c0-.5,0-.9-.4-1.2s-.7-.4-1.2-.4-1,.1-1.2.4-.4.7-.4,1.2v3.3h-1.1Z"/>
      <path class="st1" d="M108.4,251.8v-4.6h-.5v-.9h1v.8h.4c.2-.3.4-.5.8-.7s.7-.2,1.2-.2,1.2.2,1.7.6c.4.4.6,1,.6,1.6v3.4h-.9v-3.3c0-.5,0-.9-.4-1.2s-.7-.4-1.2-.4-1,.1-1.2.4c-.3.3-.4.7-.4,1.2v3.3h-1.1Z"/>
      <path class="st1" d="M118.3,245.5c-.2,0-.3,0-.4-.2s-.2-.2-.2-.4,0-.3.2-.4.2-.2.4-.2.3,0,.4.2.2.2.2.4,0,.3-.2.4-.2.2-.4.2ZM117.9,251.8v-5.5h.9v5.5h-.9Z"/>
      <path class="st1" d="M123.4,251.8v-4.6h-.5v-.9h1v.8h.4c.2-.3.4-.5.8-.7s.7-.2,1.1-.2c.7,0,1.2.2,1.7.6.4.4.6,1,.6,1.6v3.4h-.9v-3.3c0-.5-.1-.9-.4-1.2s-.7-.4-1.2-.4-1,.1-1.2.4-.4.7-.4,1.2v3.3h-1Z"/>
      <path class="st1" d="M135.1,254.1c-.7,0-1.4-.2-1.8-.5s-.7-.8-.8-1.3h.9c.2.7.8,1,1.7,1s1.1-.1,1.4-.4c.3-.3.5-.7.5-1.2v-.9h0c-.1.3-.4.6-.7.8s-.7.3-1.2.3-1-.1-1.4-.4-.7-.6-.9-1-.3-.9-.3-1.5c0-.9.2-1.5.7-2.1s1.1-.8,1.9-.8.8,0,1.1.2.6.4.8.7h.4v-.8h1v.9h-.5v4.6c0,.7-.2,1.3-.7,1.7s-1.2.6-2,.6h0ZM135.3,251.1c.5,0,.9-.1,1.2-.5.3-.3.5-.7.5-1.2v-.9c0-.5-.2-.9-.5-1.2-.3-.3-.7-.5-1.2-.5s-1.1.2-1.4.5c-.3.4-.5.9-.5,1.5s.2,1.2.5,1.5.8.5,1.4.5h0v.3Z"/>
      <g class="st3">
        <path class="st1" d="M35.1,263c-.2,0-.3,0-.5-.2s-.2-.3-.2-.5,0-.3.2-.5c0-.1.3-.2.5-.2s.3,0,.5.2.2.3.2.5,0,.3-.2.5c0,.1-.3.2-.5.2Z"/>
        <path class="st1" d="M41.7,265.1l-2.2-7.5h.9l1.8,6.4h0l1.8-6.4h.9l2,6.4h0l1.8-6.4h.9l-2.2,7.5h-1l-2-6.5h0l-1.8,6.5h-1,0Z"/>
        <path class="st1" d="M56,265.2c-.6,0-1.1-.1-1.5-.4-.4-.2-.7-.6-1-1s-.3-1-.3-1.5,0-1.1.3-1.5.5-.8,1-1c.4-.2.9-.4,1.5-.4s1,.1,1.4.3c.4.2.7.5.9.9s.3.9.3,1.4v.4h-4.5c0,.6.2,1.1.6,1.5s.8.5,1.4.5.7,0,1-.3.5-.4.6-.8h.9c0,.6-.4,1-.9,1.3s-1,.5-1.6.5h-.1ZM54.1,261.8h3.6c0-.5-.2-.9-.5-1.2-.3-.3-.7-.4-1.2-.4s-.9.1-1.2.4-.5.7-.6,1.2h0Z"/>
        <path class="st1" d="M65.6,265.2c-.4,0-.8,0-1.1-.2s-.6-.4-.8-.7h-.4v.8h-1v-.9h.5v-6.8h.9v3.1h0c.2-.3.4-.6.8-.8.3-.2.7-.3,1.2-.3s1,.1,1.3.4.7.6.9,1c.2.4.3.9.3,1.5s0,1.1-.3,1.5-.5.8-.9,1-.8.4-1.4.4h0ZM65.4,264.5c.6,0,1-.2,1.4-.6s.5-.9.5-1.6-.2-1.2-.5-1.6-.8-.6-1.4-.6-1,.1-1.3.5c-.3.3-.5.7-.5,1.2v.9c0,.5.2.9.5,1.2.3.3.8.5,1.3.5h0Z"/>
        <path class="st1" d="M75.1,265.1v-7.5h2.6c.8,0,1.5.1,2.1.5s1,.7,1.4,1.3.5,1.2.5,2-.2,1.4-.5,2-.8,1-1.4,1.3-1.3.5-2.1.5h-2.6ZM76,264.3h1.7c.9,0,1.7-.3,2.2-.8s.8-1.2.8-2.2-.3-1.7-.8-2.2-1.3-.8-2.2-.8h-1.7v6h0Z"/>
        <path class="st1" d="M86.2,258.7c-.2,0-.3,0-.4-.2,0-.1-.2-.2-.2-.4s0-.3.2-.4c0-.1.2-.2.4-.2s.3,0,.4.2c0,.1.2.2.2.4s0,.3-.2.4c0,.1-.2.2-.4.2ZM85.8,265.1v-5.5h.9v5.5h-.9Z"/>
        <path class="st1" d="M91.4,265.1v-4.6h-.5v-.9h1v1h.4c.2-.3.4-.6.7-.8s.7-.3,1.2-.3h.4v.7h-.5c-.6,0-1,.2-1.4.5-.3.3-.5.8-.5,1.4v2.9h-.9.1Z"/>
        <path class="st1" d="M100.9,265.2c-.6,0-1.1-.1-1.5-.4-.4-.2-.7-.6-1-1s-.3-1-.3-1.5,0-1.1.3-1.5c.2-.4.6-.8,1-1s.9-.4,1.4-.4,1,.1,1.4.3c.4.2.7.5.9.9.2.4.3.9.3,1.4v.4h-4.5c0,.6.2,1.1.6,1.5.3.4.8.5,1.4.5s.7,0,1-.3.5-.4.6-.8h.9c0,.6-.4,1-.9,1.3s-1,.5-1.6.5h0ZM98.9,261.8h3.6c0-.5-.2-.9-.5-1.2-.3-.3-.7-.4-1.2-.4s-.9.1-1.2.4c-.3.3-.5.7-.6,1.2h-.1Z"/>
        <path class="st1" d="M109.9,265.2c-.6,0-1.1-.1-1.5-.4-.4-.2-.7-.6-.9-1s-.3-.9-.3-1.5,0-1.1.3-1.5.5-.8.9-1,.9-.4,1.5-.4,1.2.2,1.7.5.7.8.9,1.4h-.9c0-.4-.3-.7-.6-.9s-.6-.3-1.1-.3-1.1.2-1.4.6-.5.9-.5,1.6.2,1.2.5,1.6.8.6,1.4.6c.9,0,1.5-.4,1.7-1.2h.9c-.2.6-.4,1.1-.9,1.5-.4.3-1,.5-1.7.5h0Z"/>
        <path class="st1" d="M117.4,265.1c-.3,0-.5,0-.6-.2s-.2-.3-.2-.6v-4.1h-1.1v-.7h1.1v-1.7h.8v1.7h1.5v.7h-1.5v4.2h1.7v.7h-1.7Z"/>
        <path class="st1" d="M123.4,258.7c-.1,0-.3,0-.4-.2s-.2-.2-.2-.4,0-.3.2-.4c.2-.1.2-.2.4-.2s.3,0,.4.2.2.2.2.4,0,.3-.2.4-.2.2-.4.2ZM123,265.1v-5.5h.9v5.5s-.9,0-.9,0Z"/>
        <path class="st1" d="M130.8,265.2c-.6,0-1.1-.1-1.5-.4-.4-.2-.7-.6-1-1s-.4-.9-.4-1.5.1-1.1.3-1.5.6-.8,1-1,.9-.4,1.5-.4,1.1.1,1.5.4.7.6,1,1,.3.9.3,1.5-.1,1.1-.3,1.5-.6.8-1,1-.9.4-1.5.4h0ZM130.8,264.5c.6,0,1.1-.2,1.4-.6s.5-.9.5-1.6-.2-1.2-.5-1.6-.8-.5-1.4-.5-1.1.2-1.4.6-.5.9-.5,1.6.2,1.2.5,1.6.8.6,1.4.6h0Z"/>
        <path class="st1" d="M137.8,265.1v-4.6h-.5v-.9h1v.8h.4c.2-.3.4-.5.8-.7.3-.2.7-.2,1.1-.2.7,0,1.2.2,1.7.6.4.4.6,1,.6,1.6v3.4h-.9v-3.3c0-.5-.1-.9-.4-1.2s-.7-.4-1.2-.4-1,.1-1.2.4-.4.7-.4,1.2v3.3h-1Z"/>
      </g>
      <g class="st3">
        <path class="st1" d="M35.1,276.3c-.2,0-.3,0-.5-.2s-.2-.3-.2-.5,0-.3.2-.5c0-.1.3-.2.5-.2s.3,0,.5.2.2.3.2.5,0,.3-.2.5c0,.1-.3.2-.5.2Z"/>
        <path class="st1" d="M41.7,278.4l-2.2-7.5h.9l1.8,6.4h0l1.8-6.4h.9l2,6.4h0l1.8-6.4h.9l-2.2,7.5h-1l-2-6.5h0l-1.8,6.5h-1,0Z"/>
        <path class="st1" d="M52.4,278.5c-.6,0-1.1-.1-1.5-.4-.4-.2-.7-.6-1-1s-.3-1-.3-1.5,0-1.1.3-1.5.5-.8,1-1c.4-.2.9-.4,1.5-.4s1,.1,1.4.3c.4.2.7.5.9.9s.3.9.3,1.4v.4h-4.5c0,.6.2,1.1.6,1.5s.8.5,1.4.5.7,0,1-.3.5-.4.6-.8h.9c0,.6-.4,1-.9,1.3s-1,.5-1.6.5h-.1ZM50.5,275h3.6c0-.5-.2-.9-.5-1.2-.3-.3-.7-.4-1.2-.4s-.9.1-1.2.4-.5.7-.6,1.2h0Z"/>
        <path class="st1" d="M59.2,278.5c-.4,0-.8,0-1.1-.2s-.6-.4-.8-.7h-.4v.8h-1v-.9h.5v-6.8h.9v3.1h0c.2-.3.4-.6.8-.8.3-.2.7-.3,1.2-.3s1,.1,1.3.4.7.6.9,1c.2.4.3.9.3,1.5s0,1.1-.3,1.5-.5.8-.9,1-.8.4-1.4.4ZM59.1,277.8c.6,0,1-.2,1.4-.6s.5-.9.5-1.6-.2-1.2-.5-1.6-.8-.6-1.4-.6-1,.1-1.3.5c-.3.3-.5.7-.5,1.2v.9c0,.5.2.9.5,1.2s.8.5,1.3.5h0Z"/>
        <path class="st1" d="M86.4,291.6v-7.5h2.6c.8,0,1.5.1,2.1.5s1,.7,1.4,1.3.5,1.2.5,2-.2,1.4-.5,2-.8,1-1.4,1.3-1.3.5-2.1.5h-2.6ZM87.3,290.8h1.7c.9,0,1.7-.3,2.2-.8s.8-1.2.8-2.2-.3-1.7-.8-2.2-1.3-.8-2.2-.8h-1.7v6h0Z"/>
        <path class="st1" d="M99.5,291.8c-.6,0-1.1-.1-1.5-.4-.4-.2-.7-.6-1-1s-.3-1-.3-1.5,0-1.1.3-1.5c.2-.4.6-.8,1-1s.9-.4,1.4-.4,1,.1,1.4.3c.4.2.7.5.9.9s.3.9.3,1.4v.4h-4.5c0,.6.2,1.1.6,1.5s.8.5,1.4.5.7,0,1-.3.5-.4.6-.8h.9c0,.6-.4,1-.9,1.3s-1,.5-1.6.5h0ZM97.6,288.3h3.6c0-.5-.2-.9-.5-1.2-.3-.3-.7-.4-1.2-.4s-.9.1-1.2.4c-.3.3-.5.7-.6,1.2h-.1Z"/>
        <path class="st1" d="M108.1,291.8c-.8,0-1.3-.1-1.8-.5-.4-.3-.7-.8-.7-1.3h.9c0,.4.2.6.5.8.3.2.7.3,1.2.3.9,0,1.4-.3,1.4-.9s0-.4-.2-.6-.4-.2-.7-.3l-1.2-.2c-1-.2-1.5-.7-1.5-1.4s.2-.9.6-1.2c.4-.3.9-.4,1.5-.4s1.2.1,1.6.4.6.7.7,1.2h-.8c0-.3-.2-.6-.5-.7-.2-.2-.6-.2-1-.2s-.7,0-.9.2c-.2.1-.3.4-.3.6s0,.4.2.5.4.2.7.3l1.2.2c.5.1.9.3,1.2.5s.4.6.4,1-.2,1-.6,1.2c-.4.3-.9.4-1.7.4h-.2Z"/>
        <path class="st1" d="M114.8,285.3c-.2,0-.3,0-.4-.2,0-.1-.2-.2-.2-.4s0-.3.2-.4c0-.1.2-.2.4-.2s.3,0,.4.2c0,.1.2.2.2.4s0,.3-.2.4c0,.1-.2.2-.4.2ZM114.3,291.7v-5.5h.9v5.5h-.9Z"/>
        <path class="st1" d="M121.9,294c-.7,0-1.3-.2-1.8-.5s-.7-.8-.8-1.3h.9c.2.7.8,1,1.7,1s1.1-.1,1.4-.4.5-.7.5-1.2v-.9h0c0,.3-.4.6-.7.8s-.7.3-1.2.3-1-.1-1.4-.4-.7-.6-.9-1c-.2-.4-.3-.9-.3-1.5,0-.9.2-1.5.7-2.1s1.1-.8,1.9-.8.8,0,1.1.2c.3.2.6.4.8.7h.4v-.8h1v.9h-.5v4.6c0,.7-.2,1.3-.7,1.7-.5.4-1.2.6-2,.6h0ZM122.1,290.9c.5,0,.9-.1,1.2-.5.3-.3.5-.7.5-1.2v-.9c0-.5-.2-.9-.5-1.2s-.7-.5-1.2-.5-1.1.2-1.4.5c-.3.4-.5.9-.5,1.5s.2,1.2.5,1.5c.3.4.8.5,1.4.5h0v.3Z"/>
        <path class="st1" d="M129.4,291.7v-4.6h-.5v-.9h1v.8h.4c.2-.3.4-.5.8-.7s.7-.2,1.2-.2,1.2.2,1.7.6c.4.4.6,1,.6,1.6v3.4h-.9v-3.3c0-.5,0-.9-.4-1.2s-.7-.4-1.2-.4-1,.1-1.2.4c-.3.3-.4.7-.4,1.2v3.3h-1.1Z"/>
      </g>
      <path class="st1" d="M35.1,289.6c-.2,0-.3,0-.5-.2s-.2-.3-.2-.5,0-.3.2-.5c0-.1.3-.2.5-.2s.3,0,.5.2.2.3.2.5,0,.3-.2.5c0,.1-.3.2-.5.2Z"/>
      <path class="st1" d="M43,291.8c-.7,0-1.2-.1-1.7-.3s-.8-.5-1-.9-.4-.9-.4-1.5v-4.8h.9v4.8c0,.7.2,1.1.5,1.5s.9.5,1.7.5,1.3-.2,1.7-.5.6-.8.6-1.5v-4.8h.9v4.9c0,.9-.3,1.5-.8,2s-1.3.7-2.3.7h-.1Z"/>
      <path class="st1" d="M50,291.7l2.8-3.9-2.6-3.6h1l2.2,3h0l2.2-3h.9l-2.6,3.6,2.8,3.9h-1l-2.3-3.3h0l-2.4,3.3h-1Z"/>
      <path class="st1" d="M59.8,291.8l2.8-7.7h.8l-2.8,7.7h-.8Z"/>
      <path class="st1" d="M70.3,291.8c-.7,0-1.2-.1-1.7-.3s-.8-.5-1.1-.9c-.2-.4-.4-.9-.4-1.5v-4.8h.9v4.8c0,.7.2,1.1.6,1.5s.9.5,1.7.5,1.3-.2,1.7-.5.6-.8.6-1.5v-4.8h.9v4.9c0,.9-.3,1.5-.8,2s-1.3.7-2.3.7h0Z"/>
      <path class="st1" d="M78,291.7v-7.5h.9v7.5h-.9Z"/>
      <path class="st1" d="M68.7,279v-7.5h2.6c.8,0,1.5.1,2.1.5s1,.7,1.4,1.3.5,1.2.5,2-.2,1.4-.5,2-.8,1-1.4,1.3-1.3.5-2.1.5h-2.6ZM69.6,278.1h1.7c.9,0,1.7-.3,2.2-.8s.8-1.2.8-2.2-.3-1.7-.8-2.2-1.3-.8-2.2-.8h-1.7v6h0Z"/>
      <path class="st1" d="M81.8,279c-.6,0-1.1-.1-1.5-.4s-.7-.6-1-1-.3-1-.3-1.5,0-1.1.3-1.5c.2-.4.6-.8,1-1s.9-.4,1.4-.4,1,.1,1.4.3c.4.2.7.5.9.9.2.4.3.9.3,1.4v.4h-4.5c0,.6.2,1.1.6,1.5.3.4.8.5,1.4.5s.7,0,1-.3.5-.4.6-.8h.9c0,.6-.4,1-.9,1.3s-1,.5-1.6.5h0ZM79.9,275.5h3.6c0-.5-.2-.9-.5-1.2s-.7-.4-1.2-.4-.9.1-1.2.4-.5.7-.6,1.2h-.1Z"/>
      <path class="st1" d="M90.4,279c-.8,0-1.3-.1-1.8-.5-.4-.3-.7-.8-.7-1.3h.9c0,.4.2.6.5.8.3.2.7.3,1.2.3.9,0,1.4-.3,1.4-.9s0-.4-.2-.6-.4-.2-.7-.3l-1.2-.2c-1-.2-1.5-.7-1.5-1.4s.2-.9.6-1.2c.4-.3.9-.4,1.5-.4s1.2.1,1.6.4.6.7.7,1.2h-.8c0-.3-.2-.6-.5-.7-.2-.2-.6-.2-1-.2s-.7,0-.9.2c-.2.1-.3.4-.3.6s0,.4.2.5c0,.1.4.2.7.3l1.2.2c.5.1.9.3,1.2.5s.4.6.4,1-.2,1-.6,1.2c-.4.3-.9.4-1.7.4h-.2Z"/>
      <path class="st1" d="M97.1,272.5c-.2,0-.3,0-.4-.2,0-.1-.2-.2-.2-.4s0-.3.2-.4c0-.1.2-.2.4-.2s.3,0,.4.2c0,.1.2.2.2.4s0,.3-.2.4c0,.1-.2.2-.4.2ZM96.6,279v-5.5h.9v5.5h-.9Z"/>
      <path class="st1" d="M104.2,281.2c-.7,0-1.3-.2-1.8-.5s-.7-.8-.8-1.3h.9c.2.7.8,1,1.7,1s1.1-.1,1.4-.4c.3-.3.5-.7.5-1.2v-.9h0c-.1.3-.4.6-.7.8s-.7.3-1.2.3-1-.1-1.4-.4-.7-.6-.9-1c-.2-.4-.3-.9-.3-1.5,0-.9.2-1.5.7-2.1s1.1-.8,1.9-.8.8,0,1.1.2c.3.2.6.4.8.7h.4v-.8h1v.9h-.5v4.6c0,.7-.2,1.3-.7,1.7-.5.4-1.2.6-2,.6h0ZM104.4,278.1c.5,0,.9-.1,1.2-.5.3-.3.5-.7.5-1.2v-.9c0-.5-.2-.9-.5-1.2-.3-.3-.7-.5-1.2-.5s-1.1.2-1.4.5c-.3.4-.5.9-.5,1.5s.2,1.2.5,1.5c.3.4.8.5,1.4.5h0v.3Z"/>
      <path class="st1" d="M111.7,279v-4.6h-.5v-.9h1v.8h.4c.2-.3.4-.5.8-.7.3-.2.7-.2,1.1-.2.7,0,1.2.2,1.7.6.4.4.6,1,.6,1.6v3.4h-.9v-3.3c0-.5-.1-.9-.4-1.2s-.7-.4-1.2-.4-1,.1-1.2.4-.4.7-.4,1.2v3.3h-1Z"/>
      <path class="st1" d="M35.1,302.9c-.2,0-.3,0-.5-.2s-.2-.3-.2-.5,0-.3.2-.5c0-.1.3-.2.5-.2s.3,0,.5.2.2.3.2.5,0,.3-.2.5c0,.1-.3.2-.5.2Z"/>
      <path class="st1" d="M41.7,305l-2.2-7.5h.9l1.8,6.4h0l1.8-6.4h.9l2,6.4h0l1.8-6.4h.9l-2.2,7.5h-1l-2-6.5h0l-1.8,6.5h-1,0Z"/>
      <path class="st1" d="M56,305.1c-.6,0-1.1-.1-1.5-.4-.4-.2-.7-.6-1-1s-.3-.9-.3-1.5,0-1.1.3-1.5.5-.8,1-1c.4-.2.9-.4,1.5-.4s1.1.1,1.5.4c.4.2.7.6,1,1s.3.9.3,1.5,0,1.1-.3,1.5-.5.8-1,1c-.4.2-.9.4-1.5.4h0ZM56,304.3c.6,0,1.1-.2,1.4-.6s.5-.9.5-1.6-.2-1.2-.5-1.6-.8-.5-1.4-.5-1.1.2-1.4.6c-.3.4-.5.9-.5,1.6s.2,1.2.5,1.6.8.6,1.4.6h0Z"/>
      <path class="st1" d="M63.2,305v-4.6h-.5v-.9h1v1h.4c.2-.3.4-.6.7-.8s.7-.3,1.2-.3h.4v.7h-.5c-.6,0-1,.2-1.4.5-.3.3-.5.8-.5,1.4v2.9h-.9.1Z"/>
      <path class="st1" d="M72.4,305.1c-.5,0-1-.1-1.4-.4s-.7-.6-.9-1c-.2-.4-.3-.9-.3-1.5s0-1.1.3-1.5c.2-.4.5-.8.9-1s.8-.4,1.3-.4.8,0,1.2.3.6.4.8.8h0v-3.1h.9v6.8h.5v.9h-1v-.8h-.4c-.2.3-.4.5-.8.7-.3.2-.7.2-1.1.2h0ZM72.6,304.3c.5,0,1-.1,1.3-.5.3-.3.5-.7.5-1.2v-.9c0-.5-.2-.9-.5-1.2-.3-.3-.8-.5-1.3-.5s-1,.2-1.4.6-.5.9-.5,1.6.2,1.2.5,1.6.8.6,1.4.6h0Z"/>
      <path class="st1" d="M79.9,305v-7.5h3.3c.8,0,1.5.2,1.9.6s.7,1,.7,1.7-.2,1.2-.7,1.7-1.1.6-1.9.6h-2.4v2.9h-.9ZM80.8,301.3h2.3c.6,0,1-.1,1.3-.4s.4-.6.4-1.1-.2-.9-.4-1.1-.7-.4-1.3-.4h-2.3v3.1h0Z"/>
      <path class="st1" d="M89.9,305v-4.6h-.5v-.9h1v1h.4c.2-.3.4-.6.7-.8s.7-.3,1.2-.3h.4v.7h-.5c-.6,0-1,.2-1.4.5-.3.3-.5.8-.5,1.4v2.9h-.9.1Z"/>
      <path class="st1" d="M99.4,305.1c-.6,0-1.1-.1-1.5-.4-.4-.2-.7-.6-1-1s-.3-1-.3-1.5,0-1.1.3-1.5c.2-.4.6-.8,1-1s.9-.4,1.4-.4,1,.1,1.4.3c.4.2.7.5.9.9.2.4.3.9.3,1.4v.4h-4.5c0,.6.2,1.1.6,1.5.3.4.8.5,1.4.5s.7,0,1-.3.5-.4.6-.8h.9c0,.6-.4,1-.9,1.3s-1,.5-1.6.5h0ZM97.5,301.6h3.6c0-.5-.2-.9-.5-1.2-.3-.3-.7-.4-1.2-.4s-.9.1-1.2.4c-.3.3-.5.7-.6,1.2h-.1Z"/>
      <path class="st1" d="M108,305.1c-.8,0-1.3-.1-1.8-.5s-.7-.8-.7-1.3h.9c0,.4.2.6.5.8.3.2.7.3,1.2.3.9,0,1.4-.3,1.4-.9s0-.4-.2-.6-.4-.2-.7-.3l-1.2-.2c-1-.2-1.5-.7-1.5-1.4s.2-.9.6-1.2c.4-.3.9-.4,1.5-.4s1.2.1,1.6.4.6.7.7,1.2h-.8c0-.3-.2-.6-.5-.7s-.6-.2-1-.2-.7,0-.9.2c-.2.1-.3.4-.3.6s0,.4.2.5.4.2.7.3l1.2.2c.5.1.9.3,1.2.5s.4.6.4,1-.2,1-.6,1.2c-.4.3-.9.4-1.7.4h-.2Z"/>
      <path class="st1" d="M116.2,305.1c-.8,0-1.3-.1-1.8-.5-.4-.3-.7-.8-.7-1.3h.9c0,.4.2.6.5.8.3.2.7.3,1.2.3.9,0,1.4-.3,1.4-.9s0-.4-.2-.6-.4-.2-.7-.3l-1.2-.2c-1-.2-1.5-.7-1.5-1.4s.2-.9.6-1.2c.4-.3.9-.4,1.5-.4s1.2.1,1.6.4.6.7.7,1.2h-.8c0-.3-.2-.6-.5-.7-.2-.2-.6-.2-1-.2s-.7,0-.9.2c-.2.1-.3.4-.3.6s0,.4.2.5c0,.1.4.2.7.3l1.2.2c.5.1.9.3,1.2.5s.4.6.4,1-.2,1-.6,1.2c-.4.3-.9.4-1.7.4h-.2Z"/>
      <path class="st1" d="M35.1,316.1c-.2,0-.3,0-.5-.2s-.2-.3-.2-.5,0-.3.2-.5c0-.1.3-.2.5-.2s.3,0,.5.2.2.3.2.5,0,.3-.2.5c0,.1-.3.2-.5.2Z"/>
      <path class="st1" d="M41,318.2h-.9v-7.5h5v.8h-4.2v2.6h3.9v.8h-3.9v3.4h.1Z"/>
      <path class="st1" d="M49.2,318.2v-4.6h-.5v-.9h1v1h.4c.2-.3.4-.6.7-.8s.7-.3,1.2-.3h.5v.7h-.5c-.6,0-1,.2-1.4.5-.3.3-.5.8-.5,1.4v2.9h-.9Z"/>
      <path class="st1" d="M58.6,318.3c-.6,0-1.1-.1-1.5-.4-.4-.2-.7-.6-1-1s-.3-.9-.3-1.5,0-1.1.3-1.5.5-.8,1-1c.4-.2.9-.4,1.5-.4s1.1.1,1.5.4.7.6,1,1,.3.9.3,1.5,0,1.1-.3,1.5c-.2.4-.6.8-1,1s-.9.4-1.5.4h0ZM58.6,317.6c.6,0,1.1-.2,1.4-.6s.5-.9.5-1.6-.2-1.2-.5-1.6-.8-.5-1.4-.5-1.1.2-1.4.6c-.3.4-.5.9-.5,1.6s.2,1.2.5,1.6.8.6,1.4.6h0Z"/>
      <path class="st1" d="M65.6,318.2v-4.6h-.5v-.9h1v.8h.4c.2-.3.4-.5.8-.7s.7-.2,1.2-.2,1.2.2,1.7.6c.4.4.6,1,.6,1.6v3.4h-.9v-3.3c0-.5,0-.9-.4-1.2s-.7-.4-1.2-.4-1,.1-1.2.4c-.3.3-.4.7-.4,1.2v3.3h-1.1Z"/>
      <path class="st1" d="M76.3,318.2c-.3,0-.5,0-.6-.2s-.2-.3-.2-.6v-4.1h-1.1v-.7h1.1v-1.7h.8v1.7h1.5v.7h-1.5v4.2h1.7v.7h-1.7Z"/>
      <path class="st1" d="M84.2,318.3c-.6,0-1.1-.1-1.5-.4-.4-.2-.7-.6-1-1s-.3-1-.3-1.5,0-1.1.3-1.5c.2-.4.6-.8,1-1s.9-.4,1.4-.4,1,.1,1.4.3c.4.2.7.5.9.9s.3.9.3,1.4v.4h-4.5c0,.6.2,1.1.6,1.5s.8.5,1.4.5.7,0,1-.3.5-.4.6-.8h.9c0,.6-.4,1-.9,1.3s-1,.5-1.6.5h0ZM82.3,314.9h3.6c0-.5-.2-.9-.5-1.2-.3-.3-.7-.4-1.2-.4s-.9.1-1.2.4c-.3.3-.5.7-.6,1.2h-.1Z"/>
      <path class="st1" d="M91,318.2v-4.6h-.5v-.9h1v.8h.4c.2-.3.4-.5.8-.7s.7-.2,1.2-.2,1.2.2,1.7.6c.4.4.6,1,.6,1.6v3.4h-.9v-3.3c0-.5,0-.9-.4-1.2s-.7-.4-1.2-.4-1,.1-1.2.4-.4.7-.4,1.2v3.3h-1.1Z"/>
      <path class="st1" d="M102.7,318.3c-.5,0-1-.1-1.4-.4s-.7-.6-.9-1c-.2-.4-.3-.9-.3-1.5s0-1.1.3-1.5c.2-.4.5-.8.9-1s.8-.4,1.3-.4.8,0,1.2.3.6.4.8.8h0v-3.1h.9v6.8h.5v.9h-1v-.8h-.4c-.2.3-.4.5-.8.7-.3.2-.7.2-1.1.2h0ZM102.8,317.6c.5,0,1-.1,1.3-.5s.5-.7.5-1.2v-.9c0-.5-.2-.9-.5-1.2-.3-.3-.8-.5-1.3-.5s-1,.2-1.4.6-.5.9-.5,1.6.2,1.2.5,1.6.8.6,1.4.6h0Z"/>
      <path class="st1" d="M112.9,318.2v-7.5h2.6c.8,0,1.5.1,2.1.5s1,.7,1.4,1.3.5,1.2.5,2-.2,1.4-.5,2-.8,1-1.4,1.3-1.3.5-2.1.5h-2.6ZM113.8,317.5h1.7c.9,0,1.7-.3,2.2-.8s.8-1.2.8-2.2-.3-1.7-.8-2.2-1.3-.8-2.2-.8h-1.7v6h0Z"/>
      <path class="st1" d="M126,318.3c-.6,0-1.1-.1-1.5-.4-.4-.2-.7-.6-1-1s-.3-1-.3-1.5.1-1.1.3-1.5.6-.8,1-1,.9-.4,1.4-.4,1,.1,1.4.3c.4.2.7.5.9.9s.3.9.3,1.4v.4h-4.5c0,.6.2,1.1.6,1.5.4.4.8.5,1.4.5s.7,0,1-.3.5-.4.6-.8h.9c-.1.6-.4,1-.9,1.3s-1,.5-1.6.5h0ZM124.1,314.9h3.6c0-.5-.2-.9-.5-1.2s-.7-.4-1.2-.4-.9.1-1.2.4-.5.7-.6,1.2h-.1Z"/>
      <path class="st1" d="M134.2,318.2l-2.4-5.5h.9l2,4.7h0l1.9-4.7h.9l-2.4,5.5h-1,.1Z"/>
      <path class="st1" d="M143.7,318.3c-.6,0-1.1-.1-1.5-.4-.4-.2-.7-.6-1-1s-.3-1-.3-1.5.1-1.1.3-1.5.6-.8,1-1,.9-.4,1.4-.4,1,.1,1.4.3c.4.2.7.5.9.9s.3.9.3,1.4v.4h-4.5c0,.6.2,1.1.6,1.5.4.4.8.5,1.4.5s.7,0,1-.3.5-.4.6-.8h.9c-.1.6-.4,1-.9,1.3s-1,.5-1.6.5h0ZM141.8,314.9h3.6c0-.5-.2-.9-.5-1.2s-.7-.4-1.2-.4-.9.1-1.2.4-.5.7-.6,1.2h-.1Z"/>
      <path class="st1" d="M150.3,318.2v-7.8h.9v7.8h-.9Z"/>
      <path class="st1" d="M158.1,318.3c-.6,0-1.1-.1-1.5-.4-.4-.2-.7-.6-1-1s-.4-.9-.4-1.5.1-1.1.3-1.5.6-.8,1-1,.9-.4,1.5-.4,1.1.1,1.5.4.7.6,1,1,.3.9.3,1.5-.1,1.1-.3,1.5-.6.8-1,1-.9.4-1.5.4h0ZM158.1,317.6c.6,0,1.1-.2,1.4-.6s.5-.9.5-1.6-.2-1.2-.5-1.6-.8-.5-1.4-.5-1.1.2-1.4.6-.5.9-.5,1.6.2,1.2.5,1.6.8.6,1.4.6h0Z"/>
      <path class="st1" d="M165.1,320.5v-6.8h-.5v-.9h1v.8h.4c.2-.3.4-.5.8-.7.3-.2.7-.2,1.1-.2s1,.1,1.4.4.7.6.9,1,.3.9.3,1.5-.1,1.1-.3,1.5-.5.8-.9,1-.8.4-1.4.4-.8,0-1.2-.3-.6-.4-.8-.8h0v3.1h-.9,0ZM167.7,317.6c.6,0,1-.2,1.4-.6s.5-.9.5-1.6-.2-1.2-.5-1.6-.8-.6-1.4-.6-1,.1-1.3.5c-.3.3-.5.7-.5,1.2v.9c0,.5.2.9.5,1.2s.8.5,1.3.5h0Z"/>
      <path class="st1" d="M174.7,318.2v-4.6h-.5v-.9h1v.8h.5c.1-.3.4-.5.7-.7s.7-.2,1.1-.2.8,0,1.1.3.5.5.7.8h0c.4-.7,1-1.1,1.9-1.1s1.2.2,1.6.6c.4.4.6.9.6,1.6v3.5h-.9v-3.4c0-1-.5-1.5-1.5-1.5s-1.5.5-1.5,1.5v3.4h-.9v-3.4c0-1-.5-1.5-1.5-1.5s-.9.1-1.1.4-.4.6-.4,1.1v3.4h-.9Z"/>
      <path class="st1" d="M190.1,318.3c-.6,0-1.1-.1-1.5-.4-.4-.2-.7-.6-1-1s-.3-1-.3-1.5.1-1.1.3-1.5.6-.8,1-1,.9-.4,1.4-.4,1,.1,1.4.3c.4.2.7.5.9.9s.3.9.3,1.4v.4h-4.5c0,.6.2,1.1.6,1.5.4.4.8.5,1.4.5s.7,0,1-.3.5-.4.6-.8h.9c-.1.6-.4,1-.9,1.3s-1,.5-1.6.5h0ZM188.1,314.9h3.6c0-.5-.2-.9-.5-1.2s-.7-.4-1.2-.4-.9.1-1.2.4-.5.7-.6,1.2h-.1Z"/>
      <path class="st1" d="M196.8,318.2v-4.6h-.5v-.9h1v.8h.4c.2-.3.4-.5.8-.7.3-.2.7-.2,1.1-.2.7,0,1.2.2,1.7.6.4.4.6,1,.6,1.6v3.4h-.9v-3.3c0-.5-.1-.9-.4-1.2s-.7-.4-1.2-.4-1,.1-1.2.4-.4.7-.4,1.2v3.3h-1Z"/>
      <path class="st1" d="M207.5,318.2c-.3,0-.5,0-.6-.2-.1-.1-.2-.3-.2-.6v-4.1h-1.1v-.7h1.1v-1.7h.9v1.7h1.5v.7h-1.5v4.2h1.6v.7h-1.7Z"/>
      <g class="st3">
        <path class="st1" d="M35.1,329.4c-.2,0-.3,0-.5-.2s-.2-.3-.2-.5,0-.3.2-.5c0-.1.3-.2.5-.2s.3,0,.5.2.2.3.2.5,0,.3-.2.5c0,.1-.3.2-.5.2Z"/>
        <path class="st1" d="M42.7,331.6c-.9,0-1.7-.2-2.2-.6s-.9-1-.9-1.7h1c0,.5.2.9.6,1.1.4.3.9.4,1.7.4s1.1-.1,1.4-.3c.3-.2.5-.6.5-1s0-.6-.3-.9c-.2-.2-.6-.4-1-.5l-1.4-.3c-.6-.1-1.1-.4-1.5-.7s-.5-.7-.5-1.2.2-1.1.7-1.5,1.1-.6,1.9-.6,1.5.2,2,.6.8.9.9,1.6h-1c-.2-1-.9-1.4-2-1.4s-1,.1-1.3.3c-.3.2-.5.5-.5.9,0,.6.5,1,1.4,1.2l1.5.3c.6.1,1.1.4,1.4.7.3.3.5.8.5,1.3s-.2,1.2-.8,1.6c-.5.4-1.2.6-2.1.6h0Z"/>
        <path class="st1" d="M55,331.5h-5.1v-7.5h5.1v.8h-4.2v2.5h4v.7h-4v2.8h4.2v.8h0Z"/>
        <path class="st1" d="M62.4,331.6c-.8,0-1.4-.2-2-.5s-1-.8-1.3-1.3c-.3-.6-.5-1.2-.5-2s.2-1.5.5-2c.3-.5.7-1,1.3-1.3.6-.3,1.2-.5,2-.5s1.4.2,2,.5,1,.8,1.3,1.3.5,1.2.5,2-.2,1.5-.5,2-.7,1-1.3,1.3c-.6.3-1.2.5-2,.5ZM62.4,330.9c.9,0,1.6-.3,2.1-.8s.8-1.3.8-2.2-.2-1.7-.8-2.3c-.5-.5-1.2-.8-2.1-.8s-1.6.3-2.1.8-.8,1.3-.8,2.3.2,1.7.8,2.2c.5.5,1.2.8,2.1.8h0Z"/>
      </g>
      <g class="st3">
        <path class="st1" d="M35.1,342.7c-.2,0-.3,0-.5-.2s-.2-.3-.2-.5,0-.3.2-.5c0-.1.3-.2.5-.2s.3,0,.5.2.2.3.2.5,0,.3-.2.5c0,.1-.3.2-.5.2Z"/>
        <path class="st1" d="M41.7,344.8l-2.2-7.5h.9l1.8,6.4h0l1.8-6.4h.9l2,6.4h0l1.8-6.4h.9l-2.2,7.5h-1l-2-6.5h0l-1.8,6.5h-1,0Z"/>
        <path class="st1" d="M56,344.9c-.6,0-1.1-.1-1.5-.4-.4-.2-.7-.6-1-1s-.3-1-.3-1.5,0-1.1.3-1.5.5-.8,1-1c.4-.2.9-.4,1.5-.4s1,.1,1.4.3c.4.2.7.5.9.9s.3.9.3,1.4v.4h-4.5c0,.6.2,1.1.6,1.5s.8.5,1.4.5.7,0,1-.3.5-.4.6-.8h.9c0,.6-.4,1-.9,1.3s-1,.5-1.6.5h-.1ZM54.1,341.5h3.6c0-.5-.2-.9-.5-1.2-.3-.3-.7-.4-1.2-.4s-.9.1-1.2.4-.5.7-.6,1.2h0Z"/>
        <path class="st1" d="M65.6,344.9c-.4,0-.8,0-1.1-.2s-.6-.4-.8-.7h-.4v.8h-1v-.9h.5v-6.8h.9v3.1h0c.2-.3.4-.6.8-.8.3-.2.7-.3,1.2-.3s1,.1,1.3.4.7.6.9,1c.2.4.3.9.3,1.5s0,1.1-.3,1.5-.5.8-.9,1-.8.4-1.4.4h0ZM65.4,344.2c.6,0,1-.2,1.4-.6s.5-.9.5-1.6-.2-1.2-.5-1.6-.8-.6-1.4-.6-1,.1-1.3.5c-.3.3-.5.7-.5,1.2v.9c0,.5.2.9.5,1.2.3.3.8.5,1.3.5h0Z"/>
        <path class="st1" d="M75.1,344.8v-7.5h1.3l2.7,6.3h0l2.7-6.3h1.3v7.5h-.9v-6.5h0l-2.8,6.5h-.7l-2.8-6.5h0v6.5s-.8,0-.8,0Z"/>
        <path class="st1" d="M89.4,344.9c-.6,0-1.1-.2-1.5-.5s-.5-.7-.5-1.2.2-.9.5-1.2.8-.4,1.5-.4h2v-.3c0-1-.5-1.4-1.5-1.4s-1.3.3-1.5.9h-.9c0-.5.3-.9.8-1.2s1-.4,1.6-.4,1.3.2,1.7.5c.4.4.6.9.6,1.5v2.6h.4v.9h-1v-.8h-.4c-.2.3-.4.5-.8.7-.3.2-.7.2-1.1.2h.1ZM89.5,344.2c.3,0,.7,0,1-.2s.5-.4.7-.6.3-.5.3-.8v-.3h-1.9c-.8,0-1.3.3-1.3,1s0,.5.3.7.6.3.9.3h0Z"/>
        <path class="st1" d="M97,344.8v-4.6h-.5v-.9h1v1h.4c.2-.3.4-.6.7-.8s.7-.3,1.2-.3h.4v.7h-.5c-.6,0-1,.2-1.4.5-.3.3-.5.8-.5,1.4v2.9h-.9.1Z"/>
        <path class="st1" d="M104,344.8v-7.8h.9v4.9h0l2.8-2.7h1.1l-2.6,2.3,2.8,3.2h-1.1l-2.3-2.7-.8.6v2h-.9v.2Z"/>
        <path class="st1" d="M115.2,344.9c-.6,0-1.1-.1-1.5-.4s-.7-.6-1-1-.3-1-.3-1.5,0-1.1.3-1.5c.2-.4.6-.8,1-1s.9-.4,1.4-.4,1,.1,1.4.3c.4.2.7.5.9.9.2.4.3.9.3,1.4v.4h-4.5c0,.6.2,1.1.6,1.5.3.4.8.5,1.4.5s.7,0,1-.3.5-.4.6-.8h.9c0,.6-.4,1-.9,1.3s-1,.5-1.6.5h0ZM113.3,341.5h3.6c0-.5-.2-.9-.5-1.2s-.7-.4-1.2-.4-.9.1-1.2.4-.5.7-.6,1.2h-.1Z"/>
        <path class="st1" d="M123.1,344.8c-.3,0-.5,0-.6-.2s-.2-.3-.2-.6v-4.1h-1.1v-.7h1.1v-1.7h.9v1.7h1.5v.7h-1.5v4.2h1.6v.7h-1.7Z"/>
        <path class="st1" d="M129.1,338.4c-.1,0-.3,0-.4-.2s-.2-.2-.2-.4,0-.3.2-.4.2-.2.4-.2.3,0,.4.2.2.2.2.4,0,.3-.2.4-.2.2-.4.2ZM128.6,344.8v-5.5h.9v5.5h-.9Z"/>
        <path class="st1" d="M134.1,344.8v-4.6h-.5v-.9h1v.8h.4c.2-.3.4-.5.8-.7.3-.2.7-.2,1.1-.2.7,0,1.2.2,1.7.6.4.4.6,1,.6,1.6v3.4h-.9v-3.3c0-.5-.1-.9-.4-1.2s-.7-.4-1.2-.4-1,.1-1.2.4-.4.7-.4,1.2v3.3h-1Z"/>
        <path class="st1" d="M145.8,347.1c-.7,0-1.4-.2-1.8-.5s-.7-.8-.8-1.3h.9c.2.7.8,1,1.7,1s1.1-.1,1.4-.4c.3-.3.5-.7.5-1.2v-.9h0c-.1.3-.4.6-.7.8s-.7.3-1.2.3-1-.1-1.4-.4-.7-.6-.9-1-.3-.9-.3-1.5c0-.9.2-1.5.7-2.1s1.1-.8,1.9-.8.8,0,1.1.2.6.4.8.7h.4v-.8h1v.9h-.5v4.6c0,.7-.2,1.3-.7,1.7s-1.2.6-2,.6h0ZM146,344c.5,0,.9-.1,1.2-.5.3-.3.5-.7.5-1.2v-.9c0-.5-.2-.9-.5-1.2-.3-.3-.7-.5-1.2-.5s-1.1.2-1.4.5-.5.9-.5,1.5.2,1.2.5,1.5.8.5,1.4.5h0v.3Z"/>
      </g>
      <g class="st3">
        <g class="st3">
          <text class="st2" transform="translate(22.9 38.5)"><tspan x="0" y="0" xml:space="preserve">    </tspan></text>
        </g>
      </g>
      <g class="st3">
        <path class="st1" d="M34.7,36.4c-.2,0-.3,0-.5-.2,0-.1-.2-.3-.2-.5s0-.3.2-.5c0-.1.3-.2.5-.2s.3,0,.5.2c0,.1.2.3.2.5s0,.3-.2.5c0,.1-.3.2-.5.2Z"/>
        <path class="st1" d="M39.6,38.5v-7.5h3.3c.8,0,1.5.2,1.9.6s.7,1,.7,1.7-.2,1.3-.7,1.7-1.1.6-1.9.6h-2.4v2.9h-.9,0ZM40.5,34.9h2.3c.6,0,1-.1,1.3-.4s.4-.6.4-1.1-.2-.9-.4-1.1c-.3-.3-.7-.4-1.3-.4h-2.3v3.1h0Z"/>
        <path class="st1" d="M49.3,38.5v-7.8h.9v3.1h0c.2-.3.4-.6.8-.8.3-.2.7-.3,1.2-.3s1.2.2,1.7.6c.4.4.6,1,.6,1.6v3.4h-.9v-3.3c0-.5,0-.9-.4-1.2s-.7-.4-1.2-.4-1,.1-1.2.4-.4.7-.4,1.2v3.3h-.9l-.2.2Z"/>
        <path class="st1" d="M61.2,38.6c-.6,0-1.1-.1-1.5-.4-.4-.2-.7-.6-1-1s-.3-.9-.3-1.5,0-1.1.3-1.5.5-.8,1-1,.9-.4,1.5-.4,1.1.1,1.5.4c.4.2.7.6,1,1s.3.9.3,1.5,0,1.1-.3,1.5c-.2.4-.6.8-1,1s-.9.4-1.5.4h0ZM61.2,37.9c.6,0,1.1-.2,1.4-.6s.5-.9.5-1.6-.2-1.2-.5-1.6-.8-.5-1.4-.5-1.1.2-1.4.6-.5.9-.5,1.6.2,1.2.5,1.6.8.6,1.4.6h0Z"/>
        <path class="st1" d="M69.3,38.5c-.3,0-.5,0-.6-.2s-.2-.3-.2-.6v-4.1h-1.1v-.7h1.1v-1.7h.8v1.7h1.5v.7h-1.5v4.2h1.7v.7h-1.7Z"/>
        <path class="st1" d="M77.2,38.6c-.6,0-1.1-.1-1.5-.4-.4-.2-.7-.6-1-1s-.3-.9-.3-1.5,0-1.1.3-1.5c.2-.4.6-.8,1-1s.9-.4,1.5-.4,1.1.1,1.5.4c.4.2.7.6,1,1s.3.9.3,1.5,0,1.1-.3,1.5c-.2.4-.6.8-1,1s-.9.4-1.5.4h0ZM77.2,37.9c.6,0,1.1-.2,1.4-.6s.5-.9.5-1.6-.2-1.2-.5-1.6-.8-.5-1.4-.5-1.1.2-1.4.6-.5.9-.5,1.6.2,1.2.5,1.6.8.6,1.4.6h0Z"/>
        <path class="st1" d="M86.4,40.9c-.7,0-1.3-.2-1.8-.5s-.7-.8-.8-1.3h.9c.2.7.8,1,1.7,1s1.1-.1,1.4-.4.5-.7.5-1.2v-.9h0c0,.3-.4.6-.7.8s-.7.3-1.2.3-1-.1-1.4-.4-.7-.6-.9-1c-.2-.4-.3-.9-.3-1.5,0-.9.2-1.5.7-2.1.5-.5,1.1-.8,1.9-.8s.8,0,1.1.2.6.4.8.7h.4v-.8h1v.9h-.5v4.6c0,.7-.2,1.3-.7,1.7s-1.2.6-2,.6h0ZM86.6,37.8c.5,0,.9-.1,1.2-.5.3-.3.5-.7.5-1.2v-.9c0-.5-.2-.9-.5-1.2-.3-.3-.7-.5-1.2-.5s-1.1.2-1.4.5c-.3.4-.5.9-.5,1.5s.2,1.2.5,1.5c.3.4.8.5,1.4.5h0v.3Z"/>
        <path class="st1" d="M94,38.5v-4.6h-.5v-.9h1v1h.4c.2-.3.4-.6.7-.8.3-.2.7-.3,1.2-.3h.4v.7h-.5c-.6,0-1,.2-1.4.5-.3.3-.5.8-.5,1.4v2.9h-.9.1Z"/>
        <path class="st1" d="M102.6,38.6c-.6,0-1.1-.2-1.5-.5s-.5-.7-.5-1.2.2-.9.5-1.2c.3-.3.8-.4,1.5-.4h2v-.3c0-1-.5-1.4-1.5-1.4s-1.3.3-1.5.9h-.9c0-.5.3-.9.8-1.2.4-.3,1-.4,1.6-.4s1.3.2,1.7.5c.4.4.6.9.6,1.5v2.6h.4v.9h-1v-.8h-.4c-.2.3-.4.5-.8.7-.3.2-.7.2-1.1.2h.1ZM102.7,37.9c.3,0,.7,0,1-.2s.5-.4.7-.6.3-.5.3-.8v-.3h-1.9c-.8,0-1.3.3-1.3,1s0,.5.3.7.6.3.9.3h0Z"/>
        <path class="st1" d="M110.1,40.7v-6.8h-.5v-.9h1v.8h.4c.2-.3.4-.5.8-.7.3-.2.7-.2,1.1-.2s1,.1,1.4.4.7.6.9,1,.3.9.3,1.5,0,1.1-.3,1.5c-.2.4-.5.8-.9,1s-.8.4-1.3.4-.8,0-1.2-.3-.6-.4-.8-.8h0v3.1s-.9,0-.9,0ZM112.7,37.9c.6,0,1-.2,1.4-.6.3-.4.5-.9.5-1.6s-.2-1.2-.5-1.6-.8-.6-1.4-.6-1,.1-1.3.5c-.3.3-.5.7-.5,1.2v.9c0,.5.2.9.5,1.2.3.3.8.5,1.3.5h0Z"/>
        <path class="st1" d="M119.5,38.5v-7.8h.9v3.1h0c.2-.3.4-.6.8-.8s.7-.3,1.2-.3,1.2.2,1.7.6c.4.4.6,1,.6,1.6v3.4h-.9v-3.3c0-.5-.1-.9-.4-1.2s-.7-.4-1.2-.4-1,.1-1.2.4-.4.7-.4,1.2v3.3h-.9l-.2.2Z"/>
        <path class="st1" d="M128.7,40.7v-.7h1.4l.6-1.5-2.5-5.6h.9l2,4.5h0l1.9-4.5h.8l-2.4,5.5-.6,1.4c-.1.2-.2.5-.3.6s-.3.2-.5.2h-1.4.1Z"/>
      </g>
      <g class="st3">
        <path class="st1" d="M35.1,49.7c-.2,0-.3,0-.5-.2,0-.1-.2-.3-.2-.5s0-.3.2-.5c0-.1.3-.2.5-.2s.3,0,.5.2c0,.1.2.3.2.5s0,.3-.2.5-.3.2-.5.2Z"/>
        <path class="st1" d="M40.1,51.8v-7.5h.9v7.5h-.9Z"/>
        <path class="st1" d="M45.6,51.8v-7.8h.9v7.8h-.9Z"/>
        <path class="st1" d="M50.9,51.8v-7.8h.9v7.8h-.9Z"/>
        <path class="st1" d="M58.4,51.9c-.7,0-1.2-.2-1.6-.6s-.6-.9-.6-1.6v-3.5h.9v3.3c0,.5,0,.9.4,1.2s.7.4,1.2.4,1,0,1.3-.4.5-.7.5-1.2v-3.3h.9v4.6h.5v.9h-1v-.8h-.4c-.2.3-.4.5-.8.7-.3.2-.7.2-1.2.2h-.1Z"/>
        <path class="st1" d="M67.9,51.9c-.8,0-1.3-.2-1.8-.5-.4-.3-.7-.8-.7-1.3h.9c0,.4.2.6.5.8s.7.3,1.2.3c.9,0,1.4-.3,1.4-.9s0-.4-.2-.6-.4-.2-.7-.3l-1.2-.2c-1-.2-1.5-.7-1.5-1.4s.2-.9.6-1.2c.4-.3.9-.4,1.5-.4s1.2.1,1.6.4.6.7.7,1.2h-.8c0-.3-.2-.6-.5-.7-.2-.2-.6-.2-1-.2s-.7,0-.9.2c-.2.1-.3.4-.3.6s0,.4.2.5.4.2.7.3l1.2.2c.5.1.9.3,1.2.5s.4.6.4,1-.2,1-.6,1.2c-.4.3-.9.4-1.7.4h-.2Z"/>
        <path class="st1" d="M75.3,51.8c-.3,0-.5,0-.6-.2s-.2-.3-.2-.6v-4.1h-1.1v-.7h1.1v-1.7h.8v1.7h1.5v.7h-1.5v4.2h1.7v.7h-1.7Z"/>
        <path class="st1" d="M81.1,51.8v-4.6h-.5v-.9h1v1h.4c.2-.3.4-.6.7-.8s.7-.3,1.2-.3h.4v.7h-.5c-.6,0-1,.2-1.4.5-.3.3-.5.8-.5,1.4v2.9h-.9.1Z"/>
        <path class="st1" d="M89.6,51.9c-.6,0-1.1-.2-1.5-.5s-.5-.7-.5-1.2.2-.9.5-1.2c.3-.3.8-.4,1.5-.4h2v-.3c0-1-.5-1.4-1.5-1.4s-1.3.3-1.5.9h-.9c0-.5.3-.9.8-1.2s1-.4,1.6-.4,1.3.2,1.7.5.6.9.6,1.5v2.6h.4v.9h-1v-.8h-.4c-.2.3-.5.5-.8.7s-.7.2-1.1.2h.1ZM89.8,51.2c.3,0,.7,0,1-.2s.5-.3.7-.6c.2-.2.3-.5.3-.8v-.3h-1.9c-.8,0-1.3.3-1.3,1s0,.5.3.7.6.3.9.3h0Z"/>
        <path class="st1" d="M98.2,51.8c-.3,0-.5,0-.6-.2-.2,0-.2-.3-.2-.6v-4.1h-1.1v-.7h1.1v-1.7h.8v1.7h1.5v.7h-1.5v4.2h1.7v.7h-1.7Z"/>
        <path class="st1" d="M104.2,45.5c-.2,0-.3,0-.4-.2s-.2-.2-.2-.4,0-.3.2-.4c0-.1.2-.2.4-.2s.3,0,.4.2.2.2.2.4,0,.3-.2.4c0,.1-.2.2-.4.2ZM103.8,51.8v-5.5h.9v5.5h-.9Z"/>
        <path class="st1" d="M111.6,51.9c-.6,0-1.1,0-1.5-.3s-.7-.6-1-1-.3-.9-.3-1.5,0-1.1.3-1.5c.2-.4.6-.8,1-1s.9-.4,1.5-.4,1.1.1,1.5.4.7.6,1,1c.2.4.3.9.3,1.5s0,1.1-.3,1.5c-.2.4-.6.8-1,1s-.9.3-1.5.3h0ZM111.6,51.2c.6,0,1.1-.2,1.4-.6.3-.4.5-.9.5-1.6s-.2-1.2-.5-1.6-.8-.5-1.4-.5-1.1.2-1.4.6-.5.9-.5,1.6.2,1.2.5,1.6c.3.4.8.6,1.4.6h0Z"/>
        <path class="st1" d="M118.6,51.8v-4.6h-.5v-.9h1v.8h.4c.2-.3.4-.5.8-.7s.7-.2,1.2-.2,1.2.2,1.7.6c.4.4.6,1,.6,1.6v3.4h-.9v-3.3c0-.5,0-.9-.4-1.2s-.7-.4-1.2-.4-1,.1-1.2.4-.4.7-.4,1.2v3.3h-1.1Z"/>
      </g>
      <g class="st3">
        <g class="st3">
          <text class="st2" transform="translate(22.9 65.1)"><tspan x="0" y="0" xml:space="preserve">    </tspan></text>
        </g>
      </g>
      <g class="st3">
        <path class="st1" d="M34.7,63c-.2,0-.3,0-.5-.2s-.2-.3-.2-.5,0-.3.2-.5.3-.2.5-.2.3,0,.5.2.2.3.2.5,0,.3-.2.5-.3.2-.5.2Z"/>
        <path class="st1" d="M39.6,65.1v-7.5h.9v7.5h-.9Z"/>
        <path class="st1" d="M45.1,65.1v-7.8h.9v7.8h-.9Z"/>
        <path class="st1" d="M50.5,65.1v-7.8h.9v7.8h-.9Z"/>
        <path class="st1" d="M58,65.2c-.7,0-1.2-.2-1.6-.6s-.6-.9-.6-1.6v-3.5h.9v3.3c0,.5,0,.9.4,1.2s.7.4,1.2.4,1,0,1.3-.4.5-.7.5-1.2v-3.3h.9v4.6h.5v.9h-1v-.8h-.4c-.2.3-.4.5-.8.7-.3.2-.7.2-1.2.2h-.1Z"/>
        <path class="st1" d="M67.4,65.2c-.8,0-1.3-.2-1.8-.5-.4-.3-.7-.8-.7-1.3h.9c0,.4.2.6.5.8s.7.3,1.2.3c.9,0,1.4-.3,1.4-.9s0-.4-.2-.6-.4-.2-.7-.3l-1.2-.2c-1-.2-1.5-.7-1.5-1.4s.2-.9.6-1.2.9-.4,1.5-.4,1.2.2,1.6.4c.4.3.6.7.7,1.2h-.8c0-.3-.2-.6-.5-.7-.2-.2-.6-.2-1-.2s-.7,0-.9.2c-.2.2-.3.4-.3.6s0,.4.2.5.4.2.7.3l1.2.2c.5,0,.9.3,1.2.5s.4.6.4,1-.2,1-.6,1.2c-.4.3-.9.4-1.7.4h-.2Z"/>
        <path class="st1" d="M74.8,65.1c-.3,0-.5,0-.6-.2s-.2-.3-.2-.6v-4.1h-1.1v-.7h1.1v-1.7h.8v1.7h1.5v.7h-1.5v4.2h1.7v.7s-1.7,0-1.7,0Z"/>
        <path class="st1" d="M80.6,65.1v-4.6h-.5v-.9h1v1h.4c.2-.3.4-.6.7-.8s.7-.3,1.2-.3h.4v.7h-.5c-.6,0-1,.2-1.4.5-.3.3-.5.8-.5,1.4v2.9h-.9.1Z"/>
        <path class="st1" d="M89.2,65.2c-.6,0-1.1-.2-1.5-.5s-.5-.7-.5-1.2.2-.9.5-1.2.8-.4,1.5-.4h2v-.3c0-1-.5-1.4-1.5-1.4s-1.3.3-1.5.9h-.9c0-.5.3-.9.8-1.2.4-.3,1-.4,1.6-.4s1.3.2,1.7.5.6.9.6,1.5v2.6h.4v.9h-1v-.8h-.4c-.2.3-.5.5-.8.7s-.7.2-1.1.2h.1ZM89.3,64.5c.3,0,.7,0,1-.2s.5-.3.7-.6c.2-.2.3-.5.3-.8v-.3h-1.9c-.8,0-1.3.3-1.3,1s0,.5.3.7.6.3.9.3h0Z"/>
        <path class="st1" d="M97.8,65.1c-.3,0-.5,0-.6-.2-.2,0-.2-.3-.2-.6v-4.1h-1.1v-.7h1.1v-1.7h.8v1.7h1.5v.7h-1.5v4.2h1.7v.7s-1.7,0-1.7,0Z"/>
        <path class="st1" d="M105.8,65.2c-.6,0-1.1,0-1.5-.3s-.7-.6-1-1-.3-.9-.3-1.5,0-1.1.3-1.5c.2-.4.6-.8,1-1s.9-.3,1.5-.3,1.1,0,1.5.3.7.6,1,1c.2.4.3.9.3,1.5s0,1.1-.3,1.5c-.2.4-.6.8-1,1s-.9.3-1.5.3h0ZM105.8,64.5c.6,0,1.1-.2,1.4-.6.3-.4.5-.9.5-1.6s-.2-1.2-.5-1.6c-.3-.4-.8-.5-1.4-.5s-1.1.2-1.4.6c-.3.4-.5.9-.5,1.6s.2,1.2.5,1.6c.3.4.8.6,1.4.6h0Z"/>
        <path class="st1" d="M112.9,65.1v-4.6h-.5v-.9h1v1h.4c.2-.3.4-.6.7-.8s.7-.3,1.2-.3h.4v.7h-.5c-.6,0-1,.2-1.4.5-.3.3-.5.8-.5,1.4v2.9h-.9.1Z"/>
      </g>
      <g class="st3">
        <g class="st3">
          <text class="st2" transform="translate(22.9 78.4)"><tspan x="0" y="0" xml:space="preserve">    </tspan></text>
        </g>
      </g>
      <g class="st3">
        <path class="st1" d="M34.7,76.3c-.2,0-.3,0-.5-.2s-.2-.3-.2-.5,0-.3.2-.5.3-.2.5-.2.3,0,.5.2.2.3.2.5,0,.3-.2.5-.3.2-.5.2Z"/>
        <path class="st1" d="M39.6,78.4v-7.5h3.3c.8,0,1.5.2,1.9.6s.7,1,.7,1.7-.2,1.2-.7,1.7-1.1.6-1.9.6h-2.4v2.9h-.9,0ZM40.5,74.7h2.3c.6,0,1,0,1.3-.4.3-.3.4-.7.4-1.1s-.2-.8-.4-1.1c-.3-.3-.7-.4-1.3-.4h-2.3v3.1h0Z"/>
        <path class="st1" d="M49.3,78.4v-7.8h.9v3.1h0c.2-.3.4-.6.8-.8.3-.2.7-.3,1.2-.3s1.2.2,1.7.6.6,1,.6,1.6v3.4h-.9v-3.3c0-.5,0-.9-.4-1.2s-.7-.4-1.2-.4-1,0-1.2.4-.4.7-.4,1.2v3.3h-.9l-.2.2Z"/>
        <path class="st1" d="M61.2,78.5c-.6,0-1.1,0-1.5-.3s-.7-.6-1-1-.3-.9-.3-1.5,0-1.1.3-1.5.5-.8,1-1,.9-.3,1.5-.3,1.1,0,1.5.3.7.6,1,1,.3.9.3,1.5,0,1.1-.3,1.5c-.2.4-.6.8-1,1s-.9.3-1.5.3h0ZM61.2,77.7c.6,0,1.1-.2,1.4-.6s.5-.9.5-1.6-.2-1.2-.5-1.6c-.3-.4-.8-.5-1.4-.5s-1.1.2-1.4.6c-.3.4-.5.9-.5,1.6s.2,1.2.5,1.6c.3.4.8.6,1.4.6h0Z"/>
        <path class="st1" d="M69.3,78.4c-.3,0-.5,0-.6-.2s-.2-.3-.2-.6v-4.1h-1.1v-.7h1.1v-1.7h.8v1.7h1.5v.7h-1.5v4.2h1.7v.7s-1.7,0-1.7,0Z"/>
        <path class="st1" d="M77.2,78.5c-.6,0-1.1,0-1.5-.3s-.7-.6-1-1-.3-.9-.3-1.5,0-1.1.3-1.5c.2-.4.6-.8,1-1s.9-.3,1.5-.3,1.1,0,1.5.3.7.6,1,1,.3.9.3,1.5,0,1.1-.3,1.5c-.2.4-.6.8-1,1s-.9.3-1.5.3h0ZM77.2,77.7c.6,0,1.1-.2,1.4-.6s.5-.9.5-1.6-.2-1.2-.5-1.6c-.3-.4-.8-.5-1.4-.5s-1.1.2-1.4.6c-.3.4-.5.9-.5,1.6s.2,1.2.5,1.6c.3.4.8.6,1.4.6h0Z"/>
        <path class="st1" d="M86.1,78.5c-.8,0-1.3-.2-1.8-.5-.4-.3-.7-.8-.7-1.3h.9c0,.4.2.6.5.8s.7.3,1.2.3c.9,0,1.4-.3,1.4-.9s0-.4-.2-.6-.4-.2-.7-.3l-1.2-.2c-1-.2-1.5-.7-1.5-1.4s.2-.9.6-1.2.9-.4,1.5-.4,1.2.2,1.6.4c.4.3.6.7.7,1.2h-.8c0-.3-.2-.6-.5-.7-.2-.2-.6-.2-1-.2s-.7,0-.9.2c-.2.2-.3.4-.3.6s0,.4.2.5.4.2.7.3l1.2.2c.5,0,.9.3,1.2.5s.4.6.4,1-.2,1-.6,1.2c-.4.3-.9.4-1.7.4h-.2Z"/>
        <path class="st1" d="M92.3,78.4v-7.8h.9v3.1h0c.2-.3.4-.6.8-.8s.7-.3,1.2-.3,1.2.2,1.7.6.6,1,.6,1.6v3.4h-.9v-3.3c0-.5,0-.9-.4-1.2s-.7-.4-1.2-.4-1,0-1.2.4-.4.7-.4,1.2v3.3h-.9l-.2.2Z"/>
        <path class="st1" d="M104.2,78.5c-.6,0-1.1,0-1.5-.3s-.7-.6-1-1-.3-.9-.3-1.5,0-1.1.3-1.5c.2-.4.6-.8,1-1s.9-.3,1.5-.3,1.1,0,1.5.3.7.6,1,1c.2.4.3.9.3,1.5s0,1.1-.3,1.5c-.2.4-.6.8-1,1s-.9.3-1.5.3h0ZM104.2,77.7c.6,0,1.1-.2,1.4-.6.3-.4.5-.9.5-1.6s-.2-1.2-.5-1.6c-.3-.4-.8-.5-1.4-.5s-1.1.2-1.4.6-.5.9-.5,1.6.2,1.2.5,1.6.8.6,1.4.6h0Z"/>
        <path class="st1" d="M111.2,80.6v-6.8h-.5v-.9h1v.8h.4c.2-.3.4-.5.8-.7.3-.2.7-.2,1.1-.2s1,0,1.4.3.7.6.9,1,.3.9.3,1.5,0,1.1-.3,1.5c-.2.4-.5.8-.9,1s-.8.3-1.3.3-.8,0-1.2-.3-.6-.4-.8-.8h0v3.2h-.9ZM113.8,77.7c.6,0,1-.2,1.4-.6.3-.4.5-.9.5-1.6s-.2-1.2-.5-1.6-.8-.6-1.4-.6-1,.2-1.3.5-.5.7-.5,1.2v.9c0,.5.2.9.5,1.2s.8.5,1.3.5h0Z"/>
      </g>
      <g class="st3">
        <g class="st3">
          <text class="st2" transform="translate(22.9 91.7)"><tspan x="0" y="0" xml:space="preserve">    </tspan></text>
        </g>
      </g>
      <g class="st3">
        <path class="st1" d="M34.7,89.6c-.2,0-.3,0-.5-.2,0,0-.2-.3-.2-.5s0-.3.2-.5c0,0,.3-.2.5-.2s.3,0,.5.2c0,0,.2.3.2.5s0,.3-.2.5c0,0-.3.2-.5.2Z"/>
        <path class="st1" d="M39.6,91.7v-7.5h.9v6.7h4.2v.8h-5.1Z"/>
        <path class="st1" d="M48.9,85.3c-.2,0-.3,0-.4-.2s-.2-.2-.2-.4,0-.3.2-.4.2-.2.4-.2.3,0,.4.2.2.2.2.4,0,.3-.2.4-.2.2-.4.2ZM48.5,91.7v-5.5h.9v5.5h-.9Z"/>
        <path class="st1" d="M56,94c-.7,0-1.3-.2-1.8-.5s-.7-.8-.8-1.3h.9c.2.7.8,1,1.7,1s1.1-.2,1.4-.4c.3-.3.5-.7.5-1.2v-.9h0c0,.3-.4.6-.7.8s-.7.3-1.2.3-1,0-1.4-.3-.7-.6-.9-1-.3-.9-.3-1.5c0-.9.2-1.6.7-2.1s1.1-.8,1.9-.8.8,0,1.1.2.6.4.8.7h.4v-.8h1v.9h-.5v4.6c0,.7-.2,1.3-.7,1.7-.5.4-1.2.6-2,.6h-.1ZM56.2,90.9c.5,0,.9-.2,1.2-.4.3-.3.5-.7.5-1.2v-.8c0-.5-.2-.9-.5-1.2s-.7-.4-1.2-.4-1.1.2-1.4.5-.5.9-.5,1.5.2,1.2.5,1.5c.3.4.8.5,1.4.5h0Z"/>
        <path class="st1" d="M63.3,91.7v-7.8h.9v3.1h0c.2-.3.4-.6.8-.8.3-.2.7-.3,1.2-.3s1.2.2,1.7.6.6.9.6,1.6v3.4h-.9v-3.3c0-.5,0-.9-.4-1.2s-.7-.4-1.2-.4-1,0-1.2.4-.4.7-.4,1.2v3.3h-.9l-.2.2Z"/>
        <path class="st1" d="M74,91.7c-.3,0-.5,0-.6-.2s-.2-.3-.2-.6v-4.1h-1.1v-.7h1.1v-1.7h.8v1.7h1.5v.7h-1.5v4.2h1.7v.7h-1.7Z"/>
        <path class="st1" d="M79.8,91.7v-4.6h-.5v-.9h1v1h.4c.2-.3.4-.6.7-.8.3-.2.7-.3,1.2-.3h.4v.7h-.5c-.6,0-1,.2-1.4.5-.3.3-.5.8-.5,1.4v2.9h-.9.1Z"/>
        <path class="st1" d="M89.2,91.8c-.6,0-1.1,0-1.5-.3-.4-.2-.7-.6-1-1s-.3-.9-.3-1.5,0-1.1.3-1.5c.2-.4.6-.8,1-1s.9-.3,1.5-.3,1.1,0,1.5.3c.4.2.7.6,1,1,.2.4.3.9.3,1.5s0,1.1-.3,1.5c-.2.4-.6.8-1,1s-.9.3-1.5.3h0ZM89.2,91c.6,0,1.1-.2,1.4-.6s.5-.9.5-1.6-.2-1.2-.5-1.6-.8-.6-1.4-.6-1.1.2-1.4.6-.5.9-.5,1.6.2,1.2.5,1.6.8.6,1.4.6Z"/>
        <path class="st1" d="M98.6,91.8c-.6,0-1.1,0-1.5-.3s-.7-.6-1-1-.3-.9-.3-1.5,0-1.1.3-1.5c.2-.4.6-.8,1-1s.9-.3,1.5-.3,1.1,0,1.5.3c.4.2.7.6,1,1,.2.4.3.9.3,1.5s0,1.1-.3,1.5c-.2.4-.6.8-1,1s-.9.3-1.5.3h0ZM98.6,91c.6,0,1.1-.2,1.4-.6s.5-.9.5-1.6-.2-1.2-.5-1.6-.8-.6-1.4-.6-1.1.2-1.4.6-.5.9-.5,1.6.2,1.2.5,1.6.8.6,1.4.6Z"/>
        <path class="st1" d="M105.6,91.7v-4.6h-.5v-.9h1v.8h.5c.2-.3.4-.5.7-.7.3-.2.7-.2,1.1-.2s.8,0,1.1.3c.3.2.6.5.7.8h0c.4-.7,1-1.1,1.9-1.1s1.2.2,1.6.6.6.9.6,1.6v3.5h-.9v-3.3c0-1-.5-1.5-1.5-1.5s-1.5.5-1.5,1.5v3.3h-.9v-3.3c0-1-.5-1.5-1.5-1.5s-.9,0-1.1.4c-.3.3-.4.6-.4,1.1v3.3h-.9,0Z"/>
      </g>
      <g class="st3">
        <g class="st3">
          <text class="st2" transform="translate(22.9 105)"><tspan x="0" y="0" xml:space="preserve">    </tspan></text>
        </g>
      </g>
      <g class="st3">
        <path class="st1" d="M34.7,102.8c-.2,0-.3,0-.5-.2,0,0-.2-.3-.2-.5s0-.3.2-.5c0,0,.3-.2.5-.2s.3,0,.5.2c0,0,.2.3.2.5s0,.3-.2.5c0,0-.3.2-.5.2Z"/>
        <path class="st1" d="M38.7,104.9l3.2-7.5h1l3.2,7.5h-.9l-1-2.4h-3.7l-1,2.4h-.9.1ZM40.9,101.8h3.1l-1.5-3.6h0l-1.5,3.6h0Z"/>
        <path class="st1" d="M52.1,105.1c-.5,0-1,0-1.4-.3-.4-.2-.7-.6-.9-1s-.3-.9-.3-1.5,0-1.1.3-1.5.5-.8.9-1,.8-.3,1.3-.3.8,0,1.2.3.6.4.8.8h0v-3.2h.9v6.8h.5v.9h-1v-.8h-.4c-.2.3-.4.5-.8.7-.3.2-.7.2-1.1.2h0ZM52.2,104.3c.5,0,1-.2,1.3-.5s.5-.7.5-1.2v-.9c0-.5-.2-.9-.5-1.2-.3-.3-.8-.5-1.3-.5s-1,.2-1.4.6c-.3.4-.5.9-.5,1.6s.2,1.2.5,1.6.8.6,1.4.6h0Z"/>
        <path class="st1" d="M61.8,105.1c-.6,0-1.1,0-1.5-.3-.4-.2-.7-.6-1-1s-.3-.9-.3-1.5,0-1.1.3-1.5c.2-.4.6-.8,1-1s.9-.3,1.5-.3,1.1,0,1.5.3c.4.2.7.6,1,1s.3.9.3,1.5,0,1.1-.3,1.5c-.2.4-.6.8-1,1s-.9.3-1.5.3h0ZM61.8,104.3c.6,0,1.1-.2,1.4-.6s.5-.9.5-1.6-.2-1.2-.5-1.6-.8-.6-1.4-.6-1.1.2-1.4.6-.5.9-.5,1.6.2,1.2.5,1.6.8.6,1.4.6Z"/>
        <path class="st1" d="M71.6,105.1c-.4,0-.8,0-1.1-.2-.3-.2-.6-.4-.8-.7h-.4v.8h-1v-.9h.5v-6.8h.9v3.2h0c.2-.3.4-.6.8-.8.3-.2.7-.3,1.2-.3s1,0,1.3.3.7.6.9,1c.2.4.3.9.3,1.5s0,1.1-.3,1.5-.5.8-.9,1-.8.3-1.4.3h0ZM71.5,104.3c.6,0,1-.2,1.4-.6.3-.4.5-.9.5-1.6s-.2-1.2-.5-1.6-.8-.6-1.4-.6-1,.2-1.3.5-.5.7-.5,1.2v.9c0,.5.2.9.5,1.2.3.3.8.5,1.3.5h0Z"/>
        <path class="st1" d="M80.7,105.1c-.6,0-1.1,0-1.5-.3-.4-.2-.7-.6-1-1s-.3-.9-.3-1.5,0-1.1.3-1.5c.2-.4.6-.8,1-1s.9-.3,1.4-.3,1,0,1.4.3c.4.2.7.5.9.9s.3.8.3,1.4v.4h-4.5c0,.6.2,1.1.6,1.5s.8.5,1.4.5.7,0,1-.3c.3-.2.5-.4.6-.8h.9c0,.6-.4,1-.9,1.3-.4.3-1,.5-1.6.5h0ZM78.8,101.6h3.6c0-.5-.2-.9-.5-1.2-.3-.3-.7-.4-1.2-.4s-.9,0-1.2.4c-.3.3-.5.7-.6,1.2h-.1Z"/>
        <path class="st1" d="M89.5,104.9l2.8-3.9-2.6-3.6h1l2.2,3h0l2.2-3h.9l-2.6,3.6,2.8,3.9h-1l-2.3-3.3h0l-2.4,3.3h-1Z"/>
        <path class="st1" d="M100.1,104.9v-7.5h2.6c.8,0,1.5.2,2.1.4s1,.7,1.4,1.3.5,1.2.5,2-.2,1.4-.5,2-.8,1-1.4,1.3-1.3.4-2.1.4h-2.6ZM101,104.2h1.7c.9,0,1.7-.3,2.2-.8s.8-1.2.8-2.2-.3-1.7-.8-2.2-1.3-.8-2.2-.8h-1.7v6h0Z"/>
      </g>
      <g class="st3">
        <g class="st3">
          <text class="st2" transform="translate(22.9 118.2)"><tspan x="0" y="0" xml:space="preserve">    </tspan></text>
        </g>
      </g>
      <g class="st3">
        <path class="st1" d="M34.7,116.1c-.2,0-.3,0-.5-.2,0,0-.2-.3-.2-.5s0-.3.2-.5c0,0,.3-.2.5-.2s.3,0,.5.2c0,0,.2.3.2.5s0,.3-.2.5c0,0-.3.2-.5.2Z"/>
        <path class="st1" d="M40.5,118.2h-.9v-7.5h5v.8h-4.2v2.6h3.9v.8h-3.9v3.4h.1Z"/>
        <path class="st1" d="M48.9,111.9c-.2,0-.3,0-.4-.2s-.2-.2-.2-.4,0-.3.2-.4.2-.2.4-.2.3,0,.4.2.2.2.2.4,0,.3-.2.4-.2.2-.4.2ZM48.5,118.2v-5.5h.9v5.5h-.9Z"/>
        <path class="st1" d="M56,120.6c-.7,0-1.3-.2-1.8-.5s-.7-.8-.8-1.3h.9c.2.7.8,1,1.7,1s1.1-.2,1.4-.4c.3-.3.5-.7.5-1.2v-.9h0c0,.3-.4.6-.7.8s-.7.3-1.2.3-1,0-1.4-.3-.7-.6-.9-1-.3-.9-.3-1.5c0-.9.2-1.6.7-2.1s1.1-.8,1.9-.8.8,0,1.1.2.6.4.8.7h.4v-.8h1v.9h-.5v4.6c0,.7-.2,1.3-.7,1.7-.5.4-1.2.6-2,.6h-.1ZM56.2,117.5c.5,0,.9-.2,1.2-.4.3-.3.5-.7.5-1.2v-.8c0-.5-.2-.9-.5-1.2s-.7-.4-1.2-.4-1.1.2-1.4.5-.5.9-.5,1.5.2,1.2.5,1.5c.3.4.8.5,1.4.5h0Z"/>
        <path class="st1" d="M63.5,118.2v-4.6h-.5v-.9h1v.8h.5c.2-.3.4-.5.7-.7.3-.2.7-.2,1.1-.2s.8,0,1.1.3c.3.2.6.5.7.8h0c.4-.7,1-1.1,1.9-1.1s1.2.2,1.6.6.6.9.6,1.6v3.5h-.9v-3.3c0-1-.5-1.5-1.5-1.5s-1.5.5-1.5,1.5v3.3h-.9v-3.3c0-1-.5-1.5-1.5-1.5s-.9,0-1.1.4c-.3.3-.4.6-.4,1.1v3.3h-.9,0Z"/>
        <path class="st1" d="M78,118.3c-.6,0-1.1-.2-1.5-.5s-.5-.7-.5-1.2.2-.9.5-1.2.8-.4,1.5-.4h2v-.3c0-.9-.5-1.4-1.5-1.4s-1.3.3-1.5.9h-.9c0-.5.3-.9.8-1.2.4-.3,1-.4,1.6-.4s1.3.2,1.7.5c.4.4.6.9.6,1.6v2.6h.4v.9h-1v-.8h-.4c-.2.3-.5.5-.8.7s-.7.2-1.1.2h.1ZM78.1,117.6c.3,0,.7,0,1-.2s.5-.3.7-.6c.2-.2.3-.5.3-.8v-.3h-1.9c-.8,0-1.3.3-1.3,1s0,.5.3.7.6.3.9.3h0Z"/>
      </g>
      <g class="st3">
        <path class="st1" d="M23.6,156.1v-9.1h2.7v1.1h-1.5v7h1.5v1.1h-2.7Z"/>
        <path class="st1" d="M30.6,152.5c-.2,0-.4,0-.6-.2-.2-.2-.2-.4-.2-.6s0-.4.2-.6.4-.2.6-.2.4,0,.6.2c.2.2.2.4.2.6s0,.4-.2.6-.4.2-.6.2Z"/>
        <path class="st1" d="M35.4,154.4v-7.5h3.8c.5,0,.8,0,1.2.2s.6.4.8.7.3.6.3,1,0,.7-.3,1-.5.5-.8.6h0c.3,0,.5.2.8.4.2.2.4.4.5.6s.2.6.2.9,0,.8-.3,1.1c-.2.3-.5.6-.9.7-.4.2-.8.3-1.3.3h-4ZM36.8,149.9h2.2c.3,0,.6,0,.8-.2s.3-.4.3-.7,0-.5-.3-.7c-.2-.1-.4-.2-.8-.2h-2.2v1.8h0ZM36.8,153.2h2.3c.4,0,.7,0,1-.3.2-.2.3-.4.3-.8s0-.6-.3-.8-.5-.3-.9-.3h-2.3v2.1h0Z"/>
        <path class="st1" d="M45.9,154.4v-4.2h-.7v-1.4h1.4v1.1h.4c.2-.4.4-.6.7-.8s.7-.3,1.1-.3h.5v1.2h-.5c-.5,0-.9.1-1.1.4s-.4.7-.4,1.1v2.8h-1.4Z"/>
        <path class="st1" d="M54.5,154.5c-.7,0-1.2-.2-1.5-.5s-.5-.7-.5-1.2.2-1,.6-1.2c.4-.3.9-.4,1.6-.4h1.7v-.2c0-.7-.4-1-1.2-1s-1.1.2-1.2.7h-1.4c0-.6.4-1,.8-1.4.5-.3,1-.5,1.8-.5s1.4.2,1.8.6c.4.4.6.9.6,1.6v2.1h.7v1.4h-1.4v-.9h-.4c-.2.3-.5.6-.8.7s-.7.3-1.2.3h0ZM54.7,153.4c.3,0,.6,0,.8-.2s.4-.3.6-.5.2-.4.2-.6h0c0-.1-1.6-.1-1.6-.1-.6,0-.9.2-.9.7s0,.4.2.5.4.2.7.2h0Z"/>
        <path class="st1" d="M62.3,154.4v-4.2h-.7v-1.4h1.4v.9h.4c.2-.3.5-.6.8-.7.3-.2.7-.3,1.2-.3.8,0,1.3.2,1.8.6.4.4.6,1,.6,1.7v3.3h-1.4v-3.1c0-.4,0-.8-.3-1s-.6-.3-1-.3-.8.1-1,.3-.4.6-.4,1v3.1h-1.4Z"/>
        <path class="st1" d="M74,154.5c-.6,0-1.1-.1-1.4-.4-.4-.2-.7-.6-.9-1-.2-.4-.3-.9-.3-1.5s0-1.1.3-1.5c.2-.4.5-.8.9-1s.8-.4,1.4-.4.8,0,1.1.2.5.4.7.7h0v-3h1.4v6.4h.7v1.4h-1.4v-.9h-.4c-.2.3-.5.6-.8.7-.3.2-.7.3-1.2.3h0ZM74.3,153.3c.4,0,.8-.1,1.1-.4.3-.2.4-.6.4-1v-.6c0-.4,0-.8-.4-1s-.6-.4-1.1-.4-.9.1-1.1.4c-.3.3-.4.7-.4,1.2s0,.9.4,1.2.6.4,1.1.4h0v.2Z"/>
        <path class="st1" d="M82.1,148.3c-.2,0-.4,0-.6-.2-.2-.1-.2-.3-.2-.6s0-.4.2-.6c.2-.1.3-.2.6-.2s.4,0,.6.2.2.3.2.6,0,.4-.2.6c-.2.1-.3.2-.6.2ZM81.4,154.4v-5.5h1.4v5.5h-1.4Z"/>
        <path class="st1" d="M87.1,154.4v-4.2h-.7v-1.4h1.4v.9h.4c.2-.3.5-.6.8-.7.3-.2.7-.3,1.2-.3.8,0,1.3.2,1.8.6.4.4.6,1,.6,1.7v3.3h-1.4v-3.1c0-.4,0-.8-.3-1s-.6-.3-1-.3-.8.1-1,.3-.4.6-.4,1v3.1h-1.4Z"/>
        <path class="st1" d="M99.1,156.7c-.8,0-1.5-.2-2-.5s-.8-.8-.9-1.4h1.4c.2.5.6.8,1.4.8s.9-.1,1.2-.4c.3-.2.4-.6.4-1v-.8h0c-.2.3-.4.5-.7.7s-.7.2-1.1.2-1-.1-1.4-.4-.7-.6-.9-1-.3-.9-.3-1.5c0-.9.2-1.6.7-2.1s1.1-.8,1.9-.8.8,0,1.2.3.6.4.8.7h.4v-.9h1.4v1.4h-.7v4c0,.8-.2,1.4-.8,1.8s-1.2.6-2.1.6h0v.3ZM99.2,153.2c.4,0,.8-.1,1.1-.4s.4-.6.4-1v-.5c0-.4,0-.8-.4-1s-.6-.4-1.1-.4-.9.1-1.1.4-.4.7-.4,1.2,0,.9.4,1.2.6.4,1.1.4h0Z"/>
        <path class="st1" d="M107,152.5c-.2,0-.4,0-.6-.2s-.2-.4-.2-.6,0-.4.2-.6.4-.2.6-.2.4,0,.6.2.2.4.2.6,0,.4-.2.6-.4.2-.6.2Z"/>
        <path class="st1" d="M111.2,156v-1.1h1.5v-7h-1.5v-1.1h2.7v9.1h-2.7Z"/>
      </g>
      <g class="st3">
        <path class="st1" d="M35.1,165.6c-.2,0-.3,0-.5-.2s-.2-.3-.2-.5,0-.3.2-.5c0-.1.3-.2.5-.2s.3,0,.5.2.2.3.2.5,0,.3-.2.5c0,.1-.3.2-.5.2Z"/>
        <path class="st1" d="M40.1,167.7v-7.5h.9v6.7h4.2v.8h-5.1Z"/>
        <path class="st1" d="M51.3,167.8c-.6,0-1.1-.1-1.5-.4-.4-.2-.7-.6-1-1s-.3-.9-.3-1.5,0-1.1.3-1.5.5-.8,1-1c.4-.2.9-.4,1.5-.4s1.1.1,1.5.4c.4.2.7.6,1,1s.3.9.3,1.5,0,1.1-.3,1.5-.5.8-1,1c-.4.2-.9.4-1.5.4h0ZM51.3,167c.6,0,1.1-.2,1.4-.6s.5-.9.5-1.6-.2-1.2-.5-1.6c-.3-.4-.8-.6-1.4-.6s-1.1.2-1.4.6c-.3.4-.5.9-.5,1.6s.2,1.2.5,1.6.8.6,1.4.6h0Z"/>
        <path class="st1" d="M60.5,170c-.7,0-1.3-.2-1.8-.5s-.7-.8-.8-1.3h.9c.2.7.8,1,1.7,1s1.1-.1,1.4-.4c.3-.3.5-.7.5-1.2v-.9h0c0,.3-.4.6-.7.8s-.7.3-1.2.3-1-.1-1.4-.4-.7-.6-.9-1-.3-.9-.3-1.5c0-.9.2-1.6.7-2.1s1.1-.8,1.9-.8.8,0,1.1.2.6.4.8.7h.4v-.8h1v.9h-.5v4.6c0,.7-.2,1.3-.7,1.7s-1.2.6-2,.6h-.1ZM60.6,166.9c.5,0,.9-.1,1.2-.4s.5-.7.5-1.2v-.9c0-.5-.2-.9-.5-1.2s-.7-.4-1.2-.4-1.1.2-1.4.5c-.3.4-.5.9-.5,1.5s.2,1.2.5,1.5c.3.4.8.5,1.4.5h0Z"/>
        <path class="st1" d="M70.2,167.8c-.6,0-1.1-.1-1.5-.4-.4-.2-.7-.6-1-1s-.3-.9-.3-1.5,0-1.1.3-1.5c.2-.4.6-.8,1-1s.9-.4,1.5-.4,1.1.1,1.5.4c.4.2.7.6,1,1s.3.9.3,1.5,0,1.1-.3,1.5c-.2.4-.6.8-1,1s-.9.4-1.5.4h0ZM70.2,167c.6,0,1.1-.2,1.4-.6s.5-.9.5-1.6-.2-1.2-.5-1.6c-.3-.4-.8-.6-1.4-.6s-1.1.2-1.4.6c-.3.4-.5.9-.5,1.6s.2,1.2.5,1.6c.3.4.8.6,1.4.6h0Z"/>
        <path class="st1" d="M82.8,167.7v-7.5h2.6c.8,0,1.5.1,2.1.4s1,.7,1.4,1.3.5,1.2.5,2-.2,1.4-.5,2-.8,1-1.4,1.3-1.3.4-2.1.4h-2.6ZM83.7,166.9h1.7c.9,0,1.7-.3,2.2-.8s.8-1.2.8-2.2-.3-1.7-.8-2.2-1.3-.8-2.2-.8h-1.7v6h0Z"/>
        <path class="st1" d="M95.9,167.8c-.6,0-1.1-.1-1.5-.4s-.7-.6-1-1c-.2-.4-.3-.9-.3-1.5s0-1.1.3-1.5c.2-.4.6-.8,1-1s.9-.4,1.4-.4,1,.1,1.4.3.7.5.9.9.3.9.3,1.4v.4h-4.5c0,.6.2,1.1.6,1.5.3.4.8.5,1.4.5s.7,0,1-.3.5-.4.6-.8h.9c0,.6-.4,1-.9,1.3s-1,.5-1.6.5h0ZM94,164.3h3.6c0-.5-.2-.9-.5-1.2s-.7-.4-1.2-.4-.9.1-1.2.4-.5.7-.6,1.2h-.1Z"/>
        <path class="st1" d="M104.5,167.8c-.8,0-1.3-.1-1.8-.5s-.7-.8-.7-1.3h.9c0,.4.2.6.5.8s.7.3,1.2.3c.9,0,1.4-.3,1.4-.9s0-.4-.2-.6-.4-.2-.7-.3l-1.2-.2c-1-.2-1.5-.7-1.5-1.4s.2-.9.6-1.2.9-.4,1.5-.4,1.2.1,1.6.4c.4.3.6.7.7,1.2h-.8c0-.3-.2-.6-.5-.7s-.6-.2-1-.2-.7,0-.9.2c-.2.1-.3.4-.3.6s0,.4.2.5.4.2.7.3l1.2.2c.5.1.9.3,1.2.5s.4.6.4,1-.2.9-.6,1.2-.9.4-1.7.4h-.2Z"/>
        <path class="st1" d="M111.2,161.3c-.2,0-.3,0-.4-.2s-.2-.2-.2-.4,0-.3.2-.4.2-.2.4-.2.3,0,.4.2.2.2.2.4,0,.3-.2.4-.2.2-.4.2ZM110.7,167.7v-5.5h.9v5.5h-.9Z"/>
        <path class="st1" d="M118.3,170c-.7,0-1.3-.2-1.8-.5s-.7-.8-.8-1.3h.9c.2.7.8,1,1.7,1s1.1-.1,1.4-.4c.3-.3.5-.7.5-1.2v-.9h0c0,.3-.4.6-.7.8-.3.2-.7.3-1.2.3s-1-.1-1.4-.4-.7-.6-.9-1-.3-.9-.3-1.5c0-.9.2-1.6.7-2.1s1.1-.8,1.9-.8.8,0,1.1.2.6.4.8.7h.4v-.8h1v.9h-.5v4.6c0,.7-.2,1.3-.7,1.7s-1.2.6-2,.6h0ZM118.5,166.9c.5,0,.9-.1,1.2-.4s.5-.7.5-1.2v-.9c0-.5-.2-.9-.5-1.2s-.7-.4-1.2-.4-1.1.2-1.4.5-.5.9-.5,1.5.2,1.2.5,1.5.8.5,1.4.5h0Z"/>
        <path class="st1" d="M125.8,167.7v-4.6h-.5v-.9h1v.8h.4c.2-.3.4-.5.8-.7.3-.2.7-.2,1.1-.2.7,0,1.2.2,1.7.6s.6.9.6,1.6v3.4h-.9v-3.3c0-.5-.1-.9-.4-1.2s-.7-.4-1.2-.4-1,.1-1.2.4-.4.7-.4,1.2v3.3h-1Z"/>
      </g>
      <g class="st3">
        <path class="st1" d="M35.1,178.9c-.2,0-.3,0-.5-.2s-.2-.3-.2-.5,0-.3.2-.5c0-.1.3-.2.5-.2s.3,0,.5.2.2.3.2.5,0,.3-.2.5c0,.1-.3.2-.5.2Z"/>
        <path class="st1" d="M45.2,181h-5.1v-7.5h5.1v.8h-4.2v2.5h4v.7h-4v2.8h4.2v.8h0Z"/>
        <path class="st1" d="M51.5,181.1c-.5,0-1-.1-1.4-.4-.4-.2-.7-.6-.9-1s-.3-.9-.3-1.5,0-1.1.3-1.5.5-.8.9-1,.8-.4,1.3-.4.8,0,1.2.3.6.4.8.8h0v-3.1h.9v6.8h.5v.9h-1v-.8h-.4c-.2.3-.4.5-.8.7-.3.2-.7.2-1.1.2ZM51.6,180.3c.5,0,1-.1,1.3-.5.3-.3.5-.7.5-1.2v-.9c0-.5-.2-.9-.5-1.2s-.8-.5-1.3-.5-1,.2-1.4.6c-.3.4-.5.9-.5,1.6s.2,1.2.5,1.6.8.6,1.4.6h0Z"/>
        <path class="st1" d="M59.3,174.6c-.2,0-.3,0-.4-.2s-.2-.2-.2-.4,0-.3.2-.4c.2,0,.2-.2.4-.2s.3,0,.4.2.2.2.2.4,0,.3-.2.4-.2.2-.4.2ZM58.9,181v-5.5h.9v5.5h-.9Z"/>
        <path class="st1" d="M65.4,181c-.3,0-.5,0-.6-.2s-.2-.3-.2-.6v-4.1h-1.1v-.7h1.1v-1.7h.8v1.7h1.5v.7h-1.5v4.2h1.7v.7h-1.7Z"/>
        <path class="st1" d="M73.4,181.1c-.6,0-1.1-.1-1.5-.4-.4-.2-.7-.6-1-1s-.3-.9-.3-1.5,0-1.1.3-1.5c.2-.4.6-.8,1-1s.9-.4,1.5-.4,1.1.1,1.5.4c.4.2.7.6,1,1s.3.9.3,1.5,0,1.1-.3,1.5c-.2.4-.6.8-1,1s-.9.4-1.5.4h0ZM73.4,180.3c.6,0,1.1-.2,1.4-.6s.5-.9.5-1.6-.2-1.2-.5-1.6c-.3-.4-.8-.6-1.4-.6s-1.1.2-1.4.6c-.3.4-.5.9-.5,1.6s.2,1.2.5,1.6c.3.4.8.6,1.4.6h0Z"/>
        <path class="st1" d="M80.5,181v-4.6h-.5v-.9h1v1h.4c.2-.3.4-.6.7-.8s.7-.3,1.2-.3h.4v.7h-.5c-.6,0-1,.2-1.4.5-.3.3-.5.8-.5,1.4v2.9h-.9.1Z"/>
        <path class="st1" d="M88,174.6c-.2,0-.3,0-.4-.2s-.2-.2-.2-.4,0-.3.2-.4.2-.2.4-.2.3,0,.4.2.2.2.2.4,0,.3-.2.4-.2.2-.4.2ZM87.6,181v-5.5h.9v5.5h-.9Z"/>
        <path class="st1" d="M94.4,181.1c-.6,0-1.1-.2-1.5-.5s-.5-.7-.5-1.2.2-.9.5-1.2.8-.4,1.5-.4h2v-.3c0-.9-.5-1.4-1.5-1.4s-1.3.3-1.5.9h-.9c0-.5.3-.9.8-1.2s1-.4,1.6-.4,1.3.2,1.7.5.6.9.6,1.6v2.6h.4v.9h-1v-.8h-.4c-.2.3-.5.5-.8.7s-.7.2-1.1.2h.1ZM94.6,180.3c.3,0,.7,0,1-.2s.5-.4.7-.6c.2-.2.3-.5.3-.8v-.3h-1.9c-.8,0-1.3.3-1.3,1s0,.5.3.7.6.3.9.3h0Z"/>
        <path class="st1" d="M101.9,181v-7.8h.9v7.8h-.9Z"/>
      </g>
      <g class="st3">
        <g class="st3">
          <text class="st2" transform="translate(22.9 194.2)"><tspan x="0" y="0" xml:space="preserve">    </tspan></text>
        </g>
      </g>
      <g class="st3">
        <path class="st1" d="M34.7,192.1c-.2,0-.3,0-.5-.2s-.2-.3-.2-.5,0-.3.2-.5c0-.1.3-.2.5-.2s.3,0,.5.2.2.3.2.5,0,.3-.2.5c0,.1-.3.2-.5.2Z"/>
        <path class="st1" d="M39.6,194.2v-7.5h3.5c.4,0,.8,0,1.1.2s.6.4.7.7c.2.3.3.6.3,1s0,.8-.4,1.1c-.3.3-.6.4-.9.5h0c.2,0,.5.1.8.3.3.1.5.3.7.6s.3.6.3,1,0,.8-.3,1.1-.5.6-.8.7-.8.3-1.2.3h-3.8ZM40.5,190h2.6c.4,0,.8-.1,1-.3s.4-.5.4-.9,0-.7-.4-.9c-.2-.2-.6-.3-1-.3h-2.6v2.5h0ZM40.5,193.5h2.6c.5,0,.9-.1,1.2-.4.3-.2.4-.6.4-1s-.2-.8-.4-1c-.3-.2-.7-.3-1.2-.3h-2.6v2.8h0Z"/>
        <path class="st1" d="M52.7,194.2h-.9v-6.7h-2.8v-.8h6.4v.8h-2.8v6.7h0Z"/>
        <path class="st1" d="M59.4,194.2v-7.5h.9v6.7h4.2v.8h-5.1Z"/>
      </g>
      <g class="st3">
        <g class="st3">
          <text class="st2" transform="translate(22.9 207.5)"><tspan x="0" y="0" xml:space="preserve">    </tspan></text>
        </g>
      </g>
      <g class="st3">
        <g class="st3">
          <text class="st2" transform="translate(22.9 220.8)"><tspan x="0" y="0" xml:space="preserve">    </tspan></text>
        </g>
      </g>
      <g class="st3">
        <g class="st3">
          <text class="st2" transform="translate(22.9 234.1)"><tspan x="0" y="0" xml:space="preserve">    </tspan></text>
        </g>
      </g>
      <g class="st3">
        <g class="st3">
          <text class="st2" transform="translate(22.9 247.4)"><tspan x="0" y="0" xml:space="preserve">    </tspan></text>
        </g>
      </g>
    </g>
    <line class="st0" x1="19.6" y1="13.3" x2="19.6" y2="364.5"/>
    <g>
      <rect class="st1" x="2" y="10.7" width="18.6" height="71.6"/>
      <g>
        <path class="st4" d="M16,77.5H6.9v-2.7h1.1v1.5h7v-1.5h1.1v2.7h-.1Z"/>
        <path class="st4" d="M12.4,70.5c0,.2,0,.4-.2.6-.2.2-.4.2-.6.2s-.4,0-.6-.2-.2-.4-.2-.6,0-.4.2-.6c.2-.2.4-.2.6-.2s.4,0,.6.2.2.4.2.6Z"/>
        <path class="st4" d="M14.5,62.8c0,1-.2,1.8-.7,2.4s-1,.9-1.8,1v-1.5c.4,0,.8-.2,1-.6.2-.3.3-.8.3-1.4s0-.9-.3-1.2c-.2-.3-.4-.4-.8-.4s-.5,0-.6.3c-.2.2-.3.5-.4.8l-.3,1.5c0,.7-.4,1.2-.7,1.5s-.8.5-1.3.5-1.2-.2-1.6-.8c-.4-.5-.6-1.2-.6-2.1s.2-1.6.6-2.2c.4-.6,1-.9,1.7-.9v1.5c-.8.2-1.2.8-1.2,1.7s0,.8.2,1,.4.4.7.4c.5,0,.8-.3.9-1l.3-1.6c0-.7.4-1.2.7-1.5.3-.3.8-.5,1.4-.5s1.3.3,1.7.8.6,1.3.6,2.2h.2Z"/>
        <path class="st4" d="M14.4,56.1h-7.8v-1.4h4.3l-2.1-2.3v-1.6l2.2,2.4,3.4-2.6v1.6l-2.5,1.9.5.7h2v1.4h0Z"/>
        <path class="st4" d="M8.2,46.4c0,.2,0,.4-.2.5-.1.2-.3.2-.6.2s-.4,0-.6-.2c-.2-.2-.2-.3-.2-.5s0-.4.2-.5c.2-.2.3-.2.6-.2s.4,0,.6.2c.1.2.2.3.2.5ZM14.4,47.1h-5.6v-1.4h5.5v1.4h.1Z"/>
        <path class="st4" d="M14.4,41.7h-7.8v-1.4h7.8v1.4Z"/>
        <path class="st4" d="M14.4,36.3h-7.8v-1.4h7.8v1.4Z"/>
        <path class="st4" d="M14.5,28.6c0,.8-.2,1.4-.5,1.9s-.8.7-1.4.8v-1.3c.3,0,.5-.2.6-.4s.2-.5.2-1-.2-1.1-.6-1.1-.3,0-.4.2c0,0-.2.3-.2.5l-.2,1.2c-.2,1.1-.7,1.6-1.5,1.6s-.9-.2-1.2-.6-.5-1-.5-1.7.2-1.3.5-1.7c.3-.4.8-.7,1.3-.7v1.3c-.3,0-.5.2-.6.4,0,.2-.2.5-.2.8s0,.6.2.7c0,.2.2.2.4.2s.2,0,.3-.2c0,0,.2-.3.2-.5l.2-1.2c0-.6.3-1,.6-1.2.3-.3.6-.4,1-.4s1,.2,1.3.6.5,1,.5,1.8h0Z"/>
        <path class="st4" d="M12.4,21.9c0,.2,0,.4-.2.6s-.4.2-.6.2-.4,0-.6-.2-.2-.4-.2-.6,0-.4.2-.6.4-.2.6-.2.4,0,.6.2.2.4.2.6Z"/>
        <path class="st4" d="M16,17.7h-1.1v-1.5h-7v1.5h-1v-2.7h9.1s0,2.7,0,2.7Z"/>
      </g>
    </g>
  </g>
</svg>