<?xml version="1.0" encoding="UTF-8"?>
<svg id="Layer_2" xmlns="http://www.w3.org/2000/svg" version="1.1" viewBox="0 0 214.2 374.6">
  <defs>
    <style>
      .st0 { fill: none; stroke: #001219; stroke-linecap: round; stroke-linejoin: round; stroke-width: 2px; }
      .st1 { fill: #001219; }
      .st4 { fill: #fff; }
    </style>
  </defs>
  <g id="skills">
    <g transform="translate(14, 53)">
      <rect class="st1" x="2" y="10.7" width="18.6" height="71.6"/>
      <g>
        <path class="st4" d="M16,77.5H6.9v-2.7h1.1v1.5h7v-1.5h1.1v2.7h-.1Z"/>
        <path class="st4" d="M12.4,70.5c0,.2,0,.4-.2.6-.2.2-.4.2-.6.2s-.4,0-.6-.2-.2-.4-.2-.6,0-.4.2-.6c.2-.2.4-.2.6-.2s.4,0,.6.2.2.4.2.6Z"/>
        <path class="st4" d="M14.5,62.8c0,1-.2,1.8-.7,2.4s-1,.9-1.8,1v-1.5c.4,0,.8-.2,1-.6.2-.3.3-.8.3-1.4s0-.9-.3-1.2c-.2-.3-.4-.4-.8-.4s-.5,0-.6.3c-.2.2-.3.5-.4.8l-.3,1.5c0,.7-.4,1.2-.7,1.5s-.8.5-1.3.5-1.2-.2-1.6-.8c-.4-.5-.6-1.2-.6-2.1s.2-1.6.6-2.2c.4-.6,1-.9,1.7-.9v1.5c-.8.2-1.2.8-1.2,1.7s0,.8.2,1,.4.4.7.4c.5,0,.8-.3.9-1l.3-1.6c0-.7.4-1.2.7-1.5.3-.3.8-.5,1.4-.5s1.3.3,1.7.8.6,1.3.6,2.2h.2Z"/>
        <path class="st4" d="M14.4,56.1h-7.8v-1.4h4.3l-2.1-2.3v-1.6l2.2,2.4,3.4-2.6v1.6l-2.5,1.9.5.7h2v1.4h0Z"/>
        <path class="st4" d="M8.2,46.4c0,.2,0,.4-.2.5-.1.2-.3.2-.6.2s-.4,0-.6-.2c-.2-.2-.2-.3-.2-.5s0-.4.2-.5c.2-.2.3-.2.6-.2s.4,0,.6.2c.1.2.2.3.2.5ZM14.4,47.1h-5.6v-1.4h5.5v1.4h.1Z"/>
        <path class="st4" d="M14.4,41.7h-7.8v-1.4h7.8v1.4Z"/>
        <path class="st4" d="M14.4,36.3h-7.8v-1.4h7.8v1.4Z"/>
        <path class="st4" d="M14.5,28.6c0,.8-.2,1.4-.5,1.9s-.8.7-1.4.8v-1.3c.3,0,.5-.2.6-.4s.2-.5.2-1-.2-1.1-.6-1.1-.3,0-.4.2c0,0-.2.3-.2.5l-.2,1.2c-.2,1.1-.7,1.6-1.5,1.6s-.9-.2-1.2-.6-.5-1-.5-1.7.2-1.3.5-1.7c.3-.4.8-.7,1.3-.7v1.3c-.3,0-.5.2-.6.4,0,.2-.2.5-.2.8s0,.6.2.7c0,.2.2.2.4.2s.2,0,.3-.2c0,0,.2-.3.2-.5l.2-1.2c0-.6.3-1,.6-1.2.3-.3.6-.4,1-.4s1,.2,1.3.6.5,1,.5,1.8h0Z"/>
        <path class="st4" d="M12.4,21.9c0,.2,0,.4-.2.6s-.4.2-.6.2-.4,0-.6-.2-.2-.4-.2-.6,0-.4.2-.6.4-.2.6-.2.4,0,.6.2.2.4.2.6Z"/>
        <path class="st4" d="M16,17.7h-1.1v-1.5h-7v1.5h-1v-2.7h9.1s0,2.7,0,2.7Z"/>
      </g>
    </g>
  </g>
</svg>
