<?xml version="1.0" encoding="UTF-8"?>
<svg id="photo-section-bar" xmlns="http://www.w3.org/2000/svg" version="1.1" viewBox="0 0 37.5 997.6">
  <!-- Generator: Adobe Illustrator 30.3.0, SVG Export Plug-In . SVG Version: 2.1.3 Build 182)  -->
  <defs>
    <style>
      .st0, .st1, .st2 {
        fill: none;
      }

      .st1, .st2 {
        stroke: #001219;
        stroke-linecap: round;
        stroke-linejoin: round;
        stroke-width: 2px;
      }

      .st3 {
        fill: #001219;
      }

      .st4 {
        font-family: CourierNewPS-BoldMT, 'Courier New';
        font-size: 20px;
        font-weight: 700;
        isolation: isolate;
      }

      .st4, .st5 {
        fill: #fff;
      }

      .st2 {
        stroke-dasharray: 11.9 11.9;
      }
    </style>
  </defs>
  <line class="st0" x1="36.5" y1="17" x2="36.5" y2="996.6"/>
  <line class="st2" x1="36.5" y1="1" x2="36.5" y2="983.6"/>
  <line class="st1" x1="36.5" y1="990.6" x2="36.5" y2="996.6"/>
  <text class="st4" transform="translate(18.8 358) rotate(-90)"><tspan x="0" y="0">[ · P o r t f o l i o ·</tspan></text>
  <g id="skills">
    <g>
      <polygon class="st3" points="0 0 35.8 0 35.8 214.4 0 191.9 0 0"/>
      <g>
        <path class="st5" d="M26.9,174.2H9.4v-5.2h2.1v2.9h13.5v-2.9h2.1v5.2h-.2Z"/>
        <path class="st5" d="M20,160.8c0,.4,0,.8-.4,1.2s-.8.4-1.2.4-.8,0-1.2-.4-.4-.8-.4-1.2,0-.8.4-1.2.8-.4,1.2-.4.8,0,1.2.4.4.8.4,1.2Z"/>
        <path class="st5" d="M24,145.9c0,1.9-.4,3.5-1.3,4.6s-1.9,1.7-3.5,1.9v-2.9c.8,0,1.5-.4,1.9-1.2.4-.6.6-1.5.6-2.7s0-1.7-.6-2.3c-.4-.6-.8-.8-1.5-.8s-1,0-1.2.6c-.4.4-.6,1-.8,1.5l-.6,2.9c0,1.3-.8,2.3-1.3,2.9s-1.5,1-2.5,1-2.3-.4-3.1-1.5c-.8-1-1.2-2.3-1.2-4s.4-3.1,1.2-4.2c.8-1.2,1.9-1.7,3.3-1.7v2.9c-1.5.4-2.3,1.5-2.3,3.3s0,1.5.4,1.9c.4.4.8.8,1.3.8,1,0,1.5-.6,1.7-1.9l.6-3.1c0-1.3.8-2.3,1.3-2.9s1.5-1,2.7-1,2.5.6,3.3,1.5,1.2,2.5,1.2,4.2h.4v.2Z"/>
        <path class="st5" d="M23.9,133.1h-15v-2.7h8.3l-4-4.4v-3.1l4.2,4.6,6.5-5v3.1l-4.8,3.7,1,1.3h3.8v2.7h0v-.2Z"/>
        <path class="st5" d="M11.9,114.4c0,.4,0,.8-.4,1-.2.4-.6.4-1.2.4s-.8,0-1.2-.4-.4-.6-.4-1,0-.8.4-1c.4-.4.6-.4,1.2-.4s.8,0,1.2.4c.2.4.4.6.4,1ZM23.9,115.7h-10.8v-2.7h10.6v2.7h.2Z"/>
        <path class="st5" d="M23.9,105.4h-15v-2.7h15v2.7Z"/>
        <path class="st5" d="M23.9,95h-15v-2.7h15v2.7Z"/>
        <path class="st5" d="M24,80.2c0,1.5-.4,2.7-1,3.7s-1.5,1.3-2.7,1.5v-2.5c.6,0,1-.4,1.2-.8s.4-1,.4-1.9-.4-2.1-1.2-2.1-.6,0-.8.4c0,0-.4.6-.4,1l-.4,2.3c-.4,2.1-1.3,3.1-2.9,3.1s-1.7-.4-2.3-1.2-1-1.9-1-3.3.4-2.5,1-3.3c.6-.8,1.5-1.3,2.5-1.3v2.5c-.6,0-1,.4-1.2.8,0,.4-.4,1-.4,1.5s0,1.2.4,1.3c0,.4.4.4.8.4s.4,0,.6-.4c0,0,.4-.6.4-1l.4-2.3c0-1.2.6-1.9,1.2-2.3.6-.6,1.2-.8,1.9-.8s1.9.4,2.5,1.2,1,1.9,1,3.5h0Z"/>
        <path class="st5" d="M20,67.3c0,.4,0,.8-.4,1.2s-.8.4-1.2.4-.8,0-1.2-.4-.4-.8-.4-1.2,0-.8.4-1.2.8-.4,1.2-.4.8,0,1.2.4.4.8.4,1.2Z"/>
        <path class="st5" d="M26.9,59.2h-2.1v-2.9h-13.5v2.9h-1.9v-5.2h17.5v5.2Z"/>
      </g>
      <polygon class="st5" points="17.9 0 22.1 13 35.8 13 24.7 21 28.9 34 17.9 26 6.8 34 11.1 21 0 13 13.7 13 17.9 0"/>
    </g>
  </g>
</svg>