<?xml version="1.0" encoding="UTF-8"?>
<svg id="Layer_2" xmlns="http://www.w3.org/2000/svg" version="1.1" viewBox="0 0 214.2 374.6">
  <!-- Generator: Adobe Illustrator 30.0.0, SVG Export Plug-In . SVG Version: 2.1.1 Build 123)  -->
  <defs>
    <style>
      .st0, .st1 {
        isolation: isolate;
      }

      .st2 {
        fill: #fff;
      }

      .st1 {
        font-family: FunnelDisplay-SemiBold, 'Funnel Display';
        font-size: 11.1px;
        font-weight: 600;
      }

      .st1, .st3 {
        fill: #001219;
      }

      .st4 {
        fill: none;
        stroke: #001219;
        stroke-linecap: round;
        stroke-linejoin: round;
        stroke-width: 2px;
      }
    </style>
  </defs>
  <g id="skills">
    <path class="st3" d="M28.6,267.7v-9.1h2.7v1.1h-1.5v7h1.5v1.1h-2.7Z"/>
    <path class="st3" d="M35.6,264.1c-.2,0-.4,0-.6-.2-.2-.2-.2-.4-.2-.6s0-.4.2-.6c.2-.2.4-.2.6-.2s.4,0,.6.2c.2.2.2.4.2.6s0,.4-.2.6c-.2.2-.4.2-.6.2Z"/>
    <path class="st3" d="M42,266l-2.2-7.5h1.5l1.5,5.4h0l1.6-5.4h1.2l1.7,5.4h0l1.4-5.4h1.5l-2.2,7.5h-1.4l-1.7-5.5h0l-1.6,5.5h-1.4Z"/>
    <path class="st3" d="M56.5,266.1c-.6,0-1.1-.1-1.5-.4-.4-.2-.8-.6-1-1-.2-.4-.3-.9-.3-1.5s.1-1.1.3-1.5.6-.8,1-1c.4-.2.9-.4,1.5-.4s1,.1,1.5.3.7.5.9.9c.2.4.3.9.3,1.5v.5h-4.3c0,.5.2.8.5,1.1.3.2.6.4,1.1.4s.6,0,.8-.2.4-.3.5-.6h1.4c-.1.6-.4,1-.9,1.4s-1,.5-1.8.5h0ZM55,262.7h2.9c0-.4-.2-.7-.4-.9-.2-.2-.6-.3-1-.3s-.7.1-1,.3c-.3.2-.4.5-.5.9Z"/>
    <path class="st3" d="M66.3,266.1c-.5,0-.8,0-1.2-.3s-.6-.4-.8-.7h-.4v.9h-1.4v-1.4h.7v-6.4h1.4v3h0c.2-.3.4-.5.7-.7s.7-.2,1.1-.2,1,.1,1.4.4c.4.2.7.6.9,1s.3.9.3,1.5,0,1.1-.3,1.5c-.2.4-.5.8-.9,1s-.9.4-1.4.4h0ZM66,265c.5,0,.9-.1,1.1-.5.2-.3.4-.7.4-1.2s-.1-.9-.4-1.2c-.3-.3-.6-.5-1.1-.5s-.8.1-1.1.4-.4.6-.4,1v.6c0,.4.1.8.4,1,.3.2.6.4,1.1.4h0Z"/>
    <path class="st3" d="M73.2,264.1c-.2,0-.4,0-.6-.2s-.2-.4-.2-.6,0-.4.2-.6c.2-.2.4-.2.6-.2s.4,0,.6.2.2.4.2.6,0,.4-.2.6c-.2.2-.4.2-.6.2Z"/>
    <path class="st3" d="M77.4,267.7v-1.1h1.5v-7h-1.5v-1.1h2.7v9.1h-2.7Z"/>
    <g class="st0">
      <text class="st1" transform="translate(27.9 279.3)"><tspan x="0" y="0" xml:space="preserve">    </tspan></text>
    </g>
    <path class="st3" d="M39.7,277.2c-.2,0-.3,0-.5-.2s-.2-.3-.2-.5,0-.3.2-.5c.1-.1.3-.2.5-.2s.3,0,.5.2.2.3.2.5,0,.3-.2.5c-.1.1-.3.2-.5.2Z"/>
    <path class="st3" d="M46.2,279.3l-2.2-7.5h.9l1.8,6.4h0l1.8-6.4h.9l2,6.4h0l1.8-6.4h.9l-2.2,7.5h-1l-2-6.5h0l-1.8,6.5s-1,0-1,0Z"/>
    <path class="st3" d="M60.6,279.4c-.6,0-1.1-.1-1.5-.4-.4-.2-.7-.6-1-1s-.3-1-.3-1.5.1-1.1.3-1.5.5-.8,1-1c.4-.2.9-.4,1.5-.4s1,.1,1.4.3c.4.2.7.5.9.9s.3.9.3,1.4v.4h-4.5c0,.6.2,1.1.6,1.5s.8.5,1.4.5.7,0,1-.3.5-.4.6-.8h.9c-.1.6-.4,1-.9,1.3s-1,.5-1.6.5h0ZM58.7,276h3.6c0-.5-.2-.9-.5-1.2-.3-.3-.7-.4-1.2-.4s-.9.1-1.2.4-.5.7-.6,1.2Z"/>
    <path class="st3" d="M70.1,279.4c-.4,0-.8,0-1.1-.2s-.6-.4-.8-.7h-.4v.8h-1v-.9h.5v-6.8h.9v3.1h0c.2-.3.4-.6.8-.8.3-.2.7-.3,1.2-.3s1,.1,1.3.4.7.6.9,1c.2.4.3.9.3,1.5s0,1.1-.3,1.5-.5.8-.9,1-.8.4-1.4.4h0ZM70,278.7c.6,0,1-.2,1.4-.6s.5-.9.5-1.6-.2-1.2-.5-1.6c-.3-.4-.8-.6-1.4-.6s-1,.1-1.3.5c-.3.3-.5.7-.5,1.2v.9c0,.5.2.9.5,1.2.3.3.8.5,1.3.5h0Z"/>
    <path class="st3" d="M79.7,279.3v-7.5h3.3c.8,0,1.5.2,1.9.6.4.4.7,1,.7,1.7s-.2,1.2-.7,1.7-1.1.6-1.9.6h-2.4v2.9h-.9,0ZM80.6,275.6h2.3c.6,0,1-.1,1.3-.4.3-.3.4-.6.4-1.1s-.2-.9-.4-1.1-.7-.4-1.3-.4h-2.3v3.1Z"/>
    <path class="st3" d="M89.4,279.3v-7.8h.9v7.8h-.9Z"/>
    <path class="st3" d="M96.3,279.4c-.6,0-1.1-.2-1.5-.5s-.5-.7-.5-1.2.2-.9.5-1.2.8-.4,1.5-.4h2v-.3c0-1-.5-1.4-1.5-1.4s-1.3.3-1.5.9h-.9c0-.5.3-.9.8-1.2s1-.4,1.6-.4,1.3.2,1.7.5c.4.4.6.9.6,1.5v2.6h.4v.9h-1v-.8h-.4c-.2.3-.5.5-.8.7-.3.2-.7.2-1.1.2h0ZM96.4,278.7c.3,0,.7,0,1-.2s.5-.4.7-.6c.2-.2.3-.5.3-.8v-.3h-1.9c-.8,0-1.3.3-1.3,1s.1.5.3.7.6.3.9.3h0Z"/>
    <path class="st3" d="M103.8,279.3v-4.6h-.5v-.9h1v.8h.4c.2-.3.4-.5.8-.7s.7-.2,1.2-.2c.7,0,1.2.2,1.7.6.4.4.6,1,.6,1.6v3.4h-.9v-3.3c0-.5-.1-.9-.4-1.2s-.7-.4-1.2-.4-1,.1-1.2.4-.4.7-.4,1.2v3.3h-.9Z"/>
    <path class="st3" d="M113.4,279.3v-4.6h-.5v-.9h1v.8h.4c.2-.3.4-.5.8-.7s.7-.2,1.2-.2c.7,0,1.2.2,1.7.6.4.4.6,1,.6,1.6v3.4h-.9v-3.3c0-.5-.1-.9-.4-1.2s-.7-.4-1.2-.4-1,.1-1.2.4c-.3.3-.4.7-.4,1.2v3.3h-.9Z"/>
    <path class="st3" d="M123.3,273c-.2,0-.3,0-.4-.2s-.2-.2-.2-.4,0-.3.2-.4.2-.2.4-.2.3,0,.4.2.2.2.2.4,0,.3-.2.4-.2.2-.4.2ZM122.9,279.3v-5.5h.9v5.5h-.9Z"/>
    <path class="st3" d="M128.4,279.3v-4.6h-.5v-.9h1v.8h.4c.2-.3.4-.5.8-.7s.7-.2,1.1-.2c.7,0,1.2.2,1.7.6.4.4.6,1,.6,1.6v3.4h-.9v-3.3c0-.5-.1-.9-.4-1.2s-.7-.4-1.2-.4-1,.1-1.2.4-.4.7-.4,1.2v3.3h-.9Z"/>
    <path class="st3" d="M140.1,281.6c-.7,0-1.4-.2-1.8-.5s-.7-.8-.8-1.3h.9c.2.7.8,1,1.7,1s1.1-.1,1.4-.4c.3-.3.5-.7.5-1.2v-.9h0c-.1.3-.4.6-.7.8s-.7.3-1.2.3-1-.1-1.4-.4-.7-.6-.9-1c-.2-.4-.3-.9-.3-1.5,0-.9.2-1.5.7-2.1s1.1-.8,1.9-.8.8,0,1.1.2c.3.2.6.4.8.7h.4v-.8h1v.9h-.5v4.6c0,.7-.2,1.3-.7,1.7s-1.2.6-2,.6h0ZM140.3,278.6c.5,0,.9-.1,1.2-.5.3-.3.5-.7.5-1.2v-.9c0-.5-.2-.9-.5-1.2-.3-.3-.7-.5-1.2-.5s-1.1.2-1.4.5c-.3.4-.5.9-.5,1.5s.2,1.2.5,1.5.8.5,1.4.5h0Z"/>
    <g class="st0">
      <path class="st3" d="M40.1,290.5c-.2,0-.3,0-.5-.2s-.2-.3-.2-.5,0-.3.2-.5c.1-.1.3-.2.5-.2s.3,0,.5.2.2.3.2.5,0,.3-.2.5c-.1.1-.3.2-.5.2Z"/>
      <path class="st3" d="M46.7,292.6l-2.2-7.5h.9l1.8,6.4h0l1.8-6.4h.9l2,6.4h0l1.8-6.4h.9l-2.2,7.5h-1l-2-6.5h0l-1.8,6.5s-1,0-1,0Z"/>
      <path class="st3" d="M61,292.7c-.6,0-1.1-.1-1.5-.4-.4-.2-.7-.6-1-1s-.3-1-.3-1.5.1-1.1.3-1.5.5-.8,1-1c.4-.2.9-.4,1.5-.4s1,.1,1.4.3c.4.2.7.5.9.9s.3.9.3,1.4v.4h-4.5c0,.6.2,1.1.6,1.5s.8.5,1.4.5.7,0,1-.3.5-.4.6-.8h.9c-.1.6-.4,1-.9,1.3s-1,.5-1.6.5h0ZM59.1,289.3h3.6c0-.5-.2-.9-.5-1.2-.3-.3-.7-.4-1.2-.4s-.9.1-1.2.4-.5.7-.6,1.2Z"/>
      <path class="st3" d="M70.6,292.7c-.4,0-.8,0-1.1-.2s-.6-.4-.8-.7h-.4v.8h-1v-.9h.5v-6.8h.9v3.1h0c.2-.3.4-.6.8-.8.3-.2.7-.3,1.2-.3s1,.1,1.3.4.7.6.9,1c.2.4.3.9.3,1.5s0,1.1-.3,1.5-.5.8-.9,1-.8.4-1.4.4h0ZM70.4,292c.6,0,1-.2,1.4-.6s.5-.9.5-1.6-.2-1.2-.5-1.6c-.3-.4-.8-.6-1.4-.6s-1,.1-1.3.5c-.3.3-.5.7-.5,1.2v.9c0,.5.2.9.5,1.2.3.3.8.5,1.3.5h0Z"/>
      <path class="st3" d="M80.1,292.6v-7.5h2.6c.8,0,1.5.1,2.1.5s1,.7,1.4,1.3.5,1.2.5,2-.2,1.4-.5,2-.8,1-1.4,1.3c-.6.3-1.3.5-2.1.5h-2.6ZM81,291.8h1.7c.9,0,1.7-.3,2.2-.8s.8-1.2.8-2.2-.3-1.7-.8-2.2-1.3-.8-2.2-.8h-1.7v6h0Z"/>
      <path class="st3" d="M91.2,286.2c-.2,0-.3,0-.4-.2-.1-.1-.2-.2-.2-.4s0-.3.2-.4c.1-.1.2-.2.4-.2s.3,0,.4.2c.1.1.2.2.2.4s0,.3-.2.4c-.1.1-.2.2-.4.2ZM90.8,292.6v-5.5h.9v5.5h-.9Z"/>
      <path class="st3" d="M96.4,292.6v-4.6h-.5v-.9h1v1h.4c.2-.3.4-.6.7-.8s.7-.3,1.2-.3h.4v.7h-.5c-.6,0-1,.2-1.4.5-.3.3-.5.8-.5,1.4v2.9h-.9,0Z"/>
      <path class="st3" d="M105.9,292.7c-.6,0-1.1-.1-1.5-.4-.4-.2-.7-.6-1-1s-.3-1-.3-1.5.1-1.1.3-1.5c.2-.4.6-.8,1-1,.4-.2.9-.4,1.4-.4s1,.1,1.4.3c.4.2.7.5.9.9.2.4.3.9.3,1.4v.4h-4.5c0,.6.2,1.1.6,1.5.3.4.8.5,1.4.5s.7,0,1-.3.5-.4.6-.8h.9c-.1.6-.4,1-.9,1.3s-1,.5-1.6.5h0ZM103.9,289.3h3.6c0-.5-.2-.9-.5-1.2-.3-.3-.7-.4-1.2-.4s-.9.1-1.2.4c-.3.3-.5.7-.6,1.2Z"/>
      <path class="st3" d="M114.9,292.7c-.6,0-1.1-.1-1.5-.4-.4-.2-.7-.6-.9-1s-.3-.9-.3-1.5.1-1.1.3-1.5.5-.8.9-1c.4-.2.9-.4,1.5-.4s1.2.2,1.7.5.7.8.9,1.4h-.9c-.1-.4-.3-.7-.6-.9s-.6-.3-1.1-.3-1.1.2-1.4.6-.5.9-.5,1.6.2,1.2.5,1.6c.3.4.8.6,1.4.6.9,0,1.5-.4,1.7-1.2h.9c-.2.6-.4,1.1-.9,1.5-.4.3-1,.5-1.7.5h0Z"/>
      <path class="st3" d="M122.4,292.6c-.3,0-.5,0-.6-.2s-.2-.3-.2-.6v-4.1h-1.1v-.7h1.1v-1.7h.8v1.7h1.5v.7h-1.5v4.2h1.7v.7h-1.7Z"/>
      <path class="st3" d="M128.4,286.2c-.1,0-.3,0-.4-.2s-.2-.2-.2-.4,0-.3.2-.4.2-.2.4-.2.3,0,.4.2.2.2.2.4,0,.3-.2.4-.2.2-.4.2ZM128,292.6v-5.5h.9v5.5h-.9Z"/>
      <path class="st3" d="M135.8,292.7c-.6,0-1.1-.1-1.5-.4-.4-.2-.7-.6-1-1s-.4-.9-.4-1.5.1-1.1.3-1.5.6-.8,1-1,.9-.4,1.5-.4,1.1.1,1.5.4.7.6,1,1,.3.9.3,1.5-.1,1.1-.3,1.5c-.2.4-.6.8-1,1s-.9.4-1.5.4h0ZM135.8,292c.6,0,1.1-.2,1.4-.6s.5-.9.5-1.6-.2-1.2-.5-1.6-.8-.5-1.4-.5-1.1.2-1.4.6-.5.9-.5,1.6.2,1.2.5,1.6.8.6,1.4.6Z"/>
      <path class="st3" d="M142.8,292.6v-4.6h-.5v-.9h1v.8h.4c.2-.3.4-.5.8-.7.3-.2.7-.2,1.1-.2.7,0,1.2.2,1.7.6.4.4.6,1,.6,1.6v3.4h-.9v-3.3c0-.5-.1-.9-.4-1.2s-.7-.4-1.2-.4-1,.1-1.2.4-.4.7-.4,1.2v3.3h-.9Z"/>
    </g>
    <g class="st0">
      <path class="st3" d="M40.1,303.8c-.2,0-.3,0-.5-.2s-.2-.3-.2-.5,0-.3.2-.5c.1-.1.3-.2.5-.2s.3,0,.5.2.2.3.2.5,0,.3-.2.5c-.1.1-.3.2-.5.2Z"/>
      <path class="st3" d="M46.7,305.9l-2.2-7.5h.9l1.8,6.4h0l1.8-6.4h.9l2,6.4h0l1.8-6.4h.9l-2.2,7.5h-1l-2-6.5h0l-1.8,6.5s-1,0-1,0Z"/>
      <path class="st3" d="M57.4,306c-.6,0-1.1-.1-1.5-.4-.4-.2-.7-.6-1-1s-.3-1-.3-1.5.1-1.1.3-1.5.5-.8,1-1c.4-.2.9-.4,1.5-.4s1,.1,1.4.3c.4.2.7.5.9.9s.3.9.3,1.4v.4h-4.5c0,.6.2,1.1.6,1.5s.8.5,1.4.5.7,0,1-.3.5-.4.6-.8h.9c-.1.6-.4,1-.9,1.3s-1,.5-1.6.5h0ZM55.5,302.5h3.6c0-.5-.2-.9-.5-1.2-.3-.3-.7-.4-1.2-.4s-.9.1-1.2.4-.5.7-.6,1.2Z"/>
      <path class="st3" d="M64.2,306c-.4,0-.8,0-1.1-.2s-.6-.4-.8-.7h-.4v.8h-1v-.9h.5v-6.8h.9v3.1h0c.2-.3.4-.6.8-.8.3-.2.7-.3,1.2-.3s1,.1,1.3.4.7.6.9,1c.2.4.3.9.3,1.5s0,1.1-.3,1.5-.5.8-.9,1-.8.4-1.4.4ZM64.1,305.3c.6,0,1-.2,1.4-.6s.5-.9.5-1.6-.2-1.2-.5-1.6c-.3-.4-.8-.6-1.4-.6s-1,.1-1.3.5c-.3.3-.5.7-.5,1.2v.9c0,.5.2.9.5,1.2s.8.5,1.3.5h0Z"/>
      <path class="st3" d="M71,305.9v-7.5h2.6c.8,0,1.5.1,2.1.5s1,.7,1.4,1.3.5,1.2.5,2-.2,1.4-.5,2-.8,1-1.4,1.3c-.6.3-1.3.5-2.1.5h-2.6ZM71.9,305.1h1.7c.9,0,1.7-.3,2.2-.8s.8-1.2.8-2.2-.3-1.7-.8-2.2-1.3-.8-2.2-.8h-1.7v6h0Z"/>
      <path class="st3" d="M81.3,306c-.6,0-1.1-.1-1.5-.4-.4-.2-.7-.6-1-1s-.3-1-.3-1.5.1-1.1.3-1.5c.2-.4.6-.8,1-1,.4-.2.9-.4,1.4-.4s1,.1,1.4.3c.4.2.7.5.9.9s.3.9.3,1.4v.4h-4.5c0,.6.2,1.1.6,1.5s.8.5,1.4.5.7,0,1-.3.5-.4.6-.8h.9c-.1.6-.4,1-.9,1.3s-1,.5-1.6.5h0ZM79.4,302.5h3.6c0-.5-.2-.9-.5-1.2-.3-.3-.7-.4-1.2-.4s-.9.1-1.2.4c-.3.3-.5.7-.6,1.2Z"/>
      <path class="st3" d="M87.2,306c-.8,0-1.3-.1-1.8-.5-.4-.3-.7-.8-.7-1.3h.9c0,.4.2.6.5.8.3.2.7.3,1.2.3.9,0,1.4-.3,1.4-.9s0-.4-.2-.6-.4-.2-.7-.3l-1.2-.2c-1-.2-1.5-.7-1.5-1.4s.2-.9.6-1.2c.4-.3.9-.4,1.5-.4s1.2.1,1.6.4.6.7.7,1.2h-.8c0-.3-.2-.6-.5-.7-.2-.2-.6-.2-1-.2s-.7,0-.9.2c-.2.1-.3.4-.3.6s0,.4.2.5.4.2.7.3l1.2.2c.5.1.9.3,1.2.5s.4.6.4,1-.2,1-.6,1.2c-.4.3-.9.4-1.7.4h0Z"/>
      <path class="st3" d="M91.1,299.5c-.2,0-.3,0-.4-.2-.1-.1-.2-.2-.2-.4s0-.3.2-.4c.1-.1.2-.2.4-.2s.3,0,.4.2c.1.1.2.2.2.4s0,.3-.2.4c-.1.1-.2.2-.4.2ZM90.6,305.9v-5.5h.9v5.5h-.9Z"/>
      <path class="st3" d="M95.4,308.2c-.7,0-1.3-.2-1.8-.5s-.7-.8-.8-1.3h.9c.2.7.8,1,1.7,1s1.1-.1,1.4-.4c.3-.3.5-.7.5-1.2v-.9h0c-.1.3-.4.6-.7.8s-.7.3-1.2.3-1-.1-1.4-.4-.7-.6-.9-1c-.2-.4-.3-.9-.3-1.5,0-.9.2-1.5.7-2.1s1.1-.8,1.9-.8.8,0,1.1.2c.3.2.6.4.8.7h.4v-.8h1v.9h-.5v4.6c0,.7-.2,1.3-.7,1.7-.5.4-1.2.6-2,.6h0ZM95.6,305.1c.5,0,.9-.1,1.2-.5.3-.3.5-.7.5-1.2v-.9c0-.5-.2-.9-.5-1.2s-.7-.5-1.2-.5-1.1.2-1.4.5c-.3.4-.5.9-.5,1.5s.2,1.2.5,1.5c.3.4.8.5,1.4.5h0Z"/>
      <path class="st3" d="M100.2,305.9v-4.6h-.5v-.9h1v.8h.4c.2-.3.4-.5.8-.7s.7-.2,1.2-.2c.7,0,1.2.2,1.7.6.4.4.6,1,.6,1.6v3.4h-.9v-3.3c0-.5-.1-.9-.4-1.2s-.7-.4-1.2-.4-1,.1-1.2.4c-.3.3-.4.7-.4,1.2v3.3h-.9Z"/>
    </g>
    <path class="st3" d="M40.1,317.1c-.2,0-.3,0-.5-.2s-.2-.3-.2-.5,0-.3.2-.5c.1-.1.3-.2.5-.2s.3,0,.5.2.2.3.2.5,0,.3-.2.5c-.1.1-.3.2-.5.2Z"/>
    <path class="st3" d="M48,319.3c-.7,0-1.2-.1-1.7-.3s-.8-.5-1-.9c-.2-.4-.4-.9-.4-1.5v-4.8h.9v4.8c0,.7.2,1.1.5,1.5s.9.5,1.7.5,1.3-.2,1.7-.5c.4-.3.6-.8.6-1.5v-4.8h.9v4.9c0,.9-.3,1.5-.8,2-.5.5-1.3.7-2.3.7h0Z"/>
    <path class="st3" d="M55,319.2l2.8-3.9-2.6-3.6h1l2.2,3h0l2.2-3h.9l-2.6,3.6,2.8,3.9h-1l-2.3-3.3h0l-2.4,3.3h-.9Z"/>
    <path class="st3" d="M64.8,319.3l2.8-7.7h.8l-2.8,7.7h-.8Z"/>
    <path class="st3" d="M75.3,319.3c-.7,0-1.2-.1-1.7-.3s-.8-.5-1.1-.9c-.2-.4-.4-.9-.4-1.5v-4.8h.9v4.8c0,.7.2,1.1.6,1.5s.9.5,1.7.5,1.3-.2,1.7-.5.6-.8.6-1.5v-4.8h.9v4.9c0,.9-.3,1.5-.8,2-.5.5-1.3.7-2.3.7h0Z"/>
    <path class="st3" d="M83,319.2v-7.5h.9v7.5h-.9Z"/>
    <path class="st3" d="M91.4,319.2v-7.5h2.6c.8,0,1.5.1,2.1.5s1,.7,1.4,1.3.5,1.2.5,2-.2,1.4-.5,2-.8,1-1.4,1.3c-.6.3-1.3.5-2.1.5h-2.6ZM92.3,318.4h1.7c.9,0,1.7-.3,2.2-.8s.8-1.2.8-2.2-.3-1.7-.8-2.2-1.3-.8-2.2-.8h-1.7v6h0Z"/>
    <path class="st3" d="M104.5,319.3c-.6,0-1.1-.1-1.5-.4s-.7-.6-1-1-.3-1-.3-1.5.1-1.1.3-1.5c.2-.4.6-.8,1-1,.4-.2.9-.4,1.4-.4s1,.1,1.4.3c.4.2.7.5.9.9.2.4.3.9.3,1.4v.4h-4.5c0,.6.2,1.1.6,1.5.3.4.8.5,1.4.5s.7,0,1-.3.5-.4.6-.8h.9c-.1.6-.4,1-.9,1.3s-1,.5-1.6.5h0ZM102.6,315.8h3.6c0-.5-.2-.9-.5-1.2s-.7-.4-1.2-.4-.9.1-1.2.4-.5.7-.6,1.2Z"/>
    <path class="st3" d="M113.1,319.3c-.8,0-1.3-.1-1.8-.5-.4-.3-.7-.8-.7-1.3h.9c0,.4.2.6.5.8.3.2.7.3,1.2.3.9,0,1.4-.3,1.4-.9s0-.4-.2-.6-.4-.2-.7-.3l-1.2-.2c-1-.2-1.5-.7-1.5-1.4s.2-.9.6-1.2c.4-.3.9-.4,1.5-.4s1.2.1,1.6.4.6.7.7,1.2h-.8c0-.3-.2-.6-.5-.7-.2-.2-.6-.2-1-.2s-.7,0-.9.2c-.2.1-.3.4-.3.6s0,.4.2.5c.1.1.4.2.7.3l1.2.2c.5.1.9.3,1.2.5s.4.6.4,1-.2,1-.6,1.2c-.4.3-.9.4-1.7.4h0Z"/>
    <path class="st3" d="M119.8,312.8c-.2,0-.3,0-.4-.2-.1-.1-.2-.2-.2-.4s0-.3.2-.4c.1-.1.2-.2.4-.2s.3,0,.4.2c.1.1.2.2.2.4s0,.3-.2.4c-.1.1-.2.2-.4.2ZM119.3,319.2v-5.5h.9v5.5h-.9Z"/>
    <path class="st3" d="M126.9,321.5c-.7,0-1.3-.2-1.8-.5s-.7-.8-.8-1.3h.9c.2.7.8,1,1.7,1s1.1-.1,1.4-.4c.3-.3.5-.7.5-1.2v-.9h0c-.1.3-.4.6-.7.8s-.7.3-1.2.3-1-.1-1.4-.4-.7-.6-.9-1c-.2-.4-.3-.9-.3-1.5,0-.9.2-1.5.7-2.1s1.1-.8,1.9-.8.8,0,1.1.2c.3.2.6.4.8.7h.4v-.8h1v.9h-.5v4.6c0,.7-.2,1.3-.7,1.7-.5.4-1.2.6-2,.6h0ZM127.1,318.4c.5,0,.9-.1,1.2-.5.3-.3.5-.7.5-1.2v-.9c0-.5-.2-.9-.5-1.2-.3-.3-.7-.5-1.2-.5s-1.1.2-1.4.5c-.3.4-.5.9-.5,1.5s.2,1.2.5,1.5c.3.4.8.5,1.4.5h0Z"/>
    <path class="st3" d="M134.4,319.2v-4.6h-.5v-.9h1v.8h.4c.2-.3.4-.5.8-.7.3-.2.7-.2,1.1-.2.7,0,1.2.2,1.7.6.4.4.6,1,.6,1.6v3.4h-.9v-3.3c0-.5-.1-.9-.4-1.2s-.7-.4-1.2-.4-1,.1-1.2.4-.4.7-.4,1.2v3.3h-.9Z"/>
    <path class="st3" d="M40.1,330.4c-.2,0-.3,0-.5-.2s-.2-.3-.2-.5,0-.3.2-.5c.1-.1.3-.2.5-.2s.3,0,.5.2.2.3.2.5,0,.3-.2.5c-.1.1-.3.2-.5.2Z"/>
    <path class="st3" d="M46.7,332.5l-2.2-7.5h.9l1.8,6.4h0l1.8-6.4h.9l2,6.4h0l1.8-6.4h.9l-2.2,7.5h-1l-2-6.5h0l-1.8,6.5s-1,0-1,0Z"/>
    <path class="st3" d="M61,332.6c-.6,0-1.1-.1-1.5-.4-.4-.2-.7-.6-1-1s-.3-.9-.3-1.5.1-1.1.3-1.5.5-.8,1-1c.4-.2.9-.4,1.5-.4s1.1.1,1.5.4c.4.2.7.6,1,1s.3.9.3,1.5-.1,1.1-.3,1.5c-.2.4-.5.8-1,1-.4.2-.9.4-1.5.4h0ZM61,331.8c.6,0,1.1-.2,1.4-.6s.5-.9.5-1.6-.2-1.2-.5-1.6-.8-.5-1.4-.5-1.1.2-1.4.6c-.3.4-.5.9-.5,1.6s.2,1.2.5,1.6.8.6,1.4.6Z"/>
    <path class="st3" d="M68.2,332.5v-4.6h-.5v-.9h1v1h.4c.2-.3.4-.6.7-.8s.7-.3,1.2-.3h.4v.7h-.5c-.6,0-1,.2-1.4.5-.3.3-.5.8-.5,1.4v2.9h-.9,0Z"/>
    <path class="st3" d="M77.4,332.6c-.5,0-1-.1-1.4-.4s-.7-.6-.9-1c-.2-.4-.3-.9-.3-1.5s0-1.1.3-1.5c.2-.4.5-.8.9-1s.8-.4,1.3-.4.8,0,1.2.3.6.4.8.8h0v-3.1h.9v6.8h.5v.9h-1v-.8h-.4c-.2.3-.4.5-.8.7-.3.2-.7.2-1.1.2h0ZM77.6,331.8c.5,0,1-.1,1.3-.5.3-.3.5-.7.5-1.2v-.9c0-.5-.2-.9-.5-1.2-.3-.3-.8-.5-1.3-.5s-1,.2-1.4.6-.5.9-.5,1.6.2,1.2.5,1.6c.3.4.8.6,1.4.6h0Z"/>
    <path class="st3" d="M84.9,332.5v-7.5h3.3c.8,0,1.5.2,1.9.6.4.4.7,1,.7,1.7s-.2,1.2-.7,1.7-1.1.6-1.9.6h-2.4v2.9h-.9,0ZM85.8,328.8h2.3c.6,0,1-.1,1.3-.4.3-.3.4-.6.4-1.1s-.2-.9-.4-1.1-.7-.4-1.3-.4h-2.3v3.1Z"/>
    <path class="st3" d="M94.9,332.5v-4.6h-.5v-.9h1v1h.4c.2-.3.4-.6.7-.8s.7-.3,1.2-.3h.4v.7h-.5c-.6,0-1,.2-1.4.5-.3.3-.5.8-.5,1.4v2.9h-.9,0Z"/>
    <path class="st3" d="M104.4,332.6c-.6,0-1.1-.1-1.5-.4-.4-.2-.7-.6-1-1s-.3-1-.3-1.5.1-1.1.3-1.5c.2-.4.6-.8,1-1,.4-.2.9-.4,1.4-.4s1,.1,1.4.3c.4.2.7.5.9.9.2.4.3.9.3,1.4v.4h-4.5c0,.6.2,1.1.6,1.5.3.4.8.5,1.4.5s.7,0,1-.3.5-.4.6-.8h.9c-.1.6-.4,1-.9,1.3s-1,.5-1.6.5h0ZM102.5,329.1h3.6c0-.5-.2-.9-.5-1.2-.3-.3-.7-.4-1.2-.4s-.9.1-1.2.4c-.3.3-.5.7-.6,1.2Z"/>
    <path class="st3" d="M113,332.6c-.8,0-1.3-.1-1.8-.5s-.7-.8-.7-1.3h.9c0,.4.2.6.5.8.3.2.7.3,1.2.3.9,0,1.4-.3,1.4-.9s0-.4-.2-.6c-.1-.1-.4-.2-.7-.3l-1.2-.2c-1-.2-1.5-.7-1.5-1.4s.2-.9.6-1.2c.4-.3.9-.4,1.5-.4s1.2.1,1.6.4.6.7.7,1.2h-.8c0-.3-.2-.6-.5-.7s-.6-.2-1-.2-.7,0-.9.2c-.2.1-.3.4-.3.6s0,.4.2.5.4.2.7.3l1.2.2c.5.1.9.3,1.2.5s.4.6.4,1-.2,1-.6,1.2c-.4.3-.9.4-1.7.4h0Z"/>
    <path class="st3" d="M121.2,332.6c-.8,0-1.3-.1-1.8-.5-.4-.3-.7-.8-.7-1.3h.9c0,.4.2.6.5.8.3.2.7.3,1.2.3.9,0,1.4-.3,1.4-.9s0-.4-.2-.6-.4-.2-.7-.3l-1.2-.2c-1-.2-1.5-.7-1.5-1.4s.2-.9.6-1.2c.4-.3.9-.4,1.5-.4s1.2.1,1.6.4.6.7.7,1.2h-.8c0-.3-.2-.6-.5-.7-.2-.2-.6-.2-1-.2s-.7,0-.9.2c-.2.1-.3.4-.3.6s0,.4.2.5c.1.1.4.2.7.3l1.2.2c.5.1.9.3,1.2.5s.4.6.4,1-.2,1-.6,1.2c-.4.3-.9.4-1.7.4h0Z"/>
    <path class="st3" d="M40.1,343.6c-.2,0-.3,0-.5-.2s-.2-.3-.2-.5,0-.3.2-.5c.1-.1.3-.2.5-.2s.3,0,.5.2.2.3.2.5,0,.3-.2.5c-.1.1-.3.2-.5.2Z"/>
    <path class="st3" d="M46,345.7h-.9v-7.5h5v.8h-4.2v2.6h3.9v.8h-3.9v3.4h0Z"/>
    <path class="st3" d="M54.2,345.7v-4.6h-.5v-.9h1v1h.4c.2-.3.4-.6.7-.8s.7-.3,1.2-.3h.5v.7h-.5c-.6,0-1,.2-1.4.5-.3.3-.5.8-.5,1.4v2.9h-.9,0Z"/>
    <path class="st3" d="M63.6,345.8c-.6,0-1.1-.1-1.5-.4-.4-.2-.7-.6-1-1s-.3-.9-.3-1.5.1-1.1.3-1.5.5-.8,1-1c.4-.2.9-.4,1.5-.4s1.1.1,1.5.4.7.6,1,1,.3.9.3,1.5-.1,1.1-.3,1.5c-.2.4-.6.8-1,1s-.9.4-1.5.4h0ZM63.6,345.1c.6,0,1.1-.2,1.4-.6s.5-.9.5-1.6-.2-1.2-.5-1.6c-.3-.4-.8-.5-1.4-.5s-1.1.2-1.4.6c-.3.4-.5.9-.5,1.6s.2,1.2.5,1.6.8.6,1.4.6Z"/>
    <path class="st3" d="M70.6,345.7v-4.6h-.5v-.9h1v.8h.4c.2-.3.4-.5.8-.7s.7-.2,1.2-.2c.7,0,1.2.2,1.7.6.4.4.6,1,.6,1.6v3.4h-.9v-3.3c0-.5-.1-.9-.4-1.2s-.7-.4-1.2-.4-1,.1-1.2.4c-.3.3-.4.7-.4,1.2v3.3h-.9Z"/>
    <path class="st3" d="M81.3,345.7c-.3,0-.5,0-.6-.2s-.2-.3-.2-.6v-4.1h-1.1v-.7h1.1v-1.7h.8v1.7h1.5v.7h-1.5v4.2h1.7v.7h-1.7Z"/>
    <path class="st3" d="M89.2,345.8c-.6,0-1.1-.1-1.5-.4-.4-.2-.7-.6-1-1s-.3-1-.3-1.5.1-1.1.3-1.5c.2-.4.6-.8,1-1,.4-.2.9-.4,1.4-.4s1,.1,1.4.3c.4.2.7.5.9.9s.3.9.3,1.4v.4h-4.5c0,.6.2,1.1.6,1.5s.8.5,1.4.5.7,0,1-.3.5-.4.6-.8h.9c-.1.6-.4,1-.9,1.3s-1,.5-1.6.5h0ZM87.3,342.4h3.6c0-.5-.2-.9-.5-1.2-.3-.3-.7-.4-1.2-.4s-.9.1-1.2.4c-.3.3-.5.7-.6,1.2Z"/>
    <path class="st3" d="M96,345.7v-4.6h-.5v-.9h1v.8h.4c.2-.3.4-.5.8-.7s.7-.2,1.2-.2c.7,0,1.2.2,1.7.6.4.4.6,1,.6,1.6v3.4h-.9v-3.3c0-.5-.1-.9-.4-1.2s-.7-.4-1.2-.4-1,.1-1.2.4-.4.7-.4,1.2v3.3h-.9Z"/>
    <path class="st3" d="M107.7,345.8c-.5,0-1-.1-1.4-.4s-.7-.6-.9-1c-.2-.4-.3-.9-.3-1.5s0-1.1.3-1.5c.2-.4.5-.8.9-1s.8-.4,1.3-.4.8,0,1.2.3.6.4.8.8h0v-3.1h.9v6.8h.5v.9h-1v-.8h-.4c-.2.3-.4.5-.8.7-.3.2-.7.2-1.1.2h0ZM107.8,345.1c.5,0,1-.1,1.3-.5s.5-.7.5-1.2v-.9c0-.5-.2-.9-.5-1.2-.3-.3-.8-.5-1.3-.5s-1,.2-1.4.6-.5.9-.5,1.6.2,1.2.5,1.6c.3.4.8.6,1.4.6h0Z"/>
    <path class="st3" d="M117.9,345.7v-7.5h2.6c.8,0,1.5.1,2.1.5s1,.7,1.4,1.3.5,1.2.5,2-.2,1.4-.5,2-.8,1-1.4,1.3c-.6.3-1.3.5-2.1.5h-2.6ZM118.8,345h1.7c.9,0,1.7-.3,2.2-.8s.8-1.2.8-2.2-.3-1.7-.8-2.2-1.3-.8-2.2-.8h-1.7v6h0Z"/>
    <path class="st3" d="M131,345.8c-.6,0-1.1-.1-1.5-.4-.4-.2-.7-.6-1-1s-.3-1-.3-1.5.1-1.1.3-1.5.6-.8,1-1c.4-.2.9-.4,1.4-.4s1,.1,1.4.3c.4.2.7.5.9.9.2.4.3.9.3,1.4v.4h-4.5c0,.6.2,1.1.6,1.5.4.4.8.5,1.4.5s.7,0,1-.3.5-.4.6-.8h.9c-.1.6-.4,1-.9,1.3s-1,.5-1.6.5h0ZM129.1,342.4h3.6c0-.5-.2-.9-.5-1.2s-.7-.4-1.2-.4-.9.1-1.2.4-.5.7-.6,1.2Z"/>
    <path class="st3" d="M139.2,345.7l-2.4-5.5h.9l2,4.7h0l1.9-4.7h.9l-2.4,5.5h-1Z"/>
    <path class="st3" d="M148.7,345.8c-.6,0-1.1-.1-1.5-.4-.4-.2-.7-.6-1-1s-.3-1-.3-1.5.1-1.1.3-1.5.6-.8,1-1c.4-.2.9-.4,1.4-.4s1,.1,1.4.3c.4.2.7.5.9.9.2.4.3.9.3,1.4v.4h-4.5c0,.6.2,1.1.6,1.5.4.4.8.5,1.4.5s.7,0,1-.3.5-.4.6-.8h.9c-.1.6-.4,1-.9,1.3s-1,.5-1.6.5h0ZM146.8,342.4h3.6c0-.5-.2-.9-.5-1.2s-.7-.4-1.2-.4-.9.1-1.2.4-.5.7-.6,1.2Z"/>
    <path class="st3" d="M155.3,345.7v-7.8h.9v7.8h-.9Z"/>
    <path class="st3" d="M163.1,345.8c-.6,0-1.1-.1-1.5-.4-.4-.2-.7-.6-1-1s-.4-.9-.4-1.5.1-1.1.3-1.5.6-.8,1-1,.9-.4,1.5-.4,1.1.1,1.5.4.7.6,1,1,.3.9.3,1.5-.1,1.1-.3,1.5c-.2.4-.6.8-1,1s-.9.4-1.5.4h0ZM163.1,345.1c.6,0,1.1-.2,1.4-.6s.5-.9.5-1.6-.2-1.2-.5-1.6-.8-.5-1.4-.5-1.1.2-1.4.6-.5.9-.5,1.6.2,1.2.5,1.6.8.6,1.4.6Z"/>
    <path class="st3" d="M170.1,348v-6.8h-.5v-.9h1v.8h.4c.2-.3.4-.5.8-.7.3-.2.7-.2,1.1-.2s1,.1,1.4.4.7.6.9,1,.3.9.3,1.5-.1,1.1-.3,1.5-.5.8-.9,1c-.4.2-.8.4-1.4.4s-.8,0-1.2-.3-.6-.4-.8-.8h0v3.1h-.9ZM172.7,345.1c.6,0,1-.2,1.4-.6s.5-.9.5-1.6-.2-1.2-.5-1.6-.8-.6-1.4-.6-1,.1-1.3.5c-.3.3-.5.7-.5,1.2v.9c0,.5.2.9.5,1.2s.8.5,1.3.5h0Z"/>
    <path class="st3" d="M179.7,345.7v-4.6h-.5v-.9h1v.8h.5c.1-.3.4-.5.7-.7s.7-.2,1.1-.2.8,0,1.1.3.5.5.7.8h0c.4-.7,1-1.1,1.9-1.1s1.2.2,1.6.6c.4.4.6.9.6,1.6v3.5h-.9v-3.4c0-1-.5-1.5-1.5-1.5s-1.5.5-1.5,1.5v3.4h-.9v-3.4c0-1-.5-1.5-1.5-1.5s-.9.1-1.1.4-.4.6-.4,1.1v3.4h-.9Z"/>
    <path class="st3" d="M195.1,345.8c-.6,0-1.1-.1-1.5-.4-.4-.2-.7-.6-1-1s-.3-1-.3-1.5.1-1.1.3-1.5.6-.8,1-1c.4-.2.9-.4,1.4-.4s1,.1,1.4.3c.4.2.7.5.9.9.2.4.3.9.3,1.4v.4h-4.5c0,.6.2,1.1.6,1.5.4.4.8.5,1.4.5s.7,0,1-.3.5-.4.6-.8h.9c-.1.6-.4,1-.9,1.3s-1,.5-1.6.5h0ZM193.1,342.4h3.6c0-.5-.2-.9-.5-1.2s-.7-.4-1.2-.4-.9.1-1.2.4-.5.7-.6,1.2Z"/>
    <path class="st3" d="M201.8,345.7v-4.6h-.5v-.9h1v.8h.4c.2-.3.4-.5.8-.7.3-.2.7-.2,1.1-.2.7,0,1.2.2,1.7.6.4.4.6,1,.6,1.6v3.4h-.9v-3.3c0-.5-.1-.9-.4-1.2s-.7-.4-1.2-.4-1,.1-1.2.4-.4.7-.4,1.2v3.3h-.9Z"/>
    <path class="st3" d="M212.5,345.7c-.3,0-.5,0-.6-.2-.1-.1-.2-.3-.2-.6v-4.1h-1.1v-.7h1.1v-1.7h.9v1.7h1.5v.7h-1.5v4.2h1.6v.7h-1.7Z"/>
    <g class="st0">
      <path class="st3" d="M40.1,356.9c-.2,0-.3,0-.5-.2s-.2-.3-.2-.5,0-.3.2-.5c.1-.1.3-.2.5-.2s.3,0,.5.2.2.3.2.5,0,.3-.2.5c-.1.1-.3.2-.5.2Z"/>
      <path class="st3" d="M47.7,359.1c-.9,0-1.7-.2-2.2-.6s-.9-1-.9-1.7h1c0,.5.2.9.6,1.1.4.3.9.4,1.7.4s1.1-.1,1.4-.3c.3-.2.5-.6.5-1s-.1-.6-.3-.9c-.2-.2-.6-.4-1-.5l-1.4-.3c-.6-.1-1.1-.4-1.5-.7s-.5-.7-.5-1.2.2-1.1.7-1.5c.5-.4,1.1-.6,1.9-.6s1.5.2,2,.6c.5.4.8.9.9,1.6h-1c-.2-1-.9-1.4-2-1.4s-1,.1-1.3.3c-.3.2-.5.5-.5.9,0,.6.5,1,1.4,1.2l1.5.3c.6.1,1.1.4,1.4.7.3.3.5.8.5,1.3s-.2,1.2-.8,1.6c-.5.4-1.2.6-2.1.6h0Z"/>
      <path class="st3" d="M60,359h-5.1v-7.5h5.1v.8h-4.2v2.5h4v.7h-4v2.8h4.2v.8h0Z"/>
      <path class="st3" d="M67.4,359.1c-.8,0-1.4-.2-2-.5-.6-.3-1-.8-1.3-1.3-.3-.6-.5-1.2-.5-2s.2-1.5.5-2,.7-1,1.3-1.3c.6-.3,1.2-.5,2-.5s1.4.2,2,.5c.6.3,1,.8,1.3,1.3s.5,1.2.5,2-.2,1.5-.5,2-.7,1-1.3,1.3c-.6.3-1.2.5-2,.5ZM67.4,358.4c.9,0,1.6-.3,2.1-.8.5-.5.8-1.3.8-2.2s-.2-1.7-.8-2.3c-.5-.5-1.2-.8-2.1-.8s-1.6.3-2.1.8c-.5.5-.8,1.3-.8,2.3s.2,1.7.8,2.2c.5.5,1.2.8,2.1.8h0Z"/>
    </g>
    <g class="st0">
      <path class="st3" d="M40.1,370.2c-.2,0-.3,0-.5-.2s-.2-.3-.2-.5,0-.3.2-.5c.1-.1.3-.2.5-.2s.3,0,.5.2.2.3.2.5,0,.3-.2.5c-.1.1-.3.2-.5.2Z"/>
      <path class="st3" d="M46.7,372.3l-2.2-7.5h.9l1.8,6.4h0l1.8-6.4h.9l2,6.4h0l1.8-6.4h.9l-2.2,7.5h-1l-2-6.5h0l-1.8,6.5s-1,0-1,0Z"/>
      <path class="st3" d="M61,372.4c-.6,0-1.1-.1-1.5-.4-.4-.2-.7-.6-1-1s-.3-1-.3-1.5.1-1.1.3-1.5.5-.8,1-1c.4-.2.9-.4,1.5-.4s1,.1,1.4.3c.4.2.7.5.9.9s.3.9.3,1.4v.4h-4.5c0,.6.2,1.1.6,1.5s.8.5,1.4.5.7,0,1-.3.5-.4.6-.8h.9c-.1.6-.4,1-.9,1.3s-1,.5-1.6.5h0ZM59.1,369h3.6c0-.5-.2-.9-.5-1.2-.3-.3-.7-.4-1.2-.4s-.9.1-1.2.4-.5.7-.6,1.2Z"/>
      <path class="st3" d="M70.6,372.4c-.4,0-.8,0-1.1-.2s-.6-.4-.8-.7h-.4v.8h-1v-.9h.5v-6.8h.9v3.1h0c.2-.3.4-.6.8-.8.3-.2.7-.3,1.2-.3s1,.1,1.3.4.7.6.9,1c.2.4.3.9.3,1.5s0,1.1-.3,1.5-.5.8-.9,1-.8.4-1.4.4h0ZM70.4,371.7c.6,0,1-.2,1.4-.6s.5-.9.5-1.6-.2-1.2-.5-1.6c-.3-.4-.8-.6-1.4-.6s-1,.1-1.3.5c-.3.3-.5.7-.5,1.2v.9c0,.5.2.9.5,1.2.3.3.8.5,1.3.5h0Z"/>
      <path class="st3" d="M80.1,372.3v-7.5h1.3l2.7,6.3h0l2.7-6.3h1.3v7.5h-.9v-6.5h0l-2.8,6.5h-.7l-2.8-6.5h0v6.5h-.8Z"/>
      <path class="st3" d="M94.4,372.4c-.6,0-1.1-.2-1.5-.5s-.5-.7-.5-1.2.2-.9.5-1.2.8-.4,1.5-.4h2v-.3c0-1-.5-1.4-1.5-1.4s-1.3.3-1.5.9h-.9c0-.5.3-.9.8-1.2s1-.4,1.6-.4,1.3.2,1.7.5c.4.4.6.9.6,1.5v2.6h.4v.9h-1v-.8h-.4c-.2.3-.4.5-.8.7-.3.2-.7.2-1.1.2h0ZM94.5,371.7c.3,0,.7,0,1-.2s.5-.4.7-.6c.2-.2.3-.5.3-.8v-.3h-1.9c-.8,0-1.3.3-1.3,1s.1.5.3.7.6.3.9.3h0Z"/>
      <path class="st3" d="M102,372.3v-4.6h-.5v-.9h1v1h.4c.2-.3.4-.6.7-.8s.7-.3,1.2-.3h.4v.7h-.5c-.6,0-1,.2-1.4.5-.3.3-.5.8-.5,1.4v2.9h-.9,0Z"/>
      <path class="st3" d="M109,372.3v-7.8h.9v4.9h0l2.8-2.7h1.1l-2.6,2.3,2.8,3.2h-1.1l-2.3-2.7-.8.6v2h-.9Z"/>
      <path class="st3" d="M120.2,372.4c-.6,0-1.1-.1-1.5-.4s-.7-.6-1-1-.3-1-.3-1.5.1-1.1.3-1.5c.2-.4.6-.8,1-1,.4-.2.9-.4,1.4-.4s1,.1,1.4.3c.4.2.7.5.9.9.2.4.3.9.3,1.4v.4h-4.5c0,.6.2,1.1.6,1.5.3.4.8.5,1.4.5s.7,0,1-.3.5-.4.6-.8h.9c-.1.6-.4,1-.9,1.3s-1,.5-1.6.5h0ZM118.3,369h3.6c0-.5-.2-.9-.5-1.2s-.7-.4-1.2-.4-.9.1-1.2.4-.5.7-.6,1.2Z"/>
      <path class="st3" d="M128.1,372.3c-.3,0-.5,0-.6-.2s-.2-.3-.2-.6v-4.1h-1.1v-.7h1.1v-1.7h.9v1.7h1.5v.7h-1.5v4.2h1.6v.7h-1.7Z"/>
      <path class="st3" d="M134.1,365.9c-.1,0-.3,0-.4-.2s-.2-.2-.2-.4,0-.3.2-.4.2-.2.4-.2.3,0,.4.2.2.2.2.4,0,.3-.2.4-.2.2-.4.2ZM133.6,372.3v-5.5h.9v5.5h-.9Z"/>
      <path class="st3" d="M139.1,372.3v-4.6h-.5v-.9h1v.8h.4c.2-.3.4-.5.8-.7.3-.2.7-.2,1.1-.2.7,0,1.2.2,1.7.6.4.4.6,1,.6,1.6v3.4h-.9v-3.3c0-.5-.1-.9-.4-1.2s-.7-.4-1.2-.4-1,.1-1.2.4-.4.7-.4,1.2v3.3h-.9Z"/>
      <path class="st3" d="M150.8,374.6c-.7,0-1.4-.2-1.8-.5s-.7-.8-.8-1.3h.9c.2.7.8,1,1.7,1s1.1-.1,1.4-.4c.3-.3.5-.7.5-1.2v-.9h0c-.1.3-.4.6-.7.8s-.7.3-1.2.3-1-.1-1.4-.4-.7-.6-.9-1c-.2-.4-.3-.9-.3-1.5,0-.9.2-1.5.7-2.1s1.1-.8,1.9-.8.8,0,1.1.2c.3.2.6.4.8.7h.4v-.8h1v.9h-.5v4.6c0,.7-.2,1.3-.7,1.7s-1.2.6-2,.6h0ZM151,371.5c.5,0,.9-.1,1.2-.5.3-.3.5-.7.5-1.2v-.9c0-.5-.2-.9-.5-1.2-.3-.3-.7-.5-1.2-.5s-1.1.2-1.4.5-.5.9-.5,1.5.2,1.2.5,1.5.8.5,1.4.5h0Z"/>
    </g>
    <g class="st0">
      <path class="st3" d="M28.6,9.4V.3h2.7v1.1h-1.5v7h1.5v1.1h-2.7Z"/>
      <path class="st3" d="M35.6,5.8c-.2,0-.4,0-.6-.2-.2-.2-.2-.4-.2-.6s0-.4.2-.6.4-.2.6-.2.4,0,.6.2c.2.2.2.4.2.6s0,.4-.2.6-.4.2-.6.2Z"/>
      <path class="st3" d="M43.3,7.9c-1,0-1.8-.2-2.4-.7s-.9-1-1-1.8h1.5c0,.4.2.8.6,1,.3.2.8.3,1.4.3s.9,0,1.2-.3c.3-.2.4-.4.4-.8s0-.5-.3-.6c-.2-.2-.5-.3-.8-.4l-1.5-.3c-.7-.1-1.2-.4-1.5-.7s-.5-.8-.5-1.3.2-1.2.8-1.6c.5-.4,1.2-.6,2.1-.6s1.6.2,2.2.6.9,1,.9,1.7h-1.5c-.2-.8-.8-1.2-1.7-1.2s-.8,0-1,.2-.4.4-.4.7c0,.5.3.8,1,.9l1.6.3c.7.1,1.2.4,1.5.7.3.3.5.8.5,1.4s-.3,1.3-.8,1.7-1.3.6-2.2.6h0Z"/>
      <path class="st3" d="M50,7.8V0h1.4v4.3h0l2.3-2.1h1.6l-2.4,2.2,2.6,3.4h-1.6l-1.9-2.5-.7.5v2h-1.4,0Z"/>
      <path class="st3" d="M59.7,1.6c-.2,0-.4,0-.5-.2-.2-.1-.2-.3-.2-.6s0-.4.2-.6c.2-.2.3-.2.5-.2s.4,0,.5.2c.2.2.2.3.2.6s0,.4-.2.6c-.2.1-.3.2-.5.2ZM59,7.8V2.2h1.4v5.5h-1.4Z"/>
      <path class="st3" d="M64.4,7.8V0h1.4v7.8h-1.4Z"/>
      <path class="st3" d="M69.8,7.8V0h1.4v7.8h-1.4Z"/>
      <path class="st3" d="M77.5,7.9c-.8,0-1.4-.2-1.9-.5s-.7-.8-.8-1.4h1.3c0,.3.2.5.4.6s.5.2,1,.2c.7,0,1.1-.2,1.1-.6s0-.3-.2-.4c-.1,0-.3-.2-.5-.2l-1.2-.2c-1.1-.2-1.6-.7-1.6-1.5s.2-.9.6-1.2,1-.5,1.7-.5,1.3.2,1.7.5c.4.3.7.8.7,1.3h-1.3c0-.3-.2-.5-.4-.6-.2-.1-.5-.2-.8-.2s-.6,0-.7.2c-.2,0-.2.2-.2.4s0,.2.2.3c0,0,.3.2.5.2l1.2.2c.6.1,1,.3,1.2.6.3.3.4.6.4,1s-.2,1-.6,1.3-1,.5-1.8.5h0Z"/>
      <path class="st3" d="M84.2,5.8c-.2,0-.4,0-.6-.2s-.2-.4-.2-.6,0-.4.2-.6.4-.2.6-.2.4,0,.6.2.2.4.2.6,0,.4-.2.6-.4.2-.6.2Z"/>
      <path class="st3" d="M88.4,9.4v-1.1h1.5V1.3h-1.5V.3h2.7v9.1h-2.7Z"/>
    </g>
    <g class="st0">
      <text class="st1" transform="translate(27.9 21)"><tspan x="0" y="0" xml:space="preserve">    </tspan></text>
    </g>
    <g class="st0">
      <path class="st3" d="M39.7,18.9c-.2,0-.3,0-.5-.2-.1-.1-.2-.3-.2-.5s0-.3.2-.5c.1-.1.3-.2.5-.2s.3,0,.5.2c.1.1.2.3.2.5s0,.3-.2.5c-.1.1-.3.2-.5.2Z"/>
      <path class="st3" d="M44.6,21v-7.5h3.3c.8,0,1.5.2,1.9.6s.7,1,.7,1.7-.2,1.3-.7,1.7-1.1.6-1.9.6h-2.4v2.9h-.9,0ZM45.5,17.4h2.3c.6,0,1-.1,1.3-.4.3-.3.4-.6.4-1.1s-.2-.9-.4-1.1c-.3-.3-.7-.4-1.3-.4h-2.3v3.1Z"/>
      <path class="st3" d="M54.3,21v-7.8h.9v3.1h0c.2-.3.4-.6.8-.8.3-.2.7-.3,1.2-.3.7,0,1.2.2,1.7.6.4.4.6,1,.6,1.6v3.4h-.9v-3.3c0-.5-.1-.9-.4-1.2s-.7-.4-1.2-.4-1,.1-1.2.4-.4.7-.4,1.2v3.3h-.9Z"/>
      <path class="st3" d="M66.2,21.1c-.6,0-1.1-.1-1.5-.4-.4-.2-.7-.6-1-1s-.3-.9-.3-1.5.1-1.1.3-1.5.5-.8,1-1,.9-.4,1.5-.4,1.1.1,1.5.4c.4.2.7.6,1,1s.3.9.3,1.5-.1,1.1-.3,1.5c-.2.4-.6.8-1,1s-.9.4-1.5.4h0ZM66.2,20.4c.6,0,1.1-.2,1.4-.6s.5-.9.5-1.6-.2-1.2-.5-1.6c-.3-.4-.8-.5-1.4-.5s-1.1.2-1.4.6c-.3.4-.5.9-.5,1.6s.2,1.2.5,1.6c.3.4.8.6,1.4.6Z"/>
      <path class="st3" d="M74.3,21c-.3,0-.5,0-.6-.2s-.2-.3-.2-.6v-4.1h-1.1v-.7h1.1v-1.7h.8v1.7h1.5v.7h-1.5v4.2h1.7v.7h-1.7Z"/>
      <path class="st3" d="M82.2,21.1c-.6,0-1.1-.1-1.5-.4-.4-.2-.7-.6-1-1s-.3-.9-.3-1.5.1-1.1.3-1.5c.2-.4.6-.8,1-1s.9-.4,1.5-.4,1.1.1,1.5.4c.4.2.7.6,1,1s.3.9.3,1.5-.1,1.1-.3,1.5c-.2.4-.6.8-1,1s-.9.4-1.5.4h0ZM82.2,20.4c.6,0,1.1-.2,1.4-.6s.5-.9.5-1.6-.2-1.2-.5-1.6c-.3-.4-.8-.5-1.4-.5s-1.1.2-1.4.6c-.3.4-.5.9-.5,1.6s.2,1.2.5,1.6c.3.4.8.6,1.4.6Z"/>
      <path class="st3" d="M91.4,23.4c-.7,0-1.3-.2-1.8-.5s-.7-.8-.8-1.3h.9c.2.7.8,1,1.7,1s1.1-.1,1.4-.4c.3-.3.5-.7.5-1.2v-.9h0c-.1.3-.4.6-.7.8s-.7.3-1.2.3-1-.1-1.4-.4-.7-.6-.9-1c-.2-.4-.3-.9-.3-1.5,0-.9.2-1.5.7-2.1.5-.5,1.1-.8,1.9-.8s.8,0,1.1.2.6.4.8.7h.4v-.8h1v.9h-.5v4.6c0,.7-.2,1.3-.7,1.7s-1.2.6-2,.6h0ZM91.6,20.3c.5,0,.9-.1,1.2-.5.3-.3.5-.7.5-1.2v-.9c0-.5-.2-.9-.5-1.2-.3-.3-.7-.5-1.2-.5s-1.1.2-1.4.5c-.3.4-.5.9-.5,1.5s.2,1.2.5,1.5c.3.4.8.5,1.4.5h0Z"/>
      <path class="st3" d="M99,21v-4.6h-.5v-.9h1v1h.4c.2-.3.4-.6.7-.8.3-.2.7-.3,1.2-.3h.4v.7h-.5c-.6,0-1,.2-1.4.5-.3.3-.5.8-.5,1.4v2.9h-.9,0Z"/>
      <path class="st3" d="M107.6,21.1c-.6,0-1.1-.2-1.5-.5s-.5-.7-.5-1.2.2-.9.5-1.2c.3-.3.8-.4,1.5-.4h2v-.3c0-1-.5-1.4-1.5-1.4s-1.3.3-1.5.9h-.9c0-.5.3-.9.8-1.2.4-.3,1-.4,1.6-.4s1.3.2,1.7.5c.4.4.6.9.6,1.5v2.6h.4v.9h-1v-.8h-.4c-.2.3-.4.5-.8.7-.3.2-.7.2-1.1.2h0ZM107.7,20.4c.3,0,.7,0,1-.2s.5-.4.7-.6c.2-.2.3-.5.3-.8v-.3h-1.9c-.8,0-1.3.3-1.3,1s.1.5.3.7.6.3.9.3h0Z"/>
      <path class="st3" d="M115.1,23.2v-6.8h-.5v-.9h1v.8h.4c.2-.3.4-.5.8-.7.3-.2.7-.2,1.1-.2s1,.1,1.4.4.7.6.9,1,.3.9.3,1.5,0,1.1-.3,1.5c-.2.4-.5.8-.9,1s-.8.4-1.3.4-.8,0-1.2-.3-.6-.4-.8-.8h0v3.1h-.9ZM117.7,20.4c.6,0,1-.2,1.4-.6.3-.4.5-.9.5-1.6s-.2-1.2-.5-1.6-.8-.6-1.4-.6-1,.1-1.3.5c-.3.3-.5.7-.5,1.2v.9c0,.5.2.9.5,1.2.3.3.8.5,1.3.5Z"/>
      <path class="st3" d="M124.5,21v-7.8h.9v3.1h0c.2-.3.4-.6.8-.8s.7-.3,1.2-.3c.7,0,1.2.2,1.7.6.4.4.6,1,.6,1.6v3.4h-.9v-3.3c0-.5-.1-.9-.4-1.2s-.7-.4-1.2-.4-1,.1-1.2.4-.4.7-.4,1.2v3.3h-.9Z"/>
      <path class="st3" d="M133.7,23.2v-.7h1.4l.6-1.5-2.5-5.6h.9l2,4.5h0l1.9-4.5h.8l-2.4,5.5-.6,1.4c-.1.2-.2.5-.3.6s-.3.2-.5.2h-1.4Z"/>
    </g>
    <g class="st0">
      <path class="st3" d="M40.1,32.2c-.2,0-.3,0-.5-.2-.1-.1-.2-.3-.2-.5s0-.3.2-.5c.1-.1.3-.2.5-.2s.3,0,.5.2c.1.1.2.3.2.5s0,.3-.2.5c-.1.1-.3.2-.5.2Z"/>
      <path class="st3" d="M45.1,34.3v-7.5h.9v7.5h-.9Z"/>
      <path class="st3" d="M50.6,34.3v-7.8h.9v7.8h-.9Z"/>
      <path class="st3" d="M55.9,34.3v-7.8h.9v7.8h-.9Z"/>
      <path class="st3" d="M63.4,34.4c-.7,0-1.2-.2-1.6-.6s-.6-.9-.6-1.6v-3.5h.9v3.3c0,.5.1.9.4,1.2s.7.4,1.2.4,1-.1,1.3-.4.5-.7.5-1.2v-3.3h.9v4.6h.5v.9h-1v-.8h-.4c-.2.3-.4.5-.8.7-.3.2-.7.2-1.2.2h0Z"/>
      <path class="st3" d="M72.9,34.4c-.8,0-1.3-.2-1.8-.5-.4-.3-.7-.8-.7-1.3h.9c0,.4.2.6.5.8.3.2.7.3,1.2.3.9,0,1.4-.3,1.4-.9s0-.4-.2-.6-.4-.2-.7-.3l-1.2-.2c-1-.2-1.5-.7-1.5-1.4s.2-.9.6-1.2c.4-.3.9-.4,1.5-.4s1.2.1,1.6.4.6.7.7,1.2h-.8c0-.3-.2-.6-.5-.7-.2-.2-.6-.2-1-.2s-.7,0-.9.2c-.2.1-.3.4-.3.6s0,.4.2.5.4.2.7.3l1.2.2c.5.1.9.3,1.2.5s.4.6.4,1-.2,1-.6,1.2c-.4.3-.9.4-1.7.4h0Z"/>
      <path class="st3" d="M80.3,34.3c-.3,0-.5,0-.6-.2s-.2-.3-.2-.6v-4.1h-1.1v-.7h1.1v-1.7h.8v1.7h1.5v.7h-1.5v4.2h1.7v.7h-1.7Z"/>
      <path class="st3" d="M86.1,34.3v-4.6h-.5v-.9h1v1h.4c.2-.3.4-.6.7-.8s.7-.3,1.2-.3h.4v.7h-.5c-.6,0-1,.2-1.4.5-.3.3-.5.8-.5,1.4v2.9h-.9,0Z"/>
      <path class="st3" d="M94.6,34.4c-.6,0-1.1-.2-1.5-.5s-.5-.7-.5-1.2.2-.9.5-1.2c.3-.3.8-.4,1.5-.4h2v-.3c0-1-.5-1.4-1.5-1.4s-1.3.3-1.5.9h-.9c0-.5.3-.9.8-1.2s1-.4,1.6-.4,1.3.2,1.7.5.6.9.6,1.5v2.6h.4v.9h-1v-.8h-.4c-.2.3-.5.5-.8.7-.3.2-.7.2-1.1.2h0ZM94.8,33.7c.3,0,.7,0,1-.2s.5-.3.7-.6c.2-.2.3-.5.3-.8v-.3h-1.9c-.8,0-1.3.3-1.3,1s.1.5.3.7.6.3.9.3h0Z"/>
      <path class="st3" d="M103.2,34.3c-.3,0-.5,0-.6-.2-.2-.1-.2-.3-.2-.6v-4.1h-1.1v-.7h1.1v-1.7h.8v1.7h1.5v.7h-1.5v4.2h1.7v.7h-1.7Z"/>
      <path class="st3" d="M109.2,28c-.2,0-.3,0-.4-.2s-.2-.2-.2-.4,0-.3.2-.4c.1-.1.2-.2.4-.2s.3,0,.4.2.2.2.2.4,0,.3-.2.4c-.1.1-.2.2-.4.2ZM108.8,34.3v-5.5h.9v5.5h-.9Z"/>
      <path class="st3" d="M116.6,34.4c-.6,0-1.1-.1-1.5-.3s-.7-.6-1-1-.3-.9-.3-1.5.1-1.1.3-1.5c.2-.4.6-.8,1-1s.9-.4,1.5-.4,1.1.1,1.5.4.7.6,1,1c.2.4.3.9.3,1.5s-.1,1.1-.3,1.5c-.2.4-.6.8-1,1s-.9.3-1.5.3h0ZM116.6,33.7c.6,0,1.1-.2,1.4-.6.3-.4.5-.9.5-1.6s-.2-1.2-.5-1.6c-.3-.4-.8-.5-1.4-.5s-1.1.2-1.4.6c-.3.4-.5.9-.5,1.6s.2,1.2.5,1.6c.3.4.8.6,1.4.6Z"/>
      <path class="st3" d="M123.6,34.3v-4.6h-.5v-.9h1v.8h.4c.2-.3.4-.5.8-.7s.7-.2,1.2-.2c.7,0,1.2.2,1.7.6.4.4.6,1,.6,1.6v3.4h-.9v-3.3c0-.5-.1-.9-.4-1.2s-.7-.4-1.2-.4-1,.1-1.2.4-.4.7-.4,1.2v3.3h-.9Z"/>
    </g>
    <g class="st0">
      <text class="st1" transform="translate(27.9 47.6)"><tspan x="0" y="0" xml:space="preserve">    </tspan></text>
    </g>
    <g class="st0">
      <path class="st3" d="M39.7,45.5c-.2,0-.3,0-.5-.2-.1-.1-.2-.3-.2-.5s0-.3.2-.5c.1-.1.3-.2.5-.2s.3,0,.5.2c.1.1.2.3.2.5s0,.3-.2.5c-.1.1-.3.2-.5.2Z"/>
      <path class="st3" d="M44.6,47.6v-7.5h.9v7.5h-.9Z"/>
      <path class="st3" d="M50.1,47.6v-7.8h.9v7.8h-.9Z"/>
      <path class="st3" d="M55.5,47.6v-7.8h.9v7.8h-.9Z"/>
      <path class="st3" d="M63,47.7c-.7,0-1.2-.2-1.6-.6s-.6-.9-.6-1.6v-3.5h.9v3.3c0,.5.1.9.4,1.2s.7.4,1.2.4,1-.1,1.3-.4.5-.7.5-1.2v-3.3h.9v4.6h.5v.9h-1v-.8h-.4c-.2.3-.4.5-.8.7-.3.2-.7.2-1.2.2h0Z"/>
      <path class="st3" d="M72.4,47.7c-.8,0-1.3-.2-1.8-.5-.4-.3-.7-.8-.7-1.3h.9c0,.4.2.6.5.8.3.2.7.3,1.2.3.9,0,1.4-.3,1.4-.9s0-.4-.2-.6-.4-.2-.7-.3l-1.2-.2c-1-.2-1.5-.7-1.5-1.4s.2-.9.6-1.2c.4-.3.9-.4,1.5-.4s1.2.2,1.6.4c.4.3.6.7.7,1.2h-.8c0-.3-.2-.6-.5-.7-.2-.2-.6-.2-1-.2s-.7,0-.9.2c-.2.2-.3.4-.3.6s0,.4.2.5.4.2.7.3l1.2.2c.5,0,.9.3,1.2.5s.4.6.4,1-.2,1-.6,1.2c-.4.3-.9.4-1.7.4h0Z"/>
      <path class="st3" d="M79.8,47.6c-.3,0-.5,0-.6-.2s-.2-.3-.2-.6v-4.1h-1.1v-.7h1.1v-1.7h.8v1.7h1.5v.7h-1.5v4.2h1.7v.7h-1.7Z"/>
      <path class="st3" d="M85.6,47.6v-4.6h-.5v-.9h1v1h.4c.2-.3.4-.6.7-.8s.7-.3,1.2-.3h.4v.7h-.5c-.6,0-1,.2-1.4.5-.3.3-.5.8-.5,1.4v2.9h-.9,0Z"/>
      <path class="st3" d="M94.2,47.7c-.6,0-1.1-.2-1.5-.5s-.5-.7-.5-1.2.2-.9.5-1.2.8-.4,1.5-.4h2v-.3c0-1-.5-1.4-1.5-1.4s-1.3.3-1.5.9h-.9c0-.5.3-.9.8-1.2.4-.3,1-.4,1.6-.4s1.3.2,1.7.5.6.9.6,1.5v2.6h.4v.9h-1v-.8h-.4c-.2.3-.5.5-.8.7-.3.2-.7.2-1.1.2h0ZM94.3,47c.3,0,.7,0,1-.2s.5-.3.7-.6c.2-.2.3-.5.3-.8v-.3h-1.9c-.8,0-1.3.3-1.3,1s.1.5.3.7.6.3.9.3h0Z"/>
      <path class="st3" d="M102.8,47.6c-.3,0-.5,0-.6-.2-.2-.1-.2-.3-.2-.6v-4.1h-1.1v-.7h1.1v-1.7h.8v1.7h1.5v.7h-1.5v4.2h1.7v.7h-1.7Z"/>
      <path class="st3" d="M110.8,47.7c-.6,0-1.1-.1-1.5-.3s-.7-.6-1-1-.3-.9-.3-1.5.1-1.1.3-1.5c.2-.4.6-.8,1-1s.9-.3,1.5-.3,1.1.1,1.5.3.7.6,1,1c.2.4.3.9.3,1.5s-.1,1.1-.3,1.5c-.2.4-.6.8-1,1s-.9.3-1.5.3h0ZM110.8,47c.6,0,1.1-.2,1.4-.6.3-.4.5-.9.5-1.6s-.2-1.2-.5-1.6c-.3-.4-.8-.5-1.4-.5s-1.1.2-1.4.6c-.3.4-.5.9-.5,1.6s.2,1.2.5,1.6c.3.4.8.6,1.4.6Z"/>
      <path class="st3" d="M117.9,47.6v-4.6h-.5v-.9h1v1h.4c.2-.3.4-.6.7-.8s.7-.3,1.2-.3h.4v.7h-.5c-.6,0-1,.2-1.4.5-.3.3-.5.8-.5,1.4v2.9h-.9,0Z"/>
    </g>
    <g class="st0">
      <text class="st1" transform="translate(27.9 60.9)"><tspan x="0" y="0" xml:space="preserve">    </tspan></text>
    </g>
    <g class="st0">
      <path class="st3" d="M39.7,58.8c-.2,0-.3,0-.5-.2-.1-.1-.2-.3-.2-.5s0-.3.2-.5c.1-.1.3-.2.5-.2s.3,0,.5.2c.1.1.2.3.2.5s0,.3-.2.5c-.1.1-.3.2-.5.2Z"/>
      <path class="st3" d="M44.6,60.9v-7.5h3.3c.8,0,1.5.2,1.9.6s.7,1,.7,1.7-.2,1.2-.7,1.7-1.1.6-1.9.6h-2.4v2.9h-.9,0ZM45.5,57.2h2.3c.6,0,1-.1,1.3-.4.3-.3.4-.7.4-1.1s-.2-.8-.4-1.1c-.3-.3-.7-.4-1.3-.4h-2.3s0,3.1,0,3.1Z"/>
      <path class="st3" d="M54.3,60.9v-7.8h.9v3.1h0c.2-.3.4-.6.8-.8.3-.2.7-.3,1.2-.3.7,0,1.2.2,1.7.6s.6,1,.6,1.6v3.4h-.9v-3.3c0-.5-.1-.9-.4-1.2s-.7-.4-1.2-.4-1,.1-1.2.4-.4.7-.4,1.2v3.3s-.9,0-.9,0Z"/>
      <path class="st3" d="M66.2,61c-.6,0-1.1-.1-1.5-.3-.4-.2-.7-.6-1-1s-.3-.9-.3-1.5.1-1.1.3-1.5.5-.8,1-1,.9-.3,1.5-.3,1.1.1,1.5.3.7.6,1,1,.3.9.3,1.5-.1,1.1-.3,1.5c-.2.4-.6.8-1,1s-.9.3-1.5.3h0ZM66.2,60.2c.6,0,1.1-.2,1.4-.6s.5-.9.5-1.6-.2-1.2-.5-1.6c-.3-.4-.8-.5-1.4-.5s-1.1.2-1.4.6c-.3.4-.5.9-.5,1.6s.2,1.2.5,1.6c.3.4.8.6,1.4.6Z"/>
      <path class="st3" d="M74.3,60.9c-.3,0-.5,0-.6-.2s-.2-.3-.2-.6v-4.1h-1.1v-.7h1.1v-1.7h.8v1.7h1.5v.7h-1.5v4.2h1.7v.7h-1.7Z"/>
      <path class="st3" d="M82.2,61c-.6,0-1.1-.1-1.5-.3-.4-.2-.7-.6-1-1s-.3-.9-.3-1.5.1-1.1.3-1.5c.2-.4.6-.8,1-1s.9-.3,1.5-.3,1.1.1,1.5.3.7.6,1,1,.3.9.3,1.5-.1,1.1-.3,1.5c-.2.4-.6.8-1,1s-.9.3-1.5.3h0ZM82.2,60.2c.6,0,1.1-.2,1.4-.6s.5-.9.5-1.6-.2-1.2-.5-1.6c-.3-.4-.8-.5-1.4-.5s-1.1.2-1.4.6c-.3.4-.5.9-.5,1.6s.2,1.2.5,1.6c.3.4.8.6,1.4.6Z"/>
      <path class="st3" d="M91.1,61c-.8,0-1.3-.2-1.8-.5-.4-.3-.7-.8-.7-1.3h.9c0,.4.2.6.5.8.3.2.7.3,1.2.3.9,0,1.4-.3,1.4-.9s0-.4-.2-.6-.4-.2-.7-.3l-1.2-.2c-1-.2-1.5-.7-1.5-1.4s.2-.9.6-1.2c.4-.3.9-.4,1.5-.4s1.2.2,1.6.4c.4.3.6.7.7,1.2h-.8c0-.3-.2-.6-.5-.7-.2-.2-.6-.2-1-.2s-.7,0-.9.2c-.2.2-.3.4-.3.6s0,.4.2.5.4.2.7.3l1.2.2c.5,0,.9.3,1.2.5s.4.6.4,1-.2,1-.6,1.2c-.4.3-.9.4-1.7.4h0Z"/>
      <path class="st3" d="M97.3,60.9v-7.8h.9v3.1h0c.2-.3.4-.6.8-.8s.7-.3,1.2-.3c.7,0,1.2.2,1.7.6s.6,1,.6,1.6v3.4h-.9v-3.3c0-.5-.1-.9-.4-1.2s-.7-.4-1.2-.4-1,.1-1.2.4-.4.7-.4,1.2v3.3h-.9Z"/>
      <path class="st3" d="M109.2,61c-.6,0-1.1-.1-1.5-.3-.4-.2-.7-.6-1-1s-.3-.9-.3-1.5.1-1.1.3-1.5c.2-.4.6-.8,1-1s.9-.3,1.5-.3,1.1.1,1.5.3.7.6,1,1c.2.4.3.9.3,1.5s-.1,1.1-.3,1.5c-.2.4-.6.8-1,1s-.9.3-1.5.3h0ZM109.2,60.2c.6,0,1.1-.2,1.4-.6.3-.4.5-.9.5-1.6s-.2-1.2-.5-1.6c-.3-.4-.8-.5-1.4-.5s-1.1.2-1.4.6-.5.9-.5,1.6.2,1.2.5,1.6.8.6,1.4.6Z"/>
      <path class="st3" d="M116.2,63.1v-6.8h-.5v-.9h1v.8h.4c.2-.3.4-.5.8-.7.3-.2.7-.2,1.1-.2s1,.1,1.4.3.7.6.9,1,.3.9.3,1.5,0,1.1-.3,1.5c-.2.4-.5.8-.9,1s-.8.3-1.3.3-.8,0-1.2-.3-.6-.4-.8-.8h0v3.2h-.9ZM118.8,60.2c.6,0,1-.2,1.4-.6.3-.4.5-.9.5-1.6s-.2-1.2-.5-1.6-.8-.6-1.4-.6-1,.2-1.3.5c-.3.3-.5.7-.5,1.2v.9c0,.5.2.9.5,1.2.3.3.8.5,1.3.5Z"/>
    </g>
    <g class="st0">
      <text class="st1" transform="translate(27.9 74.2)"><tspan x="0" y="0" xml:space="preserve">    </tspan></text>
    </g>
    <g class="st0">
      <path class="st3" d="M39.7,72.1c-.2,0-.3,0-.5-.2-.1-.1-.2-.3-.2-.5s0-.3.2-.5c.1-.1.3-.2.5-.2s.3,0,.5.2c.1.1.2.3.2.5s0,.3-.2.5c-.1.1-.3.2-.5.2Z"/>
      <path class="st3" d="M44.6,74.2v-7.5h.9v6.7h4.2v.8h-5Z"/>
      <path class="st3" d="M53.9,67.8c-.2,0-.3,0-.4-.2s-.2-.2-.2-.4,0-.3.2-.4.2-.2.4-.2.3,0,.4.2.2.2.2.4,0,.3-.2.4-.2.2-.4.2ZM53.5,74.2v-5.5h.9v5.5h-.9Z"/>
      <path class="st3" d="M61,76.5c-.7,0-1.3-.2-1.8-.5s-.7-.8-.8-1.3h.9c.2.7.8,1,1.7,1s1.1-.2,1.4-.4c.3-.3.5-.7.5-1.2v-.9h0c-.1.3-.4.6-.7.8s-.7.3-1.2.3-1-.1-1.4-.3-.7-.6-.9-1c-.2-.4-.3-.9-.3-1.5,0-.9.2-1.6.7-2.1.5-.5,1.1-.8,1.9-.8s.8,0,1.1.2c.3.2.6.4.8.7h.4v-.8h1v.9h-.5v4.6c0,.7-.2,1.3-.7,1.7-.5.4-1.2.6-2,.6h0ZM61.2,73.4c.5,0,.9-.2,1.2-.4.3-.3.5-.7.5-1.2v-.8c0-.5-.2-.9-.5-1.2s-.7-.4-1.2-.4-1.1.2-1.4.5-.5.9-.5,1.5.2,1.2.5,1.5c.3.4.8.5,1.4.5h0Z"/>
      <path class="st3" d="M68.3,74.2v-7.8h.9v3.1h0c.2-.3.4-.6.8-.8.3-.2.7-.3,1.2-.3.7,0,1.2.2,1.7.6s.6.9.6,1.6v3.4h-.9v-3.3c0-.5-.1-.9-.4-1.2s-.7-.4-1.2-.4-1,.1-1.2.4-.4.7-.4,1.2v3.3h-.9Z"/>
      <path class="st3" d="M79,74.2c-.3,0-.5,0-.6-.2s-.2-.3-.2-.6v-4.1h-1.1v-.7h1.1v-1.7h.8v1.7h1.5v.7h-1.5v4.2h1.7v.7h-1.7Z"/>
      <path class="st3" d="M84.8,74.2v-4.6h-.5v-.9h1v1h.4c.2-.3.4-.6.7-.8.3-.2.7-.3,1.2-.3h.4v.7h-.5c-.6,0-1,.2-1.4.5-.3.3-.5.8-.5,1.4v2.9h-.9,0Z"/>
      <path class="st3" d="M94.2,74.3c-.6,0-1.1-.1-1.5-.3-.4-.2-.7-.6-1-1s-.3-.9-.3-1.5.1-1.1.3-1.5c.2-.4.6-.8,1-1s.9-.3,1.5-.3,1.1.1,1.5.3c.4.2.7.6,1,1,.2.4.3.9.3,1.5s-.1,1.1-.3,1.5c-.2.4-.6.8-1,1s-.9.3-1.5.3h0ZM94.2,73.5c.6,0,1.1-.2,1.4-.6.3-.4.5-.9.5-1.6s-.2-1.2-.5-1.6c-.3-.4-.8-.6-1.4-.6s-1.1.2-1.4.6c-.3.4-.5.9-.5,1.6s.2,1.2.5,1.6c.3.4.8.6,1.4.6Z"/>
      <path class="st3" d="M103.6,74.3c-.6,0-1.1-.1-1.5-.3s-.7-.6-1-1-.3-.9-.3-1.5.1-1.1.3-1.5c.2-.4.6-.8,1-1s.9-.3,1.5-.3,1.1.1,1.5.3c.4.2.7.6,1,1,.2.4.3.9.3,1.5s-.1,1.1-.3,1.5c-.2.4-.6.8-1,1s-.9.3-1.5.3h0ZM103.6,73.5c.6,0,1.1-.2,1.4-.6.3-.4.5-.9.5-1.6s-.2-1.2-.5-1.6c-.3-.4-.8-.6-1.4-.6s-1.1.2-1.4.6c-.3.4-.5.9-.5,1.6s.2,1.2.5,1.6c.3.4.8.6,1.4.6Z"/>
      <path class="st3" d="M110.6,74.2v-4.6h-.5v-.9h1v.8h.5c.2-.3.4-.5.7-.7.3-.2.7-.2,1.1-.2s.8,0,1.1.3c.3.2.6.5.7.8h0c.4-.7,1-1.1,1.9-1.1s1.2.2,1.6.6c.4.4.6.9.6,1.6v3.5h-.9v-3.3c0-1-.5-1.5-1.5-1.5s-1.5.5-1.5,1.5v3.3h-.9v-3.3c0-1-.5-1.5-1.5-1.5s-.9.1-1.1.4c-.3.3-.4.6-.4,1.1v3.3h-.9,0Z"/>
    </g>
    <g class="st0">
      <text class="st1" transform="translate(27.9 87.5)"><tspan x="0" y="0" xml:space="preserve">    </tspan></text>
    </g>
    <g class="st0">
      <path class="st3" d="M39.7,85.3c-.2,0-.3,0-.5-.2-.1-.1-.2-.3-.2-.5s0-.3.2-.5c.1-.1.3-.2.5-.2s.3,0,.5.2c.1.1.2.3.2.5s0,.3-.2.5c-.1.1-.3.2-.5.2Z"/>
      <path class="st3" d="M43.7,87.4l3.2-7.5h1l3.2,7.5h-.9l-1-2.4h-3.7l-1,2.4h-.9ZM45.9,84.3h3.1l-1.5-3.6h0l-1.5,3.6Z"/>
      <path class="st3" d="M57.1,87.6c-.5,0-1-.1-1.4-.3-.4-.2-.7-.6-.9-1-.2-.4-.3-.9-.3-1.5s0-1.1.3-1.5.5-.8.9-1,.8-.3,1.3-.3.8,0,1.2.3.6.4.8.8h0v-3.2h.9v6.8h.5v.9h-1v-.8h-.4c-.2.3-.4.5-.8.7-.3.2-.7.2-1.1.2ZM57.2,86.8c.5,0,1-.2,1.3-.5.3-.3.5-.7.5-1.2v-.9c0-.5-.2-.9-.5-1.2-.3-.3-.8-.5-1.3-.5s-1,.2-1.4.6c-.3.4-.5.9-.5,1.6s.2,1.2.5,1.6c.3.4.8.6,1.4.6Z"/>
      <path class="st3" d="M66.8,87.6c-.6,0-1.1-.1-1.5-.3-.4-.2-.7-.6-1-1s-.3-.9-.3-1.5.1-1.1.3-1.5c.2-.4.6-.8,1-1s.9-.3,1.5-.3,1.1.1,1.5.3c.4.2.7.6,1,1s.3.9.3,1.5-.1,1.1-.3,1.5c-.2.4-.6.8-1,1s-.9.3-1.5.3h0ZM66.8,86.8c.6,0,1.1-.2,1.4-.6s.5-.9.5-1.6-.2-1.2-.5-1.6c-.3-.4-.8-.6-1.4-.6s-1.1.2-1.4.6c-.3.4-.5.9-.5,1.6s.2,1.2.5,1.6c.3.4.8.6,1.4.6Z"/>
      <path class="st3" d="M76.6,87.6c-.4,0-.8,0-1.1-.2-.3-.2-.6-.4-.8-.7h-.4v.8h-1v-.9h.5v-6.8h.9v3.2h0c.2-.3.4-.6.8-.8.3-.2.7-.3,1.2-.3s1,.1,1.3.3.7.6.9,1c.2.4.3.9.3,1.5s0,1.1-.3,1.5-.5.8-.9,1-.8.3-1.4.3h0ZM76.5,86.8c.6,0,1-.2,1.4-.6.3-.4.5-.9.5-1.6s-.2-1.2-.5-1.6c-.3-.4-.8-.6-1.4-.6s-1,.2-1.3.5c-.3.3-.5.7-.5,1.2v.9c0,.5.2.9.5,1.2.3.3.8.5,1.3.5Z"/>
      <path class="st3" d="M85.7,87.6c-.6,0-1.1-.1-1.5-.3-.4-.2-.7-.6-1-1s-.3-.9-.3-1.5.1-1.1.3-1.5c.2-.4.6-.8,1-1,.4-.2.9-.3,1.4-.3s1,.1,1.4.3c.4.2.7.5.9.9s.3.8.3,1.4v.4h-4.5c0,.6.2,1.1.6,1.5s.8.5,1.4.5.7,0,1-.3c.3-.2.5-.4.6-.8h.9c-.1.6-.4,1-.9,1.3-.4.3-1,.5-1.6.5h0ZM83.8,84.1h3.6c0-.5-.2-.9-.5-1.2-.3-.3-.7-.4-1.2-.4s-.9.1-1.2.4c-.3.3-.5.7-.6,1.2Z"/>
      <path class="st3" d="M94.5,87.4l2.8-3.9-2.6-3.6h1l2.2,3h0l2.2-3h.9l-2.6,3.6,2.8,3.9h-1l-2.3-3.3h0l-2.4,3.3s-.9,0-.9,0Z"/>
      <path class="st3" d="M105.1,87.4v-7.5h2.6c.8,0,1.5.2,2.1.4s1,.7,1.4,1.3.5,1.2.5,2-.2,1.4-.5,2-.8,1-1.4,1.3c-.6.3-1.3.4-2.1.4h-2.6ZM106,86.7h1.7c.9,0,1.7-.3,2.2-.8s.8-1.2.8-2.2-.3-1.7-.8-2.2-1.3-.8-2.2-.8h-1.7v6h0Z"/>
    </g>
    <g class="st0">
      <text class="st1" transform="translate(27.9 100.7)"><tspan x="0" y="0" xml:space="preserve">    </tspan></text>
    </g>
    <g class="st0">
      <path class="st3" d="M39.7,98.6c-.2,0-.3,0-.5-.2-.1-.1-.2-.3-.2-.5s0-.3.2-.5c.1-.1.3-.2.5-.2s.3,0,.5.2c.1.1.2.3.2.5s0,.3-.2.5c-.1.1-.3.2-.5.2Z"/>
      <path class="st3" d="M45.5,100.7h-.9v-7.5h5v.8h-4.2v2.6h3.9v.8h-3.9v3.4h0Z"/>
      <path class="st3" d="M53.9,94.4c-.2,0-.3,0-.4-.2s-.2-.2-.2-.4,0-.3.2-.4.2-.2.4-.2.3,0,.4.2.2.2.2.4,0,.3-.2.4-.2.2-.4.2ZM53.5,100.7v-5.5h.9v5.5h-.9Z"/>
      <path class="st3" d="M61,103.1c-.7,0-1.3-.2-1.8-.5s-.7-.8-.8-1.3h.9c.2.7.8,1,1.7,1s1.1-.2,1.4-.4c.3-.3.5-.7.5-1.2v-.9h0c-.1.3-.4.6-.7.8s-.7.3-1.2.3-1-.1-1.4-.3-.7-.6-.9-1c-.2-.4-.3-.9-.3-1.5,0-.9.2-1.6.7-2.1.5-.5,1.1-.8,1.9-.8s.8,0,1.1.2c.3.2.6.4.8.7h.4v-.8h1v.9h-.5v4.6c0,.7-.2,1.3-.7,1.7-.5.4-1.2.6-2,.6h0ZM61.2,100c.5,0,.9-.2,1.2-.4.3-.3.5-.7.5-1.2v-.8c0-.5-.2-.9-.5-1.2s-.7-.4-1.2-.4-1.1.2-1.4.5-.5.9-.5,1.5.2,1.2.5,1.5c.3.4.8.5,1.4.5h0Z"/>
      <path class="st3" d="M68.5,100.7v-4.6h-.5v-.9h1v.8h.5c.2-.3.4-.5.7-.7.3-.2.7-.2,1.1-.2s.8,0,1.1.3c.3.2.6.5.7.8h0c.4-.7,1-1.1,1.9-1.1s1.2.2,1.6.6c.4.4.6.9.6,1.6v3.5h-.9v-3.3c0-1-.5-1.5-1.5-1.5s-1.5.5-1.5,1.5v3.3h-.9v-3.3c0-1-.5-1.5-1.5-1.5s-.9.1-1.1.4c-.3.3-.4.6-.4,1.1v3.3h-.9,0Z"/>
      <path class="st3" d="M83,100.8c-.6,0-1.1-.2-1.5-.5s-.5-.7-.5-1.2.2-.9.5-1.2.8-.4,1.5-.4h2v-.3c0-.9-.5-1.4-1.5-1.4s-1.3.3-1.5.9h-.9c0-.5.3-.9.8-1.2.4-.3,1-.4,1.6-.4s1.3.2,1.7.5c.4.4.6.9.6,1.6v2.6h.4v.9h-1v-.8h-.4c-.2.3-.5.5-.8.7s-.7.2-1.1.2h0ZM83.1,100.1c.3,0,.7,0,1-.2s.5-.3.7-.6c.2-.2.3-.5.3-.8v-.3h-1.9c-.8,0-1.3.3-1.3,1s.1.5.3.7.6.3.9.3h0Z"/>
    </g>
    <g class="st0">
      <path class="st3" d="M28.6,138.6v-9.1h2.7v1.1h-1.5v7h1.5v1.1h-2.7Z"/>
      <path class="st3" d="M35.6,135c-.2,0-.4,0-.6-.2-.2-.2-.2-.4-.2-.6s0-.4.2-.6.4-.2.6-.2.4,0,.6.2c.2.2.2.4.2.6s0,.4-.2.6-.4.2-.6.2Z"/>
      <path class="st3" d="M40.4,136.9v-7.5h3.8c.5,0,.8,0,1.2.2s.6.4.8.7c.2.3.3.6.3,1s-.1.7-.3,1-.5.5-.8.6h0c.3,0,.5.2.8.4.2.2.4.4.5.6s.2.6.2.9,0,.8-.3,1.1c-.2.3-.5.6-.9.7-.4.2-.8.3-1.3.3h-3.9,0ZM41.8,132.4h2.2c.3,0,.6,0,.8-.2.2-.2.3-.4.3-.7s0-.5-.3-.7c-.2-.1-.4-.2-.8-.2h-2.2v1.8h0ZM41.8,135.7h2.3c.4,0,.7,0,1-.3.2-.2.3-.4.3-.8s-.1-.6-.3-.8c-.2-.2-.5-.3-.9-.3h-2.3s0,2.1,0,2.1Z"/>
      <path class="st3" d="M50.9,136.9v-4.2h-.7v-1.4h1.4v1.1h.4c.2-.4.4-.6.7-.8s.7-.3,1.1-.3h.5v1.2h-.5c-.5,0-.9.1-1.1.4s-.4.7-.4,1.1v2.8h-1.4Z"/>
      <path class="st3" d="M59.5,137c-.7,0-1.2-.2-1.5-.5s-.5-.7-.5-1.2.2-1,.6-1.2c.4-.3.9-.4,1.6-.4h1.7v-.2c0-.7-.4-1-1.2-1s-1.1.2-1.2.7h-1.4c.1-.6.4-1,.8-1.4.5-.3,1-.5,1.8-.5s1.4.2,1.8.6c.4.4.6.9.6,1.6v2.1h.7v1.4h-1.4v-.9h-.4c-.2.3-.5.6-.8.7s-.7.3-1.2.3h0ZM59.7,135.9c.3,0,.6,0,.8-.2s.4-.3.6-.5.2-.4.2-.6h0c0-.1-1.6-.1-1.6-.1-.6,0-.9.2-.9.7s0,.4.2.5.4.2.7.2h0Z"/>
      <path class="st3" d="M67.3,136.9v-4.2h-.7v-1.4h1.4v.9h.4c.2-.3.5-.6.8-.7.3-.2.7-.3,1.2-.3.8,0,1.3.2,1.8.6.4.4.6,1,.6,1.7v3.3h-1.4v-3.1c0-.4-.1-.8-.3-1s-.6-.3-1-.3-.8.1-1,.3-.4.6-.4,1v3.1h-1.4Z"/>
      <path class="st3" d="M79,137c-.6,0-1.1-.1-1.4-.4-.4-.2-.7-.6-.9-1-.2-.4-.3-.9-.3-1.5s0-1.1.3-1.5c.2-.4.5-.8.9-1,.4-.2.8-.4,1.4-.4s.8,0,1.1.2.5.4.7.7h0v-3h1.4v6.4h.7v1.4h-1.4v-.9h-.4c-.2.3-.5.6-.8.7-.3.2-.7.3-1.2.3h0ZM79.3,135.8c.4,0,.8-.1,1.1-.4.3-.2.4-.6.4-1v-.6c0-.4-.1-.8-.4-1s-.6-.4-1.1-.4-.9.1-1.1.4c-.3.3-.4.7-.4,1.2s.1.9.4,1.2.6.4,1.1.4h0Z"/>
      <path class="st3" d="M87.1,130.8c-.2,0-.4,0-.6-.2-.2-.1-.2-.3-.2-.6s0-.4.2-.6c.2-.1.3-.2.6-.2s.4,0,.6.2.2.3.2.6,0,.4-.2.6c-.2.1-.3.2-.6.2ZM86.4,136.9v-5.5h1.4v5.5h-1.4Z"/>
      <path class="st3" d="M92.1,136.9v-4.2h-.7v-1.4h1.4v.9h.4c.2-.3.5-.6.8-.7.3-.2.7-.3,1.2-.3.8,0,1.3.2,1.8.6.4.4.6,1,.6,1.7v3.3h-1.4v-3.1c0-.4-.1-.8-.3-1s-.6-.3-1-.3-.8.1-1,.3-.4.6-.4,1v3.1h-1.4Z"/>
      <path class="st3" d="M104.1,139.2c-.8,0-1.5-.2-2-.5s-.8-.8-.9-1.4h1.4c.2.5.6.8,1.4.8s.9-.1,1.2-.4c.3-.2.4-.6.4-1v-.8h0c-.2.3-.4.5-.7.7s-.7.2-1.1.2-1-.1-1.4-.4-.7-.6-.9-1-.3-.9-.3-1.5c0-.9.2-1.6.7-2.1s1.1-.8,1.9-.8.8,0,1.2.3.6.4.8.7h.4v-.9h1.4v1.4h-.7v4c0,.8-.2,1.4-.8,1.8s-1.2.6-2.1.6h0ZM104.2,135.7c.4,0,.8-.1,1.1-.4s.4-.6.4-1v-.5c0-.4-.1-.8-.4-1s-.6-.4-1.1-.4-.9.1-1.1.4-.4.7-.4,1.2.1.9.4,1.2c.3.3.6.4,1.1.4h0Z"/>
      <path class="st3" d="M112,135c-.2,0-.4,0-.6-.2s-.2-.4-.2-.6,0-.4.2-.6.4-.2.6-.2.4,0,.6.2.2.4.2.6,0,.4-.2.6-.4.2-.6.2Z"/>
      <path class="st3" d="M116.2,138.5v-1.1h1.5v-7h-1.5v-1.1h2.7v9.1h-2.7Z"/>
    </g>
    <g class="st0">
      <path class="st3" d="M40.1,148.1c-.2,0-.3,0-.5-.2s-.2-.3-.2-.5,0-.3.2-.5c.1-.1.3-.2.5-.2s.3,0,.5.2.2.3.2.5,0,.3-.2.5c-.1.1-.3.2-.5.2Z"/>
      <path class="st3" d="M45.1,150.2v-7.5h.9v6.7h4.2v.8h-5Z"/>
      <path class="st3" d="M56.3,150.3c-.6,0-1.1-.1-1.5-.4-.4-.2-.7-.6-1-1s-.3-.9-.3-1.5.1-1.1.3-1.5c.2-.4.5-.8,1-1,.4-.2.9-.4,1.5-.4s1.1.1,1.5.4c.4.2.7.6,1,1s.3.9.3,1.5-.1,1.1-.3,1.5c-.2.4-.5.8-1,1-.4.2-.9.4-1.5.4h0ZM56.3,149.5c.6,0,1.1-.2,1.4-.6s.5-.9.5-1.6-.2-1.2-.5-1.6c-.3-.4-.8-.6-1.4-.6s-1.1.2-1.4.6c-.3.4-.5.9-.5,1.6s.2,1.2.5,1.6.8.6,1.4.6h0Z"/>
      <path class="st3" d="M65.5,152.5c-.7,0-1.3-.2-1.8-.5s-.7-.8-.8-1.3h.9c.2.7.8,1,1.7,1s1.1-.1,1.4-.4c.3-.3.5-.7.5-1.2v-.9h0c-.1.3-.4.6-.7.8s-.7.3-1.2.3-1-.1-1.4-.4-.7-.6-.9-1c-.2-.4-.3-.9-.3-1.5,0-.9.2-1.6.7-2.1s1.1-.8,1.9-.8.8,0,1.1.2.6.4.8.7h.4v-.8h1v.9h-.5v4.6c0,.7-.2,1.3-.7,1.7-.5.4-1.2.6-2,.6h0ZM65.6,149.4c.5,0,.9-.1,1.2-.4s.5-.7.5-1.2v-.9c0-.5-.2-.9-.5-1.2s-.7-.4-1.2-.4-1.1.2-1.4.5c-.3.4-.5.9-.5,1.5s.2,1.2.5,1.5c.3.4.8.5,1.4.5h0Z"/>
      <path class="st3" d="M75.2,150.3c-.6,0-1.1-.1-1.5-.4-.4-.2-.7-.6-1-1s-.3-.9-.3-1.5.1-1.1.3-1.5c.2-.4.6-.8,1-1s.9-.4,1.5-.4,1.1.1,1.5.4c.4.2.7.6,1,1s.3.9.3,1.5-.1,1.1-.3,1.5c-.2.4-.6.8-1,1s-.9.4-1.5.4h0ZM75.2,149.5c.6,0,1.1-.2,1.4-.6s.5-.9.5-1.6-.2-1.2-.5-1.6c-.3-.4-.8-.6-1.4-.6s-1.1.2-1.4.6c-.3.4-.5.9-.5,1.6s.2,1.2.5,1.6c.3.4.8.6,1.4.6h0Z"/>
      <path class="st3" d="M87.8,150.2v-7.5h2.6c.8,0,1.5.1,2.1.4s1,.7,1.4,1.3.5,1.2.5,2-.2,1.4-.5,2-.8,1-1.4,1.3c-.6.3-1.3.4-2.1.4h-2.6ZM88.7,149.4h1.7c.9,0,1.7-.3,2.2-.8s.8-1.2.8-2.2-.3-1.7-.8-2.2-1.3-.8-2.2-.8h-1.7v6h0Z"/>
      <path class="st3" d="M100.9,150.3c-.6,0-1.1-.1-1.5-.4s-.7-.6-1-1c-.2-.4-.3-.9-.3-1.5s.1-1.1.3-1.5c.2-.4.6-.8,1-1,.4-.2.9-.4,1.4-.4s1,.1,1.4.3c.4.2.7.5.9.9s.3.9.3,1.4v.4h-4.5c0,.6.2,1.1.6,1.5.3.4.8.5,1.4.5s.7,0,1-.3.5-.4.6-.8h.9c-.1.6-.4,1-.9,1.3s-1,.5-1.6.5h0ZM99,146.8h3.6c0-.5-.2-.9-.5-1.2s-.7-.4-1.2-.4-.9.1-1.2.4-.5.7-.6,1.2Z"/>
      <path class="st3" d="M109.5,150.3c-.8,0-1.3-.1-1.8-.5s-.7-.8-.7-1.3h.9c0,.4.2.6.5.8.3.2.7.3,1.2.3.9,0,1.4-.3,1.4-.9s0-.4-.2-.6c-.1-.1-.4-.2-.7-.3l-1.2-.2c-1-.2-1.5-.7-1.5-1.4s.2-.9.6-1.2c.4-.3.9-.4,1.5-.4s1.2.1,1.6.4c.4.3.6.7.7,1.2h-.8c0-.3-.2-.6-.5-.7s-.6-.2-1-.2-.7,0-.9.2c-.2.1-.3.4-.3.6s0,.4.2.5c.2.1.4.2.7.3l1.2.2c.5.1.9.3,1.2.5s.4.6.4,1-.2.9-.6,1.2c-.4.3-.9.4-1.7.4h0Z"/>
      <path class="st3" d="M116.2,143.8c-.2,0-.3,0-.4-.2s-.2-.2-.2-.4,0-.3.2-.4.2-.2.4-.2.3,0,.4.2.2.2.2.4,0,.3-.2.4-.2.2-.4.2ZM115.7,150.2v-5.5h.9v5.5h-.9Z"/>
      <path class="st3" d="M123.3,152.5c-.7,0-1.3-.2-1.8-.5s-.7-.8-.8-1.3h.9c.2.7.8,1,1.7,1s1.1-.1,1.4-.4c.3-.3.5-.7.5-1.2v-.9h0c-.1.3-.4.6-.7.8-.3.2-.7.3-1.2.3s-1-.1-1.4-.4-.7-.6-.9-1-.3-.9-.3-1.5c0-.9.2-1.6.7-2.1.5-.5,1.1-.8,1.9-.8s.8,0,1.1.2.6.4.8.7h.4v-.8h1v.9h-.5v4.6c0,.7-.2,1.3-.7,1.7s-1.2.6-2,.6h0ZM123.5,149.4c.5,0,.9-.1,1.2-.4s.5-.7.5-1.2v-.9c0-.5-.2-.9-.5-1.2-.3-.3-.7-.4-1.2-.4s-1.1.2-1.4.5-.5.9-.5,1.5.2,1.2.5,1.5.8.5,1.4.5h0Z"/>
      <path class="st3" d="M130.8,150.2v-4.6h-.5v-.9h1v.8h.4c.2-.3.4-.5.8-.7.3-.2.7-.2,1.1-.2.7,0,1.2.2,1.7.6s.6.9.6,1.6v3.4h-.9v-3.3c0-.5-.1-.9-.4-1.2s-.7-.4-1.2-.4-1,.1-1.2.4-.4.7-.4,1.2v3.3h-.9Z"/>
    </g>
    <g class="st0">
      <path class="st3" d="M40.1,161.4c-.2,0-.3,0-.5-.2s-.2-.3-.2-.5,0-.3.2-.5c.1-.1.3-.2.5-.2s.3,0,.5.2.2.3.2.5,0,.3-.2.5c-.1.1-.3.2-.5.2Z"/>
      <path class="st3" d="M50.2,163.5h-5.1v-7.5h5.1v.8h-4.2v2.5h4v.7h-4v2.8h4.2v.8h0Z"/>
      <path class="st3" d="M56.5,163.6c-.5,0-1-.1-1.4-.4-.4-.2-.7-.6-.9-1-.2-.4-.3-.9-.3-1.5s0-1.1.3-1.5.5-.8.9-1,.8-.4,1.3-.4.8,0,1.2.3.6.4.8.8h0v-3.1h.9v6.8h.5v.9h-1v-.8h-.4c-.2.3-.4.5-.8.7-.3.2-.7.2-1.1.2ZM56.6,162.8c.5,0,1-.1,1.3-.5.3-.3.5-.7.5-1.2v-.9c0-.5-.2-.9-.5-1.2s-.8-.5-1.3-.5-1,.2-1.4.6c-.3.4-.5.9-.5,1.6s.2,1.2.5,1.6.8.6,1.4.6Z"/>
      <path class="st3" d="M64.3,157.1c-.2,0-.3,0-.4-.2s-.2-.2-.2-.4,0-.3.2-.4.2-.2.4-.2.3,0,.4.2.2.2.2.4,0,.3-.2.4-.2.2-.4.2ZM63.9,163.5v-5.5h.9v5.5h-.9Z"/>
      <path class="st3" d="M70.4,163.5c-.3,0-.5,0-.6-.2s-.2-.3-.2-.6v-4.1h-1.1v-.7h1.1v-1.7h.8v1.7h1.5v.7h-1.5v4.2h1.7v.7h-1.7Z"/>
      <path class="st3" d="M78.4,163.6c-.6,0-1.1-.1-1.5-.4-.4-.2-.7-.6-1-1s-.3-.9-.3-1.5.1-1.1.3-1.5c.2-.4.6-.8,1-1s.9-.4,1.5-.4,1.1.1,1.5.4c.4.2.7.6,1,1s.3.9.3,1.5-.1,1.1-.3,1.5c-.2.4-.6.8-1,1s-.9.4-1.5.4h0ZM78.4,162.8c.6,0,1.1-.2,1.4-.6s.5-.9.5-1.6-.2-1.2-.5-1.6c-.3-.4-.8-.6-1.4-.6s-1.1.2-1.4.6c-.3.4-.5.9-.5,1.6s.2,1.2.5,1.6c.3.4.8.6,1.4.6h0Z"/>
      <path class="st3" d="M85.5,163.5v-4.6h-.5v-.9h1v1h.4c.2-.3.4-.6.7-.8s.7-.3,1.2-.3h.4v.7h-.5c-.6,0-1,.2-1.4.5-.3.3-.5.8-.5,1.4v2.9h-.9,0Z"/>
      <path class="st3" d="M93,157.1c-.2,0-.3,0-.4-.2s-.2-.2-.2-.4,0-.3.2-.4.2-.2.4-.2.3,0,.4.2.2.2.2.4,0,.3-.2.4-.2.2-.4.2ZM92.6,163.5v-5.5h.9v5.5h-.9Z"/>
      <path class="st3" d="M99.4,163.6c-.6,0-1.1-.2-1.5-.5s-.5-.7-.5-1.2.2-.9.5-1.2.8-.4,1.5-.4h2v-.3c0-.9-.5-1.4-1.5-1.4s-1.3.3-1.5.9h-.9c0-.5.3-.9.8-1.2s1-.4,1.6-.4,1.3.2,1.7.5.6.9.6,1.6v2.6h.4v.9h-1v-.8h-.4c-.2.3-.5.5-.8.7-.3.2-.7.2-1.1.2h0ZM99.6,162.8c.3,0,.7,0,1-.2s.5-.4.7-.6c.2-.2.3-.5.3-.8v-.3h-1.9c-.8,0-1.3.3-1.3,1s.1.5.3.7.6.3.9.3h0Z"/>
      <path class="st3" d="M106.9,163.5v-7.8h.9v7.8h-.9Z"/>
    </g>
    <g class="st0">
      <text class="st1" transform="translate(27.9 176.7)"><tspan x="0" y="0" xml:space="preserve">    </tspan></text>
    </g>
    <g class="st0">
      <path class="st3" d="M39.7,174.6c-.2,0-.3,0-.5-.2s-.2-.3-.2-.5,0-.3.2-.5c.1-.1.3-.2.5-.2s.3,0,.5.2.2.3.2.5,0,.3-.2.5c-.1.1-.3.2-.5.2Z"/>
      <path class="st3" d="M44.6,176.7v-7.5h3.5c.4,0,.8,0,1.1.2s.6.4.7.7c.2.3.3.6.3,1s-.1.8-.4,1.1c-.3.3-.6.4-.9.5h0c.2,0,.5.1.8.3.3.1.5.3.7.6s.3.6.3,1,0,.8-.3,1.1-.5.6-.8.7-.8.3-1.2.3h-3.7,0ZM45.5,172.5h2.6c.4,0,.8-.1,1-.3.2-.2.4-.5.4-.9s-.1-.7-.4-.9c-.2-.2-.6-.3-1-.3h-2.6v2.5h0ZM45.5,176h2.6c.5,0,.9-.1,1.2-.4.3-.2.4-.6.4-1s-.2-.8-.4-1c-.3-.2-.7-.3-1.2-.3h-2.6v2.8h0Z"/>
      <path class="st3" d="M57.7,176.7h-.9v-6.7h-2.8v-.8h6.4v.8h-2.8v6.7h0Z"/>
      <path class="st3" d="M64.4,176.7v-7.5h.9v6.7h4.2v.8h-5Z"/>
    </g>
    <g class="st0">
      <text class="st1" transform="translate(27.9 190)"><tspan x="0" y="0" xml:space="preserve">    </tspan></text>
    </g>
    <g class="st0">
      <path class="st3" d="M39.7,187.9c-.2,0-.3,0-.5-.2s-.2-.3-.2-.5,0-.3.2-.5c.1-.1.3-.2.5-.2s.3,0,.5.2.2.3.2.5,0,.3-.2.5c-.1.1-.3.2-.5.2Z"/>
      <path class="st3" d="M41.8,190v-7.5h3.3c.8,0,1.5.2,1.9.6s.7,1,.7,1.7-.2,1.2-.7,1.7-1.1.6-1.9.6h-2.4v2.9h-.9,0ZM42.7,186.4h2.3c.6,0,1-.1,1.3-.4.3-.3.4-.6.4-1.1s-.2-.9-.4-1.1c-.3-.3-.7-.4-1.3-.4h-2.3v3.1Z"/>
      <path class="st3" d="M48.8,190v-7.8h.9v3.1h0c.2-.3.4-.6.8-.8.3-.2.7-.3,1.2-.3.7,0,1.2.2,1.7.6s.6.9.6,1.6v3.4h-.9v-3.3c0-.5-.1-.9-.4-1.2s-.7-.4-1.2-.4-1,.1-1.2.4-.4.7-.4,1.2v3.3h-.9Z"/>
      <path class="st3" d="M57.9,190.1c-.6,0-1.1-.1-1.5-.4-.4-.2-.7-.6-1-1s-.3-.9-.3-1.5.1-1.1.3-1.5c.2-.4.5-.8,1-1,.4-.2.9-.4,1.5-.4s1.1.1,1.5.4c.4.2.7.6,1,1s.3.9.3,1.5-.1,1.1-.3,1.5c-.2.4-.5.8-1,1-.4.2-.9.4-1.5.4h0ZM57.9,189.4c.6,0,1.1-.2,1.4-.6s.5-.9.5-1.6-.2-1.2-.5-1.6c-.3-.4-.8-.6-1.4-.6s-1.1.2-1.4.6c-.3.4-.5.9-.5,1.6s.2,1.2.5,1.6.8.6,1.4.6h0Z"/>
      <path class="st3" d="M63.2,190c-.3,0-.5,0-.6-.2s-.2-.3-.2-.6v-4.1h-1.1v-.7h1.1v-1.7h.8v1.7h1.5v.7h-1.5v4.2h1.7v.7h-1.7,0Z"/>
      <path class="st3" d="M68.4,190.1c-.6,0-1.1-.1-1.5-.4-.4-.2-.7-.6-1-1s-.3-.9-.3-1.5.1-1.1.3-1.5c.2-.4.6-.8,1-1s.9-.4,1.5-.4,1.1.1,1.5.4c.4.2.7.6,1,1s.3.9.3,1.5-.1,1.1-.3,1.5c-.2.4-.6.8-1,1s-.9.4-1.5.4h0ZM68.4,189.4c.6,0,1.1-.2,1.4-.6s.5-.9.5-1.6-.2-1.2-.5-1.6c-.3-.4-.8-.6-1.4-.6s-1.1.2-1.4.6c-.3.4-.5.9-.5,1.6s.2,1.2.5,1.6c.3.4.8.6,1.4.6h0Z"/>
      <path class="st3" d="M74.5,190.1c-.8,0-1.3-.1-1.8-.5-.4-.3-.7-.8-.7-1.3h.9c0,.4.2.6.5.8.3.2.7.3,1.2.3.9,0,1.4-.3,1.4-.9s0-.4-.2-.6-.4-.2-.7-.3l-1.2-.2c-1-.2-1.5-.7-1.5-1.4s.2-.9.6-1.2c.4-.3.9-.4,1.5-.4s1.2.1,1.6.4c.4.3.6.7.7,1.2h-.8c0-.3-.2-.6-.5-.7-.2-.2-.6-.2-1-.2s-.7,0-.9.2c-.2.1-.3.4-.3.6s0,.4.2.5.4.2.7.3l1.2.2c.5.1.9.3,1.2.5s.4.6.4,1-.2.9-.6,1.2c-.4.3-.9.4-1.7.4h0Z"/>
      <path class="st3" d="M77.9,190v-7.8h.9v3.1h0c.2-.3.4-.6.8-.8s.7-.3,1.2-.3c.7,0,1.2.2,1.7.6s.6.9.6,1.6v3.4h-.9v-3.3c0-.5-.1-.9-.4-1.2s-.7-.4-1.2-.4-1,.1-1.2.4-.4.7-.4,1.2v3.3h-.9Z"/>
      <path class="st3" d="M87.1,190.1c-.6,0-1.1-.1-1.5-.4-.4-.2-.7-.6-1-1s-.3-.9-.3-1.5.1-1.1.3-1.5c.2-.4.6-.8,1-1s.9-.4,1.5-.4,1.1.1,1.5.4c.4.2.7.6,1,1s.3.9.3,1.5-.1,1.1-.3,1.5c-.2.4-.6.8-1,1s-.9.4-1.5.4h0ZM87.1,189.4c.6,0,1.1-.2,1.4-.6s.5-.9.5-1.6-.2-1.2-.5-1.6c-.3-.4-.8-.6-1.4-.6s-1.1.2-1.4.6c-.3.4-.5.9-.5,1.6s.2,1.2.5,1.6c.3.4.8.6,1.4.6h0Z"/>
      <path class="st3" d="M91.3,192.2v-6.8h-.5v-.9h1v.8h.4c.2-.3.4-.5.8-.7.3-.2.7-.2,1.1-.2s1,.1,1.4.4.7.6.9,1c.2.4.3.9.3,1.5s0,1.1-.3,1.5c-.2.4-.5.8-.9,1s-.8.4-1.3.4-.8,0-1.2-.3-.6-.4-.8-.8h0v3.1h-.9ZM93.9,189.4c.6,0,1-.2,1.4-.6.3-.4.5-.9.5-1.6s-.2-1.2-.5-1.6-.8-.6-1.4-.6-1,.1-1.3.5c-.3.3-.5.7-.5,1.2v.9c0,.5.2.9.5,1.2.3.3.8.5,1.3.5Z"/>
    </g>
    <g class="st0">
      <text class="st1" transform="translate(27.9 203.3)"><tspan x="0" y="0" xml:space="preserve">    </tspan></text>
    </g>
    <g class="st0">
      <path class="st3" d="M39.7,201.2c-.2,0-.3,0-.5-.2s-.2-.3-.2-.5,0-.3.2-.5c.1-.1.3-.2.5-.2s.3,0,.5.2.2.3.2.5,0,.3-.2.5c-.1.1-.3.2-.5.2Z"/>
      <path class="st3" d="M41.8,203.3v-7.5h.9v6.7h4.2v.8h-5Z"/>
      <path class="st3" d="M48.3,196.9c-.2,0-.3,0-.4-.2s-.2-.2-.2-.4,0-.3.2-.4.2-.2.4-.2.3,0,.4.2.2.2.2.4,0,.3-.2.4-.2.2-.4.2ZM47.9,203.3v-5.5h.9v5.5h-.9Z"/>
      <path class="st3" d="M52.7,205.6c-.7,0-1.3-.2-1.8-.5s-.7-.8-.8-1.3h.9c.2.7.8,1,1.7,1s1.1-.1,1.4-.4c.3-.3.5-.7.5-1.2v-.9h0c-.1.3-.4.6-.7.8s-.7.3-1.2.3-1-.1-1.4-.4-.7-.6-.9-1c-.2-.4-.3-.9-.3-1.5,0-.9.2-1.6.7-2.1s1.1-.8,1.9-.8.8,0,1.1.2.6.4.8.7h.4v-.8h1v.9h-.5v4.6c0,.7-.2,1.3-.7,1.7-.5.4-1.2.6-2,.6h0ZM52.9,202.6c.5,0,.9-.1,1.2-.4.3-.3.5-.7.5-1.2v-.9c0-.5-.2-.9-.5-1.2s-.7-.4-1.2-.4-1.1.2-1.4.5-.5.9-.5,1.5.2,1.2.5,1.5.8.5,1.4.5h0Z"/>
      <path class="st3" d="M57.3,203.3v-7.8h.9v3.1h0c.2-.3.4-.6.8-.8.3-.2.7-.3,1.2-.3.7,0,1.2.2,1.7.6s.6.9.6,1.6v3.4h-.9v-3.3c0-.5-.1-.9-.4-1.2s-.7-.4-1.2-.4-1,.1-1.2.4-.4.7-.4,1.2v3.3h-.9Z"/>
      <path class="st3" d="M65.2,203.3c-.3,0-.5,0-.6-.2s-.2-.3-.2-.6v-4.1h-1.1v-.7h1.1v-1.7h.8v1.7h1.5v.7h-1.5v4.2h1.7v.7h-1.7Z"/>
      <path class="st3" d="M68.2,203.3v-4.6h-.5v-.9h1v1h.4c.2-.3.4-.6.7-.8s.7-.3,1.2-.3h.4v.7h-.5c-.6,0-1,.2-1.4.5-.3.3-.5.8-.5,1.4v2.9h-.9,0Z"/>
      <path class="st3" d="M74.6,203.4c-.6,0-1.1-.1-1.5-.4-.4-.2-.7-.6-1-1s-.3-.9-.3-1.5.1-1.1.3-1.5c.2-.4.6-.8,1-1s.9-.4,1.5-.4,1.1.1,1.5.4c.4.2.7.6,1,1s.3.9.3,1.5-.1,1.1-.3,1.5c-.2.4-.6.8-1,1s-.9.4-1.5.4h0ZM74.6,202.7c.6,0,1.1-.2,1.4-.6s.5-.9.5-1.6-.2-1.2-.5-1.6c-.3-.4-.8-.6-1.4-.6s-1.1.2-1.4.6c-.3.4-.5.9-.5,1.6s.2,1.2.5,1.6c.3.4.8.6,1.4.6h0Z"/>
      <path class="st3" d="M81.1,203.4c-.6,0-1.1-.1-1.5-.4-.4-.2-.7-.6-1-1s-.3-.9-.3-1.5.1-1.1.3-1.5c.2-.4.6-.8,1-1s.9-.4,1.5-.4,1.1.1,1.5.4c.4.2.7.6,1,1s.3.9.3,1.5-.1,1.1-.3,1.5c-.2.4-.6.8-1,1s-.9.4-1.5.4h0ZM81.1,202.7c.6,0,1.1-.2,1.4-.6s.5-.9.5-1.6-.2-1.2-.5-1.6c-.3-.4-.8-.6-1.4-.6s-1.1.2-1.4.6c-.3.4-.5.9-.5,1.6s.2,1.2.5,1.6c.3.4.8.6,1.4.6h0Z"/>
      <path class="st3" d="M85.4,203.3v-4.6h-.5v-.9h1v.8h.5c.2-.3.4-.5.7-.7.3-.2.7-.2,1.1-.2s.8,0,1.1.3c.3.2.6.5.7.8h0c.4-.7,1-1.1,1.9-1.1s1.2.2,1.6.6c.4.4.6.9.6,1.6v3.5h-.9v-3.4c0-1-.5-1.5-1.5-1.5s-1.5.5-1.5,1.5v3.4h-.9v-3.4c0-1-.5-1.5-1.5-1.5s-.9.1-1.1.4c-.3.3-.4.6-.4,1.1v3.4h-.9,0Z"/>
    </g>
    <g class="st0">
      <text class="st1" transform="translate(27.9 216.6)"><tspan x="0" y="0" xml:space="preserve">    </tspan></text>
    </g>
    <g class="st0">
      <path class="st3" d="M39.7,214.5c-.2,0-.3,0-.5-.2s-.2-.3-.2-.5,0-.3.2-.5c.1-.1.3-.2.5-.2s.3,0,.5.2.2.3.2.5,0,.3-.2.5c-.1.1-.3.2-.5.2Z"/>
      <path class="st3" d="M40.9,216.6l3.2-7.5h1l3.2,7.5h-.9l-1-2.4h-3.7l-1,2.4h-.9ZM43.1,213.4h3.1l-1.5-3.6h0l-1.5,3.6Z"/>
      <path class="st3" d="M51.4,216.7c-.5,0-1-.1-1.4-.4-.4-.2-.7-.6-.9-1-.2-.4-.3-.9-.3-1.5s0-1.1.3-1.5.5-.8.9-1,.8-.4,1.3-.4.8,0,1.2.3.6.4.8.8h0v-3.1h.9v6.8h.5v.9h-1v-.8h-.4c-.2.3-.4.5-.8.7-.3.2-.7.2-1.1.2ZM51.5,216c.5,0,1-.1,1.3-.5.3-.3.5-.7.5-1.2v-.9c0-.5-.2-.9-.5-1.2s-.8-.5-1.3-.5-1,.2-1.4.6c-.3.4-.5.9-.5,1.6s.2,1.2.5,1.6.8.6,1.4.6Z"/>
      <path class="st3" d="M58.5,216.7c-.6,0-1.1-.1-1.5-.4-.4-.2-.7-.6-1-1s-.3-.9-.3-1.5.1-1.1.3-1.5c.2-.4.5-.8,1-1,.4-.2.9-.4,1.5-.4s1.1.1,1.5.4c.4.2.7.6,1,1s.3.9.3,1.5-.1,1.1-.3,1.5c-.2.4-.5.8-1,1-.4.2-.9.4-1.5.4h0ZM58.5,215.9c.6,0,1.1-.2,1.4-.6s.5-.9.5-1.6-.2-1.2-.5-1.6c-.3-.4-.8-.6-1.4-.6s-1.1.2-1.4.6c-.3.4-.5.9-.5,1.6s.2,1.2.5,1.6.8.6,1.4.6h0Z"/>
      <path class="st3" d="M65.5,216.7c-.4,0-.8,0-1.1-.2s-.6-.4-.8-.7h-.4v.8h-1v-.9h.5v-6.8h.9v3.1h0c.2-.3.4-.6.8-.8.3-.2.7-.3,1.2-.3s1,.1,1.3.4.7.6.9,1c.2.4.3.9.3,1.5s0,1.1-.3,1.5-.5.8-.9,1-.8.4-1.4.4ZM65.3,216c.6,0,1-.2,1.4-.6s.5-.9.5-1.6-.2-1.2-.5-1.6c-.3-.4-.8-.6-1.4-.6s-1,.1-1.3.5c-.3.3-.5.7-.5,1.2v.9c0,.5.2.9.5,1.2s.8.5,1.3.5Z"/>
      <path class="st3" d="M71.8,216.7c-.6,0-1.1-.1-1.5-.4-.4-.2-.7-.6-1-1-.2-.4-.3-.9-.3-1.5s.1-1.1.3-1.5c.2-.4.6-.8,1-1,.4-.2.9-.4,1.4-.4s1,.1,1.4.3c.4.2.7.5.9.9s.3.9.3,1.4v.4h-4.5c0,.6.2,1.1.6,1.5s.8.5,1.4.5.7,0,1-.3.5-.4.6-.8h.9c-.1.6-.4,1-.9,1.3s-1,.5-1.6.5h0ZM69.9,213.3h3.6c0-.5-.2-.9-.5-1.2-.3-.3-.7-.4-1.2-.4s-.9.1-1.2.4c-.3.3-.5.7-.6,1.2Z"/>
      <path class="st3" d="M77.8,216.6l2.8-3.9-2.6-3.6h1l2.2,3h0l2.2-3h.9l-2.6,3.6,2.8,3.9h-1l-2.3-3.3h0l-2.4,3.3s-.9,0-.9,0Z"/>
      <path class="st3" d="M85.7,216.6v-7.5h2.6c.8,0,1.5.1,2.1.4s1,.7,1.4,1.3.5,1.2.5,2-.2,1.4-.5,2-.8,1-1.4,1.3c-.6.3-1.3.4-2.1.4h-2.6ZM86.5,215.8h1.7c.9,0,1.7-.3,2.2-.8s.8-1.2.8-2.2-.3-1.7-.8-2.2-1.3-.8-2.2-.8h-1.7v6h0Z"/>
    </g>
    <g class="st0">
      <text class="st1" transform="translate(27.9 229.9)"><tspan x="0" y="0" xml:space="preserve">    </tspan></text>
    </g>
    <g class="st0">
      <path class="st3" d="M39.7,227.8c-.2,0-.3,0-.5-.2s-.2-.3-.2-.5,0-.3.2-.5c.1-.1.3-.2.5-.2s.3,0,.5.2.2.3.2.5,0,.3-.2.5c-.1.1-.3.2-.5.2Z"/>
      <path class="st3" d="M42.7,229.9h-.9v-7.5h5v.8h-4.2v2.6h3.9v.8h-3.9v3.4h0Z"/>
      <path class="st3" d="M48.3,223.5c-.2,0-.3,0-.4-.2s-.2-.2-.2-.4,0-.3.2-.4.2-.2.4-.2.3,0,.4.2.2.2.2.4,0,.3-.2.4-.2.2-.4.2ZM47.9,229.9v-5.5h.9v5.5h-.9Z"/>
      <path class="st3" d="M52.7,232.2c-.7,0-1.3-.2-1.8-.5s-.7-.8-.8-1.3h.9c.2.7.8,1,1.7,1s1.1-.1,1.4-.4c.3-.3.5-.7.5-1.2v-.9h0c-.1.3-.4.6-.7.8s-.7.3-1.2.3-1-.1-1.4-.4-.7-.6-.9-1c-.2-.4-.3-.9-.3-1.5,0-.9.2-1.6.7-2.1s1.1-.8,1.9-.8.8,0,1.1.2.6.4.8.7h.4v-.8h1v.9h-.5v4.6c0,.7-.2,1.3-.7,1.7-.5.4-1.2.6-2,.6h0ZM52.9,229.1c.5,0,.9-.1,1.2-.4.3-.3.5-.7.5-1.2v-.9c0-.5-.2-.9-.5-1.2s-.7-.4-1.2-.4-1.1.2-1.4.5-.5.9-.5,1.5.2,1.2.5,1.5.8.5,1.4.5h0Z"/>
      <path class="st3" d="M57.5,229.9v-4.6h-.5v-.9h1v.8h.5c.2-.3.4-.5.7-.7s.7-.2,1.1-.2.8,0,1.1.3c.3.2.5.5.7.8h0c.4-.7,1-1.1,1.9-1.1s1.2.2,1.5.6c.4.4.6.9.6,1.6v3.5h-.9v-3.4c0-1-.5-1.5-1.5-1.5s-1.5.5-1.5,1.5v3.4h-.9v-3.4c0-1-.5-1.5-1.5-1.5s-.9.1-1.1.4c-.3.3-.4.6-.4,1.1v3.4h-.9,0Z"/>
      <path class="st3" d="M69.2,230c-.6,0-1.1-.2-1.5-.5s-.5-.7-.5-1.2.2-.9.5-1.2.8-.4,1.5-.4h2v-.3c0-.9-.5-1.4-1.5-1.4s-1.3.3-1.5.9h-.9c0-.5.3-.9.8-1.2s1-.4,1.6-.4,1.3.2,1.7.5c.4.4.6.9.6,1.6v2.6h.4v.9h-1v-.8h-.4c-.2.3-.5.5-.8.7s-.7.2-1.1.2h0ZM69.3,229.3c.3,0,.7,0,1-.2s.5-.4.7-.6c.2-.2.3-.5.3-.8v-.3h-1.9c-.8,0-1.3.3-1.3,1s.1.5.3.7.6.3.9.3h0Z"/>
    </g>
    <line class="st4" x1="19.6" y1="13.3" x2="19.6" y2="364.5"/>
    <rect class="st3" x="1" y="13.3" width="18.6" height="148.6"/>
    <path class="st2" d="M15.4,157.9H5.5v-2.9h1.2v1.6h7.6v-1.6h1.1s0,2.9,0,2.9Z"/>
    <path class="st2" d="M11.5,150.3c0,.3,0,.5-.3.7-.2.2-.4.3-.7.3s-.5,0-.7-.3c-.2-.2-.3-.4-.3-.7s0-.5.3-.7c.2-.2.4-.3.7-.3s.5,0,.7.3c.2.2.3.4.3.7Z"/>
    <path class="st2" d="M13.6,146l-8.1-3.4v-1.6l8.1-3.4v1.6l-2.1.9v3.6l2.1.9v1.5h0ZM10.2,143.1v-2.7l-3.1,1.3h0c0,0,3.1,1.4,3.1,1.4h0Z"/>
    <path class="st2" d="M13.6,133.4h-4.5v.7h-1.5v-1.5h1.2v-.4c-.4-.2-.7-.4-.9-.8s-.3-.7-.3-1.2v-.5h1.3v.6c0,.5.2.9.5,1.2s.7.4,1.2.4h3.1v1.5h0Z"/>
    <path class="st2" d="M13.6,124.2c0,.4-.1.7-.3.9s-.5.3-.9.3h-3.6v1.1h-1.2v-1.1h-1.8v-1.5h1.8v-1.4h1.2v1.4h3.7v-1.6h1.2v1.8h0Z"/>
    <path class="st2" d="M15.4,113.9H5.2v-1.1h10.2s0,1.1,0,1.1Z"/>
    <path class="st2" d="M13.6,103.7H5.5v-3.1c0-.9.2-1.6.5-2.3.3-.6.8-1.1,1.4-1.5s1.3-.5,2.2-.5,1.5.2,2.1.5,1.1.8,1.4,1.5c.3.6.5,1.4.5,2.3v3.1h0ZM12.3,102.2v-1.6c0-.9-.2-1.6-.8-2s-1.2-.7-2-.7-1.5.2-2,.7c-.5.5-.7,1.2-.7,2v1.6h5.5Z"/>
    <path class="st2" d="M6.9,91.4c0,.2,0,.4-.2.6-.2.2-.4.2-.6.2s-.4,0-.6-.2c-.2-.2-.2-.4-.2-.6s0-.4.2-.6c.2-.2.4-.2.6-.2s.4,0,.6.2c.2.2.2.4.2.6ZM13.6,92.2h-6v-1.5h6v1.5Z"/>
    <path class="st2" d="M13.6,85.9h-4.5v.7h-1.5v-1.5h1.2v-.4c-.4-.2-.7-.4-.9-.8s-.3-.7-.3-1.2v-.5h1.3v.6c0,.5.2.9.5,1.2s.7.4,1.2.4h3.1v1.5h0Z"/>
    <path class="st2" d="M13.7,75.6c0,.7-.1,1.2-.4,1.7s-.6.8-1.1,1.1-1,.4-1.7.4-1.2-.1-1.6-.4c-.5-.2-.8-.6-1.1-1.1s-.4-1-.4-1.6.1-1.1.3-1.6c.2-.4.6-.8,1-1,.4-.2,1-.4,1.6-.4h.5v4.6c.5,0,.9-.2,1.2-.5s.4-.7.4-1.2,0-.7-.2-.9-.3-.4-.6-.5v-1.5c.6.1,1.1.5,1.5,1,.4.5.5,1.1.5,1.9h0ZM9.9,77.3v-3.2c-.4,0-.7.2-.9.5-.2.3-.3.6-.3,1.1s.1.8.3,1.1.5.5.9.6Z"/>
    <path class="st2" d="M13.7,65.9c0,.6-.1,1.2-.4,1.6-.3.5-.6.8-1.1,1.1-.5.3-1,.4-1.6.4s-1.2-.1-1.6-.4-.8-.6-1.1-1.1c-.3-.5-.4-1-.4-1.6s.2-1.4.6-1.9c.4-.5.9-.8,1.6-1v1.5c-.3,0-.5.3-.7.5s-.2.5-.2.9.2.9.5,1.2c.3.3.8.4,1.4.4s1-.2,1.4-.4c.3-.3.5-.7.5-1.2,0-.8-.3-1.2-1-1.4v-1.5c.7.1,1.3.4,1.7,1,.4.5.6,1.2.6,2h0Z"/>
    <path class="st2" d="M13.6,57.6c0,.4-.1.7-.3.9-.2.2-.5.3-.9.3h-3.6v1.1h-1.2v-1.1h-1.8v-1.5h1.8v-1.5h1.2v1.4h3.7v-1.6h1.2v1.8h0Z"/>
    <path class="st2" d="M6.9,51.1c0,.2,0,.4-.2.6-.2.2-.4.2-.6.2s-.4,0-.6-.2c-.2-.2-.2-.4-.2-.6s0-.4.2-.6.4-.2.6-.2.4,0,.6.2c.2.2.2.4.2.6ZM13.6,51.9h-6v-1.5h6v1.5Z"/>
    <path class="st2" d="M13.7,43.2c0,.7-.1,1.2-.4,1.7-.3.5-.6.8-1.1,1.1-.5.3-1,.4-1.6.4s-1.2-.1-1.7-.4c-.5-.3-.8-.6-1.1-1.1s-.4-1-.4-1.7.1-1.2.4-1.7c.2-.5.6-.8,1.1-1.1s1-.4,1.7-.4,1.2.1,1.6.4c.5.3.8.6,1.1,1.1.2.5.4,1,.4,1.7h0ZM12.4,43.2c0-.5-.2-1-.5-1.2s-.8-.4-1.3-.4-1,.2-1.3.4c-.3.3-.5.7-.5,1.2s.2,1,.5,1.2c.3.3.8.4,1.3.4s1-.2,1.3-.4.5-.7.5-1.2Z"/>
    <path class="st2" d="M13.6,35.7h-4.5v.7h-1.5v-1.5h1v-.4c-.3-.2-.6-.5-.8-.9s-.3-.8-.3-1.3c0-.8.2-1.5.7-1.9s1.1-.7,1.8-.7h3.6v1.5h-3.3c-.5,0-.8.1-1.1.4s-.4.6-.4,1.1.1.8.4,1.1.6.4,1.1.4h3.3s0,1.5,0,1.5Z"/>
    <path class="st2" d="M11.5,24.8c0,.3,0,.5-.3.7-.2.2-.4.3-.7.3s-.5,0-.7-.3c-.2-.2-.3-.4-.3-.7s0-.5.3-.7c.2-.2.4-.3.7-.3s.5,0,.7.3.3.4.3.7Z"/>
    <path class="st2" d="M15.4,20.2h-1.1v-1.6h-7.6v1.6h-1.2v-2.9h9.9s0,2.9,0,2.9Z"/>
  </g>
</svg>