<?xml version="1.0" encoding="UTF-8"?>
<svg id="Layer_1" xmlns="http://www.w3.org/2000/svg" xmlns:xlink="http://www.w3.org/1999/xlink" version="1.1" viewBox="0 0 950.9 632.7" width="1421.6" height="945.9">
  <!-- Generator: Adobe Illustrator 30.3.0, SVG Export Plug-In . SVG Version: 2.1.3 Build 182)  -->
  <defs>
    <style>
      .st0, .st1, .st2, .st3 {
        fill: none;
      }

      .st4, .st5 {
        isolation: isolate;
      }

      .st1 {
        stroke-dasharray: 1 5.1 1 5.1;
      }

      .st1, .st2, .st3 {
        stroke: #9b2226;
        stroke-linecap: round;
        stroke-linejoin: round;
        stroke-width: 2px;
      }

      .st3 {
        stroke-dasharray: 1 5.1 1 5.1 1 5.1;
      }

      .st6 {
        opacity: .3;
      }

      .st6, .st5, .st7 {
        fill: #9b2226;
      }

      .st5 {
        font-family: DINCondensed-Bold, 'DIN Condensed';
        font-size: 5.7px;
        font-weight: 700;
      }

      .st8 {
        clip-path: url(#clippath);
      }
    </style>
    <clipPath id="clippath">
      <rect class="st0" x="36.4" y="42.6" width="79.2" height="20.3"/>
    </clipPath>
  </defs>
  <g id="Layer_1-2">
    <path class="st6" d="M60.6,606.3h866.5V33.1l-36.6-12.5c-248.6-.9-461.3,0-461.3,0l-49.1,10.2h-248.3l-50.5-10.2H23.7v569.2l36.9,16.5h0Z"/>
    <polygon class="st7" points="927.1 606.3 936.9 597.7 936.9 506.5 927.9 497.4 927.1 606.3"/>
    <rect class="st7" x="735.3" y="39.3" width="191.9" height="8.8"/>
    <rect class="st7" x="735.3" y="57.1" width="191.9" height="8.8"/>
    <line class="st2" x1="17.5" y1="25" x2="17.5" y2="582.9"/>
    <line class="st2" x1="28.5" y1="42.3" x2="28.5" y2="43.1"/>
    <line class="st1" x1="28.5" y1="51.3" x2="28.5" y2="66.8"/>
    <line id="animate_3" class="st3" x1="28.5" y1="70.9" x2="28.5" y2="595.3"/>
    <line class="st2" x1="28.5" y1="296.8" x2="36.4" y2="296.8"/>
    <line class="st2" x1="28.5" y1="355.4" x2="36.4" y2="355.4"/>
    <line class="st2" x1="28.5" y1="238.2" x2="36.4" y2="238.2"/>
    <line class="st2" x1="893.7" y1="538" x2="920.3" y2="538"/>
    <line class="st2" x1="893.7" y1="534" x2="920.3" y2="534"/>
    <line class="st2" x1="893.7" y1="530" x2="920.3" y2="530"/>
    <line class="st2" x1="914.3" y1="52.7" x2="922.1" y2="52.7"/>
    <line class="st2" x1="65.8" y1="602.5" x2="74.7" y2="602.5"/>
    <line class="st2" x1="65.8" y1="596.1" x2="74.7" y2="596.1"/>
    <line class="st2" x1="65.8" y1="589.6" x2="74.7" y2="589.6"/>
    <g id="animate1" class="st4">
      <g class="st4">
        <g class="st4">
          <g class="st4">
            <text class="st5" transform="translate(882.4 546.3) scale(2.3 1)"><tspan x="0" y="0">01000010</tspan></text>
          </g>
        </g>
      </g>
      <g class="st4">
        <g class="st4">
          <g class="st4">
            <text class="st5" transform="translate(882.4 553.1) scale(2.3 1)"><tspan x="0" y="0">01110010</tspan></text>
          </g>
        </g>
      </g>
      <g class="st4">
        <g class="st4">
          <g class="st4">
            <text class="st5" transform="translate(882.4 559.9) scale(2.3 1)"><tspan x="0" y="0">01100001</tspan></text>
          </g>
        </g>
      </g>
      <g class="st4">
        <g class="st4">
          <g class="st4">
            <text class="st5" transform="translate(882.4 566.6) scale(2.3 1)"><tspan x="0" y="0">01101110</tspan></text>
          </g>
        </g>
      </g>
      <g class="st4">
        <g class="st4">
          <g class="st4">
            <text class="st5" transform="translate(882.4 573.4) scale(2.3 1)"><tspan x="0" y="0">01100100</tspan></text>
          </g>
        </g>
      </g>
      <g class="st4">
        <g class="st4">
          <g class="st4">
            <text class="st5" transform="translate(882.4 580.2) scale(2.3 1)"><tspan x="0" y="0">00100000</tspan></text>
          </g>
        </g>
      </g>
      <g class="st4">
        <g class="st4">
          <g class="st4">
            <text class="st5" transform="translate(882.4 587) scale(2.3 1)"><tspan x="0" y="0">01000100</tspan></text>
          </g>
        </g>
      </g>
      <g class="st4">
        <g class="st4">
          <g class="st4">
            <text class="st5" transform="translate(882.4 593.8) scale(2.3 1)"><tspan x="0" y="0">01001110</tspan></text>
          </g>
        </g>
      </g>
      <g class="st4">
        <g class="st4">
          <g class="st4">
            <text class="st5" transform="translate(882.4 600.6) scale(2.3 1)"><tspan x="0" y="0">01000001</tspan></text>
          </g>
        </g>
      </g>
    </g>
    <polygon class="st7" points="909.1 69.6 922.1 69.6 922.1 82.6 909.1 69.6"/>
    <g id="animate_2">
      <g class="st8">
        <g>
          <rect class="st7" x="97.2" y="49" width="38" height="7.4" transform="translate(-3.2 97.6) rotate(-45)"/>
          <rect class="st7" x="81" y="49.1" width="38" height="7.4" transform="translate(-8 86.1) rotate(-45)"/>
          <rect class="st7" x="65.1" y="49" width="38" height="7.4" transform="translate(-12.6 74.9) rotate(-45)"/>
          <rect class="st7" x="48.9" y="49.1" width="38" height="7.4" transform="translate(-17.4 63.4) rotate(-45)"/>
          <rect class="st7" x="33" y="49" width="38" height="7.4" transform="translate(-22 52.2) rotate(-45)"/>
          <rect class="st7" x="16.9" y="49" width="38" height="7.4" transform="translate(-26.7 40.8) rotate(-45)"/>
        </g>
      </g>
    </g>
    <rect class="st2" x="36.4" y="42.6" width="79.2" height="20.3"/>
  </g>
</svg>