<?xml version="1.0" encoding="utf-8"?>
<!-- Generator: Adobe Illustrator 30.3.0, SVG Export Plug-In . SVG Version: 9.03 Build 0)  -->
<svg version="1.0" id="Layer_1" xmlns="http://www.w3.org/2000/svg" xmlns:xlink="http://www.w3.org/1999/xlink" x="0px" y="0px"
	 viewBox="0 0 499.8 730.9" style="enable-background:new 0 0 499.8 730.9;" xml:space="preserve">
<path d="M201,105.9c-4,0.7-6.4,3.7-4.2,5.1c1.2,0.7,0.8,1-1.5,1.4c-12.3,2.4-24.9,6.2-32.7,9.9c-9.6,4.6-23.6,14.5-28.2,19.9
	c-2.7,3.2-2.7,3.2-0.6,4.2c1.9,0.8,1.7,1.3-4.4,7.8c-7.1,7.4-11.8,15.7-14.6,25.8c-2.4,8.4-2.4,11,0,11c1,0,2.4-0.7,3.1-1.6
	c0.8-0.8,2.1-1.9,3-2.4c1.6-0.8,1.6-0.3-0.1,6.8c-2.1,8.5-2.6,25.1-0.9,28.3c1.4,2.6,3.9,2.4,4.9-0.3c0.6-1.8,1.2-0.6,2.6,5.7
	c1.8,8.2,5.2,15.9,10.1,23c3.5,5.2,7.9,19.6,16,52.8c2.9,11.9,3.3,15.1,2.3,16.3c-1.4,1.7-0.7,14.6,1.5,25.1
	c1.8,8.6,6.1,20.5,9.3,26.1c1.4,2.4,2.4,4.4,2.2,4.6c-0.2,0.2-2.5,1.3-5.1,2.4c-12.7,5.5-26.1,16.9-39.7,33.7
	c-6.1,7.4-21,28.4-23,32.2c-0.6,1.3-1.5,2.3-1.9,2.3s-2.2-3.5-4-7.8c-4.5-10.8-6.6-13.9-10.4-15.5c-1.8-0.8-3.9-2.1-4.7-3
	c-2.1-2.6-6.5-2-14.5,1.7c-7.8,3.5-10.6,6.4-10.6,10.7c0,1.4-0.5,4-1.1,5.7c-1,2.9-0.3,4.9,8.6,24.9c9.4,21.1,9.6,21.9,8.4,25.5
	c-0.9,2.9-0.9,4.3,0.1,6.7c1.2,3,0.9,3.5-7.7,16.8C49.3,533.2,48.2,535,44,544c-5.2,11.3-7.1,19-7.1,29.4c0,16.1,5.3,25.2,19.5,33.1
	c8.8,4.9,8.9,5,5.5,5.3c-27.5,2.2-74,11.1-74,14.2c0,2.1,2.9,1.8,21.9-2c11-2.2,21.6-4,23.6-4c4.6,0,8.4,2,11.3,5.9
	c1.3,1.8,3.8,3.9,5.6,4.7c2.7,1.3,3.2,2,2.8,4.4c-1,6.7,11.9,15,23.7,15.4c4.4,0.1,6,0.6,8.3,2.8c3.8,3.6,9,5.1,14.9,4.6
	c4.5-0.5,4.8-0.4,3.5,1.1c-0.9,0.9-4.5,4.7-8.1,8.6c-8.4,8.9-12.7,17.4-12.9,25.1c-0.1,7.1,1.3,7.8,5.7,2.9
	c3.2-3.6,12.4-9.2,13.5-8.1c1.3,1.3,0.1,7-2.5,11.7c-2.2,4-3.7,5.6-7.1,7c-9.8,4.2-41.1,12.3-69.3,17.8c-17.9,3.5-18.9,3.8-18.9,5.7
	c0,2.1,3.8,1.8,23.1-2c26.7-5.3,39-8.3,64.2-15.8c4-1.2,4.3-1.2,9.7-0.2c5.3,1,139.9,1,139.3,0.1c-0.3-0.5,0.3-0.5,1.3,0
	c1.1,0.5,50.4,0.8,114.4,0.7c133.3-0.3,121.3-0.2,120.5-1.4c-0.3-0.6-0.1-1,0.5-1c0.7,0,1-0.7,0.6-1.5c-0.3-0.9,0-1.5,0.9-1.5
	c0.8,0,1.5-0.9,1.5-2c0-1.1-0.4-2-1-2c-0.5,0-1-0.8-1-1.8c0-1.4,0.2-1.5,1-0.2c0.8,1.3,1,1.3,1-0.2c0-0.9-0.5-1.8-1.1-2
	c-1.6-0.5-2.1-64.7-0.5-66.7c0.8-1.1,0.8-1.3,0-0.8c-0.8,0.5-1.2-0.5-1.2-2.9c0-2.3,0.4-3.4,1.2-3.1c0.7,0.3,1.3-0.4,1.3-1.5
	c0.2-1.7,0-1.8-1.4-0.6c-1.4,1.1-1.5,0.9-1.1-2c0.3-1.9,0-3.2-0.6-3.2c-0.8,0-1,13.2-0.9,44.1c0.1,24.3-0.1,44.7-0.3,45.4
	c-0.4,0.9-6.4,1.2-24.9,1.1l-24.3-0.1l-0.4-3.3c-0.5-4.3-0.1-4.8,4.9-5.4c6.3-0.9,14.7-5.1,19.5-10c5.1-5.1,11.8-17.5,14.7-27.4
	c3.1-10.6,6-31.8,7-50.9c0.5-9.4,0.7-18.4,0.6-20c-0.2-1.7-0.6-9.4-1-17.2c-0.6-13.5-0.5-14.2,1.3-14.7c1.1-0.4,2.4-0.6,2.8-0.5
	c2.1,0.3,3.2-0.2,3.8-1.9c0.3-0.9,1.1-2.5,1.8-3.4c1-1.4,0.7-5.5-1.5-21.5c-4.5-32.8-12.8-68.3-21.8-92.8
	c-10.8-29.5-19.1-38.9-49.8-56c-15.5-8.6-63.6-31.4-71.2-33.6c-5-1.5-5.1-1.7-9.5-12.5c-3-7.3-3.8-10.7-4.4-19.4
	c-0.7-9.5-0.5-11.4,1.7-20c1.4-5.2,3.6-10.8,4.9-12.5c13.8-18.1,11.7-59.1-3.3-65.4l-2.8-1.2l-0.2-13.2
	c-0.4-24.4-5.2-42.9-13.9-53.5c-1.5-1.8-2-3-1.2-2.7s2-0.1,2.7-0.9c1.4-1.7-0.3-5.8-3.5-8.8c-3.6-3.2-14.8-7.8-19.1-7.8
	c-4,0-4.4-0.3-6.4-4.3c-2.9-5.6-8.1-11.6-13.1-15c-6.3-4.2-10-3.2-6.3,1.7c2.7,3.5,1.8,5-1.5,2.6c-4.8-3.4-13.9-7.1-23.9-9.6
	c-7.5-1.9-11.7-2.4-21-2.3C209.6,105.2,202.9,105.5,201,105.9z M237,112.1c10.8,2.7,21.5,7.7,26.6,12.3c6.3,5.6,9.6,4.6,6.8-2.1
	l-1.6-3.8l3.1,3c1.7,1.7,4.5,5.9,6.2,9.3l3,6.4l4.4-0.7c3.5-0.5,5.3-0.1,9.9,2.1c7.6,3.7,8.9,5.4,4.1,5.4c-4.8,0-4.7,2.3,0.2,5.4
	c5.1,3.2,10.7,11.6,13.7,20.5c3,8.9,5.5,26.9,5.5,40v9.8l-3.7,2.4c-2.7,1.7-5,4.6-7.8,10.1c-2.2,4.2-4.3,8-4.7,8.3
	c-0.3,0.4-0.9-0.9-1.2-2.7c-3.6-18.3-3.2-17.4-15.1-32.7c-1.7-2.1-2.1-4.7-2.6-15.1c-0.4-8.2-1.2-13.8-2.3-16.3
	c-3.6-8.2-13.2-15.8-25.9-20.6c-7.5-2.7-15.9-2.8-23.3,0c-5.4,2-8.1,3.8-25.2,16.1c-12.9,9.3-22.3,13.4-39.5,17.2
	c-2.7,0.6-2.7,0.6,1.8-5.5c5-6.7,5.1-7.2,3.2-8.8c-1.1-0.8-1.9-0.5-3.8,1.5c-4.9,5.3-18.8,11.4-25.9,11.4c-3.5,0-4.9,1.9-2.6,3.6
	c1.6,1.1,1.6,1.6,0.2,6.4c-2.6,8.8-3.8,24.4-2.7,36.5c0.5,6,0.8,11.2,0.5,11.4c-0.2,0.2-1.5-2.1-2.9-5.2c-2.6-5.7-5.5-18.3-5.5-24.2
	c0-4.2-1.2-5-3.5-2.5c-1,1.1-2.3,2-2.8,2c-1.9,0,0.3-14.9,3.4-23.3c5.3-14.3,5-15.1-3.1-9.7c-2.5,1.6-4.8,3-5.2,3
	c-0.9,0,2.1-8,5.3-14.2c2.8-5.6,17.2-20.2,22-22.4c5.3-2.4,5-5-0.6-4.6l-4,0.2l4.4-3.9c5.8-5.1,21.2-13.2,32.7-17
	c9.2-3.1,26.8-5.7,31-4.7c3.3,0.9,3.2-1.9-0.2-4.1c-2.4-1.6-2.5-1.8-0.8-2.5C211.5,108.5,227.9,109.8,237,112.1z M249.8,156.1
	c11.3,2.6,23.5,10.9,27.2,18.6c2,4.1,2.3,6.2,2.2,14.3c-0.1,5.2,0.3,11.2,0.8,13.2s3.6,7,6.9,11c7,8.4,8.6,12.7,10.2,27.5
	c1.2,9.9,1.1,10.5-1.1,15.5c-1.3,2.9-5.3,13.3-9,23l-6.6,17.7l-4.8,1.1c-17.7,3.8-27.9,3.7-45.9-0.6c-8-1.9-12.7-2.5-18.6-2.2
	l-7.9,0.3l0.1-12.9c0.1-13.3-1-17-3.1-10.4c-1,3-1.1,3.1-1.2,0.8c-0.1-1.4-1.7-5-3.6-7.9c-3.2-4.8-3.4-5.6-2.1-7
	c2-2.2,3-6.6,2.2-9.7l-0.7-2.6l-17.7,0.4c-15.9,0.3-18.1,0.6-21.9,2.6c-2.3,1.2-5,3.5-6,5.2c-0.9,1.6-2.1,3-2.4,3
	c-1.8,0-4.9-23.3-4.9-36.2c0-9.7,1.6-22.1,3.7-27.6c1.5-3.9,2-4.3,7.2-5.8c3.1-0.9,6.1-1.9,6.6-2.2c0.6-0.3,0.2,0.4-0.7,1.5
	c-3.1,3.4-2.2,4.3,4,4.3c16-0.1,38.5-9.5,53.1-22.3c4.9-4.2,13.8-9.8,19.1-11.8C240.1,154.8,243.6,154.6,249.8,156.1z M326,225
	c1,0.6,2.8,2.9,4,5.2c6.3,12.3,5.5,33.8-1.7,48c-3,5.9-3.9,6.8-7.1,6.8c-3.2,0-4-2.1-6.8-18.9c-4.6-27.4-3.5-38.1,4.5-40.8
	C323.3,223.8,323.6,223.8,326,225z M191.9,251c0,0.6-1.2,2.3-2.6,3.7c-2.5,2.5-2.8,2.5-9.7,1.7c-4-0.5-11.6-0.9-16.9-0.9h-9.6l3.1-2
	c2.6-1.7,5.5-2.1,17.2-2.6c7.7-0.3,15-0.6,16.3-0.7C190.9,250.1,191.9,250.5,191.9,251z M310.8,269.5c1.2,6,2.8,14.8,3.5,19.4
	l1.4,8.5l-3.3,10c-1.8,5.6-5.4,15.5-7.8,22l-4.5,11.9l-2.5-4.4c-1.4-2.4-3.3-6.7-4.2-9.5l-1.6-5l4.1-7.6
	c8.5-15.7,11.5-31.1,9.2-46.8c-0.7-5.1-0.6-7.6,0.6-11.5l1.5-5l0.8,3.5C308.4,256.9,309.7,263.4,310.8,269.5z M299,263.1
	c-1.5,4.1-3.1,8.3-3.5,9.3c-0.3,1-0.9,1.7-1.1,1.4c-0.5-0.5,2.9-10.2,5.6-16.1C302.4,252.4,301.8,255.7,299,263.1z M177.4,260.6
	l11,0.7l3.3,5.4c1.8,2.9,3.2,6.1,3,7.1c-0.6,3.4-25,9.8-34.5,9c-3.7-0.3-3.8-0.4-4.1-4.5c-0.2-2.7,0.4-6,1.7-8.9
	c2.3-5.1,2-6.9-1-5.4c-1.2,0.7-2.6,3.4-3.6,7.2l-1.7,6.1l-1.4-5.3c-1.6-6.3-1.3-7.4,3-10C156.7,259.8,159.8,259.6,177.4,260.6z
	 M299.9,293.5c-0.6,2.9-3,9.1-5.2,13.7l-4.1,8.3l-0.9-6.3c-0.8-6.1-0.7-6.7,4.9-22l5.8-15.7l0.3,8.4
	C300.9,284.5,300.5,290.6,299.9,293.5z M290.4,286c-3.3,9.9-5.5,14.5-4.1,8.7c1-4.3,6.8-19.8,7.2-19.4
	C293.7,275.5,292.3,280.3,290.4,286z M194.5,283.2c-0.4,2-2.2,4.8-4.7,7.2l-4.1,3.9l-2.5-3.2c-1.3-1.7-3.2-3.1-4.1-3.1
	c-2.7,0-6.2,2.9-6.2,5.1c0,1-0.5,1.9-1.1,1.9c-2,0-7.6-3.1-9.8-5.4l-2.2-2.3l7.9-0.7c7.5-0.6,20.9-3.7,24.1-5.6
	C194.6,279.4,195.2,279.9,194.5,283.2z M198.6,290.5c-0.3,4.3-1.1,7.3-2.2,8.5c-2.7,2.9-3.6,2.4-1.9-1c2.7-5.4,0.5-4.9-5.6,1.2
	c-6.6,6.6-7.4,8.3-3.3,7.5c2.7-0.5,2.7-0.4,0.8,1c-4,3-16.1,8.3-20.5,8.9l-4.5,0.6l-2.9-11.9c-1.6-6.5-3.1-12.9-3.4-14.3l-0.5-2.5
	l2.2,2.8c5.4,6.7,16.9,10.2,25.7,7.8c6-1.6,12.3-6.6,14.3-11.2c0.9-2.1,1.8-3.9,2-3.9S198.9,286.9,198.6,290.5z M230.9,302.5
	c6.8,1.8,37,3.6,37,2.2c0-0.4,0.7-0.7,1.6-0.7c1.1,0,1.4,0.5,0.9,1.7c-0.4,1.3-0.1,1.2,1.5-0.5c1.1-1.2,3.2-2.2,4.5-2.2
	c1.3,0,3.5-0.4,4.9-1c3-1.1,3.3-0.5,4,10c0.7,10.3,4.9,21.8,11.7,32l6,8.9l-2.6,5.1c-2.9,5.7-4.1,6.7-1.9,1.5c1-2.4,1.1-3.4,0.3-3.3
	c-0.6,0.2-1.4-0.3-1.7-1.1c-0.3-0.9,0-1.1,0.8-0.6c0.9,0.5,1.1,0.4,0.6-0.4c-0.4-0.6-1.2-0.9-1.7-0.5c-0.5,0.3-1.6,0.1-2.4-0.6
	c-1-0.8-1.5-0.8-2.1,0.1c-0.4,0.7-0.3,0.9,0.3,0.6c1.4-0.9,3.8,2.3,3.8,4.8c0,1.1-0.9,2.2-2,2.5c-1.3,0.3-2.1,1.5-2.3,3.5
	c-0.2,1.6-0.9,3.3-1.5,3.7s-0.9,1-0.5,1.3c0.3,0.3,1.3-0.1,2.2-1c1.3-1.3,1.6-1.4,1.6-0.2c0,3.8-15.1,20.7-18.5,20.7
	c-1.4,0-1.6,0.3-0.7,0.8c0.8,0.6,0.3,1.5-2,3.2c-1.7,1.3-3.7,2.3-4.4,2.3c-0.7,0-1.2,0.4-1.1,0.9c0.2,0.9-11.9,8.8-13.5,8.8
	c-0.5,0-0.6-0.6-0.3-1.3c0.4-0.6,0-0.5-0.7,0.5c-0.8,0.9-3.4,2.2-5.8,2.9c-5.9,1.6-22.6,1.7-24.3,0c-0.9-1-0.8-1.1,0.8-0.5
	c1.1,0.4,1.7,0.4,1.3,0c-0.9-1.1-5.9-1.5-5.2-0.5c0.8,1.4-1.1,1.1-8.1-1.5c-8.3-3-14.6-7.1-13.9-9c0.4-1,0-1.4-1.3-1.2
	c-2.3,0.4-7.5-3.2-6.7-4.6c0.4-0.6,0.3-0.8-0.3-0.5c-1.3,0.8-12-10.2-15.7-16.1c-1.5-2.4-2.5-5-2.2-5.8c0.3-0.7,0.2-1.3-0.2-1.1
	c-0.4,0.1-0.7-0.3-0.7-0.8c0-0.6,0.2-0.9,0.5-0.8s0.6-0.7,0.6-1.7s-0.4-1.6-0.8-1.4c-0.4,0.3-0.8,0.1-0.8-0.5s-0.8-0.7-1.7-0.4
	c-1.3,0.5-1.5,0.2-1-1.1c0.4-0.9,0.3-1.5-0.2-1.2c-1.7,1.1-7.1-23.7-7.1-32.8c0-3.3,0.3-3.6,2.8-3.6c7.7,0,20.9-6.3,31.2-14.8
	c3-2.5,4.9-3.9,4.3-3.2c-1.9,2.1-1.6,2.9,1,2.3c1.9-0.5,1.8-0.3-0.8,1.8c-1.6,1.3-5.2,4.3-8,6.7c-5.1,4.5-13,9-20,11.2
	c-6.8,2.2-7.1,5.6-0.3,4.5c5.7-1,16.3-6.9,23.6-13.3c7.3-6.4,11.5-8.1,19.5-8.2c4.8,0,5.7,0.3,5.7,1.7c0,1.3,0.3,1.4,0.8,0.6
	c0.6-1,3.4-0.7,12.3,1.3c10.2,2.4,12.8,2.6,24.9,2.1c15.1-0.6,19.3-1.5,19.8-4.1c0.4-1.7-0.1-1.8-5.5-1c-3.2,0.5-11.9,0.8-19.3,0.7
	c-10.9-0.1-15.2-0.6-22-2.5c-5.9-1.7-8.4-2.8-8.2-3.8c0.3-1.1,0.1-1.1-1.3,0c-1.5,1.2-2,1.1-3.7-1c-1.2-1.5-1.8-1.8-1.5-0.8
	c0.5,1.3-0.3,1.7-4.1,2.2c-2.6,0.3-5.6,0.4-6.6,0.4c-1.8-0.1-1.8-0.2,0.3-1.9c1.4-1.2,1.7-1.9,0.9-2.2c-0.7-0.3-0.3-0.6,1-0.6
	c1.2-0.1,2.2,0.4,2.2,0.9c0,0.6-1,1.5-2.2,2c-1.7,0.6-1.8,0.9-0.6,0.9c0.9,0.1,2-0.4,2.3-0.9c0.3-0.6,1.8-0.8,3.3-0.5
	c1.6,0.3,2.1,0.2,1.2-0.2C206.6,299.1,218,299.2,230.9,302.5z M314.4,318c-0.9,2.8-1.9,5-2.1,4.8c-0.2-0.2,0.4-2.7,1.3-5.6
	c0.9-2.8,1.9-5,2.1-4.7C315.9,312.7,315.3,315.2,314.4,318z M315.3,334.7c-2.3,6.6-8.4,19.9-7,15.2c2.8-9.6,9.2-26.5,9.4-25
	C317.9,326,316.8,330.4,315.3,334.7z M306.4,341.1c-2,5.1-2.4,5.7-2.1,2.9c0.5-4.2,3.7-12,4.3-10.4
	C308.8,334.2,307.8,337.6,306.4,341.1z M329.9,354c2.3,4.7,4.8,9.2,5.5,10c2.7,3-3,19.7-10.4,30.4c-14,20.3-41,34.3-61.9,32.2
	c-8.4-0.9-17.3-4.8-21.4-9.5l-3.1-3.5l5.9-1.2c15.2-3.1,29.1-11,42-23.8c14.8-14.7,25.1-30.3,32.8-49.6l1.8-4.5l2.2,5.5
	C324.6,343,327.5,349.3,329.9,354z M347.7,359.3c2.2,1.7-0.5,17.3-4.9,27.8c-8.7,21.3-25.9,38.1-47.9,46.7
	c-11.3,4.5-17.3,5.5-29.1,5c-12.4-0.6-19.6-3-27.2-9.2c-4.5-3.6-11.7-13.4-11.7-15.8c0-0.4,1.3-0.8,2.9-0.8c2.2,0,3.4,0.9,5.4,3.9
	c3.3,5,13.3,11.6,19.7,13c22.4,4.8,48.9-4.9,67-24.6c11.9-13,17.9-26,18.8-40.5l0.5-8.6l2.6,1.1C345.2,357.9,347,358.8,347.7,359.3z
	 M380.1,374.8c37.8,18.5,49.7,26,58.4,37.1c8.4,10.7,14.7,25.5,22.3,52.3c6.6,23.4,14.9,67.4,15.4,81.8l0.2,6.5l-8.5,4.2
	c-19.9,10-40.2,14.7-63,14.7c-13.4-0.1-27.3-1.4-28.7-2.8c-2.3-2.3-4-53-2.3-71.5c0.9-10.3,0.9-14.6,0.1-15.4
	c-0.6-0.6-1.4-0.8-1.7-0.4c-3.1,3.1-4.6,48.7-2.4,74.5c1.4,17.1,1.4,16.9,5.3,17.6l3.3,0.6l1.1,13.3c0.5,7.2,0.9,13.3,0.7,13.5
	c-0.8,1.1-27.1-9-44-16.8c-26.3-12.2-36.9-16.3-55.4-21.7c-19.9-5.7-23.7-6.1-32-3.3c-9.5,3.2-29,13.5-35.7,18.9
	c-4.1,3.3-7.4,5-11.3,5.9c-11.8,2.7-17.2,8.1-15.3,15.3c0.9,3.4,0.8,3.8-1.1,4.3c-1.2,0.3-3.3,0.6-4.7,0.6c-2.5,0-2.7-0.4-3.1-4.8
	c-0.2-2.6-0.5-11-0.7-18.7c-0.2-16.7-1.1-25.8-5.1-51c-1.6-10.5-4.1-27.8-5.5-38.5c-3.6-27.7-3.5-27-5.2-27c-1.4,0-1.5,1.2-0.9,8.7
	c0.3,4.8,0.9,10.5,1.2,12.8c0.5,3.4,0,2.8-3.3-4.4c-2.1-4.6-4.4-8.6-5.2-8.9c-2.7-0.9-0.4,7.4,4.8,17.9c4.1,8,5.4,11.8,6.2,18
	c1,7.5,1,8-1.6,12.6c-4.8,8.9-4.5,8.7-10.6,5.3c-3.1-1.7-8.5-3.5-12.5-4.1l-7.1-1.2l-5.6-12.6c-3.1-6.9-10-22.3-15.3-34.1
	c-5.3-11.8-9.7-22-9.7-22.5c0-1.5,18.5-27.7,27-38.2c12.8-15.9,28.5-28.6,40.1-32.4c3.3-1.1,3.3-1.1,12,7.8
	c12,12.3,27.2,21.7,37.3,23c3.2,0.5,4.3,1.1,5,3.2c4.7,12.6,13.7,21.2,27.5,26.3c4.8,1.7,8.1,2.1,17.9,2.2c10.9,0,12.8-0.3,21.4-3.3
	c12.7-4.3,21.1-8.9,30.9-16.7c15.7-12.6,26.8-30.9,30.6-50.7c1.1-5.9,2.2-10.7,2.3-10.7C353.8,362,365.7,367.8,380.1,374.8z
	 M88.5,435.9c-1,1.6-3.3,1.3-4-0.4c-0.5-1.3-0.2-1.4,1.6-0.4c1.9,1,2,0.9,1.4-0.7c-0.5-1.5-0.4-1.6,0.5-0.7
	C88.6,434.3,88.8,435.3,88.5,435.9z M62.9,448.5c0,0.8,0.4,1.7,1,2c0.5,0.3,0.7,0,0.4-0.8c-0.3-0.8,0-1.8,0.7-2.3
	c0.8-0.4,1-0.3,0.5,0.4c-0.4,0.7-0.2,1.2,0.4,1.2c0.8,0,0.8,0.6,0,2c-0.6,1.2-0.8,3.1-0.5,4.3c0.7,2.7-3-3.9-4-7.2
	c-0.5-1.6-0.4-2.1,0.4-1.7C62.4,446.8,62.9,447.7,62.9,448.5z M96.4,451.7c4.9,10.5,5.7,13.3,4.1,14.8c-1.1,1.2-1.9,0.3-4.5-5.5
	c-1.8-3.8-2.9-7.5-2.5-8.1c0.4-0.7,0.3-0.9-0.3-0.6c-0.6,0.4-1.3-0.2-1.6-1.3c-0.3-1.1-0.1-2,0.4-2s0.9,0.4,0.9,1c0,0.5,0.4,1,1,1
	c0.6,0,0.6-0.9,0-2.5C92.2,443.9,93.7,445.9,96.4,451.7z M73.5,471.9c-0.3,0.4,0.1,0.8,0.9,0.8c0.8,0,1.2-0.4,0.9-0.9
	c-0.3-0.4-0.1-0.8,0.4-0.8s1.9,2.1,3,4.7c2,4.7,1.5,7-1.5,7c-1.5,0-3.4-5.2-2.7-7.5c0.5-1.4,0.4-1.5-0.5-0.2c-0.6,0.8-1.1,1-1.2,0.5
	c-0.6-4-0.5-5.4,0.3-4.9C73.5,470.9,73.7,471.5,73.5,471.9z M91.9,472.6c0,0.8-0.4,1.2-1,0.9c-0.5-0.3-1-1.3-1-2.1
	c0-0.8,0.5-1.2,1-0.9C91.5,470.8,91.9,471.8,91.9,472.6z M105.3,478.2c-0.6,1-0.5,1,0.7,0.1c1.3-1.1,1.8-0.7,3.2,2.2l1.7,3.5H108
	c-1.6,0-4.8,0.7-7.1,1.5c-5.3,1.9-6.4,1.9-4.8,0.1c0.7-0.8,1.6-1.2,1.9-1c0.9,0.5,5.4-3.8,6.2-5.9c0.3-0.9,0.9-1.7,1.2-1.7
	C105.8,477,105.7,477.6,105.3,478.2z M112.9,489c0,0.5-0.5,1-1,1c-0.6,0-0.8,1.5-0.6,3.5c0.3,2,0.1,3.3-0.5,3
	c-1.1-0.7-5.1,1.9-4.4,2.8c0.3,0.4,0.2,0.5-0.2,0.2c-1-0.8-1.3-3.6-0.3-3c0.5,0.3,1.5-0.1,2.3-0.9s1.7-1.2,2.1-0.9
	c0.3,0.4,0.6,0.4,0.6,0.1c0-0.3-0.8-1.2-1.7-1.9c-1.1-1-1.4-1-0.9-0.2c0.4,0.7,0.2,1.3-0.3,1.3c-2.1,0-2.6,0.2-3.3,1.3
	c-0.3,0.6-1.6,1.2-2.8,1.4c-1.2,0.2-1.9-0.1-1.5-0.6c0.3-0.5,0-1.3-0.6-1.7c-0.8-0.5-1-0.1-0.7,1.4c0.3,1.2,0.1,2.3-0.6,2.6
	c-0.6,0.3,0.1,0.3,1.5,0c2-0.4,2.8,0,3.8,2.2c0.9,2,0.9,3,0.1,3.8c-0.8,0.8-0.9,0.6-0.5-0.6c0.4-1.1-0.1-2-1.4-2.8
	c-1.6-0.8-2.1-0.8-2.1,0.2c0,0.9-0.3,0.9-1.2,0c-1.5-1.5-4.2-1.6-3.3-0.2c0.4,0.6,1.1,0.7,1.7,0.4c0.6-0.4,0.5,0.3-0.2,1.6
	c-0.8,1.5-0.8,2-0.1,1.6c0.6-0.4,1.1,0,1.1,0.8c0,0.9,0.8,1.6,1.8,1.6c2.8,0,7,5.2,4.7,5.7c-0.5,0.2-1,0-1.1-0.5
	c-0.3-2.5-1.8-4.2-3.4-3.7c-1.2,0.4-2.2-0.1-2.9-1.2c-0.9-1.6-1-1.5-0.8,0.7c0.1,1.4,1.1,3.3,2.4,4.3c1.2,0.9,2.1,2.6,2,3.7
	c-0.1,1.9-0.3,1.9-2.7,0.3c-2.5-1.6-2.5-1.6-0.7,0.4c1.6,1.8,1.6,2.1,0.2,2.7c-0.9,0.3-1.3,0.2-1-0.4c0.3-0.6-0.1-1-1-1
	c-0.9,0-1.4,0.4-1,0.9c0.3,0.5,0.2,1.2-0.3,1.5s-2.8-4.1-5.2-9.6c-3.1-7.4-4-10.6-3.3-11.7c1.4-2.3,11.1-7.9,16.3-9.6
	C107.3,487.9,112.9,487.6,112.9,489z M82.5,507.7c2.5,5.6,2.2,7.2-1.2,7.3c-2.3,0-6.5,4.4-9,9.1c-1.6,3.3-4.1,6.1-7.2,8.2
	c-2.6,1.8-6.2,4.6-7.9,6.3c-3.1,3-3.3,3.6-3.3,10.3c0,5.6-0.5,8.2-2.4,12c-2.3,4.5-2.5,5.5-2.1,19.2c0.2,7.9,0.6,15.3,1,16.4
	c1.3,3.8-3.5-2.6-6.2-8.4c-7.3-15.3-2.3-34.8,16.4-63.7c4.9-7.6,10.4-16.3,12.2-19.1c2.9-4.7,3.5-5.1,5.3-4.2
	C79.2,501.7,81.2,504.7,82.5,507.7z M109,504.3c-1.3,1.7-0.4,2.8,1.7,2c1-0.4,1.3-0.2,0.8,0.5c-0.4,0.7-0.3,1.2,0.2,1.2
	c1.8,0,0.5,8.7-1.6,11.1c-2.6,2.7-2.7,3.3-0.6,5c1.3,1.1,1.5,1.1,1.4-0.2c-0.1-0.7-0.2-2.2-0.1-3.2c0.1-1.7,0.2-1.7,1.8-0.2
	c1.2,1.3,1.3,1.9,0.4,2.4c-0.9,0.6-0.9,1,0.1,1.9c0.9,0.7,1.9,0.7,2.8,0.2c1.2-0.8,1.3-1.3,0.3-3c-0.7-1.1-1.3-2.5-1.2-3.2
	c0-0.7,0.5-0.2,1,1.2c0.8,2,1.2,2.2,1.9,1c1.3-2,1.3-3.3,0-2.5c-0.5,0.3-1,0.1-1-0.5c0-0.7,1.2-0.9,3-0.7l2.9,0.5l-2.1-2.9
	c-1.2-1.6-2.5-2.9-3-2.9c-0.4,0-0.8-0.4-0.8-0.8c0-0.5,0.7-0.9,1.5-0.9c0.8,0,1.5,0.4,1.5,0.9c0,0.4,0.4,0.8,1,0.8
	c0.5,0,0.7-0.8,0.5-1.8c-0.8-2.8,7.3,14,8.8,18.4c1.2,3.4,1.3,4.1,0.1,4.1c-0.8,0-1.4-0.4-1.4-0.9c0-0.4-0.6-0.7-1.2-0.6
	c-0.7,0.2-1.3-0.4-1.3-1.2c0-0.8-0.4-1.9-1-2.3c-0.6-0.5-0.4-0.7,0.5-0.4c0.8,0.2,1.4,1.1,1.2,1.9c-0.1,0.8,0.4,1.5,1.2,1.5
	c1.1,0,1.2-0.6,0.4-2.9c-0.6-1.5-1.4-2.6-1.8-2.3c-0.5,0.3-1.2,0-1.5-0.6c-0.5-0.6-1.3-0.2-2.2,1.1c-1.3,1.9-1.3,2.4-0.2,3.1
	c0.8,0.5,0.9,0.9,0.4,0.9c-0.6,0-1.6-0.5-2.3-1.2c-0.9-0.9-1.2-0.5-1.2,1.7c0,1.7,0.4,2.5,0.8,2c1.2-1.7,2.8-1.5,2.9,0.5
	c0.2,2.1-3,3.3-4.8,1.6c-0.9-0.8-1.1-0.7-0.6,0.5c0.7,2.3-6.2,5.7-7.5,3.7c-0.7-1-0.8-0.8-0.4,0.4c0.3,1.1-0.2,2.2-1.4,2.8
	c-1.5,0.8-2.1,0.6-2.9-0.9c-0.6-1-0.7-2.1-0.4-2.5c0.3-0.3,0.2-0.6-0.4-0.6c-1.2,0-1-5.7,0.2-6.8c0.5-0.4,0.5-0.2,0.1,0.5
	c-0.3,0.6-0.2,1.4,0.4,1.8c0.6,0.4,1-0.6,1.1-2.2c0.1-2.8,0.1-2.8,0.8-0.3c0.4,1.4,1,2.5,1.4,2.5s1.3-1.1,2-2.5c0.9-1.8,2-2.5,4-2.4
	c3.1,0.1,2.8-0.8-0.5-1.3c-1.2-0.2-2.5,0.2-2.9,0.9c-0.6,1-1.3,0.6-2.6-1.2c-2.4-3.4-2.5-4.9-0.3-8c2.3-3.3,2.4-9.9,0-9.3
	c-0.9,0.2-2.3-0.3-3.1-1.3c-1.3-1.6-1.2-1.6,0.9-0.5c2.2,1.2,2.3,1.1,1.2-1c-1-1.7-0.9-2.3,0.1-3C110,502.7,110.3,502.8,109,504.3z
	 M115.3,506.4c-0.3,0.6,0.1,0.3,0.8-0.6c1-1.1,1.9-1.4,2.9-0.7c1.1,0.7,1.1,0.9-0.4,0.9c-1,0-1.5,0.5-1.2,1c0.4,0.6,1.1,0.8,1.6,0.5
	c0.5-0.4,0.9-0.2,0.9,0.2c0,0.5-1.4,1.4-3.1,2c-3.1,1.2-3.1,1.2-2.7-1.7c0.3-1.7,0.1-3-0.4-3c-0.4,0-0.8-0.5-0.8-1.1
	c0-0.8,0.5-0.8,1.5,0.1C115.2,504.7,115.6,505.7,115.3,506.4z M109.9,513.9c0,0.5-1.1,1.6-2.5,2.5c-2.2,1.4-2.5,1.5-2.5,0.1
	c0-0.8,0.5-1.4,1.2-1.3c0.7,0.2,1.3-0.3,1.4-1c0.1-0.6,0.2-1.5,0.3-1.8C108,511.6,109.9,513,109.9,513.9z M116.3,513.7
	c0.3,0.8,1,1.1,1.6,0.8c0.5-0.3,1-0.2,1,0.3s-0.9,1.2-2,1.5c-1.3,0.3-2,0-2-1c0-0.8-0.4-1.1-1-0.8c-0.5,0.3-1,0-1-0.8
	C112.9,511.9,115.7,511.9,116.3,513.7z M90.1,524.7c1.7,3.8,4.4,8.4,6.2,10.4c1.7,1.9,4.3,5.6,5.7,8.1c1.7,2.8,5.5,6.7,10.3,10.2
	c16.8,12.7,22.4,23.4,12.8,24.4c-4.1,0.4-9.3-2-22.2-10.1c-12.7-7.9-15.1-10.4-19.9-19.8c-3.6-7.4-5.6-9.3-6.7-6.6
	c-0.7,2,5.2,13.9,9.5,18.9c3.7,4.3,13.6,11.3,24.6,17.3c3.9,2.1,8.3,5.3,9.8,7.2c2,2.3,3.7,3.3,5.7,3.3c4.2,0,4.6,1.7,0.8,3.6
	c-2.8,1.5-4.3,1.5-12.4,0.5c-5-0.6-12.2-2-16-3.2c-6.6-2-7.4-2.6-18.6-14c-6.4-6.5-11.9-11.9-12.2-11.9c-1.7,0-0.1,3.9,3.8,9.4
	c5.1,7.2,16.3,17.1,22.1,19.7c4.5,2,17.9,4.9,22.5,4.9c3.5,0,3.8,1,0.9,3.6c-1.8,1.6-3.7,1.9-13.8,1.9c-13.1,0-14.8-0.6-28.7-9.6
	c-7.9-5.2-10.8-6.1-10.2-3.2c0.8,4.3,23.2,17,31.9,18.2c4.6,0.6,3.4,0.8-8.7,1.5c-13.9,0.8-14.2,0.7-19.1-1.8
	c-5.9-2.9-10.9-6.9-12.5-10c-0.7-1.2-1.2-8.2-1.4-16.9c-0.2-14.1-0.1-15.1,2.2-19.4c1.9-3.6,2.4-6.1,2.4-11.4
	c0-7.5,0.3-7.9,7.8-13.1c5.5-3.7,6.3-4.6,10.3-11.5c2.7-4.5,5.6-6.9,9.2-7.2C86.7,518,88.4,521,90.1,524.7z M168.3,536.5
	c2.7,17.5,3.4,25.7,4.2,46.9c0.6,16.4,0.5,20-0.7,20.7c-0.8,0.5-4.2,0.9-7.6,0.9c-5.1,0-6.3-0.3-6.3-1.6c0-0.9-1.8-5.6-4-10.5
	c-4.4-9.7-4.7-11.4-2.5-14.3c0.8-1.1,1.5-2.7,1.5-3.6c0-0.8,1.3-2.1,2.9-2.7c4.3-1.6,5.8-4.8,7.2-15.8c1.6-13.1,1.6-18.4-0.3-22
	c-1.5-2.8-1.5-3.2,0.5-6.7c1.2-2,2.5-3.4,2.8-3C166.3,525.2,167.3,530.4,168.3,536.5z M147.6,529.2c3.2,1.2,7.3,3.6,9.2,5.5
	c3.7,3.7,3.7,2.6,1.2,22.8c-1.2,9-1.9,10.5-5.6,10.5c-7.9,0-11.6-11.6-8-25c1.7-6.3,0.6-8.6-2.1-4.5l-1.7,2.7l-1.3-2.5
	c-0.7-1.3-2.3-4.8-3.4-7.7l-2.1-5.3l4.1,0.7C140.1,526.7,144.5,528,147.6,529.2z M114.1,544.7c-0.6,0.3-1,0.8-0.8,1.2
	c0.3,0.4-0.1,0.8-0.9,0.8c-0.8,0-1.5-0.4-1.5-0.8c0-1.1,3.4-2.9,4-2.2C115.2,544,114.8,544.5,114.1,544.7z M137.9,546.6
	c0,0.8-0.6,1.4-1.4,1.4c-0.8,0-2.2,0.3-3,0.6c-1.2,0.4-1-0.1,0.6-1.9C136.4,544.1,137.9,544,137.9,546.6z M137.7,554.2
	c-0.2,1.7-1.4,2.5-4.6,3.5c-4.2,1.2-4.3,1.1-4-1c0.3-2.2,3.8-4.5,7.1-4.6C137.5,552,138,552.6,137.7,554.2z M138.9,562.1
	c0,1.1-0.5,1.7-1,1.4c-0.6-0.4-0.7-1.2-0.3-1.8c0.4-0.7,0-0.6-1,0.2c-0.9,0.7-1.5,1.7-1.2,2.1c0.3,0.4-0.2,1.1-1.1,1.4
	c-2.4,0.9-3.1,0.7-3.8-1c-0.3-0.8-0.2-1.2,0.4-0.9c0.6,0.3,1,0.2,1-0.4c0-0.8,4.1-2.8,6.3-3C138.6,560,138.9,560.9,138.9,562.1z
	 M279.9,566.9c18.1,5.3,33.2,11.2,54.7,21.4c20.1,9.6,31.7,13.9,51.9,19.1c25.1,6.6,31.8,9.3,42.7,16.9c4.1,2.9,6.1,3.7,6.8,3
	c1.5-1.5,0.8-2.5-6.4-7.9c-8.9-6.7-22.1-12.1-37.9-15.5c-3.1-0.6-5.9-1.8-6.2-2.5c-0.3-0.7-0.8-7-1.2-14l-0.7-12.7l3.3,0.6
	c18.8,3.8,48.3,0.1,70-8.6c7.6-3.1,8.6-3.3,9.5-1.8c0.5,0.9,0.9,13.6,1,30.1c0,22.3-0.4,31.1-1.8,40.3c-5,32.8-13.4,50.5-27.4,57.3
	c-5,2.5-6.7,2.8-15.2,2.7c-25.1-0.2-54.7-17.3-90.3-52.1l-11.6-11.4l3.1-2.7c4.6-4.2,2.7-5.3-4-2.5c-3.2,1.3-6.6,2.4-7.5,2.4
	c-4.3,0-12.1-2.4-14.8-4.7l-3-2.5l-7.2,4.4c-7.7,4.7-9.4,6.8-5.6,6.8l2.3,0.1L282,635c-3.5,3-9.4,2.7-12-0.6
	c-4.5-5.7-2.1-11.2,9.8-22.9c5.5-5.4,7.7-9.5,5.1-9.5c-1.5,0-18,16-19.5,19c-0.7,1.4-1.6,4.2-2,6.3c-0.6,3.1-1.1,3.7-3.2,3.7
	c-4,0-7.3-4.2-7.3-9.2c0-8.5,1.7-11.6,11.6-21.9c6.5-6.7,9.2-10.2,8.8-11.3c-1-2.5-2.2-2-8.7,4.2c-3.4,3.1-8.7,7.4-11.7,9.5
	c-3,2-9.3,7.1-14,11.3s-10.2,8.8-12.3,10.1c-6.3,4-11.6,3.1-11.7-1.9c0-3.4,19.7-25.8,30.5-34.7c3.9-3.2,9.6-7.5,12.8-9.6
	c5.8-3.9,6.8-5.2,4.3-6.1c-2-0.8-6.9,2-15.6,8.7c-4.1,3.1-10.6,7.4-14.5,9.3c-3.8,2-11.4,7.1-16.8,11.5
	c-11.6,9.3-16.6,11.9-20.5,10.5c-1.5-0.5-2.8-1.7-3-2.5c-0.5-2.4,10.9-15.9,19.6-23.4c8.6-7.4,19.4-14,32.1-19.7
	c7.9-3.5,9.1-3.8,15.6-3.4C263.4,562.7,272.2,564.6,279.9,566.9z M140.1,570.5c-2.1,0.7-4.5,1.5-5.2,2c-0.8,0.5-1.1,0.2-0.8-1
	c0.4-2.4,6.8-4.7,8.6-3.2C143.8,569.1,143.2,569.6,140.1,570.5z M148.2,574.9c-0.4,1.4-1.4,1.9-4.3,1.9c-2.2,0-4.9,0.6-6.1,1.2
	c-1.7,0.9-2,0.9-1.7,0c0.4-1.4,8.2-4.9,11-4.9C148.2,573,148.6,573.6,148.2,574.9z M144.9,582.5c0,0.8-0.5,1.5-1.1,1.5
	c-1.3,0-3.9,6.2-4,9.7c0,2.5-0.3,2.2-2.7-2.5l-2.7-5.4l2.8-2.4C140.4,580.7,144.9,580.2,144.9,582.5z M149.3,594.2
	c1.3,3.2,2.3,5.8,2.1,5.8c-0.6,0-4.1-7-5-10C145.2,586.1,146.5,588,149.3,594.2z M196.7,594c-3.7,4.3-5.4,5.6-5.6,4.5
	c-0.8-3.8,0.9-6.6,5.1-8.5c2.3-1.1,4.6-2,5-2C201.7,588,199.6,590.7,196.7,594z M138.4,605.9c-0.4,0.3-5.9,0.7-12.3,0.9l-11.7,0.3
	l3.3-2.1c1.8-1.1,4.1-3.3,5-4.9s3.1-3.4,5-4.1c1.8-0.6,3.6-1.9,3.9-2.7c0.4-1.1,1.7,0.6,4,5.2C137.5,602.2,138.7,605.5,138.4,605.9z
	 M145.8,598.3c0.1,0.5-0.3,0.5-0.9,0.2c-0.5-0.3-1-1.6-0.9-2.8c0-2.1,0.1-2.1,0.9-0.2C145.4,596.6,145.8,597.9,145.8,598.3z
	 M223.5,603.1c-13.8,14.9-16.1,22.4-8.1,26.7c2.7,1.5,0.2,1.5-4.9,0.1c-2.3-0.6-5.7-2.9-8.4-5.6c-3.5-3.5-5.7-4.8-9.1-5.5
	c-5.8-1.1-8.3-3.3-7.9-7.2c0.3-3.6,2.2-4.1,2.6-0.9c0.5,3.3,4,5.3,9.3,5.3c5.2,0,10.6-3.1,23.9-13.9c4.1-3.3,7.9-6,8.3-6
	C229.7,596,227.1,599.2,223.5,603.1z M146,603.1c1.1,0.5,1.7,1.4,1.4,2c-0.4,0.5-0.3,0.8,0.2,0.7c1.8-0.5,5.3,2.8,5.3,5
	c0,1.3-0.4,2-1,1.7c-0.6-0.4-0.8-1.1-0.4-1.6c0.3-0.5,0-0.8-0.8-0.7c-0.7,0.2-1.2-0.2-1.1-0.9c0.2-0.7-0.3-1-1.1-0.7
	c-1.3,0.5-5.6-3.9-5.6-5.7C142.9,601.7,143.6,601.8,146,603.1z M179.9,610.2c0,3-3.3,4.8-9,4.8c-4.2,0-6.4,0.5-8.1,1.9
	c-3,2.4-1.9,3.7,1.9,2.2c4.2-1.8,12.3-1.1,15,1.3c4.5,4,2.4,5.6-7.2,5.3c-5-0.1-6.3-0.6-9.1-3.2c-3.4-3.1-5.5-7.1-5.5-10.5
	c0-2.1,2.3-2.5,15.3-2.8C177.7,609.1,179.9,609.4,179.9,610.2z M146.7,614.5c3.6,3.4,3.6,3.4,1.2,3.5c-3.3,0-5.4,1.5-4.5,3
	c0.8,1.3,7.2,4.2,14.7,6.7c3.9,1.2,4.6,1.8,3.7,2.9c-0.6,0.8-2.8,1.9-4.8,2.5c-3.3,1-5.2,0.6-18.1-3.6c-23.2-7.5-30.4-11.5-28-15.6
	c0.9-1.4,9.3-2.3,25.3-2.7C142.6,611,143.1,611.2,146.7,614.5z M248.3,618.8c-0.7,7-0.7,7-4.1,7.7c-1.8,0.3-3.7,0.4-4.2,0.1
	s-2.6,0.8-4.6,2.4c-3.2,2.6-4.6,3-9.7,3c-6,0-7-1.2-2.1-2.5c3.2-0.8,12.5-7.3,19.8-13.8c2.8-2.5,5.1-4.4,5.3-4.2
	C248.8,611.6,248.6,614.9,248.3,618.8z M96.3,616.9c1,6.5,8.2,11.6,25.1,17.7c9.6,3.5,8.6,3.8-10.5,3.2c-12.6-0.4-14-0.6-21.4-3.8
	c-8.8-3.7-17-10.6-18.1-15.3c-0.4-1.5-0.6-3-0.3-3.2c0.2-0.2,5.5-0.8,11.8-1.3c6.3-0.5,11.8-1,12.1-1.1
	C95.4,613.1,95.9,614.8,96.3,616.9z M107.1,616.2c0.2,2.6,1.2,3.9,4.9,6.4c5.3,3.5,36.9,14.7,41.5,14.7c3.5-0.1,8.5-2.4,12.7-5.9
	c2.3-1.9,4-2.4,8.6-2.4c6.5,0,10.1-1.9,10.1-5.4v-2.3l5.9,1.6c4.1,1.1,6.6,2.5,8.1,4.4c3.1,3.9,9,6.6,18.3,8.4
	c9.6,1.8,15.6,1.1,19.6-2.3c1.6-1.4,4.8-2.7,7.3-3c3.8-0.5,5.1-0.2,9.3,2.5c3.3,2.1,6.2,3.1,8.7,3.1c2.1,0,3.8,0.4,3.8,1
	c0,0.5,1.2,1.7,2.6,2.6c3.2,2.2,11.1,2.1,15.3-0.1c3.1-1.5,3.2-1.5,8.2,2.5c8.5,6.7,14.4,4.7,13.8-4.7l-0.4-4.9l3,0.5
	c3.3,0.4,13.5,8,16,11.7c0.8,1.3,2,3.6,2.6,5.2c0.7,2-0.8,0.9-6.2-4.6c-6.7-6.7-9.9-8.7-9.9-6.1c0,0.6,3.2,4.5,7.1,8.7
	c9.9,10.7,12.9,15.5,12.9,21.1v4.4l-4.1-5.9c-6.8-9.7-12-15.4-14-15.4c-1,0-1.9,0.3-1.9,0.7c0,0.4,3.4,5.2,7.6,10.6
	c8.4,11,10.4,14.9,10.4,20.3c0,5.1-2,16.4-3,16.4c-0.4,0-1-2.2-1.3-5c-0.8-6.7-3.7-12.7-8.3-17.3c-5.8-5.9-8.6-6.9-21.9-7.9
	c-16.2-1.1-30.1-3.3-37.7-5.9c-7.3-2.4-17.7-8.1-16-8.7c1.7-0.5,1.5-3.2-0.2-3.2c-3,0-25.8,7.1-39.6,12.3c-8,3-28.8,11.2-46.4,18.2
	c-17.5,6.9-32.1,12.4-32.3,12.1c-0.8-0.8,0.8-11.5,1.8-12.1c0.5-0.4,0.9-3.1,0.9-6.1c0-12.6,8.6-17,13.2-6.7c1.4,3.1,2.3,4.2,3,3.5
	c1.4-1.4-0.5-6.8-3.4-9.9c-4.8-5.1-13.6-1.2-16,7l-1.2,4.2l-0.4-3.2c-0.7-6.4,6-14.3,12.1-14.3c2.5,0,7.5,4.8,9.3,9
	c2,4.5,3.9,4.3,3-0.3c-2.1-10.5-13.6-14.8-21.6-8c-4.3,3.6-6,7.4-6,13.5c0,3.3-0.6,6.2-1.6,7.7c-1.2,1.6-1.7,4.8-1.8,10.7
	c-0.1,4.6-0.4,8.5-0.7,8.7c-0.6,0.5-10.7,4.7-11.3,4.7c-0.3,0,0.6-2.1,1.9-4.6c2.9-5.5,3.2-9,0.9-12.3c-1.2-1.7-2.4-2.2-4.4-1.9
	l-2.8,0.4l1.8-2.5c1-1.4,3.7-5.9,6-10c2.8-4.8,5.3-7.9,7.4-9c1.7-0.9,5.7-4.2,8.8-7.4c4.9-5,6.1-5.7,9.5-5.7c4.6,0,9.6,1.3,18.6,4.7
	c9.3,3.6,10.6,2.2,4.1-4.7c-2.7-2.9-6.4-6-8.4-7c-1.9-1-5.2-3.2-7.3-4.8c-2.1-1.7-6.8-4.1-10.5-5.3c-16.4-5.3-27.2-11.9-27.2-16.4
	c0-2.8,0.8-3.5,4.1-3.5C106.4,613,106.8,613.4,107.1,616.2z M68.3,619.4c0.9,4.5,6.8,10.9,13.6,14.7c4,2.2,4.7,2.9,2.6,2.4
	c-7.2-1.6-15.6-7.1-15.6-10.3c0-0.9-1.9-3.6-4.2-5.9l-4.2-4.3h3.6C67.4,616,67.7,616.3,68.3,619.4z M60.9,621.7l5.4,4.8l-4.4,0.6
	c-2.5,0.3-5.3,0.9-6.2,1.3c-1.3,0.6-3.2-0.6-7.4-4.6l-5.6-5.3l4.8-0.6c2.7-0.3,5.6-0.7,6.4-0.7C54.8,617.1,57.9,619.1,60.9,621.7z
	 M296.8,628.4c3.5,2,6.5,11.6,4.1,13.1c-1,0.6-11.3-6.6-12.7-8.8c-0.3-0.6,0.7-2.1,2.3-3.4C293.9,626.6,293.7,626.7,296.8,628.4z
	 M68.5,632.1c1,1.2,4.1,3.4,6.9,5c4.3,2.5,5,3.3,5.2,6.4c0.2,3.4,0.1,3.5-3.3,3.5c-5,0-14.3-3.5-17.6-6.7c-3.2-3.1-3.8-7.6-1-9.2
	C61.7,629.3,66.4,629.8,68.5,632.1z M100.9,640.9c1.9,0.5,2.5,1.4,2.6,3.9c0.1,1.8,1,4.2,1.9,5.3c1,1,1.5,2.2,1.1,2.6
	c-0.4,0.4-3.7,0.9-7.4,1.1c-5.7,0.3-7.2,0-10.2-2c-3.5-2.4-5.8-7.3-4.7-10.2c0.5-1.3,2.1-1.6,7.4-1.5
	C95.3,640.2,99.5,640.5,100.9,640.9z M143.8,646.3c4,2.7,7.2,5,7,5.2c-0.2,0.2-3.7-0.8-7.8-2.2c-7.9-2.6-14.6-3.2-17.9-1.4
	c-1.1,0.6-3.5,2.9-5.2,5.1c-1.8,2.3-4.9,4.9-7,6c-4.9,2.5-9,7.3-13.5,15.8c-2,3.8-5.9,9.4-8.6,12.3l-5,5.4l0.7-3.5
	c1-5.7,5-12,13.4-21.3c4.4-4.8,8.6-10.2,9.4-12c2-4.9,7.5-10.7,12.1-12.9C128.2,639.6,135,640.7,143.8,646.3z M112.2,645.3
	c-2.9,3.5-5.3,3.4-5.3-0.3c0-2.4,0.9-3,4.8-3h3.4L112.2,645.3z M352.6,667.2c18.8,15.6,31.6,23.2,49.8,29.2c4.4,1.5,10.3,3,13,3.4
	c5,0.7,5,0.7,5.3,4.7l0.3,4h-48.1c-26.4,0.1-48-0.3-48-0.8c0-0.4,1.3-2,2.9-3.5c3.4-3.1,5-8.7,5.1-17.5c0-3.2,0.7-8.1,1.7-10.9
	c1.6-5,1.6-5.3-1-15.7c-1.5-5.8-2.7-11-2.7-11.6c0-0.5,2.6,1.6,5.8,4.7C339.8,656.2,347,662.6,352.6,667.2z M239.7,660.4
	c13.5,8.5,26.4,12.1,48.9,13.6c17.5,1.2,20.6,2.1,25.7,8.2c4.1,4.7,6.1,11.2,6.1,19.6v6.2l-40,0.3l-40,0.3l17.9-5.8
	c18.3-5.9,21.2-7.2,18.3-8.3c-1.6-0.7-7.4,0.9-33.7,9.2l-14.5,4.6l-64.1,0.1c-35.3,0.1-64.2,0-64.1-0.1c0.1-0.1,6.5-2.5,14.2-5.3
	c7.7-2.9,25.7-9.8,40-15.5c56.4-22.4,75.1-29.3,79.8-29.4C235.1,658,237.6,659.1,239.7,660.4z M121.4,679.2
	c-0.4,1.3-1.1,5.6-1.4,9.7c-0.4,4.6-1.1,7.6-1.8,7.9c-1,0.3-1.3-1.6-1.3-7.1c0-6.4,0.3-7.9,2.3-10.1
	C121.9,676.4,122.3,676.4,121.4,679.2z"/>
<path d="M241.9,225.9c-3,1-10.2,4.1-15.9,6.9c-5.7,2.8-11.8,5.4-13.7,5.8c-4.1,0.8-5.1,3.2-2.9,7.7c2.1,4.4,7,7.1,11.9,6.5
	c3-0.3,3.5-0.1,2.9,1.1c-1.3,3-1.5,13.2-0.2,16.4c2,5.2,5.8,9.6,10.2,12c5.7,3,21.2,3.2,26.9,0.3c5.2-2.5,11.6-9,13.5-13.4
	c2.3-5.4,2.1-12.9-0.4-17.7c-2.8-5.4-7-9.2-8.4-7.8c-0.8,0.8-0.1,2.4,2.5,5.9c2,2.6,3.5,5.2,3.3,5.8c-0.5,1.6-20,9.3-27.7,11
	c-3.6,0.8-8.9,1.7-11.9,2.1l-5.4,0.7l0.7-7.3c0.4-4.1,0.8-8.3,0.8-9.5c0-2.4,5.8-6.2,17.1-11.5c8.9-4.1,18-4.9,27.3-2.4
	c3.6,1,6.7,1.5,7,1.2c2.5-2.5-7.1-10.3-16.8-13.7C255.7,223.6,249.2,223.5,241.9,225.9z M262.4,230.8l5,1.7l-9,0.5
	c-10.1,0.6-14.3,2.2-28.4,10.9c-4.6,2.8-9.3,5.1-10.5,5.1c-1.9,0-6.6-3.6-6.6-5.1c0-0.4,1.7-1.3,3.8-2c2-0.6,9.3-3.8,16.2-7
	C248.9,227.6,251.5,227.2,262.4,230.8z M272,263.2c-1.6,7-5.5,12-11.8,15.2c-4.4,2.2-7,2-8.4-0.7c-1.6-2.9-2.8-3.7-6.2-3.7
	c-2.3,0-3.1,0.6-4,3c-0.6,1.6-1.5,3-2,3c-1.5,0-6.2-2.8-8-4.8c-1.7-1.9-1.7-2,0.5-2.6c1.3-0.3,3.5-0.6,4.9-0.6
	c4.2,0,19.5-4.7,27.3-8.4c3.9-1.9,7.4-3.5,7.7-3.5C272.4,260,272.4,261.5,272,263.2z"/>
<path d="M229.9,284.4c0,3.2,12.2,9.5,18.3,9.6c5.4,0,4.9-2.6-0.7-3.4c-2.4-0.4-6.9-2.2-10.1-4.1C231,282.6,229.9,282.3,229.9,284.4z
	"/>
<path d="M321,233.9c-1.7,1.6-3.8,4.5-4.6,6.5c-2,4.8-2,14,0.1,15.7c3.1,2.5,4.4,6.6,3.7,11.5c-0.5,3.8-0.3,4.6,0.8,4.2
	c4.5-1.5,4.7-10.6,0.5-16.7c-2.3-3.3-2.6-4.5-2-8.2c0.9-5.7,2.7-9.2,6-11.6c1.6-1.2,2.4-2.5,2-3.1
	C326.3,230.3,324.3,230.8,321,233.9z"/>
<path d="M206.9,310.7c0,0.5,0.5,1.5,1.1,2.3c0.9,1.3,1,1.3,0.6-0.2c-0.3-0.9-0.1-1.9,0.6-2.2c0.7-0.2,0.4-0.5-0.5-0.5
	C207.7,310,206.9,310.3,206.9,310.7z"/>
<path d="M215.8,312c-1.4,1.4-1.4,1.8,0,3c1.3,1.2,1.4,1.2,0.9-0.2c-0.4-0.8-0.1-2.1,0.5-2.7c0.6-0.6,0.9-1.2,0.6-1.4
	C217.6,310.5,216.7,311.1,215.8,312z"/>
<path d="M283.1,314.2c0.2,1.6,0.6,2.4,1.1,1.9s0.5-1.7-0.2-2.8C283.1,311.7,283,311.8,283.1,314.2z"/>
<path d="M180.9,327.8c0,0.7-0.4,1-1,0.7c-0.5-0.3-1-0.1-1,0.4c0,0.6-0.3,1-0.7,1c-3.2-0.5-4.6,1.4-1.9,2.4c0.9,0.4,1.3,0.1,1-0.6
	c-0.5-1.5,3.3-2,4.1-0.6c1,1.5,3.2,1,4-0.9c0.5-1.4,0.4-1.5-0.6-0.5c-1.4,1.4-3.3,1.8-2.5,0.5c0.2-0.4,0.1-1.4-0.5-2.2
	C181.2,326.9,180.9,326.8,180.9,327.8z"/>
<path d="M248.1,328.5c0.4,0.4,0.3,1.4-0.4,2.2c-0.8,1-0.8,1.7,0,2.5c0.7,0.7,1.2,1,1.3,0.7c0-0.2,0.2-1.4,0.5-2.6
	c0.2-1.2-0.2-2.5-0.9-2.9C248,328,247.7,328,248.1,328.5z"/>
<path d="M272.7,335.1c-2.1,1.1-4.9,1.7-6.3,1.5c-2.6-0.5-3.5,0.8-1.2,1.8c0.6,0.3-0.1,0.5-1.8,0.5c-6.3-0.2-8.1,0.1-6.6,1
	c0.8,0.5,2.1,0.7,3,0.4c1.2-0.3,1.2-0.2-0.2,0.7c-0.9,0.6-2.2,0.8-2.7,0.5c-0.6-0.3-1-0.2-1,0.3c0,2.6-31.9,12.9-36.3,11.8
	c-0.9-0.2-1.5,0-1.1,0.5c0.3,0.5-0.4,0.9-1.5,0.9c-1.2,0-2.1-0.5-2.1-1c0-0.6-0.8-1-1.7-1c-1.5,0-1.6,0.2-0.3,1
	c1.2,0.8,1.2,1-0.4,1.6c-2.9,1.1-21.3-0.4-30.6-2.6c-5.7-1.3-8.8-1.6-9.5-0.9c-1.9,1.9,2.4,3.7,14.3,5.9c9.4,1.8,13.9,2.1,22.7,1.7
	c13.2-0.6,22-2.9,41-10.4c7.7-3,14.8-5.5,15.7-5.6s1.5-0.4,1.2-0.8c-0.5-0.9,2.7-2.1,3.5-1.4c0.3,0.3-0.1,1-0.9,1.5
	c-1.3,0.8-1.3,1,0.1,1c2.3,0,4.4-2.6,2.7-3.3c-0.7-0.2,0.4-1.2,2.5-2.3c2.2-1,3.7-2.4,3.5-3.3C278.3,332.9,276.8,332.9,272.7,335.1z
	"/>
<path d="M261.6,335.4c-0.4,1-0.5,2.1-0.2,2.4c0.9,0.9,1.7-0.6,1.3-2.5C262.4,333.6,262.3,333.6,261.6,335.4z"/>
<path d="M201.9,336.1c0,0.6,0.7,0.9,1.5,0.6c0.8-0.4,1.7-0.2,2,0.3c0.4,0.6,1.1,1,1.8,1c1.5,0-2.5-2.9-4-3
	C202.5,335,201.9,335.5,201.9,336.1z"/>
<path d="M250.9,336c0,1.7,2.7,2.3,4.7,1.1c1.5-0.9,1.3-1-1.1-0.5c-2.1,0.5-2.7,0.4-2.2-0.5c0.4-0.6,0.2-1.1-0.3-1.1
	C251.4,335,250.9,335.5,250.9,336z"/>
<path d="M274.9,340.9c0,0.5,0.9,1.1,2.1,1.4c1.6,0.4,1.8,0.3,0.8-0.9C276.5,339.8,274.9,339.5,274.9,340.9z"/>
<path d="M205.6,348.4c0.5,3.2,0.4,3.8-0.8,3.1c-1.1-0.7-1.2-0.6-0.2,0.6c1.4,1.7,6.8,2.5,5.7,0.8c-0.3-0.6-1.6-0.8-2.8-0.5
	c-2.1,0.5-2.1,0.5-0.1-1c1.3-1,1.6-1.7,0.9-2.2c-0.6-0.4-1.6-1.6-2.2-2.7C205.2,344.9,205.1,345.2,205.6,348.4z"/>
<path d="M290,350.6c-0.2,3.1-1.2,3.6-3.7,1.9c-2.7-1.7-2.7-0.2,0,3.5c1.3,1.7,1.6,1.9,1.2,0.6c-0.5-1.6-0.4-1.7,0.9-0.6
	c1.9,1.6,2.9-0.5,2.2-4.7C290.3,349.5,290.1,349.2,290,350.6z"/>
<path d="M278.4,354c0.6,1,0.4,1.2-0.9,0.7c-0.9-0.4-1.5-0.3-1.1,0.2c0.3,0.6-0.3,1.5-1.2,2.1c-1,0.6-1.1,0.9-0.3,0.6
	c0.8-0.3,2.3-0.9,3.3-1.2c2-0.7,2.2-2,0.5-3C278,352.9,277.9,353.1,278.4,354z"/>
<path d="M280.4,356c-1,1.1-2.1,1.7-2.5,1.5c-0.4-0.3-1.9,1-3.4,2.9c-1.4,1.9-5.6,5.7-9.3,8.5c-6.2,4.6-6.9,4.9-8,3.4
	c-0.7-0.9-1.3-1.2-1.3-0.5c0,0.7-0.5,1.2-1.1,1.2c-0.6,0-0.8-0.9-0.4-2.3c0.5-1.9,0.4-2-0.5-0.4c-0.6,0.9-0.9,2.1-0.6,2.6
	s-0.8,1.4-2.4,2c-1.7,0.5-3,1.3-3,1.7c0,0.3,0.7,0.4,1.5,0c0.8-0.3,1.4,0,1.2,0.7c-0.4,2.3-2,2.5-3.8,0.4c-1.2-1.6-1.4-2.4-0.6-2.9
	c0.9-0.6,0.9-0.8,0-0.8c-2,0-2.4,1.8-0.7,3.4c1.4,1.5,1.4,1.6,0,1.6c-0.9,0-1.6,0.4-1.6,1c0,0.5,0.8,0.7,1.8,0.3
	c4.1-1.5-0.7,1.7-5.5,3.6c-8.6,3.4-16.9,4.4-25.9,3.2c-12.1-1.7-15.4-2.8-14.7-4.9c0.6-1.5,0.4-1.5-0.9-0.4c-1.4,1.1-2.4,1.1-6-0.1
	c-4.6-1.6-5.8-1.4-5.8,0.8c0,1.4,8.3,4.9,16.2,6.7c2.6,0.6,4.6,1.4,4.4,1.7c-0.2,0.3,3.9,0.7,9.2,0.9c19.3,0.6,33.8-5.5,55.2-23.2
	c8.5-7,12.5-11.2,12.5-13S282.2,354,280.4,356z M256.3,374.3c-0.5,1.4-4.4,4.1-4.4,3.1c0-0.6,4-4.4,4.6-4.4
	C256.7,373,256.6,373.6,256.3,374.3z"/>
<path d="M220.9,361c0,0.5,0.6,0.7,1.4,0.4c0.8-0.3,1.7-0.1,2.1,0.5c0.3,0.6,1.1,1.1,1.8,1.1c1.5,0-2.5-2.9-4-3
	C221.5,360,220.9,360.4,220.9,361z"/>
<path d="M244,365.2c0,1-0.6,1.8-1.2,1.8c-0.5,0-0.7-0.5-0.3-1.2c0.4-0.7,0.3-0.8-0.4-0.4c-0.6,0.4-0.9,1.3-0.6,2.1
	c0.4,0.8,1,1.2,1.5,0.9c0.6-0.3,1.5-0.1,2.2,0.5c0.9,0.7,1.3,0.5,1.3-0.9c0-1-0.3-1.7-0.7-1.4c-0.4,0.2-1-0.4-1.2-1.3
	C244.2,363.6,244.1,363.6,244,365.2z"/>
<path d="M285.9,364.4c0,1,2.8,1.3,4.1,0.5c1-0.6,0.7-0.9-1.3-0.9C287.1,364,285.9,364.2,285.9,364.4z"/>
<path d="M176.3,366.9c0.4,0.5,0,1.2-0.6,1.4c-0.8,0.3-0.6,0.6,0.5,0.6c1.9,0.1,2.3,1.6,0.5,2.7c-0.7,0.4-0.8,0.3-0.4-0.4
	c0.4-0.7,0.2-1.2-0.3-1.2c-0.6,0-1.1,0.7-1.1,1.5c0,2,2.6,1.9,3.4-0.1c0.6-1.5-0.9-5.4-2-5.4C176,366,176,366.4,176.3,366.9z"/>
<path d="M180.3,370.3c-0.1,1.8,0.1,2.4,0.3,1.4c0.2-0.9,1.1-1.7,1.8-1.7c0.8,0,1.7-0.5,2.1-1.2c0.4-0.7,0.3-0.8-0.5-0.4
	c-0.6,0.4-1.7,0.3-2.4-0.2C180.7,367.4,180.4,368,180.3,370.3z"/>
<path d="M231.9,370.9c0,0.4,1.1,0.6,2.5,0.3c1.4-0.2,2.5-0.6,2.5-0.8c0-0.2-1.1-0.4-2.5-0.4C233,370,231.9,370.4,231.9,370.9z"/>
<path d="M265.5,379.6c-0.9,2.4-0.7,3.6,0.5,2.8c0.6-0.3,1.5,0,2,0.7c0.6,1,0.8,0.8,0.7-0.8c-0.1-1.3-0.7-1.9-1.5-1.6
	c-0.9,0.4-1.1,0-0.7-1.1c0.3-0.9,0.4-1.6,0.1-1.6S265.8,378.7,265.5,379.6z"/>
<path d="M264.2,386.4c0,1.1,0.1,1.5,0.4,0.7c0.5-1.1,0.7-1.1,1.4,0c0.7,1.1,0.9,1.1,0.9-0.2C266.9,384.3,264.3,383.8,264.2,386.4z"
	/>
<path d="M257.9,387c0,0.5,0.5,1,1.1,1c0.5,0,0.7,0.6,0.3,1.2c-0.4,0.7-0.3,0.9,0.1,0.5c1.5-1.3,1.4-3.7-0.1-3.7
	C258.5,386,257.9,386.4,257.9,387z"/>
<path d="M260.5,390.9c-1,1.1-1.3,2.1-0.7,2.5c0.5,0.4,1.2,0.2,1.6-0.4c0.3-0.5,0.3-1-0.2-1c-0.4,0-0.1-0.4,0.7-1
	c0.8-0.5,1.2-1.1,0.9-1.5C262.5,389.2,261.4,389.8,260.5,390.9z"/>
<path d="M156.1,392.7c-2.2,4.2-3.6,13.6-3.6,23.8c0,12.1,0.8,16.9,2.7,16.2c0.8-0.2,1.2-4.3,1.4-13.8c0.1-7.4,0.6-15.4,1.2-17.9
	c1.3-5.7,1.4-10,0.1-10C157.4,391,156.6,391.8,156.1,392.7z"/>
<path d="M419.9,410.4c-15.5,6.4-28.4,18.5-36.1,33.8c-3.1,6.1-3.8,10.3-1.6,9.6c0.6-0.3,3.2-4,5.6-8.4c3-5.4,7.1-10.6,13-16.5
	c7.2-7.1,10.3-9.3,18.5-13.5c5.5-2.7,10.1-5.5,10.4-6.2C430.3,407.3,426.1,407.8,419.9,410.4z"/>
<path d="M124.4,518.9c1.1,1.9-2.8,5.1-4.8,3.9c-1.3-0.7-1.7-0.5-1.7,0.7c0,0.9,0.5,1.3,1,1c1.7-1,3.4,0.6,1.9,1.7
	c-1.1,0.8-1.1,0.9,0.1,0.5c0.8-0.2,1.5-0.9,1.5-1.6s0.8-1.8,1.8-2.5c2-1.5,2.2-3.2,0.5-4.2C124,517.9,123.9,518.1,124.4,518.9z"/>
<path d="M112.6,530.7c-0.4,0.3-0.2,1.1,0.3,1.8c0.7,0.8,0.2,1.6-1.8,2.5c-1.5,0.7-3.1,1.3-3.5,1.1c-0.5-0.1-0.6,0.3-0.2,0.9
	c0.6,1,3.8-0.6,8.8-4.7l2.9-2.3h-3C114.5,530,112.9,530.3,112.6,530.7z"/>
<path d="M277.6,580.7c-1.4,1.3-0.6,3.3,1.2,3.3c3,0,5.1-1.1,5.1-2.6C283.9,580,278.8,579.4,277.6,580.7z"/>
<path d="M294.7,595.8c-1.9,0.4-2.4,2.7-0.8,3.7c1.1,0.7,5-1.2,5-2.4S296.8,595.3,294.7,595.8z"/>
<path d="M138.9,635.8c0,1,17.4,11.2,19,11.2c1.5,0,1.2-1.5-0.7-3.2C152.4,639.6,138.9,633.7,138.9,635.8z"/>
<path d="M160.9,652.1c0,0.6,1.8,3.1,4,5.7c2.2,2.5,4.4,5.9,4.8,7.5c0.9,3.6,3.2,4.8,3.2,1.8c0-3.5-2.5-8.4-6.2-12.4
	C163.2,651,160.9,650,160.9,652.1z"/>
<path d="M144.9,659.3c0,0.7,0.5,1.8,1,2.3c0.6,0.6,1.4,3.9,1.8,7.4c0.4,3.6,1.2,6.5,2,6.8c1.9,0.6,1.4-8.7-0.8-13.6
	C147.1,658.2,144.9,656.6,144.9,659.3z"/>
<path d="M298.8,684.5c-8.8,3.1-14.8,7.5-10.4,7.5c2.1,0,14.4-5,15.1-6.2C304.7,683.9,302.4,683.2,298.8,684.5z"/>
<path d="M477.9,563.6c0,1.4-0.4,2.3-0.9,2s-1.1,0.8-1.3,2.5c-0.3,1.6-0.1,3.2,0.4,3.5c0.4,0.3,0.9-0.7,0.9-2.3l0.1-2.8l0.8,3
	c0.6,2.5,0.8,2,0.9-2.8c0-3.1-0.1-5.7-0.4-5.7C478.1,561,477.9,562.2,477.9,563.6z"/>
<path d="M476.1,577c-0.1,2.9,0.1,4,0.7,3.1c0.5-0.7,1.5-1.8,2.2-2.3c1.1-0.8,1-0.9-0.3-0.4c-1.2,0.3-1.8-0.2-2.1-2.2
	C476.4,573.5,476.1,574.2,476.1,577z"/>
<path d="M476,595c-0.1,3-0.3,8.2-0.5,11.5c-0.1,3.3,0.1,7.1,0.5,8.5c0.7,2.3,0.7,2.3,0.8,0.3c0.1-1.2,0.6-2.5,1.1-2.8
	c0.6-0.3,1-1.1,1-1.6c0-0.6-0.4-0.7-1-0.4c-0.5,0.3-1,0.2-1-0.4c0-0.5,0.5-1.1,1.2-1.3c0.7-0.3,0.8-0.9,0.3-1.8
	c-1.2-2-1.3-6.3-0.2-7.8c0.6-0.8,0.6-1.2-0.1-1.2c-0.6,0-0.9-1-0.8-2.3c0.2-1.2-0.1-3.2-0.5-4.2C476.4,590.2,476.1,591.4,476,595z"
	/>
</svg>
