<?xml version="1.0" encoding="utf-8"?>
<!-- Generator: Adobe Illustrator 30.3.0, SVG Export Plug-In . SVG Version: 9.03 Build 0)  -->
<svg version="1.0" id="Layer_1" xmlns="http://www.w3.org/2000/svg" xmlns:xlink="http://www.w3.org/1999/xlink" x="0px" y="0px"
	 viewBox="0 0 499.8 730.9" style="enable-background:new 0 0 499.8 730.9;" xml:space="preserve">
<path d="M21.7,28.4c-0.7,1.4-1.1,55.4-1.3,176.5c-0.2,167.6-0.3,174.5-2,174.5c-1,0-6-0.5-11-1c-25.9-3-91.9-10.1-103.5-11.1
	c-11.6-1.1-13.4-1.1-14.8,0.2c-1.6,1.7-2.1-1.1,13.1,71.9c7.8,37,9.9,48,9.4,48.5c-0.4,0.4-5.6-0.5-38.9-6.6
	c-11.8-2.1-22.5-3.9-23.7-3.9c-1.3,0-3.5,1.1-4.9,2.6c-2.2,2.1-2.5,3.1-2,5.9c0.6,3,22.4,53.3,34.2,78.8c2.7,5.7,4.3,10.5,3.9,11.5
	c-0.4,1,0.1,2.2,1.3,3.2c1.1,0.8,9.5,18.6,18.8,39.5c9.7,21.9,18.1,39.4,19.8,41.3c3.2,3.6,3.5,3.7,39.1,13.2
	c12.7,3.4,31.4,8.4,41.8,11.2l18.7,5.1v5.1c0,8.3-0.9,8,23.5,8.3c11.9,0.1,24.3,0.7,27.6,1.2c5.9,1,22.1,5.2,65.9,17.2
	c11.7,3.3,22.7,5.9,24.3,5.9c7.3,0,8.4-4.2,4.2-15.7c-1.6-4.5-2.1-7.1-1.4-7.9c1.2-1.5,234.2-1.8,233.3-0.2
	c-0.3,0.5,0.4,0.4,1.5-0.4c1.8-1.1,2.3-1.1,3.1,0.2c0.7,1.1,1,1.1,1,0.2c0-1,3.8-1.3,17.3-1.2c9.4,0,24.7,0.1,33.9,0h16.8l0.6-2.5
	c0.3-1.4,1-2.2,1.5-1.9s0.9-6.2,0.9-15c0-9.7-0.4-15.6-1-15.6c-0.5,0-1-0.5-1-1.1c0-0.5,0.5-0.7,1-0.4c0.6,0.3,1-0.3,1-1.3
	c0-1.1-0.7-2.2-1.5-2.6c-1.5-0.6-1.4-5.1,0.1-6.5c0.4-0.3,0.5,0.1,0.2,0.9c-0.3,0.8-0.2,2.4,0.3,3.5c0.4,1.1,0.8-6.3,0.8-16.4
	c0.1-10.1-0.2-18.2-0.5-17.8c-0.3,0.3-0.6,5.3-0.6,11.1c0,5.8-0.4,10.6-0.8,10.6c-0.9,0-1-29.7-0.1-32c0.3-0.8,0.9,1,1.2,4
	s0.6-7.1,0.7-22.4c0.1-15.4-0.1-27.6-0.4-27.3c-0.4,0.4-0.6,5.8-0.6,12.2c0.1,6.4-0.3,11.3-0.7,11c-0.5-0.2-0.9-3.5-0.9-7.2
	c-0.1-3.8-0.2-9.7-0.3-13.3c-0.2-6.4-0.2-6.4-0.9-2c-0.4,2.5-0.6,31.7-0.5,65s-0.1,61.2-0.5,62c-0.6,1.1-2.4,1.5-7.2,1.4
	c-3.4-0.1-14.3-0.2-24-0.3l-17.8-0.1V695c0-3.3,0.2-3.4,5.3-4.6c12.3-2.9,20.9-9.9,27.4-22.5c9.5-18.3,12.8-39.3,12.8-81
	c0-16-0.3-30.4-0.7-32.2c-0.7-2.9-0.5-3.2,3-4.6c2.7-1.1,3.9-1.2,4.4-0.3c0.5,0.6,0.8,0,0.8-1.5c0-1.6,0.7-3,1.6-3.3
	c1.4-0.5,1.6-1.8,1-8.9c-0.4-4.5-0.9-10.3-1.3-12.9l-0.5-4.6l6.8-0.7c3.8-0.3,9-0.8,11.7-1.1l4.7-0.6l0.2,21.4
	c0.1,14.5,0.4,18.9,0.8,13.8c0.4-4.2,0.6,3.3,0.6,17.5c0,24.3,0,24.5-0.6,7.5l-0.6-17.5l-0.2,24.5c-0.1,16.1,0.2,24,0.8,23
	s0.9,5.1,0.8,18l-0.2,19.5l-0.6-14c-0.4-9.9-0.6-4.8-0.7,17.5c0,17.3,0.3,29.7,0.7,27.5s0.7,25.9,0.7,62.5c0,36.6-0.3,63.3-0.7,59.5
	c-0.6-6-0.6-5.3-0.7,5c0,8.5,0.2,10.5,0.7,7l0.7-5l0.1,5.9c0.2,4.6,0.5,5.7,1.4,4.8c1.1-1.1,1.2-5.9,0.7-38.2c0-0.8,0-49.4,0-108
	c0.1-58.6,0.1-116.6,0.1-129c0-14.4-0.3-22.1-1-21.4c-0.5,0.5-1.1,6.6-1.3,13.4l-0.3,12.5l-0.2-13.7l-0.2-13.7l4.6-0.7
	c3.3-0.5,4.8-1.2,5.4-2.8c0.5-1.1,2.1-13.6,3.5-27.6c3.3-32.4,9.2-90.6,10.1-98.7c1-9.2,0.3-9.7-11.3-8.9c-7.8,0.5-9.3,0.4-9.3-0.8
	c0-0.8-0.5-1.8-1.1-2.2c-0.7-0.4-0.9,0-0.5,1.4c0.7,2.2,0.9,2.2-18.6,3.6l-6.8,0.5V251.1c0-71.1,0-149.7,0-174.7
	c0-39.5-0.2-45.9-1.6-47.8l-1.5-2.2H246.8C24.2,26.4,22.8,26.4,21.7,28.4z M468.4,30.7c0.3,0.3,0.5,177.4,0.4,322.8v26.6l-12.2,0.8
	c-6.8,0.3-14.1,0.8-16.3,1c-27.8,2.4-27.7,2.4-21.7-10.3c3.8-8.2,7.2-17.1,10.5-27.2c3.1-9.5,7.6-35.9,7.7-44.7c0-4.2,0-4.2,3.3-3.6
	c1.7,0.3,3.4,0.7,3.6,0.9c0.7,0.6-1.9,20.4-3.9,29.7c-1.1,4.9-4.2,15.6-7,23.9c-2.7,8.3-5,15.7-5,16.4c0,1.4,2.8,3.2,5.8,3.9
	c0.9,0.2,2.7,0.7,3.8,1c1.9,0.6,2.5-0.2,5.2-7.4c4.3-11.2,9.8-31.4,12.4-45.6c2.9-16.3,3.2-53.9,0.5-68.5c-5-26.6-12.3-48.6-23-69
	c-5.1-9.7-13.8-23.4-15.7-24.5c-1.2-0.7-8.9,4.5-9,6.1c0,0.6,1.8,3.6,4,6.6c12.9,18.1,27,53.9,31.4,80c0.7,3.7,0.6,3.7-3.6,4.8
	c-2.4,0.6-5,1.3-5.9,1.6c-1.4,0.4-1.8-0.6-2.4-5.2c-3.2-25.7-19.1-61-38.6-86c-9.4-12-29.9-32.2-38.5-38.1
	c-11.8-7.9-45-23.2-55.3-25.4c-4-0.8-5.1-1.5-4.7-2.6c0.3-0.8,0.6-1.9,0.6-2.4c0-1.5,2.1-1.1,12.1,2.2c11.4,3.7,32.7,13.9,42.9,20.6
	c7.9,5.3,22.8,17,29.6,23.5l4.1,4l3.7-3.2c2-1.8,3.6-3.7,3.6-4.4c0-2.3-19.8-18.8-34-28.3c-15.1-10-37.5-20.7-53.3-25.4l-4.8-1.4
	l0.3-4.4c0.3-4.2,0.1-4.5-2.7-5.3c-18.8-5.2-52.1-7.2-74.5-4.3c-30.8,3.9-62.2,14.3-85,28.1c-8.4,5-25.5,17.1-31,21.8
	c-6.3,5.4-24.6,24-26.5,26.9l-1.8,2.8l3.9,3.4c2.1,1.9,4.1,3.5,4.5,3.5c0.3,0,2-1.6,3.9-3.5c1.8-1.9,3.8-3.1,4.3-2.8
	c0.6,0.4,0.7,0.1,0.2-0.7c-1-1.6,14.7-17,26-25.6c22.5-17.1,49.2-30.2,76-37.4c8.1-2.1,23.3-4.6,24-3.8c0.3,0.2,0.8,3.3,1.2,6.8
	l0.6,6.3l-7.1-0.7c-8.4-0.8-22.6,1-24.8,3.1c-1.1,1.2-1.2,1.8-0.3,2.9c1,1.2,0.7,1.4-1.7,1.3c-1.6-0.1-5.1,0.6-7.9,1.5
	c-2.7,0.9-6.2,1.6-7.7,1.6c-1.6,0-2.8,0.4-2.8,0.8c0,0.5-0.6,0.9-1.2,0.9c-1.9,0.2-8.2,2.7-8.9,3.6c-0.3,0.4-1.5,0.9-2.7,1.2
	c-1.1,0.2-5.7,2.6-10,5.4c-4.8,3.1-9,5.1-10.8,5.1c-4.2,0-14.8,8.3-28.6,22.5c-14,14.3-22.3,25-28,36.2c-2.4,4.5-4.7,7.9-5.3,7.6
	c-0.5-0.4-0.7-0.3-0.3,0.2c0.4,0.4,0,2.1-0.8,3.7c-8.4,16.2-18.6,51.9-20.6,72.3c-0.2,2.1-0.8,3-2,2.9c-1-0.1-2.5-0.2-3.3-0.3
	c-1.7-0.1-1.5-2.9,1.6-20.6c2.3-13.9,5.8-25.9,11.5-40.2c2.4-6.1,4.4-11.5,4.4-12c0-0.9-9-5.7-9.5-5.1c-1.5,1.7-8.5,17.4-11.6,26.2
	c-8.4,23.1-11.9,44.6-11.9,71.9c0,33.8,5.1,58.7,18.4,90.1c0.9,2.1,1.6,4,1.6,4.3c0,0.3-2.8,0.1-6.2-0.2c-3.5-0.4-9.4-1-13.3-1.4
	l-7-0.6L25,207.1C24.8,91.6,25.1,33.6,25.7,32.3c1-1.7,2.6-1.9,19.8-2.1C71.9,29.8,468,30.3,468.4,30.7z M266.9,100
	c30.4,4.2,54.2,13.2,79.4,30c16.2,10.9,18.9,13,18,14.4c-0.3,0.5,0,0.8,0.7,0.5c1.7-0.7,17.9,15.9,25.1,25.7
	c25.9,35.1,38,71.3,38.1,113.8c0,22.5-5.4,53.6-9.7,55.9c-1.3,0.7-1.5,1-0.4,0.7c1.4-0.5,1.6-0.1,1,2.2c-1.2,4.9-8.4,21.3-13.1,29.9
	c-1.1,2.1-1.3,2.1-4.4,0.6c-1.8-0.9-4.7-2.4-6.5-3.5l-3.1-1.9l4-9.2c2.2-5,4.6-11.8,5.4-15c0.8-3.2,2.7-8.9,4.3-12.6
	c1.6-3.7,3.2-8.3,3.6-10.2s1.3-5.2,2-7.4c0.7-2.3,1.9-8.7,2.5-14.2c1-8.7,1-10.6-0.3-13.2c-1-2-1.1-3-0.4-2.8
	c1.7,0.3,2-9.2,0.7-19.3c-1.7-13.2-8.4-39-10.1-39c-0.5,0-0.9,4.8-0.9,10.7c0,9.2-0.3,11.3-2.1,14.2c-1.9,3.1-2.1,4.7-1.7,15.8
	c0.3,12.2,0.3,12.4,3.2,14.6c1.6,1.3,4,2.2,5.6,2.1c2.2-0.1,2.7,0.2,2.6,2c-0.1,1.1-0.3,1.9-0.6,1.6c-0.9-0.8-3.8,2.4-3.2,3.5
	c0.2,0.5-0.1,0.5-0.7-0.1c-2.2-2.1-6.9,3.5-9,10.7c-1.1,3.5-2.9,9-4.1,12.2c-1.1,3.2-2.9,11.5-4,18.5c-2.1,14.1-2.5,15.6-5.2,19.1
	l-1.8,2.4v-2.3c0-1.3,1.4-7.1,3-12.9c1.7-5.8,3.7-14.2,4.4-18.6c0.8-4.4,2.2-11.7,3.2-16.3c0.9-4.5,1.4-8.5,0.9-9
	c-0.4-0.4-1-0.1-1.2,0.6c-0.3,0.6-0.9,0.9-1.4,0.6c-0.6-0.3-2.3-0.1-3.9,0.6c-2,0.8-3.1,2.1-3.5,4.3c-1.6,8-5.4,17.6-13.7,34.7
	c-5,10.2-9.2,18.6-9.3,18.8c-0.2,0.2-1.7-0.4-3.5-1.3l-3.1-1.6l2.5-4.3c5-8.6,13.7-37,12.1-39.6c-0.9-1.5-4.4,1.1-3.7,2.9
	c0.4,1.1,0.1,1.3-1.2,0.8c-1.5-0.6-1.7-0.3-1.2,1.8c0.5,2,0.3,2.3-1.1,1.8c-1.5-0.5-1.6-0.3-0.5,0.8c1.7,1.8,1.5,3.4-0.2,2
	c-1.2-1-1.7-0.8-2.6,1.1c-1.1,2.2-1,2.2,0.4,0.4c1.4-1.7,1.6-1.8,1.6-0.3c0,0.9-0.9,2.2-1.9,2.9c-1.5,0.9-1.7,1.5-0.9,2.5
	c0.7,0.8,0.7,1.3,0,1.3c-0.5,0-1.2,0.9-1.5,2c-0.3,1.1-0.1,1.8,0.4,1.4c0.5-0.3,0.9,0.2,0.9,1.1c0,1.1-0.5,1.5-1.4,1.2
	c-1.1-0.4-1.3,0.1-1,2c0.3,1.4,0,3.1-0.6,3.8c-0.6,0.7-1.2,2.6-1.3,4.3c-0.1,1.6-0.5,2.8-0.8,2.6c-0.4-0.2-0.9,0.3-1.2,1.1
	c-0.4,1-0.1,1.2,1.1,0.9c0.9-0.3,0.6,0.1-0.8,0.9c-2.2,1.4-2.9,1.3-7.5-0.6c-2.7-1.1-7.9-3.1-11.6-4.4c-7.4-2.7-6.5-1.4-13.1-20.7
	c-3.6-10.8-4-13-4.5-25l-0.5-13.1l4-1.7c3-1.2,5-3,7.5-7c1.9-2.9,4.5-6.2,5.7-7.3c1.3-1.1,2.9-3.4,3.6-5.2c1.9-4.4,1.8-19-0.1-29.4
	c-3.4-18.1-6.4-24.4-13.1-27.6c-2.3-1.1-3.3-2.3-3.3-3.7c0.1-1.2-0.2-5.1-0.7-8.9c-0.4-3.7-0.4-6.7,0-6.7c2.9,0,23.7,21.8,30.1,31.5
	c7.6,11.6,11,19.2,14.8,33.9c2.3,8.6,3.7,12.1,4.7,12.1c0.8,0,1.4,0.8,1.4,1.7c-0.1,1,0.4,1.4,1.2,1.1c0.8-0.3,1.4,0,1.4,0.6
	s0.4,1.1,0.9,1.1c1.5,0,0.8-4.3-4.8-29.2c-1.1-4.7-2.9-11-4.1-14c-4.5-11.1-15.6-33.4-17.7-35.6c-1.3-1.3-2.3-2.7-2.3-3.3
	c0-0.6-0.4-0.8-0.9-0.5c-0.4,0.3-1.3-0.6-1.9-1.9c-0.7-1.4-1.6-2.5-2.1-2.5c-0.6,0-0.8-0.7-0.5-1.5c0.4-0.8,0.1-1.5-0.5-1.5
	s-1.1-0.5-1.1-1.1c0-0.5,0.5-0.7,1-0.4c1,0.6,1.4-1.8,1-6.5c-0.2-3.4-5.9-12.8-9-14.9c-1.4-1-3.8-1.8-5.5-1.9
	c-4.2-0.3-8.5-2.2-8.5-3.9c0-3.3,14,0.7,18.2,5.3c0.9,1.1,3.4,5.7,5.6,10.4c2.2,4.7,7.1,12.8,11,18c8,10.7,15.4,24.9,20.3,39
	c1.8,5.2,4.1,11.1,5.2,13c1.1,1.9,2.8,7.2,3.8,11.7s2.7,9.9,3.7,12c1.1,2.1,2.3,6.5,2.7,9.8c1.1,8.7,1.9,10.3,4.9,10
	c1.4-0.2,2.8,0.1,3.2,0.6c1.8,2.9,2.4-1.8,2.3-15.9c-0.1-9.4,0.3-16.8,1-18.5c1.7-4.4,1.3-12.1-0.9-17.7c-1.5-3.7-2-7.4-2-14
	c0-8.2-0.3-9.4-3.5-15.5c-4.5-8.7-11.3-18.1-18.7-26.1c-5.6-5.9-6.2-6.3-7.8-4.9c-1.9,1.7-4.5,1.2-5.4-1.1c-0.3-0.7,0.4-2.2,1.5-3.3
	l2-1.9l-2.3-2.5c-4.7-5.3-24.9-18.5-37.9-24.9c-14-6.9-27.5-11.8-39.4-14.3c-6.5-1.3-7.3-1.8-11.4-6.5c-4.4-5.1-11.4-10-14.4-10
	c-2.1,0-2.1,0.2,0.4,5.1c2,4,1.4,4.3-2.2,1.2c-0.9-0.7-5.4-2.9-10-4.8l-8.4-3.4l9.7-0.1C251.4,98.4,260.8,99.1,266.9,100z
	 M220.1,100.5c15.3,2.3,30.6,8.1,37.4,14.3c6,5.4,9.7,4.4,7.3-2l-1.1-2.9l2.9,2.8c1.5,1.5,4.2,5.5,5.8,8.8l2.9,6.1l4.6-0.6
	c4-0.6,5.4-0.2,9.5,2.2c5.2,3,6.7,5.2,3.5,5.2c-3,0-3.5,1.7-0.9,3.7c8.3,6.6,14.6,17.3,17.2,29.5c1.9,8.5,3.6,23.1,3.6,30.3v5
	l-10.7,3.8c-9.4,3.2-10.8,3.5-11.6,2.1c-0.5-0.8-2.8-3.9-5.1-6.7c-7.7-9.5-7.6-9.3-7.6-19.6c0-17.7-4.3-25.9-17.7-33.9
	c-12.4-7.3-23.4-9-33.7-5.2c-3,1.2-12.1,6.8-20.2,12.6c-17.5,12.4-25.6,16.5-38.2,19.2c-8.8,1.9-9.3,1.9-8,0.2
	c7.4-10.1,8-11.1,6.8-12.6c-1.1-1.2-1.8-0.9-5.3,2.2c-5,4.6-12.9,8.2-20.9,9.6c-7.3,1.3-8.9,2.3-6.5,4c1.5,1.2,1.5,1.9-0.3,9.3
	c-2.4,10-3.4,25.3-2.3,36.7c0.5,4.9,0.8,8.8,0.6,8.8c-0.1,0-1.1-1.7-2.2-3.8c-2.7-5.3-6.1-19-6.1-24.6c0-5.4-1.3-5.9-4.8-1.9
	l-2.3,2.8l0.5-8c0.6-8.1,3.3-18.9,5.9-22.8c2.2-3.5,2.7-6.8,1.1-7.4c-0.8-0.3-3.6,0.9-6.2,2.6c-2.7,1.7-5.2,3.1-5.5,3.1
	c-1,0,2.2-8.1,5.8-14.6c4.1-7.4,16-19.4,21.6-22c5.3-2.4,5-5-0.6-4.6l-4,0.2l4.5-4c5.5-4.8,23.6-14.1,34.3-17.5
	c8.4-2.6,13.4-3.4,24.1-3.9c3.9-0.1,7.1-0.7,7.3-1.3c0.2-0.6-0.8-2-2.2-3.1c-2.3-1.8-2.3-2.1-0.8-2.5
	C205.8,99.2,212.9,99.4,220.1,100.5z M246.4,147.2c5.4,1.7,14.4,6.5,18.5,10c6.4,5.5,8.2,10.7,8.1,23.1c-0.2,12.4,1,15.8,8.6,24.5
	c5,5.6,5.2,6.2,5.2,11.6v5.7l-7.7,2.3c-4.6,1.4-7.8,1.9-8,1.3c-1.6-4.6-12.9-9.3-22.1-9.3c-7.3,0.1-11.8,2.1-24.2,11.2
	c-5.5,4-12.5,8.7-15.7,10.3c-3.5,1.8-5.7,3.6-5.6,4.5c0.4,3.3,8.1,39.8,9.2,43.8c1.3,4.6,6.1,8.7,11.6,9.7
	c3.8,0.8,37.9-7.1,53.5-12.3l11.5-3.9l2.7-5.4c3.3-6.6,3.6-4.3,0.8,6.5c-2.3,9.1-6.3,17.4-12.8,26.5c-5.8,8.1-16,19.1-17.7,19.1
	c-0.7,0-3.5-1.8-6.1-4c-6.4-5.3-12.7-7.2-25.6-7.9c-5.8-0.3-10.9-0.9-11.3-1.3c-0.4-0.3,0.1-2,1-3.8c2-3.8,1.3-6.9-1-5
	c-0.8,0.7-2.8,3.6-4.4,6.4c-6.2,10.8-11.8,12.6-15.6,5.1c-1.8-3.7-2-6-2-30c-0.1-14.3-0.2-26.4-0.3-27c-0.6-2.6-2.6,2.2-3.2,7.7
	l-0.7,6.3l-0.2-5.5c-0.1-3.1-1-7-2-8.9c-1.7-3.1-1.7-3.7-0.3-6.1c2.1-3.7,0.9-8-2.2-8c-1.4,0-8.3-1.4-15.4-3c-7.2-1.7-14.7-3-16.7-3
	c-5.2,0-10,2.6-13.3,7.1l-2.9,3.9l-1.9-9.8c-1.5-7.6-1.9-13.9-1.8-29.2c0-18.3,0.2-19.9,2.5-25.4c2.5-6.2,3.1-6.6,13.6-9l2.8-0.6
	l-2.2,1.9c-4.3,3.7-3,4.4,6.5,3.8c16.6-1.1,35.5-9.4,50.1-22c4.9-4.2,13.2-9.4,18.8-11.7C233.4,145.4,239.8,145.3,246.4,147.2z
	 M110.2,165.2c-1.3,3.7-2.6,8.7-3,11c-0.6,3.6-0.4,4.3,1.4,4.9c1.9,0.8,1.7,1.3-3.4,7.8c-9.4,12-13.8,21.9-27.4,61.1
	c-1.9,5.3-2.4,8.8-4.2,29.9c-1.6,18.6-1.7,22.8-0.5,24.2c0.6,0.9,0.6,1.3,0,1.3c-1.2,0-0.4,5,1.1,6.9c0.9,1.2,0.8,1.3-0.4,0.7
	c-1-0.5-1-0.3,0.2,0.6c0.9,0.8,1.8,3.3,2,5.8c0.2,2.5,0.8,4.5,1.3,4.5c1.2,0,3.3-10.5,3-15c-0.1-1.9,0.1-3.5,0.5-3.5
	c0.8,0,3.8,9.1,5.2,15.5c0.5,2.7,1.6,6.4,2.4,8.2l1.3,3.2L86,333l-3.5,0.7l0.5,6.6c0.6,8.2,5.2,19.4,14.7,35.8
	c3.7,6.5,6.6,11.9,6.5,12c-0.1,0.2-3.8,0-8.4-0.4l-8.2-0.6l-4.5-8.9c-2.5-5-4.3-9.5-4.1-10.1c0.3-0.7-0.3-2.1-1.3-3.2
	c-4.7-5.4-12.6-31.2-15.4-50.5c-1.9-13.2-3.2-37.5-2-36.8c0.5,0.3,1-3.8,1.1-9.3c0.3-11,3.6-27.8,8.4-42.4
	c3.1-9.3,14.8-33.9,17.7-37.2c1-1,2.5-3.4,3.5-5.3c3.4-6.7,19.4-26.3,20.7-25.5C112.2,158.1,111.3,161.4,110.2,165.2z M110.2,212.1
	c-3.9,8.3-5.1,12-9.4,28.8c-2.1,8.2-5.4,18.1-7.2,22c-1.8,3.8-3.3,7.2-3.4,7.5c-0.1,0.3-0.7,1.7-1.3,3.2c-0.9,2.2-1.3,6.8-0.6,6.8
	c0.2,0,1.5-0.5,3.1-1.2c1.5-0.6,3.2-1,3.8-0.9c0.5,0.1,1.5-0.6,2.2-1.5c0.8-1,2.4-1.9,3.6-1.9c3.4-0.2,4.7-1.3,4.7-4.1
	c0-1.3,0.4-2.4,0.8-2.4c0.5,0,1.9-3.7,3.2-8.3c2.8-10.1,12.1-32.7,13.5-32.7c0.2,0,2.1,3.3,4.1,7.2c2,4,4.2,8,4.9,8.8
	c2,2.2,6.8,18.1,12.4,40.7c10,39.9,17.2,63.5,22.6,73c1.4,2.5,2.5,4.9,2.5,5.3c0,0.4-2.1,1.5-4.7,2.5c-2.7,1-6.2,2.6-7.9,3.6
	c-1.7,1.1-3.6,1.9-4.2,1.9c-1.5,0-11.9-13.5-14.8-19.2c-4.6-9.1-13.8-37.4-13.3-41.1c0.3-2.7-0.2-3.7-2.1-3.7
	c-2.2,0-2.3-0.1-1.4-2.4c0.3-0.9,1.1-1.3,1.7-0.9c0.6,0.4,0.7,0.1,0.2-0.7c-0.6-1-1.2-0.7-2.4,0.9c-0.9,1.2-2,1.9-2.4,1.5
	c-1.1-1.1-0.8-2.6,0.3-1.9c0.6,0.3,0.7-0.1,0.4-0.9c-0.3-0.9-1-1.3-1.6-1c-0.5,0.3-0.9,0-0.7-0.7c0.3-2.5-0.1-4.2-0.8-3.5
	c-1.2,1.2-1.4,11.9-0.2,19.1c2.2,14.3,15.6,48.2,23.1,58.7l2,3l-3.3,3.4c-1.8,1.9-3.6,3.4-3.9,3.4c-0.7,0-11.5-22.4-14.3-29.5
	c-0.8-2.2-3-7.7-4.7-12.2c-1.9-4.9-3.9-8.4-4.9-8.8c-3.8-1.2-7.9-18.3-8.2-34.9c-0.1-5.5-0.5-6.8-2.1-7.7c-1.1-0.6-2.8-0.9-3.8-0.6
	s-2.1-0.1-2.4-0.9c-0.3-0.7-1.4-1.1-2.6-0.9c-1.1,0.2-2,0-2-0.6c0-0.5-0.6-0.9-1.4-0.9s-1.8,1.9-2.5,4.6c-0.6,2.5-2,5.4-3,6.5
	c-1.8,2-1.9,2-2.5-0.6c-0.8-3.2,5.8-33.8,8-37.2c0.8-1.3,2.5-3,3.8-3.8c2.9-2,4-4.7,6.1-15.3c2.8-14.2,8.6-29.2,13.3-34.5
	C113.2,204.1,113.2,206.1,110.2,212.1z M319,207.4c0.7,0.1-0.5,1-2.6,2.1c-3.8,2-6.7,2-6.7,0c0-1.2,5.1-3.1,6.8-2.5
	C317.4,207.2,318.5,207.4,319,207.4z M307.6,211.8c0.9,1.1,0.7,1.5-1.1,2c-5.4,1.4-8.3-0.5-3.5-2.4
	C306,210.2,306.4,210.2,307.6,211.8z M325.6,214.6c0.5,1.8,1.3,4.8,1.6,6.7l0.7,3.5l-3.2-2.7c-3.7-3.1-4.7-3.3-7.9-1.1
	c-3.5,2.5-5.1,7.5-5.1,15.8c0,16.8,9,27.7,16.5,20.1l2.5-2.4v2.3c0,3.7-3.8,7.6-10.4,10.7c-7.7,3.6-9.5,3.7-8.9,0.4
	c0.7-3.2-6.4-38.8-8.7-44.2l-1.8-4.2l5.6-1.6c3.1-0.9,7.7-2.7,10.2-4C323,210.6,324.4,210.8,325.6,214.6z M255.2,221.3
	c2.9,0.7,2.9,0.8-1.5,1.5c-5.8,1.1-11.1,3.8-18.1,9.1c-4,3.2-7,4.6-11,5.3c-3,0.6-5.5,0.9-5.6,0.8c-0.5-0.5,17.4-13.2,21.6-15.3
	C245.1,220.4,249.6,220.1,255.2,221.3z M265.5,227.9c-0.5,0.6-20.6,5.5-22.3,5.5c-4.5,0,3.4-4.7,9.7-5.8
	C256.6,227.1,266.2,227.2,265.5,227.9z M286.5,229.8c-0.1,1.9-0.5,3.3-0.9,3c-0.4-0.2-1,0-1.4,0.6c-0.3,0.5-0.1,1.1,0.4,1.1
	c0.6,0.1,1.6,0.2,2.3,0.3c1.8,0.2,6.4,25.9,5.1,28.8c-1,2.2-1,2.2-1.1-0.7c0-1.7-0.3-4.8-0.5-7c-0.3-2.2-0.5-4.8-0.6-5.8
	c-0.1-0.9-0.7-1.7-1.5-1.7c-0.9,0-1.3-1.2-1.2-3.8c0.1-3.3-0.2-3.7-2.4-3.7c-1.4-0.1-5.4,0.7-9,1.6c-4.6,1.2-6.7,1.3-7.2,0.6
	c-0.8-1.3,0.9-2.7,3.4-2.7c0.9,0,2.2-0.8,2.7-1.8c0.6-0.9,1.1-1.1,1.1-0.5c0,1.5,3,1.8,3,0.3c0-0.6-0.4-1-1-1c-0.5,0-1-0.8-1-1.8
	c0-1.5,0.3-1.4,1.8,0.5c1.4,1.7,2.2,1.9,4.1,1.2c2-0.8,2.2-1.1,1-2.6c-1.1-1.3-1.1-1.7-0.1-2c2-0.7,1.4-2.2-0.8-1.6
	c-1.5,0.4-1.9,1.1-1.4,3.2c0.5,2.5,0.5,2.5-0.8,0.5c-1.3-2.1-4.9-2.5-5.6-0.6c-0.2,0.6-1.1,0.8-2.2,0.5c-1.2-0.3-2.2,0.3-2.9,1.6
	c-0.7,1.2-0.9,2.1-0.5,2.1s0.5,0.3,0.1,0.6c-0.3,0.3-2.2-0.6-4.3-2c-2.5-1.7-3.3-2.7-2.3-3c1.3-0.4,23.1-7.3,23.7-7.5
	C286.6,226.4,286.8,227.9,286.5,229.8z M301.5,235.4c0,0.9-0.3,0.7-0.8-0.5c-0.5-1.1-0.8-2.9-0.8-4c0-1.6,0.2-1.5,0.8,0.5
	C301.1,232.8,301.5,234.6,301.5,235.4z M293.5,237.9c0.6,3.3,1.8,9.3,2.6,13.4c0.8,4,1.1,6.9,0.6,6.5c-0.7-0.8-6-24.6-6-27
	c0-0.4,0.4-0.4,0.9,0.1C292.1,231.6,293,234.6,293.5,237.9z M257.1,237.1c0.9,0.3,1.3,1,1,1.5c-0.3,0.5-1.4,0.4-2.6-0.2
	c-1.5-0.8-1.9-0.8-1.4,0c0.4,0.6,0.2,1.2-0.3,1.2c-0.6,0.1-1.7,0.2-2.3,0.3c-0.8,0.1-1.2,1.1-1,2.5c0.2,1.5,0,2.1-0.7,1.7
	c-0.6-0.4-1.1-1.4-1.1-2.2c0-1.6-0.9-1.8-2.8-0.5c-1.1,0.7-1.1,0.9,0.2,1.4c2.2,0.9,2,3.4-0.4,4.2c-2.3,0.7-4-0.1-4-2
	c0-2.3-1.7-2.6-5.6-1c-2,0.8-5,1.5-6.7,1.5h-3.1l3.3-2.4c4.3-3.2,19.6-6.2,21.9-4.3c1.3,1,1.5,0.9,0.9-0.6
	C251.8,236.3,253.9,235.8,257.1,237.1z M222.8,243.1c0,0.8-6.7,3.4-9,3.4c-3.3,0-2.3-1.7,1.8-2.8
	C219.9,242.4,222.8,242.2,222.8,243.1z M256.6,244.1c1.2-0.3,2.1-0.1,2.1,0.4s-1.1,0.9-2.4,0.9c-1.3,0-3,0.2-3.8,0.3
	c-0.7,0.2-1,0.2-0.5,0c0.4-0.3,0.7-1.2,0.7-2.1c0-1.4,0.2-1.4,0.9-0.3C254.1,244.1,255.4,244.6,256.6,244.1z M264.2,243.4
	c0.4,0.6-0.6,1-2.2,0.9c-2.5,0-2.6-0.1-0.8-0.9c1.1-0.5,2.1-0.9,2.2-0.9C263.5,242.4,264,242.8,264.2,243.4z M174.4,246.1
	c7.3,1.6,13.3,3.1,13.3,3.5c0,0.4-1.1,1.5-2.4,2.3c-2.7,1.8-3.2,1.7-21.6-4c-5.7-1.8-9.8-2.5-12.5-2.1c-3.9,0.4-3.9,0.4-1.5-0.9
	C153.4,242.8,159.8,243.1,174.4,246.1z M226.9,250.6c0.7,1.4,0.5,1.6-0.8,1.1c-1.1-0.4-1.5-0.2-1.1,0.4c0.4,0.6-0.2,1.3-1.3,1.6
	c-1.5,0.4-2,0-2-1.6c0-2.4,3.3-6,3.9-4.3C225.9,248.4,226.4,249.8,226.9,250.6z M233.1,249.9c2.9-0.4,2.9-0.4,0.7,0.4
	c-4.2,1.5-5,1.3-4.9-1.7c0.2-2.3,0.2-2.3,0.6-0.5C229.9,250.1,230.4,250.3,233.1,249.9z M262.5,250.8c-0.1,0.6,0.6,1,1.6,1
	c0.9-0.1,1.7,0.5,1.7,1.3s-0.5,1.1-1.2,0.7c-0.7-0.4-0.8-0.3-0.4,0.5c1.4,2.1-0.3,5.8-4.5,10.1c-3,3-4.4,3.9-5.2,3.1
	c-0.6-0.6-1.6-1.1-2.1-1.1c-0.6,0-0.4,0.4,0.4,1c1.8,1.1,1.2,1.7-2,2.2c-1.4,0.1-2.7,0.6-3,0.9c-0.3,0.3-2.1,0.9-4,1.3
	c-2.7,0.5-3.2,0.4-2.2-0.6c0.7-0.7,1.2-1.8,1.2-2.6c0-0.8,0.8-2.4,1.9-3.7c1.4-1.9,2.1-2.2,3.2-1.2c0.7,0.7,1,0.8,0.6,0.3
	c-0.3-0.5,0.1-1.5,1.1-2.3c0.9-0.8,1.1-1.2,0.4-0.8c-0.7,0.3-2.3,0.8-3.6,1.1c-2,0.3-2.3,0-2.3-2.1c0-1.4,0.2-2.5,0.6-2.5
	c0.4,0,0.7-0.8,0.7-1.8s-0.6-1.9-1.2-1.9c-0.7,0-1,0.5-0.8,1.1c0.5,1.5-1.3,4.2-2.3,3.3c-0.4-0.5-0.2-1.2,0.5-1.6
	c0.7-0.4,1-1.5,0.7-2.3c-0.5-1.1,0.3-1.7,2.7-2.2c1.9-0.4,3.4-0.2,3.6,0.4c0.2,0.5,1.1,0.3,2-0.6c1.3-1.3,1.7-1.4,2.1-0.3
	c0.7,1.6,3.1,2.4,3.1,1c0-0.5-0.6-1.2-1.2-1.4c-0.7-0.3-0.1-0.5,1.5-0.4c2.3,0.1,4.1,1.7,1.9,1.7c-0.5,0-0.9,0.6-0.9,1.3
	c0,0.8,0.6,1.4,1.2,1.4c0.7,0,1.2-0.5,1.2-1.1c0-3.1,0.4-4.3,1.7-4.3C262,249.8,262.5,250.2,262.5,250.8z M168.4,253.9
	c5.8,1.9,12,3.5,13.8,3.5c2.3,0,3.7,0.7,4.8,2.4l1.6,2.3l-4.2-0.4c-5-0.6-22.7,2.9-29.2,5.7c-2.6,1.1-4.9,2-5.1,2
	c-1.2,0-0.2-6.6,1.5-9.9c1.3-2.4,1.6-4.2,1.1-5.2c-1.5-2.3-4.7,1.8-6.3,8l-1.4,5.4l-1.1-4.6c-1.8-7.1-1.5-8.5,2.1-10.7
	C150.8,249.6,156.4,249.9,168.4,253.9z M216.8,254.1c0,1.6,0.3,3.9,0.6,5.3c0.4,1.8,0.3,2.1-0.4,1.1c-0.7-0.9-1.2-1-1.6-0.2
	c-0.4,0.6-0.5,1.4-0.3,1.8c0.3,0.5-0.1,1.3-0.8,2c-1,0.9-1.5,0-2.4-4.4c-1.6-8-1.5-8.3,1.9-8.3C216.4,251.4,216.8,251.8,216.8,254.1
	z M277.5,254.1c-0.9,1-4.7,1.2-5.2,0.4c-0.3-0.5,0.4-0.7,1.5-0.5s2-0.1,2-0.6c0-0.6,0.5-0.7,1.1-0.4
	C277.5,253.3,277.6,253.8,277.5,254.1z M231.6,259.1c1,1.9,0.9,2.2-0.9,2c-1.2-0.1-1.6-0.5-1.1-1s0.7-1.7,0.4-2.6
	C229.2,255.4,230.1,256.4,231.6,259.1z M238.8,257.5c0,0.5-0.5,1-1.1,1c-0.5,0-0.7,0.4-0.4,1c0.3,0.5,0.1,1-0.4,1
	c-1.3,0-1.3-0.3-0.5-2.4C237.1,256.2,238.8,255.8,238.8,257.5z M230.4,264.5c0.2,2.2-1.2,2.7-2.3,0.9c-0.5-0.9,0.5-2.2,2.1-2.9
	C230.4,262.5,230.4,263.4,230.4,264.5z M188.6,270c0.7,7.2-7.8,16.4-15.1,16.5c-2.7,0-2.7,0-1.1-2.6c1.6-2.4,1.6-2.7-0.3-5.2
	c-2.2-3-4.2-3.7-7.9-2.8c-1.9,0.5-2.4,1.3-2.4,3.9c0,1.8,0.5,3.8,1.2,4.5s0.8,1.2,0.2,1.2c-2.1,0-9.4-6-10.9-9l-1.5-3l3.7-1.6
	c6.8-2.8,19.6-5.3,26.8-5.1l7,0.2L188.6,270z M229.9,267.9c0.3-0.2,0.8,0.2,1.2,1.1c0.4,1.3,0.2,1.4-1.4,0.5c-1-0.5-2.2-1.6-2.6-2.3
	c-0.6-0.9-0.5-0.9,0.8,0C228.8,267.9,229.6,268.1,229.9,267.9z M52.2,269.6c0.3,0.3-0.6,1.4-1.9,2.6c-1.9,1.6-2.6,1.7-3,0.7
	c-0.3-0.8,0-1.6,0.7-1.9c0.7-0.2,0.4-0.5-0.5-0.5c-1-0.1-1.8-0.5-1.8-1C45.7,268.8,51.4,268.8,52.2,269.6z M225.1,273.1
	c-2,0.7-1.5,2.2,1.4,4.7l2.7,2.3l-2.3,1.3c-1.9,1-2.2,1-1.9-0.2c0.6-1.6-0.9-4.8-2.2-4.8c-0.6,0-1,0.5-1,1.1c0,0.5,0.4,0.8,0.9,0.5
	c0.5-0.3,1.2,0.1,1.5,0.9c0.3,0.9,0.1,1.5-0.7,1.4c-0.6-0.1-2-0.1-3,0c-1.6,0.1-1.7,0.3-0.3,1.6c1.7,1.8,3,2,2,0.3
	c-0.4-0.7-0.3-0.8,0.4-0.4c1.7,1,1.5,2.6-0.4,2.6c-1.4,0-1.5,0.2-0.3,1.7c1,1.1,1,1.4,0.2,0.9c-0.7-0.4-1.3-0.2-1.3,0.3
	c0,0.6,0.5,1.1,1.2,1.1c0.6,0,0.9,0.3,0.6,0.6c-0.4,0.3-1.5,0.1-2.6-0.5c-2.3-1.2-3.7-6-2.7-9.1c0.5-1.7,1-1.9,2.1-0.9
	c1.1,0.9,1.4,0.9,1.4-0.1c0-1.8,4.1-7.2,4.9-6.4C225.9,272.5,225.6,273,225.1,273.1z M192.4,292.1c0,15,0.3,19.7,1.6,23.3l1.7,4.5
	l-2.8,2c-6.8,4.8-11,10.1-12.7,15.8c-0.9,3.1-2.1,5.9-2.6,6.3c-1.4,0.8-12.2-10.8-15.2-16.4c-2.1-4-13.7-43.1-13.7-46.5
	c0-0.6,1.5,0.3,3.3,2.1c4.3,4.2,11.5,7.2,17.5,7.3c4.9,0.2,11.6-1.5,14-3.4c0.7-0.5,1.5-0.7,1.8-0.4c0.3,0.3-1.5,2.2-4,4.3
	c-7,5.9-5.1,9.3,2.1,3.8c4-3,6.3-7.1,6.2-11c-0.1-2.3,2.1-10.4,2.7-10.4C192.4,273.5,192.6,281.9,192.4,292.1z M284.1,275.1
	c0.3,0.7-0.1,1-1,0.6c-0.7-0.3-1.4-0.1-1.4,0.5c0,1-1.5,1.8-6.3,3.3c-2.1,0.6-2.7,0.5-2.4-0.4c0.2-0.7-0.5-1.8-1.7-2.5
	c-2-1.1-2-1.2,0.5-0.6c1.5,0.3,3,0.1,3.3-0.5c0.4-0.5,1.3-0.8,2-0.5c0.8,0.3,1.6,0.2,1.9-0.3C279.9,273.5,283.6,273.8,284.1,275.1z
	 M317.8,275c-1.4,1.6-5,2.1-5,0.6c0-0.9,2-1.7,4.9-2C318.8,273.5,318.8,273.8,317.8,275z M244.8,278.1c0,1.6-1.2,1.7-2.9,0
	c-1.1-1-1.3-1-0.7,0c0.5,0.9-0.1,1.3-1.9,1.3c-1.5,0-2.4-0.4-2-1c0.3-0.6-0.1-0.7-0.9-0.4c-0.9,0.3-1.6,0.1-1.6-0.5
	c0-0.8,1.8-1.1,5-1C243.1,276.8,244.8,277.2,244.8,278.1z M240.4,284.8c3.7,0.6,5-0.1,5.7-2.8c0.4-1.9,0.5-1.9,0.6,0.1
	c0,1.2,1.1,2.6,2.4,3.2c2,1.1,2,1.1-0.8,0.6c-2-0.4-2.6-0.3-1.7,0.4c1.2,0.8-4.1,2.4-12.3,3.6c-2.7,0.4-4-0.4-2.4-1.5
	c1.1-0.6,1.1-1.1,0.2-2c-0.6-0.6-0.9-1.9-0.6-2.8c0.4-1.2,0.2-1.3-0.4-0.3c-0.5,0.7-1.7,1-2.7,0.6c-1.5-0.6-1.5-0.7,0.1-1.9
	c1.5-1.1,2.4-1,5.3,0.5C235.6,283.5,238.6,284.5,240.4,284.8z M297.5,292.5c-0.3,3.3-0.4,3.3-0.8-0.8c-0.3-2.3-0.2-3.9,0.3-3.4
	S297.8,290.8,297.5,292.5z M308.6,302.6c-0.1,7.4-0.4,9.9-0.8,7.3c-0.8-4.6-1.7-6.5-3.3-6.5c-0.7,0-0.8,1.4-0.5,3.7
	c0.5,3,0.4,3.4-0.5,1.9c-0.6-1-0.8-3.9-0.5-6.5c0.3-2.5,0.3-4,0-3.4c-0.6,1.5-2.9,1.7-3.8,0.3c-0.4-0.6,0.1-0.7,1.1-0.3
	c1.5,0.5,1.6,0.1,1.1-3c-0.5-3.3-0.4-3.7,1.7-3.7c1.2,0,2.7,0.5,3.4,1.2c0.9,0.9,1.2,0.8,1.2-0.5c0-0.9,0.2-1.7,0.5-1.7
	S308.6,296.5,308.6,302.6z M276.2,318.4c-0.3,0.5,0,1.3,0.6,1.7c0.6,0.3,1.5,0.1,1.9-0.6c0.5-0.8,0.9-0.7,1.3,0.4
	c0.4,1.1,0.1,1.6-1.2,1.6c-2.1,0-4.4-2.3-3.4-3.3C276.4,317.1,277,317.4,276.2,318.4z M59.8,329c3.2,14.4,9,31.6,15.4,45.1
	c3.1,6.4,5.6,11.8,5.6,11.9c0,0.3-14.4-1.6-14.8-2c-1.6-1.5-9.9-23-12.7-32.5c-3.1-10.8-7-28.9-6.3-29.5c0.4-0.3,10.2-3.2,10.5-3
	C57.5,319,58.6,323.5,59.8,329z M284.8,321.6c0,1.9-0.2,2-1,0.8c-1.3-1.9-1.3-3,0-3C284.4,319.5,284.8,320.5,284.8,321.6z
	 M315.6,326.6c2.9,7.5,11.8,25.7,13.6,27.8c2,2.3,0.3,9.7-4.8,20.4c-4.8,9.9-8.7,15.3-12.4,16.7c-1.3,0.5-2.8,2.1-3.4,3.6
	c-1.1,3.2-2.8,4.7-11.9,10.7c-20,13.2-43.8,15.2-57.4,4.8c-2.7-2-5.1-4.2-5.3-4.7c-0.2-0.6,2.5-1.6,5.9-2.2
	c8.2-1.6,18.8-6.9,26.9-13.7c17.5-14.4,37.9-44.2,43.6-63.5c1-3.3,2-6.1,2.3-6.1S314.4,323.2,315.6,326.6z M214.9,329
	c0.3,1.4,0.1,2.5-0.3,2.5c-0.5,0-0.9-1.1-0.9-2.5c0-1.4,0.2-2.5,0.4-2.5C214.4,326.5,214.8,327.5,214.9,329z M228.4,330.2
	c0,1.1-0.4,1-1.4-0.4c-0.7-1-1.3-2.2-1.3-2.6c0-0.5,0.6-0.3,1.3,0.4C227.9,328.4,228.4,329.5,228.4,330.2z M219.9,331
	c0.3,1.4,0.1,2.5-0.3,2.5c-0.5,0-0.9-1.1-0.9-2.5c0-1.4,0.2-2.5,0.4-2.5C219.4,328.5,219.8,329.5,219.9,331z M230.1,333.9
	c0.2-0.3,4.1-0.7,8.5-0.9l8-0.4l4.2,4.5c3.9,4.3,4.2,4.9,3.6,8.7c-0.9,5.5-5.3,13.4-9,16c-1.9,1.3-4.6,2.2-6.9,2.2
	c-5.1,0-7.7-3.1-7.7-9.1c0-5.1-0.5-5.3-9.7-2.9c-3.1,0.8-7.4,1.5-9.5,1.5c-4.7,0-5.4,1.2-2.8,4.8c2.4,3.3,2.4,7.9-0.1,9.5
	c-4.1,2.6-14.9-3.5-18.4-10.4c-1.4-2.5-1.4-3.6,0-9.7c1.3-5.7,1.9-6.8,3.7-6.9c6.3-0.5,23.1-3.8,24.2-4.7c1.2-1.1,2.8-1.7,5.8-1.9
	c1.4-0.1,1.5-0.4,0.5-1.6c-1-1.1-0.6-1.1,1.9,0.2C228.1,333.6,229.8,334.1,230.1,333.9z M300.8,338.4c0,1.1-6,10.6-6,9.6
	c0-0.6-0.5-0.3-1,0.5c-0.7,1.1-1,1.1-1,0.2c0-2.2,2-5.3,3.1-4.7c0.8,0.6,1.4-1.6,1-3.8c-0.1-0.5,0.4-0.5,1-0.1
	c0.8,0.5,1,0.2,0.7-0.8c-0.4-0.9,0-1.5,0.8-1.5C300.1,337.8,300.8,338,300.8,338.4z M187.2,344.1c-0.7,3-1.3,3.9-1.9,3.2
	c-0.8-0.8,0.6-5.9,1.6-5.9C187.6,341.5,187.6,342.5,187.2,344.1z M341.5,355c0.4,8-1.2,14.4-6.3,25.2c-3.3,7-4.8,9.3-6.3,9.3
	c-1.1,0-3.4,0.3-5.1,0.6l-3.1,0.6l4.6-7.6c5.8-9.7,8.4-17.8,9.1-28.3l0.6-8.2l3.1,1.3C341,349,341.2,349.5,341.5,355z M373,365
	c13.9,6.8,27.9,14,31.1,15.9l6,3.4l-8.5,0.7c-12.3,1-64.3,4.2-64.7,3.9c-0.2-0.1,1.3-4,3.2-8.7c2.8-6.7,6.6-22.1,6.6-26.8
	c0-0.5,0.2-0.9,0.5-0.9S359.1,358,373,365z M280.2,362.6c-0.3-0.6-0.1-1.2,0.4-1.2c1.5,0,1.4,2.3-0.1,3.8c-0.9,0.9-0.9,1.2-0.1,1.2
	c0.7,0,1.5-0.9,1.8-2c0.3-1.1,1.1-2,1.6-2c1.6,0,0.9,1.4-2.6,5.5c-2.9,3.4-3.6,3.8-4.7,2.6c-1.1-1.2-1-1.3,0.6-0.7
	c1.7,0.6,1.8,0.2,1.4-4.4c-0.5-4.4-0.3-4.8,0.9-3.2C280.2,363.1,280.6,363.4,280.2,362.6z M272,367.5c-0.2,1.6-0.6,3-0.8,3
	c-0.2,0-0.4-1.4-0.4-3c0-1.7,0.4-3,0.8-3C272,364.5,272.2,365.8,272,367.5z M184.6,381.9c5.1,5.5,17.6,14.6,24.7,17.9
	c5.6,2.7,6.2,3.3,9.3,9.8c8.4,17.5,28.6,27.1,50.9,24.1c10.2-1.4,17.6-3.7,28.5-9c6-3,7.7-3.5,7.7-2.2c0,4.5-3.2,37.7-3.8,39.1
	c-0.6,1.3-4.8,1-36.2-3.3c-42.1-5.7-82.1-10.8-84.3-10.8c-0.9,0-1.8,0.9-2.2,1.9c-0.3,1,1.3,12.6,3.5,25.7
	c2.3,13.2,5.6,33.2,7.5,44.5s3.7,21.3,4,22.1c1,2.6,5.4,3.9,23.3,6.8c9.6,1.6,17.6,3.1,17.9,3.3c0.3,0.3-4.7,3-11,6.1
	c-7.6,3.6-13.4,7.2-17,10.5c-5.5,4.9-5.7,5-13.8,5.7c-9.9,0.8-12.9,2.9-12.9,9c0,3.7,3.3,10.4,5.1,10.4c0.6,0,0.1,1.3-1.1,2.9
	c-1.1,1.7-2.7,4.6-3.6,6.7c-1.9,4.6-0.5,8.8,3.7,10.9c6.5,3.4,12.6,0.8,22.5-9.8c4.9-5.2,7.8-7.5,10.2-8c3.1-0.6,3.2-0.5,3.2,2.7
	c0,8.2,9,17.9,17.7,19.2c3.4,0.5,5.9,1.7,8.4,3.9c2.4,2.1,5.2,3.5,8,4c2.4,0.4,5.7,1.8,7.2,3.1c3.4,2.9,8.2,4.3,12.6,3.6
	c4.5-0.6,10.1-6.3,10.1-10.2c0-4.1,2.7-4.6,8.9-1.4c3.1,1.6,7.5,2.9,10.7,3.2c4.7,0.4,5.7,0.8,6.9,3.2c2.1,4,11.4,12,14.8,12.7
	c3.8,0.8,11.5,8.6,14.8,14.9c2.9,5.6,9.2,10.9,14.2,11.8c1.9,0.4,6.5,2.7,10.2,5.2c12.2,8.1,36.8,18.3,45.2,18.6
	c2.9,0.1,3.3,0.5,3.9,3.5c0.4,1.9,0.4,3.6,0.1,3.9c-0.9,1-249.2,0.6-249-0.4c0.1-0.5,1.4-18.7,2.8-40.4
	c3.9-61.1,3.4-102.6-1.5-129.6c-0.9-5.3-10-70.9-10-72.5c0-0.4-0.7-0.7-1.6-0.7c-1.5,0-1.6,1.3-1,11.2l0.6,11.3l-2.5-5.9
	c-3.1-7.3-4.5-9.2-5.6-7.4c-1.2,1.9-0.2,5,5.1,16.8c7,15.4,8.9,30.1,4.9,36.7c-1.2,1.9-2.3,3.3-2.4,3.1c-0.2-0.2-1.9-10.4-3.9-22.8
	c-2-12.4-4.3-26.3-5.1-31c-0.8-4.7-3.8-22.2-6.5-39c-2.7-16.8-5.2-31.4-5.6-32.6c-1.2-4.6,10.5-14.2,27.4-22.5l11.5-5.7l4.5,5.7
	C179.1,375.5,182.6,379.6,184.6,381.9z M-80.8,371.5c10.5,1.1,25.8,2.7,34,3.6c8.3,0.9,26.5,2.8,40.5,4.3l25.5,2.7l0.3,12.4
	l0.3,12.5l-4-3.9c-2.2-2.2-3.8-4.3-3.5-4.8s0.2-0.7-0.3-0.6c-1.3,0.4-12.3-6.4-11.7-7.3c0.5-0.9-4.4-5.7-6.7-6.4
	c-0.9-0.3-3.6-0.1-6,0.4s-4.5,0.8-4.8,0.6c-0.9-1-3.1,5-3.5,9.5c-0.2,3.7,0.1,4.9,1.5,5.8c1.1,0.7,1.6,1.8,1.2,2.7
	c-0.3,0.9-0.2,1.5,0.3,1.3c1.3-0.4,12.7,8.8,15.4,12.4c1.9,2.6,1.2,2.2-4.1-2c-10.8-8.8-14.1-9.9-27.9-9.2c-2.5,0.1-4.9,0.5-5.5,0.9
	c-0.5,0.3-1.2,0.6-1.5,0.7c-7.5,1.2-13,4.6-13,8c0,3.1,2.5,8,4.6,9.2c1.3,0.7,1.1,1.2-1.3,2.7c-1.5,0.9-3.6,2.7-4.6,3.9
	c-1,1.1-1.5,1.4-1.1,0.6c0.7-1.3,0.6-1.3-1-0.1c-1.3,1.1-1.4,1.6-0.5,2.2c0.9,0.5,0.3,2.3-2.3,6.6c-3.5,5.7-5.4,10.8-3.7,9.8
	c0.4-0.3,1.1,0.7,1.5,2.2c0.3,1.5,0.7,3.4,1,4c0.2,0.7-0.1,1.3-0.7,1.3c-0.6,0-0.7,0.4-0.4,1c0.3,0.5,0.2,1-0.2,1
	c-1,0-3.3,7.9-3.3,11.1c0,3.2,4.4,6.9,8.3,6.9c2.6,0,4.3-0.9,7.1-3.7c2-2,3.9-4.7,4.2-6c1-3.7,3.9-2.8,6.5,2.1
	c1.3,2.5,6.3,10.2,11.1,17.2s8.6,12.9,8.5,13c-0.1,0.1-13.2-2.3-29.2-5.2c-15.9-2.9-29.9-5.4-31-5.4c-1.1,0-2.6-0.4-3.3-0.8
	c-0.7-0.5-4-14.5-7.8-32.8c-8.8-43.2-10.8-52.5-14.3-69.2c-4.2-19.2-4.2-18.5,1.7-17.8C-101.9,369.2-91.2,370.4-80.8,371.5z
	 M519,384.5c-0.2,2.4-0.4,4.5-0.5,4.6c-0.1,0.1-4.2,0.4-9.2,0.8c-7.1,0.5-8.5,0.3-6.8-0.6c3-1.5,4-4.8,1.9-6.3
	c-2.6-2-1.9-2.4,4.7-2.8C519.8,379.5,519.2,379.4,519,384.5z M496.8,382.5c0,0.6,0.9,0.8,2.3,0.4c1.8-0.6,2-0.5,1,0.6
	c-0.7,0.7-1.3,2.1-1.3,3.2c0,1-0.4,1.5-1,1.2c-0.5-0.3-1,0.1-1,0.9c0,1.5-3.8,2.2-16.7,2.9l-6.3,0.3v-4.7v-4.8l5.8-0.4
	C492.2,381.4,496.8,381.5,496.8,382.5z M415.6,387.9c1.5,0.8,4.4,2.7,6.4,4.4l3.8,3l-7.3,0.6c-3.9,0.3-11.2,0.8-16.2,1.1
	c-4.9,0.3-11.7,0.8-15,1c-3.3,0.2-9.8,0.7-14.5,1c-4.7,0.3-15,1-23,1.5s-16.2,1-18.2,1h-3.8l3.6-5c2-2.8,4.3-5,5.3-5
	c1.8,0,29.2-1.7,40.6-2.4c3.9-0.3,12.6-0.8,19.5-1.2s12.7-0.8,12.9-1C410.6,386,413,386.5,415.6,387.9z M70.8,388.4
	c0,1.7-1.8,2.1-2.4,0.6c-0.3-0.9,0-1.5,0.9-1.5C70,387.5,70.8,387.9,70.8,388.4z M94.5,391c0.3,0.3-0.4,0.5-1.6,0.5
	c-1.1,0-2.3-0.4-2.7-0.9C89.7,389.5,93.5,390,94.5,391z M-6.8,391.9c1.6,0.6,1.7,0.9,0.5,1.7c-1.2,0.8-1.1,0.9,0.5,0.5
	c1.4-0.4,3.4,0.6,6.4,3.3c3.8,3.4,4.2,4,3.2,5.9c-2.7,5.1-9.4,4.9-14.2-0.6l-2.4-2.7l2.5,2.1c1.4,1.2,3.6,2.5,5,2.9
	c2.5,0.7,2.5,0.7,0.5-1.3c-1.1-1-2.3-1.8-2.6-1.6c-1.5,0.9-3.2-6.3-1.7-7.2c1.2-0.7,1-2.4-0.3-2.4c-0.5,0-0.7,0.4-0.4,1
	c0.3,0.5,0.1,1-0.4,1c-0.6,0-1.1-0.5-1.1-1.1c0-0.5-0.5-0.7-1.2-0.3c-0.7,0.4-0.8,0.3-0.4-0.5c0.4-0.6,1.2-0.9,1.7-0.6
	c0.5,0.4,0.9,0.1,0.9-0.5c0-0.6,0.3-0.9,0.8-0.7C-9.1,391-7.9,391.5-6.8,391.9z M98.5,392.1c-0.2,1.1,0.2,1.7,1,1.5
	c0.8-0.1,1.1,0.2,0.7,0.7c-0.3,0.6-1.2,0.8-2,0.4c-0.8-0.3-1.5,0.1-1.5,0.8c0,0.7-0.2,1-0.5,0.7c-0.6-0.5,1.5-5.8,2.2-5.8
	C98.7,390.5,98.8,391.2,98.5,392.1z M107.4,393c0.8,0.9,1.3,1.9,0.9,2.2c-0.3,0.4-1.3-0.2-2.2-1.3c-1.4-1.8-1.5-1.8-0.9,0.6
	c0.4,1.7,0.3,2.1-0.3,1.1c-0.5-0.7-1.5-1-2.2-0.6c-0.8,0.5-0.7,0,0.2-1.4C104.4,391,105.3,391,107.4,393z M328.1,392.6
	c-0.4,0.7-2.2,3.2-4.1,5.5c-3.3,4.1-3.7,4.3-8.8,4.3h-5.4l4.7-5c3.8-4,5.4-5,8.7-5.3c2.2-0.2,4.4-0.4,4.8-0.5
	C328.5,391.5,328.5,392,328.1,392.6z M518.3,394.1c-0.3,1.6-1.2,10.2-2.1,19.3c-0.8,9.1-2,20.3-2.5,25c-0.5,4.7-1.7,15.2-2.5,23.5
	c-5.9,56.6-5.2,51.5-7.6,51.5c-1.8,0-1.9-0.8-2-12.8c-0.2-39.1,0.3-106.7,0.7-107.2c0.3-0.3,3.8-0.8,7.7-1.1c4-0.3,7.6-0.6,8-0.7
	C518.5,391.5,518.7,392.6,518.3,394.1z M496.8,431l0.1,37.5h-2.7c-1.5,0-3.2,0.7-3.8,1.4c-0.9,1.3-2,1-6.9-2
	c-6.3-3.7-8.2-4.2-7.3-1.9c0.3,0.9,0,1.5-0.9,1.5c-1.2,0-1.5-1.9-1.5-10c0-8.1,0.3-10,1.5-10c1.1,0,1.2,0.5,0.5,2.6
	c-0.6,1.4-1,3-1,3.5c0,1.8,3.7,0.9,6-1.6c1.2-1.3,4-3.6,6.1-5.1c2.2-1.5,3.9-3,3.9-3.4c0-1.3-12.9-9.2-13.9-8.6
	c-0.6,0.4-0.6,1.8-0.1,3.6c0.7,2.6,0.6,3-1.1,3c-1.8,0-1.9-0.8-1.9-12.5c0-6.9,0.4-12.5,0.9-12.5s1.7-0.3,2.7-0.7
	c1.4-0.5,1.6-0.3,1.1,1.1c-0.4,1-0.3,1.5,0.4,1.1c0.6-0.4,0.7,0.3,0.3,1.9c-0.5,2.1-0.3,2.6,1.2,2.6c2.2-0.1,13.4-10,13.4-11.8
	c0-0.6-1.3-1.8-2.9-2.6c-1.6-0.9-4-2.9-5.4-4.6c-1.4-1.6-3-3-3.4-3c-1.4,0-6.1,5.2-7.2,8c-0.8,2-1,0.9-1-5.2
	c-0.1-8.9-0.5-8.5,10.4-9.1c3.3-0.2,7.4-0.4,9.2-0.5l3.1-0.2L496.8,431z M132.2,402.1c0.4,3.2,0.8,6.5,1,7.3
	c0.4,2,10.6,63.1,13.9,83.5c1.4,8.8,3.2,19.4,4,23.5c1.2,6.4,1.2,7.8,0,10.1c-2.3,4.5-3.1,4.2-5-1.9l-1.9-5.7l-5.5-0.8
	c-5.3-0.7-10-3.7-10-6.3c0-0.6-0.7-1.5-1.6-1.8c-0.9-0.4-1.4-1.3-1-2.1c0.3-0.8,0-1.4-0.7-1.2c-0.7,0.1-1.1-0.4-0.9-1.1
	c0.1-0.8-0.2-1.1-0.8-0.7c-0.6,0.3-1.4-0.4-1.9-1.7c-0.6-1.3-1-1.9-1-1.4c-0.1,0.5-0.8,0.3-1.6-0.4c-0.8-0.7-1.2-1.7-0.9-2.2
	s-0.2-0.8-1.2-0.6c-1.1,0.2-2.3-0.6-2.9-1.9c-0.7-1.3-1.5-2-2-1.5c-0.4,0.4-0.5-0.1-0.1-1.2c0.5-1.4,0.2-1.7-0.9-1.2
	c-0.9,0.3-1.5,0-1.5-1c0-0.8-0.4-1.2-1-0.9c-0.5,0.3-1-0.1-1-0.9c0-0.9,0.5-1.6,1.1-1.6s0.8-0.9,0.4-2.3c-0.6-2-0.5-2.1,0.8-0.5
	c1.9,2.4,3,2.3,1.7-0.2c-0.6-1.1-0.8-2-0.5-2c0.3,0-0.2-1.5-1-3.3c-1-1.9-1.1-2.6-0.3-1.7c1.8,2.2,5.4,2,5-0.3
	c-0.2-0.9,0.3-1.7,1-1.7c1,0,1-0.2-0.1-0.9c-1.1-0.7-0.9-1,0.8-1.6c1.8-0.5,2-1,1-2.1c-0.6-0.7-0.9-2-0.6-2.8c0.3-0.8-0.1-1.7-1-2
	c-1-0.4-1.4-0.2-1,0.6c1.7,4.6,1.7,5.6,0.1,6.2c-2.2,0.9-3.2-0.2-1.4-1.5c1.1-0.6,0.4-0.8-2.2-0.6c-3.7,0.4-6-1.5-3.6-2.9
	c0.6-0.4,0.8-0.3,0.5,0.3c-0.4,0.6,0.2,1.3,1.3,1.6s2,0.1,2-0.3c0-1.6-2.3-6-3.2-6.1c-0.4-0.1-1.3-0.2-1.9-0.3
	c-0.7,0-1.6-1.2-2.1-2.5c-0.8-2.2-0.7-2.3,0.9-1c1,0.8,2.1,1.8,2.4,2.3c1.2,1.6,3-0.5,2.4-2.7c-0.5-2-0.5-2,0.5-0.4
	c0.8,1.2,0.8,2.2,0.1,3c-0.6,0.8-0.6,1.8-0.1,2.7c1.5,2.4,2.4-3.7,1-7c-0.6-1.6-0.8-3.5-0.4-4.2c0.6-1,0.4-1-0.9,0.1
	c-1.5,1.2-1.7,1.1-1.7-0.3c0-0.9-0.4-1.6-0.9-1.6s-0.7,1-0.4,2.2l0.6,2.3l-2.2-2.4c-1.1-1.3-2.1-2.5-2.1-2.7c0-0.5,12.2,0.6,21,2
	c4.7,0.7,8.9,0.9,9.4,0.5c1.1-1,0.7-4.2-4.4-34c-3.3-19.4-3.3-19.6-1.4-22.1c1-1.4,2.2-2.4,2.5-2.2
	C131.2,396.2,131.9,399,132.2,402.1z M433.6,404.4c2.2,3.3,6,9.8,8.2,14.5c4.6,9.5,4.4,10.9-1.4,12c-2.4,0.5-6.5,3.8-15.8,13
	c-13.7,13.5-14.5,14.1-20.4,15c-3.9,0.7-4.2,0.6-5.7-2.7c-1.9-4-5.6-5.2-11.1-3.6c-3.2,0.9-8.7,5.8-8.7,7.9c0,0.4-4,1.1-9,1.5
	l-8.9,0.7l-3.4-3.6c-2.9-3-4.1-3.6-7.5-3.6c-4.9,0-9.8,3.7-11,8.3c-0.8,2.8-1.2,3.2-4.3,3.1c-4-0.1-29.2-3.4-29.8-4
	c-0.4-0.3,2.7-36,3.6-41.1c0.3-2.2,1.5-3.9,3.6-5.2c1.7-1.1,3.2-1.9,3.3-1.8c0,0.1-0.4,6-1,13.1c-0.9,9.7-0.9,13.2,0,14.4
	c1.1,1.5,3.7,1.4,29.8-0.4c15.7-1.1,29-2.4,29.5-2.9c1.3-1.3,2.9-12.1,3.3-21.2c0.4-10.8,1.5-10.4-24.7-8.8
	c-12.1,0.8-24.6,1.6-27.8,1.9l-5.9,0.4l3.2-3.3c3.1-3.2,3.2-3.2,15.3-3.9c6.7-0.4,15.4-0.9,19.2-1.2c19.6-1.4,52.4-3.4,55.4-3.4
	c3.3,0,3.3,0.1-2.5,3.1c-8.4,4.5-14.5,9.1-20.4,15.6c-6.3,6.9-14,19.8-14,23.5c0,5.1,2.8,3,7.2-5.5c3.1-5.9,6.5-10.5,12.4-16.3
	c6.9-7,9.6-8.9,18.7-13.4c6-2.9,10.7-5.8,10.7-6.6c0-0.9,1.1-1.4,2.9-1.4C429,398.5,430.1,399.5,433.6,404.4z M106.2,402.6
	c-0.6,1-0.4,1,0.7,0c2.1-2,7.7-1.5,8.9,0.8c1,1.9,0.8,1.9-5.7,1.3c-7.5-0.6-8.4-1-6.3-2.3C105.8,401,106.9,401.2,106.2,402.6z
	 M126.2,413.9c0.4,2.8,1.3,8.7,2.2,13.1c2,11.4,4.1,25,3.8,25.3c-0.1,0.1-6.8-0.8-14.9-2c-10-1.4-14.5-2.5-14.2-3.3
	c0.2-0.6-0.2-1.2-1-1.2c-0.7,0-1.1,0.4-0.8,0.9c0.3,0.4-0.2,0.8-1,0.8c-1,0-1.3-0.6-0.9-1.6c0.6-1.7,1.7-1.7,20.8,0.5
	c3.9,0.4,7.2,0.6,7.4,0.4c1.3-1-2.3-2.3-9.9-3.3c-8.7-1.1-12.1-1.7-13-2c-0.3-0.1-1.1-0.3-1.9-0.4c-0.8,0-1.6-0.7-1.9-1.4
	c-0.3-0.9,0.3-1.1,2-0.8c1.2,0.3,6.1,1,10.8,1.6c4.7,0.6,9.5,1.3,10.8,1.6c1.4,0.3,2.2,0,2.2-0.9c0-1-3.5-1.9-11.9-3.1
	c-8.8-1.3-11.8-2.1-11.5-3c0.4-1,1.5-1.1,4.7-0.4c2.3,0.5,5.5,0.9,7.2,0.9c1.6,0,3.3,0.5,3.7,1.2c0.5,0.7,0.8,0.8,0.8,0.1
	c0-0.6,1.3-0.9,3.1-0.6c2.4,0.3,3,0.1,2.7-0.9c-0.3-0.8-1.5-1.5-2.9-1.7c-1.3-0.2-3.1-0.5-3.9-0.8c-0.8-0.3-3.4-0.7-5.8-0.8
	c-2.5-0.1-4.7-0.8-5.2-1.6c-0.5-0.8-0.8-1.5-0.7-1.6c0.7-0.5,13.3,2.2,13.9,3.1c0.5,0.7,0.8,0.6,0.8-0.2c0-0.6,0.9-0.9,2.1-0.6
	c1.6,0.4,2,0.2,1.7-0.8c-0.3-0.8-1.3-1.5-2.4-1.7c-1-0.2-2.6-0.6-3.4-0.9c-0.8-0.3-2.4-0.6-3.5-0.5c-1.6,0.1-1.7,0-0.2-0.4
	c0.9-0.3,1.7-0.9,1.7-1.3c0-0.4,1.4-0.6,3-0.3c1.8,0.2,3,0,3-0.7c0-0.9-9.3-2.8-11.2-2.3c-1.2,0.3-0.9-1.3,0.3-2.5
	c0.7-0.7,3-1,6-0.6c2.7,0.3,4.9,0.4,4.9,0.1s-0.5-3-1-5.9c-0.8-4.1-0.7-6,0.2-7.7l1.2-2.4l0.8,2.7
	C125.3,407.5,125.9,411,126.2,413.9z M227.8,405.5c0,1.9,9.8,10.2,14.9,12.7c5.3,2.6,6.4,2.8,19.1,2.8c12.9,0,13.9-0.2,21.7-3.3
	c4.5-1.8,11.7-5.6,15.9-8.3c4.2-2.8,7.8-4.8,8-4.6c0.2,0.2,0.1,2.6-0.3,5.4c-0.5,4.9-0.8,5.2-5.7,8c-15.3,8.4-25.1,11.3-38.7,11.3
	c-18.7,0-33-7.5-39.9-21c-1.1-2.2-2-4.1-2-4.3c0-0.1,1.6-0.1,3.5,0.1S227.8,405,227.8,405.5z M317.2,406.2c-0.6,0.4-2.6,2.2-4.5,3.9
	l-3.5,3.3l0.3-4c0.4-3.9,0.5-4,4.5-4C316.4,405.5,317.8,405.8,317.2,406.2z M11.2,408.5c-0.4,1.2-0.2,2,0.5,2c0.7,0,0.6,0.5-0.2,1.4
	c-0.7,0.8-1.6,1.2-2,1c-0.4-0.3-0.5,0.7-0.2,2.1c0.2,1.4,0,2.5-0.6,2.5c-0.6,0-0.9-0.4-0.5-0.9c0.3-0.5,0-1.3-0.6-1.7
	c-0.7-0.4-0.9-0.3-0.5,0.4c0.3,0.6,0.1,1.4-0.6,1.8c-0.9,0.6-0.5,1,1.2,1.5l2.5,0.7l-2.6,0.1c-2.7,0.1-7.3-3.9-5.3-4.6
	c1.7-0.6,7.1-4.7,7.3-5.6c0-0.4,0.1-1.2,0.1-1.7c0-0.6,0.5-1,1.1-1S11.6,407.4,11.2,408.5z M-33.6,411.8c-0.3,0.8,0.3,1.4,1.6,1.4
	c2.9,0.3,4.4,2,2.9,3.5c-0.7,0.7-1.2,2-1.2,2.9c0,1.2-1.3,1.8-5,2.3c-7.9,1.1-14-1.3-14-5.5c0-2.4,1.3-3,8.9-4.4
	c3.6-0.7,6.8-1.3,7-1.4C-33.2,410.5-33.3,411-33.6,411.8z M374.4,420.1c-0.8,11.4-1.5,16.1-2.6,16.8c-0.6,0.4-50.4,4.5-54.7,4.5
	c-1.6,0-1.6-3.7,0.3-22.1l0.6-5.6l8.7-0.6c4.7-0.4,14-1,20.6-1.3c6.6-0.4,12.1-0.8,12.3-0.9c0.1-0.1,3.7-0.3,7.8-0.4l7.6-0.2
	L374.4,420.1z M114.9,425.1c-1.3,0.3-1.9,0.9-1.6,1.5c0.4,0.7,0.2,0.8-0.4,0.4c-2.1-1.3-1.3-2.6,1.6-2.5
	C116.8,424.8,116.9,424.8,114.9,425.1z M456.8,427.1c-0.8,0.3-1.8,1-2.1,1.5c-0.3,0.5-1.2,0.2-1.9-0.7c-1.1-1.3-0.8-1.5,2.1-1.4
	C456.8,426.5,457.6,426.9,456.8,427.1z M-33.4,433.1c-0.1,4.5-0.1,4.6-1.1,2c-0.8-2.4-1.2-2.6-2.6-1.5c-1.2,1-1.6,1-1.9,0
	c-0.5-1.4-3.3-1.7-3.3-0.2c0,0.5-0.7,0.7-1.5,0.4c-1-0.4-1.5,0-1.5,1.6c0,1.1-0.4,1.9-0.8,1.6c-1.2-0.7-1.3,3.6-0.1,5
	c0.6,0.8,0,2.1-2,4.3c-2.5,2.7-3.6,3.2-6.8,2.9c-2.4-0.2-3.9-0.8-4.1-1.8c-0.3-1.7,6.7-10.5,7.6-9.6c0.7,0.8,3.1-2.6,3.2-4.3
	c0-1.1-0.4-0.9-1.6,0.5c-1.5,1.8-1.5,1.8-0.4-0.3c1.6-3.3,5.8-5.2,11.8-5.3h5.2L-33.4,433.1z M32.7,439.5c2.2,4.4,4,8.3,4,8.7
	c0,1-5.7-9.2-7.5-13.5C26.6,428.6,28.7,431.4,32.7,439.5z M-20.7,438c0.5,0.6,0.7,2.1,0.3,3.5l-0.7,2.5l-0.1-2.8
	c-0.1-1.5-0.5-2.7-1.1-2.7c-0.5,0-1.5-1-2.1-2.3c-1.2-2.1-1.1-2.1,0.7-0.7C-22.7,436.2-21.3,437.4-20.7,438z M446.1,439.8
	c1.8,1.9,3.7,3.6,4.2,3.8c1.1,0.4,7.5,22,7.5,24.9c0,0.8-2.6,2.7-6,4.3c-3.7,1.7-6.5,3.8-7.7,5.7c-1.4,2.4-2.4,3-5,3
	c-3.2,0-6.6-2.6-21.8-16.7l-3-2.8l11.8-11.5c10.1-9.7,14.9-13.8,16.5-14C442.8,436.5,444.4,438,446.1,439.8z M467.8,453.1
	c0,2.7,0.1,7.2,0.2,10.1c0.3,5.6-0.7,6.5-3.5,3.4c-1.3-1.4-1.4-2.1-0.5-3s0.8-1.2-0.4-1.2c-1.4,0-1.7-1-1.6-5c0-2.8,0.4-4.7,0.9-4.4
	c0.5,0.3,0.7,1.1,0.3,1.7c-0.3,0.7,0.1,0.4,0.9-0.5c0.8-1,1.7-1.5,2-1.1c0.4,0.3,0.7-0.6,0.7-2c0-1.5,0.2-2.7,0.5-2.7
	C467.6,448.5,467.8,450.5,467.8,453.1z M199.2,452c15.5,1.9,75.8,9.9,90.1,12c5.6,0.8,10.6,1.5,11.1,1.5c0.4,0,0.7,1.8,0.5,4.1
	l-0.4,4.1l-5.2-0.6c-4.9-0.5-20.7-2.6-50.6-6.6c-8-1.1-23.9-3.1-35.5-4.5c-29.4-3.6-27.5-3.2-27.5-5.8c0-1.2-0.3-3.3-0.7-4.6
	c-0.5-2.1-0.4-2.3,2.3-1.7C184.9,450.1,192.1,451.1,199.2,452z M-44.9,453c0.8,2.2,0.7,4.7-0.3,6.3c-0.8,1.2-1.2,1.2-2.6-0.2
	c-2.4-2.5-3.5-1.2-3.5,3.9c0,3.7-0.6,5.1-3,7.6c-3.2,3.1-5.6,3.4-7.3,0.7c-0.7-1.2-0.2-3.4,2.3-8.7c2.8-6.2,3.6-7.1,6.5-7.6
	c1.8-0.4,3.8-1.3,4.5-2.1C-46.7,451-45.7,451-44.9,453z M102.8,457.5c0.9-1.3,1-1.3,0.6,0c-0.2,0.8-1,1.5-1.7,1.5
	c-0.7,0-1.5-0.7-1.7-1.5c-0.4-1.3-0.3-1.3,0.6,0C101.7,458.8,101.8,458.8,102.8,457.5z M394.4,460c0.9,3.7-1.9,9.2-5.1,10
	c-4.7,1.2-7-3-4-7c1.4-1.9,1.5-1.9,1.5,0.6c0,2.7,2,4.1,4.5,3.2c1.7-0.7,2.1-3.4,0.5-3.4c-0.5,0-1-0.9-1-1.9c0-2.3-1.6-3.6-2.5-2.1
	c-0.3,0.5-1.1,1-1.7,1c-0.7,0-0.6-0.6,0.2-1.5c0.7-0.8,2.5-1.5,4.1-1.5C393.1,457.5,393.9,458,394.4,460z M92.9,461.9
	c0.5,0.7,1.2,0.4,2.3-0.9c1.4-1.9,1.5-1.8,0.4,0.7c-0.7,1.5-1.5,2.5-1.9,2.3c-0.4-0.2-0.5,0.7-0.2,2.2c0.3,1.4,0.1,2.3-0.4,2
	c-0.5-0.3-0.9,2.1-0.9,5.3c0,5.7,0,5.7-3,5.8c-1.6,0.1-5.4,0.4-8.4,0.8c-4.2,0.5-5.2,0.3-4.9-0.7c0.3-0.8,1.3-1.3,2.2-1.3
	c1.4,0.2,1.5-0.1,0.4-1.4c-1.1-1.3-1-1.4,0.7-0.4c1.7,0.9,2.1,0.7,2.1-0.8c0-1.2-0.5-1.6-1.6-1.2c-1.2,0.5-1.1,0,0.4-2.3
	c8.2-12.6,8.1-12.5,10.1-11.8C91.3,460.5,92.5,461.2,92.9,461.9z M199.4,462.9c5.6,0.8,12.3,1.8,15,2.1c2.7,0.3,11,1.5,18.4,2.5
	c17,2.4,55.8,7.7,62.8,8.6c4.8,0.6,5.3,0.9,4.8,2.8c-0.3,1.2-0.6,2.7-0.6,3.5c0,1.1-1.2,1.3-5.7,0.8c-8.1-0.8-36.2-4.6-39.6-5.3
	c-1.9-0.4-2.9-0.1-3.3,1c-0.6,1.7,7.8,53.5,9.9,60.7c1.5,5.1,0.1,4.7,28.1,9.4c21.2,3.6,23,4,22.2,5.4c-0.3,0.4,0.1,0.8,0.9,0.8
	s1.2-0.4,0.9-0.9c-0.3-0.4,0.4-0.8,1.5-0.8c1.2,0,2.1,0.7,2.1,1.6c0,0.8-0.4,1.3-0.9,0.9c-0.5-0.3-1.6,0.2-2.5,1.1
	c-0.9,0.8-2.5,1.6-3.6,1.7s-1.9,0.6-1.7,1.2c1,2.4-8.8,0.5-24.3-4.8c-9.1-3.1-20.3-6.3-25-7.3c-8.2-1.6-8.7-1.6-14.3,0.3
	c-3.2,1.1-6.8,1.8-8.1,1.6c-2.1-0.4-2.5-1.3-3.6-8.6c-0.6-4.5-2.5-16.3-4.1-26.1c-1.7-9.9-2.8-18.5-2.5-19.2
	c0.3-0.7,0.1-1.6-0.3-1.8c-0.5-0.3-1.1-2.5-1.5-4.8c-1.7-11.2-4-21.8-4.8-21.8c-0.4,0-0.8,0.5-0.8,1c0,0.8,10.2,62.7,12.7,76.8
	c0.6,3.3,0.6,3.3-2.8,2.8c-20.9-3.7-30.4-5.7-31.4-6.8c-0.7-0.7-2.7-9.9-4.4-20.3c-1.7-10.5-4.5-26.7-6.1-36
	c-1.7-9.4-3.3-18.7-3.6-20.8l-0.7-3.7l3.4,0.5C187.8,461.1,193.9,462,199.4,462.9z M19.3,469.2c-1.2,1.1-1.8-0.7-1-3l0.8-2.3
	l0.4,2.3C19.7,467.5,19.6,468.9,19.3,469.2z M99,466.5c-0.6,0.6-0.9,1.7-0.7,2.4c0.3,0.7,0.1,1.5-0.4,1.9c-0.5,0.3-0.8-0.3-0.7-1.2
	c0.3-2.5,1.7-5.4,2.3-4.7C99.8,465.2,99.7,466,99,466.5z M410.6,467.1c1.4,0.9,6.6,5.5,11.4,10.2c9.2,9.1,12.5,11.2,16.8,10.9
	c1.9-0.2,3.4,0.7,5.4,3c3.1,3.7,7,4.2,11.2,1.5c2.6-1.7,2.7-1.7,2,0c-0.4,1-0.3,1.6,0.3,1.2c0.5-0.3,1.6,0.8,2.5,2.4
	c0.8,1.7,2.1,3.4,2.9,3.8c0.8,0.4,2.1,4.2,2.9,8.6c1.7,9.1,3.5,8.1-15.8,9.6c-7.1,0.6-25.6,2.2-41,3.5c-34.5,3.1-37.4,3.2-40.4,2.2
	l-2.4-0.8l0.8-18.2c1.3-30.2,1.2-32-0.6-32.4c-1.3-0.2-1.8,0.8-2.3,4.5c-1.3,10.3-2.6,28.2-2.6,37c0,6.7-0.3,9.3-1.2,9.4
	c-0.7,0.1-3.4,0.3-6,0.5c-5.4,0.5-4.9,1.4-6.9-11.6c-0.6-4.1-1.3-8.4-1.5-9.5c-0.3-1.1-1.3-7.1-2.4-13.3c-1.1-6.3-2.2-11.8-2.6-12.3
	c-0.3-0.5,1.4-0.6,3.9-0.3c5.3,0.8,9.8-1.3,12.4-5.6c1.7-2.9,1.9-3,9.9-3c4.5,0,8.9-0.3,9.8-0.6c1-0.4,1.6-0.1,1.6,0.8
	c0,2,4,5.5,7.2,6.3c3.6,0.9,9.5-2,11.3-5.6c0.8-1.5,2.5-2.9,3.7-3.1C406.6,465.5,408.2,465.5,410.6,467.1z M103.4,476.5
	c-0.9-1.6-0.2-1.3,1.9,0.6c1.5,1.5,1.5,1.6,0.1,0.9c-2.2-1.1-2.2,0.1-0.1,1.5c1.7,1.1,3.7,4.8,2.5,4.8c-0.4,0-0.7,0.8-0.8,1.7
	c-0.1,2.9-0.2,3.1-2.5,3.2c-1.8,0.1-2,0-0.8-0.4c1.3-0.5,1.2-0.6-0.2-0.6c-2,0-2.4-1-0.8-1.6c0.6-0.2,1-0.6,1-1c0-0.3-0.4-0.6-1-0.6
	c-0.5,0-0.9,0.2-0.8,0.4c0.3,0.9-1.4,2.7-2.2,2.4c-0.5-0.2-0.2-1.2,0.7-2.3c1.3-1.6,1.7-1.8,3.1-1.1c1.4,0.7,1.5,0.6,0.9-0.3
	c-0.4-0.7-1-1.9-1.3-2.7c-0.3-0.8-1.1-1.3-1.7-1.1c-0.6,0.2-0.7,0.1-0.3-0.4c0.4-0.4,1.2-0.6,1.7-0.4c1.6,0.7,1-0.7-1.1-2.2
	c-2.6-1.9-2.5-2.4,0.2-0.9C103.8,477.5,104,477.5,103.4,476.5z M495.6,471.6c0,1.3-0.3,1.7-0.6,1c-0.2-0.6-0.9-1-1.4-0.6
	c-1,0.6-1.2-0.9-0.2-1.9C494.8,468.8,495.8,469.5,495.6,471.6z M19.7,471.5c0,0.4-0.7,0.9-1.5,1.3c-0.9,0.3-1.5,0-1.5-0.8
	c0-0.7,0.7-1.3,1.5-1.3C19,470.8,19.7,471.1,19.7,471.5z M476.9,472.6c0,0.7,0.2,2.8,0.4,4.5c0.2,1.8-0.1,3.5-0.6,3.8
	c-1.1,0.7-1.2,7.5-0.2,7.5c0.4,0,2.8-2,5.3-4.5c4.5-4.5,5.8-5,11.8-4.7l3.2,0.2v17.4v17.3l-8.2,0.6c-14.8,1.2-14.5,1.3-15-3.2
	c-0.2-2.8,0-3.7,0.9-3.4c1.3,0.5,14.3-8.5,14.3-9.8c0-0.8-11.2-7.9-12.4-7.9c-0.3,0-0.6,1.4-0.6,3.1c0,1.8-0.5,2.9-1.1,2.7
	c-1.1-0.4-1.4-22.2-0.3-24C475.1,471,476.8,471.2,476.9,472.6z M113.8,475.6c1.3-0.5,1.3-0.3,0.1,1.2c-0.8,0.9-1.5,1.5-1.6,1.4
	c-0.1-0.2-0.8-1.4-1.4-2.8c-1-2.1-1-2.2,0.1-0.9C111.7,475.5,112.9,476,113.8,475.6z M17.8,477c0.5-0.4,0.9,0.8,0.9,2.4
	c0,1.7-0.4,3.1-1,3.1c-0.5,0-0.7,0.7-0.4,1.5c0.4,0.8,0.1,1.5-0.5,1.5c-0.7,0-1.1-2.1-1-5.8c0.1-3.1,0.3-4.9,0.6-3.9
	C16.6,476.6,17.3,477.2,17.8,477z M455.5,480.1c0.4,1-7.5,2.8-8.4,1.9c-0.3-0.2,0.5-1.4,1.6-2.5c1.5-1.5,2.6-1.8,4.3-1.2
	C454.1,478.8,455.4,479.6,455.5,480.1z M-99.8,489.5c6.6,1.2,12.1,2.2,12.3,2.4c0.2,0.2,1.6,6,3.1,13c1.6,7.1,3.4,13.1,4.2,13.6
	c2.3,1.4,7.5,2.7,22.4,5.4c7.7,1.4,14.9,2.9,16,3.4c1.3,0.5,3.2,3.8,5.3,8.9c2,4.8,4,8.3,5,8.6c0.9,0.2,4,1,6.9,1.6
	c5,1.1,5.3,1.4,6.9,5.8c2,5.6,7.9,20.7,10,25.7c0.9,2.4,1.1,3.4,0.3,3.3c-2.1-0.5-2,2,0.1,2.7s2,0.9-1.6,4.5
	c-3.2,3.2-4.2,3.7-6.1,2.9c-1.3-0.5-2.3-0.6-2.3-0.3c0,0.8-3.9-1.5-6.7-3.9c-1.3-1.2-2.6-2-2.8-1.7c-0.2,0.3-1.2-0.4-2.2-1.6
	c-1-1.1-2.4-1.9-3-1.7c-0.7,0.3-1.3,0-1.3-0.5c0-1.5-4.3-0.1-5.7,1.8c-1.4,1.9-6.3,3.3-6.3,1.8c0-0.5-0.4-0.6-1-0.3
	c-0.5,0.3-1,0.1-1-0.4c0-0.6-0.3-1-0.7-0.9c-0.5,0.2-3-0.6-5.7-1.6l-4.9-1.9l2.6-1.4c4.8-2.5,2.2-9.3-3.5-9.3
	c-1.8,0-3.4-1.7-2.4-2.7c0.3-0.3,1.9,0,3.6,0.7c4.1,1.7,6.2,0,2.9-2.4c-2.9-2-5.2-2-8.9-0.1c-5.2,2.7-3.7,5.6,4.3,8.5
	c1.5,0.5,2.7,1.4,2.7,2c0,1.3-3.7,1.3-4.5-0.1c-0.4-0.5-1.8-1.4-3.1-1.9c-3.2-1.2-8.8,1.8-9.2,4.9c-0.6,4-2.7,1.6-3-3.4
	c-0.3-4.8-0.3-4.9,1.6-3.2c2,1.8,5.2,2.3,5.2,0.7c0-0.5-0.9-1.4-2.1-2c-3.2-1.8-5.9-6.9-5.2-10.2c0.5-2.5,0.3-2.8-2-2.8
	c-1.4,0-2.8-0.7-3.1-1.6c-0.4-0.9-0.9-1.4-1.2-1.1c-0.9,0.8,1.6,7.7,2.7,7.7c0.6,0,0.7,0.5,0.3,1.1c-0.3,0.6-0.6,4.2-0.6,8
	s-0.3,6.9-0.8,6.9c-2.7,0-6.9-1.4-6.4-2.1c0.3-0.5,1.1-0.7,1.7-0.3c1.2,0.6-0.6-1-5.6-4.8l-2.8-2.2l2.2-1.7c2.3-1.7,1.9-3.9-0.7-3.9
	c-0.8,0-1.4-1-1.4-2.5c0-3.7-2.8-3.1-3.8,0.7c-0.6,2.5-1.5,3.4-4,4c-9.3,2.4-6,17,4.7,20.6c4.8,1.7,6.8,1.5,8.9-0.9
	c1.6-1.6,2.7-1.9,5.6-1.3c2.1,0.3,4.7,1.5,5.9,2.5s3.8,3.1,5.7,4.7c5.8,4.8,12,6.2,14.8,3.2c2-2.2,4.2-2.5,11.2-1.6
	c2.7,0.4,4.8,1.2,5.4,2.3c2,3.7,7.3,8.1,11,9.1c3.4,1,4,0.9,5.9-1.3c2.1-2.2,4.6-2.9,10.4-2.6c2.4,0.1,7.3,4.4,7.3,6.5
	c0,1.9,3.5,5.6,5.3,5.6c0.9,0,1.9,0.5,2.2,1.1c0.4,0.6,1.4,0.8,2.2,0.5c0.9-0.4,2.1-0.2,2.7,0.3c1.6,1.4,5.7-0.8,9.4-5l3-3.4
	l0.6,3.5c0.4,1.9,0.5,16.5,0.4,32.5l-0.3,29l-4.3-11.6c-2.4-6.4-4.9-12.5-5.7-13.6c-1-1.4-4.2-2.7-10.8-4.2
	c-9.2-2.1-9.3-2.2-10.6-5.9c-2.7-8-10.5-27.8-11.5-29c-0.5-0.7-1.3-0.9-1.8-0.4c-0.4,0.4,2,7.8,5.6,16.6c4.6,11.4,5.9,15.6,4.7,15.1
	c-4.1-1.6-7.1-1.7-7.6-0.3c-0.3,0.9,0.5,4.4,1.9,7.9c1.3,3.5,3.7,9.7,5.2,13.8c1.5,4,3.7,7.9,4.9,8.6c1.1,0.8,8.4,3,16.3,5.1
	l14.2,3.7v4.9c0,4.6-0.1,4.9-2.2,4.2C14.6,685-14.4,677-25.8,674c-4.9-1.3-17.8-4.7-28.5-7.5s-20.5-5.8-21.8-6.6
	c-2.4-1.6-5.5-7.7-16.1-31.9c-3.2-7.2-9.9-22.4-15.1-33.8c-8.2-18.5-9.1-21.2-8.3-24c0.5-1.8,1.5-3.2,2.3-3.3c3.3-0.2,4-0.4,4-1.3
	c0-1.3-3-2.2-4.3-1.4c-0.6,0.4-2.4,0.7-4,0.7c-3.1,0-1.4,3.2-21.7-42.9c-2.7-6.1-7.1-16.2-9.9-22.5c-5.7-12.8-6.3-16.6-2.9-17.9
	c1.4-0.5,9.2,0.5,21.2,2.6C-120.4,486-106.4,488.5-99.8,489.5z M280.5,484.1c15,2.1,19.1,3,18.7,4.1c-0.3,0.8-0.5,2-0.5,2.8
	c0,0.9-0.8,1.2-2.7,0.8c-6.6-1.3-38.9-5.1-39.6-4.7c-0.8,0.5-0.1,7.2,0.8,8.2c0.5,0.4,36.4,6,39.3,6.1c0.6,0,1.2,0.7,1.2,1.6
	c0,0.8-0.3,1.3-0.7,1.1c-0.5-0.3-3.2-0.7-6.1-1.1c-2.9-0.3-10-1.3-15.8-2.2c-9.6-1.4-12.7-1.4-11.2,0.1c0.9,0.9,13.8,3.4,24.1,4.6
	c6.8,0.9,9.7,1.6,9.7,2.5c0,0.9-0.9,1.2-2.7,0.9c-1.6-0.3-6.6-1.1-11.3-1.9c-16.2-2.8-19-3-19-1.3c0,1.1,1.4,1.8,4.8,2.2
	c19.4,2.4,27.2,3.9,27.2,5.3c0,1.1-0.9,1.3-3.7,0.8c-12.8-2.1-26.4-3.8-27-3.2c-1.3,1.3,0.9,1.9,15.2,4.1c8,1.2,14.8,2.4,15,2.7
	c0.2,0.2,0,0.9-0.4,1.7c-0.7,1-2.7,0.9-10.7-0.4c-5.4-0.8-10.9-1.8-12.1-2.1c-1.5-0.3-2.3,0-2.3,1s3,1.8,10.4,3
	c5.8,0.9,11.4,1.6,12.5,1.6c1.4,0,2.1,0.6,2.1,1.8c0,1.7-0.6,1.7-13.2-0.3c-7.3-1.2-13.7-2-14.1-1.7c-2,1.1,1.5,2.2,11.8,3.7
	c14.3,2.1,15.5,2.4,15.5,4.2c0,1.2-0.7,1.4-3.2,0.9c-1.8-0.4-6.2-1.1-9.8-1.6s-8-1.2-9.9-1.6c-2.6-0.6-3.3-0.4-2.9,0.7
	c0.3,0.9,4.1,2,10.9,3.1c14.7,2.4,22.5,4.1,21.1,4.6c-0.7,0.2-0.9,0.8-0.6,1.4c0.4,0.6-0.4,0.8-2.2,0.4c-5.5-1-14.9-2.5-20.9-3.1
	c-3.2-0.4-6.3-0.8-6.6-1.1c-0.4-0.2-1,0-1.3,0.5c-0.9,1.5,2.5,2.2,32.4,7.1c22.3,3.7,23,3.8,25.1,6.2c2.4,2.8,4.4,6.2,3.2,5.5
	c-0.4-0.3-2.6-0.8-4.8-1.1c-7.2-1.1-48.9-7.7-55.9-8.9l-6.9-1.2l-5.1-30.8l-5.1-30.9l4,0.6C259.5,481.1,270,482.5,280.5,484.1z
	 M59.9,488.1c-1,0.4-1,0.8-0.1,1.9c0.7,0.8,0.9,1.7,0.5,2.1c-0.3,0.3-0.6,0.1-0.6-0.5c0-0.7-0.5-1.2-1.1-1.2c-0.6,0-0.9,0.7-0.5,1.5
	c0.8,2.2-0.2,1.8-1.5-0.6c-0.8-1.5-0.8-1.9,0-1.5c0.6,0.4,1.1,0.2,1.1-0.3c0-0.6-0.6-1.1-1.2-1.2c-0.7-0.1-0.2-0.4,1.2-0.8
	C60.3,486.8,62.2,487.4,59.9,488.1z M66,495c-0.3,0.8-0.1,1.5,0.5,1.5c0.6,0,1.3-0.6,1.5-1.3c0.4-0.9,0.6-0.9,0.6,0.1
	c0.1,0.7-0.6,1.5-1.4,1.8c-0.8,0.4-1.3,0.9-1,1.3c1.2,2.1-3.8,0.1-5.2-2c-1.7-2.4-1.7-2.4,0.4-0.6c2.1,1.8,2.2,1.8,3.2-0.1
	c0.6-1.1,0.7-2.3,0.3-2.7c-0.4-0.5-0.2-0.5,0.5-0.1C66.2,493.2,66.4,494.1,66,495z M101.8,496c1-0.6,0.7,2.1-0.3,3.1
	c-0.4,0.4-0.7,0-0.7-1c0-0.9-0.4-1.4-1-1.1c-0.6,0.4-0.7-0.1-0.3-1.1c0.4-1.1,0.8-1.3,1.1-0.6C100.8,496,101.2,496.2,101.8,496z
	 M110.8,502c0,0.7-0.7,1.4-1.5,1.8c-0.8,0.3-1.5,1.2-1.5,2c0,0.8-0.5,1.8-1.2,2.2c-0.7,0.4-0.8,0.3-0.4-0.4c0.4-0.7,0.3-1.2-0.2-1.2
	s-1.4-1-2.1-2.3c-0.9-1.6-1-1.7-0.5-0.2c0.4,1.1,0.7,3.2,0.8,4.8c0.1,1.6,0.6,2.5,1.3,2.3c0.6-0.3,1.9,0.2,3,1
	c1.7,1.4,1.7,1.5-0.2,0.5c-1.4-0.6-2.7-0.6-3.9,0.1c-1.7,0.9-1.8,0.8-1.2-1.6c0.9-3.5,0-3.3-1.2,0.4c-0.9,2.4-0.8,3.3,0.5,4.5
	c1.1,1.2,1.3,1.9,0.5,2.7c-0.6,0.6-0.8,1.8-0.4,2.7c0.5,1.4,0.4,1.4-1.3,0.1c-1-0.8-3.4-3.2-5.3-5.3c-3.2-3.5-5.4-4.4-3.6-1.6
	c1,1.6,1.6,6.7,0.6,5.4c-0.4-0.6-1.4-1-2.2-1c-0.8,0-1.5-0.9-1.6-2c0-1.1-0.4-3.1-0.8-4.4c-0.7-1.9-1-2.1-1.8-1
	c-0.7,1-0.7,0.8-0.3-0.9c0.4-1.2,0.2-2.2-0.4-2.2c-0.5,0-1.2,0.8-1.4,1.7c-0.4,1.7-0.5,1.7-0.6,0c0-1,0.6-2,1.4-2.3
	c0.8-0.4,1.2-1.1,0.9-1.6c-0.4-0.6,0.2-0.5,1.4,0.1c2.3,1.2,3.8,0,2.6-2.1c-0.5-0.7-0.3-0.8,0.5-0.4c0.7,0.5,1,1.4,0.7,2.2
	c-0.3,0.7-0.1,1.6,0.4,1.9c0.6,0.4,1,0.3,1.1-0.2c0.2-2.4,0.9-4.3,2.4-6.9c0.9-1.6,1.3-2,1-0.9c-2.7,8-2.6,10.4,0.1,3.9
	c0.8-2,1.7-3.4,2-3.1s-0.2,2-1.2,3.9c-0.9,1.8-1.7,3.5-1.6,3.8c0.1,0.3-0.1,1.5-0.4,2.7c-0.8,3,5.1,9.3,6.9,7.4
	c0.9-1,0.9-1.2-0.3-0.9c-0.9,0.2-1.4-0.3-1.2-1.1c0.2-0.8-0.3-1.8-1-2.2c-1.1-0.7-1-0.9,0.1-0.9c1,0,1.2-1.1,0.8-4.8
	c-0.4-3.2-0.3-3.9,0.3-2.2c0.8,2.6,1,2.3,1.5-2c0.2-1.4,0.6-3.4,0.8-4.5c0.3-1.1,0.6-2.3,0.6-2.8C103.8,496,110.8,500.9,110.8,502z
	 M18.3,502.5c0,3.4-0.4,4-2.1,4c-1.1,0-2.7-0.5-3.5-1.1c-1.3-0.9-1.2-1,0.3-0.5c1.3,0.4,1.7,0.1,1.5-1.2c-0.2-1.1,0.3-1.6,1.5-1.5
	c1.1,0,1.6-0.4,1.3-1.2c-0.4-1,0.1-2.5,0.9-2.5C18.3,498.5,18.3,500.2,18.3,502.5z M475.8,502.4c-1.6,3.2-3,3.4-3,0.7
	c0-1.9,0.5-2.6,2-2.6C476.5,500.5,476.6,500.8,475.8,502.4z M114.3,505.2c-0.9,0.9-3.7-0.8-3.1-1.8c0.5-0.8,1.1-0.7,2.1,0.1
	C114.2,504.1,114.5,505,114.3,505.2z M112.4,506.5c1.5,1.3,2.3,1.6,2.6,0.7c0.3-0.7,2.5,0.8,5.6,3.7c2.8,2.8,4.9,5.1,4.7,5.3
	c-0.2,0.2-2.6-0.2-5.5-0.9c-3.5-0.8-5-1.6-4.7-2.4c0.3-0.8,0.1-1.6-0.3-1.9c-0.5-0.3-1.1,0.2-1.5,1c-0.3,0.8-1,1.5-1.5,1.5
	c-0.6,0-0.7-0.7-0.4-1.7c0.4-1.1,0.3-1.4-0.5-0.9c-0.8,0.5-1,0.2-0.6-0.8c0.3-0.9,1.1-1.3,1.8-1c0.6,0.3,0.1-0.3-1.1-1.4
	c-1.3-1.1-2.3-2.3-2.3-2.6C108.8,503.9,110.4,504.5,112.4,506.5z M87.4,519c-0.4,1.5-0.5,1.3-0.7-0.6c-0.1-1.9-0.3-2.1-0.8-0.8
	c-0.6,1.4-1,1.5-3.7,0.2c-2-0.9-2.3-1.3-0.9-1c1.2,0.2,2.8,0,3.5-0.5C86.7,515.2,88,516.8,87.4,519z M163.8,540.8
	c3.3,26.3,2.8,73-1.6,133.2c-0.8,11.5-1.7,21.1-1.9,21.3c-0.6,0.6-3.1-5.2-10.5-24.3c-3.2-8.3-9-23.3-13-33.5s-9.6-24.8-12.5-32.5
	s-5.6-14.7-5.9-15.5c-0.4-1.1,1-2.5,4.9-4.8c6-3.6,6.3-5.8,0.9-4.9c-2.1,0.4-3.2,0.2-2.9-0.4c0.4-0.5-0.3-0.9-1.4-0.9
	c-1.2,0-2.1-0.4-2.1-0.9s-1-1.3-2.1-1.6c-1.7-0.6-1.9-0.9-0.8-1.6c0.8-0.4,1.3-1.2,1.1-1.6c-0.4-1.5,10-14.3,11.7-14.3
	c0.9,0,7.9,1.4,15.6,3l14,2.9l1.8-2.1c0.9-1.1,1.5-2.8,1.3-3.7c-0.3-0.9-1.5-8.2-2.7-16.2l-2.1-14.6l2.3-4.4l2.2-4.4l0.8,3
	C161.4,523.5,162.6,532,163.8,540.8z M468.1,521.2c1.2,4.4,2.8,19.3,2.3,20.8c-0.9,2.1-16.8,9.5-28.9,13.3
	c-17.9,5.7-25.3,6.5-25.3,2.8c0-2.1,2.2-3.4,24.5-14.1c18.7-8.9,18.5-8.8,16.3-10.6c-1.4-1.2-1.6-1.2-0.8,0c0.6,1.1,0.4,1.3-1,0.7
	c-1.6-0.6-1.6-0.4-0.4,1c1.3,1.6,1.2,1.6-0.8,0.6c-1.5-0.8-2.4-0.9-2.8-0.2c-0.5,0.8-1.1,0.7-2,0c-0.8-0.7-2-0.8-2.6-0.4
	c-0.8,0.4-0.9,0.3-0.5-0.4c0.4-0.7,0.2-1.2-0.3-1.2c-0.6,0-1.1,0.6-1.1,1.4c0,1.6-1.5,1.5-4.6-0.2c-1.7-0.9-2.6-0.8-4.4,0.5
	c-1.5,1.1-2,1.2-1.5,0.3c0.5-0.9,0.4-1.1-0.4-0.6c-0.6,0.4-1.8,0.3-2.6-0.4c-1-0.9-1.6-0.7-2.4,0.7c-0.6,1-1.1,1.3-1.1,0.7
	c0-0.7-1.4-1.4-3.1-1.6c-2.2-0.4-3.3,0-4,1.4c-0.5,1-1.5,1.8-2.2,1.8c-0.7,0-0.6-0.4,0.3-1c1.2-0.7,1.2-1.2,0.2-2.2s-1.4-1-2.1,0.1
	c-0.6,0.9-1.1,1-1.5,0.2c-0.4-0.6-1.3-1.1-1.9-1.1c-0.7,0-0.6,0.4,0.3,1c1.1,0.7,0.6,0.9-1.7,0.7c-1.8-0.1-3.3-0.6-3.3-1.1
	c0-0.6-0.7-0.1-1.6,1c-0.8,1-1.3,1.3-0.9,0.6c0.4-0.7,0-1.2-0.9-1.2c-1,0-1.3,0.6-0.9,1.6c0.5,1.5,0.3,1.5-2.4,0.1
	c-2.3-1.2-3.3-1.3-4.2-0.4c-0.7,0.7-1.1,0.7-1.1,0c0-0.6-1.4-1.3-3.1-1.7c-2-0.4-2.8-1-2.3-1.7c0.4-0.8,0.3-0.9-0.4-0.5
	c-0.6,0.4-2.8-0.1-4.9-1c-2.1-0.9-4.9-1.8-6.2-2c-6.5-0.8-2.2-1.7,18.4-3.5c7.2-0.6,23.4-2.2,36-3.4
	C464.6,519,467.5,519,468.1,521.2z M18.7,523.5c0,0.5-0.8,0.6-1.7,0.3c-1.2-0.5-1.5-0.2-1,1c0.9,2.4,0,2.1-1.3-0.3
	c-0.9-1.8-0.8-2,1.5-2C17.6,522.5,18.7,522.8,18.7,523.5z M103.3,528c0.2,1.2-0.1,1.3-1.2,0.3c-0.7-0.6-1.1-1.6-0.8-2.1
	C102,525.2,103,526,103.3,528z M-34.3,529.5c-2.6,1.6,0,2.8,11.3,5.1c10.9,2.2,13,2.1,10.8-0.5c-1-1.2-0.9-1.4,0.6-1.2
	c1.1,0.2,2.7,2.7,4.5,7.1c1.5,3.7,2.8,7.1,2.8,7.5c0,0.9-25.9-4.5-27-5.6c-0.9-0.9-5-11.3-5-12.7c0-0.4,0.8-0.7,1.8-0.7
	C-33.1,528.5-33,528.7-34.3,529.5z M13.8,529.5c0.5,0,0.9,0.4,0.9,1c0,0.5-0.6,0.7-1.4,0.4c-1.1-0.4-1.3,0-1,1.8
	c0.5,2.3,0.5,2.3-1-0.2c-2-3.2-2-4.4,0-3.6C12.2,529.2,13.3,529.5,13.8,529.5z M354,533.5c-9.3,5.7-5.4,16.4,9.8,26.5
	c8.8,5.8,14.4,8.3,23.2,10.1c19.5,4.1,28-5.8,16.7-19.2c-2.7-3.2-2.8-3.5-0.6-1.5c4.8,4.3,8.7,11.4,8.7,15.8c0,5.1-2.1,7-9.4,8.5
	c-4.8,1-7,1-14.4-0.6c-9.7-2-21-6.8-28.2-12.1c-9.5-7-16.1-17.8-14.6-23.9c0.7-3,4.9-5.5,9.1-5.6h3L354,533.5z M156.2,548.2
	c1,6.8,1.5,12.5,1.2,12.9c-0.4,0.3-5.5-0.5-11.4-1.7c-6-1.3-12.3-2.5-14-2.8c-3.8-0.5-3.7-0.3-2.1-3.7c0.7-1.6,1.7-2.4,2.7-2.1
	c5.8,1.7,18.2,3.8,18.8,3.2c0.6-0.6-0.4-6.9-2.2-13.1c-0.3-1.2,0.4-3.5,1.6-5.5c2-3.2,2.2-3.3,2.9-1.5
	C154.1,535,155.4,541.5,156.2,548.2z M1.2,534.8l6,1.2l3.6,10.5c1.9,5.7,4.7,12.8,6.2,15.7c2.7,5.1,2.7,5.6,2.5,20.5
	c-0.3,15.1-0.3,15.2-2.7,15.5c-1.6,0.3-3.4-0.7-5.7-3C5,589.2,4,588.3,1.8,588c-1.1-0.2-2.5-0.6-3-0.9S-2,580.2-2,572.8l0.2-13.8
	l-3.3-0.3c-3.2-0.3-4.5,1.4-1.8,2.4c1.1,0.4,1.5,2.2,1.4,6.5c-0.1,3.2-0.4,5.9-0.7,5.9c-0.3,0-2.9-5.8-5.7-12.8l-5.1-12.9l7.4,1.8
	c5.9,1.3,7.5,1.4,7.9,0.4c0.3-0.7-0.8-4.7-2.4-8.9c-1.8-4.6-2.5-7.6-1.8-7.5C-5.3,533.5-2.1,534.2,1.2,534.8z M107.8,537.7
	c0,0.4-0.7,0.8-1.5,0.8c-0.8,0-1.5,0.4-1.5,1c0,0.5-0.7,1-1.5,1c-1.2,0-1.2-0.3,0.3-1.8C105.3,536.8,107.8,536.2,107.8,537.7z
	 M17.5,538c2.1,0.6,2.2,1.1,2.1,9.3c-0.1,8.6-0.1,8.6-1.6,5.1c-0.8-1.9-2.3-6.1-3.3-9.3C12.8,537.2,13,536.8,17.5,538z M316.4,538.5
	c2.8-0.1,4.5,0.4,5.7,1.7c1.7,1.8,1.5,1.8-4.5,0.5c-3.5-0.8-6.9-1.5-7.5-1.5c-0.7-0.1-1.3-0.6-1.3-1.1s0.8-0.6,1.8-0.2
	C311.5,538.3,314,538.7,316.4,538.5z M37.2,541.8c26.6,4.9,31.7,5.9,38,7.1c3.9,0.7,9.2,1.7,11.8,2c3.1,0.5,5.1,1.4,5.7,2.6
	c1.7,3.1,1.3,4.1-1.2,2.8c-1.9-0.9-2.1-0.9-1,0.2c1.6,1.7,1.5,2.6-0.3,2.6c-0.8,0-1.5-0.7-1.5-1.6c0-1.4-0.2-1.4-1-0.1
	c-0.7,1.1-1,1.1-1,0.2c0-0.8-0.5-1-1.2-0.5c-0.7,0.4-1.9,0.8-2.6,0.9c-0.8,0.2-1.7,0.5-2,0.9c-0.4,0.3,0.8,0.4,2.5,0.1
	c2.2-0.4,3.5-0.1,4.4,1.1c1.2,1.5,1.2,1.6-0.3,1c-1.2-0.4-1.5-0.2-1.1,0.9c0.3,0.7,0.1,1.4-0.5,1.4s-1.2-0.4-1.4-0.8
	c-0.5-1.5-11-2.3-10.5-0.9c0.2,0.7,0.6,1,0.8,0.7c0.2-0.2,1.5,0.3,2.9,1.3c1.3,0.9,3.7,1.7,5.3,1.7c1.7,0,2.6,0.4,2.2,1
	c-0.4,0.6-0.1,1.8,0.7,2.7c1.1,1.4,1.1,1.6-0.4,1.1c-2.3-0.9-2.9,0.2-1.3,2.4c0.7,1.1,1.1,2.7,0.8,3.6c-0.5,1.1-0.2,1.4,1,0.9
	c1.2-0.4,1.4-0.2,1,1.1c-0.3,0.9-0.3,1.4,0.1,1c0.8-0.7,5.6,3.5,5.6,4.8c0,0.4-2,0.4-4.5,0.1c-3.6-0.5-4.5-0.4-4.5,0.8
	c0,0.8,0.6,1.5,1.3,1.6c3.4,0.2,7.3,1.1,8.1,1.9c1.2,1.2-7.7,6.7-13.8,8.5c-8.2,2.5-20.8,1.3-23.3-2.1c-0.7-1-1.3-1.2-1.3-0.6
	c0,1.8-1.7,1.5-3.9-0.7c-1.1-1.1-2.2-1.7-2.5-1.4c-0.6,0.6-1-1.2-0.7-3c0-0.4-0.2-0.6-0.6-0.6c-1.9,0.3-3.3-0.2-3.3-1.2
	c0-0.5,0.6-0.7,1.3-0.3c0.9,0.5,0.9,0.4,0-0.6c-1.3-1.4,0.1-6.5,2.3-8.8c0.7-0.7,1.1-2,0.8-3c-0.5-1.3-0.4-1.4,0.4-0.3
	c1.1,1.5,2.8-0.2,1.8-1.8c-0.8-1.3,12.2-0.5,13.8,0.8c0.8,0.7,1.6,2.3,1.9,3.7c0.4,2,0.1,2.3-1.4,1.9c-1.4-0.5-1.9-0.1-1.9,1.4
	c0,1.6,0.6,2.1,2.4,2.1c1.3,0,2.7-0.6,2.9-1.3c0.3-0.7,0.6-0.5,0.6,0.5c0.1,1.2,0.9,1.8,2.6,1.8c1.4,0,2.8,0.1,3.2,0.2
	c0.3,0.2,0.8-0.3,1.1-1.1c0.3-1,0-1.2-1.1-0.8c-0.8,0.3-2.3,0-3.2-0.7c-1.6-1.2-1.4-1.6,2.5-4.2c2.4-1.6,4.5-3.4,4.7-4.1
	c0.2-0.6-2.4-3.1-5.9-5.5l-6.3-4.3l3.3-0.3c4-0.4,4.1-1.6,0.2-3.2c-3-1.2-11.3-0.5-9.4,0.8c0.5,0.4,1,1.3,1.2,2.1
	c0.3,1.2,0,1.2-1.2,0.2c-1.1-0.9-1.6-0.9-2.2,0c-0.4,0.7-0.3,0.9,0.3,0.6c0.5-0.3,1,0,1,0.8c0,1-0.5,1.1-1.9,0.4
	c-1-0.5-1.8-0.7-1.8-0.3c0,0.3-0.7,0-1.7-0.7c-1.9-1.7-6.5-2-7.5-0.5c-0.4,0.6-1.5,1.1-2.5,1.1c-1.1,0-2.5,1.6-3.7,4.2
	c-1.1,2.4-2.6,4.3-3.5,4.3c-1.4,0-1.4,0.1-0.1,1c1.3,0.8,1.3,1-0.2,1c-0.9,0-1.8,0.5-2,1.2c-0.7,2-3.4,0.1-6.5-4.6
	c-3-4.6-3.1-4.9-3.2-18.1l-0.2-13.6l2.3,0.5C28.2,540.2,32.8,541,37.2,541.8z M108.4,542.5c0.7,3.8,1.9,4.4,10.9,6.1l7.2,1.3
	l-1.6,2.4c-1.6,2.5-3.3,2.5-14.7,0c-2.7-0.6-5.1-0.9-5.3-0.7c-0.8,1.1-2-2.9-1.6-5.1c0.4-2,0.3-2.2-0.5-1c-0.9,1.2-1.1,1-1.1-1.3
	c0-1.5,0.5-2.7,1.1-2.7c0.5,0,0.7,0.6,0.4,1.2c-0.3,0.7,0.2,0.3,1.1-1C106.5,538.7,107.7,538.8,108.4,542.5z M361.5,546.8
	c-1.7,1.7-2.3,1.9-2.6,0.8c-0.4-1.6,2.7-4.3,4-3.5C363.2,544.2,362.6,545.5,361.5,546.8z M280.2,559.2c11.6,3.9,25.4,9,30.7,11.5
	c8.3,3.9,9.9,5,11.6,8.4c3.2,6.3,5.2,14.3,5.2,21c0,4.4,0.7,8,2.2,11.5l2.2,5.1l-4.2,3.8c-2.8,2.7-5,3.9-7.1,3.9
	c-3.8,0-4.8-2.6-1.9-4.9c1.3-1.1,1.9-2.4,1.5-3.4c-0.6-1.5-1.1-1.4-5.3,0.8c-3.3,1.7-6.3,2.5-9.8,2.5c-6.1,0-13.6-3.2-14.3-6
	c-0.3-1.1-0.7-2-0.8-2c-0.2,0-4,2.3-8.4,5.1c-6.4,4.1-7.9,5.5-7,6.5c0.8,1,1.6,1.1,2.9,0.4c2.6-1.4,3-1.3,2.3,0.5
	c-0.7,2.1-5.6,4.5-8.9,4.5c-3.2,0-9.4-5.9-9.4-8.9c0-3.9,3.7-9.5,10.9-16.6c6.7-6.6,8.4-9.6,6.1-11c-1-0.6-17.6,16-19.7,19.8
	c-0.7,1.2-1.2,3.9-1.3,6.1c0,3.8,0,3.8-3.2,3.2c-5-0.9-7.8-4.7-7.8-10.6c0-7.3,1.3-9.5,11.5-20c5.2-5.3,9.5-10.4,9.5-11.3
	c0-2.9-3.3-1.9-7,2.1c-1.9,2-6.6,6.5-10.3,9.9c-7.3,6.6-8.6,9.3-8.7,18.2v4.4l-3.5-0.6c-1.9-0.3-4.8-1.5-6.4-2.7
	c-3.7-2.6-6.6-9.7-5.7-14.2c1.3-6.8,15.5-22.1,28.3-30.5c2.3-1.5,3-3.7,1.5-4.7c-1-0.6-9.9,5.2-16.7,10.9c-2.7,2.3-6.1,4.6-7.5,5
	c-8.8,2.7-14.4,7.3-23.3,19.2c-8.1,10.7-15.3,15.5-20.6,13.8c-3.7-1.1-3.5-4.3,0.5-10.3c5.6-8.6,17.8-24.3,21.6-27.8
	c1.8-1.7,11-7.1,20.3-11.8c16.8-8.7,17.1-8.7,23-8.2C256.9,552.2,267.6,555.2,280.2,559.2z M101.8,555.3c1.3,2.6,1.4,5.2,0,3.1
	c-0.7-1.1-1-1.2-1-0.2s-0.3,1-1.5-0.2c-0.8-0.8-1.5-2.2-1.5-3C97.8,552.8,100.4,553,101.8,555.3z M120.2,557.7
	c0.5,0.5-7.7,11.7-8.6,11.8c-0.5,0-6.9-14.2-6.9-15.3C104.8,553.7,119.7,557,120.2,557.7z M347.8,554.8c0,0.2-1.5,1.6-3.2,3.3
	l-3.3,2.9l2.9-3.3C347,554.7,347.8,554,347.8,554.8z M460.5,557.2c1.2,5,0.9,53.2-0.5,64.8c-3.4,27.6-10.2,46.3-20.4,56.2
	c-5.8,5.7-12,7.7-22.8,7.7c-8.2-0.1-10.9-0.6-20.4-3.8c-10.7-3.6-21.8-9-28.4-13.9l-3.2-2.4l5.8-3.6c3.2-2,8.2-6.1,11.1-9.1
	c4.1-4.4,6.2-5.8,9.8-6.6c10.7-2.4,13.5-4.8,15.8-13.5c1.9-7.3,1.9-15.4,0.1-22.3c-0.7-2.9-1.1-5.2-0.9-5.2c1.2,0,9.7,4.9,15,8.6
	c5.6,4,9.3,4.9,9.3,2.3c0-1.9-11-9.4-19.5-13.5c-5.9-2.7-9.8-5.3-11.3-7.3c-2.9-4-5.2-5.5-15.1-9.5l-8.1-3.3l5.2-2.2l5.1-2.1
	l3.7,2.5c2,1.4,4.5,2.5,5.7,2.5c2.2,0,3.3,1.8,3.3,5.1c0,7.9,11.8,14.3,17.7,9.7c1.4-1.1,10.3,1,10.3,2.4c0,1.3,5.8,3.8,9,3.8
	c4.8,0,9.7-2.5,11.5-5.9c1.2-2.4,1.2-3.1,0.3-3.1c-0.9,0-1-0.2-0.1-0.8c1.3-0.8,1.6-2.3,1.4-7.5c-0.1-2.2-0.5-3.6-1.1-3.2
	c-0.5,0.3-0.7,0-0.5-0.8c0.3-0.7-0.5-2.9-1.9-4.9c-1.3-2-2.2-3.9-1.8-4.2c0.3-0.3,0-0.6-0.6-0.6s-3.3-1.4-5.9-3
	c-4.6-2.9-9.6-3.9-10.7-2.1c-0.3,0.5-1.5,0.7-2.6,0.4s-2.8-0.2-3.7,0.2c-1,0.5-2.1,0.7-2.5,0.7c-0.5-0.1-0.8,0.4-0.8,1.2
	c0,0.8-0.4,1.7-0.8,2c-0.4,0.2-0.8-0.9-0.7-2.6c0-3.8,0.8-4.2,11.5-6.3c4.7-0.9,13.2-3.4,19-5.5c5.8-2.1,11.1-3.8,11.7-3.9
	C459.1,554.5,460.1,555.7,460.5,557.2z M351.8,561.5c0,1.1,0.4,1.8,0.9,1.5s1.1,0.1,1.5,0.9c0.3,0.8,0.1,1.7-0.4,2s-0.7,1.3-0.4,2.3
	c0.5,1.4,0.4,1.4-0.4,0.2c-0.8-1-0.8-1.8,0-2.7c0.8-1,0.6-1.3-0.5-1.3c-0.9,0-1.7,0.8-2,1.7c-0.2,1-0.4-0.1-0.3-2.5
	C350.2,559.5,351.8,557.5,351.8,561.5z M377,574c4,1.4,4,1.4,0.7,0.9c-4.1-0.6-12.4-4.6-16-7.6c-1.4-1.1,0.6-0.4,4.3,1.7
	C369.9,571,374.8,573.3,377,574z M328,570.2c3.4,5,4.7,8.6,4.7,13.2c0,5.9-1.1,5.6-3.8-1.2c-3.1-7.8-5.6-11.4-9.6-13.8l-3.1-1.9h4.6
	C325,566.5,325.8,566.8,328,570.2z M339.2,572.2c-0.2,0.7,0.7,4,2.1,7.4c1.4,3.4,2.3,6.3,2.1,6.5c-1.4,1.4-3.7-1.7-7.3-9.5l-4.1-8.8
	l3.8,1.6C338,570.2,339.5,571.5,339.2,572.2z M373.4,579.2c-0.6,0.7-7.8-2.3-10.3-4.3c-2.3-1.8-1.6-1.7,3.9,0.9
	C370.5,577.5,373.5,579,373.4,579.2z M30.8,584.5c0.7,1.7,0.7,2.6,0,2.8c-0.6,0.2-1.1,1-1.1,1.8c0,0.9-0.5,1.2-1.2,0.8
	c-0.7-0.4-0.8-0.3-0.4,0.4s0.1,2.1-0.7,3.2c-1.4,2-1.5,1.9-2.1-1.7c-0.3-2.1-0.6-6.5-0.6-9.8l0.1-6l2.5,3
	C28.7,580.5,30.3,583,30.8,584.5z M425.1,579c-0.4,0.8-1,1.5-1.5,1.5s-0.9,0.8-1,1.7c0,1-0.3,1.3-0.5,0.6c-0.6-1.4,1.3-5.3,2.6-5.3
	C425.2,577.5,425.5,578.2,425.1,579z M193.6,584.7l-4.2,6.1l-1.9-2.2c-2-2.6-2.4-8.7-0.5-9.4c0.6-0.3,3.4-0.6,6-0.6l4.8-0.1
	L193.6,584.7z M435.5,587.8c-0.8,2.3-3.7,1.7-4.9-0.9c-1-2.1-0.9-2.8,0.2-3.5C432.2,582.5,436.1,586,435.5,587.8z M225.1,587.5
	c-2.6,3.9-7,5.8-5.7,2.5c0.4-1.3,7-6.5,8-6.5C227.6,583.5,226.6,585.2,225.1,587.5z M442.6,586c-0.3,1.3-0.1,2.2,0.3,1.9
	c0.5-0.3,0.9,0,0.9,0.6c0,0.6,0.5,0.8,1,0.5c0.6-0.3,1-0.1,1,0.4c0,0.6-0.7,1.1-1.5,1.1c-0.8,0-1.5,0.4-1.5,1c0,0.5-0.4,1-1,1
	c-0.5,0-0.6-0.7-0.3-1.7c0.4-1.1,0.3-1.4-0.5-0.9c-0.8,0.5-1.2,0-1.2-1.3c0-1.2,0.6-2.1,1.3-2.2c0.9,0,0.9-0.2-0.1-0.6
	c-1.4-0.5-0.7-2.3,1-2.3C442.6,583.5,442.8,584.5,442.6,586z M346.2,592.2c2.8,1.2,9.1,4.2,14,6.6c5,2.4,11.4,5.3,14.2,6.3
	c7.7,2.7,8.3,1.6,5.1-9l-2.5-8.4l4.8,2.1c4.8,1.9,4.9,2,2.9,3.4c-3.1,2.2-2.4,7.3,1.2,9.3c3.8,2,6.4,0.4,6.2-3.9
	c-0.1-1.7,0-3.1,0.2-3.1c0.6,0,3.6,6.2,4.5,9.2c0.9,3.2,0.3,3.4-3.7,1.3c-3.9-2-6.3-1.9-9.9,0.5c-1.6,1.1-4.1,2-5.4,2
	c-2.5,0-17.2-6-28.3-11.6c-3.7-1.9-7.1-3.4-7.6-3.4c-0.8,0-5.2,12.5-5.2,14.8c0,1.3,3.6,3.3,20.9,11.5c6.8,3.2,12.9,5.6,13.5,5.4
	c1.5-0.6,4.9-11.4,4.1-12.7c-0.4-0.7,0.2-0.9,1.9-0.4c1.7,0.4,3.8-0.2,6.6-1.7l4-2.3l4.5,2.2c5.8,2.8,8.3,2.8,9.4-0.1
	c0.8-2.1,0.9-2.1,1.4,0.8c1.5,7.6,1.8,13.3,0.8,14c-0.7,0.4-1.1-0.3-1.1-1.7c0-4.1-4.6-9.6-9-10.8c-8.1-2.2-14.9,1.3-16.9,8.6
	s2.7,16.3,9.4,18c3.9,1,10-1.2,13.5-4.9c3.2-3.4,3.9-2.4,1.5,2.3c-2.5,4.9-14,7.4-20.8,4.4c-4.9-2.2-23.7-13.9-32-20
	c-3.2-2.4-7.3-4.9-9.2-5.5c-2.5-1-3.8-2.3-5-5.1c-1.9-5-1.9-7.7,0.2-16.5l1.8-7.1l2.5,1.7C340.1,589.3,343.5,591,346.2,592.2z
	 M430,593.8c1,1.9,0.9,2-0.5,0.8c-0.9-0.8-2.1-1.1-2.7-0.7c-1.9,1.1-3.1-0.5-1.9-2.6c0.8-1.7,1.3-1.8,2.5-0.8
	C428.1,591.2,429.4,592.8,430,593.8z M122.9,610.2c28.1,72.4,33.8,87.6,33.5,87.9c-0.2,0.2-21,0.4-46.3,0.4
	c-43.5,0.1-46.3-0.1-53.9-2c-17.1-4.5-29.9-8.1-30.7-8.6c-0.4-0.3-0.8-17.1-0.8-37.4v-37l3.1,1.8c1.7,0.9,2.9,2.1,2.7,2.5
	c-0.1,0.5,0.5,1.3,1.5,1.8c0.9,0.6,2.4,2.4,3.3,4.1c2.5,4.8,25.6,28.2,29.7,30.1c1.5,0.6,2.7,1.4,2.7,1.7s1.5,0.7,3.3,0.8
	c1.7,0.2,3.4,0.7,3.5,1.2c0.2,0.6,0.8,0.7,1.3,0.4c0.6-0.3,1.6,0,2.4,0.6c0.8,0.7,1.5,0.9,1.5,0.4s0.5-0.2,1,0.6c0.6,1,1,1.1,1,0.3
	c0-2.3,4.6,0.7,9.1,6c7.6,8.8,13.9,14.5,16.7,15.2c2.6,0.5,9.5,4.5,8,4.5c-1.8,0,3.2,3.8,5.6,4.2c2,0.4,3.1,0,4.1-1.6
	c0.8-1.1,1.5-1.7,1.5-1.3s0.9-0.2,2.1-1.4l2.1-2.1l-2.3-2.4c-1.2-1.3-1.9-2.4-1.5-2.4c1.1,0-1.3-2.2-6.2-5.7c-4-3-8.2-3.5-8.2-1.1
	c0,0.6-0.7,0.7-1.6,0.4c-0.9-0.4-1.3-0.2-0.8,0.5c0.9,1.5-3.2,0.2-7.3-2.3c-3.2-1.9-7.7-7.3-7.8-9.3c-0.1-0.5-0.7-2.3-1.3-3.8
	c-0.7-1.6-1-3.3-0.6-3.8c0.3-0.5-0.1-0.9-0.8-1c-0.8,0-0.9-0.2-0.2-0.5c0.6-0.3,0.9-1.6,0.6-2.9c-0.3-1.6,0-2.5,0.8-2.5
	c0.7,0,1-0.6,0.7-1.3c-0.3-0.9,0.6-1.4,2.8-1.5c3-0.2,3.4,0.1,4.5,3.3c1.3,4.1,2.6,5.1,4.4,3.6c0.7-0.6,2.3-1.2,3.7-1.5
	c1.3-0.2,2.3-0.9,2.2-1.5c-0.2-0.5,0.3-0.8,1.1-0.5c0.8,0.3,1.7,0,2.2-0.7c0.5-0.8,0.3-1-0.7-0.4c-1.1,0.7-1.2,0.6-0.2-0.6
	c1-1.2,0.4-2.3-3-6.1c-2.3-2.6-5.3-4.9-6.7-5.2s-3.5-0.8-4.7-1.2c-1.6-0.4-2.3-0.2-2.3,0.8c0,2.5-2.1,3.8-4.3,2.7
	c-1.4-0.8-1.8-0.8-1.3,0c0.4,0.6,0.1,1.1-0.7,1.1c-1.5,0-4.7,5.7-4.7,8.4c0,0.9-0.5,1.6-1.1,1.6c-0.5,0-0.8,0.4-0.4,0.9
	c0.8,1.4-6.1,3.4-8.7,2.5c-1.3-0.4-3.3-0.8-4.4-0.9c-2.8-0.2-9-3.9-8.7-5.2c0.3-1.3-6.9-7.9-8-7.5c-0.5,0.1-0.6-0.2-0.2-0.8
	c0.3-0.5,0.2-1-0.2-1c-0.5,0-1.3-1-1.8-2.3c-0.6-1.2-1.6-2.1-2.3-1.9c-0.7,0.1-1.1-0.1-1.1-0.5c0.3-2-0.3-3.2-3.1-6.1
	c-1.6-1.8-3-3.6-3-4.2c0-0.9-1.4-1.4-3.3-1.1c-0.4,0-0.6-0.2-0.5-0.6c0.2-0.5,0-0.8-0.3-0.8c-1,0-4-2.8-5.1-4.8
	c-0.7-1.4-0.7-1.7,0.1-1.3c0.6,0.4,1.1,0.3,1.1-0.2c0-0.9,1.8-0.8,5.5,0.3c0.6,0.1,1.3,0.2,1.6,0.1c0.3,0,1.3,0.5,2.2,1.3
	c0.9,0.7,2.4,1.1,3.2,0.7c0.9-0.3,1.8,0.1,2.2,1c0.5,1.3,0.7,1.3,1.4,0.2c0.5-0.7,0.9-0.8,0.9-0.2c0,0.6,1.5,1.1,3.3,1.1
	c3,0.1,5.9,0.5,11.7,1.9c1.4,0.3,3.9,0.8,5.5,1.1c1.7,0.3,3.3,0.9,3.6,1.4s1.9,1.2,3.5,1.5s4.5,0.9,6.4,1.4s5.4,0.9,7.7,0.9
	c2.2,0,6.1,0.5,8.5,1.2c2.3,0.7,4.6,1.2,5,1.1c0.4-0.1,1.1,1.3,1.6,3.1c0.7,2.8,1.2,3.2,4.5,3.4c2.8,0.1,3.7-0.3,3.7-1.5
	c0-0.8,0.3-1.3,0.6-0.9c0.8,0.8,5.4-3.4,5.4-5c0-0.7-0.4-1.3-1-1.3c-0.5,0-1-0.7-1-1.5s-0.7-1.5-1.6-1.5c-0.9,0-3.8-1.6-6.4-3.5
	c-4.8-3.5-7-4.3-7-2.5c0,2-0.2,2.5-1.3,3.2c-2.1,1.4-5.4,0.8-7.1-1.1c-1-1.1-2.5-1.7-3.6-1.4c-1,0.3-3.1-0.3-4.6-1.4
	c-1.7-1.1-2.5-1.3-2-0.5c0.7,1.1,0.4,1.2-1.3,0.3c-1.1-0.7-2.1-0.9-2.1-0.5c0,0.3-0.7,0.1-1.5-0.6c-0.8-0.6-1.9-0.9-2.4-0.5
	c-0.6,0.3-2,0.1-3.1-0.5c-1.5-0.8-2-0.8-2,0.2c0,0.9-0.2,1-0.8,0.2c-0.4-0.6-2.3-1.5-4.2-1.9c-1.9-0.4-3.9-1-4.4-1.3
	c-0.5-0.3-2.7-0.7-4.8-0.8c-2.1-0.2-4.3-0.6-4.8-0.9c-0.6-0.3-1,0-1,0.7c0,1-0.2,1-0.9-0.1c-1-1.5-3.2-2.3-6.3-2.2
	c-1,0-1.8-0.4-1.8-0.9c0-0.4-2.2-0.7-4.9-0.6c-3.1,0.1-4.7-0.2-4.4-0.8c0.4-0.5-0.1-0.7-1.1-0.3c-0.9,0.4-1.5,0.3-1.1-0.2
	c0.3-0.5-0.1-1.2-0.7-1.4c-1-0.4-0.9-0.8,0.2-1.6c0.9-0.7,1.1-1.1,0.3-1.1c-0.8,0-0.5-1.4,0.9-4c1.2-2.2,2.5-4,2.9-4
	c0.4,0,2,1,3.6,2.3c12,9.7,27.6,12.5,40.6,7.1c3.6-1.5,8.5-2.6,11.8-2.7c4.3-0.2,7.2-1.1,12.5-3.9c3.8-2,7.1-3.7,7.4-3.7
	C115,590.5,118.8,599.3,122.9,610.2z M415.1,593.7c-0.8,1.4-1.9,0.8-2-1.2c-0.1-1.6,0.1-1.7,1.2-0.7
	C415,592.3,415.4,593.2,415.1,593.7z M411.8,593.5c0,1.1-2.7,1.2-3.4,0.1c-0.2-0.4,0.4-0.9,1.5-0.9
	C410.9,592.7,411.8,593,411.8,593.5z M441.4,595.5c0.1,1.2,0,1.2-0.4,0c-0.3-1.2-0.5-1.2-1.3,0c-0.7,1.1-0.9,1-0.9-0.4
	C438.8,593,441.2,593.3,441.4,595.5z M498.5,599.7c-0.2,1.3-0.4,0.5-0.4-1.7c-0.1-2.2,0.1-3.2,0.4-2.3
	C498.6,596.7,498.6,598.5,498.5,599.7z M472.6,600c0,1.4-0.4,2.5-0.9,2.5s-0.9-1.1-0.9-2.5c0-1.4,0.4-2.5,0.9-2.5
	S472.6,598.5,472.6,600z M472.5,607.8c-0.3,6.2-1.4,6.7-1.4,0.6c-0.1-2.7,0.3-5,0.8-5S472.6,605.5,472.5,607.8z M392.4,618.8
	c1,0.8,1.7,1.6,1.4,1.8c-0.3,0.2-1.4,0.8-2.5,1.4c-1.1,0.6-2,1.7-2,2.5c0,2,3.4,2.3,5.5,0.4c2.4-2.2,3.1-0.7,1.5,3.2
	c-0.9,2.1-2.3,3.5-4.1,3.9c-2.2,0.6-3.2,0.1-5.6-2.6c-3-3.5-3-5.2-0.2-9.8C388.1,617,389.6,616.8,392.4,618.8z M343.9,621.3l2.3,1.8
	l-3.2,4.1c-6.3,7.9-14,10.5-19.8,6.7l-2.9-1.9l3.1-0.7c4.5-0.9,10-4.5,13-8.5C339.4,619,340.6,618.8,343.9,621.3z M357.4,632.7
	c4.6,2.8,8.4,5.4,8.4,5.8c0,1.1-5.4,5.7-10.4,8.9c-7,4.4-9.2,4.1-15.4-2c-2.9-2.8-5.2-5.4-5.2-5.7c0-0.4,1.7-1.7,3.9-2.9
	c2.1-1.2,5.1-3.8,6.7-5.7c1.6-1.9,3-3.5,3.2-3.5C348.8,627.5,352.6,629.8,357.4,632.7z M366,644.5c-4.6,4.2-11.2,8.7-11.2,7.6
	c0-0.2,2.1-1.8,4.8-3.5c2.6-1.6,6-4.4,7.6-6.1c1.7-1.7,3.2-3.1,3.5-3.1C371,639.5,368.9,641.8,366,644.5z M378.2,643.2
	c1.9,0.9,3.5,2.1,3.5,2.5c0,2.2-9.8,11.1-15.3,13.8c-7.3,3.6-11.6,3.8-15.3,0.6l-2.8-2.3l3.6-0.7c4.3-0.8,14-7,18.7-12
	c1.9-2,3.6-3.6,3.8-3.6C374.5,641.5,376.2,642.2,378.2,643.2z M498.5,664.2c-0.2,3.8-0.3,0.7-0.3-6.7c0-7.4,0.1-10.5,0.3-6.8
	C498.6,654.5,498.6,660.5,498.5,664.2z M12.5,660c2.8,7.1,4.9,13.1,4.8,13.2c-0.6,0.6-27.2-7-27.8-8c-0.8-1.2-6.8-16.5-6.8-17.2
	c0-0.2,1.5,0.2,3.3,0.9c4.8,2,21.7,5.9,22.4,5.3c0.3-0.4-0.2-2.5-1.2-4.9c-0.9-2.4-1.2-3.9-0.7-3.3C7.1,646.5,9.8,652.8,12.5,660z
	 M38.5,695c5.6,1.6,10.2,3.1,10.2,3.4s-5.4,0.4-12,0.2l-12-0.3v-3.6c0-2.9,0.3-3.4,1.8-3.1C27.4,692,32.8,693.5,38.5,695z
	 M138.9,704.5c11,0,15.8-0.3,15.8-1.1c0-0.8,0.4-0.8,1.4,0c1.1,0.9,1.5,0.9,1.8,0c0.6-1.9,7,15.8,6.6,18.3c-0.2,1.4-1.1,2.4-2.4,2.6
	c-1.8,0.3-76.2-19.4-77.3-20.4c-0.3-0.3,7.7-0.3,17.7-0.2c11.1,0.2,18.2-0.1,18.2-0.6c0-0.6,0.5-0.5,1.2,0.2
	C122.8,704,127.9,704.5,138.9,704.5z"/>
</svg>
