<?xml version="1.0" encoding="UTF-8"?><svg id="Layer_2" xmlns="http://www.w3.org/2000/svg" xmlns:xlink="http://www.w3.org/1999/xlink" viewBox="0 0 115.65 120.33"><defs><radialGradient id="radial-gradient" cx="40.5" cy="72.7" fx="40.5" fy="72.7" r="35.53" gradientTransform="translate(9.28 126.96) rotate(-8.52) scale(1 -1)" gradientUnits="userSpaceOnUse"><stop offset="0" stop-color="#046e23"/><stop offset="1" stop-color="#00333a" stop-opacity=".5"/></radialGradient></defs><g id="laugh"><g id="laugh-2"><g id="screen"><path d="M111.12,7.99s3.69,26.77,3.52,55.43l-23.76,9.49.27,8.19-17.99,7.63s-54.85,1.97-61.02,1.25C5.98,89.25,1.12,22.84,1,15.61,1,15.61,56.11.43,65.44,1.02c9.33.57,36,4.15,45.68,6.98Z" style="fill:none; stroke:#cdedf9; stroke-linecap:round; stroke-linejoin:round; stroke-width:2px;"/><path d="M70.12,4.59s4.71,61.18,1.89,80.69" style="fill:none; stroke:#cdedf9; stroke-linecap:round; stroke-linejoin:round; stroke-width:2px;"/><path id="face" d="M64.13,7.14s3.03,52.21,1.87,77.4c0,0-34.64,3.88-51.09.42,0,0-10.28-17.55-7.7-66.32,0,0,25.7-11.42,56.94-11.49h0Z" style="fill:url(#radial-gradient); stroke:#cdedf9; stroke-linecap:round; stroke-linejoin:round; stroke-width:2px;"/></g><g id="leg-2"><path d="M46.95,90.9s-2.8,13.55-10.09,28.43c0,0-7.97-1.5-7.85-3.42s4.89-9.01,12.5-24.34" style="fill:none; stroke:#cdedf9; stroke-linecap:round; stroke-linejoin:round; stroke-width:2px;"/><path d="M51.74,90.49s-4.34,21.87-7.83,26.91l-7.04,1.92" style="fill:none; stroke:#cdedf9; stroke-linecap:round; stroke-linejoin:round; stroke-width:2px;"/></g><g id="arm-1"><path d="M88.07,28.18s-.17,11.35,8.94,32.33c0,0-5.67.71-9.53-.38,0,0-5.48-8.34-3.33-27.06" style="fill:none; stroke:#cdedf9; stroke-linecap:round; stroke-linejoin:round; stroke-width:2px;"/><path d="M95.56,29.61s6.7,16.84,11.16,25.9c0,0,3.16,4.55-9.7,4.99" style="fill:none; stroke:#cdedf9; stroke-linecap:round; stroke-linejoin:round; stroke-width:2px;"/></g><g id="leg-1"><path d="M63.63,90.07s-1.89,11.39-9.2,26.26c0,0-8-1.51-7.88-3.42s4.55-7.86,12.19-23.18" style="fill:none; stroke:#cdedf9; stroke-linecap:round; stroke-linejoin:round; stroke-width:2px;"/><path d="M68.35,88.58s-3.36,20.78-6.86,25.84l-7.06,1.92" style="fill:none; stroke:#cdedf9; stroke-linecap:round; stroke-linejoin:round; stroke-width:2px;"/></g><g id="timid"><path d="M23.74,32l4.04-.13c.44-.01.89-.03,1.32-.12.42-.09.82-.25,1.22-.41,1.36-.54,2.71-1.08,4.07-1.62" style="fill:none; stroke:#cdedf9; stroke-linecap:round; stroke-linejoin:round; stroke-width:2px;"/><path d="M30.37,35.44c-.08.97-.15,1.93-.21,2.9-.02.39.09.92.48.9.36-.16.42-.65.43-1.05.01-.91.03-1.82.04-2.73" style="fill:none; stroke:#cdedf9; stroke-linecap:round; stroke-linejoin:round; stroke-width:2px;"/><path d="M48.41,40.63c.01.3.06.64.3.81.25-.68,1.31-4.28.41-4.66-1.13-.48-.74,3.28-.71,3.85Z" style="fill:none; stroke:#cdedf9; stroke-linecap:round; stroke-linejoin:round; stroke-width:2px;"/><path d="M31.03,48.99c.57.78,1.2,1.61,2.12,1.91.5.16,1.03.15,1.55.14,2.7-.06,5.39-.12,8.09-.18,1.13-.02,2.28-.05,3.35-.42s2.06-1.14,2.4-2.22" style="fill:none; stroke:#cdedf9; stroke-linecap:round; stroke-linejoin:round; stroke-width:2px;"/><path d="M53.22,41.64c.69.14,1.36.39,1.98.73" style="fill:none; stroke:#cdedf9; stroke-linecap:round; stroke-linejoin:round; stroke-width:2px;"/><path d="M54.98,39.34c1.26-.02,2.52-.02,3.78,0" style="fill:none; stroke:#cdedf9; stroke-linecap:round; stroke-linejoin:round; stroke-width:2px;"/></g></g></g></svg>