<?xml version="1.0" encoding="UTF-8"?>
<svg id="Layer_2" xmlns="http://www.w3.org/2000/svg" version="1.1" viewBox="0 0 174 146.1">
  <!-- Generator: Adobe Illustrator 30.0.0, SVG Export Plug-In . SVG Version: 2.1.1 Build 123)  -->
  <defs>
    <style>
      .st0 {
        fill: none;
        stroke: #cdedf9;
        stroke-linecap: round;
        stroke-linejoin: round;
      }

      .st1, .st2 {
        isolation: isolate;
      }

      .st2 {
        font-family: DINCondensed-Bold, 'DIN Condensed';
        font-size: 1.7px;
        font-weight: 700;
      }

      .st2, .st3 {
        fill: #cdedf9;
      }
    </style>
  </defs>
  <g id="Layer_2-2">
    <g id="Layer_1-2">
      <path class="st0" d="M11.5,1.8H.5v138.9l7,4h165V4.8l-7-3.1c-47.3-.2-63,0-87.8,0"/>
      <polygon class="st3" points="11.5 .5 14.9 4.4 75.7 4.4 79.6 .5 11.5 .5"/>
      <line class="st0" x1="5.9" y1="5.1" x2="5.9" y2="138.8"/>
      <line class="st0" x1="14.1" y1="130.9" x2="14.1" y2="138.8"/>
      <line class="st0" x1="10.1" y1="130.9" x2="10.1" y2="138.8"/>
      <line class="st0" x1="18.3" y1="130.9" x2="18.3" y2="138.8"/>
      <line class="st0" x1="163.6" y1="9.8" x2="163.6" y2="30.5"/>
      <line class="st0" x1="166.4" y1="9.8" x2="166.4" y2="30.5"/>
      <line class="st0" x1="169.2" y1="9.8" x2="169.2" y2="30.5"/>
      <g class="st1">
        <g class="st1">
          <text class="st2" transform="translate(159 126.9) scale(2.3 1)"><tspan x="0" y="0">01000010</tspan></text>
        </g>
        <g class="st1">
          <text class="st2" transform="translate(159 128.9) scale(2.3 1)"><tspan x="0" y="0">01110010</tspan></text>
        </g>
        <g class="st1">
          <text class="st2" transform="translate(159 131) scale(2.3 1)"><tspan x="0" y="0">01100001</tspan></text>
        </g>
        <g class="st1">
          <text class="st2" transform="translate(159 133) scale(2.3 1)"><tspan x="0" y="0">01101110</tspan></text>
        </g>
        <g class="st1">
          <text class="st2" transform="translate(159 135) scale(2.3 1)"><tspan x="0" y="0">01100100</tspan></text>
        </g>
        <g class="st1">
          <text class="st2" transform="translate(159 137) scale(2.3 1)"><tspan x="0" y="0">00100000</tspan></text>
        </g>
        <g class="st1">
          <text class="st2" transform="translate(159 139) scale(2.3 1)"><tspan x="0" y="0">01000100</tspan></text>
        </g>
        <g class="st1">
          <text class="st2" transform="translate(159 141) scale(2.3 1)"><tspan x="0" y="0">01001110</tspan></text>
        </g>
        <g class="st1">
          <text class="st2" transform="translate(159 143) scale(2.3 1)"><tspan x="0" y="0">01000001</tspan></text>
        </g>
      </g>
    </g>
  </g>
</svg>